<svg xmlns="http://www.w3.org/2000/svg" viewBox="0 0 500 500" style="enable-background:new 0 0 500 500" xml:space="preserve"><path style="fill:#ebebeb" d="m102.167 330.986-49.182 10.528a6.37 6.37 0 0 1-7.563-4.896l-10.528-49.182a6.37 6.37 0 0 1 4.896-7.563l49.182-10.528a6.37 6.37 0 0 1 7.563 4.896l10.528 49.182a6.37 6.37 0 0 1-4.896 7.563z"/><path style="fill:#fff" d="M93.277 311.373c-.028-.493-.204-.919-.374-1.331-.054-.13-.107-.26-.171-.429-1.096-2.219-3.141-3.583-4.805-4.526-1.724-.944-3.608-1.67-5.761-2.218l-.244-.063a.374.374 0 0 0-.417.175l-3.904 6.692-14.352-9.209 3.911-7.221a.375.375 0 0 0-.166-.518l-3.297-1.58c-.537-.25-.875-.407-1.099-.48a3.074 3.074 0 0 0-.316-.171c-.056-.024-.118-.057-.189-.093a5.301 5.301 0 0 0-.739-.323c-.825-.313-2.179-.658-3.928-.596a10.04 10.04 0 0 0-5.854 2.225c-2.276 1.812-3.594 4.598-3.524 7.454.037 1.652.833 3.351 2.125 4.536.643.621 1.409 1.107 2.082 1.534l21.835 13.982c.271.168.538.341.806.515.626.405 1.275.824 1.992 1.194 1.009.521 2.108.906 3.267 1.143a11.75 11.75 0 0 0 2.374.243c1.601 0 3.185-.328 4.614-.969 2.158-.936 3.972-2.658 5.104-4.844.226-.425.509-.995.684-1.63l.091-.288c.149-.464.304-.943.303-1.449l.068-.938-.116-.817zm-27.348-18.039-4.104 7.223a.376.376 0 0 0 .119.5l15.792 10.363a.374.374 0 0 0 .529-.122l4.073-6.891c1.798.504 3.438 1.164 4.878 1.963 1.357.771 3.268 2.014 4.164 3.852.049.14.105.277.162.415.127.31.247.603.262.939l.106.655-.07.796c.005.349-.111.703-.233 1.079l-.1.314c-.107.398-.291.835-.581 1.376-.984 1.888-2.542 3.369-4.391 4.174-1.857.83-4.017 1.054-6.081.63a11.155 11.155 0 0 1-2.887-1.005c-.626-.319-1.256-.725-1.866-1.117a42.753 42.753 0 0 0-.821-.521l-21.893-13.861c-.663-.412-1.347-.838-1.906-1.366-1.065-.968-1.705-2.285-1.754-3.616-.107-2.903 1.471-5.26 2.986-6.501a9.08 9.08 0 0 1 5.167-2.09 11.8 11.8 0 0 1 .666-.019c2.011 0 3.259.522 3.823.759.134.056.24.101.334.121.197.132.514.303.995.563l2.631 1.387z"/><path style="fill:#fff" d="M72.656 295.534c.598 0 1.836-.174 4.395-.702.835 4.216 1.152 4.667 1.457 4.667.04 0 .079-.008.119-.016h.002c.351-.069.628-.138-.273-4.928 4.886-1.058 4.847-1.34 4.78-1.689v-.001a.421.421 0 0 0-.172-.256c-.282-.189-1.927.03-4.862.636-.567-2.845-.998-4.4-1.277-4.589a.439.439 0 0 0-.298-.063.423.423 0 0 0-.255.169c-.19.28-.01 1.891.527 4.758-4.489.98-4.674 1.3-4.74 1.422a.415.415 0 0 0-.023.329c.05.135.099.263.62.263z"/><path style="fill:#e0e0e0" d="M352.362 60.073h109.207v180.768H352.362z"/><path style="fill:#ebebeb" d="M348.73 60.073h109.207v180.768H348.73z"/><path style="fill:#fafafa" d="M353.38 63.739h99.906v173.437H353.38z"/><path style="fill:#ebebeb" d="M372.4 86.276h61.434v128.363H372.4z"/><path style="fill:#e0e0e0" d="M372.4 169.216c-.142-11.991 10.639-23.697 22.514-25.371 5.662-.798 11.678.325 16.969-1.844 9.443-3.872 12.448-16.419 21.952-20.141l.434 92.779H372.4v-45.423z"/><g><path style="fill:#e0e0e0" d="M237.159 59.73h84.002v87.565h-84.002z"/><path style="fill:#fafafa" d="M231.471 59.73h84.002v87.565h-84.002z"/><path style="fill:#e0e0e0" d="M315.499 147.321h-84.054V59.704h84.054v87.617zm-84.002-.052h83.95V59.756h-83.95v87.513z"/><path style="fill:#fafafa" d="M242.763 71.501h61.418v64.022h-61.418z"/><path style="fill:#e0e0e0" d="M242.763 135.95c.048.057-.535.727-1.516 1.762a171.276 171.276 0 0 1-3.904 3.958 173.402 173.402 0 0 1-4.012 3.841c-1.048.962-1.722 1.532-1.775 1.479-.053-.053.527-.72 1.508-1.755a170.377 170.377 0 0 1 3.913-3.965 169.517 169.517 0 0 1 4.02-3.848c1.046-.964 1.717-1.53 1.766-1.472zM304.18 135.792c.057-.048.727.535 1.762 1.515 1.035.981 2.436 2.359 3.958 3.904a171.386 171.386 0 0 1 3.841 4.012c.962 1.048 1.532 1.722 1.479 1.775-.053.053-.72-.527-1.755-1.507a172.159 172.159 0 0 1-3.966-3.913 169.107 169.107 0 0 1-3.847-4.02c-.963-1.046-1.529-1.717-1.472-1.766zM304.012 71.672c-.048-.058.535-.727 1.516-1.762a171.276 171.276 0 0 1 3.904-3.958 169.324 169.324 0 0 1 4.012-3.841c1.047-.962 1.722-1.532 1.775-1.478.053.053-.527.72-1.508 1.755a172.159 172.159 0 0 1-3.913 3.966 169.517 169.517 0 0 1-4.02 3.848c-1.046.961-1.717 1.527-1.766 1.47zM242.595 71.829c-.057.049-.727-.535-1.762-1.516a171.276 171.276 0 0 1-3.958-3.904 170.968 170.968 0 0 1-3.84-4.012c-.963-1.047-1.532-1.722-1.478-1.775.053-.053.719.526 1.755 1.507 1.035.981 2.439 2.363 3.966 3.913a171.481 171.481 0 0 1 3.848 4.02c.96 1.047 1.526 1.719 1.469 1.767z"/><path style="fill:#e0e0e0" d="M304.012 135.524a3.02 3.02 0 0 1-.013-.311l-.014-.893-.028-3.456-.062-13.048-.12-46.314.237.237-61.243.035h-.006l.272-.272-.038 64.022-.234-.233 44.349.119 12.457.061 3.296.027.852.013c.191.004.291.009.295.013a1.78 1.78 0 0 1-.271.013l-.826.013-3.251.027-12.404.061-44.497.119-.233.001v-.234l-.038-64.022v-.272h.278l61.243.035h.238v.237l-.12 46.465-.062 12.995-.028 3.41-.013.868a2.173 2.173 0 0 1-.016.284z"/><g><path style="fill:#ebebeb" d="M263.224 93.266h20.494v20.494h-20.494z"/></g></g><g><path style="fill:#e0e0e0" d="m459.695 428.45-3.248 33.294h-17.188l-3.384-33.294z"/><path transform="rotate(-180 448.056 427.232)" style="fill:#ebebeb" d="M433.845 426.014h28.421v2.436h-28.421z"/><path style="fill:#ebebeb" d="m456.853 421.819 2.842 4.737h-22.602l1.083-4.737z"/><path style="fill:#f5f5f5" d="m458.602 439.659-1.16 11.881h-19.22l-1.207-11.881z"/><g><path style="fill:#fafafa" d="M445.339 448.943c.017-.928.251-1.983.89-2.939.481-.745 1.061-1.388 1.528-2.031.476-.637.821-1.29.993-1.876.094-.305.138-.581.153-.824.044.023.09.043.132.07.673.429 1.098 1.18 1.256 1.963.157.783.07 1.596-.109 2.374-.214.926-.576 1.851-1.25 2.521a3.447 3.447 0 0 1-3 .93 2.82 2.82 0 0 1-.593-.188z"/><path style="fill:#fafafa" d="M443.885 446.328c.091-1.059.187-2.139.608-3.115.421-.976 1.232-1.898 2.274-2.108.328-.111 1.034-.169 1.652.078a3.62 3.62 0 0 1-.201.836c-.193.546-.538 1.15-1.015 1.76-.47.618-1.06 1.255-1.565 2.035a5.507 5.507 0 0 0-.901 2.981 1.792 1.792 0 0 1-.652-.659c-.298-.538-.253-1.193-.2-1.808z"/></g></g><g><path style="fill:#f5f5f5" d="M304.734 410.43c15.511-15.532 15.438-39.221 11.059-59.747-.731-3.426-.999-7.128-3.178-9.86-2.179-2.731-6.373-4.117-9.201-2.115-2.345 1.661-2.93 4.837-3.924 7.555a20.487 20.487 0 0 1-6.709 9.162c-1.992 1.53-4.584 2.71-6.964 1.901-3.265-1.111-4.348-5.156-4.937-8.589l-3.295-19.19c-.589-3.432-1.203-6.934-2.848-9.998-1.646-3.064-4.54-5.667-7.964-6-3.425-.332-7.122 2.266-7.214 5.745-.038 1.447.505 2.846.663 4.286.158 1.44-.224 3.133-1.505 3.77-1.297.646-2.842-.082-4.045-.903-4.155-2.831-7.351-6.863-10.385-10.898-3.034-4.035-6.021-8.187-9.904-11.391-3.883-3.204-8.857-5.405-13.817-4.808-4.96.597-9.651 4.559-10.033 9.6-.383 5.055 3.31 9.457 7.075 12.823a77.73 77.73 0 0 0 18.639 12.35c1.217.575 2.536 1.195 3.176 2.391 1.152 2.153-.609 4.809-2.732 5.962-2.404 1.306-5.224 1.535-7.841 2.326-2.617.791-5.303 2.486-5.864 5.193-.78 3.754 2.805 6.905 6.117 8.797a66.598 66.598 0 0 0 21.397 7.744c2.686.474 5.485.81 7.834 2.22 2.35 1.41 4.126 4.273 3.327 6.906-.799 2.637-3.815 3.971-6.544 3.951-2.728-.019-5.348-1.032-8.035-1.534-5.028-.939-11.055.469-13.347 5.079-1.507 3.03-1.017 6.788.554 9.8 1.571 3.012 4.095 5.398 6.707 7.547 9.129 7.514 20.067 12.925 31.672 14.768 11.602 1.843 21.912 1.064 32.066-4.843"/><path style="fill:#e0e0e0" d="M297.098 398.434c-4.896-9.88-11.16-20.265-18.086-30.902l-5.157-7.857c-1.698-2.575-3.383-5.128-5.184-7.524-3.583-4.808-7.395-9.158-11.142-13.173-3.746-4.019-7.448-7.696-10.934-11.109-3.495-3.407-6.813-6.521-9.957-9.23-6.275-5.443-11.846-9.226-15.775-11.667a113.682 113.682 0 0 0-4.579-2.726l-1.212-.672c-.275-.147-.418-.219-.423-.209-.006.01.127.1.391.267l1.18.727c1.039.633 2.572 1.569 4.513 2.826a130.83 130.83 0 0 1 15.612 11.802c3.117 2.723 6.409 5.849 9.882 9.268 3.468 3.427 7.15 7.112 10.876 11.132 3.725 4.017 7.512 8.359 11.068 13.146 1.788 2.385 3.455 4.918 5.156 7.5l5.152 7.854c6.919 10.629 13.184 20.979 18.094 30.815"/><path style="fill:#e0e0e0" d="M268.486 352.159c.044-.001.068-.542.074-1.522.011-.98-.019-2.396-.082-4.147-.123-3.5-.458-8.328-.848-13.648-.39-5.324-.656-10.142-.726-13.634a190.3 190.3 0 0 1-.057-4.137c-.005-.978-.029-1.52-.074-1.522-.044-.002-.104.536-.175 1.514-.077.977-.128 2.394-.145 4.146-.047 3.505.148 8.348.539 13.676l1.034 13.628.285 4.132c.071.974.13 1.515.175 1.514z"/><path style="fill:#e0e0e0" d="M222.941 351.772c.007.044.647.005 1.796-.103 1.149-.101 2.811-.256 4.869-.381 4.115-.283 9.813-.476 16.108-.413 6.297.074 11.993.384 16.106.727 2.059.157 3.721.329 4.871.44 1.15.116 1.788.16 1.795.116.006-.045-.622-.172-1.765-.366a85.286 85.286 0 0 0-4.862-.647c-4.114-.461-9.827-.843-16.143-.919-6.314-.062-12.031.203-16.149.605-2.061.185-3.72.409-4.863.588-1.141.186-1.769.308-1.763.353zM296.411 397.72c.022.005.092-.198.207-.591l.47-1.729c.401-1.503.925-3.694 1.537-6.408 1.227-5.428 2.686-12.98 4.184-21.335 1.499-8.358 2.886-15.913 3.998-21.359l1.336-6.447.354-1.757c.074-.403.103-.617.081-.623-.022-.004-.092.199-.207.593l-.47 1.728c-.401 1.503-.925 3.693-1.537 6.408-1.227 5.428-2.686 12.98-4.184 21.338-1.498 8.356-2.885 15.91-3.997 21.357-.55 2.648-1 4.828-1.336 6.446l-.354 1.757c-.075.402-.103.617-.082.622z"/><path style="fill:#e0e0e0" d="M234.476 389.275c-.002.022.213.068.624.136l1.803.267 6.634.915c5.602.775 13.326 1.933 21.86 3.224 8.536 1.293 16.28 2.38 21.899 3.039 2.81.33 5.085.574 6.661.711.728.059 1.328.106 1.816.147.416.026.636.029.638.007.002-.022-.213-.068-.624-.137l-1.802-.266-6.633-.916c-5.602-.773-13.328-1.932-21.864-3.224-8.534-1.292-16.276-2.38-21.895-3.038-2.81-.33-5.085-.574-6.663-.711l-1.816-.147c-.416-.027-.635-.029-.638-.007z"/></g><g><path transform="translate(.183 -.185)" style="fill:#e0e0e0" d="M45.303 42.965h70.86v73.866h-70.86z"/><path transform="translate(.183 -.174)" style="fill:#455a64" d="M40.504 42.954h70.86v73.866h-70.86z"/><path style="fill:#f5f5f5" d="m111.301 116.923-70.904-.163.17-73.909 70.904.163-.17 73.909z"/><path transform="translate(.183 -.174)" style="fill:#fff" d="M50.03 52.884h51.809v54.007H50.03z"/><path style="fill:#e0e0e0" d="M49.967 107.19c.041.049-.452.612-1.282 1.484-.83.871-1.995 2.05-3.301 3.331a145.193 145.193 0 0 1-3.392 3.232c-.885.81-1.456 1.289-1.5 1.244-.045-.045.445-.606 1.275-1.477.829-.871 1.998-2.053 3.308-3.338a145.487 145.487 0 0 1 3.398-3.238c.886-.81 1.453-1.287 1.494-1.238zM101.776 107.176c.049-.041.612.452 1.483 1.282.871.829 2.05 1.995 3.331 3.301a145.193 145.193 0 0 1 3.232 3.392c.81.885 1.289 1.456 1.244 1.5-.045.045-.606-.446-1.477-1.275a145.069 145.069 0 0 1-3.338-3.308 145.487 145.487 0 0 1-3.238-3.398c-.809-.886-1.285-1.453-1.237-1.494zM101.759 53.087c-.041-.049.452-.612 1.282-1.484.829-.871 1.995-2.05 3.301-3.331a145.193 145.193 0 0 1 3.392-3.232c.885-.81 1.456-1.289 1.5-1.244.045.045-.446.606-1.275 1.477-.829.871-1.998 2.053-3.308 3.338a145.487 145.487 0 0 1-3.398 3.238c-.886.811-1.454 1.287-1.494 1.238zM49.949 53.101c-.048.041-.612-.452-1.484-1.282-.871-.829-2.05-1.995-3.331-3.301a145.193 145.193 0 0 1-3.232-3.392c-.81-.885-1.289-1.455-1.244-1.5.045-.044.606.446 1.477 1.275.871.829 2.053 1.998 3.338 3.308a143.406 143.406 0 0 1 3.238 3.398c.811.886 1.287 1.453 1.238 1.494z"/><g><path style="fill:#e0e0e0" d="M101.635 106.95a2.564 2.564 0 0 1-.011-.263l-.01-.754-.017-2.916-.027-11.007-.012-39.068.199.2-51.662-.089h-.005l.23-.229-.156 54.006-.197-.197 37.41.186 10.508.076 2.78.029.718.013c.164.005.248.009.252.013.004.004-.073.007-.228.01l-.697.009-2.742.017-10.464.027-37.536.015h-.197v-.198l.091-54.006v-.229H50.097l51.662.148.201.001-.001.2-.191 39.196-.078 10.962-.03 2.877-.013.732a1.712 1.712 0 0 1-.012.239z"/></g><g><path style="fill:#f5f5f5" d="M66.349 94.501c-3.899-3.925-4.12-10.913-.475-15.076 1.444-1.649 3.361-2.852 4.699-4.588 2.896-3.759 2.87-9.691 6.895-12.205 2.937-1.834 7.145-.774 9.279 1.953 2.135 2.726 2.303 6.68.906 9.848-1.031 2.338-2.819 4.325-3.557 6.772-.754 2.502-.333 5.248-1.116 7.742-.946 3.012-4.139 4.91-7.102 6-2.963 1.088-6.769.819-9.529-.446"/><path style="fill:#e0e0e0" d="M80.978 69.655c.03.012-.151.519-.505 1.426-.348.909-.897 2.207-1.616 3.792-1.433 3.172-3.623 7.467-6.431 11.982-2.815 4.513-5.705 8.372-7.92 11.058-1.106 1.344-2.028 2.409-2.691 3.122-.658.717-1.033 1.103-1.057 1.081-.024-.021.305-.448.92-1.2.619-.748 1.501-1.843 2.571-3.21a128.437 128.437 0 0 0 7.781-11.098 128.61 128.61 0 0 0 6.528-11.876 165.706 165.706 0 0 0 1.747-3.723c.405-.882.643-1.366.673-1.354z"/><path style="fill:#e0e0e0" d="M70.239 78.99c.059-.006.21 1.027.41 2.732.2 1.705.449 4.082.705 6.767l-.346-.179 1.118-.651a374.541 374.541 0 0 1 6.674-3.794c1.72-.95 2.8-1.509 2.833-1.453.032.056-.989.716-2.667 1.738a383.44 383.44 0 0 1-6.605 3.912l-1.12.648-.314.182-.033-.36a327.41 327.41 0 0 1-.553-6.781c-.119-1.713-.161-2.756-.102-2.761zM83.857 75.024c.027.059-.643.427-1.748.975a150.835 150.835 0 0 1-4.89 2.295l-.279.126-.047-.301a138.726 138.726 0 0 1-.614-4.379c-.133-1.112-.185-1.796-.124-1.805.06-.009.221.657.436 1.756s.484 2.632.761 4.356l-.325-.175.533-.243a150.52 150.52 0 0 1 4.412-1.929c1.141-.472 1.859-.734 1.885-.676z"/></g></g><g><path style="fill:#263238" d="M473.509 461.744c0 .144-100.972.26-225.498.26-124.569 0-225.519-.117-225.519-.26s100.95-.26 225.519-.26c124.526-.001 225.498.116 225.498.26z"/></g><g><path style="fill:#e8505b" d="M145.126 373.251c4.71-2.43 10.257-2.747 15.486-1.882 2.809.464 5.738 1.305 7.65 3.415 1.912 2.11 2.274 5.824.079 7.637-1.307 1.079-3.129 1.243-4.823 1.224-4.094-.048-8.636-.769-11.906 1.695-1.866 1.405-3.108 3.741-5.339 4.432-2.182.676-4.645-.612-5.803-2.582-1.157-1.97-1.196-4.432-.656-6.652-.001.001.567-4.839 5.312-7.287zM134.335 352.419c2.88 4.113 8.478 2.752 11.074.241 2.595-2.511 3.693-6.15 4.691-9.621 2.282-7.929 4.582-16.247 2.886-24.322-.507-2.414-1.41-4.822-3.106-6.612-1.696-1.791-4.305-2.856-6.69-2.226-2.822.746-4.577 3.51-5.845 6.14a57.972 57.972 0 0 0-5.729 24.881c-.015 4.007.458 8.21 2.719 11.519M126.425 358.322c3.127-3.712 3.721-9.125 2.329-13.774-1.391-4.65-4.535-8.605-8.158-11.835a43.933 43.933 0 0 0-14.609-8.62c-2.113-.743-4.341-1.329-6.57-1.116-2.229.213-4.474 1.353-5.514 3.336-1.537 2.932-.063 6.489 1.531 9.391a111.324 111.324 0 0 0 9.595 14.612c2.876 3.708 6.171 7.365 10.554 9.041 4.383 1.676 8.936 1.478 11.26-1.561"/><path style="fill:#263238" d="M134.14 414.473c.054.003.141-.663.261-1.869l.497-5.101c.238-2.146.551-4.701 1.147-7.483.595-2.775 1.525-5.782 2.72-8.831 1.237-3.032 2.746-5.787 4.51-7.991 1.751-2.214 3.787-3.816 5.701-4.74a15.965 15.965 0 0 1 4.801-1.495c1.193-.122 1.861-.217 1.861-.269.001-.053-.669-.062-1.894-.029-1.214.081-2.996.389-5.007 1.303-2.017.895-4.177 2.522-6.014 4.781-1.851 2.25-3.415 5.066-4.674 8.152-1.216 3.103-2.132 6.141-2.7 8.976-.566 2.83-.825 5.413-.995 7.577-.162 2.166-.223 3.92-.253 5.133-.028 1.211-.014 1.883.039 1.886z"/><path style="fill:#263238" d="M134.491 410.548c.027-.001.043-.3.05-.868l-.007-2.48c-.006-2.152-.005-5.267.11-9.114.191-7.693.853-15.972 2.132-27.645 1.212-10.976 2.838-23.749 4.554-32.054a136.87 136.87 0 0 1 1.088-5.077c.333-1.492.617-2.778.891-3.819l.58-2.411c.124-.554.177-.848.152-.856-.026-.007-.129.273-.301.813l-.72 2.377c-.32 1.031-.647 2.309-1.02 3.794a113.064 113.064 0 0 0-1.201 5.064c-1.698 7.525-3.495 18.043-4.787 29.743-1.282 11.697-1.859 22.347-1.911 30.06-.046 3.856.036 6.978.135 9.132l.151 2.479c.042.566.077.863.104.862z"/><path style="fill:#263238" d="M134.543 390.006c.053-.002.044-.922-.018-2.591-.095-1.665-.324-4.072-.793-7.02-.497-2.941-1.192-6.433-2.283-10.227-.473-1.735-1.584-5.891-4.277-12.102-3.548-8.415-8.367-15.295-12.56-19.557-.983-1.131-2.079-1.947-2.955-2.746-.453-.383-.854-.765-1.262-1.068l-1.146-.79c-1.38-.944-2.153-1.441-2.181-1.396-.124.168 3.091 2.06 7.15 6.378 4.042 4.309 8.728 11.142 12.246 19.486a95.767 95.767 0 0 1 4.301 11.99c1.122 3.758 1.867 7.214 2.429 10.126.535 2.918.845 5.301 1.032 6.951.153 1.652.264 2.568.317 2.566zM114.688 426.241l2.058 28.2h36.227l2.059-28.2zM111.189 415.126h48.165v11.115h-48.165z"/><g><path style="fill:#455a64" d="M111.189 453.362v3.081h47.369v-3.081z"/></g><g><path style="fill:#455a64" d="m115.671 461.865-2.219-5.422h43.381l-2.588 5.422z"/></g><g><path style="fill:#e0e0e0" d="M154.359 435.458c.008.007-.049.094-.169.259l-.541.718-2.11 2.701-.094.12-.091-.126-5.185-7.171h.298l-5.105 7.228-.16.227-.179-.213-6.054-7.203.349-.004-.333.418-5.413 6.786-.181.226-.166-.236-5.107-7.226.297.014-6.29 7.166-.112.127-.085-.143-1.969-3.309-.505-.881c-.111-.201-.164-.308-.154-.314.01-.006.081.089.211.279l.559.848 2.067 3.248-.197-.016 6.189-7.253.156-.183.141.197 5.153 7.193-.347-.009 5.4-6.796.333-.418.172-.216.177.212 6.037 7.217-.339.013 5.155-7.191.151-.211.148.211 5.075 7.249-.184-.006 2.195-2.632.588-.68c.137-.152.211-.227.219-.22z"/></g><g><path style="fill:#455a64" d="M155.536 426.055c0 .125-9.077.226-20.272.226-11.199 0-20.274-.101-20.274-.226 0-.124 9.075-.225 20.274-.225 11.194 0 20.272.101 20.272.225z"/></g><g><path style="fill:#263238" d="M157.366 456.746c0 .125-9.865.225-22.032.225-12.171 0-22.034-.101-22.034-.225 0-.125 9.863-.225 22.034-.225 12.167 0 22.032.101 22.032.225z"/></g></g><g><path style="fill:#a36957" d="M424.685 241.887c-.785-3.391 3.217-15.103.634-15.364-3.292-.332-3.849 12.987-3.966 14.181-.114 1.161-1.844 1.021-1.68-.05.234-1.54 2.427-16.61-.895-16.646-1.842-.02-1.919 3.331-1.919 3.331s-1.241 14.852-2.81 14.781c-1.593-.07-.446-8.522-.286-11.665.154-3.014-1.356-4.745-2.472-3.442-1.636 1.91-1.627 9.564-1.828 12.58-.201 3.015-1.012 11.678-4.124 7.345-3.113-4.333-7.099-6.525-8.569-6.375-1.47.151-1.745 2.269-.317 3.099 1.154.671 2.745 2.38 3.891 3.712.944 1.098 1.569 2.405 2.242 3.684.48.913 1.264 2.727 1.631 5.251.426 2.921 2.112 5.511 4.58 7.13l-.174 23.794-.739 11.77 18.523 6.427-2.434-41.981c.909-8.068 4.461-18.273 5.758-23.002 2.067-7.542 1.101-7.869.177-7.91-2.037-.092-4.457 12.659-5.223 9.35z"/><path style="fill:#7c3b29" d="M422.313 252.122c0 .076-.9-.007-2.273.381-1.356.374-3.191 1.335-4.532 3.092a8.762 8.762 0 0 0-.895 1.465l-.122.244-.18-.186a12.993 12.993 0 0 0-3.512-2.567c-.978-.489-1.611-.685-1.595-.739.009-.036.672.078 1.698.514a11.68 11.68 0 0 1 3.675 2.519l-.301.058a8.73 8.73 0 0 1 .933-1.544 8.84 8.84 0 0 1 2.382-2.139 8.402 8.402 0 0 1 2.388-.984c.713-.179 1.308-.187 1.711-.193.404.022.624.052.623.079zM421.398 263.267c.03.09-1.735.662-4.005.729-2.27.08-4.068-.377-4.044-.469.019-.113 1.812.168 4.032.089 2.22-.064 3.991-.461 4.017-.349z"/><path style="fill:#263238" d="M309.413 201.2c.372-6.086 5.371-11.574 11.395-12.512 1.58-.246 3.237-.22 4.697-.873 1.196-.535 2.153-1.482 3.259-2.185 3.548-2.256 8.679-1.562 11.501 1.554 2.655 2.932 3.334-1.462 9.316 1.538 4.956 2.485 2.758 6.594 2.758 6.594 4.891-.56 9.928 2.898 11.163 7.663.784 3.025.427 6.802 2.961 8.633 1.228.887 2.861 1.039 4.123 1.877 2.346 1.557 2.661 4.864 2.358 7.663-.303 2.799-.957 5.779.257 8.32 1.989 4.165 8.213 5.429 9.292 9.917.51 2.119-.209 4.755 1.399 6.228.646.592 1.529.826 2.341 1.155 3.289 1.331 5.713 4.589 6.041 8.122.328 3.533-1.454 7.182-4.442 9.096-.834.534-1.834 1.043-2.099 1.997-.296 1.064.47 2.091 1.033 3.041 2.06 3.475 1.517 8.291-1.267 11.219-2.783 2.928-7.566 3.715-11.141 1.834-1.594 3.399-4.566 6.128-8.088 7.428-1.622.598-3.406.902-5.087.499-1.347-.323-2.551-1.076-3.657-1.909-5.275-3.969-12.713-10.089-13.642-16.625"/><path style="fill:#a36957" d="m309.295 211.378-.238-4.68 27.957-6.222c8.643-1.186 18.289 7.214 19.107 15.899.909 9.65 1.638 21.467.717 28.716-1.853 14.578-12.915 16.769-12.915 16.769l.386 14.402-32.068 1.398-2.946-66.282z"/><path style="fill:#263238" d="M350.859 226.915c.065.981-.712 1.846-1.736 1.932-1.022.087-1.904-.636-1.969-1.618-.065-.981.712-1.847 1.733-1.934 1.023-.086 1.906.639 1.972 1.62zM353.245 222.632c-.223.25-1.665-.749-3.667-.682-2 .039-3.438 1.114-3.662.876-.11-.105.111-.55.736-1.036.615-.483 1.675-.968 2.923-1.001 1.247-.032 2.31.395 2.928.846.63.453.853.885.742.997zM332.171 227.853c.065.981-.712 1.846-1.736 1.933-1.022.087-1.904-.636-1.97-1.618-.065-.981.712-1.847 1.734-1.934 1.024-.087 1.907.638 1.972 1.619zM333.579 223.616c-.224.25-1.667-.749-3.667-.682-2 .039-3.438 1.114-3.663.875-.109-.105.11-.55.737-1.036.615-.484 1.675-.968 2.922-1.001 1.247-.032 2.31.395 2.928.846.629.454.852.886.743.998zM341.305 238.237c-.013-.114 1.225-.367 3.233-.687.509-.069.99-.185 1.065-.537.109-.373-.122-.918-.388-1.505l-1.633-3.845c-2.271-5.477-3.932-9.987-3.711-10.077.222-.09 2.242 4.277 4.514 9.754.547 1.351 1.071 2.639 1.569 3.871.212.575.565 1.223.328 1.998-.126.386-.493.675-.818.773-.325.11-.612.125-.864.147-2.026.173-3.284.222-3.295.108z"/><path style="fill:#7c3b29" d="M343.919 261.898s-10.236.918-20.084-4.594c0 0 5.215 10.005 20.187 8.211l-.103-3.617zM340.608 243.088c-.75-.93-2.027-1.413-3.275-1.239-.866.12-1.731.567-2.236 1.29-.506.724-.585 1.732-.085 2.391.564.743 1.698.883 2.645.582.947-.301 1.75-.956 2.511-1.607.211-.18.426-.368.554-.61.127-.242.146-.553-.026-.745"/><path style="fill:#263238" d="M335.456 239.805c.325-.029.397 2.144 2.304 3.628 1.905 1.49 4.213 1.174 4.24 1.477.035.135-.503.438-1.48.495-.958.063-2.368-.202-3.535-1.11-1.164-.911-1.691-2.158-1.793-3.047-.111-.906.115-1.451.264-1.443zM333.852 215.755c-.181.551-2.187.354-4.527.71-2.347.309-4.22 1.055-4.547.577-.146-.229.168-.751.917-1.302.743-.55 1.939-1.087 3.344-1.288 1.405-.198 2.703-.014 3.569.308.874.319 1.321.734 1.244.995zM352.33 216.861c-.338.465-1.732.036-3.391.066-1.66-.029-3.053.4-3.391-.065-.148-.227.058-.689.659-1.138.591-.448 1.592-.83 2.732-.83 1.14.001 2.141.382 2.732.83.6.448.807.911.659 1.137zM358.582 198.582c-1.963 5.228-6.645 13.134-12.149 14.076-5.505.942-11.437-1.234-15.027-5.512-.638 4.17-5.112 6.586-9.237 7.471-2.916.626-6.016.806-8.835-.166-2.82-.972-5.307-3.266-5.897-6.19-.59-2.924 3.247-10.363 6.149-11.055"/><path style="fill:#263238" d="M318.748 275.744c.07 4.69-3.169 9.243-7.622 10.716.418 3.786-2.219 7.678-5.89 8.694-3.671 1.016-7.934-.968-9.521-4.43-.416-.908-.68-1.917-1.353-2.655-1.545-1.692-4.282-1.139-6.507-1.687-4.008-.987-6.049-5.667-5.9-9.792.029-.814.119-1.639-.058-2.434-.362-1.625-1.736-2.788-2.791-4.076-4.34-5.301-3.279-13.528.712-19.097 1.331-1.857 3.037-3.819 2.74-6.085-.166-1.265-.945-2.35-1.494-3.502-1.778-3.733-.949-8.546 1.977-11.469.449-.449.967-.901 1.09-1.523.078-.395-.018-.801-.094-1.197-1.143-5.999 3.284-12.497 9.285-13.629.361-.068.737-.123 1.05-.316.895-.552.832-1.834.879-2.884.125-2.774 1.884-8.065 3.861-10.015 5.48-5.406 11.43-1.753 13.584 0 0 0 5.417 19.528 4.909 23.273-.508 3.745-2.561 13.143-1.187 17.244 1.374 4.102 3.748 12.535 2.329 16.424-1.417 3.889.001 18.44.001 18.44z"/><g><path style="fill:#e8505b" d="M353.921 438.399s42.341 11.719 44.039 12.316c2.55.898 2.122 10.243-1.847 10.097-1.878-.069-32.522 1.141-36.394.899s-15.554-4.845-15.554-4.845l9.756-18.467z"/><path style="fill:#263238" d="M371.559 454.554c.213.029.499-2.21 1.866-4.546 1.333-2.356 3.126-3.728 2.993-3.897-.074-.164-2.177 1.03-3.608 3.544-1.454 2.499-1.429 4.918-1.251 4.899zM367.145 452.553c.207.036.636-1.966 1.764-4.177 1.106-2.224 2.458-3.76 2.306-3.905-.117-.139-1.771 1.246-2.939 3.586-1.185 2.331-1.312 4.485-1.131 4.496zM363.004 451.443c.214-.013.051-2.128.99-4.473.9-2.361 2.454-3.805 2.306-3.959-.085-.161-1.983 1.148-2.966 3.702-1.009 2.541-.502 4.791-.33 4.73z"/><path style="fill:#263238" d="M363.755 445.975c.076.019.451-1.163.454-3.15a14.87 14.87 0 0 0-1.059-5.418c-.137-.336-.293-.723-.678-1.038-.395-.354-1.114-.281-1.454.072-.388.338-.511.815-.564 1.197a8.226 8.226 0 0 0-.055 1.119c.01.729.105 1.427.261 2.073a12.593 12.593 0 0 0 1.303 3.237c.987 1.718 1.842 2.596 1.902 2.549.097-.067-.613-1.054-1.458-2.781-.416-.864-.85-1.924-1.11-3.148a9.306 9.306 0 0 1-.204-1.934c.019-.65.009-1.464.39-1.776.202-.167.384-.179.56-.047.187.143.344.433.464.74.262.633.476 1.26.641 1.868.333 1.217.494 2.35.56 3.306.125 1.915-.068 3.114.047 3.131z"/><path style="fill:#263238" d="M363.702 445.544c.02-.077-1.002-.429-2.731-.441-.86-.001-1.893.089-3.004.368-.548.148-1.137.29-1.73.637-.58.294-1.187 1.099-.957 1.935.182.787.856 1.339 1.526 1.511.674.188 1.327.121 1.899-.005 1.162-.267 2.065-.839 2.751-1.353 1.357-1.064 2.02-1.879 1.969-1.938-.074-.09-.876.607-2.256 1.528-.694.443-1.563.923-2.597 1.124-.515.098-1.069.129-1.57-.022-.498-.137-.913-.517-1.031-1.007-.121-.473.166-.906.629-1.182.454-.281 1.015-.443 1.536-.599a14.217 14.217 0 0 1 2.853-.498c1.657-.114 2.696.056 2.713-.058zM378.065 455.008c.21-.024.002-1.834.835-3.819.793-2.002 2.206-3.151 2.073-3.315-.07-.173-1.84.831-2.729 3.047-.914 2.206-.35 4.162-.179 4.087zM348.521 456.962c-.019.045.563.316 1.638.77 1.088.411 2.68.986 4.712 1.46 4.049 1.02 9.823 1.599 16.165 1.532 6.345-.07 12.063-.359 16.21-.525l4.906-.26c1.158-.077 1.798-.143 1.796-.192-.001-.049-.644-.076-1.804-.084l-4.913.035-16.198.317c-6.314.066-12.017-.428-16.051-1.312-4.048-.83-6.412-1.872-6.461-1.741z"/><path style="fill:#263238" d="M347.269 457.927c.057.098 1.216-.579 3.172-1.437 1.933-.829 4.831-1.823 8.012-1.332 3.191.489 5.452 2.632 6.925 4.12 1.484 1.541 2.354 2.564 2.44 2.492.064-.053-.659-1.178-2.072-2.832-.714-.818-1.621-1.766-2.808-2.625-1.173-.862-2.683-1.596-4.374-1.854-3.413-.522-6.421.618-8.335 1.577-1.942.994-3.003 1.822-2.96 1.891z"/><path d="M353.921 438.399s42.341 11.719 44.039 12.316c2.55.898 2.122 10.243-1.847 10.097-1.878-.069-32.522 1.141-36.394.899s-15.554-4.845-15.554-4.845l9.756-18.467z" style="opacity:.3"/><g><path style="fill:#263238" d="m306.883 389.767-9.141 18.784s-48.872-14.861-61.186-14.177c-12.314.684-22.4 5.617-24.794 15.618s-2.722 23.8 11.644 33.377c14.366 9.577 85.761 14.868 85.761 14.868h28.252l46.177-60.885-7.439-6.033-69.274-1.552z"/><path style="fill:#455a64" d="M322.251 430.974c-.001.021-.32.015-.927-.016-.605-.049-1.507-.046-2.651-.207-2.3-.228-5.606-.823-9.578-1.976-3.976-1.142-8.571-2.95-13.507-5.283-4.94-2.33-10.211-5.199-15.749-8.172-5.54-2.967-10.905-5.633-15.953-7.653-5.046-2.016-9.756-3.416-13.802-4.127-4.041-.725-7.378-.907-9.675-.844-1.151-.026-2.039.098-2.646.104-.606.028-.926.033-.928.012-.002-.021.313-.067.917-.135.605-.046 1.494-.208 2.651-.219 2.307-.136 5.673-.021 9.757.655 4.088.661 8.848 2.03 13.936 4.029 5.089 2.003 10.484 4.665 16.034 7.637 5.543 2.976 10.795 5.854 15.703 8.203 4.904 2.352 9.454 4.191 13.389 5.379 3.93 1.199 7.203 1.856 9.483 2.155 1.135.197 2.03.231 2.63.32.6.07.917.117.916.138z"/><path style="fill:#263238" d="M355.644 453.267c9.076-3.566 58.992-19.448 76.662-39.868 4.904-5.668 5.81-11.583 4.839-16.951-2.465-13.618-14.991-22.699-27.984-17.553-1.847.732-6.095 2.381-7.867 3.334-4.846 2.606-83.371 52.407-83.371 52.407s13.682 26.68 13.34 27.706l24.381-9.075z"/><path style="fill:#455a64" d="M380.228 394.062c.005.009-.067.066-.213.17l-.658.447-2.562 1.669-9.482 6.042-31.404 19.736-17.059 10.636.111-.35 8.945 21.521 2.515 6.177.647 1.651c.142.377.209.575.194.581-.015.006-.11-.18-.28-.545l-.729-1.616-2.663-6.114-9.15-21.435-.095-.222.205-.129 17.034-10.675 31.499-19.584 9.585-5.876 2.623-1.571.69-.396c.158-.086.242-.126.247-.117zM311.258 417.609c-.03.071-.933-.22-2.319-.872-1.384-.65-3.238-1.691-5.127-3.071-1.888-1.384-3.44-2.837-4.478-3.96-1.04-1.124-1.59-1.896-1.532-1.947.142-.129 2.639 2.699 6.372 5.412 3.713 2.738 7.164 4.265 7.084 4.438zM338.444 395.475c.09.004.092 1.2.119 3.125.028 1.926.105 4.582.367 7.503.266 2.922.668 5.549.986 7.448.32 1.899.533 3.075.445 3.096-.077.018-.439-1.124-.87-3.012a58.481 58.481 0 0 1-1.172-7.476 58.46 58.46 0 0 1-.19-7.564c.085-1.935.236-3.124.315-3.12zM344.283 394.829c.003-.029.233-.056.613.084.379.135.892.477 1.299 1.091.384.606.687 1.529.37 2.515-.294 1.007-1.389 1.746-2.533 1.783-1.139.075-2.318-.557-2.676-1.56-.368-.986-.054-1.928.348-2.523.423-.609.971-.925 1.366-1.015.399-.096.623-.027.621 0 .041.102-.957.095-1.62 1.246-.308.539-.502 1.348-.193 2.077.289.736 1.184 1.215 2.124 1.163.945-.042 1.78-.596 2.03-1.357.277-.755.083-1.553-.21-2.107-.635-1.159-1.59-1.296-1.539-1.397zM320.133 392.854c.031-.014.214.303.429.927.218.622.415 1.573.41 2.762 0 1.187-.256 2.612-.91 4.052a9.532 9.532 0 0 1-3.259 3.916 9.52 9.52 0 0 1-4.857 1.543c-1.581.063-2.997-.238-4.097-.685-1.103-.444-1.909-.985-2.403-1.421-.496-.435-.721-.723-.697-.747.079-.106 1.084 1.01 3.25 1.761 1.07.377 2.424.617 3.917.528a9.266 9.266 0 0 0 4.543-1.488 9.27 9.27 0 0 0 3.09-3.647c.646-1.349.934-2.694.988-3.827.123-2.289-.531-3.641-.404-3.674zM366.709 402.15c-.002.068-.74.12-1.853-.261-1.099-.367-2.562-1.261-3.562-2.787-.997-1.529-1.226-3.229-1.12-4.383.099-1.172.442-1.826.506-1.801.096.027-.089.71-.072 1.815.009 1.093.291 2.638 1.2 4.034.912 1.393 2.213 2.273 3.21 2.721 1.005.458 1.705.563 1.691.662z"/><g><path style="fill:#455a64" d="M391.125 439.488c-.003-.006.099-.061.3-.162l.898-.438 3.461-1.667c2.998-1.46 7.346-3.561 12.589-6.396 5.226-2.84 11.409-6.423 17.378-11.564 2.957-2.577 5.859-5.571 8.312-9.052 2.356-3.54 3.349-8.076 3.01-12.556a19.727 19.727 0 0 0-1.653-6.429 17.188 17.188 0 0 0-1.611-2.829 22.682 22.682 0 0 0-2.057-2.471c-1.474-1.541-3.087-2.895-4.673-4.212-1.572-1.321-3.211-2.522-5.094-3.046-1.866-.553-3.797-.648-5.65-.626a29.073 29.073 0 0 0-5.363.593c-3.43.681-6.43 2.022-9.051 3.42l-12.354 6.846-3.366 1.85-.88.472c-.2.105-.303.155-.307.149-.003-.006.094-.069.286-.185l.861-.507 3.329-1.917c2.902-1.647 7.074-4.066 12.296-6.962 2.62-1.419 5.651-2.793 9.117-3.496a29.423 29.423 0 0 1 5.424-.621c1.873-.028 3.834.059 5.763.624 1.953.537 3.659 1.786 5.234 3.105 1.591 1.316 3.217 2.676 4.714 4.237a23.29 23.29 0 0 1 2.096 2.514 17.579 17.579 0 0 1 1.651 2.894 20.107 20.107 0 0 1 1.69 6.563c.345 4.566-.666 9.184-3.083 12.809-2.497 3.533-5.412 6.524-8.399 9.115-6.017 5.155-12.235 8.722-17.486 11.534-5.269 2.807-9.637 4.869-12.658 6.286l-3.494 1.598-.915.402c-.204.089-.312.132-.315.125z"/></g></g><g><path style="fill:#e8505b" d="M321.218 438.663s-42.482 11.194-44.188 11.771c-2.561.866-2.249 10.216 1.722 10.119 1.879-.046 32.506 1.543 36.38 1.349 3.875-.194 14.345-4.181 14.345-4.181l-8.259-19.058z"/><path style="fill:#263238" d="M303.382 454.6c-.213.027-.472-2.216-1.81-4.568-1.304-2.372-3.079-3.766-2.945-3.934.076-.162 2.164 1.057 3.564 3.588 1.423 2.516 1.369 4.934 1.191 4.914zM307.82 452.653c-.208.033-.612-1.974-1.712-4.199-1.078-2.237-2.411-3.79-2.257-3.933.118-.137 1.755 1.268 2.894 3.622 1.156 2.346 1.256 4.501 1.075 4.51zM311.975 451.595c-.213-.015-.025-2.128-.935-4.485-.871-2.372-2.407-3.835-2.257-3.988.087-.16 1.969 1.172 2.92 3.738.978 2.554.442 4.798.272 4.735z"/><path style="fill:#263238" d="M311.291 446.117c-.076.018-.436-1.169-.415-3.156a14.898 14.898 0 0 1 1.125-5.404c.141-.334.302-.719.691-1.029.399-.349 1.117-.267 1.453.09.384.343.501.821.549 1.204a9.321 9.321 0 0 1-.246 3.188 12.596 12.596 0 0 1-1.343 3.22c-1.008 1.706-1.874 2.574-1.933 2.525-.096-.069.625-1.046 1.492-2.763.427-.859.874-1.914 1.149-3.134a9.325 9.325 0 0 0 .228-1.932c-.011-.651.009-1.464-.368-1.781-.2-.169-.382-.183-.559-.054-.189.141-.349.428-.473.734-.27.629-.491 1.254-.664 1.86a17.048 17.048 0 0 0-.601 3.299c-.148 1.917.03 3.118-.085 3.133z"/><path style="fill:#263238" d="M311.349 445.687c-.018-.078 1.007-.417 2.736-.407.86.009 1.891.112 2.999.405.547.155 1.134.304 1.722.659.576.301 1.173 1.114.932 1.947-.191.785-.872 1.328-1.544 1.492-.676.18-1.328.105-1.899-.029-1.158-.281-2.055-.864-2.734-1.387-1.344-1.081-1.996-1.904-1.945-1.962.076-.089.869.617 2.236 1.555.688.452 1.551.942 2.583 1.156.513.105 1.068.142 1.57-.002.5-.131.919-.506 1.043-.994.127-.472-.155-.908-.614-1.189-.45-.287-1.009-.455-1.529-.618a14.198 14.198 0 0 0-2.847-.533c-1.652-.135-2.693.021-2.709-.093zM296.87 454.973c-.209-.026.021-1.834-.787-3.829-.768-2.012-2.167-3.178-2.032-3.34.072-.172 1.83.853 2.691 3.08.887 2.217.299 4.165.128 4.089zM326.388 457.292c.018.045-.567.31-1.647.75a36.412 36.412 0 0 1-4.73 1.402c-4.062.97-9.842 1.478-16.183 1.332-6.344-.148-12.058-.508-16.202-.725l-4.903-.321c-1.157-.092-1.796-.165-1.794-.214.002-.049.645-.068 1.806-.061l4.912.096 16.193.517c6.312.144 12.022-.28 16.066-1.113 4.058-.782 6.435-1.795 6.482-1.663z"/><path style="fill:#263238" d="M327.628 458.273c-.058.097-1.208-.594-3.154-1.476-1.923-.853-4.808-1.883-7.995-1.431-3.197.449-5.485 2.564-6.976 4.034-1.503 1.522-2.386 2.535-2.471 2.462-.063-.054.673-1.169 2.107-2.806.724-.809 1.643-1.746 2.84-2.59 1.184-.848 2.703-1.562 4.397-1.8 3.419-.48 6.413.697 8.315 1.68 1.93 1.017 2.981 1.858 2.937 1.927z"/><g><path style="fill:#263238" d="M285.133 459.579c-.076-.052.292-.608.638-1.592.349-.974.625-2.423.36-3.975-.268-1.552-1.012-2.826-1.666-3.628-.655-.813-1.187-1.213-1.133-1.288.034-.056.663.23 1.438 1.018.769.773 1.638 2.114 1.929 3.8.289 1.685-.082 3.239-.55 4.225-.467 1.001-.965 1.481-1.016 1.44z"/></g></g></g><g><path style="fill:#e8505b" d="m319.261 273.666-21.841 6.121 7.099 67.952s-4.083 24.26-4.083 30.636c0 8.282 6.447 11.393 6.447 11.393l69.774 2.107 3.566-3.087a10.07 10.07 0 0 0 2.329-7.783L369.589 277.32l-24.289-5.269-26.039 1.615z"/><path style="fill:#263238" d="M304.602 347.655c-.014.002-.058-.175-.13-.514l-.294-1.488-1.006-5.483-3.168-18.115-3.052-18.138-.879-5.505-.219-1.501c-.046-.344-.063-.526-.049-.528.014-.003.058.174.13.513l.294 1.487 1.006 5.482 3.169 18.12 3.052 18.137.879 5.505.219 1.5c.045.344.062.526.048.528zM348.365 273.291c.017.022-.34.304-1.005.797-.337.239-.775.492-1.274.805-.523.265-1.101.612-1.788.888-1.351.604-3.036 1.164-4.956 1.546-1.919.387-4.066.604-6.318.657-2.254.055-4.399-.048-6.342-.196-1.942-.143-3.695-.349-5.141-.673-1.447-.319-2.576-.749-3.321-1.109a8.727 8.727 0 0 1-.836-.456c-.185-.116-.278-.182-.271-.194.018-.031.416.19 1.171.505.756.311 1.88.693 3.315.972 1.434.284 3.172.459 5.11.581 1.937.128 4.07.218 6.305.164 2.234-.053 4.358-.256 6.257-.618 1.9-.357 3.568-.881 4.916-1.443 2.718-1.1 4.12-2.318 4.178-2.226zM370.924 378.083c.002.014-.162.046-.475.096l-1.373.198c-.596.086-1.328.179-2.181.253-.852.078-1.822.19-2.898.241-2.15.154-4.718.221-7.569.181a99.945 99.945 0 0 1-9.251-.635c-3.268-.4-6.356-.957-9.142-1.565-2.78-.633-5.26-1.304-7.313-1.961-1.034-.304-1.95-.641-2.759-.918-.811-.273-1.5-.536-2.059-.76l-1.288-.516c-.293-.122-.444-.193-.439-.206.005-.013.166.032.468.129l1.313.444c.567.201 1.262.442 2.078.694.815.256 1.734.573 2.77.859 2.057.62 4.536 1.259 7.31 1.87 2.779.586 5.856 1.129 9.11 1.527 3.255.38 6.373.578 9.211.664 2.839.061 5.398.024 7.544-.093 1.074-.033 2.043-.125 2.895-.181a50.6 50.6 0 0 0 2.183-.184l1.38-.122c.316-.023.484-.029.485-.015zM379.017 319.827c-.027.007-.144-.329-.332-.944a90.365 90.365 0 0 1-.747-2.619c-.605-2.219-1.381-5.3-2.144-8.725a199.412 199.412 0 0 1-1.759-8.812 87.398 87.398 0 0 1-.434-2.689c-.09-.637-.127-.991-.099-.996.027-.005.117.34.255.968l.56 2.663c.465 2.25 1.112 5.356 1.873 8.778.762 3.42 1.493 6.507 2.026 8.742l.622 2.649c.14.628.206.978.179.985z"/><g><path d="M326.884 276.753c.873 3.037.06 7.462.489 10.18 1.716 10.882 2.541 21.943 1.75 32.931-.043.599-.089 1.219.112 1.785.183.517.554.941.885 1.379 2.209 2.923 2.78 6.827 2.335 10.463-.445 3.637-1.809 7.088-3.162 10.493-.077-2.934.078-7.321.31-10.248.046-.584.344-.209.361-.794.1-3.519-.49-6.783-2.961-9.29-.495-.502-1.063-.956-1.399-1.576-.31-.571-.397-1.233-.476-1.878a476.576 476.576 0 0 1-3.105-36.994c-.031-.702-.04-1.472.4-2.019.347-.431.9-.628 1.361-.932.946-.624 1.537-1.726 2.561-2.212" style="opacity:.3"/><path style="fill:#e8505b" d="M297.42 279.786s-19.941 4.7-15.105 34.588c1.7 10.506 4.969 26.119 11.899 42.439 3.266 7.691 10.67 12.983 18.955 11.898 3.62-.474 7.205.101 9.629-1.361 3.679-2.218 5.28-9.696 5.974-17.764.473-5.494.274-11.22 1.002-15.911 1.189-7.658-2.326-11.266-6.821-12.162L305.327 318l-1.015 9.324-6.892-47.538z"/><path style="fill:#263238" d="M311.465 339.272c.05-.039.333.36 1.016.871.673.51 1.79 1.105 3.292 1.307 1.494.217 3.325-.044 5.218-.744 1.884-.714 3.96-1.667 5.635-3.247 1.663-1.584 2.629-3.674 2.927-5.637a9.73 9.73 0 0 0-.626-5.201c-1.196-2.834-2.924-3.955-2.805-4.053.023-.032.452.208 1.1.809.645.597 1.494 1.594 2.161 3.046a9.91 9.91 0 0 1 .811 5.492c-.282 2.098-1.293 4.348-3.083 6.053-1.802 1.692-3.953 2.645-5.904 3.348-1.973.692-3.926.921-5.512.624-1.589-.28-2.739-.986-3.389-1.587-.661-.603-.87-1.065-.841-1.081z"/><path style="fill:#263238" d="M293.143 354.192c.063-.022.374.941 1.193 2.555.812 1.609 2.221 3.861 4.542 6.101a21.511 21.511 0 0 0 9.76 5.396c4.091 1.02 9.012.935 13.505-.946 2.257-.914 3.072-3.423 3.937-5.516.796-2.174 1.324-4.36 1.681-6.467.717-4.219.884-8.099 1.125-11.344l.564-7.691.189-2.089c.051-.477.089-.727.114-.725.024.001.033.254.028.734l-.057 2.097-.341 7.704c-.178 3.247-.292 7.14-.983 11.422-.344 2.138-.867 4.368-1.674 6.598-.425 1.11-.87 2.221-1.487 3.312-.595 1.092-1.598 2.096-2.8 2.604-4.71 1.971-9.744 2.016-13.961.937a21.64 21.64 0 0 1-9.949-5.669c-2.329-2.336-3.695-4.672-4.441-6.338a15.866 15.866 0 0 1-.766-1.962c-.139-.461-.202-.705-.179-.713zM299.786 341.232c-.097-.008-.073-1.38.044-3.592.117-2.211.327-5.263.603-8.629.146-1.688.26-3.277.436-4.755.184-1.473.609-2.834 1.358-3.75.732-.915 1.629-1.357 2.26-1.475.64-.129.995.001.987.033-.001.064-.353.034-.916.232-.557.187-1.322.649-1.935 1.511-1.309 1.728-1.151 4.923-1.49 8.263a316.664 316.664 0 0 1-.808 8.612c-.242 2.2-.442 3.558-.539 3.55zM306.01 309.483c-.178-.948-.457-2.313-.817-3.998a777.118 777.118 0 0 0-2.956-13.132c-.606-2.552-1.128-5.014-1.894-7.193-.753-2.176-1.774-4.042-2.922-5.374l-.386.314c1.057 1.322 1.991 3.133 2.695 5.27.714 2.134 1.216 4.584 1.822 7.143a773.931 773.931 0 0 0 3.157 13.085c.422 1.67.776 3.019 1.035 3.947.26.928.426 1.436.473 1.426.047-.011-.029-.541-.207-1.488z"/><path d="M306.195 315.913c-1.604-.05-3.155.621-4.487 1.515-2.909 1.953-5.009 5.026-5.937 8.404-.927 3.378-.706 7.035.462 10.339.364 1.029 1.069 2.196 2.16 2.153 1.283-.051 1.801-1.652 1.979-2.923l1.477-10.567c.167-1.198.345-2.427.936-3.482.591-1.055 1.697-1.912 2.905-1.846l.327-3.762" style="opacity:.3"/></g><g><path style="fill:#e8505b" d="M424.882 331.988s3.728-5.593 4.119-13.833c.391-8.24-1.956-15.206-1.956-15.206l-21.185-6.566-.134 7.073 19.156 28.532z"/><path style="fill:#e8505b" d="m405.725 303.455-36.136-26.135v1.81l3.903 40.689s29.873 13.383 37.787 15.353c7.914 1.97 13.603-3.184 13.603-3.184l-19.157-28.533z"/><path style="fill:#263238" d="M416.44 323.216c-.017.027-.315-.114-.819-.432-.505-.316-1.201-.83-1.988-1.551-1.585-1.429-3.425-3.801-4.827-6.74-1.404-2.938-2.213-5.773-2.754-7.815a57.718 57.718 0 0 1-.588-2.436c-.124-.579-.175-.903-.141-.912.073-.02.462 1.23 1.082 3.247.63 2.011 1.489 4.802 2.869 7.69 1.378 2.887 3.125 5.232 4.613 6.7 1.48 1.485 2.605 2.171 2.553 2.249zM426.937 308.07c-.003.036-.335.038-.936.012-.602-.019-1.469-.109-2.533-.277-2.127-.33-5.037-1.088-8.03-2.473-2.99-1.395-5.447-3.13-7.07-4.543-.814-.705-1.443-1.31-1.845-1.758-.408-.443-.62-.698-.594-.723.064-.063 1.004.873 2.673 2.197a36.096 36.096 0 0 0 7.055 4.355 36.096 36.096 0 0 0 7.877 2.583c2.088.423 3.41.538 3.403.627z"/><path style="fill:#263238" d="M407.318 319.818c-.048.027-.578-.783-1.124-2.241-.555-1.453-1.037-3.567-1.202-5.929-.165-2.362-.063-4.499.048-6.035.116-1.537.242-2.482.311-2.478.074.004.078.958.056 2.494-.016 1.536-.059 3.656.104 5.981.163 2.325.577 4.395 1.032 5.85.446 1.457.854 2.319.775 2.358z"/></g><g><path style="fill:#263238" d="M369.046 292.945c.035-.009.167.386.376 1.107.21.721.492 1.769.824 3.069a248.542 248.542 0 0 1 2.355 10.213 247.667 247.667 0 0 1 1.938 10.302c.217 1.324.379 2.397.476 3.141.098.744.135 1.158.099 1.164-.035.006-.14-.396-.299-1.13l-.639-3.11-2.086-10.261-2.204-10.235-.662-3.105c-.148-.735-.213-1.146-.178-1.155z"/></g></g><g><path style="fill:#a36957" d="m305.105 321.684 4.429-48.996 14.674 5.794 1.889 49.836s-4.697 7.107-12.628 4.19c-7.931-2.916-8.364-10.824-8.364-10.824z"/><path style="fill:#263238" d="m307.961 229.777 27.436 24.133-4.967 18.019-1.991.59-23.986-24.55 1.517-17.601z"/><path style="fill:#455a64" d="m305.97 230.368 27.436 24.132-4.967 18.019-25.977-23.96z"/><path style="fill:#a36957" d="M324.827 280.052s2.821-2.956 2.756-6.744c-.063-3.693-1.082-12.58-1.082-12.58s4.766-10.033 4.646-11.367c-.12-1.334-.338-1.314-2.05-.776-1.712.538-7.022 9.685-7.022 9.685l-1.737-6.783s4.419-7.121 4.77-8.113c.351-.992.937-1.813-.172-1.905s-9.405 7.954-9.405 7.954l.669 7.431s-.166.591-1.36-.454c-1.194-1.045-.892-9.908-.892-9.908s2.828-5.249 2.759-6.011c-.069-.762.518-1.583-.039-2.878-.557-1.295-2.184.197-2.184.197l-5.509 7.219-1.963-7.144s.083-1.523-1.898-1.536l.767 23.173 5.02 17.83 13.926 2.71z"/><path style="fill:#7c3b29" d="M326.097 328.318s-.041-.296-.077-.872l-.136-2.552-.432-9.728-1.393-35.059-.005-.141.119-.102a9.61 9.61 0 0 0 2.654-3.751c.6-1.484.66-3.12.555-4.822-.174-3.393-.595-6.923-1.067-10.529l-.013-.097.041-.088a212.458 212.458 0 0 0 2.667-5.89c.433-1.009.866-2.03 1.263-3.069.195-.519.387-1.044.538-1.567l.098-.386c.014-.12.029-.198.031-.323-.023-.267-.065-.557-.137-.699.053-.162-.702.004-1.189.173-.315.094-.437.158-.648.33a4.811 4.811 0 0 0-.583.564c-.753.829-1.428 1.777-2.092 2.731-1.319 1.919-2.567 3.938-3.777 5.994l-.431.732-.21-.821-1.739-6.782-.037-.144.079-.129 2.241-3.664c.854-1.444 1.792-2.929 2.481-4.347.143-.399.339-.808.435-1.144.052-.183.022-.263.018-.247-.001-.017-.222-.098-.332-.064-.043.009-.24.104-.399.2-.164.09-.33.222-.495.33-.328.237-.654.486-.972.745-2.544 2.089-4.925 4.345-7.243 6.559l.104-.279.664 7.431.006.07-.018.054c-.117.355-.463.432-.658.411-.206-.019-.344-.087-.482-.152a3.647 3.647 0 0 1-.673-.47c-.498-.446-.588-1.034-.716-1.512-.208-1.004-.274-1.988-.333-2.967a71.069 71.069 0 0 1-.045-5.776l.002-.074.037-.071c.965-1.845 1.982-3.696 2.659-5.526.032-.107.064-.229.065-.274.009-.082-.008-.289.013-.414.031-.284.093-.532.134-.768.088-.469.092-.908-.047-1.336-.151-.486-.301-.684-.674-.617-.371.07-.791.346-1.117.627l.037-.04-5.524 7.208-.357.467-.154-.566-1.946-7.148-.01-.036v-.052c.002-.374-.196-.765-.502-.964-.311-.212-.718-.29-1.126-.293l.266-.273.671 23.176-.006-.038 2.535 9.823.632 2.54c.137.572.185.869.185.869s-.107-.282-.272-.846l-.716-2.517-2.691-9.782-.005-.018-.001-.021-.862-23.17-.01-.276.277.002c.466.003.974.079 1.426.379.451.307.748.834.742 1.437l-.009-.087 1.981 7.139-.511-.099 5.494-7.23.02-.026.017-.015c.411-.345.827-.654 1.427-.785.292-.064.703.001.957.26.262.255.339.541.426.788.176.523.168 1.117.069 1.632-.046.258-.103.501-.125.72-.015.126-.003.173-.009.343-.008.21-.056.33-.091.467-.727 1.982-1.717 3.768-2.692 5.652l.039-.144a70.527 70.527 0 0 0 .058 5.716c.059.959.13 1.935.325 2.863.113.458.223.913.492 1.135.177.152.366.29.546.384a.736.736 0 0 0 .224.079l.017-.001c.002.01.015.063.022.071l.012.018.008.005.023.012.04.018.01.004c.165.062-.211-.081-.175-.063l-.005.017-.011.123-.675-7.43-.015-.166.119-.114c2.33-2.231 4.701-4.484 7.286-6.609.325-.265.659-.521 1.005-.771.182-.12.343-.249.544-.362.206-.105.362-.244.739-.298.289-.01.52.012.837.26.317.316.23.73.175.933-.139.47-.317.817-.456 1.21-.776 1.608-1.666 2.981-2.537 4.465l-2.246 3.671.042-.272 1.735 6.783-.642-.089c1.223-2.074 2.474-4.094 3.812-6.037.676-.968 1.354-1.922 2.157-2.805.197-.222.413-.436.662-.636.222-.205.637-.391.872-.446.28-.084.556-.17.869-.23a1.6 1.6 0 0 1 .543-.024c.219.016.491.214.579.412.176.376.179.667.215.96.004.156-.016.363-.042.521l-.111.436a22.305 22.305 0 0 1-.561 1.625 82.612 82.612 0 0 1-1.281 3.094 210.687 210.687 0 0 1-2.69 5.905l.029-.185c.465 3.627.877 7.155 1.041 10.591.102 1.696.036 3.493-.614 5.07a10.16 10.16 0 0 1-2.859 3.994l.113-.242 1.144 35.068.272 9.734.049 2.555c.008.575-.012.874-.012.874z"/><path style="fill:#7c3b29" d="M310.125 257.591c-.193.021-.575-2.816-.852-6.335-.277-3.52-.344-6.381-.15-6.391.194-.01.576 2.826.852 6.336.276 3.508.343 6.369.15 6.39z"/></g></g><g><path style="fill:#fafafa" d="m273.006 265.806-15.667-31.672c8.705-18.879 12.466-40.322 9.792-62.476-7.689-63.713-65.571-109.128-129.282-101.439-63.712 7.69-109.127 65.571-101.438 129.283 7.689 63.711 65.57 109.126 129.282 101.437 26.603-3.211 49.994-15.194 67.683-32.678l-.033.056 39.663-2.511z"/><path style="fill:#263238" d="m273.006 265.806-39.655 2.626-.215.014.11-.186.033-.056.179.139c-2.743 2.631-5.71 5.434-9.122 8.112-1.66 1.396-3.493 2.676-5.328 4.054-1.898 1.292-3.823 2.659-5.898 3.91-8.193 5.159-17.961 9.732-29.081 12.968-11.107 3.269-23.627 4.937-36.897 4.496-13.261-.482-27.274-3.388-40.884-9.172-13.597-5.773-26.758-14.492-37.998-26.03-11.272-11.486-20.444-25.915-26.205-42.145-5.797-16.209-8.013-34.26-5.953-52.296.189-2.262.629-4.498.962-6.755.376-2.249.9-4.479 1.365-6.724 1.126-4.445 2.361-8.897 4.01-13.23 1.539-4.374 3.504-8.607 5.564-12.806 2.186-4.135 4.493-8.239 7.175-12.127 2.648-4.038 5.66-7.796 8.745-11.448l2.408-2.654 1.205-1.321 1.262-1.264 2.52-2.523 2.626-2.399c7.009-6.378 14.786-11.742 22.954-16.115 2.015-1.147 4.129-2.087 6.2-3.092 2.081-.987 4.229-1.807 6.333-2.708 2.161-.754 4.281-1.607 6.455-2.273 2.18-.646 4.327-1.386 6.532-1.886a119.366 119.366 0 0 1 26.411-3.73c17.573-.51 34.616 3.167 49.606 9.728 15.032 6.551 27.974 16.072 38.223 27.006 10.276 10.938 17.905 23.275 22.901 35.716a120.902 120.902 0 0 1 5.803 18.566l.905 4.574c.317 1.507.468 3.029.707 4.521l.325 2.233.232 2.222c.169 1.473.28 2.937.364 4.388.75 11.609-.31 22.34-2.338 31.75a116.428 116.428 0 0 1-3.64 13.151 127.648 127.648 0 0 1-4.469 11.141l-.001-.093 15.569 31.718-15.764-31.624-.023-.046.022-.048a128.295 128.295 0 0 0 4.43-11.131 116.35 116.35 0 0 0 3.602-13.13 115.45 115.45 0 0 0 2.274-31.669 77.466 77.466 0 0 0-.37-4.374l-.234-2.216-.328-2.226c-.241-1.487-.393-3.004-.712-4.507l-.908-4.558a120.772 120.772 0 0 0-5.808-18.498c-4.994-12.392-12.609-24.677-22.856-35.565-10.221-10.884-23.119-20.358-38.095-26.873-14.934-6.525-31.906-10.178-49.404-9.662a118.93 118.93 0 0 0-26.296 3.724c-2.195.499-4.332 1.237-6.503 1.88-2.165.664-4.275 1.514-6.426 2.265-2.094.897-4.233 1.714-6.304 2.697-2.062 1.002-4.166 1.938-6.172 3.08-8.13 4.355-15.871 9.697-22.849 16.047l-2.614 2.389-2.508 2.512-1.257 1.258-1.199 1.316-2.397 2.642c-3.07 3.637-6.069 7.377-8.705 11.398-2.67 3.87-4.967 7.957-7.143 12.073-2.051 4.18-4.007 8.393-5.54 12.748-1.643 4.314-2.871 8.746-3.994 13.171-.463 2.235-.986 4.454-1.36 6.694-.332 2.246-.771 4.472-.959 6.724-2.055 17.955.146 35.931 5.912 52.071 5.73 16.162 14.855 30.535 26.074 41.982 11.187 11.498 24.29 20.193 37.831 25.956 13.554 5.774 27.512 8.684 40.727 9.179 13.224.455 25.708-1.191 36.786-4.433 11.091-3.209 20.84-7.751 29.023-12.881 2.073-1.243 3.996-2.603 5.892-3.888 1.834-1.371 3.666-2.644 5.326-4.032 3.411-2.664 6.378-5.453 9.124-8.072l.601-.573-.422.712-.033.056-.105-.172 39.664-2.396z"/><path style="fill:#455a64" d="m92.01 285.545 119.758-.195s-28.63 18.974-63.019 16.734c-29.881-1.946-56.739-16.539-56.739-16.539z"/><g><path style="fill:#fafafa" d="m144.446 205.203 6.831 24.986 24.95-33.69-5.874 88.34h-35.621l-10.387.5s1.54-13.924 2.174-21.785c.121-1.496.635-10.253 3.164-18.509 5.314-17.345 14.763-39.842 14.763-39.842z"/><path style="fill:#263238" d="M152.489 244.297c.088.114-3.936 3.357-8.986 7.243-5.052 3.887-9.217 6.945-9.304 6.831-.088-.114 3.935-3.356 8.987-7.244 5.05-3.885 9.215-6.944 9.303-6.83z"/><path style="fill:#e8505b" d="m214.498 193.023-19.4-9.334-7.608-9.043-10.763 11.188-28.536 98.764h48.936l6.276-16.944 11.095-65.442z"/><path style="fill:#e8505b" d="m127.197 286.029-1.311-20.961 59.117-10.016s10.1-48.783 16.321-56.777c5.742-7.377 13.229-4.818 13.229-4.818s6.746 4.621 5.133 22.314c-.845 9.265-4.232 41.389-5.46 52.994a18.528 18.528 0 0 1-18.424 16.573l-68.605.691z"/><path style="fill:#263238" d="M194.656 267.231c-.086.009-.169-.931-.599-2.365a14.388 14.388 0 0 0-2.735-5.09 14.379 14.379 0 0 0-4.556-3.555c-1.341-.666-2.253-.906-2.23-.99.01-.055.964.058 2.384.656 1.412.587 3.273 1.742 4.8 3.554 1.527 1.81 2.351 3.839 2.692 5.33.35 1.5.301 2.459.244 2.46z"/><path d="M193.578 185.113a92.455 92.455 0 0 1-3.524 18.211l-4.447-1.305c1.826 2.614 2.049 6.084 1.327 9.189-.722 3.105-2.291 5.937-3.842 8.722l-22.064 39.635 22.242-50.499-.579-9.335 4.282-.915 6.605-13.703zM184.809 254.468c2.689-.157 5.424.641 7.605 2.22s3.795 3.928 4.485 6.531c.165.623.276 1.301.035 1.899-.241.598-.952 1.046-1.544.789-.45-.195-.669-.696-.865-1.145-1.931-4.41-5.741-7.96-10.277-9.576" style="opacity:.2"/><path style="fill:#263238" d="M161.192 259.087c-.016-.007.087-.286.3-.81l.954-2.283 3.598-8.357 12.051-27.491 4.947-11.18-.021.116-.554-9.336-.012-.194.188-.04 4.286-.897-.142.111 5.331-10.785 1.493-2.951.404-.764c.094-.171.147-.257.157-.252.009.005-.025.099-.101.279l-.35.791-1.394 3-5.171 10.863-.043.09-.099.022-4.278.933.177-.233.605 9.333.004.06-.025.056-4.927 11.189-12.191 27.429-3.75 8.29-1.044 2.243c-.241.51-.377.775-.393.768z"/><path style="fill:#263238" d="M127.153 285.339c-.009 0-.026-.117-.048-.348l-.089-1.025-.288-3.942-.958-14.498-.011-.167.165-.03 42.764-7.856 15.768-2.861-.198.184 8.626-32.773 2.559-9.536.706-2.548.193-.655c.046-.147.073-.221.08-.219.007.002-.005.079-.037.23l-.151.666-.625 2.569-2.416 9.574-8.449 32.819-.04.156-.158.029-15.765 2.878-42.79 7.715.154-.197.79 14.508.188 3.948.035 1.028c.007.231.005.35-.005.351z"/><g><path style="fill:#263238" d="M211.519 191.385c.015.094-.989.242-2.5.805-1.509.554-3.497 1.619-5.294 3.294-1.789 1.684-2.982 3.599-3.633 5.069-.66 1.471-.873 2.463-.966 2.442-.035-.007-.007-.259.076-.713.072-.455.257-1.1.551-1.872.579-1.544 1.766-3.565 3.617-5.306 1.858-1.733 3.951-2.785 5.53-3.262.789-.243 1.445-.385 1.904-.427.457-.053.71-.065.715-.03z"/></g><g><path style="fill:#ffd1bd" d="M99.756 169.162c1.752-3.229.976-16.27 3.677-15.809 3.442.588.262 14.294.045 15.543-.21 1.213 1.589 1.558 1.723.422.195-1.633 2.203-17.581 5.593-16.683 1.879.497 1.015 3.928 1.015 3.928s-2.915 15.458-1.3 15.828c1.64.377 2.851-8.544 3.572-11.786.692-3.109 2.715-4.446 3.483-2.807 1.127 2.403-1.035 10.187-1.679 13.312-.644 3.124-2.255 12.166 2.129 8.632 4.385-3.533 9.058-4.641 10.511-4.075 1.453.567 1.137 2.799-.549 3.242-1.362.358-3.462 1.649-5.002 2.682-1.269.851-2.273 2.005-3.317 3.117-.745.794-2.053 2.419-3.137 4.883-1.255 2.852-3.699 5.013-6.665 5.965l-2.559 12.182-16.58-3.553 3.697-12.888c1.345-8.464.602-19.844.613-25.021.019-8.254 1.094-8.316 2.045-8.097 2.1.482.976 14.134 2.685 10.983z"/><path style="fill:#cc8f75" d="M99.291 180.242c-.021.077.917.246 2.205 1.027 1.275.762 2.871 2.255 3.741 4.42a9.24 9.24 0 0 1 .498 1.742l.055.282.235-.139a13.701 13.701 0 0 1 4.295-1.623c1.133-.222 1.832-.244 1.83-.303.001-.04-.705-.11-1.872.045a12.33 12.33 0 0 0-4.447 1.529l.29.144a9.226 9.226 0 0 0-.514-1.833 9.35 9.35 0 0 0-1.821-2.846 8.89 8.89 0 0 0-2.153-1.673c-.675-.382-1.278-.558-1.686-.678-.418-.09-.651-.121-.656-.094zM97.086 191.838c-.056.083 1.579 1.162 3.869 1.868 2.287.72 4.245.761 4.246.66.012-.121-1.891-.339-4.127-1.043-2.239-.69-3.93-1.591-3.988-1.485z"/></g><g><path style="fill:#ffd1bd" d="m157.113 179.841-12.667 25.362 6.831 24.986 18.188-19.221 17.93-33.307z"/></g><g><path style="fill:#e8505b" d="M145.187 182.22s-18.005 6.401-18.005 7.591l-.001.007c-3.179 2.496-13.77 28.098-17.139 32.939l-9.632 14.189 8.078-31.53-17.773-5.228s-15.176 36.676-17.021 44.834c-1.844 8.158.287 14.63.287 14.63l.098-.084c1.294 3.95 3.792 7.117 6.658 8.954 7.536 4.832 14.57 5.741 21.77.421 4.082-3.016 8.74-6.65 13.009-10.05l1.119 26.475h9.814c0-1.487-.298-19.629-.298-19.629s2.082-6.84 2.974-13.086 15.513-47.226 15.513-47.226l11.351-21.858.264-8.087-11.066 6.738z"/><path style="fill:#263238" d="M116.442 285.144c-.017.001-.046-.283-.085-.824l-.147-2.374-.451-8.78-1.323-29.352-.001-.03.007-.034.664-3.438 6.102-31.147 1.908-9.426.545-2.557.154-.662c.038-.149.061-.224.07-.222.009.002.003.081-.018.233l-.104.673-.449 2.577-1.746 9.46-5.953 31.178-.666 3.438.005-.064 1.158 29.359.291 8.786.054 2.378c.007.542.002.827-.015.828zM126.506 261.644c-.018-.003.014-.289.09-.83l.359-2.363 1.414-8.676 4.859-28.59 3.481-19.959.005-.028.011-.024 6.069-13.765 1.736-3.846.474-1.007c.111-.226.173-.341.185-.336.011.005-.03.129-.119.364l-.411 1.034-1.621 3.896-5.898 13.84.015-.051-3.413 19.971-5.009 28.564-1.577 8.648-.455 2.347c-.111.534-.177.814-.195.811zM92.01 258.704c-.07-.051.702-1.154 1.78-3.031 1.085-1.874 2.428-4.552 3.611-7.636a64.621 64.621 0 0 0 2.478-8.084c.5-2.109.731-3.434.813-3.422.036.005.016.342-.05.949-.062.607-.196 1.48-.403 2.551-.407 2.143-1.162 5.075-2.352 8.193-1.195 3.114-2.607 5.798-3.782 7.639-.584.923-1.09 1.648-1.47 2.126-.375.481-.596.736-.625.715z"/><path d="M93.367 257.24c-.672.059-1.054.939-.76 1.546.294.607 1.052.886 1.719.788.668-.098 1.252-.5 1.75-.955 1.53-1.402 2.434-3.36 3.058-5.339 1.521-4.818 1.594-9.956 1.654-15.008a61.49 61.49 0 0 1-7.377 18.683M115.234 259.593c-3.045-4.843-4.029-10.499-3.63-16.206.538-7.696 4.279-14.733 7.071-21.925-1.607 7.562-2.523 15.069-3.979 22.34 0 0 .778 10.805.796 15.603M127.651 254.77c.781-11.517 1.566-23.061 3.603-34.423 2.038-11.362 5.994-23.136 11.595-33.229-1.45 4.563-5.918 14.146-5.918 14.146s-6.456 34.019-9.253 51.154" style="opacity:.2"/></g><g><path style="fill:#ffd1bd" d="m126.2 268.011 1.613 17.858-8.433-.033c-.223 0-3.666-.057-7.462-.121-2.792.356-7.218.37-8.562.229-.238-.025-.379-.055-.397-.089 0 0-.636-.077-1.3-.314l-.038-.001.003-.012c-.764-.279-1.548-.77-1.426-1.609.369-2.561 1.891-2.767 1.891-2.767s.288-.021.764-.053l.062-.223c-1.159.002-2.132-.029-2.648-.084-.238-.025-.379-.055-.397-.089 0 0-2.99-.355-2.761-1.936.37-2.561 1.892-2.767 1.892-2.767s1.033-.073 2.461-.165c-1.196.004-2.208-.027-2.736-.083-.238-.025-.379-.055-.397-.089 0 0-2.989-.355-2.761-1.936.369-2.561 1.891-2.767 1.891-2.767s.834-.059 2.036-.138c-.968-.005-1.768-.035-2.219-.083-.238-.025-.379-.055-.397-.089 0 0-2.99-.355-2.761-1.937.369-2.561 1.892-2.766 1.892-2.766s4.705-.335 7.935-.469c.001-.003 3.664-3.304 5.108-3.152 2.156.228 14.698 4.857 14.698 4.857l2.449.828z"/><path style="fill:#cc8f75" d="M110.375 280.628c-.012.148-1.884.328-4.18.402-2.297.074-4.148.014-4.136-.133.012-.148 1.883-.328 4.18-.402 2.297-.075 4.148-.015 4.136.133zM110.403 275.564c.005.149-2.656.365-5.943.481-3.288.117-5.957.09-5.963-.059-.005-.149 2.655-.365 5.944-.481 3.287-.117 5.957-.09 5.962.059z"/><g style="opacity:.78"><path style="fill:#cc8f75" d="M109.977 270.42c.005.149-2.656.365-5.943.481-3.288.117-5.957.09-5.963-.059-.005-.149 2.655-.365 5.944-.481 3.287-.117 5.957-.09 5.962.059z"/></g><g><path style="fill:#cc8f75" d="M102.597 265.583c.001.062.725.107 1.895.149l4.568.149 4.568.164c1.17.037 1.896.043 1.901-.019.005-.059-.713-.174-1.88-.291a72.432 72.432 0 0 0-4.574-.293 72.697 72.697 0 0 0-4.582-.02c-1.172.036-1.897.101-1.896.161z"/></g></g><g><path style="fill:#263238" d="M195.677 120.109c2.118-5.153 8.826-7.498 14.058-5.583s8.726 7.287 9.355 12.823c.309 2.722-.033 5.63-1.597 7.879-1.646 2.366-4.471 3.719-7.325 4.119-5.1.716-10.509-1.508-13.632-5.603-3.123-4.095-3.835-9.9-1.795-14.629"/><path style="fill:#455a64" d="M216.969 120.793c.027.019-.098.267-.376.683-.277.417-.723.993-1.345 1.642-1.23 1.298-3.27 2.849-5.889 3.747-2.62.9-5.182.929-6.95.66a12.415 12.415 0 0 1-2.07-.469c-.476-.158-.727-.276-.717-.308.025-.086 1.079.248 2.829.411 1.739.17 4.209.081 6.738-.787 2.528-.867 4.531-2.315 5.799-3.517 1.283-1.203 1.909-2.115 1.981-2.062zM219.194 126.671c.022.029-.183.219-.573.541-.386.328-.98.758-1.738 1.254-1.519.973-3.781 2.165-6.521 2.739a16.246 16.246 0 0 1-3.909.31 14.439 14.439 0 0 1-3.156-.521c-.873-.256-1.562-.518-2.013-.752-.456-.222-.699-.36-.684-.392.039-.091 1.056.38 2.788.787.866.199 1.914.361 3.085.399 1.17.024 2.459-.07 3.785-.34 2.655-.556 4.888-1.663 6.435-2.544 1.546-.896 2.449-1.551 2.501-1.481z"/><path style="fill:#263238" d="M141.6 135.5c-12.379-27.226 17.066-40.904 33.133-36.367 15.1 4.265 21.54 11.779 24.025 21.878 2.486 10.104 2.367 21.046-1.593 30.668-1.953 4.745-5.469 9.565-10.565 10.158"/><path style="fill:#ffd1bd" d="M156.387 202.79c-.214-13.008-.365-30.877-.37-30.803 0 0-11.182-1.857-13.498-16.445-1.152-7.255-.787-19.151-.175-28.874.552-8.752 6.351-19.491 15.071-18.568l27.231 6.882a5.131 5.131 0 0 1 4.591 5.204l-1.774 56.325"/><path style="fill:#263238" d="M149.023 137.033c-.046.982.747 1.83 1.771 1.897 1.022.067 1.89-.672 1.937-1.654.046-.981-.747-1.831-1.769-1.898-1.024-.067-1.893.674-1.939 1.655zM169.201 137.034c-.046.982.747 1.83 1.771 1.897 1.022.067 1.89-.672 1.937-1.654.046-.982-.747-1.831-1.769-1.898-1.025-.068-1.893.673-1.939 1.655zM157.125 147.362c.009-.114-1.242-.33-3.27-.59-.514-.053-1.001-.155-1.088-.506-.121-.372.094-.926.343-1.524l1.52-3.914c2.111-5.574 3.64-10.157 3.414-10.24-.225-.083-2.12 4.367-4.231 9.941-.508 1.374-.994 2.684-1.456 3.938-.195.584-.529 1.247-.267 2.018.138.384.516.663.845.752.329.1.619.106.873.121 2.044.11 3.31.119 3.317.004z"/><path style="fill:#cc8f75" d="M155.992 172.046s9.815.633 19.538-5.212c0 0-4.937 10.149-19.538 8.784v-3.572z"/><path style="fill:#ffd1bd" d="M186.452 138.592c.213-.103 7.809-3.462 7.898 5.272.089 8.734-8.699 7.022-8.716 6.772-.018-.25.818-12.044.818-12.044z"/><path style="fill:#cc8f75" d="M188.269 147.3c.038-.029.153.105.412.22.252.112.684.187 1.137.012.919-.348 1.681-1.821 1.708-3.396a5.025 5.025 0 0 0-.448-2.174c-.273-.636-.691-1.078-1.156-1.156a.776.776 0 0 0-.894.426c-.114.245-.057.419-.103.434-.024.022-.189-.144-.122-.506a.972.972 0 0 1 .338-.551c.208-.173.515-.262.839-.231.674.04 1.286.653 1.603 1.338.354.688.568 1.536.552 2.429-.038 1.761-.922 3.417-2.181 3.795-.613.166-1.127-.013-1.394-.217-.274-.212-.322-.407-.291-.423zM157.72 152.972c.294.743.593 1.497 1.085 2.127.492.63 1.211 1.128 2.009 1.166.85.04 1.67-.463 2.144-1.169.474-.707.636-1.588.598-2.438-.035-.769-.386-1.686-1.151-1.777-.318-.038-.631.085-.928.206l-4.017 1.629"/><path style="fill:#263238" d="M159.325 156.295c.02-.126.902.232 2.142-.265.6-.242 1.257-.72 1.619-1.471a3.225 3.225 0 0 0 .053-2.628 2.878 2.878 0 0 0-.35-.6c-.159-.167-.13-.159-.303-.134-.164.044-.428.169-.643.253l-.66.269c-.86.348-1.638.652-2.296.897-1.315.491-2.148.75-2.187.659-.039-.091.723-.514 1.988-1.125.632-.305 1.39-.658 2.235-1.039l.65-.291c.235-.096.413-.202.734-.302a.943.943 0 0 1 .596.017c.212.086.344.23.443.35.18.239.338.485.452.762a3.768 3.768 0 0 1-.123 3.214c-.491.92-1.328 1.437-2.039 1.648a3.241 3.241 0 0 1-1.74.068c-.4-.106-.587-.242-.571-.282z"/><path style="fill:#455a64" d="M196.247 132.614c-.895-.063-8.108.871-7.54 14.28.531 12.525 9.317 9.767 12.121 5.051 2.656-4.467 4.19-18.716-4.581-19.331z"/><path style="fill:#455a64" d="M200.707 134.198c-.01 0-.021-.121-.034-.353l-.042-1.021-.107-3.82-.264-13.152.162.159-3.719.005.167-.171.085 3.12.338 13.641.003.115-.111.026a6.764 6.764 0 0 0-3.831 2.466c-.85 1.102-1.272 2.273-1.53 3.235a13.349 13.349 0 0 0-.394 2.29c-.024.267-.037.473-.044.612-.009.139-.013.21-.02.211-.007 0-.018-.071-.023-.211a7.466 7.466 0 0 1 .002-.617c.022-.539.084-1.336.321-2.325.239-.981.645-2.183 1.505-3.333.842-1.149 2.216-2.183 3.949-2.603l-.108.141-.392-13.64-.082-3.12-.005-.172h.172l3.719.005h.16l.002.159.145 13.153.012 3.821-.011 1.022c-.008.236-.016.357-.025.357z"/><path style="fill:#455a64" d="M196.245 115.85s-3.772-8.829-12.762-13.186c-4.355-2.11-7.613-3.199-10.769-3.993 0 0 5.245-1.245 13.732 2.531 3.856 1.716 7.741 3.95 10.31 7.299 1.632 2.127 3.669 6.284 3.666 7.35h-4.177z"/><path style="fill:#263238" d="M195.287 155.691c-.004.011-.091-.015-.253-.074a4.086 4.086 0 0 1-.67-.346c-.554-.346-1.293-.995-1.891-2.017-.606-1.017-1.007-2.393-1.16-3.932-.149-1.54-.149-3.238-.006-5.012a30.53 30.53 0 0 1 .83-4.941c.375-1.49.826-2.827 1.442-3.836.608-1.014 1.343-1.665 1.902-2.006.279-.173.512-.279.673-.34.162-.059.25-.08.254-.07.012.029-.331.15-.855.519-.522.365-1.206 1.02-1.769 2.017-.572.993-.99 2.307-1.347 3.791a32.409 32.409 0 0 0-.796 4.894c-.142 1.752-.15 3.439-.021 4.953.133 1.512.5 2.849 1.058 3.845.552 1.003 1.239 1.656 1.757 2.026.522.377.866.498.852.529z"/><path style="fill:#455a64" d="m167.128 157.52-6.906 1.355a1.7 1.7 0 0 1-1.996-1.341l-.103-.523a1.7 1.7 0 0 1 1.341-1.996l6.906-1.355a1.7 1.7 0 0 1 1.996 1.341l.103.523a1.7 1.7 0 0 1-1.341 1.996z"/><path style="fill:#455a64" d="m167.496 154.681 30.654-9.617a1.445 1.445 0 1 1 .81 2.775l-31.346 8.469-.118-1.627z"/><path style="fill:#263238" d="M190.154 150.454c-.006-.022.355-.148 1.015-.357l2.803-.854c1.176-.363 2.62-.746 4.147-1.247.369-.142.727-.335 1.004-.618.266-.275.439-.673.432-1.066a.928.928 0 0 0-.633-.878c-.384-.128-.842-.071-1.281.039l-9.191 2.957-2.799.865c-.663.197-1.034.296-1.041.273-.007-.022.349-.163 1-.398l2.766-.966c2.347-.797 5.565-1.899 9.183-3.057.468-.114.976-.193 1.475-.029.505.161.862.68.852 1.186.004.501-.204.961-.532 1.299-.327.329-.73.535-1.122.682-1.585.502-2.998.848-4.193 1.186l-2.832.751c-.673.171-1.047.254-1.053.232z"/><path style="fill:#cc8f75" d="M174.068 132.75c-.235.369-2.335-.775-4.939-.305-2.612.434-4.204 2.216-4.55 1.948-.166-.115.006-.762.704-1.551.682-.781 1.952-1.654 3.579-1.936 1.626-.281 3.116.113 4.021.62.922.508 1.303 1.059 1.185 1.224z"/><path style="fill:#263238" d="M173.771 133.077c-.037.073-.557-.165-1.435-.361a7.963 7.963 0 0 0-3.453-.018 7.956 7.956 0 0 0-3.113 1.495c-.709.553-1.077.991-1.142.941-.05-.034.218-.562.902-1.22.673-.654 1.81-1.403 3.24-1.724 1.429-.321 2.777-.132 3.665.171.898.301 1.367.663 1.336.716zM175.117 127.212c-.213.7-2.442.648-5.095.775-2.655.083-4.889.285-5.145-.402-.113-.334.344-.845 1.253-1.304.903-.458 2.26-.837 3.792-.896 1.531-.059 2.917.215 3.854.611.942.394 1.432.876 1.341 1.216z"/><path style="fill:#cc8f75" d="M153.131 134.288c-.202.113-.595-.261-1.226-.696a6.354 6.354 0 0 0-2.657-1.073c-2.261-.374-4.075.673-4.337.305-.12-.158.187-.674.987-1.175.788-.49 2.119-.904 3.59-.673 1.473.219 2.645 1.058 3.196 1.834.567.779.62 1.389.447 1.478z"/><path style="fill:#263238" d="M153.377 135.374c-.07.046-.406-.455-1.114-1.081-.698-.624-1.82-1.347-3.214-1.649a7.295 7.295 0 0 0-3.61.167c-.904.274-1.418.589-1.463.518-.036-.047.416-.482 1.34-.865.91-.384 2.331-.657 3.843-.329s2.692 1.166 3.36 1.894c.682.733.91 1.318.858 1.345zM154.284 128.087c-.13.717-2.26.923-4.786.951-2.528.011-4.659-.16-4.801-.875-.145-.694 1.979-1.712 4.781-1.729 2.8-.027 4.94.956 4.806 1.653zM177.831 107.403c-1.578 2.375-3.178 4.794-3.994 7.526-.817 2.732-.749 5.872.855 8.229 1.536 2.257 4.173 3.44 6.568 4.751s4.854 3.107 5.449 5.772c.186.834-.17 3.745.456 4.326.859.797 2.367.307 3.02-.667.652-.974 1.075-4.175 1.092-5.347l.153-10.904c.043-3.078.002-6.269-1.332-9.044-1.865-3.88-5.731-5.121-11.371-4.846"/><path style="fill:#263238" d="M142.016 129.279c.484-3.679 1.82-7.289 4.139-10.186 2.319-2.897 5.661-5.035 9.33-5.588 3.68-.555 7.395.466 11.11.677 3.715.212 7.946-.699 9.885-3.875.605-.99.891-2.376.118-3.242-.292-.327-.695-.529-1.091-.716-4.928-2.323-10.514-3.372-15.903-2.572-5.389.8-10.544 3.523-13.93 7.791-3.386 4.268-4.863 10.093-3.532 15.376"/><path style="fill:#455a64" d="M139.792 123.801c-.017.005-.076-.158-.173-.475a8.49 8.49 0 0 1-.295-1.421c-.166-1.243-.187-3.127.5-5.299a14.092 14.092 0 0 1 4.385-6.544c2.286-1.954 5.385-3.391 8.799-3.957 3.424-.571 6.761-.237 9.659.435a33.84 33.84 0 0 1 4.048 1.221c1.245.456 2.359.962 3.424 1.247 2.149.443 3.986.713 5.186.462 1.223-.245 1.653-.894 1.692-.832.009.006-.086.157-.336.382-.245.231-.691.487-1.312.648-1.268.321-3.099.107-5.323-.303-1.108-.273-2.245-.766-3.477-1.197a35.009 35.009 0 0 0-4.008-1.159c-2.859-.636-6.13-.946-9.466-.39-3.328.552-6.344 1.936-8.576 3.81a13.964 13.964 0 0 0-4.344 6.291c-.713 2.1-.75 3.935-.649 5.164.11 1.237.318 1.904.266 1.917z"/><path style="fill:#455a64" d="M155.93 100.857c-.004-.031.32-.111.918-.177.598-.071 1.474-.1 2.55-.004 2.135.185 5.146 1.022 7.76 3.104 1.293 1.031 2.372 2.145 3.518 2.921 1.119.785 2.355 1.132 3.372 1.359 1.028.216 1.885.245 2.462.168.579-.071.874-.226.896-.184.016.019-.259.245-.86.384-.597.144-1.493.171-2.564-.005-1.059-.188-2.351-.504-3.573-1.323-1.212-.792-2.317-1.913-3.572-2.91-2.52-2.007-5.404-2.872-7.48-3.147-2.097-.282-3.42-.087-3.427-.186z"/><g><path style="fill:#455a64" d="M200.095 127.643c-.047.021-.202-.347-.624-.906a6.252 6.252 0 0 0-2.319-1.783c-1.127-.527-2.612-.878-4.264-.855-1.66.019-3.472.39-5.39.746-1.913.366-3.811.587-5.524.418a15.22 15.22 0 0 1-4.404-1.062 13.685 13.685 0 0 1-2.684-1.444c-.592-.41-.877-.69-.861-.711.056-.088 1.303.93 3.677 1.811a15.88 15.88 0 0 0 4.31.927c1.66.137 3.484-.088 5.393-.452 1.908-.353 3.755-.72 5.48-.714 1.727.004 3.267.408 4.429 1.005 1.175.586 1.925 1.393 2.322 1.996.188.313.322.561.381.744.067.177.094.273.078.28z"/></g><g><path style="fill:#455a64" d="M198.513 120.638c-.042.02-.194-.342-.623-.876-.433-.524-1.195-1.194-2.33-1.645-1.128-.465-2.599-.63-4.215-.448-1.62.159-3.364.65-5.254 1.002-1.881.354-3.8.443-5.435-.085a8.86 8.86 0 0 1-3.779-2.342 8.19 8.19 0 0 1-1.662-2.487 4.893 4.893 0 0 1-.264-.769c-.047-.18-.063-.276-.046-.281.107-.061.462 1.546 2.233 3.277.874.848 2.108 1.696 3.656 2.143 1.54.472 3.355.38 5.205.033 1.854-.345 3.625-.828 5.301-.968 1.668-.163 3.233.05 4.404.587 1.179.521 1.949 1.276 2.349 1.862.396.597.483.99.46.997z"/></g><g><path style="fill:#263238" d="M161.032 220.65c-.003-.004.06-.057.185-.156.124-.101.317-.24.558-.439a24.694 24.694 0 0 0 2.034-1.849c.847-.85 1.819-1.963 2.87-3.332 1.053-1.368 2.175-2.996 3.405-4.819a281.611 281.611 0 0 0 13.095-21.362l1.199-2.187c.401-.738.814-1.497 1.368-2.176.547-.681 1.28-1.247 2.122-1.539.418-.148.877-.24 1.35-.149.234.054.465.171.642.352.183.182.274.421.345.653l.014.047-.018.05c-.108.291-.245.583-.472.825a1.343 1.343 0 0 1-.877.42c-.657.04-1.235-.258-1.734-.598-1.082-.663-1.561-2.169-1.113-3.411a2.601 2.601 0 0 1 1.273-1.45 2.891 2.891 0 0 1 1.895-.265c.626.134 1.281.5 1.538 1.195.135.341.047.802-.223 1.06-.257.267-.574.402-.899.489-1.145.282-2.387-.297-2.933-1.341a2.393 2.393 0 0 1-.172-1.716 2.897 2.897 0 0 1 .891-1.449c.427-.378.981-.617 1.559-.606.566.025 1.137.272 1.474.776.17.249.237.577.183.883a1.16 1.16 0 0 1-.487.755 1.79 1.79 0 0 1-1.627.203c-.552-.208-.897-.707-1.094-1.21-.195-.514-.248-1.056-.246-1.583.023-1.043.195-2.12.788-3.011.311-.427.711-.809 1.252-.946.528-.13 1.069.003 1.511.273.427.272.821.764.758 1.352-.043.575-.506 1.026-.999 1.164-.491.157-1.054.085-1.468-.238-.411-.313-.651-.798-.74-1.285-.102-.485-.012-1.016.124-1.449.126-.452.275-.9.495-1.319.213-.416.537-.813.945-1.046a3.097 3.097 0 0 1 1.294-.437c.22-.015.474-.024.705.095.219.113.391.281.529.469.136.189.238.403.291.637.056.228.048.505-.084.729-.262.47-.826.553-1.239.482-.439-.058-.834-.299-1.14-.59-.613-.599-.941-1.435-.981-2.254-.055-.819.156-1.649.612-2.298.234-.317.506-.607.85-.797a2.38 2.38 0 0 1 1.088-.302c.372-.006.76.075 1.064.316.299.238.488.628.45 1.017-.089.783-.767 1.309-1.436 1.398-.715.086-1.317-.393-1.639-.925a2.965 2.965 0 0 1-.41-1.776c.121-1.202.726-2.141 1.087-3.05l1.091-2.479 1.52-3.425.403-.887c.092-.199.148-.297.148-.297s-.034.108-.117.312l-.373.901-1.462 3.45-1.064 2.49c-.358.919-.946 1.867-1.046 2.999-.04.555.079 1.152.392 1.65.295.488.853.901 1.445.819.577-.071 1.178-.569 1.234-1.196.03-.306-.124-.621-.367-.812-.247-.196-.584-.269-.917-.261a2.142 2.142 0 0 0-.976.277c-.3.166-.554.438-.765.727-.414.595-.61 1.368-.554 2.131.039.763.351 1.531.906 2.07.284.264.614.463.998.515.368.061.789-.027.954-.344.176-.298.029-.739-.193-1.05a1.258 1.258 0 0 0-.426-.379c-.154-.083-.352-.08-.557-.065-.811.092-1.633.529-2.002 1.332-.203.388-.346.818-.467 1.257-.136.448-.201.867-.114 1.308.079.428.288.839.627 1.093.326.256.789.318 1.193.187.408-.12.745-.464.776-.888.05-.419-.247-.812-.614-1.047-.376-.229-.847-.34-1.271-.231-.417.099-.796.441-1.063.817-.531.794-.707 1.826-.724 2.822-.002.499.051 1.004.225 1.458.171.444.481.865.903 1.017.424.156.951.101 1.322-.162.389-.248.472-.794.217-1.171-.249-.382-.741-.609-1.21-.624-.473-.009-.957.192-1.329.524-.754.648-1.119 1.84-.638 2.742.458.897 1.581 1.418 2.556 1.169.275-.072.554-.198.737-.393a.664.664 0 0 0 .147-.705c-.186-.522-.738-.861-1.29-.974-1.121-.247-2.419.38-2.783 1.493-.391 1.093.019 2.426.986 3.014.463.322 1.003.578 1.522.543.531-.02.89-.494 1.064-1.015l-.004.097c-.094-.394-.361-.687-.74-.764-.377-.074-.791-.001-1.176.136-.782.271-1.46.789-1.981 1.435-.529.645-.936 1.385-1.337 2.121l-1.205 2.187a270.215 270.215 0 0 1-13.192 21.329c-1.242 1.816-2.38 3.439-3.449 4.801-1.068 1.363-2.057 2.47-2.92 3.311-1.723 1.68-2.852 2.355-2.852 2.355z"/></g></g></g></g></svg>