<svg xmlns="http://www.w3.org/2000/svg" viewBox="0 0 750 500" style="enable-background:new 0 0 750 500" xml:space="preserve"><path style="fill:#e0e0e0" d="M291.329 444.914c-5.242-12.015-14.973-22.01-26.844-27.571s-38.365-2.978-38.365-2.978l-69.618-.143c1.424 6.115 5.961 21.816 9.35 27.102 3.389 5.286 8.395 9.739 14.436 11.448 7.392 2.092 15.223-.074 22.888-.568 13.493-.87 26.696 3.486 39.688 7.231 12.992 3.745 26.773 6.937 39.914 3.753 3.73-.904 7.639-2.568 9.451-5.951 2.014-3.761.807-8.412-.9-12.323z"/><path style="fill:#ebebeb" d="M77.56 198.106s-7.919-.57-7.19 17.194c.729 17.764 2.541 27.226 2.541 27.226s-.233 3.939-3.283 3.166c-3.051-.773-8.789-4.606-11.623-1.741-2.939 2.972-1.894 7.53 2.005 12.899 3.899 5.369 12.009 17.445 12.739 18.539.716 1.075 1.003 3.09-1.159 2.896-2.162-.194-16.758-5.141-18.691 1.926-1.933 7.066 11.387 20.238 12.815 21.706 1.428 1.468 1.505 2.395.926 3.283-.58.888-5.329-1.237-9.538-2.474-4.209-1.237-9.306-1.933-10.08 2.237-.774 4.17 5.093 16.375 27.063 29.202l10.569 5.277 10.004-6.381c20.576-14.96 25.193-27.69 24.006-31.762-1.187-4.072-6.189-2.869-10.253-1.218-4.064 1.652-8.577 4.241-9.242 3.416-.665-.826-.681-1.755.593-3.359 1.275-1.603 13.21-16.042 10.58-22.879-2.63-6.838-16.658-.455-18.79-.046-2.132.409-2.048-1.625-1.443-2.766.616-1.162 7.478-13.989 10.82-19.721 3.342-5.732 3.926-10.372.704-13.034-3.107-2.568-8.433 1.82-11.391 2.895-2.958 1.074-3.583-2.821-3.583-2.821s.857-9.596-.195-27.343c-1.052-17.748-9.064-16.315-9.064-16.315"/><path style="fill:#e0e0e0" d="M78.186 214.016s.021.125.043.371l.084 1.09.285 4.195c.243 3.643.554 8.918.914 15.436.725 13.037 1.571 31.055 2.441 50.957.869 19.909 1.671 37.928 2.323 50.968l.785 15.441.209 4.199.044 1.093c.008.246.001.373.001.373s-.021-.125-.043-.371l-.084-1.09-.285-4.194c-.243-3.643-.554-8.917-.914-15.435-.725-13.037-1.571-31.057-2.441-50.965-.869-19.902-1.671-37.92-2.322-50.959l-.786-15.442-.209-4.199-.044-1.093c-.008-.248-.001-.375-.001-.375z"/><path style="fill:#e0e0e0" d="M65.817 249.636c.02-.02.253.176.657.547.407.369.978.922 1.677 1.611 1.395 1.382 3.271 3.341 5.3 5.541l5.169 5.656 1.573 1.706c.373.402.57.634.551.654-.019.02-.254-.174-.662-.542a50.925 50.925 0 0 1-1.669-1.62c-1.382-1.396-3.231-3.378-5.26-5.579l-5.208-5.616-1.583-1.699c-.369-.406-.565-.639-.545-.659zM81.792 265.002c-.08-.079 3.786-4.126 8.632-9.04 4.848-4.915 8.842-8.835 8.921-8.757.079.078-3.785 4.125-8.633 9.041-4.846 4.914-8.84 8.835-8.92 8.756zM81.749 295.63c-.013-.025.25-.191.737-.469l2.067-1.16c1.744-.98 4.149-2.342 6.748-3.94a188.976 188.976 0 0 0 6.573-4.227l1.972-1.315c.468-.308.735-.467.751-.445.016.023-.219.225-.659.572-.441.347-1.088.836-1.901 1.423a103.213 103.213 0 0 1-6.525 4.337 105.727 105.727 0 0 1-6.824 3.847c-.893.455-1.62.815-2.13 1.048-.509.236-.796.354-.809.329zM64.24 284.912c.014-.024.274.099.731.343.457.244 1.112.608 1.916 1.065 1.609.914 3.818 2.201 6.244 3.644a382.967 382.967 0 0 1 6.184 3.747c.786.489 1.418.89 1.85 1.175.432.285.665.454.65.478-.014.024-.274-.099-.731-.343a89.314 89.314 0 0 1-1.916-1.065 387.41 387.41 0 0 1-6.245-3.645 387.678 387.678 0 0 1-6.183-3.746 92.675 92.675 0 0 1-1.851-1.175c-.432-.285-.664-.454-.649-.478zM60.766 311.946c.014-.024.344.137.93.45l2.46 1.357a636.97 636.97 0 0 1 8.039 4.609 628.682 628.682 0 0 1 7.98 4.712l2.395 1.468c.561.354.864.562.85.586-.014.024-.344-.137-.93-.45l-2.46-1.357a643.305 643.305 0 0 1-8.04-4.609 643.713 643.713 0 0 1-7.979-4.711l-2.395-1.468c-.56-.356-.864-.563-.85-.587zM82.967 324.659c-.014-.024.314-.242.919-.616l2.569-1.564a318.476 318.476 0 0 0 8.4-5.272 313.814 313.814 0 0 0 8.221-5.55l2.47-1.716c.586-.402.917-.614.934-.592.017.022-.284.277-.841.719a90.306 90.306 0 0 1-2.397 1.822 168.02 168.02 0 0 1-8.167 5.657 170.399 170.399 0 0 1-8.476 5.179 95.448 95.448 0 0 1-2.636 1.454c-.628.332-.982.503-.996.479z"/><g><path style="fill:#e0e0e0" d="M98.852 342.899h-29.24l9.544 72.242h10.153z"/><path style="fill:#f5f5f5" d="M71.129 351.779c-.011.007.032.102.156.257.125.153.354.353.705.505.693.302 1.911.326 3.088-.379 1.181-.651 2.209-1.931 3.791-2.496 1.569-.599 3.513-.492 5.377.107 1.885.583 3.523 1.537 5.007 2.426 1.487.885 2.849 1.674 4.071 2.185 1.213.53 2.271.774 3.003.868.367.049.653.063.849.057.194 0 .296-.008.297-.025.017-.095-1.655-.081-4.011-1.209-1.181-.54-2.507-1.347-3.982-2.253-1.468-.906-3.145-1.903-5.092-2.505-1.924-.619-3.992-.731-5.675-.062-.841.32-1.547.823-2.136 1.321-.597.494-1.132.959-1.674 1.297-1.069.691-2.193.72-2.848.494-.672-.233-.888-.628-.926-.588zM72.196 365.085c.039.024.232-.298.689-.775a6.493 6.493 0 0 1 2.335-1.481c1.097-.421 2.507-.671 4.066-.612 1.566.054 3.273.398 5.088.693 1.812.305 3.607.441 5.21.216a14.344 14.344 0 0 0 4.099-1.17 13.052 13.052 0 0 0 2.465-1.465c.54-.409.797-.684.781-.703-.055-.079-1.184.932-3.381 1.859a14.92 14.92 0 0 1-4.017 1.043c-1.557.193-3.281.051-5.082-.251-1.8-.292-3.534-.63-5.15-.661-1.618-.036-3.077.258-4.206.739-1.139.469-1.909 1.151-2.346 1.669-.211.27-.364.486-.442.648-.085.157-.123.243-.109.251zM95.54 372.208c.011-.022-.259-.204-.806-.418-.544-.215-1.375-.436-2.423-.52-1.047-.083-2.302-.016-3.664.209-1.364.221-2.825.598-4.36.924-1.534.323-3.014.541-4.354.492-1.34-.047-2.532-.34-3.457-.748-1.882-.826-2.552-2.028-2.622-1.952-.018.011.115.312.495.763.377.45 1.035 1.025 1.985 1.495.949.467 2.185.808 3.58.881 1.398.076 2.92-.137 4.472-.464 1.552-.33 3.003-.717 4.337-.957 1.333-.245 2.551-.344 3.57-.306 2.05.068 3.217.688 3.247.601zM74.78 382.227c.014.077 1.044-.651 2.839-.286.88.159 1.864.605 2.97 1.107 1.102.514 2.43.953 3.855 1.063 2.873.276 5.428-.652 6.995-1.621.803-.476 1.362-.988 1.741-1.339.356-.379.538-.597.515-.619-.064-.07-.832.794-2.425 1.666-1.565.867-4.032 1.703-6.783 1.438-2.768-.158-4.893-1.809-6.812-2.027-.936-.14-1.718-.006-2.205.191-.495.192-.704.41-.69.427zM76.409 396.093c0 .055.981.048 2.438-.484 1.47-.491 3.289-1.618 5.414-2.462 1.066-.406 2.135-.656 3.107-.651a5.727 5.727 0 0 1 2.498.57c1.343.669 1.732 1.619 1.806 1.559.021-.009-.038-.248-.277-.616-.236-.367-.684-.846-1.37-1.24-.684-.391-1.604-.682-2.65-.712-1.049-.031-2.179.224-3.283.645-2.202.878-3.963 2.037-5.367 2.594-1.388.597-2.327.72-2.316.797zM77.842 402.544c-.016.06.685.312 1.851.601 1.165.29 2.801.599 4.628.78 1.828.178 3.492.193 4.692.136 1.201-.056 1.937-.167 1.933-.229-.007-.144-2.963-.018-6.578-.382-3.615-.346-6.49-1.046-6.526-.906z"/></g><g><path transform="rotate(-12.873 585.113 260.917)" style="fill:#f5f5f5" d="M539.548 230.192h91.214v61.482h-91.214z"/><path style="fill:#e0e0e0" d="M623.216 221.46c.023.017-.2.356-.646.987l-1.98 2.735-7.411 9.976-24.756 32.803-.204.27-.306-.148-.739-.356-37.468-18.193-11.313-5.599-3.058-1.56c-.695-.365-1.054-.569-1.042-.595s.396.128 1.114.444l3.125 1.42 11.427 5.361 37.574 17.974.739.356-.509.122 24.952-32.654 7.62-9.817 2.103-2.642c.489-.596.756-.902.778-.884z"/><path style="fill:#e0e0e0" d="M547.992 301.717c-.203-.105 4.606-9.849 10.74-21.761 6.137-11.916 11.275-21.489 11.478-21.384.203.105-4.605 9.847-10.742 21.763-6.134 11.913-11.273 21.487-11.476 21.382zM599.597 251.068c.144-.177 8.616 6.468 18.919 14.842 10.307 8.377 18.542 15.309 18.398 15.486-.144.177-8.614-6.467-18.921-14.844-10.303-8.373-18.54-15.307-18.396-15.484z"/></g><g><path transform="rotate(-76.998 248.777 81.583)" style="fill:#f5f5f5" d="M230.666 54.694h36.25v53.78h-36.25z"/><path style="fill:#e0e0e0" d="M279.139 70.438c.008.015-.198.137-.596.357l-1.754.941-6.498 3.385-21.574 11.032-.178.091-.124-.157-.3-.379-15.195-19.292-4.561-5.881-1.221-1.614c-.275-.372-.413-.573-.4-.583.013-.011.177.17.477.522l1.292 1.557 4.682 5.785 15.307 19.204.3.379-.302-.066 21.639-10.902 6.568-3.247 1.795-.86c.415-.193.636-.287.643-.272z"/><path style="fill:#e0e0e0" d="M218.582 93.657c-.081-.108 4.978-4.04 11.297-8.78 6.322-4.743 11.51-8.498 11.591-8.39.081.108-4.977 4.039-11.298 8.781-6.32 4.74-11.51 8.497-11.59 8.389zM258.991 80.067c.122-.057 2.906 5.648 6.217 12.742 3.312 7.096 5.897 12.892 5.775 12.949-.122.057-2.905-5.647-6.218-12.743-3.311-7.093-5.897-12.891-5.774-12.948z"/></g><g><path transform="rotate(-23.253 545.257 87.814)" style="fill:#f5f5f5" d="M524.39 73.774h41.673v28.089H524.39z"/><path style="fill:#e0e0e0" d="M559.08 66.946c.012.006-.061.177-.209.497l-.665 1.392-2.509 5.093-8.424 16.78-.069.138-.15-.041-.362-.099-18.336-5.091-5.545-1.585-1.503-.449c-.342-.107-.521-.169-.517-.182.004-.012.188.025.537.108l1.521.381 5.577 1.468 18.365 4.984.362.099-.219.097 8.525-16.729 2.616-5.039.728-1.36c.171-.308.266-.468.277-.462z"/><path style="fill:#e0e0e0" d="M531.883 109.206c-.1-.03 1.259-4.805 3.035-10.663 1.777-5.86 3.297-10.585 3.397-10.555.1.03-1.259 4.804-3.035 10.664-1.775 5.859-3.297 10.584-3.397 10.554zM550.904 82.196c.05-.092 4.404 2.198 9.724 5.112 5.321 2.916 9.593 5.353 9.543 5.445-.05.091-4.403-2.197-9.725-5.113-5.32-2.915-9.592-5.352-9.542-5.444z"/></g><g><path style="fill:#e8505b" d="M609.52 327.756a31.667 31.667 0 0 0-13.547-4.663c-2.214-.227-4.632-.163-6.408 1.178-.377.285-.744.706-.66 1.17.062.342.351.59.627.801 5.511 4.205 13.849 4.736 19.988 1.514M609.172 327.372c-3.067-2.393-6.152-4.803-8.75-7.699-2.598-2.895-4.71-6.333-5.486-10.145-.235-1.156-.308-2.477.434-3.395 6.975 5.448 12.454 12.493 13.802 21.239"/><path style="fill:#e8505b" d="M609.448 327.703c-.525-3.816-.714-7.737.162-11.488.876-3.751 2.917-7.34 6.119-9.48 1.206 2.817.687 6.063-.162 9.007a43.744 43.744 0 0 1-6.068 12.775M616.285 339.955c-4.15.504-7.765 2.692-10.864 5.499a20.557 20.557 0 0 0-6.215 10.668c4.071-.251 7.525-3.122 10.03-6.342 2.505-3.219 4.24-6.751 6.992-9.762M617.77 341.914c-3.343-8.235-2.132-18.158 3.094-25.347 2.365 8.412 1.497 17.913-3.094 25.347M626.804 352.671a19.514 19.514 0 0 0-10.867 2.546 19.516 19.516 0 0 0-7.66 8.118c-.23.459-.432 1.042-.125 1.453.267.357.784.39 1.229.361 3.651-.236 6.887-2.433 9.558-4.935 2.67-2.501 4.996-5.391 7.947-7.555M626.516 352.086a34.501 34.501 0 0 1-.344-19.275c.679-2.481 1.819-5.093 4.113-6.256.196-.099.424-.188.629-.111.195.073.308.273.398.461.816 1.705 1.054 3.641.97 5.53s-.476 3.748-.867 5.598c-.722 3.421-1.107 7.098-2.983 10.049-.445.7-.838 1.457-1.193 2.207-.355.75-.358 1.014-.683 1.611M650.429 355.648c-1.772-6.739.109-14.909 4.356-20.434.313-.407.727-.843 1.238-.795.782.072.985 1.114.95 1.899a36.913 36.913 0 0 1-6.544 19.33M652.586 357.122c8.188 2.131 17.581.06 24.391-4.961a19.755 19.755 0 0 0-13.204-1.621c-4.411 1.01-8.442 2.986-11.187 6.582M654.404 352.635c4.586-7.476 13.377-12.356 22.136-12.8-1.009 3.563-3.937 6.332-7.24 8.005-3.303 1.673-6.991 2.402-10.626 3.108-1.414.274-3.354.576-4.27 1.687M650.885 330.861c1.242-4.254 2.49-8.546 2.831-12.964.341-4.419-.289-9.031-2.582-12.824-4.283 8.289-4.717 17.973-.378 26.232M665.306 323.572c5.009-9.104 15.229-16.376 25.57-17.395-3.989 9.932-14.868 17.609-25.57 17.395M662.155 325.356c7.471 1.138 13.835 5.909 20.817 8.802 1.493.619 3.104 1.111 4.706.901 1.602-.21 3.183-1.285 3.543-2.861.298-1.308-.297-2.697-1.236-3.656s-2.179-1.558-3.418-2.074c-7.604-3.166-15.758-3.245-23.768-1.325"/><path style="fill:#e8505b" d="M657.832 330.596c1.691.484 2.269 1.36 3.608 2.501a38.94 38.94 0 0 0 15.785 8.109c.603.15 1.394.21 1.693-.335.261-.476-.069-1.052-.408-1.476-2.427-3.037-5.888-5.113-9.531-6.47-3.643-1.357-6.799-2.992-11.147-2.641M652.953 298.95c6.075 5.67 14.631 8.581 22.903 7.792.376-.036.787-.096 1.043-.374.576-.627-.115-1.595-.787-2.119-6.733-5.249-14.889-7.426-23.159-5.299"/><path style="fill:#e8505b" d="M658.737 296.834c8.03-6.02 19.041-7.837 28.579-4.716-3.599 3.547-8.593 5.455-13.619 5.979-5.025.523-10.058-.034-14.96-1.263M656.439 282.292c-.661-6.721-.232-12.026-.699-18.779-.037-.539-.153-1.189-.658-1.383-.703-.271-1.289.593-1.519 1.31-2.001 6.225-.907 13.364 2.866 18.704"/><path style="fill:#e8505b" d="M655.955 283.035c4.555-2.817 7.973-6.496 11.133-10.821 2.199-3.009 4.053-6.613 3.553-10.307-3.088-.062-6.023 1.642-8.031 3.988-2.008 2.347-3.202 5.28-4.094 8.237-.891 2.958-1.515 5.997-2.561 8.903M666.894 279.996a89.759 89.759 0 0 0 27.399-16.156c-3.273-1.318-7.02-.529-10.292.791-7.476 3.018-13.584 8.111-17.25 15.291M659.031 286.711c5.058.553 10.196.913 15.214.074 4.932-.824 9.594-2.78 14.203-4.719.382-.161.798-.354.965-.733.182-.412-.012-.913-.346-1.215-.334-.302-.778-.446-1.211-.568-5.011-1.402-10.419-.745-15.349.917-4.931 1.664-8.973 3.638-13.476 6.244M630.15 299.18c-3.451-6.966-3.227-15.094-.246-22.273 2.098 3.197 2.355 7.269 1.971 11.074-.384 3.805-1.542 7.721-1.617 11.545M616.364 292.227c-8.615-.165-17.234 3.507-23.084 9.834 4.3.676 8.729-.433 12.64-2.343 3.911-1.91 7.387-4.59 10.832-7.25M607.096 289.128c-4.215-.342-8.271-.864-12.323.378s-7.741 4.061-9.393 7.964c3.942.444 7.94-.544 11.553-2.182 3.614-1.637 6.899-3.905 10.163-6.16M620.819 289.27c-3.792-2.485-7.685-5.014-12.1-6.044-4.415-1.029-9.531-.269-12.61 3.059 3.574 2.097 7.91 2.345 12.054 2.342 4.144-.003 9.224-.05 13.13 1.332"/><path style="fill:#e8505b" d="M620.841 289.47c-6.482-6.365-8.94-17.8-6.332-26.503 5.096 7.742 7.378 17.294 6.332 26.503M638.666 271.435c1.222-2.842 2.082-5.825 3.179-8.718s2.46-5.74 4.533-8.037c2.073-2.297 4.938-4.008 8.028-4.161-1.934 8.758-7.752 16.585-15.581 20.961M635.44 275.193c-2.023-2.785-4.361-6.565-7.104-8.643-2.744-2.079-6.316-3.336-9.664-2.538 3.405 6.087 9.84 10.377 16.768 11.181M636.086 271.666c-1.326-3.37-2.662-6.775-3.198-10.356-.536-3.581-.21-7.406 1.621-10.53 3.558 6.726 4.704 13.947 1.758 20.962M638.698 250.78c2.016-6.668 8.121-11.577 14.713-13.83.831-.284 1.712-.521 2.58-.387.868.134 1.719.728 1.901 1.587.24 1.134-.697 2.151-1.578 2.904a50.083 50.083 0 0 1-17.616 9.726M638.771 245.327c.256-4.299.524-8.661 1.923-12.734 1.398-4.074 4.093-7.895 8.014-9.678.667 4.342-1.249 8.662-3.559 12.398-2.31 3.736-5.095 7.263-6.483 11.431M638.666 248.286c-1.666-4.859-1.838-11.032-4.748-15.265-2.034-2.959-5.292-4.975-7.044-8.11-1.164 2.927-.808 6.301.41 9.206 1.218 2.906 3.23 5.407 5.383 7.707s3.997 4.03 5.999 6.462"/><path style="fill:#263238" d="M638.698 391.394c-.129 0-.242-32.417-.251-72.397-.009-39.993.089-72.404.218-72.404s.242 32.41.25 72.404c.01 39.98-.087 72.397-.217 72.397z"/><path style="fill:#263238" d="M667.027 294.289c.009.031-.426.192-1.219.457l-3.354 1.132a195.834 195.834 0 0 0-10.93 4.087c-4.175 1.791-8.113 3.245-10.355 5.188-1.12.959-1.763 1.996-2.081 2.753-.322.761-.379 1.227-.422 1.219-.016-.002-.011-.119.014-.34.037-.218.093-.545.238-.945.273-.8.899-1.909 2.031-2.935 1.127-1.027 2.696-1.951 4.493-2.791a137.822 137.822 0 0 1 5.905-2.583 135.258 135.258 0 0 1 11.005-3.968 86.954 86.954 0 0 1 3.404-.991c.81-.212 1.262-.315 1.271-.283z"/><path style="fill:#263238" d="M676.313 271.48c.011.012-.107.137-.341.365l-1.04.977-3.883 3.528-12.925 11.509c-5.045 4.491-9.406 8.782-12.427 12.013a145.507 145.507 0 0 0-3.517 3.883l-.939 1.073c-.218.243-.338.366-.351.356-.013-.01.083-.153.278-.415.196-.261.482-.649.873-1.13a87.425 87.425 0 0 1 3.414-3.991c2.967-3.297 7.304-7.638 12.359-12.138 5.063-4.481 9.67-8.506 13.018-11.408l3.982-3.416 1.098-.911c.252-.206.39-.307.401-.295z"/><path style="fill:#263238" d="M652.676 292.425c-.132-.059.922-2.493 1.972-5.57 1.06-3.077 1.559-5.675 1.693-5.653.122.013-.176 2.686-1.249 5.803a37.916 37.916 0 0 1-1.569 3.896c-.46.971-.79 1.55-.847 1.524zM638.728 312.046c-.026.019-.302-.303-.778-.902l-1.992-2.554a853.102 853.102 0 0 0-6.578-8.415 858.883 858.883 0 0 0-6.703-8.318l-2.035-2.519c-.475-.599-.727-.941-.702-.962.024-.021.323.28.841.844.519.563 1.254 1.391 2.15 2.425a255.146 255.146 0 0 1 6.816 8.24 254.7 254.7 0 0 1 6.476 8.507 111.144 111.144 0 0 1 1.874 2.645c.431.631.657.99.631 1.009z"/><path style="fill:#263238" d="M632.517 304.072c-.077.082-1.734-1.884-2.602-4.872-.641-2.105-.669-4.031-.59-4.911l.207.017c-.093.375-.161.573-.197.567-.037-.006-.039-.215-.008-.601l.207.017c.076.873.208 2.733.831 4.778.837 2.894 2.277 4.925 2.152 5.005zM624.497 293.984c-.06.065-.594-.607-1.817-1.055-1.214-.47-3.04-.573-5.044-.401a31.123 31.123 0 0 0-5.08.82c-1.282.318-2.066.567-2.09.502-.021-.055.725-.417 2.001-.821a23.214 23.214 0 0 1 5.133-.968c2.027-.175 3.949-.019 5.204.561 1.272.563 1.735 1.351 1.693 1.362zM622.597 291.54c-.036.073-1.058-.424-2.783-1.014a28.732 28.732 0 0 0-6.945-1.43 28.714 28.714 0 0 0-7.082.36c-1.795.321-2.881.657-2.905.58-.01-.031.252-.141.738-.315.483-.18 1.202-.386 2.102-.59 1.797-.412 4.361-.713 7.183-.502 2.82.219 5.308.905 7.022 1.585.859.338 1.538.65 1.988.902.453.246.696.395.682.424zM638.666 281.202c-.125.032-1.034-3.125-2.03-7.051-.996-3.927-1.701-7.135-1.576-7.167.125-.032 1.034 3.125 2.03 7.052.996 3.925 1.701 7.134 1.576 7.166z"/><path style="fill:#263238" d="M638.795 281.202c-.14.045-.724-2.064-2.25-4.221-1.485-2.203-3.381-3.308-3.311-3.417.025-.049.548.143 1.278.659.732.509 1.637 1.373 2.417 2.489 1.584 2.244 1.979 4.482 1.866 4.49zM638.698 374.113c-.05.008-.146-.779-.511-2.156-.361-1.376-1.041-3.329-2.166-5.613-2.24-4.577-6.315-10.38-11.494-16.193-2.566-2.932-5.056-5.697-7.169-8.345-2.117-2.644-3.856-5.164-5.126-7.393-1.274-2.227-2.104-4.138-2.588-5.486a22.527 22.527 0 0 1-.508-1.569c-.103-.363-.149-.555-.133-.56.042-.013.278.742.812 2.063.534 1.321 1.403 3.196 2.703 5.385 1.297 2.191 3.052 4.673 5.176 7.29 2.121 2.621 4.615 5.371 7.185 8.308 5.192 5.828 9.258 11.704 11.439 16.357 1.097 2.322 1.735 4.312 2.045 5.713.15.702.251 1.249.287 1.626.048.374.065.571.048.573z"/><path style="fill:#263238" d="M664.297 345.199c.015.034-.475.283-1.342.753a29.328 29.328 0 0 0-3.48 2.3c-1.399 1.071-2.963 2.477-4.57 4.168-1.604 1.695-3.256 3.662-4.943 5.771-3.372 4.23-6.525 7.974-8.413 10.962a44.484 44.484 0 0 0-2.112 3.609c-.461.875-.704 1.366-.739 1.351-.015-.007.028-.137.124-.381.1-.241.235-.603.451-1.051.409-.905 1.066-2.188 1.996-3.704 1.834-3.06 4.962-6.855 8.328-11.079 1.69-2.113 3.362-4.084 4.997-5.776 1.637-1.689 3.243-3.086 4.683-4.135a24.527 24.527 0 0 1 3.594-2.197c.445-.223.807-.36 1.047-.464.243-.098.373-.142.379-.127z"/><path style="fill:#263238" d="M664.798 354.579c.006.068-1.083.2-2.836.412-1.747.226-4.178.518-6.725 1.325-2.538.827-4.647 2.086-6.022 3.16-1.388 1.073-2.043 1.96-2.107 1.908-.023-.016.113-.258.42-.653.303-.397.8-.928 1.477-1.512 1.352-1.165 3.482-2.501 6.088-3.349 2.609-.826 5.074-1.065 6.836-1.208 1.769-.129 2.864-.144 2.869-.083z"/><path style="fill:#263238" d="M647.936 360.353c-.148-.084 1.13-2.036 2.121-4.661.93-2.65 1.148-4.973 1.315-4.946.06.007.058.588-.047 1.521-.111.93-.335 2.223-.827 3.584-.495 1.359-1.145 2.496-1.645 3.287-.505.791-.864 1.248-.917 1.215zM672.588 320.016c.006.015-.151.098-.454.241l-1.333.606c-.584.25-1.292.568-2.091.989-.801.413-1.736.839-2.709 1.424l-1.547.879c-.536.309-1.067.675-1.632 1.028-1.141.692-2.283 1.544-3.502 2.414a66.004 66.004 0 0 0-7.311 6.43 66.02 66.02 0 0 0-6.178 7.528c-.828 1.249-1.64 2.42-2.293 3.583-.334.577-.682 1.12-.972 1.666l-.826 1.576c-.551.993-.945 1.942-1.33 2.757a28.79 28.79 0 0 0-.917 2.123l-.56 1.352c-.133.308-.21.467-.225.462-.015-.005.032-.175.136-.493l.479-1.387c.205-.604.474-1.336.846-2.162.364-.829.739-1.792 1.274-2.801l.804-1.6c.283-.555.626-1.106.955-1.69.642-1.18 1.448-2.367 2.272-3.632a62.969 62.969 0 0 1 6.197-7.609 63.004 63.004 0 0 1 7.391-6.451c1.236-.867 2.394-1.713 3.552-2.395.573-.349 1.112-.71 1.656-1.012l1.571-.858c.989-.569 1.94-.977 2.755-1.369.813-.4 1.535-.695 2.132-.92l1.37-.526c.316-.115.484-.168.49-.153z"/><path style="fill:#263238" d="M652.328 333.591c-.041-.007.184-.794 1.114-1.659.907-.864 2.562-1.664 4.489-1.722 1.921-.051 3.586.486 4.724.923 1.144.449 1.808.813 1.786.868-.027.065-.739-.191-1.895-.555-1.152-.353-2.78-.817-4.6-.767-1.814.056-3.379.754-4.288 1.505-.928.746-1.255 1.452-1.33 1.407zM649.3 336.715c-.129-.071 1.014-1.747 1.274-4.146.299-2.396-.427-4.289-.286-4.329.051-.021.306.419.526 1.208.222.785.368 1.927.224 3.175-.148 1.247-.553 2.326-.949 3.038-.394.716-.744 1.086-.789 1.054z"/><g><path style="fill:#455a64" d="M616.309 378.758c.699 12.389 4.432 24.988 10.174 37.726h24.97c5.476-12.612 8.951-25.192 9.569-37.726h-44.713z"/></g><g><path style="fill:#fafafa" d="M656.976 398.805c0 .129-8.222.234-18.361.234-10.143 0-18.363-.105-18.363-.234s8.22-.234 18.363-.234c10.139-.001 18.361.104 18.361.234z"/></g><g><path style="fill:#fafafa" d="M656.418 403.293c0 .13-7.707.234-17.213.234-9.509 0-17.214-.105-17.214-.234s7.706-.234 17.214-.234c9.505 0 17.213.105 17.213.234z"/></g></g><g><path style="fill:#455a64" d="M545.841 410.579H190.459c-8.045 0-14.567-6.522-14.567-14.567V170.869c0-8.045 6.522-14.567 14.567-14.567h355.382c8.045 0 14.567 6.522 14.567 14.567v225.143c.001 8.045-6.522 14.567-14.567 14.567z"/><path style="fill:#455a64" d="M559.661 416.406H178.662c-9.829 0-17.798-7.968-17.798-17.798v-4.451h416.594v4.451c.001 9.83-7.968 17.798-17.797 17.798z"/><path style="fill:#263238" d="M186.213 166.404h362.799v214.733H186.213zM330.245 391.773l5.169 8.223h72.743l4.8-8.223z"/><g><path style="fill:#ebebeb" d="M539.013 380.451H196.959a3.273 3.273 0 0 1-3.273-3.273v-200.23a3.273 3.273 0 0 1 3.273-3.273h342.054a3.273 3.273 0 0 1 3.273 3.273V377.18a3.273 3.273 0 0 1-3.273 3.271z"/><path style="fill:#fafafa" d="M541.912 380.753H193.313l.373-191.626h348.226z"/><path style="fill:#263238" d="M222.276 181.66a2.783 2.783 0 1 1-5.567.001 2.783 2.783 0 0 1 5.567-.001zM205.403 181.66a2.783 2.783 0 1 1-5.567.001 2.783 2.783 0 0 1 5.567-.001zM213.502 181.66a2.783 2.783 0 1 1-5.567.001 2.783 2.783 0 0 1 5.567-.001z"/></g><g><path style="fill:#263238" d="M557.104 391.772c0 .138-85.344.249-190.597.249-105.29 0-190.615-.112-190.615-.249s85.326-.249 190.615-.249c105.253.001 190.597.112 190.597.249z"/></g><g><path style="fill:#e8505b" d="m305.314 263.984 141.824-1.325 4.154 96.416-146.859-1.056z"/><path style="fill:#e8505b" d="m305.314 263.984 67.01-54.453a7.71 7.71 0 0 1 9.737.011l65.078 53.117"/><path d="m305.314 263.984 67.01-54.453a7.71 7.71 0 0 1 9.737.011l65.078 53.117" style="opacity:.3"/><path style="fill:#263238" d="M304.433 358.019c-.177-.166 11.151-12.586 25.299-27.739 14.153-15.158 25.767-27.307 25.944-27.142.177.166-11.149 12.583-25.302 27.741-14.148 15.153-25.763 27.305-25.941 27.14zM451.292 359.075c-.181.161-11.264-11.962-24.751-27.075-13.492-15.118-24.279-27.501-24.098-27.662.181-.161 11.261 11.96 24.753 27.078 13.488 15.112 24.277 27.497 24.096 27.659z"/><path d="M447.138 262.659 376.039 319.7l-70.725-55.716" style="opacity:.5"/><path style="fill:#fafafa" d="m312.467 269.237-.313-44.295 124.185-1.726 1.496 46.603-61.805 49.136z"/><path style="fill:#263238" d="M312.467 269.237s.41.296 1.178.884l3.385 2.611 12.855 9.982 46.276 36.072-.264.001 61.777-49.17-.097.21-.893-27.71-.605-18.894.263.251-124.186 1.635.165-.168.149 32.579.019 8.699-.005 2.248c-.004.507-.017.77-.017.77s-.016-.249-.027-.749l-.037-2.23-.104-8.678-.312-32.637-.002-.166.166-.002 124.183-1.818.254-.004.008.255.608 18.894.887 27.71.004.13-.101.081-61.832 49.102-.132.105-.133-.104-46.218-36.275-12.763-10.056-3.331-2.642c-.747-.601-1.118-.916-1.118-.916z"/><g><path style="fill:#263238" d="M416.758 245.559c.001.144-18.99.415-42.413.606-23.431.191-42.42.229-42.422.085-.001-.144 18.986-.415 42.417-.606 23.424-.191 42.417-.229 42.418-.085z"/></g><g><path style="fill:#263238" d="M416.784 258.071c.001.144-18.99.415-42.413.606-23.431.191-42.42.229-42.422.085-.001-.144 18.986-.415 42.417-.606 23.424-.191 42.417-.229 42.418-.085z"/></g><g><path style="fill:#263238" d="M416.814 272.492c.001.144-18.99.415-42.413.606-23.431.191-42.42.229-42.422.085-.001-.144 18.986-.415 42.417-.606 23.424-.19 42.417-.229 42.418-.085z"/></g><g><path style="fill:#263238" d="M416.844 286.913c.001.144-18.117.408-40.464.59-22.354.182-40.471.213-40.472.069-.001-.144 18.114-.408 40.468-.59 22.347-.181 40.467-.213 40.468-.069z"/></g><g><path style="fill:#263238" d="M400.986 299.604c0 .018-.171.037-.497.057l-1.426.061-5.246.131-17.308.315a906.14 906.14 0 0 1-17.316.162l-5.248-.035-1.427-.036c-.326-.014-.498-.03-.498-.048 0-.018.171-.037.497-.057l1.426-.061 5.246-.131 17.31-.315c6.76-.127 12.882-.166 17.313-.162l5.248.035 1.427.036c.328.014.499.03.499.048z"/></g><g><path style="fill:#263238" d="M385.025 311.805c0 .144-4.049.269-9.043.279-4.996.01-9.045-.098-9.045-.242s4.048-.269 9.044-.279c4.994-.01 9.043.098 9.044.242z"/></g></g></g><g><path style="fill:#263238" d="M708.98 415.553c0 .144-149.54.26-333.964.26-184.488 0-333.996-.117-333.996-.26 0-.144 149.508-.26 333.996-.26 184.424 0 333.964.117 333.964.26z"/></g><g><path style="fill:#263238" d="M401.758 222.825c.143.015.204.584.136 1.27-.068.687-.239 1.232-.382 1.22-.143-.013-.204-.582-.136-1.271.068-.688.239-1.234.382-1.219zM403.09 213.085c.142.024.091 1.13-.113 2.469-.204 1.34-.486 2.41-.628 2.391-.142-.019-.092-1.124.113-2.469.205-1.345.487-2.415.628-2.391zM405.054 203.453c.14.034.015 1.134-.278 2.456-.293 1.323-.646 2.372-.787 2.343-.141-.028-.016-1.128.278-2.456.295-1.328.647-2.377.787-2.343zM407.717 193.99c.137.045-.07 1.132-.462 2.428s-.822 2.316-.961 2.277c-.139-.038.068-1.125.463-2.428.394-1.302.824-2.322.96-2.277zM411.15 184.778c.132.057-.166 1.123-.666 2.381-.5 1.258-1.015 2.238-1.15 2.188-.135-.05.163-1.115.667-2.381.502-1.264 1.017-2.244 1.149-2.188zM415.409 175.93c.126.069-.271 1.101-.886 2.305-.616 1.204-1.22 2.129-1.35 2.068-.13-.062.267-1.093.887-2.305.619-1.212 1.223-2.138 1.349-2.068zM420.55 167.551c.118.083-.4 1.06-1.152 2.185-.723 1.145-1.409 2.012-1.532 1.938-.123-.074.367-1.069 1.095-2.222.758-1.133 1.472-1.983 1.589-1.901zM426.606 159.811c.107.096-.506 1.017-1.37 2.057-.864 1.041-1.657 1.812-1.771 1.724-.114-.088.5-1.009 1.37-2.057.871-1.047 1.664-1.819 1.771-1.724zM433.535 152.842c.095.108-.624.95-1.605 1.879-.982.93-1.861 1.602-1.964 1.501-.103-.101.616-.942 1.606-1.879.988-.937 1.868-1.609 1.963-1.501zM441.272 146.783c.08.119-.738.864-1.829 1.663s-2.047 1.355-2.137 1.243c-.089-.113.729-.857 1.829-1.663 1.1-.805 2.057-1.362 2.137-1.243zM449.746 141.806c.063.129-.849.756-2.038 1.4-1.189.644-2.213 1.066-2.286.942-.074-.123.839-.75 2.038-1.4 1.2-.65 2.223-1.071 2.286-.942zM458.848 138.105c.043.137-.952.623-2.221 1.084-1.27.461-2.344.727-2.399.594-.055-.133.939-.618 2.221-1.084 1.282-.465 2.356-.731 2.399-.594zM468.414 135.878c.02.144-1.045.434-2.375.664-1.322.28-2.42.393-2.454.253-.034-.14 1.021-.482 2.356-.764 1.345-.233 2.454-.294 2.473-.153zM478.222 135.337c-.006.144-1.105.273-2.455.288-1.35.015-2.452-.089-2.461-.232-.009-.143 1.09-.273 2.455-.288 1.364-.016 2.466.088 2.461.232zM487.977 136.487c-.03.141-1.135.08-2.468-.135-1.333-.215-2.401-.506-2.385-.649.016-.143 1.121-.083 2.468.135 1.347.217 2.415.508 2.385.649zM497.389 139.296c-.054.133-1.132-.117-2.408-.56-1.276-.443-2.277-.914-2.237-1.052.04-.138 1.118.112 2.408.56 1.29.448 2.292.919 2.237 1.052zM506.139 143.757c-.078.121-1.092-.323-2.264-.992-1.172-.669-2.07-1.316-2.006-1.444.064-.129 1.078.315 2.264.992 1.186.676 2.084 1.323 2.006 1.444zM513.842 149.84c-.101.102-1.006-.536-2.02-1.425s-1.764-1.703-1.676-1.817c.088-.114.992.524 2.02 1.425 1.027.901 1.777 1.715 1.676 1.817zM518.699 155.439c-.117.084-.552-.287-.971-.828-.42-.542-.67-1.056-.559-1.147.111-.092.545.279.971.829.426.548.676 1.062.559 1.146z"/><g><path style="fill:#263238" d="M564.944 215.69c-.056.132-1.121-.233-2.377-.817-1.257-.584-2.223-1.161-2.158-1.29.065-.128 1.129.237 2.377.817 1.248.58 2.214 1.157 2.158 1.29zM574.384 218.974c-.035.139-1.139-.076-2.466-.481-1.327-.405-2.363-.844-2.315-.979.049-.135 1.153.08 2.466.481 1.314.401 2.35.84 2.315.979zM584.246 220.548c-.007.144-1.133.137-2.513-.015-1.381-.152-2.48-.39-2.456-.532.024-.142 1.149-.136 2.513.015 1.363.15 2.463.388 2.456.532zM594.23 220.237c.018.143-1.09.343-2.473.448-1.384.104-2.508.072-2.512-.072-.004-.144 1.104-.344 2.474-.448 1.368-.103 2.493-.071 2.511.072zM604.05 218.396c.04.138-1.023.518-2.373.848-1.356.291-2.481.381-2.505.243-.027-.146 1.05-.464 2.394-.752 1.332-.325 2.444-.477 2.484-.339zM613.332 214.714c.068.127-.9.701-2.162 1.281-1.263.581-2.328.942-2.38.808-.052-.134.916-.708 2.163-1.281 1.245-.573 2.311-.934 2.379-.808zM621.616 209.143c.093.107-.685.932-1.796 1.769-1.11.839-2.116 1.361-2.193 1.242-.08-.121.785-.831 1.88-1.658 1.095-.826 2.014-1.464 2.109-1.353zM628.417 201.842c.116.081-.441 1.071-1.328 2.144-.885 1.075-1.748 1.811-1.851 1.713-.106-.101.577-.986 1.449-2.044.873-1.057 1.611-1.897 1.73-1.813zM633.102 193.042c.134.046-.127 1.153-.697 2.425-.567 1.273-1.214 2.208-1.338 2.139-.128-.07.305-1.1.862-2.351.56-1.25 1.035-2.261 1.173-2.213zM634.948 183.259c.141 0 .256 1.133.113 2.522-.14 1.39-.485 2.477-.623 2.447-.143-.03-.032-1.139.105-2.5.14-1.359.259-2.47.405-2.469zM633.507 173.403c.134-.044.593.997.902 2.356.312 1.36.348 2.497.207 2.515-.145.02-.409-1.065-.715-2.399-.302-1.335-.533-2.428-.394-2.472zM629.16 164.436c.115-.082.865.773 1.565 1.979.703 1.205 1.077 2.279.949 2.338-.132.062-.709-.894-1.399-2.076-.686-1.183-1.235-2.156-1.115-2.241zM622.221 157.303c.08-.116 1.078.435 2.131 1.352 1.056.914 1.747 1.819 1.643 1.915-.107.101-.951-.628-1.985-1.522-1.029-.896-1.873-1.625-1.789-1.745zM613.154 153.243c.026-.138 1.165-.034 2.495.406 1.332.437 2.31 1.028 2.249 1.154-.062.134-1.115-.235-2.412-.66-1.295-.429-2.361-.756-2.332-.9zM603.237 153.407c-.038-.135 1.032-.545 2.422-.725 1.39-.184 2.529-.065 2.527.075 0 .147-1.108.262-2.46.442-1.351.174-2.451.351-2.489.208zM594.619 158.233c-.105-.092.583-1.021 1.71-1.869 1.123-.852 2.195-1.273 2.257-1.149.07.132-.861.743-1.943 1.565-1.086.815-1.915 1.553-2.024 1.453zM590.662 167.206c-.138-.006-.193-1.158.144-2.528.332-1.373.925-2.367 1.049-2.305.135.062-.226 1.111-.544 2.429-.323 1.315-.499 2.413-.649 2.404zM592.614 176.901c-.123.066-.758-.891-1.217-2.221-.463-1.328-.555-2.474-.417-2.498.145-.027.46 1.041.909 2.327.444 1.289.857 2.324.725 2.392zM599.15 184.339c-.078.116-1.086-.424-2.134-1.354-1.053-.927-1.708-1.867-1.6-1.958.111-.096.922.666 1.945 1.568 1.019.904 1.873 1.622 1.789 1.744zM608.226 188.406c-.032.137-1.161-.01-2.481-.462-1.322-.449-2.304-1.028-2.244-1.156.061-.133 1.117.224 2.412.663 1.294.443 2.347.813 2.313.955zM618.149 189.35c.009.141-1.112.326-2.505.295-1.393-.027-2.505-.26-2.49-.4.015-.146 1.132-.146 2.501-.12 1.369.029 2.485.079 2.494.225zM627.948 187.535c.045.134-.987.603-2.335.946-1.348.345-2.48.426-2.504.286-.025-.144 1.048-.451 2.375-.791 1.327-.337 2.418-.58 2.464-.441z"/><path style="fill:#263238" d="M637.018 183.38c.075.123-.859.749-2.088 1.398-1.228.65-2.272 1.069-2.331.938-.059-.131.876-.757 2.088-1.398 1.212-.641 2.256-1.06 2.331-.938zM645.034 177.423c.097.106-.694.907-1.767 1.788s-2.013 1.501-2.097 1.385c-.085-.116.706-.916 1.767-1.788 1.061-.871 2-1.491 2.097-1.385zM651.845 170.113c.114.088-.525 1.015-1.426 2.07-.902 1.055-1.718 1.83-1.822 1.731-.104-.099.534-1.025 1.426-2.07.892-1.043 1.708-1.818 1.822-1.731zM657.342 161.77c.127.068-.35 1.087-1.065 2.277-.715 1.19-1.392 2.089-1.511 2.009-.119-.08.357-1.099 1.065-2.277.707-1.178 1.384-2.077 1.511-2.009zM661.397 152.634c.136.048-.164 1.133-.67 2.424-.495 1.295-1.035 2.285-1.176 2.223-.122-.055.201-1.13.692-2.415.502-1.281 1.019-2.28 1.154-2.232zM664.193 143.038c.14.032-.028 1.144-.375 2.485-.348 1.341-.742 2.395-.88 2.354-.138-.041.03-1.153.375-2.485.346-1.331.74-2.385.88-2.354zM665.943 133.197c.143.018.089 1.142-.121 2.51-.21 1.369-.494 2.457-.636 2.432-.141-.026-.087-1.15.121-2.511.209-1.361.494-2.45.636-2.431zM666.864 123.241c.144.008.177 1.133.074 2.512-.103 1.38-.302 2.487-.445 2.474-.143-.014-.176-1.138-.074-2.513.102-1.374.302-2.481.445-2.473zM667.182 113.249c.144.001.239 1.123.212 2.505-.027 1.383-.165 2.499-.309 2.494-.144-.005-.239-1.126-.212-2.505.027-1.378.165-2.495.309-2.494zM667.109 103.25c.144-.003.276 1.115.296 2.496.02 1.382-.081 2.503-.224 2.504s-.276-1.116-.296-2.496c-.02-1.38.081-2.501.224-2.504zM666.961 97.1c.144-.004.267.25.276.567.009.317-.101.577-.245.581-.144.004-.267-.25-.276-.567-.009-.317.101-.577.245-.581z"/></g><g><path transform="rotate(-6.2 657.162 94.015)" style="fill:#e8505b" d="M623.186 70.992h68.374v46.087h-68.374z"/><path style="fill:#263238" d="m625.851 120.662-.002-.024-4.979-45.842.025-.003 68-7.385.002.024 4.979 45.842-.024.003-68.001 7.385zm-4.926-45.822 4.971 45.767 67.925-7.376-4.971-45.768-67.925 7.377z"/><path style="fill:#263238" d="M689.15 67.963c.015.015-.18.248-.567.679l-1.713 1.864-6.387 6.781-21.289 22.266-.175.183-.215-.136-.519-.33-26.311-16.809-7.935-5.154-2.141-1.428c-.486-.332-.735-.515-.724-.534.011-.018.283.13.791.428l2.203 1.329 8.041 4.987 26.408 16.656.519.33-.39.047 21.422-22.138 6.528-6.645 1.796-1.784c.417-.402.642-.607.658-.592z"/><path style="fill:#263238" d="M626.151 121.163c-.142-.096 4.287-6.931 9.892-15.266 5.607-8.337 10.266-15.016 10.409-14.921.142.096-4.286 6.93-9.893 15.267-5.606 8.335-10.266 15.015-10.408 14.92z"/><g><path style="fill:#263238" d="M668.985 87.949c.123-.119 5.851 5.567 12.792 12.699 6.944 7.135 12.471 13.013 12.349 13.133s-5.85-5.565-12.794-12.7c-6.941-7.132-12.47-13.012-12.347-13.132z"/></g></g></g><g><path style="fill:#263238" d="M378.471 206.348c.142-.024.35.509.466 1.19.115.682.094 1.253-.048 1.277-.142.024-.35-.509-.466-1.19-.115-.682-.093-1.253.048-1.277zM376.87 196.591c.142-.022.433 1.052.65 2.399.217 1.347.278 2.458.136 2.482-.142.023-.433-1.05-.65-2.399-.217-1.348-.278-2.46-.136-2.482zM375.443 186.808c.143-.019.411 1.061.6 2.412s.226 2.463.084 2.484-.411-1.059-.6-2.412-.226-2.465-.084-2.484zM374.318 176.986c.143-.013.375 1.075.517 2.431.142 1.356.142 2.469-.001 2.485-.143.017-.374-1.072-.517-2.431-.142-1.359-.142-2.472.001-2.485zM373.632 167.124c.144-.006.323 1.093.4 2.453.077 1.361.023 2.472-.12 2.482-.143.01-.322-1.088-.4-2.453-.078-1.365-.024-2.476.12-2.482zM373.526 157.235c.144.004.254 1.112.246 2.475-.008 1.363-.131 2.47-.275 2.472-.144.002-.254-1.106-.246-2.476.008-1.368.131-2.475.275-2.471zM374.147 147.374c.143.016.167 1.128.054 2.485-.113 1.357-.321 2.45-.465 2.441-.144-.008-.168-1.121-.054-2.485.114-1.363.322-2.457.465-2.441zM375.635 137.601c.141.029.063 1.14-.174 2.48-.237 1.341-.544 2.41-.686 2.389-.142-.021-.065-1.131.174-2.48.237-1.348.545-2.418.686-2.389zM378.155 128.047c.136.046-.067 1.14-.455 2.443-.388 1.303-.815 2.331-.954 2.295-.139-.036.064-1.13.455-2.443.391-1.314.818-2.341.954-2.295zM381.852 118.882c.129.063-.21 1.123-.757 2.367-.548 1.245-1.1 2.21-1.234 2.157-.134-.053.205-1.113.758-2.367.551-1.253 1.103-2.219 1.233-2.157zM386.675 110.257c.12.079-.351 1.087-1.052 2.252-.702 1.165-1.372 2.053-1.498 1.983-.126-.069.345-1.077 1.052-2.252.706-1.174 1.377-2.062 1.498-1.983zM392.603 102.352c.108.095-.496 1.03-1.348 2.088-.853 1.058-1.638 1.847-1.754 1.761-.116-.085.488-1.02 1.348-2.088.861-1.067 1.646-1.856 1.754-1.761zM399.628 95.405c.092.111-.646.944-1.648 1.86-1.003.917-1.898 1.577-2 1.476-.102-.101.636-.934 1.648-1.861 1.013-.925 1.908-1.586 2-1.475zM407.708 89.725c.071.125-.799.819-1.943 1.549-1.144.73-2.14 1.227-2.224 1.11-.084-.117.786-.811 1.944-1.549 1.157-.739 2.152-1.236 2.223-1.11zM416.712 85.671c.044.137-.944.649-2.207 1.143s-2.336.788-2.397.658c-.06-.131.928-.642 2.207-1.143 1.279-.5 2.353-.794 2.397-.658zM423.933 83.893c.022.142-.505.361-1.177.489-.673.128-1.243.118-1.275-.022-.031-.14.496-.359 1.177-.489.682-.13 1.252-.12 1.275.022z"/><g><path transform="rotate(-68.857 396.383 83.11)" style="fill:#e8505b" d="M371.319 45.949h50.11v74.344h-50.11z"/><path style="fill:#263238" d="m422.022 119.928-.023-.009-69.363-26.822.009-.023 18.082-46.761.023.009 69.363 26.822-.009.023-18.082 46.761zM352.7 93.069l69.293 26.795 18.055-46.691-69.293-26.795L352.7 93.069z"/><path style="fill:#263238" d="M440.085 73.806c.008.022-.298.149-.886.372l-2.585.945-9.555 3.361-31.681 10.875-.261.09-.139-.239-.337-.578-17.019-29.374-5.09-8.94-1.354-2.448c-.303-.563-.453-.865-.432-.877.02-.012.209.267.55.808l1.464 2.384 5.276 8.832 17.189 29.274.337.578-.4-.149 31.745-10.685 9.624-3.159 2.625-.826c.601-.181.921-.266.929-.244z"/><path style="fill:#263238" d="M352.672 93.731c-.09-.163 7.602-4.554 17.178-9.805 9.579-5.253 17.414-9.377 17.504-9.214.09.163-7.6 4.553-17.179 9.806-9.577 5.251-17.414 9.376-17.503 9.213z"/><g><path style="fill:#263238" d="M410.628 83.04c.178-.054 2.871 8.298 6.014 18.653 3.144 10.358 5.547 18.797 5.369 18.851-.178.054-2.871-8.296-6.015-18.655-3.142-10.355-5.546-18.795-5.368-18.849z"/></g></g></g><g><path style="fill:#263238" d="M349.349 217.293c.144.01.215.578.159 1.268-.056.691-.217 1.24-.361 1.226-.143-.013-.214-.581-.159-1.268.056-.686.218-1.236.361-1.226zM349.603 207.123c.144-.004.258 1.136.254 2.544-.003 1.409-.122 2.548-.266 2.544-.144-.004-.258-1.143-.254-2.545.003-1.4.122-2.539.266-2.543zM348.911 196.974c.143-.017.364 1.106.493 2.509.13 1.403.118 2.548-.026 2.557-.143.009-.364-1.114-.493-2.509-.128-1.394-.117-2.539.026-2.557zM347.215 186.944c.14-.032.474 1.063.744 2.446.271 1.383.375 2.523.233 2.547-.142.023-.475-1.072-.744-2.447-.269-1.373-.373-2.514-.233-2.546zM344.451 177.154c.136-.048.587 1.005 1.008 2.35.421 1.346.65 2.468.511 2.506-.139.038-.59-1.014-1.008-2.351-.418-1.335-.647-2.457-.511-2.505zM340.562 167.761c.129-.064.703.927 1.282 2.213.579 1.286.94 2.373.807 2.427-.133.054-.707-.936-1.282-2.213-.574-1.277-.935-2.363-.807-2.427zM335.511 158.934c.118-.08.837.816 1.595 2.007.721 1.214 1.204 2.255 1.079 2.326-.125.071-.807-.848-1.523-2.052-.75-1.182-1.271-2.199-1.151-2.281zM329.28 150.898c.107-.097.926.703 1.829 1.787.904 1.084 1.543 2.033 1.429 2.121s-.933-.712-1.829-1.787c-.895-1.075-1.535-2.025-1.429-2.121zM321.976 143.823c.092-.111 1.016.565 2.063 1.51 1.048.945 1.816 1.794 1.715 1.897-.101.103-1.025-.573-2.064-1.51-1.038-.937-1.806-1.787-1.714-1.897zM313.726 137.877c.074-.123 1.087.411 2.262 1.193s2.058 1.511 1.973 1.627c-.085.116-1.098-.418-2.262-1.193-1.164-.775-2.047-1.504-1.973-1.627zM304.666 133.258c.054-.133 1.138.238 2.42.829 1.283.591 2.269 1.174 2.203 1.302-.066.128-1.15-.243-2.421-.829-1.27-.586-2.256-1.169-2.202-1.302zM294.973 130.192c.03-.141 1.16.043 2.524.411s2.433.777 2.389.914c-.044.137-1.174-.047-2.524-.411s-2.419-.773-2.389-.914zM284.892 128.903c.003-.142 1.15-.201 2.561-.115 1.405.147 2.529.382 2.509.524-.02.143-1.162.14-2.551-.005-1.394-.085-2.522-.259-2.519-.404zM274.753 129.601c-.025-.142 1.092-.392 2.496-.558 1.404-.166 2.548-.184 2.557-.04.009.143-1.108.393-2.496.557-1.387.165-2.532.183-2.557.041zM264.931 132.216c-.051-.135.999-.59 2.346-1.018 1.347-.427 2.468-.66 2.504-.521.036.139-1.014.595-2.346 1.018-1.332.422-2.453.656-2.504.521zM255.772 136.625c-.076-.122.87-.767 2.113-1.44 1.243-.673 2.3-1.112 2.361-.982.061.13-.885.775-2.113 1.44-1.228.665-2.285 1.104-2.361.982zM247.648 142.731c-.099-.104.701-.924 1.786-1.829 1.086-.906 2.035-1.546 2.12-1.43.085.116-.714.935-1.787 1.829-1.07.894-2.02 1.534-2.119 1.43zM241 150.405c-.118-.079.425-1.097 1.292-2.215.865-1.12 1.713-1.902 1.819-1.808.109.096-.554 1.022-1.407 2.127-.855 1.103-1.583 1.978-1.704 1.896zM237.29 157.009c-.132-.058.008-.613.311-1.238.304-.626.653-1.079.78-1.011.127.067-.012.622-.312 1.239-.299.616-.648 1.069-.779 1.01z"/><g><path style="fill:#263238" d="M173.751 216.024c-.01-.144.532-.327 1.21-.409.678-.082 1.248-.034 1.273.108.025.142-.517.325-1.21.409-.694.084-1.264.035-1.273-.108zM163.846 214.9c.045-.14 1.139.09 2.48.37 1.34.284 2.435.51 2.42.656-.013.14-1.156.144-2.527-.146-1.371-.286-2.417-.746-2.373-.88zM154.895 210.474c.085-.119 1.06.433 2.239 1.136 1.178.705 2.129 1.295 2.065 1.427-.061.128-1.133-.262-2.332-.98-1.2-.715-2.054-1.468-1.972-1.583zM147.452 203.794c.11-.096.931.669 1.899 1.646.966.979 1.724 1.806 1.627 1.915-.094.107-1.018-.556-1.997-1.549-.981-.99-1.636-1.919-1.529-2.012zM141.571 195.693c.124-.072.837.802 1.591 1.952.754 1.151 1.271 2.153 1.155 2.238-.116.085-.828-.789-1.591-1.953-.762-1.163-1.279-2.165-1.155-2.237zM137.251 186.659c.135-.05.682.936 1.222 2.203.54 1.267.872 2.345.743 2.408-.129.063-.676-.923-1.222-2.203-.546-1.28-.878-2.358-.743-2.408zM134.377 177.063c.14-.031.538 1.024.888 2.357.35 1.334.522 2.448.385 2.49-.137.042-.535-1.013-.888-2.357-.353-1.344-.525-2.459-.385-2.49zM132.637 167.194c.143-.018.426 1.074.633 2.438.207 1.365.259 2.492.118 2.517-.141.025-.425-1.066-.633-2.439-.208-1.371-.26-2.498-.118-2.516zM131.676 157.217c.144-.01.35 1.099.462 2.477.112 1.378.086 2.505-.057 2.519-.143.014-.35-1.095-.462-2.477-.112-1.382-.086-2.51.057-2.519zM131.262 149.709c.144-.006.287.547.32 1.236.033.689-.057 1.254-.201 1.261-.144.007-.287-.546-.319-1.236-.034-.69.056-1.255.2-1.261z"/></g><g><path transform="rotate(-2.688 128.635 118.996)" style="fill:#e8505b" d="M87.037 91.009h83.243v56.108H87.037z"/><path style="fill:#263238" d="m88.38 149.073-.001-.025-2.643-56.071.025-.001 83.175-3.92.001.025 2.643 56.071-.025.001-83.175 3.92zm-2.592-56.049 2.639 55.996 83.1-3.917-2.639-55.996-83.1 3.917z"/><path style="fill:#263238" d="M169.21 89.742c.018.019-.237.288-.739.783l-2.22 2.138-8.265 7.766-27.525 25.475-.227.21-.251-.182-.607-.439-30.723-22.382-9.259-6.853-2.495-1.894c-.565-.44-.855-.681-.84-.702.015-.021.335.179.929.579l2.578 1.779 9.4 6.658 30.853 22.203.606.439-.477.028 27.677-25.31 8.427-7.59 2.315-2.034c.536-.459.825-.691.843-.672z"/><path style="fill:#263238" d="M88.701 149.708c-.166-.127 5.725-8.104 13.155-17.816 7.433-9.715 13.591-17.485 13.757-17.358.166.127-5.724 8.102-13.157 17.817-7.43 9.712-13.589 17.483-13.755 17.357z"/><g><path style="fill:#263238" d="M143.22 112.53c.158-.136 6.696 7.199 14.601 16.382 7.908 9.186 14.188 16.74 14.03 16.876-.158.136-6.695-7.198-14.603-16.383-7.904-9.183-14.186-16.739-14.028-16.875z"/></g></g></g><g><path style="fill:#ffbe9d" d="M234.575 288.164c.178-1.148-.563-2.235-1.725-2.534l-2.229.153-7.973-2.775c-1.492-.383-2.988.683-3.017 2.17-.045 2.292-.958 8.532-2.816 6.57-.044-.046-.089-.083-.133-.128-2.629-2.933-5.673-4.348-6.848-4.179-1.146.165-1.427 1.603-.572 2.357.129.131.278.25.473.331.081.033.18.099.266.143.967.626 2.162 1.792 3.047 2.722a10.485 10.485 0 0 1 2.006 3.033 47.8 47.8 0 0 1 1.28 3.25l.125 7.33-3.184 34.271s-21.095-22.158-20.606-22.375l1.211 34.491 12.779 10.575a16.07 16.07 0 0 0 26.314-12.649l-.737-44.314.52-5.812 1.819-12.63zM116.107 336.879l-23.082 52.845-18.27 38.116-13.568 4.563s-10.739 3.117-10.738 5.34c.001 2.223 2.833 1.717 2.833 1.717.521 3.318 5.116 1.437 8.334-.054s10.364-1.786 10.364-1.786c-1.967 1.521-1.337 3.863-.2 4.661 1.137.798 3.121-.168 4.465-1.6 1.344-1.432 4.797-2.096 8.644-3.468 3.847-1.372 4.48-6.544 4.48-6.544l46.233-77.874-19.495-15.916z"/><path style="fill:#e8505b" d="m192.751 356.066 5.814 7.676 12.587-27.931s-12.219-14.911-16.688-21.165c-4.43-6.199-7.754-7.277-7.754-7.277s-8.116-2.411-12.174-2.327l-20.056 1.196-20.372 8.894a28.2 28.2 0 0 0-12.264 10.326l-19.183 30.81 27.159 11.61 9.107 52.072c1.748 7.809 3.275 15.179 10.484 18.779l50.373-48.411-5.902-9.295-1.131-24.957z"/><path style="fill:#263238" d="M144.594 346.518c.119.08-2.985 4.906-6.933 10.777-3.949 5.873-7.246 10.568-7.366 10.488-.119-.08 2.984-4.905 6.934-10.778 3.947-5.872 7.245-10.568 7.365-10.487zM186.822 395.95c.016.032-.461.315-1.339.799-.877.485-2.157 1.166-3.748 1.99-3.18 1.65-7.61 3.861-12.555 6.192a379.726 379.726 0 0 1-12.77 5.741 167.462 167.462 0 0 1-3.921 1.623c-.932.368-1.454.557-1.468.524-.014-.033.481-.284 1.387-.71l3.852-1.774c3.257-1.488 7.754-3.547 12.697-5.876 4.941-2.329 9.391-4.485 12.612-6.05l3.821-1.842c.906-.428 1.415-.649 1.432-.617zM142.979 335.237c-.062.043-.717-.826-1.766-2.225-1.057-1.389-2.513-3.327-4.474-5.101-1.961-1.773-4.115-2.904-5.767-3.396-1.654-.512-2.753-.499-2.748-.594 0-.032.273-.068.769-.06.496.006 1.215.084 2.079.3 1.731.415 3.999 1.538 6.015 3.363 2.013 1.823 3.441 3.826 4.426 5.275.977 1.461 1.522 2.4 1.466 2.438zM184.423 360.614c.018.001.026.191.024.553-.01.362.005.898-.05 1.583-.072 1.374-.292 3.361-.803 5.773-.992 4.805-3.453 11.368-8.191 17.273-4.738 5.909-10.611 9.736-15.087 11.747-2.244 1.022-4.136 1.668-5.461 2.036-.657.203-1.184.305-1.535.392-.353.08-.54.114-.545.096-.011-.043.719-.253 2.019-.682a44.944 44.944 0 0 0 5.365-2.176c4.398-2.079 10.16-5.907 14.837-11.739 4.677-5.829 7.163-12.284 8.238-17.028.552-2.381.826-4.347.96-5.709.138-1.361.185-2.12.229-2.119z"/><path d="M133.339 388.009c-.087-.496 6.456-34.354 6.456-34.354l-9.871 14.825" style="opacity:.3"/><path style="fill:#263238" d="M191.46 323.57c.018-.001.042.2.072.582l.105 1.673.31 6.154.983 20.304c.378 7.932.675 15.116.831 20.318.079 2.601.128 4.706.145 6.161l.007 1.676c-.004.383-.015.585-.033.586-.018.001-.042-.2-.072-.582l-.105-1.673-.31-6.154-.983-20.308c-.377-7.93-.675-15.112-.831-20.314a344.49 344.49 0 0 1-.145-6.162l-.007-1.676c.004-.382.015-.584.033-.585z"/><path d="M151.257 412.789c-1.611-1.344-1.244-4.079.18-5.62s3.533-2.204 5.529-2.85c9.572-3.1 19.194-7.483 25.509-15.317.872-1.082 1.694-2.241 2.829-3.043 1.135-.802 2.692-1.184 3.926-.543 1.935 1.005 2.007 3.809 1.195 5.832a11.2 11.2 0 0 1-5.278 5.761M191.669 329.579l5.589 32.438-4.354-5.749z" style="opacity:.2"/><path style="fill:#e8505b" d="m244.854 414.79-9.452 32.416 40.27 11.966c.908-3.917-17.631-17.831-17.631-17.831l6.908-20.521-20.095-6.03z"/><g style="opacity:.6"><path style="fill:#fff" d="M246.107 435.896c-.843-.018-1.642.698-1.695 1.539-.053.841.668 1.66 1.51 1.693.842.033 1.828-.797 1.786-1.639-.041-.842-.941-1.757-1.767-1.587"/></g><g style="opacity:.6"><path style="fill:#fff" d="m235.402 447.206 1.081-3.23 38.206 12.68s1.561 1.313.983 2.515l-40.27-11.965z"/></g><path style="fill:#263238" d="M258.754 441.33c-.065.195-1.075-.008-2.23.337-1.165.315-1.916 1.018-2.074.886-.17-.092.473-1.181 1.879-1.573 1.402-.406 2.521.182 2.425.35zM262.459 444.332c-.012.204-.963.285-1.878.919-.934.606-1.37 1.455-1.563 1.389-.194-.024.012-1.216 1.165-1.982 1.146-.776 2.327-.515 2.276-.326zM263.356 450.1c-.191-.011-.173-1.075.652-2.002.819-.933 1.872-1.082 1.907-.894.063.195-.706.595-1.372 1.367-.683.755-.986 1.568-1.187 1.529zM259.81 436.479c-.136.155-.957-.385-2.091-.639-1.129-.278-2.105-.162-2.157-.361-.072-.176.989-.653 2.32-.334 1.333.308 2.07 1.208 1.928 1.334zM260.27 431.416c-.022.082-.835-.027-2.014-.61a9.47 9.47 0 0 1-1.917-1.275 9.869 9.869 0 0 1-.976-.959c-.15-.174-.334-.36-.468-.655-.157-.27-.126-.828.221-1.073.298-.248.702-.273.995-.194.3.078.522.21.725.329a7.441 7.441 0 0 1 2.623 2.576c.677 1.143.778 1.972.699 1.99-.108.038-.38-.712-1.119-1.709a8.398 8.398 0 0 0-1.498-1.548 7.882 7.882 0 0 0-1.052-.701c-.393-.239-.755-.35-.921-.192-.061.061-.075.088-.023.239.058.143.197.307.345.479a11.223 11.223 0 0 0 2.612 2.253c1.06.665 1.803.944 1.768 1.05z"/><path style="fill:#263238" d="M259.931 431.621c-.079.01-.26-.811.047-2.106a6.823 6.823 0 0 1 1.809-3.198c.354-.328.8-.775 1.589-.636.403.103.642.513.675.813.052.312.009.554-.013.801a4.828 4.828 0 0 1-1.882 3.186c-1.097.81-1.987.801-1.984.729-.036-.118.762-.294 1.662-1.118.443-.406.901-.98 1.201-1.706a4.34 4.34 0 0 0 .309-1.176c.064-.447.006-.84-.167-.844-.199-.063-.635.159-.902.451-.314.3-.588.62-.824.945a7.553 7.553 0 0 0-.989 1.897c-.407 1.166-.415 1.964-.531 1.962z"/><g><path style="fill:#263238" d="M286.198 366.521c1.02 7.479-1.54 15.913-4.245 22.96l-17.662 41.525-19.546-3.001s-4.079 4.536-9.286 6.272c-2.33.777-9.998 2.284-16.307-2.258 0 0-8.93 12.439-22.981 16.203s-35.324 5.836-45.623-10.601l49.025-47.244c1.012.242 42.229-27.554 64.493-33.882-.001-.001 20.257-3.726 22.132 10.026z"/></g><g><path style="fill:#455a64" d="M243.287 427.84c-.004-.008.086-.062.265-.16l.8-.424c.704-.372 1.749-.906 3.07-1.637 1.319-.732 2.924-1.652 4.674-2.882 1.744-1.227 3.644-2.794 5.293-4.907 1.674-2.09 2.937-4.825 3.432-7.936.514-3.105.345-6.533-.418-9.991-.761-3.427-2.355-7.007-5.395-9.389-3.014-2.379-6.979-3.616-11.039-3.929a34.226 34.226 0 0 0-6.052.05 45.39 45.39 0 0 0-5.803 1.019c-3.759.93-7.272 2.247-10.549 3.65-6.537 2.853-12.208 5.937-17.189 8.064-4.96 2.178-9.179 3.464-12.15 4.056a28.26 28.26 0 0 1-1.98.36c-.574.1-1.064.161-1.461.195l-.902.087c-.203.017-.308.021-.309.012-.001-.009.102-.031.303-.065l.894-.138c.394-.052.88-.128 1.449-.244.571-.105 1.23-.224 1.963-.405 2.945-.651 7.121-1.981 12.045-4.195 4.947-2.163 10.589-5.276 17.148-8.168 3.287-1.421 6.82-2.758 10.617-3.704 1.9-.46 3.862-.823 5.874-1.039a34.551 34.551 0 0 1 6.149-.054c4.13.319 8.194 1.58 11.313 4.049a14.24 14.24 0 0 1 3.676 4.469c.896 1.678 1.474 3.456 1.868 5.214.762 3.518.919 6.998.376 10.168-.522 3.173-1.842 5.977-3.568 8.092-1.701 2.14-3.643 3.704-5.417 4.919-1.781 1.217-3.407 2.115-4.744 2.822a77.317 77.317 0 0 1-3.12 1.552l-.824.378c-.188.081-.285.119-.289.111z"/></g><g><path style="fill:#455a64" d="M255.549 373.354c.12.079-1.714 3.072-4.096 6.684-2.383 3.613-4.411 6.477-4.531 6.398-.12-.079 1.714-3.071 4.097-6.684 2.381-3.612 4.41-6.477 4.53-6.398z"/></g><g><path style="fill:#455a64" d="M241.453 424.541c.014.079-1.358.37-3.552.916a96.739 96.739 0 0 0-8.46 2.514 96.682 96.682 0 0 0-8.183 3.31c-2.056.942-3.31 1.569-3.348 1.499-.017-.032.276-.225.823-.549a40.966 40.966 0 0 1 2.365-1.282c2.023-1.032 4.895-2.321 8.171-3.47 3.276-1.144 6.324-1.927 8.55-2.382a41.628 41.628 0 0 1 2.648-.473c.629-.087.98-.118.986-.083z"/></g><g><path style="fill:#455a64" d="M263.943 428.284c-.09.03-.325-.887-1.154-2.108-.807-1.211-2.33-2.704-4.458-3.4-2.131-.687-4.242-.372-5.606.135-1.388.502-2.117 1.106-2.172 1.029-.02-.025.139-.201.473-.465.334-.266.859-.601 1.564-.907 1.386-.618 3.621-1.022 5.901-.287 2.276.744 3.848 2.383 4.607 3.697.39.661.619 1.241.733 1.652.118.411.143.646.112.654z"/></g><g><path style="fill:#455a64" d="M179.365 412.789c.032-.007.134.323.254.935.114.612.225 1.512.225 2.631.001 2.216-.49 5.4-2.306 8.35-1.8 2.968-4.568 4.768-6.697 5.443a9.424 9.424 0 0 1-2.602.499c-.625.029-.969-.018-.969-.046-.012-.113 1.397-.03 3.447-.801 2.031-.744 4.643-2.514 6.376-5.369 1.75-2.841 2.289-5.918 2.381-8.086.091-2.191-.204-3.542-.109-3.556z"/></g><g><path style="fill:#455a64" d="M157.307 435.22c-.111.089-.627-.364-1.115-1.044-.489-.678-.749-1.322-.622-1.396.122-.072.566.428 1.046 1.093.476.666.804 1.256.691 1.347zM161.425 439.567c-.094.109-.658-.273-1.258-.854-.6-.58-1.001-1.13-.896-1.228.105-.098.668.284 1.258.854.589.57.99 1.119.896 1.228zM166.279 443.078c-.071.125-.697-.142-1.399-.598-.702-.456-1.202-.92-1.116-1.035.085-.115.712.152 1.399.599.687.445 1.186.909 1.116 1.034zM171.777 445.443c-.039.138-.71.02-1.498-.264-.789-.285-1.38-.623-1.322-.754.059-.131.729-.013 1.499.264.768.278 1.359.616 1.321.754zM177.688 446.37c-.002.144-.681.199-1.516.124-.835-.076-1.492-.254-1.468-.395.024-.142.702-.197 1.516-.123.812.073 1.47.251 1.468.394zM183.671 446.045c.018.143-.646.305-1.483.361a6.12 6.12 0 0 1-1.123-.012l.021-.001c-.246-.02-.396-.066-.402-.132-.006-.066.13-.142.363-.213l.021-.001c.268-.072.66-.132 1.098-.162.814-.054 1.488.017 1.505.16zM189.565 444.981c.035.139-.596.394-1.41.568-.814.174-1.494.2-1.519.059-.025-.142.606-.396 1.41-.568.804-.172 1.484-.199 1.519-.059zM195.296 443.235c.05.135-.55.459-1.339.723-.79.264-1.463.367-1.504.229-.041-.138.558-.461 1.339-.723.78-.262 1.454-.364 1.504-.229zM200.812 440.894c.063.129-.499.513-1.257.858-.758.345-1.417.517-1.472.384-.055-.133.507-.517 1.257-.858.749-.342 1.408-.513 1.472-.384zM206.066 438.01c.076.122-.445.56-1.164.978-.719.418-1.358.654-1.426.528-.069-.126.453-.564 1.165-.978.711-.414 1.35-.65 1.425-.528zM211.02 434.632c.087.115-.391.601-1.067 1.086-.676.485-1.29.782-1.37.662-.081-.119.397-.605 1.067-1.086.67-.48 1.283-.777 1.37-.662zM215.638 430.813c.097.106-.334.634-.963 1.178-.629.545-1.213.896-1.304.785-.091-.111.34-.639.963-1.178.623-.541 1.208-.892 1.304-.785zM220.003 426.695c.095.108-.315.653-.916 1.218-.6.565-1.173.938-1.271.841-.106-.106.306-.648.914-1.22.608-.572 1.178-.947 1.273-.839zM224.743 423.008c.079.12-.397.609-1.064 1.092-.667.483-1.28.783-1.369.67-.089-.113.387-.602 1.064-1.092.677-.49 1.29-.79 1.369-.67zM230 420.108c.056.132-.495.535-1.231.9-.737.365-1.391.558-1.462.433-.071-.125.48-.528 1.231-.9.751-.372 1.405-.565 1.462-.433zM235.72 418.327c.025.142-.599.418-1.392.617-.794.198-1.474.248-1.518.111-.044-.137.579-.413 1.393-.617.812-.203 1.492-.252 1.517-.111zM241.697 418.024c-.015.144-.686.193-1.503.18-.817-.015-1.486-.089-1.496-.234-.009-.142.664-.302 1.505-.287.842.013 1.509.199 1.494.341zM247.478 419.54c-.066.128-.705-.063-1.473-.332-.767-.273-1.385-.539-1.35-.681.033-.138.726-.094 1.524.19.8.28 1.366.696 1.299.823zM246.214 423.891c-.092-.116.357-.609.889-1.208.535-.596.964-1.102 1.091-1.027.123.069-.128.733-.702 1.374-.57.64-1.193.971-1.278.861zM240.917 426.641c-.045-.137.531-.501 1.285-.812.755-.311 1.421-.46 1.487-.332.066.128-.509.492-1.285.812-.776.32-1.442.469-1.487.332zM235.203 428.475c-.048-.135.551-.46 1.339-.724.788-.265 1.462-.368 1.504-.23.043.137-.557.462-1.339.724-.782.263-1.456.366-1.504.23zM229.595 430.614c-.054-.133.528-.488 1.301-.792.773-.304 1.441-.442 1.492-.308.051.134-.531.489-1.301.792-.77.304-1.438.442-1.492.308zM224.065 432.949c-.058-.132.513-.505 1.275-.833.763-.329 1.426-.488 1.482-.355.056.132-.515.506-1.275.833-.76.328-1.424.487-1.482.355z"/></g><g><path style="fill:#455a64" d="M212.891 261.474s6.54-1.965 15.227-11.658c8.687-9.693 12.196-21.969 13.345-21.995 1.15-.027 5.978-2.72 17.027 17.262 11.049 19.982 7.66 25.065 5.765 25.167-1.896.102-15.013-2.524-22.972-1.015-7.959 1.509-17.965 6.46-17.965 6.46l-10.427-14.221z"/><path style="fill:#263238" d="m199.604 273.802 2.589 4.144 1.16 1.857a5.645 5.645 0 0 0 7.523 1.947l13.882-6.025-9.709-18.331-13.674 8.647a5.644 5.644 0 0 0-1.771 7.761z"/><path style="fill:#263238" d="m208.334 280.096 5.204 8.563 2.224-.8 15.728 10.961 3.541-8.422s-9.045-3.124-10.899-6.129c-1.853-3.005-.033-3.853-.033-3.853l-4.474-4.381-11.291 4.061zM257.75 245.516c5.895 10.831 8.745 20.662 6.365 21.957-2.38 1.295-9.088-6.435-14.983-17.266-5.895-10.831-8.745-20.661-6.365-21.957 2.379-1.295 9.087 6.435 14.983 17.266z"/><path style="fill:#455a64" d="m198.844 280.125 3.773-1.501-2.729-4.367-2.763 2.016zM221.16 277.537l-9.888 7.393-1.484-2.441z"/><path style="fill:#455a64" d="m199.888 274.257 2.729 4.367-.775.309-2.284-4.435zM202.628 275.108c.066.121 1.938-.772 4.181-1.994 2.245-1.222 4.01-2.31 3.944-2.431-.065-.12-1.937.772-4.181 1.994-2.244 1.222-4.009 2.31-3.944 2.431zM201.239 272.489c.07.119 1.76-.746 3.774-1.932 2.016-1.186 3.592-2.243 3.522-2.361-.07-.118-1.759.747-3.774 1.932-2.015 1.186-3.592 2.243-3.522 2.361z"/><g><path style="fill:#455a64" d="M204.337 277.835c.025.064.476-.076 1.192-.356.357-.14.78-.315 1.247-.517.463-.208.939-.495 1.451-.774 2.04-1.138 3.582-2.219 3.521-2.328-.072-.13-1.74.766-3.762 1.893-.507.277-.975.575-1.42.801-.447.221-.848.425-1.182.604-.667.358-1.071.613-1.047.677z"/></g><g><path style="fill:#455a64" d="M247.245 243.791s5.513-4.013 9.255 3.559c3.742 7.573-2.243 9.309-2.243 9.309-2.775-3.673-5.125-7.945-7.012-12.868z"/></g><g><path style="fill:#263238" d="M240.406 234.943c-.033.008.088.532.337 1.475.254.941.615 2.306 1.112 3.979l1.001 2.673.562 1.488.295.778c.106.26.238.514.359.776l1.556 3.272.41.858c.135.29.314.559.471.843l.991 1.707.993 1.706c.169.277.314.566.499.827l.543.781 2.073 2.973c.168.235.323.474.497.696l.531.643 1.016 1.228 1.829 2.195c1.205 1.257 2.21 2.244 2.901 2.93.695.682 1.091 1.048 1.116 1.024.025-.024-.324-.435-.976-1.158l-2.786-3.039-1.768-2.218-.988-1.232-.517-.643c-.169-.221-.32-.462-.485-.697l-2.035-2.969-.535-.778c-.183-.26-.326-.547-.493-.823l-.984-1.696-.986-1.694c-.157-.281-.336-.548-.471-.835l-.411-.85-1.572-3.237c-.123-.259-.257-.509-.366-.766l-.303-.769-.582-1.47-1.052-2.637-1.258-3.917c-.305-.925-.49-1.433-.524-1.424z"/></g><g><path style="fill:#ffbe9d" d="M225.543 280.439a1.701 1.701 0 0 1 1.171 2.051c-.43 1.7-1.133 4.371-1.698 6.003-.182.526-.381 1.063-.749 1.481-.368.418-.944.699-1.484.565-.57-.141-.956-.708-1.06-1.286-.104-.578.017-1.171.145-1.745.352-1.584.997-3.966 1.559-5.909a1.7 1.7 0 0 1 2.116-1.16z"/><path style="fill:#ffbe9d" d="M228.25 283.202a1.702 1.702 0 0 1 1.171 2.051c-.43 1.7-1.132 4.37-1.698 6.003-.182.526-.381 1.063-.749 1.481-.368.418-.944.699-1.484.565-.57-.141-.956-.708-1.06-1.286-.104-.578.017-1.171.145-1.745.352-1.584.997-3.967 1.559-5.909a1.7 1.7 0 0 1 2.116-1.16z"/><path style="fill:#ffbe9d" d="M230.864 284.859a1.474 1.474 0 0 1 1.014 1.776c-.372 1.472-.981 3.784-1.47 5.198-.158.456-.33.92-.649 1.283-.318.362-.817.605-1.285.489-.494-.122-.827-.613-.918-1.114-.09-.501.015-1.014.126-1.511.305-1.372.863-3.435 1.35-5.117a1.474 1.474 0 0 1 1.832-1.004z"/><path style="fill:#ffbe9d" d="M233.831 285.194a1.481 1.481 0 0 1 1.019 1.784c-.374 1.479-.985 3.802-1.477 5.223-.158.458-.332.925-.652 1.289-.32.364-.821.608-1.292.491-.496-.123-.831-.616-.922-1.119-.091-.503.015-1.019.126-1.518.307-1.378.867-3.451 1.356-5.141a1.482 1.482 0 0 1 1.842-1.009z"/><path style="fill:#eb996e" d="M224.597 290.005c-.137-.043.193-1.476.737-3.199.544-1.724 1.097-3.086 1.234-3.043.137.043-.193 1.476-.737 3.2-.544 1.723-1.097 3.085-1.234 3.042zM230.23 292.275c-.137-.054.295-1.455.806-3.181.515-1.725.919-3.135 1.063-3.105.138.027-.041 1.503-.564 3.254-.518 1.75-1.175 3.084-1.305 3.032zM227.441 291.91c-.137-.054.295-1.455.806-3.181.515-1.725.919-3.135 1.063-3.105.138.027-.041 1.503-.564 3.254-.518 1.75-1.175 3.084-1.305 3.032z"/></g><g><path style="fill:#263238" d="M278.246 207.345c.114.087-3.986 5.656-9.157 12.436-5.173 6.783-9.458 12.209-9.572 12.122-.114-.087 3.985-5.655 9.158-12.437 5.171-6.781 9.457-12.208 9.571-12.121zM305.081 223.216c.061.13-8.562 4.261-19.257 9.225-10.699 4.966-19.418 8.884-19.478 8.753-.061-.13 8.56-4.26 19.259-9.226 10.694-4.964 19.416-8.883 19.476-8.752zM301.083 256.24c-.014.143-6.16-.332-13.725-1.062-7.568-.73-13.69-1.438-13.677-1.581.014-.143 6.158.332 13.727 1.062 7.565.73 13.689 1.438 13.675 1.581z"/></g></g><g><path style="fill:#ffbe9d" d="m143.416 274.762 6.79 38.603c1.173 6.668 7.505 11.216 14.309 10.279 7.078-.975 11.954-7.497 10.801-14.444l-1.104-6.644s9.498-2.575 8.507-12.113c-.478-4.598-2.242-13.978-3.94-22.461-1.901-9.493-11.109-15.786-20.805-14.229-9.993 1.716-16.577 11.218-14.558 21.009z"/><path style="fill:#eb996e" d="M174.226 302.577s-6.054 1.181-13.017-2.103c0 0 3.779 6.517 13.327 4.568l-.31-2.465z"/><path style="fill:#263238" d="M176.715 274.418c.11.715-.415 1.397-1.171 1.523-.755.126-1.457-.35-1.566-1.065-.109-.715.415-1.397 1.17-1.524.755-.127 1.457.351 1.567 1.066zM177.03 272.111c-.15.197-1.285-.448-2.771-.276-1.486.151-2.489 1.027-2.671.866-.088-.07.049-.41.484-.804.428-.392 1.187-.812 2.113-.913.926-.1 1.744.148 2.231.441.497.294.689.597.614.686zM162.736 276.103c.109.715-.415 1.396-1.171 1.523-.755.126-1.457-.35-1.566-1.065-.109-.715.415-1.397 1.17-1.524.756-.126 1.458.351 1.567 1.066zM162.674 274.036c-.151.197-1.287-.447-2.771-.275-1.486.151-2.489 1.027-2.671.866-.088-.07.047-.41.484-.804.428-.392 1.186-.812 2.112-.913.926-.099 1.744.148 2.232.441.496.293.689.596.614.685z"/><g><path style="fill:#263238" d="M169.332 285.16c-.017-.082.889-.344 2.363-.702.375-.081.725-.197.76-.459.058-.28-.148-.665-.382-1.079l-1.454-2.719c-2.031-3.876-3.547-7.08-3.388-7.159.159-.079 1.934 2.998 3.965 6.874l1.409 2.741c.193.408.496.862.368 1.445-.07.291-.324.525-.56.617-.235.101-.448.129-.634.161-1.498.25-2.431.363-2.447.28z"/></g><g><path style="fill:#263238" d="M165.077 286.667c.24-.041.428 1.547 1.94 2.518 1.51.975 3.209.603 3.247.823.034.097-.347.352-1.07.453a4.091 4.091 0 0 1-2.7-.597c-.923-.596-1.392-1.478-1.523-2.124-.139-.656-.005-1.07.106-1.073z"/></g><g><path style="fill:#263238" d="M162.389 269.137c-.1.414-1.606.394-3.325.798-1.728.37-3.075 1.032-3.348.701-.123-.159.078-.561.602-1.011.519-.448 1.375-.916 2.408-1.149 1.034-.231 2.011-.176 2.675.007.671.181 1.029.458.988.654z"/></g><g><path style="fill:#263238" d="M176.208 268.816c-.222.362-1.286.133-2.519.256-1.237.08-2.247.48-2.527.16-.125-.157 0-.508.419-.875.412-.364 1.133-.705 1.982-.776.849-.069 1.617.149 2.085.441.474.293.657.619.56.794z"/></g><g><path style="fill:#263238" d="M178.829 251.678c-1.281-.969-3.328-.923-4.389.276.874-1.234.362-3.084-.849-4.001-1.211-.917-2.899-1.021-4.375-.635-1.476.386-2.792 1.202-4.082 2.007.148-.58-.185-1.202-.678-1.552-.492-.351-1.112-.477-1.716-.538-2.488-.251-4.997.471-7.21 1.619-2.213 1.148-4.729 2.975-6.672 4.525l.008.002c-2.027 1.574-4.054 3.705-6.097 6.522l-.076.068c-1.414 1.262-2.603 5.056-2.388 6.924.787 6.86 3.061 10.834 4.341 17.335.085.431.182.887.49 1.206.794.823 2.214.126 2.961-.737 1.819-2.1 2.451-4.968 2.54-7.726.089-2.758-.302-5.514-.241-8.273l.004-.195c.016-.673.077-1.394.202-2.108.12-.445 1.288-4.386 5.079-5.031 4.019-.685 11.95 3.218 15.881 2.596 3.931-.622 4.133-3.394 4.133-3.394l2.311 4.7s.876-2.758.372-5.871c.96-.948 1.704-2.119 1.95-3.429.294-1.566-.218-3.321-1.499-4.29z"/></g><g><path style="fill:#ffbe9d" d="M147.193 278.864c-.173-.052-6.87-1.184-5.899 5.303.97 6.487 7.383 4.19 7.366 4.002-.016-.188-1.467-9.305-1.467-9.305z"/><path style="fill:#eb996e" d="M146.281 286.003c-.032-.017-.103.096-.284.212a1.176 1.176 0 0 1-.855.142c-.733-.151-1.482-1.154-1.689-2.318a3.717 3.717 0 0 1 .079-1.665c.13-.504.392-.881.733-.993.337-.13.616.04.723.211.115.169.093.304.129.31.021.013.125-.129.032-.389a.73.73 0 0 0-.32-.369.887.887 0 0 0-.659-.073c-.503.108-.891.635-1.048 1.18a3.819 3.819 0 0 0-.127 1.866c.238 1.301 1.1 2.426 2.093 2.559.481.052.847-.142 1.024-.324.18-.19.193-.34.169-.349z"/></g></g><g><path style="fill:#fafafa" d="M132.397 325.852s.183-.103.57-.091c.382.007.964.203 1.478.735.527.509.92 1.416.864 2.459-.021 1.045-.415 2.164-.761 3.365-.335 1.185-.57 2.628.226 3.851.712 1.236 2.163 2.189 2.757 3.916.569 1.665.097 3.808-1.452 5.025a4.714 4.714 0 0 1-2.701 1.049c-1.009.045-1.965-.239-2.893-.47-.924-.233-1.857-.42-2.692-.172-.841.23-1.464.905-1.992 1.622-.539.715-1.013 1.507-1.706 2.132-.676.638-1.63.999-2.526.927-1.805-.124-3.255-1.297-3.991-2.649-.742-1.366-.934-2.811-1.017-4.079-.075-1.279-.032-2.428-.058-3.43-.021-1.003-.092-1.862-.22-2.553-.25-1.387-.658-2.078-.607-2.1.012-.007.126.156.286.497.162.339.363.862.52 1.562.162.699.264 1.572.313 2.583.054 1.012.037 2.161.134 3.414.103 1.244.317 2.631 1.027 3.895.681 1.231 2.053 2.291 3.635 2.38.787.051 1.566-.248 2.169-.816.617-.559 1.079-1.326 1.631-2.068.536-.734 1.241-1.531 2.256-1.815 1.003-.293 2.03-.067 2.963.164.941.237 1.854.498 2.741.458a4.216 4.216 0 0 0 2.406-.929c1.378-1.069 1.813-2.978 1.316-4.48-.491-1.528-1.894-2.5-2.672-3.843a3.972 3.972 0 0 1-.57-2.168c.017-.724.182-1.39.361-2.004.377-1.222.777-2.291.824-3.277.076-.984-.251-1.805-.722-2.309-.457-.516-.983-.728-1.339-.768-.358-.044-.553.015-.558-.013z"/></g><g><path style="fill:#fafafa" d="M135.153 395.841c.03-.009.063.238.298.617.233.371.734.859 1.554 1.079a3.11 3.11 0 0 0 2.853-.602c.937-.738 1.609-2.014 1.913-3.494.319-1.492.264-3.194.549-5.023.151-.914.424-1.856.923-2.733.488-.871 1.279-1.673 2.297-2.057 1.009-.413 2.139-.416 3.213-.294 1.084.119 2.154.362 3.243.502 1.088.153 2.192.158 3.262-.156a7.389 7.389 0 0 0 2.924-1.624c.84-.77 1.475-1.735 1.797-2.789a5.31 5.31 0 0 0-.059-3.189c-.651-2.024-2.395-3.659-4.346-3.867-1.962-.223-3.804.747-5.692.786-.947.039-1.867-.207-2.639-.594-.78-.383-1.449-.867-2.072-1.329-1.228-.939-2.353-1.772-3.503-2.141-1.143-.405-2.222-.224-2.954.194-.745.403-1.137.98-1.282 1.394-.149.42-.129.668-.159.666 0 0-.063-.246.059-.699.119-.446.507-1.083 1.281-1.537.383-.225.853-.41 1.395-.48.546-.067 1.143.004 1.747.185 1.22.362 2.398 1.208 3.633 2.121 1.227.884 2.696 1.892 4.477 1.789.879-.03 1.781-.276 2.726-.502.941-.222 1.961-.461 3.036-.329 2.178.228 4.062 1.998 4.776 4.185a5.807 5.807 0 0 1 .07 3.495c-.35 1.154-1.04 2.198-1.942 3.025a7.884 7.884 0 0 1-3.135 1.739c-1.146.337-2.359.325-3.469.164-1.119-.148-2.186-.395-3.232-.513-1.04-.124-2.08-.117-2.98.246-.911.338-1.614 1.036-2.078 1.841-.469.807-.74 1.699-.893 2.575-.297 1.765-.264 3.487-.615 5.027-.34 1.536-1.068 2.872-2.094 3.646a3.321 3.321 0 0 1-3.089.567c-.862-.265-1.372-.812-1.587-1.22-.215-.417-.206-.671-.206-.671z"/></g><g><path style="fill:#fafafa" d="M169.12 335.254s.16-.379.694-.934c.53-.538 1.493-1.262 2.959-1.503 1.435-.264 3.433.246 4.782 1.904.682.803 1.11 1.921 1.205 3.093.147 1.148.1 2.439.758 3.48.324.514.856.88 1.462 1.084.611.207 1.289.272 1.984.308.697.036 1.419.033 2.163.109.734.079 1.541.245 2.191.77.331.248.574.601.763.975.165.391.233.824.199 1.248-.079.853-.503 1.621-1.04 2.26a6.343 6.343 0 0 1-1.99 1.571c-.755.384-1.544.693-2.31 1.047-.765.351-1.516.752-2.133 1.313-.62.556-1.044 1.3-1.248 2.129-.411 1.685-.032 3.5-.123 5.408-.079.95-.281 1.918-.76 2.796-.457.873-1.322 1.647-2.381 1.787-1.058.173-2.101-.303-2.865-.947-.782-.651-1.398-1.462-1.911-2.328-.5-.853-.968-1.706-1.545-2.456-.57-.747-1.275-1.388-2.128-1.657-.851-.287-1.778-.164-2.619.168-.85.326-1.64.821-2.434 1.3-.795.479-1.592.976-2.486 1.295a7.55 7.55 0 0 1-2.746.454c-1.849-.026-3.609-.703-5.008-1.757-1.401-1.053-2.419-2.582-2.744-4.231-.332-1.617-.019-3.446 1.194-4.565.588-.557 1.332-.876 2.056-1.065.728-.193 1.452-.279 2.148-.373 1.385-.171 2.724-.436 3.683-1.247.963-.798 1.53-1.912 1.962-2.966.423-1.068.71-2.131 1.075-3.098.356-.968.789-1.85 1.35-2.552.566-.696 1.18-1.225 1.747-1.68 1.145-.889 2.205-1.404 2.99-1.449.803-.079 1.118.34 1.106.309-.014.055-.336-.316-1.096-.207-.745.075-1.765.604-2.873 1.503-.547.458-1.146.997-1.678 1.675-.527.683-.934 1.541-1.272 2.499-.347.957-.618 2.02-1.04 3.12-.43 1.082-1.001 2.252-2.034 3.128-1.041.895-2.483 1.181-3.864 1.362-1.37.203-2.902.351-3.963 1.355-1.062.984-1.358 2.648-1.04 4.159.309 1.526 1.262 2.952 2.586 3.94 1.321.987 2.991 1.624 4.726 1.641a7.081 7.081 0 0 0 2.562-.43c.827-.295 1.605-.779 2.396-1.258.793-.479 1.599-.991 2.515-1.345.9-.359 1.978-.514 2.963-.18.994.314 1.78 1.046 2.381 1.833.61.794 1.086 1.666 1.581 2.51.488.826 1.078 1.596 1.792 2.19.706.593 1.59.978 2.458.836.874-.117 1.588-.739 2.007-1.522.432-.784.628-1.693.703-2.585.099-1.791-.294-3.662.149-5.49.221-.906.712-1.76 1.401-2.37.683-.615 1.481-1.032 2.263-1.388.785-.358 1.569-.661 2.298-1.029a5.894 5.894 0 0 0 1.852-1.447c.501-.586.877-1.284.946-2.003a2.233 2.233 0 0 0-.158-1.033c-.157-.308-.357-.61-.634-.817-.537-.444-1.258-.611-1.964-.69-.712-.078-1.43-.081-2.14-.123-.708-.042-1.419-.113-2.089-.345-.665-.228-1.282-.659-1.644-1.248-.729-1.199-.637-2.521-.778-3.644-.084-1.149-.466-2.167-1.102-2.947-1.26-1.589-3.143-2.108-4.527-1.886a5.36 5.36 0 0 0-2.915 1.378c-.548.518-.743.876-.768.858z"/></g><g><path style="fill:#fafafa" d="M152.289 318.372c.042.025-.632.718-2.074 1.019-.71.145-1.59.197-2.545.019-.932-.195-2.021-.608-2.73-1.567-.678-.951-.895-2.029-.983-2.977a8.076 8.076 0 0 1 .179-2.527c.321-1.434 1.036-2.098 1.063-2.048.075.052-.49.745-.702 2.121a8.714 8.714 0 0 0-.063 2.407c.104.892.339 1.898.924 2.713.589.806 1.552 1.204 2.41 1.408a6.934 6.934 0 0 0 2.384.088c1.372-.19 2.087-.74 2.137-.656z"/></g><g><path style="fill:#fafafa" d="M195.342 315.818c.017.007-.007.1-.071.277a2.835 2.835 0 0 1-.392.717c-.405.578-1.224 1.323-2.486 1.658a4.51 4.51 0 0 1-2.112.047c-.769-.161-1.476-.64-2.127-1.136-.659-.488-1.323-1.067-2.108-1.29-.781-.24-1.642.099-2.131.843-.519.727-.812 1.621-1.231 2.435a4.928 4.928 0 0 1-1.766 2.014c-1.458.958-3.193.985-4.378.477a4.788 4.788 0 0 1-2.295-1.917c-.372-.611-.433-1.01-.411-1.015.045-.019.172.353.579.902a4.87 4.87 0 0 0 2.258 1.686c1.11.425 2.67.357 3.983-.533a4.496 4.496 0 0 0 1.574-1.843c.397-.777.678-1.68 1.265-2.511.294-.408.693-.785 1.186-.971a2.372 2.372 0 0 1 1.503-.058c.953.29 1.614.914 2.263 1.401.644.506 1.262.938 1.937 1.098.672.167 1.34.144 1.923.015 1.177-.265 1.982-.914 2.413-1.426.44-.521.578-.891.624-.87z"/></g><g><path style="fill:#fafafa" d="M202.468 355.08c-.02.027-.423-.217-1.11-.724a23.028 23.028 0 0 1-2.729-2.372 12.78 12.78 0 0 1-1.586-1.959 6.704 6.704 0 0 1-.996-2.751c-.129-1.026-.038-2.177.508-3.211a4.187 4.187 0 0 1 1.13-1.348c.466-.37.981-.65 1.477-.94.493-.29.967-.583 1.331-.96.369-.37.62-.828.766-1.319.29-.991.215-2.044.099-3.023-.124-.989-.264-1.956-.206-2.88.067-.9.294-1.833.928-2.391 1.208-1.051 2.505-1.343 3.37-1.353.91-.006 1.273.466 1.237.465-.025.044-.389-.329-1.232-.262-.8.061-2.053.421-3.117 1.413-.522.479-.706 1.299-.755 2.152-.037.865.111 1.797.25 2.795.129 1.001.231 2.106-.086 3.23a3.606 3.606 0 0 1-.885 1.536c-.423.438-.937.751-1.439 1.048-1.018.567-1.952 1.14-2.419 2.078-.489.909-.59 1.96-.481 2.913.198 1.96 1.38 3.412 2.374 4.515 2.066 2.197 3.637 3.27 3.571 3.348z"/></g><g><path style="fill:#fafafa" d="M181.556 374.92c.001-.018.161-.028.468-.031.306.003.758.015 1.338.077 1.149.129 2.86.398 4.736 1.381 1.845.952 3.858 2.869 4.483 5.674.304 1.372.178 2.978-.623 4.331-.777 1.336-2.113 2.459-3.76 2.81-.816.172-1.69.07-2.427-.133-.745-.191-1.444-.301-2.084-.037-.639.241-1.179.715-1.615 1.245-.441.53-.775 1.133-1.115 1.729-.649 1.185-1.431 2.392-2.605 2.977a4.913 4.913 0 0 1-3.434.406 4.336 4.336 0 0 1-2.388-1.557 4.805 4.805 0 0 1-.918-1.943 3.998 3.998 0 0 1-.074-1.35c.038-.307.09-.461.104-.459.064.001-.123.655.167 1.761.15.545.431 1.195.946 1.807a4.078 4.078 0 0 0 2.249 1.383 4.563 4.563 0 0 0 3.145-.429c1.045-.54 1.748-1.632 2.39-2.831.646-1.17 1.432-2.592 2.969-3.217.768-.324 1.655-.18 2.383.011.746.199 1.464.274 2.204.127 1.467-.31 2.705-1.333 3.422-2.556.736-1.231.863-2.685.594-3.976-.558-2.629-2.429-4.492-4.19-5.449-1.789-.991-3.458-1.315-4.586-1.503-1.138-.18-1.781-.203-1.779-.248z"/></g><g><path style="fill:#fafafa" d="M162.834 407.95c-.105.023-.092-.935-.938-2.062a4.983 4.983 0 0 0-1.869-1.51c-.817-.391-1.847-.568-2.847-.312-.994.28-1.798.948-2.309 1.696a4.994 4.994 0 0 0-.862 2.243c-.168 1.399.323 2.221.22 2.254-.025.014-.166-.169-.327-.552-.164-.381-.299-.985-.26-1.736.035-.749.283-1.639.831-2.479.538-.836 1.428-1.61 2.572-1.931 1.149-.295 2.308-.071 3.192.383.894.453 1.555 1.099 1.96 1.729.409.63.595 1.221.644 1.633.052.415.021.644-.007.644z"/></g><g><path style="fill:#fafafa" d="M166.04 422.501c-.05.01-.093-.47-.45-1.228a5.262 5.262 0 0 0-2.397-2.462c-1.286-.673-3.259-.704-4.876.368-.821.512-1.383 1.373-2.019 2.279-.327.446-.668.915-1.143 1.301-.461.394-1.092.659-1.743.647-1.336-.059-2.292-.973-3-1.803-.708-.85-1.309-1.715-2.118-2.214-.796-.509-1.753-.597-2.591-.466a5.133 5.133 0 0 0-2.189.911c-1.202.875-1.864 1.944-2.308 2.651-.434.725-.645 1.148-.682 1.13-.029-.013.119-.463.505-1.229.398-.747 1.02-1.877 2.265-2.848a5.427 5.427 0 0 1 2.337-1.042c.909-.163 1.989-.089 2.915.483.928.563 1.563 1.479 2.256 2.293.672.794 1.57 1.579 2.62 1.612 1.07.031 1.852-.863 2.464-1.725.619-.869 1.251-1.824 2.169-2.382 1.789-1.152 3.934-1.066 5.307-.295a5.258 5.258 0 0 1 2.416 2.709c.162.404.221.738.257.961.02.228.023.347.005.349z"/></g><g><path style="fill:#fafafa" d="M173.71 386.22c-.06.094-.98-.797-2.876-1.267a8.966 8.966 0 0 0-3.365-.181c-1.256.159-2.631.605-3.798 1.478-1.181.856-1.974 2.065-2.4 3.25a7.2 7.2 0 0 0-.363 3.317c.272 1.931 1.17 2.884 1.062 2.941-.02.017-.249-.197-.561-.665-.321-.461-.673-1.22-.865-2.219-.184-.996-.151-2.247.273-3.531.428-1.274 1.271-2.588 2.544-3.512 1.257-.939 2.725-1.395 4.051-1.536a8.803 8.803 0 0 1 3.519.302c.968.294 1.694.691 2.141 1.031.45.338.657.572.638.592z"/></g></g></svg>