<svg xmlns="http://www.w3.org/2000/svg" xml:space="preserve" x="0" y="0" version="1.1" viewBox="0 0 750 500"><path d="M444.409 437.227a1023.35 1023.35 0 0 0-119.979-.885l-1.826.765c16.812 10.192 38.041 7.485 57.528 10.085 11.744 1.567 23.184 5.166 34.993 6.121 11.81.955 24.644-1.184 33.155-9.426.901-.872 1.798-1.941 1.767-3.194-.059-2.435-3.208-3.305-5.638-3.466zm215.022 11.378c-3.752-2.18-8.255-2.529-12.584-2.826l-23.738-1.633c-6.479-.446-13.116-.876-19.354.93-6.238 1.806-12.101 6.333-13.63 12.644l-.042.207c11.25 2.309 22.551 4.624 34.02 5.223 11.469.599 23.202-.582 33.786-5.038 2.227-.937 4.707-2.464 4.809-4.878.085-1.986-1.548-3.631-3.267-4.629zm-457.435-12.726c-3.752-2.179-8.255-2.528-12.584-2.826l-23.738-1.634c-6.479-.446-13.116-.876-19.354.93-6.238 1.806-12.1 6.333-13.63 12.644l-.042.206c11.25 2.309 22.551 4.624 34.02 5.223 11.469.599 23.202-.582 33.786-5.038 2.227-.937 4.707-2.464 4.809-4.878.085-1.984-1.549-3.628-3.267-4.627z" fill="#f5f5f5"/><path d="m81.766 204.465-8.508 2.609s2.191 7.144-5.194 9.549c-3.835 1.249-6.609-.663-8.014-2.349-1.632-1.957-2.132-4.606-1.507-7.076.713-2.822 3.212-5.954 9.256-6.703l-5.884-19.183-8.413 2.58 3.446 11.237s-10.863 6.669-6.875 19.672c3.816 12.441 15.859 11.909 20.635 10.444 3.652-1.121 15.822-5.82 11.058-20.78zM60.73 177.357l-8.537 2.619L49.747 172l8.538-2.618zm192.251 171.199-4.798 1.471s1.236 4.028-2.929 5.384c-2.163.704-3.727-.374-4.519-1.325-.92-1.104-1.202-2.597-.85-3.991.402-1.591 1.811-3.358 5.22-3.78l-3.318-10.818-4.744 1.455 1.944 6.337s-6.126 3.761-3.877 11.093c2.152 7.016 8.943 6.715 11.636 5.89 2.058-.63 8.921-3.28 6.235-11.716zm-11.849-15.284-4.815 1.477-1.379-4.496 4.815-1.477zM645.729 54.106l5.012-.252s-.212-4.208 4.158-4.504c2.269-.153 3.522 1.275 4.058 2.391.622 1.296.53 2.812-.153 4.077-.779 1.444-2.578 2.812-5.986 2.387l.569 11.301 4.956-.25-.333-6.62s6.86-2.147 6.475-9.807c-.369-7.329-7.027-8.7-9.841-8.559-2.152.109-9.455.998-8.915 9.836zm7.761 17.714 5.03-.254.237 4.697-5.03.254zM227.685 57.619l5.012-.252s-.212-4.208 4.158-4.504c2.269-.153 3.522 1.275 4.058 2.391.622 1.296.53 2.812-.152 4.077-.779 1.444-2.578 2.812-5.986 2.387l.569 11.301 4.956-.25-.333-6.62s6.86-2.147 6.475-9.807c-.369-7.329-7.027-8.7-9.84-8.559-2.154.109-9.456.999-8.917 9.836zm7.761 17.728 5.03-.253.236 4.697-5.03.253z" fill="#e0e0e0"/><path d="m711.783 137.277-7.57 4.679s3.928 6.356-2.607 10.552c-3.394 2.179-6.561 1.031-8.348-.243-2.075-1.48-3.229-3.916-3.25-6.464-.024-2.91 1.6-6.574 7.257-8.828l-10.549-17.068-7.485 4.626 6.179 9.998s-8.821 9.202-1.67 20.771c6.842 11.07 18.357 7.505 22.607 4.879 3.249-2.009 13.833-9.636 5.436-22.902zm-27.166-20.917-7.597 4.695-4.385-7.095 7.597-4.695z" fill="#ebebeb"/><path d="m250.234 204.937 5.439 3.999s3.357-4.567 8.163-1.159c2.496 1.77 2.587 4.324 2.197 5.942-.453 1.88-1.839 3.382-3.626 4.12-2.041.843-5.079.739-8.269-2.602l-9.016 12.263 5.378 3.954 5.281-7.183s8.976 3.596 15.087-4.716c5.847-7.953.073-15.044-2.979-17.288-2.335-1.718-10.703-7-17.655 2.67zm-7.001 25.084 5.457 4.013-3.748 5.097-5.457-4.012zm296.065-164.66 5.439 3.999s3.357-4.567 8.163-1.159c2.496 1.77 2.587 4.324 2.196 5.942-.453 1.879-1.839 3.382-3.626 4.12-2.041.843-5.079.739-8.269-2.602l-9.016 12.263 5.378 3.954 5.281-7.183s8.976 3.596 15.087-4.716c5.847-7.953.073-15.044-2.979-17.288-2.334-1.717-10.702-7-17.654 2.67zm-6.997 25.097 5.458 4.012-3.748 5.098-5.458-4.013z" fill="#fafafa"/><path d="M707.539 424.913c0 .144-150.481.26-336.066.26-185.649 0-336.098-.117-336.098-.26 0-.144 150.449-.26 336.098-.26 185.585-.001 336.066.116 336.066.26z" fill="#263238"/><path d="M276.914 275.87v28.299h-64.17v120.768h-31.089V145.936h110.804v28.299h-79.715V275.87h64.17zm45.93 92.87-10.761 56.199h-28.697l53.409-279.002h45.04l53.408 279.002h-31.089l-10.761-56.199h-70.549zm3.986-26.705h62.178L357.52 181.012l-30.69 161.023zm249.765-128.739v144.283c0 17.139-3.587 32.285-10.762 43.445 3.188 6.775 8.37 8.769 17.139 8.769h3.986v27.501h-5.182c-17.537 0-29.097-6.377-35.474-17.936-8.769 5.182-20.327 8.37-33.879 8.37-42.647 0-63.771-27.9-63.771-70.149V213.296c0-42.647 21.124-70.149 63.771-70.149 43.047 0 64.172 27.502 64.172 70.149zm-97.252-1.594v147.472c0 25.509 10.761 40.256 33.081 40.256 22.719 0 33.082-14.747 33.082-40.256V211.702c0-25.11-10.363-40.256-33.082-40.256-22.32 0-33.081 15.146-33.081 40.256z" fill="#ff725e"/><path d="M276.914 275.87v28.299h-64.17v120.768h-31.089V145.936h110.804v28.299h-79.715V275.87h64.17zm45.93 92.87-10.761 56.199h-28.697l53.409-279.002h45.04l53.408 279.002h-31.089l-10.761-56.199h-70.549zm3.986-26.705h62.178L357.52 181.012l-30.69 161.023zm249.765-128.739v144.283c0 17.139-3.587 32.285-10.762 43.445 3.188 6.775 8.37 8.769 17.139 8.769h3.986v27.501h-5.182c-17.537 0-29.097-6.377-35.474-17.936-8.769 5.182-20.327 8.37-33.879 8.37-42.647 0-63.771-27.9-63.771-70.149V213.296c0-42.647 21.124-70.149 63.771-70.149 43.047 0 64.172 27.502 64.172 70.149zm-97.252-1.594v147.472c0 25.509 10.761 40.256 33.081 40.256 22.719 0 33.082-14.747 33.082-40.256V211.702c0-25.11-10.363-40.256-33.082-40.256-22.32 0-33.081 15.146-33.081 40.256z" opacity=".3"/><path d="m303.529 368.74-10.761 56.199H264.07l53.409-279.002h45.039l53.41 279.002h-31.089l-10.762-56.199h-70.548zm3.986-26.705h62.178l-31.487-161.024-30.691 161.024zm-43.187-66.002v28.299h-64.17V425.1h-31.089V146.098h110.804v28.299h-79.715v101.636h64.17zm292.951-63.003v144.283c0 17.139-3.587 32.285-10.762 43.445 3.189 6.775 8.37 8.769 17.139 8.769h3.986v27.501h-5.182c-17.537 0-29.097-6.377-35.474-17.936-8.768 5.182-20.327 8.37-33.879 8.37-42.647 0-63.771-27.9-63.771-70.149V213.03c0-42.647 21.124-70.149 63.771-70.149 43.047-.001 64.172 27.501 64.172 70.149zm-97.251-1.595v147.472c0 25.509 10.761 40.256 33.081 40.256 22.719 0 33.082-14.747 33.082-40.256V211.435c0-25.11-10.363-40.256-33.082-40.256-22.321 0-33.081 15.146-33.081 40.256z" fill="#ff725e"/><path d="M453.784 115.284H299.092c-8.759 0-15.859-7.1-15.859-15.859 0-8.758 7.1-15.859 15.859-15.859h154.692c8.758 0 15.859 7.1 15.859 15.859-.001 8.758-7.101 15.859-15.859 15.859z" fill="#f5f5f5"/><path d="M299.092 83.566c-8.758 0-15.859 7.1-15.859 15.859s7.1 15.859 15.859 15.859h27.305V83.566h-27.305z" fill="#ff725e"/><path d="M302.696 105.687a7.012 7.012 0 0 1-7.003-7.003 7.01 7.01 0 0 1 7.003-7.003 7.01 7.01 0 0 1 7.003 7.003c.001 3.862-3.141 7.003-7.003 7.003zm0-13.256a6.26 6.26 0 0 0-6.253 6.253 6.26 6.26 0 0 0 6.253 6.253 6.26 6.26 0 0 0 6.253-6.253 6.26 6.26 0 0 0-6.253-6.253z" fill="#fff"/><path d="m307.938 102.7.464-.59 5.383 4.249-.465.589z" fill="#fff"/><path d="M453.784 115.284s.357-.036 1.053-.08a8.08 8.08 0 0 0 1.287-.152l.825-.132.927-.243a15.23 15.23 0 0 0 4.552-2.057 15.525 15.525 0 0 0 4.718-4.872c.715-1.073 1.226-2.343 1.688-3.687.383-1.372.659-2.852.674-4.417-.008-1.559-.19-3.193-.686-4.816a16.16 16.16 0 0 0-2.374-4.678c-2.134-2.933-5.537-5.328-9.606-6.116-2.021-.432-4.174-.264-6.376-.293l-6.771.009-144.592.076c-3.465.04-6.925 1.158-9.605 3.317-2.695 2.113-4.686 5.101-5.495 8.389-.872 3.273-.569 6.79.68 9.87 1.303 3.059 3.538 5.71 6.366 7.374 1.402.838 2.918 1.498 4.508 1.836 1.59.365 3.189.455 4.834.42l9.705.003 18.79.009 65.005.056 43.824.083 11.915.049 3.099.026c.697.008 1.055.026 1.055.026s-.358.018-1.056.027l-3.099.026-11.915.049-43.824.083-65.005.056a856008.018 856008.018 0 0 1-28.495.012c-1.62.037-3.322-.053-4.949-.429-1.641-.349-3.209-1.029-4.657-1.893-2.921-1.718-5.231-4.452-6.577-7.613-1.293-3.183-1.606-6.814-.707-10.196.836-3.398 2.892-6.486 5.676-8.67 2.769-2.23 6.347-3.39 9.926-3.429l144.592.076 6.771.009c2.187.036 4.362-.129 6.441.319 4.153.818 7.614 3.273 9.776 6.268a16.406 16.406 0 0 1 2.397 4.771c.498 1.653.676 3.314.676 4.898-.022 1.589-.309 3.09-.706 4.48-.476 1.362-1.001 2.646-1.732 3.728a15.639 15.639 0 0 1-4.805 4.894 15.194 15.194 0 0 1-4.61 2.029l-.935.232-.832.12a7.697 7.697 0 0 1-1.296.127c-.698.026-1.055.026-1.055.026z" fill="#263238"/><path d="M123.776 63.91H66.122v55.87h19.782l9.967 11.101 8.228-11.101h19.677z" fill="#fff"/><path d="M123.776 63.91s.014.332.022.997l.022 2.953.051 11.283.101 40.638v.195h-.196l-19.677.019.172-.087-8.221 11.107-.163.22-.183-.204-9.97-11.098.17.076-14.505.002h-5.508v-.231l.033-55.87v-.198l.198.001 41.884.101 11.675.051 3.061.023c.69.007 1.034.022 1.034.022s-.374.015-1.078.022l-3.099.023-11.72.052-41.758.101.198-.198.033 55.87-.23-.23h5.277l14.505.002h.102l.068.076 9.962 11.105-.346.016 8.235-11.096.065-.087h.108l19.677.019-.195.195.101-40.514.051-11.327.022-2.99c.008-.679.022-1.039.022-1.039z" fill="#263238"/><path d="M85.472 84.853h5.124s0-4.302 4.471-4.379c2.322-.04 3.526 1.481 4.015 2.646.568 1.353.396 2.895-.365 4.15-.869 1.433-2.774 2.735-6.227 2.127v11.553h5.067v-6.768s7.106-1.837 7.106-9.668c0-7.493-6.719-9.233-9.595-9.233-2.201 0-9.693.532-9.596 9.572zm7.004 18.476h5.142v4.802h-5.142z" fill="#ff725e"/><path d="M636.738 249.497c9.168 4.749 16.199 12.926 21.254 21.929 5.055 9.003 8.313 18.882 11.541 28.69l2.824 50.583c-10.668-18.149-19.231-39.484-21.544-60.408l7.099-.632c-4.76-.726-8.755-4.175-11.297-8.265-2.542-4.089-3.851-8.805-5.128-13.448l8.661 1.288c-6.782-4.526-11.7-11.764-13.41-19.737z" fill="#455a64"/><path d="M636.738 249.497c9.168 4.749 16.199 12.926 21.254 21.929 5.055 9.003 8.313 18.882 11.541 28.69l2.824 50.583c-10.668-18.149-19.231-39.484-21.544-60.408l7.099-.632c-4.76-.726-8.755-4.175-11.297-8.265-2.542-4.089-3.851-8.805-5.128-13.448l8.661 1.288c-6.782-4.526-11.7-11.764-13.41-19.737z" opacity=".3"/><path d="M673.936 362.552s23.155-27.715 22.888-54.172h-9.354s10.16-6.681 9.356-10.423c-.804-3.741-1.071-17.905-1.071-17.905l-8.552 2.138s6.414-3.207 7.216-8.285c.802-5.078-1.871-28.595-1.871-28.595s-10.423 10.957-13.63 22.181c-3.207 11.224-11.625 24.319-9.153 58.527s4.171 36.534 4.171 36.534zm-11.739 2.616s-25.086-16.712-30.66-38.041l7.52-2.046s-9.63-3.149-9.802-6.333-3.056-14.63-3.056-14.63l7.343-.152s-5.858-1.175-7.614-5.082c-1.755-3.907-4.752-23.399-4.752-23.399s10.777 6.529 15.811 14.851c5.034 8.322 14.667 17.009 20.164 45.051 5.496 28.043 5.046 29.781 5.046 29.781z" fill="#455a64"/><path d="M686.222 269.474c.009.002-.003.103-.036.298l-.155.863-.647 3.306a291.92 291.92 0 0 0-1.019 5.232c-.387 2.041-.844 4.363-1.292 6.939-.949 5.143-1.96 11.289-3.012 18.122a714.468 714.468 0 0 0-2.974 22.296 713.34 713.34 0 0 0-2.192 22.392c-.534 6.895-.952 13.109-1.202 18.333-.152 2.611-.236 4.975-.325 7.051a305.07 305.07 0 0 0-.201 5.326l-.125 3.366-.046.875c-.013.197-.024.298-.033.298-.009 0-.016-.101-.02-.299l-.006-.876.027-3.37c.011-1.463.044-3.253.113-5.331.062-2.078.12-4.444.248-7.058.203-5.23.583-11.451 1.091-18.353.542-6.9 1.245-14.477 2.153-22.414a636.089 636.089 0 0 1 3.017-22.309c1.08-6.835 2.129-12.979 3.124-18.117.472-2.574.954-4.892 1.368-6.929.407-2.038.783-3.789 1.106-5.216l.743-3.287.206-.852c.051-.191.081-.288.089-.286z" fill="#263238"/><path d="M677.148 379.524s21.19-24.043 27.769-38.577l-4.967-2.122c3.6.594 7.289-.953 10.081-3.303s4.842-5.441 6.852-8.486l-6.543-1.105c5.95-1.67 11.192-5.73 14.296-11.074-7.721 1.27-14.706 5.511-20.463 10.811-4.662 4.293-8.609 9.276-12.4 14.367a49.07 49.07 0 0 0-4.816 7.917c-3.56 7.362-9.821 22.742-9.809 31.572z" fill="#455a64"/><path d="M631.204 289.479c.008-.004.056.071.141.223l.368.677 1.37 2.628c1.188 2.284 2.844 5.62 4.831 9.771 3.98 8.299 9.169 19.92 14.241 33.021 5.063 13.11 9.041 25.2 11.68 34.018 1.322 4.409 2.341 7.991 2.999 10.479l.754 2.866.183.749c.039.169.054.257.045.26-.009.002-.041-.081-.097-.246l-.233-.735-.848-2.839c-.717-2.47-1.79-6.035-3.156-10.427a544.27 544.27 0 0 0-11.813-33.938 543.563 543.563 0 0 0-14.089-33.052 601.793 601.793 0 0 0-4.68-9.838l-1.283-2.671-.322-.701c-.067-.157-.099-.241-.091-.245zm44.146 100.347c-.036-.004.01-.624.125-1.743.105-1.12.331-2.733.678-4.714.688-3.962 2.005-9.389 4.171-15.143 2.178-5.752 4.776-10.696 6.879-14.124 1.049-1.716 1.945-3.076 2.607-3.986.654-.915 1.029-1.41 1.058-1.39.029.021-.289.555-.89 1.502-.608.942-1.454 2.328-2.459 4.061a97.253 97.253 0 0 0-6.709 14.12 97.219 97.219 0 0 0-4.296 15.028 104.723 104.723 0 0 0-.839 4.673c-.175 1.109-.289 1.72-.325 1.716z" fill="#263238"/><path d="M647.39 384.171h46.377v9.46H647.39zm41.958 9.46-5.017 31.821h-28.024l-4.675-31.821z" fill="#ff725e"/><path d="M650.235 393.631c0-.144 8.773-.26 19.593-.26 10.823 0 19.595.117 19.595.26 0 .144-8.771.26-19.595.26-10.82.001-19.593-.116-19.593-.26z" fill="#263238"/><path d="M77.673 342.998c10.534-10.782 27.039-15.311 41.601-11.418-12.649 8.481-26.864 13.026-42.093 13.151m14.602-51.7c-1.733-12.259 3.031-26.049 12.209-34.96.303 12.15-4.826 25.822-12.209 34.96m-7.34 23.158c6.541-12.503 17.277-22.763 30.064-28.731-3.832 14.115-15.904 25.662-30.176 28.861m-1.408 4.338c7.404.208 14.897-.053 22.058-1.947 7.161-1.895 14.019-5.536 18.784-11.208-14.404.016-28.774 4.403-40.731 12.434m3.648-13.996c-3.758-14.086-9.959-23.83-21.031-31.724-.838 6.854.847 13.987 4.662 19.742 3.815 5.755 9.73 10.084 16.369 11.982m-27.949 24.292c-.194-8.185 5.082-16.229 12.667-19.312-.616 7.274-6.33 15.688-12.667 19.312m-3.538-11.877c-.841-11.767-9.202-22.653-20.353-26.502 2.557 11.772 9.363 21.571 20.353 26.502m5.331 21.077c-2.611-3.735-6.872-6.058-11.281-7.212-4.409-1.153-9.015-1.256-13.572-1.351 6.147 6.763 15.376 10.607 24.506 10.207m5.639 28.38c-8.214-2.535-17.369-1.88-25.137 1.8-7.769 3.68-14.075 10.349-17.316 18.311 15.421-2.927 30.639-9.776 42.453-20.111m16.925-10.435c-2.562 7.573-2.07 16.725 3.625 23.252 2.317-7.77.948-16.555-3.625-23.252m10.003-4.206c.713 9.737 6.938 18.882 15.735 23.116.437.21.942.412 1.391.229.694-.283.757-1.23.672-1.974-1.116-9.702-8.303-19.085-17.798-21.371m6.535-.984c4.332 4.681 10.649 7.461 17.027 7.493 6.378.033 12.723-2.683 17.102-7.319-10.849-1.187-23.366-1.978-34.129-.174" fill="#455a64"/><path d="M100.905 267.107c.007.003-.027.11-.099.318l-.331.917-1.309 3.513c-.584 1.519-1.257 3.393-2.037 5.57l-1.257 3.483-1.355 3.924c-1.922 5.493-4.056 12.087-6.36 19.428a788.603 788.603 0 0 0-6.976 24.039 729.55 729.55 0 0 0-6.09 24.284c-1.691 7.507-3.145 14.283-4.195 20.007l-.77 4.079-.62 3.65c-.393 2.278-.729 4.241-.956 5.852l-.569 3.704-.158.962c-.038.216-.061.327-.068.326-.007-.001.002-.113.026-.332l.118-.968.492-3.717c.202-1.616.515-3.583.886-5.866l.589-3.658.741-4.087c1.014-5.735 2.439-12.522 4.111-20.039a677.001 677.001 0 0 1 6.063-24.308 726.463 726.463 0 0 1 7.011-24.044c2.326-7.339 4.489-13.927 6.448-19.411l1.383-3.916 1.287-3.474c.801-2.17 1.497-4.036 2.104-5.547l1.382-3.486.369-.903c.087-.201.133-.303.14-.3z" fill="#263238"/><path d="M41.318 298.138c.005-.005.069.055.187.176l.519.546c.453.482 1.11 1.204 1.929 2.158a76.013 76.013 0 0 1 6.387 8.516c2.439 3.775 4.938 8.583 6.679 14.288 1.79 5.688 2.9 12.153 4.006 18.91 2.206 13.527 4.912 25.642 6.872 34.406l2.35 10.374.625 2.824.153.737c.032.166.045.253.038.254-.007.002-.034-.081-.08-.245l-.193-.727-.701-2.806-2.478-10.345c-2.033-8.748-4.787-20.863-6.995-34.403-1.106-6.759-2.202-13.203-3.962-18.865-1.71-5.677-4.164-10.463-6.561-14.244-2.396-3.79-4.666-6.636-6.263-8.569a117.624 117.624 0 0 0-1.868-2.206l-.488-.573c-.109-.132-.162-.202-.156-.206zm61.204 55.232c.001.014-.134.039-.391.072l-1.123.124-.812.08-.959.144c-.688.102-1.474.203-2.329.393l-1.347.268-1.443.365c-1.004.227-2.042.594-3.147.928-2.181.765-4.529 1.748-6.869 3.027a38.795 38.795 0 0 0-6.159 4.278c-.856.775-1.68 1.499-2.363 2.268-.731.724-1.322 1.476-1.87 2.157-.577.659-.978 1.344-1.384 1.908a14.142 14.142 0 0 0-.948 1.508l-.575.972c-.136.22-.213.333-.226.327-.013-.006.04-.132.152-.365l.509-1.013c.219-.442.498-.977.894-1.555.391-.58.78-1.283 1.347-1.961.538-.7 1.123-1.47 1.851-2.213.68-.788 1.504-1.531 2.363-2.322a37.505 37.505 0 0 1 6.209-4.353c2.365-1.293 4.742-2.275 6.949-3.026 1.119-.327 2.169-.685 3.184-.899l1.459-.345 1.361-.243c.864-.173 1.658-.254 2.353-.335l.968-.111.818-.044 1.132-.047c.259-.005.395-.001.396.013zm3.09-54.973c.019.022-.261.289-.782.753l-2.232 1.937a691.309 691.309 0 0 1-7.468 6.271 673.517 673.517 0 0 1-7.547 6.178l-2.317 1.835c-.553.426-.867.651-.885.629-.018-.022.262-.29.784-.755l2.233-1.937a679.935 679.935 0 0 1 7.466-6.269 691.013 691.013 0 0 1 7.543-6.175l2.317-1.836c.554-.427.869-.652.888-.631zm2.667 14.351c.033.11-5.664 1.89-12.721 3.975-7.06 2.086-12.807 3.687-12.84 3.577-.032-.11 5.663-1.889 12.722-3.975 7.057-2.085 12.806-3.687 12.839-3.577zm-21.033-5.713c-.025.015-.233-.278-.588-.818l-1.502-2.288a134.244 134.244 0 0 0-5.219-7.354 142.589 142.589 0 0 0-5.719-6.976l-1.803-2.058c-.425-.487-.651-.766-.63-.786.021-.02.286.221.748.675a59.756 59.756 0 0 1 1.904 1.973 96.177 96.177 0 0 1 5.831 6.92 92.472 92.472 0 0 1 5.137 7.448 57.67 57.67 0 0 1 1.393 2.362c.311.567.473.887.448.902zM67.464 315c.05.035-.486.86-1.336 2.198a127.896 127.896 0 0 0-3.202 5.298 127.251 127.251 0 0 0-2.919 5.46c-.715 1.415-1.15 2.296-1.206 2.272-.049-.022.292-.945.942-2.398a66.411 66.411 0 0 1 2.823-5.539 66.424 66.424 0 0 1 3.319-5.256c.915-1.302 1.536-2.067 1.579-2.035z" fill="#263238"/><path d="M60.696 339.824c-.03.056-1.116-.475-2.895-1.275a90.116 90.116 0 0 0-7.068-2.831 90.186 90.186 0 0 0-7.292-2.195c-1.89-.484-3.07-.746-3.058-.808.005-.028.307.005.848.089.542.081 1.32.228 2.278.435a63.25 63.25 0 0 1 7.361 2.089 63.508 63.508 0 0 1 7.056 2.957c.877.435 1.577.806 2.051 1.081.477.27.733.432.719.458zm5.329 29.677c.003.014-.118.055-.351.119l-1.025.261-3.789.874c-3.194.742-7.642 1.67-12.373 3.266-4.732 1.611-8.791 3.659-11.544 5.423a43.98 43.98 0 0 0-3.18 2.214c-.728.556-1.125.873-1.147.848-.009-.011.078-.103.255-.269.179-.163.435-.414.791-.704.697-.601 1.753-1.418 3.122-2.334 2.732-1.841 6.807-3.949 11.569-5.57 4.769-1.608 9.235-2.49 12.447-3.16l3.816-.746c.901-.168 1.402-.25 1.409-.222zm19.267 7.315c-.113.017-.792-3.979-1.515-8.923-.723-4.946-1.218-8.967-1.104-8.984.113-.017.791 3.978 1.515 8.924.723 4.944 1.217 8.967 1.104 8.983zm20.06-7.283c-.048.035-.723-.798-1.808-2.147a302.85 302.85 0 0 0-4.284-5.23 308.273 308.273 0 0 0-4.415-5.122c-1.142-1.301-1.847-2.109-1.803-2.15.021-.02.224.156.575.492.351.335.845.833 1.445 1.46 1.2 1.252 2.813 3.026 4.516 5.053a108.725 108.725 0 0 1 4.199 5.318c.514.699.92 1.271 1.189 1.675.27.403.409.634.386.651z" fill="#263238"/><path d="M52.265 388.137v9.912h2.478l8.811 27.809h19.538l8.536-27.533 3.304-.276v-9.912z" fill="#ff725e"/><path d="M93.28 398.325c0 .115-8.627.207-19.267.207-10.644 0-19.269-.093-19.269-.207 0-.115 8.625-.207 19.269-.207 10.639-.001 19.267.092 19.267.207zm14.052-63.758c.006.028-.441.147-1.252.338l-3.43.827c-2.89.716-6.859 1.803-11.165 3.248a146.335 146.335 0 0 0-10.86 4.159l-3.232 1.414c-.762.338-1.189.513-1.202.487-.013-.026.391-.25 1.132-.633.74-.386 1.827-.913 3.183-1.536a112.892 112.892 0 0 1 22.076-7.425 74.277 74.277 0 0 1 3.464-.699c.824-.142 1.281-.208 1.286-.18z" fill="#263238"/><path d="M86.793 413.767c0 .115-6.053.207-13.518.207-7.467 0-13.519-.093-13.519-.207s6.052-.207 13.519-.207c7.465 0 13.518.093 13.518.207zm.76-2.299c0 .115-6.415.207-14.326.207-7.914 0-14.327-.093-14.327-.207 0-.115 6.413-.207 14.327-.207 7.912 0 14.326.093 14.326.207z" fill="#fafafa"/><path d="m613.688 435.126.436-11.052 19.261-.725-.293 13.525-7.003 4.225z" fill="#b36b60"/><path d="m633.512 434.358-.007 1.267s21.385 8.828 21.575 12.903l-42.625-.627.788-14.176c6.294 3.029 12.922 3.457 20.269.633z" fill="#455a64"/><path d="M617.492 438.324c-.828.213-1.412 1.133-1.233 1.969.179.837 1.109 1.438 1.941 1.239.832-.199 1.566-1.281 1.295-2.092-.271-.811-1.402-1.458-2.162-1.065m-4.879 9.526.189-3.41 40.785 1.849s1.885.853 1.651 2.187l-42.625-.626z" fill="#fff" opacity=".6"/><path d="M633.652 435.746c-.01.208-1.052.287-2.086.941-1.051.627-1.592 1.521-1.783 1.435-.191-.043.138-1.283 1.403-2.053 1.26-.78 2.515-.513 2.466-.323zm4.444 1.915c.045.202-.862.543-1.582 1.413-.745.849-.938 1.798-1.145 1.786-.196.03-.322-1.191.594-2.256.906-1.073 2.132-1.142 2.133-.943zm2.461 5.388c-.19.042-.464-1.003.087-2.134.543-1.136 1.531-1.572 1.617-1.397.115.173-.526.775-.964 1.711-.461.926-.533 1.803-.74 1.82z" fill="#263238"/><path d="m587.929 410.453.305 33.074 15.249-1.097 3.346-32.223z" fill="#b36b60"/><path d="M604.004 435.938s-10.719 7.443-15.929 1.03l-1.352 3.115-6.057 22.189c-.392 1.436.303 3.017 1.725 3.556a3.007 3.007 0 0 0 3.122-.588c4.407-4.1 20.542-19.262 20.38-21.313l-.074-5.445c-.016-1.129-.734-2.136-1.815-2.544z" fill="#455a64"/><path d="m582.918 465.978 22.979-23.945-.002 1.189c.118 1.289-.459 1.8-1.086 2.627-1.857 2.451-7.004 7.936-19.208 19.393a3.005 3.005 0 0 1-2.683.736zm19.598-27.48c-.723.485-.961 1.548-.494 2.272.468.723 1.576.969 2.308.496.732-.472 1.058-1.741.51-2.408-.548-.668-1.865-.887-2.459-.257" fill="#fff" opacity=".6"/><path d="M589.531 453.726c-.163.077-.81-1.394-2.523-2.188-1.688-.844-3.281-.451-3.317-.624-.025-.069.341-.286 1.015-.378.669-.095 1.643-.001 2.583.45.937.454 1.606 1.151 1.934 1.726.335.576.379.991.308 1.014zm-2.061 3.755c-.138.121-1.061-.793-2.55-1.212-1.481-.451-2.768-.184-2.814-.359-.083-.143 1.306-.736 2.996-.232 1.696.487 2.518 1.727 2.368 1.803zm5.892-8.566c-.135.133-1.548-1.28-3.806-2.129-2.245-.883-4.268-.791-4.273-.979-.047-.15 2.096-.536 4.506.405 2.419.917 3.713 2.624 3.573 2.703zm.497-6.752c-.078.168-1.668-.483-3.74-.56-2.071-.104-3.715.405-3.777.231-.079-.138 1.579-.954 3.805-.847 2.227.088 3.804 1.046 3.712 1.176z" fill="#263238"/><path d="M588.939 441.545c-.036-.006-.03-.389.16-1.051a7.31 7.31 0 0 1 1.372-2.581c.404-.458.848-1.059 1.708-1.28.428-.113 1.001.064 1.268.49.266.415.285.888.211 1.327-.363 1.747-2.229 3.163-4.3 3.051-2.073-.149-3.698-1.611-4.215-3.268-.102-.424-.132-.926.176-1.352.306-.432.917-.515 1.31-.374.819.274 1.26.842 1.687 1.282a8.196 8.196 0 0 1 1.526 2.493c.244.644.29 1.023.254 1.032-.113.054-.458-1.485-2.113-3.233-.423-.41-.904-.919-1.499-1.082-.29-.082-.566-.013-.715.2-.151.203-.157.56-.063.896.445 1.361 1.934 2.693 3.688 2.792 1.744.112 3.383-1.135 3.689-2.538.069-.339.041-.697-.107-.932a.649.649 0 0 0-.695-.28c-.592.117-1.072.63-1.467 1.058-1.579 1.809-1.754 3.4-1.875 3.35zm49.713-199.681.329 3.644 8.896 15.954s3.98 23.972 1.868 39.948c-2.62 19.82-5.995 48.504-7.19 62.242-.707 8.122-7.88 68.108-7.88 68.108l-21.716-.209s1.145-65.257 1.427-77.524c.221-9.621-.552-51.113-.552-51.113l-.926-55.086 27.31-6.876" fill="#263238"/><path d="m606.891 432.605 6.877-133.641 4.06-51.543-30.651-8.109-1.098 6.366s-11.196 27.62-10.818 35.723c1.059 22.708 3.883 80.957 3.883 80.957l7.045 69.803 20.702.444z" fill="#263238"/><path d="M614.975 251.967c-.018-.001-.046.173-.082.505l-.129 1.455a163.551 163.551 0 0 0-.299 5.363c-.199 4.531-.334 10.794-.437 17.71l-.279 17.709-.128 5.365-.028 1.46c-.001.334.008.51.027.511.018.001.046-.173.082-.505l.13-1.455c.096-1.265.205-3.097.3-5.363.198-4.531.333-10.795.437-17.713l.279-17.706.128-5.365.028-1.46c-.002-.333-.01-.509-.029-.511zm-35.019 12.481c-.011.036.277.145.81.313.266.089.595.185.986.254.39.074.832.186 1.332.224.994.137 2.195.162 3.52.063a19.763 19.763 0 0 0 4.226-.876 19.737 19.737 0 0 0 3.903-1.844c1.118-.718 2.063-1.461 2.774-2.168.376-.332.662-.687.929-.981.271-.291.477-.565.635-.796.325-.455.489-.716.459-.738-.081-.063-.811.933-2.281 2.234-.729.657-1.673 1.349-2.775 2.025a21.229 21.229 0 0 1-3.815 1.756 21.299 21.299 0 0 1-4.102.893c-1.287.123-2.458.139-3.435.052-1.956-.154-3.139-.511-3.166-.411zm56.001-10.323c-.055.026.241.822.977 1.973.731 1.15 1.956 2.623 3.607 3.911 1.656 1.283 3.386 2.105 4.681 2.53 1.298.429 2.142.519 2.153.46.062-.168-3.285-.878-6.504-3.415-3.252-2.492-4.767-5.561-4.914-5.459zm-13.795 118.552c.031.063 1.065-.373 2.679-1.194a73.262 73.262 0 0 0 6.128-3.537 73.255 73.255 0 0 0 5.765-4.103c1.418-1.126 2.244-1.885 2.2-1.94-.049-.061-.958.591-2.429 1.635a154.083 154.083 0 0 1-5.828 3.955 153.718 153.718 0 0 1-6.018 3.656c-1.561.903-2.533 1.458-2.497 1.528z" fill="#455a64"/><path d="m598.97 159.224 24.477-1.914 9.452 6.814-5.912 56.348 7.827 27.621h-43.81l-5.641-50.779z" fill="#fafafa"/><path d="M571.02 252.653c-6.292-4.417-17.034-13.074-18.053-17.962-1.339-6.43 17.681-57.598 21.432-61.885 3.751-4.286 21.459-12.579 21.459-12.579l.991-1.61c1.071-1.74 2.677-5.247 4.72-5.247l.292 2.447.378 5.32c.47 2.76 2.546 15.447 4.875 22.021a57.999 57.999 0 0 1 3.328 18.827c.187 19.845.516 63.117-.1 68.871-.803 7.501-4.141 22.041-4.141 22.041s-26.387-8.692-32.485-22.361c-2.661-5.958-2.696-17.883-2.696-17.883m102.741-29.655s-12.218-34.331-15.999-45.06c-3.318-9.417-10.396-11.648-10.396-11.648l-16.685-6.258c-.669-2.564-3.846-4.716-6.298-5.407l-1.583-.699-1.825 2.4s3.795 3.442 4.331 6.925c.301 1.959 1.424 9.757-.224 14.879a62.047 62.047 0 0 0-2.909 16.384c-.485 11.471-1.011 30.486.447 37.228 2.143 9.912 8.668 57.905 8.668 57.905s14.982-9.939 18.693-14.957c4.441-6.004 2.92-17.388-1.293-28.952-.402-1.104.2 1.126 0 0 .435.194.871.356 1.307.457 8.781 2.021 11.757 4.142 20.67-3.466 8.914-7.606 3.096-19.731 3.096-19.731z" fill="#455a64"/><path d="M595.771 167.891c.018.072-1.189.396-3.1 1.027a59.858 59.858 0 0 0-7.275 2.945 59.857 59.857 0 0 0-6.81 3.905c-1.676 1.113-2.676 1.863-2.722 1.804-.02-.025.208-.24.639-.607a30.68 30.68 0 0 1 1.894-1.469c1.637-1.191 4.01-2.697 6.793-4.054 2.785-1.351 5.434-2.288 7.382-2.84a30.77 30.77 0 0 1 2.325-.583c.557-.113.866-.16.874-.128zm52.801 7.314c-.044.055-.78-.487-1.992-1.319a58.493 58.493 0 0 0-4.879-3.017 58.177 58.177 0 0 0-5.166-2.495c-1.353-.576-2.205-.905-2.183-.972.018-.056.909.163 2.304.664a37.964 37.964 0 0 1 5.27 2.393 38.006 38.006 0 0 1 4.848 3.159c1.172.908 1.835 1.542 1.798 1.587zm-50.659 72.17c.032.002.022.346-.026.969a6.609 6.609 0 0 1-.153 1.128c-.092.435-.161.941-.347 1.471a12.406 12.406 0 0 1-.616 1.727c-.232.621-.583 1.234-.932 1.89a19.377 19.377 0 0 1-2.959 3.806 19.327 19.327 0 0 1-3.87 2.876c-.664.335-1.284.673-1.91.891-.607.263-1.198.433-1.74.579-.534.174-1.041.232-1.478.315-.436.09-.818.119-1.131.129-.625.034-.968.037-.969.005-.01-.103 1.38-.13 3.487-.766.525-.163 1.097-.347 1.684-.62.605-.228 1.204-.572 1.846-.908a20.238 20.238 0 0 0 3.754-2.835 20.203 20.203 0 0 0 2.915-3.691c.349-.635.707-1.226.948-1.826.285-.581.482-1.148.656-1.67.681-2.092.738-3.482.841-3.47zm-20.966-60.939c-.126.027-.788-2.564-1.478-5.787-.69-3.224-1.147-5.858-1.021-5.885.126-.027.788 2.563 1.478 5.787.69 3.223 1.147 5.858 1.021 5.885zm75.829-12.953c.108.101-1.746 1.952-3.29 4.74-1.569 2.776-2.175 5.324-2.318 5.285-.056-.013.022-.666.309-1.689a18.17 18.17 0 0 1 1.601-3.824 18.166 18.166 0 0 1 2.42-3.365c.721-.78 1.238-1.188 1.278-1.147zm14.102 49.731c-.025.02-.36-.33-.943-.978a24.277 24.277 0 0 0-1.08-1.162c-.433-.441-.904-.965-1.477-1.491-1.107-1.092-2.502-2.313-4.115-3.583a53.707 53.707 0 0 0-5.535-3.732 53.56 53.56 0 0 0-5.995-2.941c-1.906-.766-3.659-1.367-5.157-1.783-.742-.235-1.43-.382-2.029-.538a24.763 24.763 0 0 0-1.545-.357c-.852-.182-1.322-.298-1.317-.33.005-.032.485.023 1.35.151.434.059.963.144 1.569.281.607.132 1.306.258 2.059.474 1.52.378 3.299.951 5.232 1.702a49.555 49.555 0 0 1 6.068 2.936 49.638 49.638 0 0 1 5.567 3.797c1.614 1.301 2.997 2.558 4.082 3.688.562.546 1.02 1.088 1.437 1.549.421.458.758.874 1.025 1.22.543.688.83 1.077.804 1.097z" fill="#263238"/><path d="M645.901 190.693c.128-.015.718 4.107 1.317 9.206.599 5.101.981 9.246.852 9.261-.128.015-.718-4.106-1.317-9.207-.598-5.099-.98-9.245-.852-9.26zm2.962 55.123c-.018.027-.415-.208-1.12-.657-.691-.468-1.695-1.147-2.832-2.125-1.133-.975-2.435-2.225-3.592-3.848-1.175-1.608-2.194-3.569-2.958-5.728a32.448 32.448 0 0 1-.965-3.199c-.248-1.062-.379-2.088-.572-3.045-.359-1.911-1.045-3.564-2.073-4.612-.994-1.074-2.08-1.627-2.811-1.999-.759-.325-1.185-.504-1.174-.538.008-.028.454.093 1.247.371.765.327 1.906.845 2.98 1.94 1.11 1.066 1.87 2.81 2.255 4.752.208.971.349 1.999.595 3.023.261 1.027.578 2.089.96 3.148.752 2.126 1.737 4.047 2.868 5.636 1.113 1.602 2.367 2.855 3.459 3.85 1.095.997 2.064 1.713 2.719 2.224.669.494 1.032.78 1.014.807z" fill="#263238"/><path d="M587.019 245.609s-9.747 4.19-6.571 9.335c2.184 3.539 6.697 6.712 6.697 6.712 4.557-2.617 7.761-5.354 9.985-10.405l-10.111-5.642z" fill="#b36b60"/><path d="M571.02 252.653c.024-.037.631.44 1.901 1.046a15.87 15.87 0 0 0 5.824 1.426l-.144.121c.253-1.749 1.08-3.693 2.526-5.418 1.448-1.724 3.417-3.271 5.81-4.411l-.018.009a4.553 4.553 0 0 0 1.417-1.442c.345-.592.691-1.298.582-1.951-.132-.679-.559-1.323-1.062-1.891a11.04 11.04 0 0 0-1.724-1.564l-.025-.019-.017-.02c-.913-1.072-1.801-2.234-2.554-3.511-.743-1.281-1.457-2.569-2.381-3.759-.391-.512-.795-.996-1.208-1.494a26.458 26.458 0 0 1-1.139-1.549 96.882 96.882 0 0 1-2.055-3.115l-.031-.048-.004-.055c-.166-2.269-.292-4.465-.201-6.596l.355-6.037.615-10.066.442-6.67.14-1.792c.036-.408.062-.62.076-.62.014.001.016.215.007.624l-.061 1.796-.305 6.678-.512 10.071-.32 6.038c-.081 2.086.052 4.286.222 6.535l-.035-.103a98.877 98.877 0 0 0 2.049 3.095c.359.514.725 1.033 1.119 1.519.403.486.824.99 1.219 1.507.94 1.209 1.681 2.547 2.408 3.804.738 1.253 1.602 2.389 2.502 3.453l-.042-.038a11.401 11.401 0 0 1 1.798 1.641c.525.603.998 1.288 1.158 2.114a2.4 2.4 0 0 1-.147 1.216 5.434 5.434 0 0 1-.506 1.036c-.414.646-.933 1.183-1.58 1.578l-.002.001-.016.008c-2.316 1.086-4.281 2.599-5.699 4.26-1.424 1.667-2.246 3.535-2.519 5.229l-.021.13-.123-.008c-2.641-.178-4.619-.941-5.885-1.574a10.776 10.776 0 0 1-1.394-.837c-.298-.218-.448-.336-.44-.347z" fill="#263238"/><path d="M576.922 225.487c-.018.077-.638-.057-1.64-.077-1-.024-2.389.127-3.816.663a10.41 10.41 0 0 0-3.298 2.032c-.737.678-1.113 1.189-1.177 1.143-.043-.025.239-.611.945-1.378.698-.767 1.87-1.665 3.365-2.234 1.497-.563 2.969-.667 4-.555 1.038.107 1.637.359 1.621.406zm28.146 37.351c.039.076-.711.157-1.173 1.065-.213.429-.336 1.052-.086 1.613.232.567.915.932 1.639.897.724-.031 1.371-.458 1.55-1.044.198-.581.018-1.191-.233-1.599-.543-.861-1.297-.873-1.266-.952-.001-.021.172-.067.476.009.302.072.721.303 1.063.757.324.446.596 1.149.37 1.918-.213.784-1.061 1.35-1.938 1.378-.876.052-1.772-.433-2.056-1.194-.296-.745-.09-1.47.192-1.944.299-.483.695-.752.989-.851.296-.103.472-.074.473-.053zm1.523-12.976c.039.076-.711.157-1.173 1.064-.213.429-.336 1.052-.086 1.613.232.567.915.932 1.639.897.725-.031 1.371-.458 1.55-1.044.198-.581.018-1.19-.233-1.598-.543-.861-1.297-.873-1.266-.952-.001-.021.172-.067.476.009.301.071.721.303 1.063.757.324.446.596 1.149.37 1.918-.213.784-1.061 1.35-1.939 1.378-.876.052-1.772-.433-2.056-1.194-.296-.745-.09-1.47.192-1.944.299-.483.695-.752.989-.851.297-.104.473-.075.474-.053z" fill="#263238"/><path d="m576.17 224.594.374.219c-2.086-1.554-4.866-2.137-7.401-1.554-2.535.584-4.779 2.324-5.976 4.634-.445.859-.705 2.021-.023 2.706.526.529 1.416.515 2.089.193s1.192-.887 1.735-1.399a14.875 14.875 0 0 1 9.987-4.012m44.852-5.477c.116 1.904 2.401 3.945 4.308 3.985 1.907.04 3.964-.356 5.612.603 2.201 1.281 2.544 4.241 2.904 6.762.837 5.858 3.338 11.82 8.232 15.146.942.64 2.012 1.186 3.15 1.179 1.139-.007 2.337-.717 2.578-1.83 0 0-2.574-2.225-4.09-3.214-3.225-2.105-4.659-6.199-5.756-9.891-.777-2.615-1.279-5.413-2.503-7.85-2.402-4.787-5.946-5.374-14.435-4.89" opacity=".3"/><path d="M623.111 230.027c-.016-.008.072-.244.253-.686l.816-1.92c.388-.818.717-1.881 1.175-3.082.473-1.196.887-2.603 1.376-4.145 1.94-6.177 3.861-14.948 5.055-24.758 1.114-9.818 1.254-18.811.498-25.24-.202-1.604-.327-3.066-.614-4.319-.268-1.255-.389-2.365-.682-3.222l-.556-2.009c-.122-.462-.178-.708-.161-.714.017-.006.106.228.26.68l.652 1.99c.325.855.476 1.963.772 3.221.317 1.257.467 2.721.694 4.332.854 6.455.771 15.491-.347 25.343-1.198 9.843-3.184 18.634-5.221 24.808-.514 1.542-.954 2.944-1.455 4.136-.486 1.196-.844 2.25-1.262 3.06l-.907 1.885c-.211.427-.33.648-.346.64z" fill="#263238"/><path d="M635.724 209.15a14.806 14.806 0 0 1-1.031-5.362c-.005-1.102-.032-2.241-.403-3.279-.371-1.037-1.544-2.009-2.615-1.75l-.386 8.106 4.435 2.285z" fill="#b36b60"/><path d="m632.065 190.506-1.324 27.956a1.205 1.205 0 0 1-1.081 1.143l-14.174 1.473a1.208 1.208 0 0 1-1.332-1.222l.481-27.022a1.205 1.205 0 0 1 1.016-1.17l15.017-2.407a1.207 1.207 0 0 1 1.397 1.249z" fill="#263238"/><path d="M622.22 196.195c.124-.362.435-.83 1.023-.729.223-.009.698.253.778.634.079.374-.061.791-.362 1.027a.96.96 0 0 1-1.075.066c-.323-.203-.488-.636-.364-.998z" fill="#fafafa"/><path d="M625.891 201.588c.326.031 8.132 2.611 8.132 2.611l4.394 3.372s1.721 2.083 1.188 5.841c-.534 3.758-2.132 5.303-6.117 6.986l-8.035.004-4.476-2.623a2.5 2.5 0 0 1-1.208-2.529l.026-.175-.569-.677a1.38 1.38 0 0 1 1.686-2.114l4.986 2.559 3.135-.081.301-1.081-4.873-1.624-6.432-3.526a1.705 1.705 0 0 1 1.442-3.08l5.817 2.285 5.945 1.572-1.226-2.068-7.298-3.8s-.881-2.231 3.182-1.852z" fill="#b36b60"/><path d="M638.417 207.571c-.076.099-2.081-1.311-4.536-3.187l.069.037-.297-.097c-3.073-1.004-5.531-1.917-5.49-2.04.04-.123 2.563.591 5.635 1.595l.297.098.039.013.031.024c2.447 1.886 4.328 3.458 4.252 3.557zm-7.26 10.043c.016.055-.599.336-1.656.649-1.03.296-2.662.632-4.308-.008-.805-.299-1.502-.697-2.134-1.038l-1.672-.934c-.945-.544-1.515-.909-1.485-.966.03-.057.654.204 1.639.674l1.719.846c.646.322 1.338.701 2.095.981 1.511.59 3.023.337 4.068.126 1.055-.228 1.714-.398 1.734-.33z" fill="#83483f"/><path d="M610.089 229.251c-.016.007-.129-.218-.328-.653l-.847-1.913c-.715-1.67-1.72-4.101-2.867-7.142-2.307-6.072-5.186-14.601-7.459-24.263-1.165-4.826-1.938-9.499-2.519-13.76-.226-2.14-.497-4.167-.573-6.081l-.164-2.764-.015-2.555c-.045-1.628.055-3.098.14-4.388l.112-1.797c.061-.55.141-1.05.201-1.501l.305-2.072c.075-.472.123-.719.141-.716.018.003.004.255-.037.731l-.207 2.078-.155 1.499-.068 1.793c-.057 1.286-.131 2.749-.063 4.369l.048 2.542.193 2.75c.093 1.903.381 3.921.618 6.05.605 4.24 1.389 8.892 2.55 13.703 2.266 9.632 5.082 18.159 7.297 24.254 1.1 3.052 2.053 5.5 2.709 7.193l.756 1.95c.168.447.248.686.232.693zm43.053 36.082c.029.021-.194.373-.622.992-.423.623-1.081 1.493-1.931 2.537-1.697 2.091-4.245 4.828-7.395 7.479-3.156 2.646-6.293 4.684-8.645 5.995-1.176.657-2.146 1.155-2.832 1.464-.684.315-1.069.474-1.085.441-.016-.032.339-.252.992-.621a86.68 86.68 0 0 0 2.739-1.602 69.174 69.174 0 0 0 8.495-6.076 69.187 69.187 0 0 0 7.449-7.319 87.878 87.878 0 0 0 2.051-2.422c.477-.578.755-.889.784-.868zm-46.167 23.337c-.012.034-.561-.133-1.545-.464-.986-.324-2.394-.852-4.113-1.554-3.438-1.4-8.089-3.608-12.937-6.554-4.845-2.955-8.942-6.073-11.765-8.484-1.413-1.204-2.528-2.212-3.269-2.939-.746-.722-1.146-1.133-1.122-1.159.025-.026.471.335 1.258 1.009.781.68 1.929 1.643 3.367 2.806a110.441 110.441 0 0 0 11.801 8.323 110.473 110.473 0 0 0 12.81 6.66c1.694.743 3.077 1.321 4.039 1.703.962.388 1.488.619 1.476.653zm20.468-193.75a4.4 4.4 0 0 0 2.108-3.187 4.398 4.398 0 0 0-1.236-3.616c-.729-.727-1.703-1.183-2.382-1.956-.563-.642-.883-1.456-1.319-2.191-1.399-2.357-4.062-3.841-6.795-4.056-2.733-.215-5.491.763-7.659 2.44-.862.666-1.679 1.461-2.727 1.759-1.015.289-2.095.067-3.15.076-2.503.021-4.947 1.459-6.18 3.637-1.233 2.178-1.21 5.013.06 7.171-2.697 1.007-4.439 4.093-3.907 6.922.532 2.829 3.275 5.072 6.154 5.031 1.779-.025 3.446-.809 5.071-1.531a93.947 93.947 0 0 1 20.582-6.435" fill="#263238"/><path d="M598.987 139.095c-3.44-3.805-5.474-8.854-5.632-13.981-.159-5.127.698-11.522 3.895-15.532-2.198-2.411-1.265-5.071.338-7.912s4.433-4.785 7.367-6.212a35.087 35.087 0 0 1 14.036-3.501c3.959-.143 9.231.557 9.751 3.411.542 2.976-1.398 4.296-1.398 4.296s3.921 1.136 7.339 4.449c4.918 4.768 6.818 9.568 6.13 14.904-.688 5.336-1.862 9.489-5.081 12.858" fill="#ff725e"/><path d="M632.529 138.139c.522-.518 1.26-.993 2.006-1.206l-.149-.015c.139-.032.28-.043.421-.054.544-.105 1.077-.057 1.519.251l-.015-.001c.824.341 1.536.984 1.907 1.8.645 1.42.313 3.186-.683 4.387-.865 1.044-2.306 1.693-3.609 1.32-1.197-.342-2.05-1.476-2.344-2.686-.321-1.326-.02-2.836.947-3.796z" fill="#455a64"/><path d="m602.238 161.138-3.165-45.747a3.99 3.99 0 0 1 3.618-4.003l21.234-5.094c6.788-.635 11.195 7.768 11.541 14.577.384 7.565.556 16.816-.409 22.445-1.939 11.319-10.552 12.64-10.552 12.64l.076 6.831-7.836 21.28-14.507-22.929z" fill="#b36b60"/><path d="M631.476 130.307c.018.768-.618 1.417-1.42 1.45-.8.033-1.465-.561-1.483-1.33-.018-.768.618-1.418 1.419-1.451.801-.033 1.466.563 1.484 1.331zm1.926-4.649c-.182.188-1.275-.641-2.84-.656-1.563-.037-2.722.754-2.889.56-.082-.086.106-.426.61-.784.497-.356 1.341-.699 2.316-.683.975.017 1.791.386 2.258.759.476.375.635.72.545.804zm-16.586 4.649c.018.769-.618 1.417-1.42 1.45-.8.033-1.465-.561-1.483-1.329s.618-1.418 1.419-1.451c.801-.034 1.466.562 1.484 1.33zm1.198-4.544c-.183.187-1.276-.641-2.841-.656-1.563-.037-2.722.754-2.889.56-.082-.086.104-.426.611-.784.497-.357 1.34-.699 2.315-.683.975.017 1.79.386 2.258.759.475.375.635.72.546.804zm5.539 11.676c-.006-.089.969-.245 2.548-.428.4-.036.779-.111.85-.383.098-.288-.064-.72-.252-1.188l-1.145-3.058c-1.589-4.353-2.734-7.93-2.558-7.993.176-.063 1.607 3.415 3.195 7.768.382 1.073.748 2.096 1.095 3.075.146.456.4.974.188 1.571-.111.297-.407.51-.664.576-.257.075-.482.077-.68.086-1.588.068-2.572.064-2.577-.026z" fill="#263238"/><path d="M624.571 155.974s-7.636.399-15.14-4.236c0 0 3.788 8.098 15.152 7.174l-.012-2.938zm-1.295-14.816c-.745-1.08-1.973-1.751-3.15-1.72-.816.021-1.62.389-2.073 1.096-.453.706-.492 1.767.007 2.53.561.859 1.642 1.148 2.529.945.887-.204 1.624-.8 2.322-1.397.193-.165.39-.338.502-.58.112-.241.119-.57-.052-.795" fill="#83483f"/><path d="M618.934 138.466c.255-.012.237 1.687 1.677 2.911 1.437 1.228 3.25 1.059 3.26 1.296.022.107-.407.325-1.172.337a4.232 4.232 0 0 1-2.723-.986c-.878-.75-1.248-1.742-1.297-2.439-.056-.711.139-1.13.255-1.119zm-.24-16.94c-.159.424-1.72.203-3.558.402-1.843.162-3.331.682-3.57.297-.106-.184.156-.581.76-.986.598-.404 1.55-.784 2.654-.893 1.104-.107 2.111.08 2.776.36.672.281 1.007.619.938.82zm14.188-.405c-.28.352-1.353-.03-2.65-.063-1.295-.078-2.397.21-2.646-.165-.109-.182.069-.536.553-.867.477-.329 1.271-.594 2.162-.556.89.039 1.658.371 2.105.74.453.371.599.739.476.911z" fill="#263238"/><path d="M625.405 109.552s-10.64-.36-18.923 11.502c-5.459 7.818-6.767 17.737-6.767 17.737l-3.749-18.995 3.246-8.567 7.432-4.021 13.968-.521 5.216 2.708" fill="#ff725e"/><path d="M604.534 110.142c17.027-3.76 30.47 2.11 32.705 15.448l3.614-8.68-8.619-10.788-9.599-2.695-19.494 2.586 1.393 4.129z" fill="#ff725e"/><path d="M597.15 137.51c.561-.558 1.356-1.068 2.159-1.298l-.16-.016c.15-.035.302-.046.453-.058.585-.113 1.16-.061 1.635.27l-.016-.002c.886.368 1.653 1.059 2.052 1.938.694 1.528.336 3.428-.735 4.721-.931 1.123-2.481 1.821-3.884 1.42-1.289-.369-2.206-1.588-2.522-2.891-.347-1.425-.023-3.05 1.018-4.084z" fill="#455a64"/><path d="M601.274 131.533c-.007.021-.294-.033-.749-.291a4.277 4.277 0 0 1-1.527-1.583c-.466-.807-.766-1.998-.437-3.232.15-.602.388-1.192.498-1.803.123-.607.021-1.239-.419-1.693-.431-.462-1.054-.74-1.63-1.063-.59-.309-1.136-.741-1.525-1.23a5.363 5.363 0 0 1-1.166-3.051 4.704 4.704 0 0 1 .369-2.164c.207-.479.412-.691.425-.681.102.029-.635 1.026-.467 2.82a5.2 5.2 0 0 0 1.167 2.803c.374.445.842.81 1.416 1.106.56.313 1.22.586 1.752 1.146.555.558.679 1.425.526 2.088-.131.68-.381 1.267-.531 1.832-.32 1.113-.086 2.193.313 2.97a4.537 4.537 0 0 0 1.337 1.587c.403.289.664.401.648.439zm-2.52-23.13c.095.034-.582.953-.557 2.641.008.826.232 1.826.81 2.746.556.944 1.606 1.591 2.654 2.409.516.417 1.011.894 1.313 1.49.314.592.378 1.263.322 1.844-.116 1.168-.491 2.13-.437 2.949.024.826.322 1.459.646 1.773.322.327.607.366.59.412-.004.015-.071.011-.2-.014a1.333 1.333 0 0 1-.51-.263c-.405-.309-.784-.997-.853-1.887-.096-.911.26-1.916.339-3.001.039-.542-.027-1.101-.299-1.603-.262-.506-.706-.938-1.201-1.338-.994-.78-2.129-1.491-2.726-2.545a5.437 5.437 0 0 1-.775-2.972 4.892 4.892 0 0 1 .468-2.01c.209-.443.4-.642.416-.631zm11.773 8.288c.02.013-.133.173-.463.099a.934.934 0 0 1-.484-.32c-.154-.18-.239-.454-.241-.734-.021-.575.31-1.165.347-1.76.054-.592-.458-1.125-1.119-1.471-.67-.338-1.4-.777-1.81-1.372a3.956 3.956 0 0 1-.73-1.723c-.159-1.073.165-1.701.202-1.676.082.014-.108.647.12 1.612.114.476.348 1.024.746 1.526.396.522.982.862 1.7 1.23.35.194.7.436.955.761.262.315.406.755.363 1.139-.092.76-.437 1.27-.446 1.74-.048.469.226.771.457.876.232.109.391.036.403.073zm3.407-9.163c.01-.026.113-.029.239.092.122.119.226.362.192.662-.033.3-.199.592-.292.875-.092.28-.103.615-.026.959.154.696.598 1.233.914 1.618.324.384.529.636.483.684-.042.044-.318-.116-.716-.454-.382-.336-.94-.899-1.133-1.747-.094-.416-.068-.852.077-1.206.148-.346.316-.578.371-.788.125-.44-.135-.649-.109-.695zm17.07-5.871c.027.015-.033.183-.193.455-.154.273-.43.639-.678 1.11-.26.471-.353 1.073-.172 1.762.152.679.513 1.464.496 2.381a4.244 4.244 0 0 1-.742 2.371 4.04 4.04 0 0 1-1.53 1.325c-1.053.511-1.804.395-1.792.352-.013-.082.705-.094 1.635-.64a4.02 4.02 0 0 0 1.332-1.274c.377-.582.63-1.337.634-2.138.021-.799-.301-1.536-.45-2.287-.184-.746-.026-1.534.303-2.012.31-.492.621-.816.817-1.055.201-.235.311-.367.34-.35zm7.923 8.083c.067.076-.51.329-.736 1.162-.109.43-.332.946-.496 1.487-.173.556-.318 1.208-.657 1.853-.713 1.331-2.108 1.848-3.02 1.876-.951.037-1.471-.296-1.445-.333.022-.079.559.124 1.415.007.831-.106 2.032-.62 2.641-1.768.302-.57.461-1.199.66-1.767.205-.586.442-1.038.595-1.468.161-.438.453-.754.671-.888.218-.144.356-.185.372-.161zm1.319 11.379c.053.023.01.291-.238.64a2.427 2.427 0 0 1-3.018.737c-.382-.195-.543-.413-.506-.458.061-.113.933.457 2.039.186 1.106-.269 1.617-1.177 1.723-1.105zm-19.288-21.342c.044.07-.481.333-.965 1.069-.475.706-.875 1.987-.352 3.205.257.596.661 1.247.606 1.945-.035.679-.363 1.199-.656 1.564-.617.728-1.148.984-1.175.945-.052-.059.407-.416.912-1.14.241-.361.488-.837.492-1.381.029-.546-.311-1.086-.606-1.753-.3-.688-.321-1.435-.192-2.057a3.709 3.709 0 0 1 .705-1.52c.61-.757 1.223-.921 1.231-.877zm-10.83 7.971c-.126-.054.242-1.057.271-2.34.047-1.283-.26-2.306-.132-2.353.106-.056.642.974.595 2.367-.036 1.392-.632 2.389-.734 2.326zm-7.857-1.234c-.02-.032.101-.118.203-.342.103-.22.187-.584.105-1.014-.145-.885-1.012-1.889-1.735-3.171-.357-.651-.599-1.342-.661-2.001-.069-.657.06-1.275.299-1.717.23-.45.562-.732.822-.845.267-.111.43-.081.43-.056.006.037-.139.072-.342.213a1.91 1.91 0 0 0-.615.828c-.383.817-.223 2.139.473 3.356.678 1.219 1.558 2.297 1.652 3.348.051.513-.103.925-.275 1.152-.174.234-.347.273-.356.249zm10.889-4.906c-.022-.024.07-.146.248-.344.159-.197.484-.483.512-.87.01-.369-.337-.875-.731-1.309-.41-.45-.956-.866-1.504-1.373-.524-.513-1.073-1.068-1.171-1.822-.065-.723.226-1.285.452-1.71.501-.845.921-1.267.964-1.238.064.04-.268.545-.672 1.387-.183.419-.398.955-.321 1.508.073.53.558 1.056 1.063 1.538 1.037.939 2.237 1.856 2.244 3.053-.121.587-.526.799-.717.971-.216.158-.346.232-.367.209zm10.539-1.667c-.04-.06.47-.269.631-1.009.083-.359.054-.795-.13-1.258-.176-.464-.485-.936-.806-1.46-.319-.523-.6-1.084-.674-1.657-.086-.603.143-1.1.347-1.455.428-.756 1.05-.885 1.044-.804.018.054-.442.247-.755.958-.152.34-.307.784-.214 1.236.083.477.337.972.649 1.483.312.511.635 1.022.812 1.556.187.527.189 1.083.043 1.49-.138.413-.389.689-.594.813-.208.126-.345.132-.353.107z" fill="#fff"/><path d="M627.345 99.663c-.002.032-.465.042-1.296.032-.831-.028-2.035.001-3.516.066-2.956.166-7.049.76-11.285 2.365-4.236 1.599-7.78 3.717-10.297 5.291l-2.965 1.906c-.699.454-1.094.692-1.112.666-.018-.026.342-.314 1.01-.814a65.842 65.842 0 0 1 2.89-2.033c2.48-1.65 6.024-3.832 10.312-5.45 4.288-1.625 8.451-2.176 11.433-2.258 1.496-.024 2.706-.002 3.538.081.832.065 1.29.116 1.288.148zm-26.951 9.957a.402.402 0 0 0 .113-.036l.319-.128.515-.215.716-.259a20.875 20.875 0 0 1 4.721-1.041c2.032-.229 4.485-.206 7.164.169 1.34.183 2.734.464 4.173.788 1.436.329 2.915.711 4.397 1.2 5.985 1.856 10.55 5.733 12.575 9.269 1.039 1.763 1.505 3.375 1.78 4.481.139.556.22.993.272 1.291l.068.337a.4.4 0 0 0 .032.114c.005-.001.003-.04-.005-.117l-.042-.342c-.036-.301-.1-.743-.224-1.305-.246-1.118-.688-2.754-1.719-4.551-2.008-3.607-6.618-7.555-12.654-9.427a47.628 47.628 0 0 0-4.423-1.202c-1.443-.322-2.846-.599-4.197-.777-2.699-.364-5.173-.368-7.219-.113-2.05.235-3.66.725-4.735 1.131l-.711.283-.507.239-.309.152a.413.413 0 0 0-.1.059z" fill="#263238"/><path d="M622.573 110.065c-.001-.009-.127-.006-.369.007a9.894 9.894 0 0 0-1.052.118c-.907.149-2.211.479-3.712 1.163-2.996 1.353-6.764 4.126-9.798 8.147-1.534 1.995-2.69 4.101-3.702 6.017-1.005 1.925-1.813 3.71-2.397 5.245-.593 1.533-.955 2.817-1.154 3.714-.097.449-.164.799-.194 1.04-.035.239-.049.365-.04.367.009.001.041-.122.093-.357.047-.236.13-.582.242-1.025.229-.885.617-2.152 1.228-3.669.603-1.52 1.426-3.288 2.438-5.2 1.022-1.907 2.176-3.994 3.697-5.971 3.007-3.985 6.72-6.754 9.665-8.137a15.928 15.928 0 0 1 3.652-1.231c.449-.083.799-.141 1.039-.166.239-.032.364-.053.364-.062zM460.871 318.332c-4.065-2.055-6.103-6.832-6.401-11.377-.297-4.545.804-9.048 1.39-13.566.586-4.517.594-9.362-1.668-13.316-2.262-3.954-7.429-6.532-11.548-4.589l-11.56 8.221a56.388 56.388 0 0 1 3.209 15.844c.227 4.055.054 8.309 1.87 11.942 2.558 5.118 8.448 7.694 14.094 8.624l-2.129-2.959c3.705 2.453 8.652 2.91 12.743 1.176z" fill="#263238"/><path d="M422.48 261.705c5.014-.518 9.247 1.676 13.246 4.745 3.999 3.069 6.872 7.493 8.383 12.302 1.592 5.065 1.694 10.653-.111 15.646s-5.588 9.32-10.469 11.41c-6.664 2.854-14.839 1.171-20.323-3.569-5.485-4.741-8.312-12.171-8.115-19.418.135-4.993 1.659-10.01 4.713-13.962 3.053-3.954 7.697-6.753 12.676-7.154" fill="#263238"/><path d="M435.477 279.49c-.601-1.945-.181-4.044-.336-6.073-.342-4.469-3.677-8.252-7.69-10.248-3.733-1.857-8.443-1.814-13.164-.622-3.236.817-6.336 2.408-8.617 4.844-3.028 3.234-4.332 7.996-3.374 12.32l22.867-1.816c2.006 1.893 4.06 3.82 6.569 4.966.736.337 1.534.606 2.34.532.806-.074 1.617-.566 1.857-1.338.262-.844-.191-1.721-.452-2.565z" fill="#263238"/><path d="m413.393 268.768 19.502 5.484a3.701 3.701 0 0 1 3.21 3.841l-3.039 42.782a13.312 13.312 0 0 1-3.316 7.888l-2.045 2.309c-4.663 5.264-13.337 4.135-16.216-2.281-.201-.448-.335-.839-.382-1.15-.041-.389-.126-.65-.123-.978-.346-3.352.081-6.503.081-6.503.057-3.823.099-5.391.096-5.355 0 0-8.026-1.553-9.417-12.116-.692-5.253-.201-13.823.427-20.822.566-6.299 4.952-13.931 11.222-13.099z" fill="#ffbe9d"/><path d="M404.654 290.096c-.044.712.522 1.336 1.264 1.396.741.059 1.379-.467 1.423-1.179.044-.712-.522-1.337-1.263-1.396-.742-.061-1.38.467-1.424 1.179zm-.741-3.718c.162.18 1.205-.549 2.656-.507 1.45.022 2.496.797 2.658.623.08-.077-.083-.398-.537-.749-.448-.348-1.218-.696-2.122-.717-.904-.019-1.674.294-2.12.623-.455.332-.615.646-.535.727zm13.741 4.242c-.044.712.522 1.336 1.264 1.396.741.06 1.379-.467 1.423-1.179.044-.711-.522-1.337-1.263-1.396-.743-.061-1.381.468-1.424 1.179zm.032-3.694c.163.18 1.206-.548 2.657-.506 1.45.021 2.496.797 2.658.623.079-.077-.081-.398-.538-.749-.448-.349-1.218-.696-2.122-.717-.904-.019-1.673.294-2.12.623-.454.33-.615.645-.535.726zm-5.065 10.728c.009-.082-.889-.262-2.346-.488-.37-.048-.719-.131-.774-.386-.08-.271.085-.666.276-1.092l1.172-2.793c1.629-3.978 2.819-7.254 2.658-7.317-.161-.064-1.612 3.108-3.241 7.086l-1.126 2.811c-.152.417-.405.889-.231 1.45.092.28.359.488.595.558.236.079.444.088.627.104 1.469.118 2.382.149 2.39.067z" fill="#263238"/><path d="M411.162 314.805s7.064.644 14.187-3.383c0 0-3.735 7.187-14.237 5.923l.05-2.54zm1.98-13.637c.54-.676 1.465-1.031 2.371-.909.628.085 1.257.405 1.625.929.369.523.43 1.253.069 1.733-.406.541-1.228.646-1.916.431-.688-.215-1.272-.687-1.826-1.157-.153-.13-.31-.265-.403-.44-.093-.175-.108-.401.017-.54" fill="#eb996e"/><path d="M416.866 298.771c-.236-.02-.28 1.556-1.659 2.638-1.376 1.086-3.051.865-3.069 1.085-.025.098.366.316 1.074.354a3.929 3.929 0 0 0 2.56-.816c.841-.664 1.219-1.57 1.29-2.215.077-.657-.088-1.052-.196-1.046zm1.182-16.138c.133.398 1.587.25 3.284.5 1.703.217 3.063.751 3.299.403.105-.167-.124-.544-.669-.941-.54-.396-1.409-.782-2.428-.923-1.02-.139-1.96-.002-2.587.234-.632.236-.955.538-.899.727zm-13.545-2.591c.246.336 1.256.021 2.459.036 1.203-.026 2.215.28 2.458-.058.107-.165-.044-.499-.481-.823-.43-.322-1.157-.596-1.984-.593-.827.004-1.551.284-1.978.611-.434.327-.582.663-.474.827z" fill="#263238"/><path d="M439.302 276.673c-1.656-6.156-10.071-14.947-16.443-14.793l-10.422 5.623c.457 3.485 2.989 6.616 6.301 7.792 1.769.628 3.922.876 4.919 2.467 1.018 1.625.277 3.889 1.216 5.56 1.303 2.315 5.148 2.383 6.091 4.867.412 1.085.114 2.345.545 3.423.575 1.436 4.054 3.381 5.548 2.981 1.494-.4 1.612-2.907 2.153-4.199.925-2.208.639-3.387.425-4.653-.505-3 .457-6.131-.333-9.068z" fill="#263238"/><path d="M432.657 295.636c.023-.783.977-2.606 1.754-2.706 2.074-.267 5.793-.002 5.689 5.245-.143 7.173-7.315 5.549-7.324 5.344-.007-.161-.198-5.178-.119-7.883z" fill="#ffbe9d"/><path d="M435.021 300.845c.032-.022.123.09.332.191.204.098.557.171.934.038.763-.263 1.425-1.453 1.486-2.745a4.13 4.13 0 0 0-.314-1.796c-.208-.529-.54-.902-.921-.978a.635.635 0 0 0-.744.327c-.1.199-.057.343-.096.354-.02.018-.151-.123-.088-.418a.8.8 0 0 1 .291-.444.946.946 0 0 1 .695-.169c.552.05 1.04.568 1.283 1.138.273.573.429 1.275.393 2.008-.075 1.445-.842 2.782-1.885 3.061-.507.121-.925-.039-1.139-.213-.218-.18-.252-.341-.227-.354z" fill="#eb996e"/><path d="M445.175 286.618c.051.011.295-.788.408-2.129.116-1.337.04-3.222-.486-5.215-.533-1.992-1.402-3.667-2.166-4.77-.764-1.108-1.372-1.681-1.41-1.646-.138.084 2.106 2.617 3.117 6.538 1.067 3.904.376 7.217.537 7.222z" fill="#ff725e"/><path d="M414.656 265.477c-.849 2.869-5.519 6.313-7.61 8.453-3.99 4.083-4.814 5.471-5.411 15.143-1.532-3.454-2.657-6.814-2.276-10.573.381-3.759 2.016-7.443 4.813-9.983 2.797-2.541 6.789-3.825 10.484-3.04" fill="#263238"/><path d="M442.955 276.818c.004.029-.435.107-1.235.222-.4.063-.89.127-1.464.158-.573.037-1.225.107-1.949.098-1.447.043-3.173-.047-5.075-.279a38.692 38.692 0 0 1-6.081-1.337 38.648 38.648 0 0 1-5.756-2.377c-1.694-.896-3.162-1.808-4.325-2.67-.6-.406-1.095-.836-1.544-1.194a14.41 14.41 0 0 1-1.111-.966c-.591-.552-.907-.866-.887-.888.02-.021.374.251.995.762.307.26.687.571 1.151.905.46.337.964.748 1.57 1.134 1.175.823 2.645 1.7 4.33 2.566a41.294 41.294 0 0 0 5.705 2.32 41.253 41.253 0 0 0 6.006 1.355c1.878.251 3.585.371 5.02.367.718.029 1.366-.02 1.936-.034a17.774 17.774 0 0 0 1.461-.085c.802-.065 1.249-.086 1.253-.057zm.41 5.177c.003.029-.296.081-.843.149-.545.075-1.341.127-2.325.142-1.967.035-4.707-.189-7.622-.956-2.915-.776-5.406-1.937-7.098-2.941-.848-.5-1.513-.94-1.95-1.274-.441-.329-.676-.522-.658-.546.043-.062 1.039.633 2.756 1.557a33.11 33.11 0 0 0 7.06 2.792 33.136 33.136 0 0 0 7.515 1.067c1.949.046 3.158-.064 3.165.01zm-2.83 18.439c-.068-.066.713-.85 1.58-2.385.889-1.52 1.812-3.794 2.502-6.398.673-2.611.994-5.043 1.059-6.807.082-1.765-.063-2.857.024-2.87.035-.005.1.263.188.758.079.495.156 1.221.156 2.118.029 1.796-.238 4.279-.923 6.932-.701 2.647-1.699 4.95-2.691 6.457a10.255 10.255 0 0 1-1.301 1.685c-.36.355-.569.536-.594.51zm-8.704 94.955-46.036 6.685c-17.291 4.893-35.509 6.327-54.553 4.674l69.282 32.319 27.815.432s8.469.026 9.949-7.389c1.503-7.53 3.125-29.889 3.125-29.889s-5.496-4.778-9.582-6.832z" fill="#455a64"/><path d="M431.696 414.767a67.021 67.021 0 0 1 .813 13.949c2.845-3.072 4.146-7.508 3.412-11.63-.405-2.275-1.352-4.774-.161-6.755.799-1.328 2.911-2.854 2.602-4.374 0 0-1.85 0-3.529-.067-1.345-.054-4.145-.137-4.145-.137 1.415 3.643 1.307 5.888.744 9.146" opacity=".3"/><path d="m410.381 322.599 22.98-1.937 3.322.336-14.667 12.05-7.491 2.61-6.586-3.08-1.593-4.418zm-27.188 25.95-8.657 27.438-18.551 26.205 11.729 8.446 20.275-25.021 6.788-31.008z" fill="#ffbe9d"/><path d="M379.435 343.639s8.437-12.717 10.989-14.985c3.072-2.731 8.644-4.843 8.644-4.843l11.312-1.212s-6.97 8.053 1.022 9.052c7.992.999 25.28-10.653 25.28-10.653s12.083 2.262 15.08 4.06c2.997 1.798 10.589 6.394 10.19 18.581l.015 9.79h-22.992l-4.795 36.763-11.589 6.993s-31.249 5.977-33.247 6.377c-1.998.4-.519-50.732-.519-50.732s-7.991-3.796-9.39-9.191z" fill="#263238"/><path d="m391.902 393.478 42.678-6.405 4.396-33.643h21.379s-5.074 23.705-6.194 29.77c-1.611 8.723-7.592 20.38-10.789 22.577-3.197 2.198-54.027-2.215-54.027-2.215l2.557-10.084z" fill="#ffbe9d"/><path d="M367.661 397.366c.258.606.848 1.03 1.507 1.015.131-.003.269-.02.413-.056.95-.238.987-2.138.987-2.138l4.507-.436s5.554 4.119 7.455 6.733c1.901 2.614 7.295.951 7.295.951l2.446-9.385-7.722-7.96s.475.475 0-.95c-.475-1.426-3.089-1.069-3.089-1.069-.356-.713-2.025-1.069-2.025-1.069l-7.254.358a4.946 4.946 0 0 0-3.756 2.031l-3.36 4.62s-1.835 3.365-1.629 4.188c.311 1.243 1.616 1.056 1.616 1.056s.204 2.304.798 2.423c.595.117 1.811-.312 1.811-.312z" fill="#ffbe9d"/><path d="M383.431 391.542c-.013.075-.964-.076-2.506-.11-1.539-.026-3.679.105-5.947.715a20.918 20.918 0 0 0-3.114 1.097c-.902.433-1.836.776-2.156 1.391a.88.88 0 0 0 .022.863c.137.242.334.408.514.495.368.181.62.09.625.134.017.012-.236.184-.695.031a1.343 1.343 0 0 1-.663-.526 1.152 1.152 0 0 1-.096-1.138c.184-.41.562-.711.962-.953a18.7 18.7 0 0 1 4.484-1.839 18.828 18.828 0 0 1 6.08-.595c1.563.119 2.5.385 2.49.435z" fill="#eb996e"/><path d="M383.634 396.166c-.017.136-2.939-.178-6.552-.203-3.615-.038-6.541.226-6.556.09-.007-.06.718-.203 1.904-.332a41.089 41.089 0 0 1 4.655-.217c1.821.017 3.467.147 4.65.298 1.184.148 1.907.304 1.899.364zm-15.92 1.02c-.023-.006-.038-.273-.04-.773.003-.497.019-1.219.133-2.108.06-.444.14-.932.296-1.447a4.472 4.472 0 0 1 .81-1.522c.713-.939 1.682-1.898 2.879-2.586 1.193-.679 2.377-1.241 3.558-1.515 1.171-.272 2.251-.288 3.141-.27.893.027 1.608.093 2.102.144.494.053.766.097.764.128-.002.074-1.105.039-2.867.052-.878.023-1.928.074-3.04.357-1.103.276-2.269.841-3.421 1.498-1.155.668-2.059 1.544-2.782 2.453-.755.863-.953 1.896-1.118 2.757-.287 1.731-.316 2.841-.415 2.832z" fill="#eb996e"/><path d="M378.969 384.806c-.004.069-1.084.026-2.817.112-1.673.145-4.332.093-5.991 2.278-1.771 1.97-3.29 3.84-4.003 5.41-.749 1.556-.765 2.665-.858 2.651-.025-.001-.049-.275.008-.766a7.202 7.202 0 0 1 .553-2.017c.664-1.662 2.179-3.607 3.961-5.587.454-.497.94-.965 1.492-1.323.55-.366 1.175-.559 1.746-.685 1.156-.246 2.207-.271 3.083-.285 1.755-.004 2.83.154 2.826.212z" fill="#eb996e"/><path d="M381.055 400.846c-.011.01-.15-.112-.406-.354l-1.142-1.047a50.098 50.098 0 0 0-4.519-3.569l.101.026-4.504.467.165-.178a4.937 4.937 0 0 1-.154 1.084c-.099.358-.24.742-.576 1.039a1.107 1.107 0 0 1-.609.233 1.592 1.592 0 0 1-.63-.004 1.835 1.835 0 0 1-1.069-.686 1.991 1.991 0 0 1-.177-.276l-.036-.074-.018-.037-.009-.019-.001-.002c-.056-.026.486.214.255.113l-.005.002-.01.003-.145.048a8.664 8.664 0 0 1-.589.166 4.889 4.889 0 0 1-.62.112c-.108.011-.217.02-.334.014a.763.763 0 0 1-.408-.107c-.24-.196-.316-.413-.398-.618a4.838 4.838 0 0 1-.181-.627 10.817 10.817 0 0 1-.204-1.281l.249.197c-.585.064-1.257-.12-1.624-.675-.165-.258-.293-.571-.248-.917.035-.311.123-.58.214-.852.384-1.073.893-2.094 1.439-3.126l.006-.012.01-.013 1.791-2.465 1.137-1.562c.376-.5.721-1.066 1.233-1.504a4.799 4.799 0 0 1 1.686-.968c.611-.217 1.275-.238 1.861-.261l6.837-.319.029-.001.024.006c.413.098.796.221 1.17.391.363.175.748.371.987.791l-.245-.094c.783-.263 1.666-.209 2.304.281.642.485.904 1.218 1.025 1.898l-.048-.098 5.324 5.457 1.432 1.504c.324.348.488.536.476.548-.012.012-.2-.153-.546-.479l-1.497-1.439-5.431-5.35-.037-.036-.012-.062c-.112-.6-.374-1.271-.905-1.649-.514-.398-1.288-.437-1.944-.212l-.162.056-.083-.15c-.139-.25-.469-.453-.803-.601a6.043 6.043 0 0 0-1.09-.355l.053.004-6.835.356c-.613.027-1.184.046-1.742.245a4.378 4.378 0 0 0-1.524.879c-.451.383-.776.914-1.165 1.433l-1.136 1.562-1.793 2.464.016-.025c-.537 1.009-1.048 2.032-1.415 3.053a3.607 3.607 0 0 0-.195.751c-.037.203.052.431.172.625.235.382.749.532 1.193.489l.227-.022.022.219c.041.412.1.829.188 1.224.083.374.215.832.403.994.01.006.085.035.18.032.087.005.181-.001.274-.011.188-.019.379-.056.568-.099.189-.044.376-.096.56-.154l.136-.044.008-.003.004-.001c-.229-.102.314.137.259.114l.001.002.007.015.014.03.028.059c.041.076.085.151.138.219.205.277.506.473.827.544.161.038.325.034.492.004a.733.733 0 0 0 .419-.144c.453-.415.566-1.201.61-1.83l.011-.165.154-.014 4.51-.405.058-.005.043.031a43.163 43.163 0 0 1 4.458 3.697c.488.471.852.847 1.091 1.109.237.259.356.401.345.411z" fill="#eb996e"/><path d="M388.485 339.316c.075.006.063.905.045 2.352-.019 1.448-.03 3.446.038 5.651.07 2.206.206 4.199.315 5.643.109 1.444.177 2.34.102 2.35-.068.01-.265-.87-.468-2.311a53.93 53.93 0 0 1-.469-5.666 54.02 54.02 0 0 1 .115-5.684c.112-1.45.254-2.341.322-2.335z" fill="#455a64"/><path d="M461.618 342.057c.001.018-.253.049-.738.092l-2.123.164-7.816.505-25.801 1.469-25.814 1.317-7.825.339-2.128.066c-.487.009-.743.005-.743-.012-.001-.018.254-.049.739-.092l2.124-.164 7.817-.505 25.802-1.469 25.806-1.316 7.826-.339 2.13-.066c.487-.01.743-.007.744.011zm-24.206 21.987c.006.144-10.912.722-24.382 1.291-13.475.569-24.401.915-24.407.771-.006-.144 10.909-.722 24.385-1.291 13.47-.569 24.398-.915 24.404-.771zm-2.915 19.324c.001.018-.159.046-.464.084l-1.337.139-4.923.435c-4.157.36-9.897.872-16.229 1.518-6.334.648-12.06 1.308-16.203 1.796l-4.909.569-1.338.135c-.307.025-.469.03-.471.012-.003-.018.155-.057.457-.116l1.325-.232a211.54 211.54 0 0 1 4.889-.733c4.134-.582 9.858-1.3 16.197-1.949a444.026 444.026 0 0 1 16.254-1.367 217.95 217.95 0 0 1 4.937-.271l1.344-.041c.307-.004.47.003.471.021zm-46.724-42.311c-.047.136-1.085-.1-2.318-.527-1.233-.427-2.195-.883-2.148-1.019.047-.136 1.085.1 2.318.527 1.233.427 2.195.883 2.148 1.019zm18.793-13.33c.005.144-3.293.375-7.365.516-4.074.141-7.379.139-7.384-.005-.005-.144 3.292-.375 7.366-.516 4.072-.141 7.378-.139 7.383.005zm46.474-1.784c-.001.144-5.257.232-11.738.196-6.483-.036-11.737-.181-11.736-.325s5.255-.231 11.739-.196c6.481.036 11.735.181 11.735.325z" fill="#fff"/><path d="M438.842 337.598c.031.002.038.428.021 1.208-.021.78-.067 1.915-.161 3.332-.169 2.836-.62 6.789-.978 11.311l-.272-.274 4.301-.006c5.578 0 10.629.029 14.287.076l4.334.082c1.024.031 1.592.065 1.594.101.003.036-.56.07-1.579.101l-4.322.082c-3.651.047-8.698.076-14.276.076l-4.302-.006h-.295l.023-.274c.384-4.538.899-8.475 1.157-11.297l.312-3.316c.071-.774.125-1.197.156-1.196zm-81.72 72.219s-29.166-9.164-38.328-12.134c-15.772-5.113-26.099.055-29.355 5.698-4.226 7.323 5.907 21.6 9.81 24.882 11.566 9.724 31.39 11.035 31.39 11.035l71.282-.134-20.813-28.218-23.986-1.129z" fill="#455a64"/><path d="M360.198 421.197a71.117 71.117 0 0 1-34.989-4.76c-1.926-.786-3.828-1.66-5.844-2.172a17.09 17.09 0 0 0-6.019-.425c-1.591.172-3.284.649-4.251 1.924-1.422 1.876-.69 4.539.099 6.757.925 2.598 1.889 5.263 3.698 7.344 2.117 2.434 5.185 3.826 8.262 4.795 6.019 1.896 12.376 2.44 18.681 2.691l21.663-1.185-1.3-14.969z" fill="#e0e0e0"/><path d="M356.989 436.048c-.031.034-.705-.515-1.534-1.638-.83-1.116-1.751-2.854-2.238-4.938-.479-2.087-.416-4.053-.161-5.42.251-1.374.616-2.163.658-2.146.077.024-.174.841-.338 2.193a15.598 15.598 0 0 0 .286 5.27 15.552 15.552 0 0 0 2.06 4.858c.741 1.142 1.326 1.766 1.267 1.821zm-38.617-21.774c.026-.012.153.19.332.582.18.391.396.979.574 1.731.363 1.492.485 3.71-.245 5.983-.731 2.273-2.124 4.004-3.288 5.005a9.473 9.473 0 0 1-1.475 1.072c-.374.214-.594.304-.609.279-.043-.068.783-.54 1.864-1.588 1.078-1.035 2.371-2.728 3.073-4.908.7-2.179.637-4.309.364-5.778-.269-1.483-.665-2.348-.59-2.378z" fill="#263238"/><path d="M356.762 424.803c.006.126-.759.263-1.707.306-.949.043-1.722-.025-1.728-.151-.006-.126.758-.263 1.707-.306.948-.043 1.722.025 1.728.151zm-.653 5.915c.052.112-.374.398-.981.396-.607.001-1.033-.285-.981-.396.048-.12.474-.057.981-.061.506.004.932-.06.981.061z" fill="#263238"/><path d="M431.56 408.03c-1.693-4.797-1.975-11.852-12.416-15.238-10.441-3.386-18.342 3.104-23.703 5.361-5.361 2.258-34.708 18.342-34.708 18.342s-5.526 9.854-3.953 14.203c1.574 4.349 8.721 8.653 8.721 8.653h32.81c8.465 0 24.219-.282 24.219-.282 2.898-4.546 5.643-10.723 5.643-10.723l.282-1.411c.001-1.128 4.799-14.108 3.105-18.905z" fill="#455a64"/><path d="M413.383 432.955s-.024.189-.242.447c-.21.261-.571.602-1.08.973-1.019.743-2.597 1.663-4.639 2.599-1.025.462-2.155.949-3.426 1.346-1.267.4-2.659.694-4.135.893-2.957.422-6.236.329-9.639.378-6.826.11-13.01.366-17.493.316-2.241-.017-4.056-.107-5.305-.237a14.236 14.236 0 0 1-1.432-.202c-.325-.061-.493-.101-.491-.116.008-.047.689.075 1.937.141 1.246.074 3.054.116 5.29.091 4.472-.033 10.649-.34 17.487-.45 3.422-.048 6.671.056 9.591-.338 1.458-.184 2.83-.461 4.078-.838 1.248-.373 2.382-.84 3.405-1.279 2.044-.891 3.633-1.761 4.669-2.449.518-.344.888-.655 1.113-.887.232-.231.283-.4.312-.388z" fill="#263238"/><path d="M365.501 439.352s-.154-.067-.434-.231a26.704 26.704 0 0 1-1.221-.76c-1.047-.703-2.591-1.762-4.314-3.431-.843-.846-1.748-1.848-2.441-3.148-.728-1.309-.761-3.012-.481-4.667.581-3.356 2.048-6.942 3.966-10.704l.023-.045.048-.026a1976.833 1976.833 0 0 1 18.274-9.937 777.893 777.893 0 0 1 10.527-5.557c1.827-.935 3.669-1.894 5.605-2.764 1.926-.818 3.768-1.888 5.694-2.869 2.722-1.396 5.537-2.625 8.481-3.188 1.462-.321 2.951-.405 4.416-.405 1.464.072 2.915.238 4.299.618 2.763.731 5.371 1.885 7.516 3.589a14.917 14.917 0 0 1 2.731 2.959c.742 1.101 1.307 2.282 1.764 3.471.459 1.19.793 2.394 1.127 3.562.304 1.175.777 2.266.939 3.477.237 2.379-.155 4.621-.56 6.709-.423 2.091-.941 4.043-1.457 5.866l-.769 2.637c-.239.839-.52 1.682-.645 2.43l-.003.026-.288 1.409-.001.007-.001.004c-1.186 3.699-2.628 6.426-3.769 8.176-1.155 1.749-1.996 2.511-1.996 2.511a.958.958 0 0 1 .123-.169l.388-.474c.338-.421.814-1.064 1.372-1.941 1.098-1.76 2.499-4.498 3.639-8.174l-.003.01c.535-.446.43-.884.276-1.412l-.003.026c.132-.869.401-1.648.635-2.51l.749-2.64c.502-1.822 1.006-3.771 1.415-5.85.392-2.072.763-4.309.523-6.594-.146-1.109-.629-2.24-.941-3.417-.339-1.17-.674-2.36-1.129-3.526-.452-1.166-1.006-2.314-1.73-3.38a14.535 14.535 0 0 0-2.656-2.861c-2.082-1.647-4.65-2.78-7.357-3.491-1.354-.371-2.77-.529-4.2-.599-1.431.003-2.884.085-4.316.401-2.882.553-5.654 1.762-8.361 3.15-1.912.973-3.766 2.05-5.721 2.88-1.907.856-3.758 1.817-5.58 2.747a853.333 853.333 0 0 0-10.53 5.537l-18.306 9.87.071-.072c-1.92 3.717-3.404 7.29-3.998 10.581-.284 1.639-.269 3.241.417 4.509.66 1.268 1.541 2.27 2.365 3.117 1.685 1.675 3.206 2.759 4.231 3.487l1.191.802c.271.176.406.274.406.274z" fill="#263238"/><path d="M418.904 427.181s9.773 1.166 8.905 5.952c-.869 4.786-4.063 6.393-4.063 6.393l-26.567.056c-.001 0 15.864-1.106 21.725-12.401z" fill="#e0e0e0"/><path d="M419.852 424.856c.054.015-.022.542-.297 1.357a10.54 10.54 0 0 1-1.585 2.962c-1.639 2.132-3.72 2.962-3.738 2.864-.086-.131 1.822-1.113 3.376-3.143 1.549-2.025 2.094-4.096 2.244-4.04z" fill="#263238"/><path d="M416.457 426.734c.127.005-.019 1.648-.944 3.404-.897 1.762-2.048 2.899-2.131 2.817-.104-.087.859-1.322 1.724-3.025.893-1.692 1.226-3.215 1.351-3.196zm12.472 11.456c-.073-.037.555-1.249 1.323-3.303a35.918 35.918 0 0 0 1.993-8.294 35.895 35.895 0 0 0-.07-8.531c-.284-2.174-.622-3.496-.543-3.516.031-.008.138.316.307.91.177.592.372 1.467.556 2.558.373 2.179.585 5.262.205 8.63-.39 3.366-1.291 6.321-2.146 8.36-.426 1.021-.813 1.83-1.119 2.367-.3.542-.478.833-.506.819z" fill="#263238"/><path d="M423.398 424.602c-.069-.643-.324-1.406-.958-1.535-.774-.158-1.305.732-1.618 1.456-3.369 7.792-14.451 13.861-22.904 14.645 3.476.027 8.851-.381 12.272-1.001 3.421-.62 6.795-1.933 9.359-4.28 2.564-2.348 4.22-5.829 3.849-9.285z" opacity=".3"/><path d="M358.667 414c-.054.114-2.16-.687-4.703-1.788-2.543-1.102-4.566-2.09-4.519-2.207.047-.117 2.153.684 4.703 1.789 2.55 1.104 4.573 2.092 4.519 2.206z" fill="#263238"/><path d="M368.143 409.894a910.114 910.114 0 0 0-38.094-6.451l-9.493 3.002c2.661 4.948 7.918 8.098 13.382 9.405 5.464 1.307 11.174.992 16.768.477 6.161-.567 12.487-1.428 17.848-4.517.41-.236.868-.588.818-1.059-.056-.535-.701-.756-1.229-.857z" opacity=".2"/><path d="m305.848 372.204 15.94 35.264a4.127 4.127 0 0 0 3.707 2.427l46.493.603 5.861-3.155-9.179-.672-14.287-34.288a2.955 2.955 0 0 0-2.704-1.818l-44.546-.337a1.4 1.4 0 0 0-1.285 1.976z" fill="#e0e0e0"/><path d="M305.848 372.204s-.093-.128-.14-.425a1.422 1.422 0 0 1 .435-1.219c.216-.201.53-.371.903-.388l1.169-.009 2.913-.001 18.658.061 12.964.066 7.248.041 1.9.019c.68.048 1.345.328 1.865.784.542.439.841 1.135 1.066 1.716l.759 1.815 13.323 31.906-.22-.159 8.864.648.314.023.892.065-.788.424-5.862 3.154-.059.032-.067-.001-35.262-.483-7.87-.113c-1.283-.029-2.509-.014-3.784-.079a4.352 4.352 0 0 1-3.154-1.949c-2.076-4.366-3.809-8.406-5.491-12.099l-7.795-17.441-2.087-4.73-.53-1.233c-.116-.277-.164-.425-.164-.425s.079.134.211.406l.575 1.212 2.172 4.692 7.942 17.374c1.689 3.659 3.486 7.771 5.518 12.017a3.92 3.92 0 0 0 2.85 1.747c1.191.055 2.478.039 3.742.063l7.87.091 35.263.432-.126.031 5.861-3.155.104.489a79.993 79.993 0 0 1-.314-.023l-8.864-.65-.159-.012-.061-.147-13.274-31.926-.754-1.817c-.244-.624-.473-1.16-.942-1.552a2.745 2.745 0 0 0-1.598-.678l-1.87-.024-7.248-.068-12.963-.13-18.656-.221-2.913-.045-1.162-.015a1.33 1.33 0 0 0-.842.339 1.385 1.385 0 0 0-.453 1.141c.03.287.107.424.091.429z" fill="#263238"/><path d="M367.305 410.437c-.014.006-.088-.126-.214-.385l-.531-1.139-1.867-4.224a859.543 859.543 0 0 1-5.938-14.032c-2.274-5.501-4.275-10.504-5.666-14.149-.693-1.823-1.246-3.302-1.602-4.333l-.404-1.19c-.088-.274-.126-.42-.112-.426.015-.005.083.13.198.393l.484 1.159 1.736 4.278 5.788 14.093 5.813 14.081 1.733 4.281.452 1.172c.1.27.144.415.13.421z" fill="#263238"/><path d="M338.461 389.3a2.28 2.28 0 1 1-4.56 0 2.28 2.28 0 0 1 4.56 0z" fill="#fff"/><path d="m160.137 404.676-5.35 20.135s18.67 12.201 18.043 16.018l-39.414-8.972 7.049-31.715 19.672 4.534z" fill="#455a64"/><path d="M142.988 420.329c-.81.035-1.533.772-1.531 1.583.002.811.745 1.552 1.556 1.531.811-.02 1.705-.879 1.613-1.685-.092-.806-1.013-1.628-1.796-1.413" fill="#e0e0e0"/><path d="m133.416 431.857.836-3.169 37.477 9.787s1.581 1.163 1.101 2.354l-39.414-8.972zm22.055-7.101c-.05.191-1.033.059-2.12.462-1.098.375-1.776 1.098-1.936.981-.169-.078.38-1.163 1.706-1.628 1.321-.477 2.432.018 2.35.185zm3.745 2.651c.002.196-.907.334-1.745.999-.859.64-1.224 1.483-1.414 1.431-.188-.011-.064-1.168.995-1.976 1.051-.816 2.202-.639 2.164-.454zm1.222 5.482c-.184.001-.233-1.021.501-1.963.728-.947 1.73-1.156 1.775-.977.073.183-.64.616-1.231 1.398-.61.767-.85 1.567-1.045 1.542zm-4.256-12.857c-.121.157-.943-.31-2.048-.483-1.101-.196-2.031-.024-2.094-.212-.08-.165.909-.689 2.207-.466 1.3.213 2.064 1.031 1.935 1.161z" fill="#263238"/><path d="m160.137 404.676-5.35 20.135s18.67 12.201 18.043 16.018l-39.414-8.972 7.049-31.715 19.672 4.534z" opacity=".3"/><path d="m146.366 408.588-.368 20.831s21.05 7.37 21.356 11.226l-40.415.737-.758-32.48 20.185-.314z" fill="#455a64"/><path d="M133.469 427.896c-.779.228-1.303 1.117-1.107 1.904.196.787 1.096 1.328 1.878 1.113.782-.214 1.444-1.263 1.162-2.023-.283-.76-1.374-1.337-2.082-.942" fill="#e0e0e0"/><path d="m126.939 441.382.052-3.277 38.73.519s1.813.75 1.633 2.021l-40.415.737zm19.71-12.181c-.003.198-.988.305-1.948.957-.977.627-1.461 1.491-1.645 1.416-.183-.035.09-1.22 1.266-1.989 1.169-.779 2.367-.565 2.327-.384zm4.271 1.676c.048.19-.8.542-1.455 1.389-.68.828-.833 1.733-1.029 1.728-.185.035-.342-1.119.492-2.156.825-1.045 1.984-1.149 1.992-.961zm2.5 5.03c-.179.045-.471-.936.016-2.026.479-1.094 1.402-1.537 1.489-1.374.115.16-.474.751-.86 1.652-.408.892-.449 1.725-.645 1.748zm-7.214-11.462c-.08.181-.99-.074-2.104.022-1.116.073-1.977.464-2.083.296-.117-.141.717-.887 2.031-.981 1.313-.105 2.25.506 2.156.663zm-24.03-191.238-4.64 28.849 3.387 23.839.144 5.181 3.432 25.433c-.192 4.826-1.175 25.012-1.909 29.172-.911 5.162 1.616 78.458 1.616 78.458l23.309-1.026s8.814-108.689 8.781-109.884c-.033-1.196 12.121-81.312 12.121-81.312l-46.241 1.29z" fill="#263238"/><path d="M181.102 237.66s3.691 80.439 2.471 90.368c-.983 7.996-25.437 94.462-25.437 94.462l-21.377-3.674 8.408-93.311 3.044-93.025 32.891 5.18z" fill="#263238"/><path d="M164.844 269.544c.132.015-2.765 23.687-6.47 52.866-3.706 29.189-10.727 100.719-10.859 100.704-.132-.015 6.675-71.571 10.381-100.76 3.706-29.179 6.816-52.826 6.948-52.81z" fill="#455a64"/><path d="M158.419 99.578c-1.242-2.44-2.493-4.907-3.161-7.562-.668-2.656-.711-5.555.422-8.048.662-1.458 1.703-2.735 2.223-4.25.715-2.084.423-4.543 1.713-6.329 2.016-2.791 6.332-2.14 9.449-3.602 2.428-1.139 4.125-3.594 6.679-4.413 2.231-.716 4.664-.029 6.817.893 2.154.922 4.255 2.097 6.578 2.401 1.656.217 3.336-.022 5.006.013 1.67.036 3.444.405 4.619 1.592 1.175 1.187 1.423 3.378.15 4.459 2.922-.496 5.674 2.421 5.636 5.384-.038 2.963-2.27 5.572-4.966 6.804-2.695 1.232-5.772 1.313-8.726 1.083-8.364-.651-16.768-3.831-22.462-9.992" fill="#263238"/><path d="m160.221 89.112-5.698 41.414c-.969 7.043 7.793 19.96 14.875 20.581 6.609.579 8.869-4.176 9.766-10.749.426-3.118.787-12.177.852-12.495 0 0 10.679.459 12.876-9.871 1.061-4.992 2.411-15.452 3.523-24.929 1.194-10.178-5.642-19.563-15.691-21.571l-.999-.2c-10.899-1.523-18.282 6.882-19.504 17.82z" fill="#ffbe9d"/><path d="M180.017 127.862s-6.604-.921-12.687-6.68c0 0 1.989 8.678 12.508 9.81l.179-3.13z" fill="#eb996e"/><path d="M191.772 101.866c-.128.786-.9 1.326-1.724 1.207-.822-.119-1.386-.851-1.258-1.638.128-.786.9-1.327 1.723-1.208.823.119 1.387.853 1.259 1.639zm1.403-4.166c-.222.156-1.176-.897-2.769-1.211-1.586-.336-2.917.249-3.051.02-.068-.103.189-.414.771-.683.574-.269 1.5-.457 2.49-.254.99.203 1.751.735 2.156 1.204.415.474.511.856.403.924zm-16.245 1.604c-.128.786-.9 1.326-1.724 1.207-.822-.119-1.386-.851-1.258-1.638.128-.786.9-1.327 1.723-1.208.823.119 1.387.853 1.259 1.639zm.544-4.433c-.222.156-1.178-.897-2.769-1.21-1.586-.336-2.918.249-3.051.02-.067-.103.187-.414.772-.682.574-.269 1.499-.457 2.49-.255.99.204 1.751.735 2.156 1.204.411.473.509.855.402.923zm3.417 12.956c.011-.092 1.034-.065 2.678.05.415.039.816.035.939-.228.154-.274.072-.746-.031-1.259l-.583-3.335c-.789-4.739-1.273-8.603-1.082-8.633.191-.03.986 3.787 1.774 8.526.185 1.167.362 2.279.529 3.343.061.493.221 1.069-.108 1.637-.17.282-.512.443-.787.461-.276.027-.506-.014-.709-.042-1.63-.235-2.632-.428-2.62-.52zm-4.903.165c.262.036-.08 1.764 1.154 3.286 1.23 1.525 3.11 1.699 3.075 1.943.002.113-.477.254-1.259.119a4.383 4.383 0 0 1-2.587-1.524c-.751-.932-.939-2.013-.856-2.733.078-.735.356-1.124.473-1.091zm3.143-19.275c-.243.401-1.791-.121-3.703-.269-1.909-.187-3.524.059-3.694-.378-.073-.208.27-.563.963-.86.687-.298 1.729-.503 2.875-.404 1.145.102 2.136.485 2.761.897.629.413.906.822.798 1.014zm14.38 4.261c-.352.305-1.373-.289-2.688-.57-1.305-.327-2.483-.243-2.664-.673-.076-.206.172-.533.728-.778.549-.245 1.408-.363 2.309-.154.9.21 1.619.694 2.004 1.156.391.464.469.867.311 1.019z" fill="#263238"/><path d="M159.535 96.949c-.161-.112-6.695-3.526-7.883 3.599-1.188 7.125 6.21 6.848 6.256 6.646.047-.203 1.627-10.245 1.627-10.245z" fill="#ffbe9d"/><path d="M156.182 104.131c-.028-.028-.139.066-.365.127-.22.059-.583.065-.931-.136-.707-.402-1.141-1.702-.962-2.992.09-.651.329-1.246.644-1.719.304-.485.702-.793 1.093-.797a.642.642 0 0 1 .676.462c.062.215-.007.35.029.368.017.021.173-.094.165-.398a.802.802 0 0 0-.206-.493.95.95 0 0 0-.656-.296c-.556-.054-1.135.369-1.481.888a4.272 4.272 0 0 0-.761 1.914c-.194 1.443.317 2.909 1.298 3.379.479.214.923.133 1.167.001.249-.138.313-.291.29-.308z" fill="#eb996e"/><path d="M198.467 83.443c-1.223 2.633-7.51 3.65-12.118 2.259-4.248-1.282-5.789-3.979-8.492-6.33-1.711-1.488-1.711-1.488-4.501-1.776-2.256-.233-4.066 2.013-5.772 3.508.949 5.662-1.568 11.268-4.023 16.459-.271.574-.581 1.188-1.15 1.469-.966.477-2.119-.277-2.697-1.187-.924-1.456-1.033-3.275-.998-5 .078-3.929.768-7.879 2.363-11.47 1.595-3.591 4.131-6.813 7.449-8.919 4.146-2.632 9.37-3.383 14.17-2.347 4.8 1.036 9.159 3.787 12.423 7.457 1.513 1.703 2.831 3.658 3.346 5.877m-14.495 17.224c.061.003.04-.614.324-1.656a6.871 6.871 0 0 1 2.522-3.662c1.489-1.15 3.938-1.791 6.306-.908a6.567 6.567 0 0 1 3.067 2.318c.812 1.084 1.268 2.474 1.282 3.907-.014 1.434-.469 2.824-1.281 3.908a6.567 6.567 0 0 1-3.067 2.318c-2.368.884-4.817.242-6.306-.908a6.877 6.877 0 0 1-2.522-3.662c-.285-1.041-.264-1.658-.325-1.655-.02 0-.032.151-.036.443-.01.291.024.724.143 1.267.223 1.071.891 2.671 2.492 3.931 1.546 1.262 4.163 2.009 6.734 1.083a7.048 7.048 0 0 0 3.341-2.483c.887-1.172 1.39-2.685 1.402-4.243-.013-1.557-.516-3.07-1.403-4.241a7.046 7.046 0 0 0-3.34-2.482c-2.57-.926-5.187-.179-6.733 1.082-1.601 1.26-2.269 2.86-2.493 3.931a5.372 5.372 0 0 0-.143 1.268c.004.293.016.444.036.444z" fill="#263238"/><path d="M167.072 97.716c.061.003.04-.614.324-1.656a6.871 6.871 0 0 1 2.522-3.662c1.489-1.15 3.938-1.791 6.306-.908a6.564 6.564 0 0 1 3.066 2.317c.812 1.084 1.268 2.474 1.282 3.907-.013 1.434-.469 2.824-1.281 3.908a6.567 6.567 0 0 1-3.067 2.318c-2.368.884-4.817.242-6.306-.908a6.877 6.877 0 0 1-2.522-3.662c-.284-1.04-.263-1.657-.324-1.654-.02 0-.032.151-.036.443-.01.291.024.724.143 1.268.223 1.071.891 2.671 2.492 3.931 1.546 1.262 4.163 2.009 6.734 1.083a7.048 7.048 0 0 0 3.341-2.483c.887-1.171 1.39-2.685 1.402-4.243-.013-1.557-.516-3.07-1.403-4.241a7.046 7.046 0 0 0-3.34-2.482c-2.57-.926-5.187-.179-6.733 1.083-1.601 1.26-2.269 2.86-2.492 3.931a5.372 5.372 0 0 0-.143 1.268c.004.29.016.442.035.442z" fill="#263238"/><path d="M180.995 97.955c.071.144.978-.28 2.031.043 1.057.312 1.579 1.166 1.718 1.085.067-.031.034-.302-.205-.661-.232-.355-.7-.78-1.347-.975a2.521 2.521 0 0 0-1.661.07c-.397.168-.574.376-.536.438zm-23.498-2.064c.002.159 2.274.256 5.074.217 2.801-.039 5.069-.2 5.067-.359-.002-.159-2.274-.256-5.075-.217-2.799.039-5.068.2-5.066.359z" fill="#263238"/><path d="m202.563 182.814-17.77 11.735.263 4.652 4.635 9.781s2.143 2.033 8.437-4.341c6.294-6.373 14.256-19.041 14.256-19.041l-9.821-2.786z" fill="#ffbe9d"/><path d="M232.479 158.363a1.472 1.472 0 0 0-1.155-.86l-8.707-1.167a2.76 2.76 0 0 0-2.118.642l-24.93 21.409 1.129 1.098 9.351 2.253 26.603-22.982-.173-.393z" fill="#263238"/><path d="M225.57 160.138c.135.202.467.223.743.048.276-.176.39-.483.256-.685-.135-.202-.467-.223-.743-.048-.277.176-.391.483-.256.685z" fill="#fff"/><path d="M232.652 158.755c-.005.035-.614-.013-1.711-.13l-4.636-.543-3.197-.4a1.835 1.835 0 0 0-1.51.392l-1.424 1.233-6.372 5.487a1341.962 1341.962 0 0 1-11.653 9.885l-3.571 2.951c-.851.688-1.332 1.056-1.356 1.03-.024-.026.413-.445 1.222-1.179l3.461-3.074c2.938-2.579 7.02-6.115 11.552-9.998l6.399-5.456 1.446-1.223a2.286 2.286 0 0 1 1.855-.469l3.193.462 4.618.705c1.089.177 1.689.292 1.684.327z" fill="#455a64"/><path d="M223.603 163.227s-.794-.385-1.892 1.773c-1.098 2.157-4.411 8.299-4.411 8.299l-3.726-3.554-5.676-.823s-1.505.769-.796 1.614c.708.845 3.996 2.434 3.996 2.434l1.523 4.387-6.336-5.588s-2.623-.048-2.326 1.644c.297 1.693 3.928 7.747 3.928 7.747l-3.592-1.308-3.621-3.875s-1.356-.315-1.177.966c.18 1.281 3.563 6.676 3.563 6.676l4.755 4.215s3.071.607 3.607-.195.963-2.04.963-2.04 1.716.018 2.231-.673c.515-.69.667-1.968.667-1.968s2.381 1.142 3.083-.166c.702-1.308 1.213-4.131 1.261-5.276.049-1.145 4.168-10.753 4.15-11.084-.019-.328 1.581-3.425-.174-3.205z" fill="#ffbe9d"/><path d="M211.611 187.706c0 .07-.597.155-1.561.043-.96-.108-2.279-.462-3.582-1.182-1.3-.725-2.298-1.658-2.897-2.416-.604-.759-.848-1.311-.788-1.348.144-.113 1.464 1.888 3.969 3.253 2.482 1.404 4.878 1.469 4.859 1.65zm-.75-2.34c-.121.103-.953-.681-1.755-1.829-.804-1.146-1.256-2.197-1.117-2.275.142-.082.81.817 1.597 1.939.785 1.124 1.401 2.059 1.275 2.165zm4.228-3.937c-.119.104-.947-.667-1.669-1.845-.726-1.176-1.04-2.263-.894-2.322.153-.065.693.882 1.393 2.015.694 1.136 1.296 2.045 1.17 2.152zm4.119-2.971c-.168.022-.431-1.167-.988-2.537-.546-1.375-1.178-2.415-1.041-2.516.119-.098 1.005.84 1.585 2.297.588 1.454.598 2.744.444 2.756z" fill="#eb996e"/><path d="m195.015 185.593 11.704 10.525s-18.321 20.011-23.981 24.438c-5.661 4.427 1.811-30.201 1.811-30.201l10.466-4.762z" fill="#455a64"/><path d="m155.269 123.008-4.867 6.747-18.944 7.007-8.592 64.419-6.997 57.608s13.212 2.351 16.487-2.444c3.819-5.593 33.652-.554 35.638.946l3.88-13.024 3.143 15.079s5.516 1.243 8.397-7.004l-1.223-28.585s3.88-51.535 3.664-59.307c-.217-7.772-5.475-29.354-5.475-29.354l-1.96 6.363-17.058-14.547-6.093-3.904z" fill="#455a64"/><path d="M136.931 134.797s-12.445-.042-16.469 23.014c-4.024 23.057-9.814 47.792-6.834 57.042 2.98 9.25 14.673 35.897 14.673 35.897l16.035-5.779-6.577-41.849 7.612-40.956c.001.001.94-25.686-8.44-27.369z" fill="#455a64"/><path d="m150.915 253.916-6.579-8.945-13.622 4.895s-.455 4.343.085 9.467c.477 4.531 1.258 9.382 1.258 9.382l16.126-8.6s.68 3.36 1.576 5.235c.897 1.875 4.009-.112 4.009-.112l-2.853-11.322z" fill="#ffbe9d"/><path d="M145.372 162.167s-.028.251-.108.734l-.371 2.141-1.473 8.199-5.478 29.915.001-.062 6.623 41.841.03.189-.181.065-16.032 5.786-.212.076-.089-.205-5.094-11.818c-3.063-7.248-6.04-14.331-8.61-21.302-.327-.869-.614-1.75-.913-2.622-.141-.44-.227-.903-.342-1.352-.116-.451-.22-.903-.254-1.362-.111-.913-.235-1.821-.237-2.728-.042-.907-.069-1.808-.027-2.703.077-3.582.432-7.07.884-10.451.881-6.769 2.078-13.14 3.17-19.103l3.093-16.575c.431-2.538.937-4.948 1.44-7.221l.941-3.26c.357-1.037.754-2.024 1.111-2.987 1.577-3.794 3.611-6.792 5.748-8.755 2.12-1.989 4.212-2.974 5.66-3.417a9.718 9.718 0 0 1 1.69-.369l.44-.033c.099 0 .149.007.149.007s-.199.02-.582.075a10.75 10.75 0 0 0-1.668.413c-1.427.469-3.482 1.471-5.56 3.46-2.095 1.963-4.087 4.946-5.629 8.722-.348.959-.736 1.941-1.085 2.973l-.918 3.245c-.489 2.263-.98 4.66-1.402 7.207l-3.036 16.588c-1.074 5.963-2.256 12.334-3.122 19.087-.445 3.373-.793 6.849-.865 10.402-.04.889-.011 1.78.03 2.674.003.899.127 1.787.236 2.681.034.452.136.889.249 1.324.113.436.193.878.333 1.312.298.866.583 1.74.91 2.607 2.568 6.948 5.549 14.031 8.609 21.275l5.089 11.813-.3-.129 16.037-5.773-.151.254-6.531-41.856-.005-.032.006-.031 5.637-29.886 1.571-8.18.423-2.132c.1-.478.165-.721.165-.721zm33.046-20.709c.022.012-.109.31-.372.855l-1.163 2.33-4.187 8.098-.163.316-.211-.29a129.715 129.715 0 0 0-15.158-17.298c-1.363-1.311-2.495-2.342-3.273-3.059-.784-.711-1.208-1.116-1.186-1.142.021-.025.486.332 1.309 1 .817.675 1.986 1.67 3.383 2.952 2.803 2.552 6.514 6.272 10.215 10.729a112.332 112.332 0 0 1 5.069 6.559l-.375.026 4.341-8.016 1.273-2.272c.303-.523.476-.8.498-.788zm4.197 3.436c.162-.058.966 2.868.392 6.77l-.101.685-.339-.629c-.18-.334-.36-.689-.529-1.057-.904-2.03-1.389-3.956-1.888-5.289-.478-1.342-.874-2.134-.81-2.17.051-.03.559.714 1.126 2.046.587 1.322 1.13 3.242 2.01 5.214.165.358.337.703.509 1.029l-.44.056c.344-1.81.252-3.54.223-4.727-.04-1.207-.201-1.908-.153-1.928zm-3.38-.113c.008 0 .015.087.021.258l.012.756c.008.665.004 1.646-.013 2.908a270.404 270.404 0 0 1-.391 10.689c-.477 9.021-1.578 21.447-2.706 35.174l-3.007 35.151-.966 10.648-.287 2.893-.087.751c-.022.169-.038.255-.046.255-.008-.001-.009-.088-.003-.259l.039-.755.197-2.9.814-10.66 2.867-35.163c1.128-13.728 2.282-26.147 2.846-35.154.29-4.503.451-8.151.544-10.673l.104-2.905.035-.756c.009-.171.019-.258.027-.258zm6.717 22.399c.133.01-.584 12.748-1.6 28.447-1.016 15.705-1.947 28.424-2.08 28.413-.132-.01.583-12.745 1.6-28.45 1.016-15.699 1.947-28.421 2.08-28.41z" fill="#263238"/><path d="M148.484 151.772c-.088.005-.086-1.15-.544-2.92-.445-1.759-1.459-4.142-3.34-6.191-1.883-2.049-4.171-3.262-5.887-3.854-1.726-.606-2.876-.702-2.863-.789.003-.03.291-.036.809.016.518.051 1.264.182 2.16.45 1.783.522 4.182 1.727 6.135 3.852 1.951 2.125 2.948 4.618 3.317 6.438.191.915.259 1.67.265 2.191.009.52-.022.807-.052.807z" fill="#263238"/><path d="M182.93 220.164c3.507-9.47 4.059-19.975 1.76-29.809-.63 10.014-1.155 20.027-1.785 30.04m-38.197-54.66c-4.108 21.338-7.444 41.583-6.979 38.783l6.607 40.454 3.9 5.779c-3.395-27.15-6.197-57.978-3.528-85.016z" opacity=".3"/><path d="M148.145 260.287c.063.117-4.121 2.465-9.342 5.243-5.223 2.779-9.507 4.936-9.569 4.818-.062-.117 4.12-2.464 9.343-5.243 5.221-2.778 9.505-4.935 9.568-4.818z" fill="#455a64"/><path d="M141.124 186.463c-.037.073-1.345-.542-3.5-1.427a77.445 77.445 0 0 0-8.595-2.954 77.376 77.376 0 0 0-8.893-1.884c-2.303-.348-3.741-.493-3.735-.575.003-.036.365-.039 1.02-.014.655.021 1.6.095 2.764.224 2.328.254 5.531.795 8.983 1.747 3.449.957 6.475 2.139 8.603 3.117 1.065.488 1.913.91 2.486 1.229.573.316.883.505.867.537zm-1.621 32.475c.013.034-.27.175-.795.403-.523.231-1.294.531-2.257.872-1.926.684-4.642 1.487-7.704 2.096-3.065.605-5.882.898-7.923.999a34.213 34.213 0 0 1-2.419.054c-.572-.011-.887-.034-.888-.07-.002-.08 1.257-.156 3.28-.352a81.764 81.764 0 0 0 7.85-1.143 81.651 81.651 0 0 0 7.691-1.935c1.944-.589 3.137-.999 3.165-.924zm8.504-63.367c-.085.059-.891-1.199-2.546-2.915-.819-.865-1.888-1.802-3.145-2.744a27.93 27.93 0 0 0-4.393-2.597 27.953 27.953 0 0 0-4.824-1.669c-1.532-.348-2.938-.556-4.128-.622-2.379-.151-3.86.048-3.87-.054-.005-.036.361-.102 1.031-.191a9.052 9.052 0 0 1 1.225-.105c.479-.014 1.027-.06 1.631-.017 1.211.019 2.648.192 4.217.522a26.04 26.04 0 0 1 4.935 1.664 26.117 26.117 0 0 1 4.461 2.685c1.266.983 2.329 1.967 3.127 2.877.423.433.743.88 1.042 1.255.304.371.535.715.713 1.002.368.568.554.89.524.909zm24.697 75.672c-.006.035-.456-.011-1.264-.126-.808-.114-1.974-.3-3.412-.546a340.446 340.446 0 0 1-11.197-2.128 338.626 338.626 0 0 1-11.125-2.484 130.611 130.611 0 0 1-3.349-.851c-.787-.215-1.219-.35-1.21-.385s.455.034 1.256.188l3.384.689 11.149 2.333 11.159 2.276 3.38.708c.798.176 1.235.291 1.229.326zm2.707-35.847c-.011.143-8.036-.341-17.922-1.081-9.89-.74-17.896-1.457-17.885-1.6.011-.143 8.034.34 17.924 1.081 9.887.74 17.894 1.457 17.883 1.6zm2.626-31.552c.002.036-.457.092-1.289.163-.832.072-2.038.15-3.529.226-2.982.152-7.106.27-11.662.244a212.098 212.098 0 0 1-11.66-.383c-1.49-.093-2.694-.186-3.525-.268-.831-.081-1.29-.143-1.287-.178.002-.036.465-.043 1.299-.024l3.531.103c2.98.094 7.097.202 11.646.23 4.548.026 8.665-.034 11.646-.092l3.532-.061c.833-.008 1.296.004 1.298.04zm-21.286-29.46c.01.078-.913.242-2.388.555-1.475.312-3.5.8-5.686 1.502a58.548 58.548 0 0 0-5.495 2.099c-1.381.606-2.226 1.011-2.263.943-.032-.057.753-.578 2.105-1.275a37.25 37.25 0 0 1 5.493-2.262 37.317 37.317 0 0 1 5.78-1.369c1.505-.222 2.446-.258 2.454-.193zm20.018 11.294c-.026.025-.353-.257-.922-.788l-2.397-2.262a311.922 311.922 0 0 0-8.015-7.333 310.377 310.377 0 0 0-8.289-7.025l-2.546-2.091c-.599-.498-.92-.787-.898-.815.022-.029.384.206 1.021.655a84.096 84.096 0 0 1 2.652 1.964 162.201 162.201 0 0 1 8.404 6.923 162.625 162.625 0 0 1 7.928 7.46 84.679 84.679 0 0 1 2.283 2.382c.526.575.805.905.779.93zm9.164 18.745c-.025.147-1.661-.025-3.678-.11-2.018-.092-3.662-.065-3.674-.214-.014-.138 1.641-.4 3.697-.306 2.055.087 3.681.494 3.655.63zm-2.36 33.349c-.003.144-1.679.221-3.742.173-2.064-.048-3.733-.204-3.73-.348.003-.144 1.678-.221 3.742-.173 2.063.048 3.733.204 3.73.348zm-1.164 33.331c.026.142-2.085.648-4.714 1.131-2.63.483-4.782.76-4.808.618-.026-.141 2.084-.647 4.714-1.13 2.629-.483 4.782-.76 4.808-.619zm15.632-26.061c-.068.034-.572-.857-1.388-2.292a157.146 157.146 0 0 0-3.287-5.541 157.653 157.653 0 0 0-3.535-5.387c-.931-1.363-1.509-2.207-1.449-2.253.054-.042.737.724 1.747 2.037a68.354 68.354 0 0 1 3.679 5.327 68.335 68.335 0 0 1 3.17 5.643c.735 1.487 1.124 2.436 1.063 2.466z" fill="#fff"/></svg>