<svg xmlns="http://www.w3.org/2000/svg" viewBox="0 0 500 500" style="enable-background:new 0 0 500 500" xml:space="preserve"><path style="fill:#ebebeb" d="M429.753 42.86c-11.46.302-20.503 9.837-20.201 21.296.302 11.455 9.837 20.499 21.296 20.197 11.455-.302 20.499-9.837 20.197-21.292-.302-11.46-9.837-20.504-21.292-20.201zm.904 34.218c-7.446.197-13.634-5.673-13.831-13.113-.197-7.446 5.674-13.634 13.119-13.831 7.44-.196 13.628 5.673 13.824 13.119.198 7.44-5.672 13.629-13.112 13.825z"/><path style="fill:#ebebeb" d="m433.763 43.617-7.978.21.292-5.659 7.095-.187zM418.649 46.705l-5.492 5.79-3.795-4.208 4.885-5.149zM410.146 59.576l.211 7.978-5.659-.292-.187-7.096zM413.235 74.69l5.79 5.492-4.208 3.795-5.15-4.885zM426.106 83.192l7.977-.21-.291 5.659-7.096.187zM441.219 80.104l5.493-5.79 3.794 4.208-4.885 5.149zM449.722 67.233l-.21-7.978 5.658.292.188 7.096zM446.634 52.119l-5.791-5.492 4.208-3.795 5.15 4.885z"/><g><path style="fill:#ebebeb" d="M211.137 304.844c-11.459.302-20.503 9.837-20.201 21.296.302 11.455 9.837 20.499 21.296 20.197 11.455-.302 20.499-9.837 20.197-21.292-.302-11.459-9.837-20.503-21.292-20.201zm.904 34.218c-7.446.197-13.634-5.673-13.831-13.113-.197-7.446 5.673-13.634 13.119-13.831 7.44-.196 13.628 5.673 13.824 13.119.198 7.441-5.672 13.629-13.112 13.825z"/><path style="fill:#ebebeb" d="m215.147 305.601-7.978.21.292-5.658 7.095-.188zM200.033 308.69l-5.492 5.79-3.795-4.208 4.885-5.15zM191.53 321.561l.211 7.977-5.659-.292-.187-7.095zM194.619 336.674l5.79 5.492-4.208 3.795-5.15-4.885zM207.49 345.177l7.977-.211-.292 5.659-7.095.188zM222.603 342.088l5.492-5.79 3.795 4.208-4.885 5.15zM231.106 329.217l-.21-7.977 5.658.292.188 7.095zM228.017 314.104l-5.79-5.492 4.208-3.795 5.15 4.885z"/></g><g><path style="fill:#ebebeb" d="M99.088 195.992c-24.717.652-44.224 21.217-43.572 45.935.652 24.707 21.217 44.215 45.934 43.562 24.707-.652 44.215-21.217 43.562-45.925-.651-24.716-21.217-44.224-45.924-43.572zm1.95 73.807c-16.061.424-29.408-12.237-29.832-28.284-.424-16.061 12.237-29.408 28.298-29.832 16.047-.424 29.394 12.237 29.818 28.297.424 16.048-12.237 29.395-28.284 29.819z"/><path style="fill:#ebebeb" d="m107.736 197.625-17.207.454.63-12.206 15.304-.404zM75.137 204.287l-11.846 12.488-8.185-9.076 10.536-11.107zM56.798 232.048l.454 17.208-12.206-.63-.404-15.305zM63.459 264.647l12.489 11.846-9.076 8.185-11.107-10.536zM91.221 282.987l17.207-.454-.63 12.205-15.304.404zM123.819 276.325l11.847-12.489 8.185 9.076-10.536 11.108zM142.16 248.564l-.455-17.208 12.206.63.404 15.305zM135.498 215.965l-12.489-11.847 9.076-8.185 11.108 10.536z"/></g><g><path style="fill:#dbdbdb" d="M339.388 359.589v115.472h69.804V359.589h-69.804zm63.466 72.856h-57.128v-30.06h57.128v30.06zm0-37.217h-57.128v-30.06h57.128v30.06z"/><path style="fill:#ebebeb" d="M409.195 359.589h31.563v115.469h-31.563zM345.727 365.165h13.576v30.059h-13.576z"/><path style="fill:none;stroke:#ebebeb;stroke-width:.5;stroke-miterlimit:10" d="M346.083 439.152h56.772v28.66h-56.772z"/><path style="fill:#ebebeb" d="M368.831 447.215h11.276v4.122h-11.276zM345.727 402.388h13.576v30.059h-13.576z"/><path transform="rotate(90 390.265 418.59)" style="fill:#a6a6a6" d="M376.409 413.814h27.712v9.551h-27.712z"/><path transform="rotate(90 390.265 425.006)" style="fill:#dbdbdb" d="M387.275 420.23h5.979v9.551h-5.979z"/><path transform="rotate(90 390.265 415.43)" style="fill:#dbdbdb" d="M388.492 410.655h3.547v9.551h-3.547z"/><g><path style="fill:#ebebeb" d="M362.384 372.034h24.136v23.194h-24.136z"/><path style="fill:#c7c7c7" d="M386.521 372.034h9.173v23.194h-9.173zM362.384 383.631h24.137l-18.85.597zM386.521 392.426h-24.137l18.85.597zM362.384 377.148h15.289l-13.591.488zM386.521 389.012h-15.289l13.591.487zM368.174 374.567h17.244l-2.874.292zM364.73 386.118h17.244l-2.874.292z"/><path style="fill:#ebebeb" d="M375.335 379.357h11.186l1.998.779zM359.303 379.357h11.186l1.998.779zM373.656 389.781H362.47l-1.998.779z"/><path style="fill:#c7c7c7" d="M386.521 387.134h8.982l1.999.779zM389.656 383.631h6.966l-.928-.637z"/></g><g><path style="fill:#ebebeb" d="M395.041 402.881h7.814v29.564h-7.814z"/><path style="fill:#fff" d="M398.948 408.713a1.627 1.627 0 1 1 0-3.254 1.627 1.627 0 0 1 0 3.254z"/><path style="fill:#a6a6a6" d="M398.948 408.016a.93.93 0 1 1 0-1.86.93.93 0 0 1 0 1.86z"/><path transform="rotate(90 398.948 424.192)" style="fill:#fff" d="M395.351 420.285h7.194v7.814h-7.194z"/></g><g><path style="fill:#c7c7c7" d="M355.925 426.343h29.564v6.146h-29.564z"/><path style="fill:#fff" d="M379.658 429.416a1.627 1.627 0 1 1 3.254 0 1.627 1.627 0 0 1-3.254 0z"/><path style="fill:#a6a6a6" d="M380.354 429.416a.93.93 0 1 1 1.859-.001.93.93 0 0 1-1.859.001z"/><path transform="rotate(-180 364.179 429.416)" style="fill:#fff" d="M360.582 426.343h7.194v6.146h-7.194z"/></g></g><g><path transform="rotate(-81.292 330.248 174.131)" style="fill:#ebebeb" d="M215.343 87.613h229.844v173.041H215.343z"/><g style="opacity:.1"><path transform="rotate(-81.292 330.248 174.131)" style="fill:#020100" d="M215.343 87.613h229.844v173.041H215.343z"/></g><path transform="rotate(-81.292 325.598 173.419)" style="fill:#ebebeb" d="M210.693 86.901h229.844v173.041H210.693z"/><g><path transform="rotate(-82.022 327.405 172.447)" style="fill:#ebebeb" d="M223.875 96.059h207.076v152.759H223.875z"/><path transform="rotate(-80.055 325.074 172.08)" style="fill:#dbdbdb" d="M221.55 95.703h207.076v152.759H221.55z"/><path transform="rotate(-81.292 325.07 172.08)" style="fill:#fff" d="M221.55 95.703h207.076v152.759H221.55z"/><path style="fill:#c7c7c7" d="M290.056 127.192a1195.47 1195.47 0 0 1-15.641-2.001c.592-4.577 1.607-10.985 2.265-15.618l.073-.497.496.079c4.64.768 11.013 1.705 15.581 2.513a1171.885 1171.885 0 0 1-2.774 15.524zm0 0c.453-3.813 1.437-11.471 1.95-15.271l.322.438c-4.409-.603-10.762-1.564-15.23-2.217l.569-.418c-.714 4.483-1.695 10.784-2.446 15.195l-.32-.436c3.78.643 11.383 2.008 15.155 2.709zM300.067 115.824a281.838 281.838 0 0 1 33.547 5.139 281.54 281.54 0 0 1-33.547-5.139zM299.506 119.486c28.703 3.725 60.506 8.613 89.029 13.639-28.725-3.745-60.521-8.6-89.029-13.639z"/><path style="fill:#263238" d="M277.251 116.639c.49.554.949 1.124 1.403 1.698.459.571.885 1.161 1.329 1.74a96.578 96.578 0 0 1 2.508 3.566l-1.762-.156c1.821-2.679 3.845-5.19 6.01-7.583a57.517 57.517 0 0 1 3.408-3.455c1.195-1.103 2.434-2.168 3.802-3.127-.698 1.518-1.524 2.928-2.394 4.301a57.881 57.881 0 0 1-2.788 3.972c-1.966 2.559-4.073 5-6.383 7.272l-1.15 1.131-.613-1.287a97.295 97.295 0 0 1-1.797-3.972c-.273-.677-.565-1.344-.823-2.029a38.567 38.567 0 0 1-.75-2.071z"/><path style="fill:#c7c7c7" d="M285.69 155.693a1195.47 1195.47 0 0 1-15.641-2.001c.592-4.577 1.607-10.985 2.265-15.618l.073-.497.496.079c4.64.768 11.013 1.705 15.581 2.512a1174.954 1174.954 0 0 1-2.774 15.525zm0 0c.453-3.813 1.437-11.471 1.95-15.271l.322.438c-4.409-.603-10.762-1.564-15.23-2.217l.569-.418c-.714 4.483-1.695 10.784-2.446 15.195l-.32-.436c3.78.642 11.383 2.007 15.155 2.709zM295.701 144.325a281.682 281.682 0 0 1 33.548 5.139 281.933 281.933 0 0 1-33.548-5.139zM295.14 147.986c28.703 3.725 60.506 8.613 89.029 13.639-28.725-3.745-60.521-8.599-89.029-13.639z"/><path style="fill:#263238" d="M272.885 145.139c.49.554.949 1.124 1.403 1.698.459.571.885 1.161 1.329 1.74a96.578 96.578 0 0 1 2.508 3.566l-1.762-.156c1.821-2.679 3.845-5.19 6.01-7.583a57.517 57.517 0 0 1 3.408-3.455c1.195-1.103 2.434-2.168 3.802-3.126-.697 1.518-1.524 2.928-2.394 4.301a57.547 57.547 0 0 1-2.789 3.972c-1.966 2.559-4.073 5-6.383 7.272l-1.15 1.131-.613-1.287a97.295 97.295 0 0 1-1.797-3.972c-.273-.677-.565-1.344-.823-2.029a39.807 39.807 0 0 1-.749-2.072z"/><g><path style="fill:#c7c7c7" d="M291.335 172.825a281.634 281.634 0 0 1 33.547 5.139 281.948 281.948 0 0 1-33.547-5.139zM290.774 176.486c28.703 3.725 60.506 8.613 89.03 13.639-28.726-3.745-60.522-8.599-89.03-13.639zM281.335 184.116a1195.47 1195.47 0 0 1-15.641-2.001c.592-4.577 1.607-10.985 2.265-15.617l.073-.497.496.079c4.64.768 11.013 1.705 15.581 2.513-.677 3.97-2.027 11.568-2.774 15.523zm0 0c.453-3.813 1.437-11.471 1.95-15.271l.322.438c-4.409-.603-10.762-1.564-15.23-2.217l.569-.418c-.714 4.483-1.695 10.784-2.446 15.195l-.32-.436c3.78.642 11.383 2.007 15.155 2.709z"/><path style="fill:#263238" d="M268.531 173.562c.489.554.949 1.124 1.403 1.698.459.571.885 1.161 1.329 1.74a96.578 96.578 0 0 1 2.508 3.566l-1.762-.156c1.821-2.679 3.845-5.19 6.01-7.583a57.517 57.517 0 0 1 3.408-3.455c1.194-1.103 2.434-2.168 3.802-3.126-.698 1.518-1.524 2.928-2.394 4.301a57.881 57.881 0 0 1-2.788 3.972c-1.966 2.559-4.073 5-6.383 7.272l-1.15 1.131-.613-1.287a97.295 97.295 0 0 1-1.797-3.972c-.273-.677-.565-1.344-.823-2.029a38.917 38.917 0 0 1-.75-2.072z"/></g><g><path style="fill:#c7c7c7" d="M276.958 212.693a1195.47 1195.47 0 0 1-15.641-2.001c.592-4.577 1.607-10.985 2.265-15.617l.073-.497.496.079c4.64.768 11.013 1.705 15.581 2.512a1171.885 1171.885 0 0 1-2.774 15.524zm0 0c.453-3.813 1.437-11.471 1.95-15.271l.322.438c-4.409-.603-10.762-1.564-15.23-2.217l.569-.418c-.714 4.483-1.695 10.784-2.446 15.195l-.32-.436c3.78.642 11.383 2.007 15.155 2.709zM286.969 201.325a281.838 281.838 0 0 1 33.547 5.139 281.744 281.744 0 0 1-33.547-5.139zM286.408 204.986c28.703 3.725 60.506 8.613 89.029 13.639-28.725-3.745-60.521-8.599-89.029-13.639z"/></g><g><path style="fill:#c7c7c7" d="M272.591 241.193a1195.47 1195.47 0 0 1-15.641-2.001c.592-4.577 1.607-10.985 2.265-15.617l.073-.497.496.079c4.64.768 11.013 1.705 15.581 2.512a1140.153 1140.153 0 0 1-2.774 15.524zm0 0c.453-3.813 1.437-11.471 1.95-15.271l.322.438c-4.409-.603-10.762-1.564-15.23-2.217l.569-.418c-.714 4.483-1.695 10.784-2.446 15.195l-.32-.436c3.78.642 11.384 2.007 15.155 2.709zM282.603 229.825a281.838 281.838 0 0 1 33.547 5.139 281.54 281.54 0 0 1-33.547-5.139zM282.042 233.486c28.703 3.725 60.506 8.613 89.029 13.639-28.725-3.745-60.521-8.599-89.029-13.639z"/></g><g><path style="fill:#c7c7c7" d="M315.2 98.584a212.312 212.312 0 0 1 41.325 6.33 212.184 212.184 0 0 1-41.325-6.33zM295.655 89.445a840.298 840.298 0 0 1 82.256 12.601 840.6 840.6 0 0 1-82.256-12.601z"/></g></g><g><path transform="rotate(-81.292 340.264 66.735)" style="fill:#c7c7c7" d="M328.842 29.216h22.876v75.033h-22.876z"/><path style="fill:#c7c7c7" d="m366.582 46.537-46.028-7.051-3.934 12.049 50.788 7.78-.826-12.778zm-24.04 5.42a2.744 2.744 0 1 1 .831-5.427 2.743 2.743 0 0 1 2.297 3.129 2.739 2.739 0 0 1-3.128 2.298z"/><path style="fill:#a6a6a6" d="m367.408 59.316-50.788-7.781.88-2.697 49.72 7.617z"/></g></g><g><path style="fill:#263238" d="M48.356 475.061c129.186-.612 274.103-.617 403.288 0-129.186.616-274.103.612-403.288 0z"/></g><g><path transform="rotate(-180 286.116 392.811)" style="fill:#a6a6a6" d="M283.341 390.841h5.549v3.941h-5.549z"/><path transform="rotate(-180 286.116 412.459)" style="fill:#c7c7c7" d="M281.098 394.782h10.035v35.354h-10.035z"/><path transform="rotate(-180 293.338 415.493)" style="fill:#a6a6a6" d="M291.133 414.561h4.41v1.862h-4.41z"/><path transform="rotate(-180 300.029 415.493)" style="fill:#c7c7c7" d="M295.543 413.579h8.971v3.828h-8.971z"/><path transform="rotate(-180 286.271 435.97)" style="fill:#c7c7c7" d="M279.804 430.136h12.935v11.667h-12.935z"/><path style="fill:#a6a6a6" d="M284.805 466.131h2.696l1.51-30.886h-5.716zM321.51 462.891l2.397-1.835-31.169-27.544v8.291zM251.032 462.891l-2.397-1.835 31.169-27.544v8.291z"/><path transform="rotate(-180 286.116 428.606)" style="fill:#a6a6a6" d="M281.098 427.077h10.035v3.059h-10.035z"/><path style="fill:#263238" d="M315.065 468.297a6.551 6.551 0 0 0 6.552 6.552 6.552 6.552 0 1 0-6.552-6.552z"/><path style="fill:#fff" d="M318.537 468.297a3.08 3.08 0 1 0 6.16 0 3.08 3.08 0 0 0-6.16 0z"/><g><path style="fill:#263238" d="M244.342 468.297a6.551 6.551 0 0 0 6.552 6.552 6.552 6.552 0 1 0-6.552-6.552z"/><path style="fill:#fff" d="M247.815 468.297a3.08 3.08 0 1 0 6.16 0 3.08 3.08 0 0 0-6.16 0z"/></g><path transform="rotate(-180 286.23 469.458)" style="fill:#263238" d="M284.173 464.068h4.112v10.782h-4.112z"/><g><path style="fill:#ffc727" d="M240.793 390.841h103.501v-7.867h-38.746l-13.022-78.801h-47.787z"/><path style="opacity:.3" d="M240.793 390.841h103.501v-7.867h-38.746l-13.022-78.801h-47.787z"/><path style="opacity:.2" d="M305.548 382.972h-57.702l3.448-78.801h41.231z"/><path style="opacity:.5;fill:#ffc727" d="M283.999 382.972h60.295v7.869h-60.295z"/></g><g><path style="fill:#eb9481" d="M366.318 474.245c-1.971.166-50.81-12.688-52.478-14.442-.648-.653.781-8.35 2.777-17.598l6.581-26.018 31.335 7.645-5.267 27.137s15.448 13.263 17.084 15.382c1.621 2.106 1.937 7.736-.032 7.894z"/><path style="fill:#ebebeb" d="M366.317 474.242c-1.972.17-50.81-12.688-52.475-14.438-.646-.653.777-8.352 2.775-17.598 0-.007.222-.888.588-2.325l32.663 8.006-.601 3.082s15.45 13.263 17.083 15.378c1.619 2.109 1.939 7.738-.033 7.895z"/><path style="fill:#ffc727" d="M367.068 475.06c-1.907.133-52.144-12.879-53.746-14.586-.611-.644.952-8.449 2.981-17.372l33.971 8.512s14.996 13.03 16.552 15.091c1.546 2.058 2.149 8.222.242 8.355z"/><path style="opacity:.5" d="M367.068 475.06c-1.907.133-52.144-12.879-53.746-14.586-.611-.644.952-8.449 2.981-17.372l33.971 8.512s14.996 13.03 16.552 15.091c1.546 2.058 2.149 8.222.242 8.355z"/><path style="fill:#263238" d="M366.868 472.863c-8.367-2.388-42.342-11.229-50.795-12.954-.069-.014-.081.032-.014.053 8.242 2.548 42.288 11.114 50.773 13.039.179.041.213-.087.036-.138zM364.421 464.775c-1.976-.599-4.174-.156-5.571.752-1.342.872-2.653 2.247-3.047 4.008-.011.051.081.076.102.026 1.334-3.171 5.082-5.289 8.488-4.681.069.013.095-.084.028-.105zM353.373 453.543c-3.213-1.344-7.416-1.709-10.486.126-.119.071-.016.239.1.228 3.525-.331 6.753-.337 10.282.066.248.028.334-.324.104-.42zM355.476 455.517c-3.213-1.344-7.416-1.709-10.486.126-.119.071-.016.239.1.228 3.525-.332 6.752-.337 10.282.066.249.029.334-.323.104-.42zM357.579 457.492c-3.213-1.343-7.416-1.709-10.486.126-.119.071-.016.239.1.228 3.526-.331 6.753-.337 10.282.066.249.029.334-.323.104-.42z"/><path style="opacity:.1" d="M328.305 465.257c-8.117-2.266-14.431-4.192-14.986-4.78-.477-.509.392-5.472 1.776-11.917l13.21 16.697z"/><g><path style="fill:#263238" d="m349.61 451.05-33.307-7.948s9.772-56.776 8.358-58.719c-2.675-3.675-43.344-2.892-55.886-15.359-13.28-13.198-7.485-29.884-7.485-29.884h36.373s2.456 6.239 3.121 6.433c8.245 2.406 38.17 4.539 49.944 13.971 3.034 2.431 8.149 8.75 9.193 15.055 3.317 20.018-10.311 76.451-10.311 76.451z"/><path style="fill:#37474f" d="M318.527 436.962c1.02.018 2.018.242 3.014.44 1.022.204 2.046.405 3.067.613 2.08.425 4.161.851 6.24 1.283 4.157.864 8.304 1.758 12.436 2.737 2.328.551 4.631 1.193 6.937 1.826.091.025.055.159-.037.144-8.396-1.362-16.669-3.235-24.955-5.144-1.128-.26-2.254-.526-3.38-.791-1.132-.267-2.289-.491-3.36-.956-.074-.03-.037-.153.038-.152zM315.598 382.044c-13.393-1.868-37.646-3.898-46.82-13.021-13.282-13.197-7.49-29.882-7.49-29.882h25.964l28.346 42.903z"/><path style="fill:#37474f" d="M322.6 433.912c-.085.481.187.759.353 0 3.906-17.879 6.752-40.192 7.043-43.099.145-1.454.272-2.91.338-4.375.033-.732.054-1.466.039-2.204-.024-.74-.042-1.478-.231-2.238a2.53 2.53 0 0 0-.21-.578 1.49 1.49 0 0 0-.432-.501 4.366 4.366 0 0 0-1.026-.564c-.698-.29-1.407-.496-2.119-.684-1.424-.371-2.859-.657-4.296-.924-2.875-.528-5.758-.968-8.639-1.412-5.766-.864-11.533-1.703-17.257-2.769-5.711-1.085-11.435-2.3-16.854-4.372-2.672-1.074-5.35-2.359-7.197-4.619-1.979-2.102-3.625-4.531-4.8-7.183-2.354-5.304-3.065-11.312-2.229-17.071-.94 5.744-.346 11.789 1.937 17.199 1.156 2.698 2.804 5.179 4.791 7.336.509.531.971 1.098 1.549 1.578.569.479 1.181.897 1.808 1.286 1.263.763 2.596 1.393 3.956 1.941 2.721 1.1 5.535 1.924 8.369 2.636 2.835.711 5.695 1.309 8.562 1.854 5.736 1.087 11.507 1.949 17.269 2.83 2.881.434 5.763.864 8.625 1.38 1.43.26 2.856.54 4.254.899.697.182 1.391.382 2.041.65.325.13.639.289.887.478a.878.878 0 0 1 .278.315c.065.128.121.282.16.446.168.656.196 1.388.22 2.101.018.719-.001 1.443-.031 2.167a80.214 80.214 0 0 1-.321 4.344 237.183 237.183 0 0 1-1.046 8.67c-.799 5.768-4.773 28.743-5.791 34.483z"/></g><g><path style="fill:#eb9481" d="M326.513 474.152c-1.882.607-45.012-.088-47.035-1.413-.778-.49-1.132-8.312-1.289-17.775l-.002-.296c-.036-1.95-.062-3.959-.065-5.994-.001-.28-.001-.56-.01-.84-.075-13.657 1.426-27.501 1.426-27.501l34.596.033-1.08 27.566-.041 1.092-.216 5.706-.021.587s9.903 9.45 11.977 11.141c2.056 1.684 3.642 7.095 1.76 7.694z"/><path style="fill:#ffc727" d="M328.402 474.333c-1.818.592-47.298.181-49.268-1.085-.749-.477-1.13-8.427-1.331-17.576h35.747s11.096 9.601 13.107 11.221c1.999 1.622 3.562 6.848 1.745 7.44z"/><path style="opacity:.5" d="M328.402 474.333c-1.818.592-47.298.181-49.268-1.085-.749-.477-1.13-8.427-1.331-17.576h35.747s11.096 9.601 13.107 11.221c1.999 1.622 3.562 6.848 1.745 7.44z"/><path style="fill:#263238" d="M327.674 472.251c-8.697-.282-37.39-.601-46.009-.219-.07.003-.07.051 0 .055 8.614.468 37.309.502 46.008.307.183-.004.184-.136.001-.143zM325.817 466.714c-4.751-2.334-10.173-2.92-13.699-2.157-3.388.732-6.763 2.397-7.945 5.342-.034.085.188.189.246.112 3.658-4.906 13.076-6.378 21.319-3.123.166.066.242-.094.079-.174zM314.569 460.841c-5.189-1.401-11.141-1.318-16.262.602-.178.067.042.297.219.278 5.386-.56 10.3-1.002 15.999-.356.392.045.43-.42.044-.524zM312.74 458.62c-5.189-1.401-11.141-1.318-16.262.602-.178.067.042.297.219.279 5.386-.561 10.3-1.002 15.998-.356.394.044.431-.421.045-.525zM310.911 456.399c-5.189-1.401-11.141-1.318-16.262.602-.178.067.042.297.219.278 5.386-.56 10.3-1.002 15.998-.356.393.045.431-.42.045-.524z"/><g><path style="fill:#263238" d="m313.928 456.241-36.656-.28s.255-60.296-1.548-65.066c-1.84-4.868-8.457-8.3-16.538-17.652-12.244-14.17-1.554-34.085-1.554-34.085l35.82-.018s4.653 11.741 4.375 16.497c0 0-3.839.245-6.171.247 0 0 16.674 13.79 20.93 26.712 3.648 11.072 1.342 73.645 1.342 73.645z"/><path style="fill:#37474f" d="M281.443 356.706c3.32-.824 6.742-1.103 10.154-1.199 3.464-.098 6.91.108 10.345.513.094.011.093.146-.004.149-3.417.116-6.838.298-10.252.488-3.397.189-6.794.467-10.197.468-.241-.001-.278-.362-.046-.419zM263.944 352.048c1.622-.149 3.165-.635 4.724-1.071 1.293-.362 2.445-.797 3.379-1.798 1.807-1.937 2.561-4.588 3.961-6.786.048-.075.15-.019.135.061-.297 1.52-.812 3.046-1.323 4.508-.433 1.239-1.077 2.455-1.991 3.406-2.239 2.329-5.935 2.033-8.892 1.986-.202-.003-.184-.288.007-.306zM279.249 448.773c1.024-.209 2.073-.214 3.114-.242 1.069-.029 2.138-.061 3.207-.085 2.177-.049 4.355-.097 6.532-.139 4.355-.084 8.705-.135 13.06-.1 2.454.019 4.903.132 7.354.236.097.004.091.143-.004.149-8.707.542-17.407.557-26.129.541-1.187-.002-2.374-.01-3.561-.018-1.193-.008-2.401.031-3.579-.184-.079-.015-.069-.143.006-.158zM296.193 340.622c-.172 2.166-.292 4.34-.556 6.497-.124 1.015-.22 2.05-.418 3.054-.084.424-.209.872-.549 1.163-.342.294-.868.399-1.306.445-.989.102-1.664-.333-1.761-1.383-.182-1.973.395-8.83.409-9.396.003-.109-.363-.113-.376-.005-.531 4.326-1.244 9.845-.333 10.786 1.013 1.047 2.76 1.079 3.762.262.526-.429.729-1.115.824-1.762.139-.944.182-1.91.253-2.861.169-2.262.366-4.52.408-6.79.004-.201-.341-.212-.357-.01z"/><path style="fill:#37474f" d="M292.954 352.075c-.091.26-.112.551-.166.822-.055.276-.116.551-.184.824-.067.273-.128.547-.2.819-.072.271-.118.545-.178.82-.025.116.145.171.196.065.122-.254.242-.501.332-.769a13.156 13.156 0 0 0 .449-1.649c.059-.275.148-.576.147-.858-.002-.198-.328-.269-.396-.074zM259.017 342.547c-.658 4.611-1.039 9.277-.854 13.949.12 2.329.374 4.686 1.185 6.917.408 1.121 1.042 2.136 1.719 3.091.68.958 1.412 1.873 2.168 2.765 3.029 3.566 6.365 6.832 9.602 10.178 1.619 1.672 3.235 3.348 4.742 5.105.747.881 1.475 1.785 2.06 2.749.578.938.792 2.078 1.023 3.204.423 2.267.648 4.587.845 6.901.191 2.317.329 4.64.443 6.965.227 4.65.339 8 .452 12.656.103 4.657-.093 23.553-.108 27.952-.001.261.361.338.398.001.126-4.658.15-9.318.208-13.978.04-4.66.039-9.321-.002-13.982-.036-4.661-.156-8.016-.357-12.676a212.14 212.14 0 0 0-.415-6.987c-.189-2.327-.403-4.655-.825-6.971a17.742 17.742 0 0 0-.398-1.732 6.633 6.633 0 0 0-.711-1.679c-.63-1.026-1.375-1.938-2.137-2.829-1.535-1.773-3.163-3.446-4.793-5.113-3.26-3.332-6.588-6.595-9.658-10.08a40.719 40.719 0 0 1-2.182-2.703c-.681-.933-1.307-1.905-1.709-2.975-.818-2.149-1.084-4.487-1.256-6.794-.282-4.641 0-9.313.56-13.934z"/></g></g><g><path style="fill:#eb9481" d="M285.062 301.738c5.324 15.305 14.848 33.306 18.368 36.012 4.451 3.422 30.137 6.222 31.483 6.238 2.209.026 5.472-20.812 3.425-21.006-6.157-.585-22.852-1.342-24.146-2.409-1.344-1.117-10.666-10.55-20.368-21.3-6.695-7.43-12.065-7.031-8.762 2.465z"/><path style="fill:#eb9481" d="M333.454 343.918c2.193.652 12.505 2.755 15.506 2.698 3.001-.057 11.624-.846 11.814-3.149.19-2.302-2.353-2.273-2.353-2.273s3.589-.91 3.569-3.245c-.02-2.335-3.975-2.16-3.975-2.16s3.617-1.203 3.43-3.531c-.187-2.327-4.134-1.485-4.134-1.485s3.359-.946 2.398-2.799c-1.155-2.229-7.15.214-10.467.028-.754-.042-15.208-1.942-15.208-1.942l-.58 17.858z"/><path style="fill:#263238" d="M357.65 330.708c-4.413 1.786-6.652 1.804-11.264.973-.09-.016-.135.114-.042.14 4.442 1.226 7.255 1.608 11.404-.903.203-.123.113-.295-.098-.21zM358.362 335.642c-4.745 1.455-7.174 1.496-12.069.98-.069-.007-.089.109-.02.122 4.759.908 7.574 1.225 12.124-.852.206-.093.182-.317-.035-.25zM358.172 341.16c-4.696 1.077-7.357 1.237-12.044.126-.111-.026-.159.133-.051.17 4.669 1.598 7.992 1.422 12.113-.15.281-.107.277-.214-.018-.146z"/><g><path style="fill:#eb9481" d="M331.416 323.326s5.395-2.545 8.011-3.14c2.617-.595 13.184.776 13.018 3.075-.215 2.969-6.471 3.379-9.562 3.179 0 0-.491 6.867-4.917 8.134-4.426 1.266-6.55-11.248-6.55-11.248z"/><path style="fill:#263238" d="M352.119 324.058c-2.149 2.566-6.189 2.042-9.201 2.073-.229.002-.308.188-.272.362-.398 2.865-1.794 6.79-4.515 8.173-.08.04-.033.159.052.129 3.12-1.087 4.806-4.832 5.041-7.997 3.09.017 7.165.364 8.92-2.721.011-.017-.011-.036-.025-.019z"/></g><g><path style="fill:#ffc727" d="m333.793 320.563-3.207 24.995s-23.058-2.619-27.593-6.551c-4.536-3.931-14.496-25.702-17.897-36.41-3.401-10.708 2.165-11.043 8.009-4.697 5.844 6.346 20.344 21.691 21.092 21.977.749.286 19.596.686 19.596.686z"/><path style="fill:#263238" d="M325.77 334.816c.356-2.819.735-5.637.987-8.469.143-1.609.295-3.219.423-4.829.005-.061-.098-.077-.109-.016-.469 2.816-.934 5.641-1.275 8.478-.339 2.822-.702 5.642-1.005 8.469a80.385 80.385 0 0 0-.37 4.83c-.002.032.051.04.057.009.566-2.804.934-5.633 1.292-8.472z"/><path style="opacity:.1" d="M305.613 340.466c-1.125-.46-2.031-.946-2.618-1.456-4.54-3.934-14.493-25.707-17.9-36.416-2.438-7.684-.26-10.025 3.324-8.386 5.297 13.885 11.375 30.435 17.194 46.258z"/></g><g><path style="fill:#ffc727" d="M251.253 351.962c.116.137 49.866-6.071 50.347-6.589.673-.729-6.01-41.208-14.124-52.527-2.029-2.831-9.154-3.195-12.544-.756-16.797 12.081-24.092 59.378-23.679 59.872z"/></g><g><path style="fill:#f7a9a0" d="M270.12 296.579c-13.711 12.981-29.101 39.233-26.189 45.068 3.244 6.499 22.341-11.702 22.308-12.804-.025-.833 4.806-16.34 10.157-28.655 5.345-12.305-2.886-6.819-6.276-3.609z"/><path style="fill:#ffc727" d="M266.361 328.867c.627-1.816 7.986-22.712 10.756-29.783 2.486-6.347 1.384-9.025-4.092-5.225-10.082 6.996-26.272 28.187-30.277 39.686-3.858 11.078 3.596 11.49 11.378 6.589 6.373-4.013 12.235-11.267 12.235-11.267z"/><path style="fill:#263238" d="M265.073 331.997a315.43 315.43 0 0 1 9.366-25.604 315.569 315.569 0 0 1-9.366 25.604z"/><path style="fill:#263238" d="M272.714 311.378c.486-1.109 1.152-2.091 1.905-3.034-.407 1.134-1.096 2.145-1.905 3.034z"/></g><g><path style="fill:#263238" d="M275.033 293.54c.423.552.864 1.087 1.31 1.616.451.524.914 1.037 1.379 1.545a54.165 54.165 0 0 0 2.904 2.926 50.413 50.413 0 0 0 3.098 2.684 48.39 48.39 0 0 0 3.292 2.409l-.374.092a2.29 2.29 0 0 0 .089-.199c.032-.076.059-.159.088-.24.055-.165.107-.333.153-.504.096-.341.174-.69.251-1.04.153-.701.276-1.413.394-2.126.117-.714.218-1.431.325-2.148l.296-2.159a52.895 52.895 0 0 1-.077 2.181 44.264 44.264 0 0 1-.167 2.179c-.081.725-.172 1.45-.298 2.173-.068.361-.139.721-.229 1.081-.043.18-.093.36-.147.54-.03.09-.056.18-.091.272a2.158 2.158 0 0 1-.053.138c-.021.05-.035.087-.075.158l-.139.25-.235-.158c-1.142-.766-2.282-1.542-3.344-2.428-.543-.426-1.06-.886-1.583-1.34-.26-.228-.507-.472-.761-.708a22.141 22.141 0 0 1-.748-.722 39.231 39.231 0 0 1-2.806-3.081c-.88-1.079-1.72-2.198-2.452-3.391z"/><path style="fill:#eb9481" d="M284.339 300.646c-2.173-.104-6.296-4.565-7.734-8.137-.097-.245.542-2.628 1.183-5.559.382-1.78.765-3.772.983-5.614l11.223 4.176s-1.594 3.728-1.954 6.942c-.027.269-.03.522-.01.766 0 .035.005.078.002.127.062 1.463-.291 7.461-3.693 7.299z"/><path style="fill:#263238" d="m277.068 290.093 1.702-8.757 11.227 4.174-.557 1.366c.001 0-3.837 5.616-12.372 3.217z"/><g><path style="fill:#eb9481" d="M298.111 275.276c-1.07 4.179-9.128 13.228-13.016 13.972-5.637 1.079-11.778-2.228-11.915-8.298-.133-5.884 10.577-17.49 14.633-17.849 5.973-.528 11.878 6.002 10.298 12.175z"/><path style="fill:#263238" d="M287.317 274.724c-.135-.345-.317-.64-.485-.967-.19-.369-.304-.682-.683-.892-.203-.112-.53-.013-.658.174-.297.436-.176.946.034 1.399.229.492.531.813 1.019 1.049.473.231.951-.308.773-.763zM281.128 269.491c.331.166.663.265 1.007.396.388.148.682.305 1.104.208.227-.052.403-.344.374-.569-.07-.523-.5-.822-.96-1.019-.499-.214-.938-.251-1.459-.101-.505.145-.501.865-.066 1.085zM280.723 282.185c-.271.035-.585.128-.837-.031-.241-.152-.43-.454-.577-.692-.014-.023-.052-.018-.053.012-.019.378.219.803.561.977.334.171.672.026.947-.19.038-.03-.002-.081-.041-.076zM284.254 275.561c.024-.021.026.069.005.095-.52.622-1.012 1.422-.601 2.086.013.021-.014.051-.033.031-.627-.651.036-1.706.629-2.212z"/><path style="fill:#263238" d="M285.346 275.342c1.087.727-.447 2.847-1.454 2.174-.991-.663.543-2.783 1.454-2.174zM280.615 272.543c.013-.029-.074-.006-.092.022-.449.675-1.077 1.373-1.831 1.168-.023-.006-.045.028-.021.041.802.416 1.627-.519 1.944-1.231z"/><path style="fill:#263238" d="M280.516 271.434c-1.005-.837-2.604 1.235-1.673 2.01.916.762 2.515-1.309 1.673-2.01z"/><g><path style="fill:#263238" d="M280.756 280.628c-.964-1.125-1.649-1.328-2.398-1.758-.068-.069-.199-.253-.158-.335l.004-.005 1.099-1.372c-.254-.047-1.515-.332-1.301-.585 1.776-2.088 3.752-4.41 5.96-6.113.07-.06.168.04.107.107-1.628 2.074-3.61 3.849-5.278 5.906.387.112 1.036.269 1.296.474.056.075-1.238 1.393-1.384 1.638 0 0 1.304.333 2.229 1.983.206.366.176.47-.176.06z"/></g><path style="fill:#263238" d="M292.205 284.406c-1.705-.794-1.185-3.833-.807-4.981.377-1.148 3.736-4.886 4.16-6.726.424-1.84-.473-3.644-1.893-4.278-1.421-.634-4.156-.411-4.929-1.199-.773-.788.567-2.745-.017-3.241-1.284-1.092-5.08 1.386-6.507 2.576 0 0 4.68-6.712 11.783-1.734 6.477 4.539 5.326 9.85 4.314 12.075-1.94 4.261-6.104 7.508-6.104 7.508z"/><g><path style="fill:#eb9481" d="M290.885 282.25s4.343-1.804 5.302-.055c.96 1.75-3.75 5.375-5.893 4.917-2.142-.458-1.758-2.449-1.758-2.449l2.349-2.413z"/><path style="fill:#263238" d="M294.811 283.201c.029.015.01.057-.02.052-1.528-.281-2.884.438-4.075 1.321.647-.22 1.296-.153 1.624.66.017.043-.045.073-.074.044-.43-.423-.844-.565-1.433-.381-.418.131-.807.384-1.185.601-.126.072-.285-.11-.164-.209l.028-.022c.955-1.568 3.538-2.969 5.299-2.066z"/></g></g><g><path style="fill:#ebebeb" d="m288.164 292.356-2.892 6.466-8.406-8.364-2.477 2.605s8.127 13.209 8.191 12.619l2.947-5.567 4.025 3.965-.146-9.803-1.242-1.921z"/><path style="fill:#263238" d="M289.771 299.231c-.082-1.618-.116-3.249-.277-4.861-.006-.057-.1-.084-.116-.017-.373 1.555-.026 7.74-.061 9.221l-.018-.017c-.168-.171-3.734-3.492-3.771-3.44-.633.881-2.795 4.935-2.945 5.304-1.285-2.098-6.751-10.375-8.282-12.364-.044-.057-.138-.012-.104.055 1.128 2.212 8.186 13.133 8.29 13.106.069.052 2.755-4.94 3.083-5.886.601.721 4.193 4.461 4.21 4.221.116-1.622.072-3.703-.009-5.322z"/></g></g><g><path style="fill:#eb9481" d="M244.534 342.211c4.271 2.981 17.833.831 38.226-2.416 2.822-.449 4.366-21.675 1.328-21.35-3.827.409-23.6 3.402-24.658 3.716-8.916 2.64-17.793 18.028-14.896 20.05z"/><path style="fill:#eb9481" d="M308.084 322.176c-.323 2.452-6.302 1.143-6.302 1.143s1.32 1.085 1.503 2.716c.209 1.868-2.63 3.015-2.63 3.015s1.109 1.374 1.128 3.117c.02 1.808-2.679 3.374-2.679 3.374s.3 1.827-.734 3.366c-2.939 4.371-16.477 2.569-20.227 1.241l-2.501-20.025s12.32-5.776 17.844-5.248c3.065.293 15.091 3.553 14.598 7.301z"/><path style="fill:#263238" d="M301.741 323.243c-3.075-1.369-6.471-2.001-9.755-2.574-.073-.013-.091.097-.019.114 3.23.759 6.482 1.952 9.727 2.613.09.018.13-.116.047-.153zM300.621 328.938c-.705-.289-1.503-.344-2.253-.437-.807-.1-1.615-.185-2.426-.258a94.407 94.407 0 0 0-4.873-.317c-.072-.003-.094.107-.019.114a115.323 115.323 0 0 1 7.249.881c.747.112 1.526.292 2.284.236.114-.008.144-.175.038-.219zM299.037 335.532c-.603-.276-1.397-.24-2.049-.285-.74-.051-1.48-.106-2.22-.166a126.358 126.358 0 0 1-4.431-.409c-.074-.008-.093.105-.019.114 1.496.181 2.99.382 4.488.549.736.082 1.472.16 2.208.234.626.063 1.402.213 2.018.037.037-.009.035-.06.005-.074z"/><g><path style="fill:#ffc727" d="m280.426 316.838-9.866 28.627s-24.264.187-27.445-3.526c-2.274-2.654 6.328-17.447 16.215-20.352l21.096-4.749z"/><path style="fill:#263238" d="M248.894 329.147c1.008-1.765 4.754-5.818 10.443-7.58.05-.016.086.061.037.081-4.11 1.723-9.299 5.933-10.414 7.549-.029.043-.091-.006-.066-.05zM266.617 341.159c.733-2.833 1.616-5.624 2.507-8.412.892-2.79 1.778-5.583 2.739-8.351.543-1.564 1.077-3.132 1.675-4.677.016-.04.087-.025.076.019-.731 2.828-1.603 5.626-2.474 8.416a440.306 440.306 0 0 1-2.705 8.365 108.436 108.436 0 0 1-1.675 4.677c-.03.076-.164.046-.143-.037z"/><path style="fill:#263238" d="M280.35 316.591c-1.135.12-2.236.411-3.344.682-1.107.271-2.21.56-3.31.86-2.187.596-11.902 2.185-15.662 3.9-.042.019.263.124.303.104 1.749-.908 20.766-4.744 21.855-5.146-.01.087-.592 1.923-.589 2.014.002.062.084.106.123.043.092-.149.708-2.05.789-2.204.065-.128-.018-.268-.165-.253zM272.136 340.894c-.452 1.596-.94 3.18-1.434 4.763-2.557-.008-16.118.413-23.767-1.718-.649-.181-1.171-.451-1.171-.451 11.456 2.118 21.48 1.594 24.801 1.785l-.186.129c.57-1.509 1.147-3.014 1.757-4.508z"/></g></g></g></g></g><g><path style="fill:#fff" d="M345.64 251.596c0 11.089-8.994 20.083-20.083 20.083a19.96 19.96 0 0 1-11.965-3.96l-9.839 2.512 4.096-9.161a19.917 19.917 0 0 1-2.376-9.474c0-11.089 8.994-20.083 20.083-20.083 11.09 0 20.084 8.994 20.084 20.083z"/><path style="fill:#263238" d="M345.64 251.596c.066 16.458-18.99 26.158-32.261 16.409l.301.06-9.818 2.592-.879.232.37-.837 4.057-9.178.016.425c-4.652-8.257-2.384-19.432 4.962-25.342 13.195-10.878 33.252-1.453 33.252 15.639zm0 0c.053-12.829-12.498-22.612-24.898-19.195-12.183 3.015-18.514 17.445-12.469 28.44l.112.212-.096.213-4.134 9.144-.509-.605 9.859-2.432.169-.042.133.101c13.033 9.88 31.751.482 31.833-15.836z"/><g><path style="fill:#ffc727" d="M328.24 239.488h-4.699l.316 17.315h4.066z"/><path transform="rotate(-180 325.89 261.004)" style="fill:#ffc727" d="M323.859 258.972h4.063v4.063h-4.063z"/></g></g><g><path style="fill:#455a64" d="M216.137 433.134h16.295v2.865h-16.295z"/><path style="fill:#455a64" d="M241.27 475.061h-1.759l-14.354-67.005-.818-3.821-2.578-12.028-.96-4.485-3.611-16.832-1.261-5.894h6.269l1.021 5.894.671 3.869.449 2.578 2.572 14.87.83 4.787z"/><path style="fill:#263238" d="m222.198 364.996 1.021 5.894h-6.029l-1.261-5.894zM227.741 396.994l-2.584 11.062-.818-3.821-2.578-12.028-.96-4.485 3.089-12.963.449 2.578 2.572 14.87z"/><g><path style="fill:#455a64" d="m232.743 364.996-1.261 5.894-4.571 21.317-2.572 12.028-15.178 70.826h-1.753l14.353-82.854 2.578-14.87 1.114-6.447 1.021-5.894z"/><path style="fill:#263238" d="m232.743 364.996-1.261 5.894h-6.029l1.021-5.894z"/></g><g><path style="fill:#455a64" d="M356.512 433.134h16.296v2.865h-16.296z"/><path style="fill:#455a64" d="M381.646 475.061h-1.76l-14.353-67.005-.819-3.821-2.577-12.028-.96-4.485-3.612-16.832-1.261-5.894h6.27l1.021 5.894.67 3.869.449 2.578 2.572 14.87.831 4.787z"/><path style="fill:#263238" d="m362.574 364.996 1.021 5.894h-6.03l-1.261-5.894zM368.117 396.994l-2.584 11.062-.819-3.821-2.577-12.028-.96-4.485 3.088-12.963.449 2.578 2.572 14.87z"/><g><path style="fill:#455a64" d="m373.119 364.996-1.262 5.894-4.571 21.317-2.572 12.028-15.177 70.826h-1.754l14.354-82.854 2.577-14.87 1.114-6.447 1.021-5.894z"/><path style="fill:#263238" d="m373.119 364.996-1.262 5.894h-6.029l1.021-5.894z"/></g></g><g><path style="fill:#455a64" d="M203.723 360.686h181.608v4.307H203.723z"/></g><g><path style="fill:#37474f" d="M197.851 352.458h193.351v8.228H197.851z"/></g></g><g><path style="fill:#455a64" d="M331.347 352.45h-40.046v-3.11l40.046-1.295z"/><path style="fill:#37474f" d="M362.82 352.398h-26.418c-2.255 0 1.008-6.42 9.236-8.882 8.228-2.463 19.777 6.474 17.182 8.882z"/><path style="fill:#263238" d="M352.453 352.398c-.355-2.941 1.518-6.33 4.509-7.025-2.187 1.947-3.403 4.306-4.509 7.025z"/><path style="fill:#263238" d="M355.583 346.29c2.906.556 7.213 2.728 7.237 6.108-1.526-2.933-4.724-4.095-7.237-6.108z"/><g><path style="fill:#455a64" d="M381.779 339.971h-64.223l10.213-47.812h64.223z"/><path style="fill:#37474f" d="M384.154 339.971h-64.223l10.214-47.812h64.222z"/><path style="fill:#263238" d="M349.516 322.828h-1.506l2.286-10.726h1.506zM352.487 322.828h-1.505l2.286-10.726h1.506zM355.459 322.828h-1.506l2.287-10.726h1.506zM358.431 322.828h-1.506l2.287-10.726h1.505zM361.403 322.828h-1.506l2.287-10.726h1.505zM364.375 322.828h-1.506l2.286-10.726h1.506zM367.347 322.828h-1.506l2.286-10.726h1.506z"/><g><path style="fill:#455a64" d="M365.99 352.458h-31.586v-2.453l31.586-1.021z"/><path style="fill:#455a64" d="M374.578 352.454h-16.959l-10.213-26.791h16.959z"/><path style="fill:#263238" d="M377.369 352.454H360.41l-10.213-26.791h16.959z"/></g></g></g><g><path style="fill:#ad6359" d="M237.204 474.616c-2.969.929-89.642-.944-92.807-3.057-1.217-.782 6.208-82.88 6.208-82.88l54.971 1.051-6.251 54.916s31.98 15.151 35.218 17.841c3.211 2.678 5.631 11.213 2.661 12.129z"/><path style="fill:#ad6359" d="M237.2 474.62c-1.48.46-24.04.22-46.55-.4-22.36-.62-44.68-1.61-46.25-2.66-.52-.33.52-15.25 1.87-32.34 1.86-23.26 4.33-50.54 4.33-50.54l54.98 1.05-6.26 54.92s31.98 15.15 35.22 17.84c3.21 2.67 5.63 11.21 2.66 12.13z"/><path style="fill:#263238" d="M237.205 474.617c-2.965.924-89.645-.948-92.806-3.062-.384-.239-.497-8.574.881-19.43 15.716 2.635 71.818 11.248 76.186 8.678 3.046-1.79.35-4.589-2.145-6.472 7.162 3.57 13.845 7.005 15.225 8.159 3.211 2.677 5.623 11.215 2.659 12.127z"/><path style="opacity:.1" d="M190.65 474.22c-22.36-.62-44.68-1.61-46.25-2.66-.52-.33.52-15.25 1.87-32.34l44.38 35z"/><g><path style="fill:#263238" d="m200.871 431.481-53.963-.762s10.693-129.25 10.247-131.735c-.567-3.183-38.856-153.31-38.856-153.31h51.503s40.616 139.925 42.073 153.408c2.36 21.771-11.004 132.399-11.004 132.399z"/><path style="fill:#37474f" d="M151.76 418.537c3.188-.229 6.412-.191 9.607-.233 3.201-.042 6.401-.052 9.602-.02 6.4.063 12.797.16 19.195.341 1.75.049 3.5.103 5.249.183 1.873.087 3.737.406 5.604.476.146.006.14.225-.006.227-1.57.014-3.144.249-4.718.294a169.8 169.8 0 0 1-4.893.058c-3.201 0-6.4-.01-9.601-.037-6.397-.054-12.801-.14-19.193-.404-3.611-.15-7.259-.194-10.856-.556-.21-.022-.201-.314.01-.329zM129.627 157.799c4.608 16.319 8.82 32.782 12.952 49.229 4.133 16.456 8.241 32.918 12.338 49.382l6.144 24.698c1.993 8.014 4.309 16.072 4.803 24.354.503 8.422-.569 16.91-1.279 25.291-.714 8.426-1.419 16.854-2.157 25.278-1.476 16.855-2.892 33.725-4.725 50.546-.229 2.105-.455 4.21-.668 6.316-.018.18-.295.177-.283-.007 1.116-16.866 2.28-33.723 3.626-50.573.673-8.428 1.361-16.854 2.059-25.28.696-8.409 1.673-16.849 1.939-25.285.269-8.516-1.288-16.668-3.342-24.891-2.013-8.057-4.037-16.111-6.054-24.167-4.121-16.458-8.245-32.916-12.331-49.384-4.574-18.435-9.139-36.907-13.175-55.468-.023-.1.125-.137.153-.039z"/><path style="fill:#37474f" d="M118.295 145.677s16.428 64.406 27.922 109.743l21.914-109.743h-49.836z"/></g><g><path style="fill:#ad6359" d="M173.657 474.816c-2.969.929-89.642-.944-92.808-3.057-1.217-.782 4.953-82.928 4.953-82.928l52.601 1.051-2.626 54.964s31.98 15.151 35.218 17.841c3.212 2.679 5.631 11.213 2.662 12.129z"/><path style="fill:#263238" d="M173.658 474.818c-2.965.924-89.646-.949-92.807-3.062-.384-.239-.294-8.359.009-19.441 15.716 2.634 72.689 11.259 77.057 8.689 3.046-1.79.35-4.589-2.145-6.472 7.162 3.57 13.845 7.005 15.225 8.16 3.213 2.676 5.625 11.214 2.661 12.126z"/><g><path style="fill:#263238" d="M169.316 145.654s-2.91 36.414-8.913 45.56c0 0-5.899 2.056-14.94 7.442 0 0-3.711 97.415-3.643 103.265.242 21.886-5.353 128.476-5.353 128.476l-54.413-.517s14.084-185.22 17.368-227.626c0 0-2.481-13.547-1.946-20.388 1.299-16.585 8.556-36.191 8.556-36.191l63.284-.021z"/><path style="fill:#37474f" d="M150.167 180.283c.205-1.363.41-2.726.618-4.088.383-2.496.891-4.975 1.329-7.463.993-5.644 2.023-11.306 3.281-16.899.03-.136.258-.101.244.039a158.062 158.062 0 0 1-.802 6.76c-.32 2.249-.541 4.511-.858 6.758-.629 4.458-1.251 8.924-2.009 13.361-.292 1.709-1.359 4.775 1.103 5.306 1.949.42 3.378-1.495 3.951-3.099.699-1.955.947-4.12 1.311-6.157.402-2.25.755-4.508 1.074-6.772.695-4.931 1.459-9.84 2.261-14.754.023-.141.248-.098.244.039-.158 5.063-.424 10.074-1.09 15.1a194.928 194.928 0 0 1-1.082 7.177c-.38 2.229-.664 4.626-1.65 6.686-.773 1.615-2.217 3.071-4.073 3.269-.038.004-.076.001-.114.004a.168.168 0 0 1 .072.141c-.027.799-.011 1.608-.096 2.403-.084.788-.241 1.577-.39 2.354-.151.785-.341 1.592-.61 2.346-.13.365-.265.729-.433 1.077-.177.366-.423.649-.636.991-.087.139-.253.052-.262-.083l-.012.001c.012-.132.013-.261.016-.39-.001-.023.003-.046.002-.069l.001-.003c.005-.232.01-.463.045-.699.057-.385.144-.764.227-1.144.167-.758.375-1.516.578-2.265.204-.751.366-1.511.56-2.263.2-.776.454-1.534.634-2.316.008-.035.033-.052.054-.073-1.447.018-2.911-.751-3.436-2.153-.383-1.015-.208-2.079-.052-3.122z"/><path style="fill:#37474f" d="M141.062 199.847c1.558-1.278 3.393-2.337 5.119-3.374a49.967 49.967 0 0 1 5.836-3.023c3.936-1.709 7.994-2.876 12.056-4.219.121-.04.202.162.082.209-3.934 1.565-7.706 3.642-11.507 5.502a161.629 161.629 0 0 1-5.669 2.628c-1.909.845-3.811 1.829-5.769 2.546-.149.054-.267-.171-.148-.269zM115.059 169.441c2.769-.011 12.345-.697 15.18-3.875 1.64-1.838 2.734-4.142 3.543-6.389.915-2.54 1.576-5.125 2.15-7.759.028-.13.218-.086.222.036.089 2.953-.333 5.961-1.116 8.808-.668 2.43-1.568 5.144-3.533 6.848-2.067 1.793-4.873 2.422-7.517 2.749-2.986.369-5.963.281-8.937-.123-.183-.026-.186-.294.008-.295zM175.824 170.188c-.854-.011-3.362-1.759-3.664-2.214-2.09-3.154-2.601-13.174-2.778-15.808-.009-.13-.067-.086-.068.036a95.288 95.288 0 0 0 .344 8.808c.206 2.43.484 5.144 1.09 6.848.638 1.793 4.16 3.03 5.078 2.626.057-.027.058-.295-.002-.296zM84.459 419.335c3.188-.23 6.412-.191 9.608-.233 3.201-.042 6.401-.052 9.602-.02 6.4.063 12.797.16 19.195.34 1.75.05 3.5.103 5.249.184 1.873.087 3.737.406 5.604.476.146.005.141.225-.006.227-1.57.014-3.144.248-4.717.294a169.8 169.8 0 0 1-4.893.058c-3.2 0-6.4-.01-9.601-.037-6.397-.053-12.801-.14-19.193-.404-3.612-.149-7.259-.194-10.856-.556-.212-.021-.203-.314.008-.329zM91.098 412.249l-.033-.001a.662.662 0 0 1-.63-.694l17.002-210.929c-.156-.925-3.618-12.706-3.927-18.725-.326-6.363 6.253-31.159 6.532-32.211a.672.672 0 0 1 .811-.471.664.664 0 0 1 .471.811c-.068.256-6.806 25.646-6.49 31.802.319 6.222 3.905 18.54 3.922 18.641.008.048-16.996 211.146-16.996 211.146a.663.663 0 0 1-.662.631z"/></g></g><g><path style="fill:#263238" d="M204.303 45.267s-4.544-5.622-10.059-4.76c-5.515.862-6.014 4.454-9.352 5.232-3.337.778-10.569.243-13.926 3.843-3.357 3.601-1.605 10.377-3.113 12.535-1.507 2.158-6.938 2.828-7.854 8.021-1.063 6.032 2.86 9.33 2.891 12.406.051 5.119-3.217 9.488-.012 15.263 3.45 6.214 9.043 5.695 12.848 7.533 3.651 1.764 4.826 8.495 12.767 8.407 7.941-.088 9.674-5.23 14.185-7.345 4.512-2.115 11.381.527 16.108-3.16 4.727-3.687 2.839-8.39 4.042-11.014 1.204-2.623 5.182-2.989 6.43-7.542 1.248-4.553-2.965-8.291-3.39-10.015-.727-2.948 1.208-4.709.205-8.91-1.003-4.201-6.371-6.818-7.481-8.046-2.666-2.948-.668-9.631-4.832-12.2-5.285-3.262-9.457-.248-9.457-.248z"/><path style="fill:#263238" d="M169.134 53.339c-.202 3.09-.038 6.824-2.96 8.754-4.547 2.575-8.64 6.195-7.251 11.904.518 3.095 3.241 5.454 3.625 8.686.039.985-.426 2.228-.639 3.18-.518 2.009-.924 4.05-.858 6.11.022 2.055.625 4.111 1.829 5.834-1.386-1.586-2.13-3.691-2.313-5.806-.174-2.13.166-4.257.599-6.311 2.139-4.242-2.377-7.116-3.214-11.472-1.132-4.373 1.368-8.931 5.161-11.069 1.721-1.106 3.771-1.821 4.708-3.761.808-1.602.989-4.274 1.313-6.049zM214.688 105.04c5.492-1.396 8.36-2.983 8.486-9.133.133-1.178.06-2.683.862-3.692 1.327-1.5 3.14-2.537 4.261-4.101 1.837-2.404 1.871-5.945.411-8.574-.705-1.396-1.632-2.694-2.468-4.041 1.021 1.217 2.02 2.445 2.894 3.799 1.372 2.094 1.65 4.705 1.051 7.127-.661 2.43-2.83 4.125-4.595 5.633-1.365.916-1.324 2.428-1.475 3.929-.302 6.278-3.522 8.353-9.427 9.053z"/><path style="fill:#ebebeb" d="m181.235 146.969-3.131 20.247-72.072-21.541s25.326-41.224 46.582-57.25c10.368-7.817 21.389-4.878 26.022 3.273 1.173 2.063 11.745 28.079 11.175 38.313-.524 9.024-8.576 16.958-8.576 16.958z"/><path style="fill:#263238" d="M163.281 138.724c2.739.778 5.471 1.695 8.067 3.05 1.292.674 2.547 1.432 3.796 2.231.623.399 1.252.765 1.887 1.128.651.372 1.355.732 2.069.859.064.012.045.149-.02.143-.702-.065-1.373-.129-2.056-.327-.649-.187-1.282-.477-1.9-.789-1.316-.666-2.604-1.42-3.913-2.105-2.642-1.383-5.283-2.764-8.007-3.865-.124-.05-.052-.362.077-.325zM155.916 141.354c2.337-.031 4.702.095 7.004.44 1.159.173 2.295.441 3.43.753.542.149 1.081.313 1.618.485.591.19 1.158.495 1.751.672.062.019.044.159-.02.143-.565-.143-1.156-.152-1.729-.247-.575-.096-1.149-.198-1.724-.295-1.152-.193-2.305-.367-3.454-.576-2.301-.418-4.597-.8-6.913-1.103-.125-.017-.083-.271.037-.272z"/><path style="fill:#ffc727" d="M165.076 83.384s-4.578 39.211-6.76 47.016c-2.182 7.805-20.606 72.581-20.606 72.581L90.434 174.61c6.969-21.672 34.576-59.144 48.688-76 14.112-16.857 25.954-15.226 25.954-15.226zM176.801 88.876s5.846 34.939 4.044 41.908c-1.802 6.969-3.759 77.582-3.759 77.582l12.746-14.065-8.597-47.332s7.478-6.824 8.597-15.208c1.333-9.997-8.926-39.953-13.031-42.885z"/><path style="opacity:.1" d="M176.807 88.905c.185 1.049 5.808 35.016 4.043 41.88-.849 3.28-1.284 16.885-2.097 30.079l7.167-36.176-4.027-9.959 3.963-2.188-9.049-23.636zM158.248 109.312l-5.661 8.053-1.465 38.43c2.923-10.465 6.19-21.815 7.195-25.401 2.14-7.677 6.608-45.806 6.761-46.985l-.005-.031-11.261 20.06 4.436 5.874z"/><g><path style="fill:#ad6359" d="M177.721 92.841c.46 1.745-3.104 21.221-4.689 21.221-3.379 0-7.344-22.124-6.266-27.528.222-1.11 10.955 6.307 10.955 6.307z"/><path style="fill:#ad6359" d="M166.909 85.19c-.619 1.234-1.271 12.042 3.633 15.752 1.6 1.205 8.568-7.231 8.568-7.231l.657-.505 9.188-7.079-4.759-15.064-.754-2.097s-2.386 2.102-5.331 4.75c-.137.122-.275.244-.419.377-.171.145-.334.28-.486.424-.445.389-.898.79-1.341 1.198-.338.309-.669.608-1.012.945-.353.33-.689.657-1.042.987-3.409 3.324-6.633 7.025-6.902 7.543z"/><path style="fill:#263238" d="M178.112 73.715c-3.273 8.998-.092 16.425 1.656 19.49l9.188-7.079-4.759-15.064-.754-2.097s-2.386 2.102-5.331 4.75z"/><g><path style="fill:#ad6359" d="M212.667 78.451c-8.711 18.399-20.714 15.259-24.68 13.376-3.6-1.709-15.639-7.986-8.876-27.186 6.764-19.2 18.071-20.966 26.511-17.493 8.44 3.474 15.756 12.904 7.045 31.303z"/><path style="fill:#263238" d="M210.79 74.074c-.372-.305-.664-.648-1-.988-.38-.383-.722-.649-.828-1.202-.057-.297.196-.66.479-.743.659-.192 1.24.161 1.716.604.516.48.792.983.888 1.68.094.676-.764 1.051-1.255.649zM197.92 70.706c.434.206.869.324 1.32.484.509.18.895.376 1.44.237.293-.075.514-.459.468-.75-.106-.677-.674-1.053-1.278-1.295-.654-.263-1.226-.297-1.898-.088-.651.203-.625 1.14-.052 1.412zM206.343 77.688c.036-.04.06.112.029.16-.745 1.169-1.402 2.634-.558 3.67.026.032-.013.09-.049.06-1.206-.966-.315-2.902.578-3.89z"/><path style="fill:#263238" d="M208.146 77.075c2.004.992-.128 4.926-1.984 4.007-1.826-.905.305-4.839 1.984-4.007z"/><path style="fill:#263238" d="M208.827 77.778c.198.377.3.923.658 1.148.415.261.964.008 1.46-.251.051-.027.065.023.038.076-.387.763-1.06 1.411-1.86 1.165-.73-.225-.865-1.133-.638-1.979.041-.157.262-.311.342-.159zM199.177 73.852c.017-.051-.127.004-.153.054-.643 1.229-1.586 2.528-2.904 2.312-.041-.007-.072.056-.028.073 1.438.565 2.673-1.172 3.085-2.439z"/><path style="fill:#263238" d="M198.811 71.983c-1.858-1.243-4.208 2.565-2.486 3.716 1.693 1.134 4.043-2.674 2.486-3.716z"/><path style="fill:#263238" d="M197.862 71.744c-.426.016-.949.199-1.324.001-.433-.23-.487-.832-.51-1.391-.002-.058-.052-.045-.085.005-.469.715-.696 1.622-.083 2.193.559.521 1.413.186 2.034-.432.116-.114.139-.383-.032-.376zM193.372 83.46c.068.459.062 1.015.437 1.353.36.324.942.492 1.398.622.045.013.053.077.005.093-.608.206-1.413.014-1.857-.464-.434-.466-.353-1.086-.128-1.635.033-.077.135-.036.145.031z"/><g><path style="fill:#263238" d="M194.74 82.744c2.35.713 3.113 1.616 4.266 2.466.15.057.517.134.614.016l.005-.009 1.348-2.582c.24.354 1.513 2.077 1.755 1.584 1.983-4.086 4.188-8.631 5.299-13.116.044-.146-.172-.228-.234-.091-2.061 3.852-3.432 8.041-5.441 11.943-.428-.512-1.099-1.391-1.583-1.65-.151-.036-1.287 2.807-1.561 3.192 0 0-1.375-1.756-4.493-2.059-.695-.069-.833.046.025.306z"/></g><g><path style="fill:#263238" d="M178.557 65.602c4.932.744 7.727-3.07 7.727-3.07 5.99 1.128 10.936-.809 11.444-1.002-.349.273-2.86 2.247-4.172 3.213 12.107 5.2 20.954-.802 20.954-.802 1.155 5.821.359 8.515.12 9.965 0 0 4.502-6.548 4.071-13.242-.526-8.196-6.882-10.967-6.882-10.967s-6.691-8.091-17.913-5.383c-12.093 2.93-15.349 21.288-15.349 21.288z"/><path style="fill:#263238" d="M202.928 68.442c-2.36-.184-4.703-.81-6.877-1.672-.018-.007-.006-.033.012-.028 3.607 1.174 7.393 1.409 11.098.518a19.23 19.23 0 0 0 4.497-1.689c1.489-.786 3.119-1.817 4.179-3.144.081-.1.237.025.157.126-1.12 1.402-2.168 2.684-3.695 3.667a14.202 14.202 0 0 1-4.777 1.96c-1.512.314-3.057.382-4.594.262"/></g><g><path style="fill:#ad6359" d="M181.366 67.438s-.631-7.727-3.919-7.814c-3.288-.086-5.051 9.552-2.763 12.347 2.287 2.795 4.916.729 4.916.729l1.766-5.262z"/><path style="fill:#263238" d="M177.011 62.399c-.045-.032-.092.029-.061.069 1.564 2.028 1.533 4.558 1.138 6.969-.167-1.114-.754-2.014-2.193-1.883-.075.007-.073.12-.009.142.945.311 1.465.81 1.64 1.813.124.711.046 1.473.013 2.191-.011.239.377.334.43.082l.011-.057c1.577-2.581 1.682-7.424-.969-9.326z"/></g></g></g><g><path style="fill:#ad6359" d="M148.5 98.495c-11.324 20.093-24.278 54.395-20.935 60.905 8.376 16.305 28.523 33.532 37.926 39.231 5.488 3.327 24.466-24.77 19.739-27.966-7.458-5.042-27.001-22.319-29.347-24.641-1.252-1.239 3.031-25.565 4.372-41.697 1.457-17.536-6.236-15.626-11.755-5.832z"/><path style="fill:#ad6359" d="M196.147 184.494c3.145-1.619 10.701-.359 15.533-1.381 4.832-1.022 8.124-6.318 6.717-7.691-1.407-1.373-3.361-.202-10.713-1.277-4.728-.691-13.288-6.241-22.076-6.517-4.416-.138 7.394 18.485 10.539 16.866z"/><path style="fill:#ad6359" d="M196.147 184.494c3.145-1.619 10.701-.359 15.533-1.381 4.832-1.022 8.124-6.318 6.717-7.691-1.407-1.373-3.361-.202-10.713-1.277-4.728-.691-13.288-6.241-22.076-6.517-4.416-.138 7.394 18.485 10.539 16.866z"/><path style="opacity:.1" d="M196.147 184.494c3.145-1.619 10.701-.359 15.533-1.381 4.832-1.022 8.124-6.318 6.717-7.691-1.407-1.373-3.361-.202-10.713-1.277-4.728-.691-13.288-6.241-22.076-6.517-4.416-.138 7.394 18.485 10.539 16.866z"/><g><path transform="rotate(-134.187 185.426 192.403)" style="fill:#dbdbdb" d="M179.433 159.296h11.99v66.219h-11.99z"/><path style="fill:#ffc727" d="m126.843 236.705 12.637 13.003 36.462-35.44-12.637-13.002z"/><path style="opacity:.4" d="m126.843 236.705 12.637 13.003 36.462-35.44-12.637-13.002z"/><g style="enable-background:new"><path style="fill:#37474f" d="M221.839 175.669a32.562 32.562 0 0 1-4.814-3.578c-.36-.31-.7-.647-1.041-.985-.319-.299-.612-.611-.906-.924a9.066 9.066 0 0 1-.614-.645l-8.819-9.92a28.638 28.638 0 0 0 2.548 2.561 29.312 29.312 0 0 0 2.387 1.937c.764.578 1.58 1.127 2.434 1.655 21.032 12.952 54.509 2.434 74.741-23.483 15.62-19.966 18.822-43.241 9.84-58.8a32.419 32.419 0 0 0-3.905-5.428l8.832 9.913a.22.22 0 0 1 .063.084c.384.415.75.858 1.102 1.308.316.385.612.765.89 1.171.134.18.269.36.39.548.22.303.426.613.62.93.114.174.235.362.337.544 5.81 9.401 6.99 21.82 3.5 34.645-.177.66-.361 1.306-.566 1.947-2.377 7.767-6.466 15.637-12.271 23.05-20.232 25.917-53.709 36.436-74.748 23.47z"/><path style="fill:#37474f" d="M204.966 91.352c-20.57 26.341-22.756 57.58-6.931 75.344l8.823 9.898c-15.829-17.74-13.629-48.99 6.931-75.344 23.751-30.364 63.039-42.71 87.722-27.534 2.042 1.267 3.933 2.667 5.636 4.206a40.216 40.216 0 0 1 2.991 2.993l-8.823-9.898a40.509 40.509 0 0 0-3-3.006 38.734 38.734 0 0 0-5.626-4.193c-24.694-15.19-63.982-2.844-87.723 27.534z"/><path style="fill:#455a64" d="M310.132 80.916a2.415 2.415 0 0 0-.168-.203c-.071-.078-.142-.156-.222-.239a5.001 5.001 0 0 0-.323-.33 24.093 24.093 0 0 0-.56-.587c-.092-.111-.202-.206-.307-.311-.202-.206-.417-.407-.624-.603-.252-.252-.512-.484-.778-.73-.44-.382-.875-.749-1.319-1.121a75.06 75.06 0 0 0-1.365-1.07c-.283-.207-.556-.41-.844-.607-.322-.224-.635-.444-.962-.658-.377-.26-.762-.5-1.148-.741-5.918-3.642-12.686-5.704-19.867-6.299a52.752 52.752 0 0 0-5.325-.185c-.752.007-1.499.029-2.255.07-6.934.357-14.116 1.939-21.215 4.658-.462.171-.928.351-1.384.536-.682.272-1.368.555-2.054.861-.479.21-.972.425-1.445.649a86.774 86.774 0 0 0-11.437 6.317 76.125 76.125 0 0 0-2.619 1.77c-1.053.741-2.094 1.51-3.135 2.303-.004.01-.014.005-.009.02a93.21 93.21 0 0 0-11.585 10.523 96.146 96.146 0 0 0-5.392 6.304 93.52 93.52 0 0 0-1.713 2.264c-.558.76-1.096 1.529-1.63 2.288-.264.387-.524.764-.779 1.154-4.557 6.825-7.919 13.885-10.108 20.889-.201.614-.377 1.226-.554 1.839a2.8 2.8 0 0 0-.082.291c-.063.195-.115.394-.168.593a61.146 61.146 0 0 0-.767 3.091c-.019.097-.039.194-.062.3-.083.373-.165.746-.238 1.124-.027.14-.054.281-.076.411-.083.373-.142.745-.2 1.117a19.52 19.52 0 0 0-.259 1.594c-.084.455-.148.918-.212 1.381a49.085 49.085 0 0 0-.365 3.982c-.012.135-.025.27-.028.409-.029.49-.053.995-.062 1.494-.008.23-.012.451-.02.682-.004.408-.014.801-.004 1.204.002.633.017 1.26.038 1.877.03.622.06 1.244.108 1.85.047.477.084.95.135 1.417l-.004.01-.004.01c.012.158.03.329.052.491.059.529.122 1.049.2 1.563.039.31.087.624.15.932-.014.006-.014.006-.004.01.061.366.122.732.187 1.089.108.551.216 1.102.342 1.637.119.579.262 1.157.409 1.725.157.572.318 1.135.494 1.693.155.525.323 1.044.497 1.553.021.033.027.071.044.113.171.462.337.933.522 1.389.072.208.149.405.23.593.185.456.374.902.578 1.343.188.422.39.839.592 1.256.282.581.582 1.147.897 1.707a21.052 21.052 0 0 0 .717 1.241c.37.62.764 1.238 1.181 1.832.083.13.176.265.269.399.196.297.387.581.611.843.051.069.093.134.148.194.283.394.589.787.904 1.16.133.176.27.342.408.508a.178.178 0 0 0 .051.07c.021.033.04.041.056.06.061.074.122.148.188.212l.406.46c-.057-.063-.108-.13-.164-.194a33.757 33.757 0 0 0 2.871 2.945c.09.087.191.178.281.265a39.72 39.72 0 0 0 5.628 4.193c24.695 15.194 63.984 2.865 87.71-27.557 20.567-26.321 22.781-57.565 6.941-75.323zm-13.54 71.281c-20.241 25.921-53.71 36.441-74.751 23.468a32.215 32.215 0 0 1-4.812-3.575 18.382 18.382 0 0 1-1.04-.986c-.326-.296-.619-.613-.912-.929a31.95 31.95 0 0 1-4.5-6.059 35.133 35.133 0 0 1-3.264-7.667c-.14-.425-.266-.855-.359-1.282-.015-.018-.016-.042-.022-.056-.1-.384-.2-.767-.276-1.152a25.162 25.162 0 0 1-.318-1.533c-.937-5.037-.968-10.457-.071-16.042.082-.584.188-1.169.304-1.75.018-.121.046-.237.064-.358.232-1.162.497-2.32.801-3.485.007-.043.029-.092.037-.136.146-.544.297-1.098.468-1.643a56.706 56.706 0 0 1 1.323-4.004c.182-.493.365-.986.571-1.48.094-.239.192-.489.3-.734.451-1.1.939-2.207 1.461-3.311a37.65 37.65 0 0 1 .838-1.713c2.146-4.226 4.798-8.404 7.954-12.454a81.24 81.24 0 0 1 6.932-7.778c.173-.181.343-.352.522-.519a67.814 67.814 0 0 1 1.738-1.632c.257-.238.514-.475.777-.699.335-.309.68-.613 1.03-.903a57.174 57.174 0 0 1 2.504-2.067c.406-.336.813-.648 1.234-.965.411-.322.828-.63 1.254-.933l.055-.046c.815-.6 1.645-1.182 2.486-1.735.422-.294.85-.573 1.287-.848.428-.279.865-.555 1.298-.82.438-.275.87-.54 1.309-.792l1.316-.754c5.602-3.146 11.415-5.472 17.187-6.881.331-.088.658-.166.981-.234.991-.23 1.969-.43 2.953-.593a40.504 40.504 0 0 1 1.951-.31 67.724 67.724 0 0 1 1.94-.232c.649-.065 1.298-.13 1.943-.161a39.29 39.29 0 0 1 1.827-.083 58.607 58.607 0 0 1 2.09-.014c.585.001 1.151.017 1.723.047.327.027.669.049 1 .067.308.019.611.047.924.08.934.084 1.851.208 2.759.352.604.091 1.203.191 1.799.326.174.03.344.07.504.105.237.046.484.096.727.157l.548.137c1 .254 1.973.543 2.938.875.326.109.653.218.975.337l.078.035c.322.119.654.242.967.38.328.133.655.266.979.408a35.54 35.54 0 0 1 4.239 2.222 30.527 30.527 0 0 1 2.437 1.637c.83.612 1.618 1.241 2.38 1.928.671.601 1.32 1.226 1.941 1.887.203.23.4.446.603.676.029.013.04.041.057.084.389.418.756.86 1.108 1.308.311.383.612.762.89 1.165.129.186.272.366.391.547.216.306.428.622.62.929.109.177.234.372.333.545 5.811 9.4 6.989 21.822 3.506 34.646-.179.67-.368 1.312-.568 1.95-2.378 7.776-6.469 15.638-12.268 23.05z"/><path style="opacity:.4;fill:#fff" d="M213.014 165.77a31.039 31.039 0 0 1-2.434-1.655c-8.995-15.553-5.793-38.828 9.807-58.799 20.239-25.903 53.724-36.409 74.782-23.471a28.854 28.854 0 0 1 2.427 1.642c8.982 15.56 5.78 38.835-9.84 58.8-20.233 25.917-53.71 36.435-74.742 23.483z"/><g style="opacity:.3"><path style="fill:#ebebeb" d="m301.908 111.099-68.022-19.383a77.336 77.336 0 0 1 10.245-6.891l58.382 16.636a48.777 48.777 0 0 1-.605 9.638zM300.14 89.008l-38.82-11.062c12.239-3.002 24.317-1.952 33.848 3.899a28.854 28.854 0 0 1 2.427 1.642 33.445 33.445 0 0 1 2.545 5.521zM300.305 118.333l-72.993-20.799a81.105 81.105 0 0 1 4.071-3.745l70.063 19.965a57.854 57.854 0 0 1-1.141 4.579zM256.112 166.613a62.551 62.551 0 0 1-7.823 2.687l-40.559-11.557a35.885 35.885 0 0 1-1.392-5.313l49.774 14.183zM274.391 155.794l-68.123-19.412c.954-6.108 3.01-12.405 6.168-18.617l77.21 21.99a80.348 80.348 0 0 1-15.255 16.039z"/></g></g></g><g><path style="fill:#ad6359" d="M211.449 199.389c-2.708 1.867-4.972.292-4.972.292s.158 2.953-1.711 5.092c-2.141 2.45-6.921.166-6.921.166s-.458 3.022-2.661 5.083c-2.285 2.139-7.437.522-7.437.522s-2 2.413-5.155 2.996c-6.5 1.201-23.457-18.666-25.939-21.382l20.276-28.693s27.287 10.39 30.634 15.756c2.82 4.521 7.419 17.733 3.886 20.168z"/><path style="fill:#263238" d="M206.527 199.54c-1.845-5.525-5.008-10.599-8.114-15.461-.069-.108-.238.002-.167.109 3.146 4.8 5.083 10.556 8.031 15.471.081.136.299.03.25-.119zM198.113 204.566c-.455-1.237-1.316-2.321-2.074-3.386a129.704 129.704 0 0 0-2.505-3.398 161.03 161.03 0 0 0-5.291-6.591c-.081-.095-.247.005-.167.109a200.048 200.048 0 0 1 7.345 10.284c.73 1.084 1.41 2.29 2.368 3.192.142.133.393-.023.324-.21zM187.677 210.449c-.352-1.092-1.326-2.064-2.03-2.949a363.868 363.868 0 0 1-2.382-3.027c-1.577-2.027-3.152-4.054-4.657-6.135-.075-.104-.242.004-.167.109 1.518 2.122 3.007 4.264 4.544 6.372a332.916 332.916 0 0 0 2.281 3.093c.651.873 1.366 2.038 2.312 2.62.054.032.117-.029.099-.083z"/></g><g><path style="fill:#ffc727" d="m158.222 200.053 24.978-33.572-25.71-20.909c1.838-13.186 5.503-39.554 5.403-48.863-.117-10.921-7.707-11.553-13.785-2.233-13.902 21.317-27.707 60.163-26.8 66.46 1.298 9.023 35.914 39.117 35.914 39.117z"/><path style="fill:#263238" d="M155.835 191.832c1.154-2.354 7.464-11.159 9.06-13.336 1.563-2.132 8.292-10.686 9.939-12.916.089-.121.289-.03.2.096-1.592 2.234-7.631 11.282-9.205 13.471-1.579 2.197-7.977 10.901-9.877 12.763-.065.064-.154-.003-.117-.078zM161.336 114.063c-.558 9.895-2.192 20.361-3.259 30.226-.045.434-.09.841-.104 1.239a.256.256 0 0 0-.036-.13l.025.031c5.788 5.355 12.899 10.691 19.016 15.798l6.27 5.147.038.031-.028.036-.694.888.615-.945.01.067-6.514-4.836c-6.387-4.983-13.547-10.09-19.466-15.584-.099-.113-.222-.341-.197-.496.03-1.156.181-2.237.309-3.368 1.086-8.934 2.779-19.212 4.015-28.104z"/><path style="fill:#263238" d="M162.139 115.893c-.277 1.507-.637 3.058-1.493 4.348.544-1.412.895-2.953 1.493-4.348zM161.342 195.86l-3.042 4.252-.061.086-.082-.071a393.374 393.374 0 0 1-21.33-19.777c-3.399-3.463-6.735-6.996-9.818-10.77-1.877-2.39-3.887-4.844-4.971-7.763-.614-1.83.13-3.816.418-5.624 2.17-9.485 5.245-18.716 8.839-27.743 3.623-8.999 7.807-17.808 13.034-25.98-4.882 8.369-8.883 17.213-12.344 26.25-3.397 9.048-6.491 18.256-8.568 27.677-.242 1.175-.469 2.364-.597 3.525-.186 1.157.342 2.16.844 3.176 3.599 6.239 8.839 11.433 13.765 16.663 6.714 6.969 13.744 13.644 20.858 20.218l-.143.015 3.198-4.134z"/><g><path style="fill:#263238" d="M142.136 103.618c-.412 1.572-.859 3.097-1.178 4.687-.02-1.625.451-3.243 1.178-4.687z"/></g></g></g></g></g><g><path style="fill:#ffc727" d="M426.968 364.83s14.751-2.065 11.303-19.872c0 0-16.481 3.7-11.303 19.872z"/><path style="opacity:.1" d="M426.968 364.83s14.751-2.065 11.303-19.872c0 0-16.481 3.7-11.303 19.872z"/><path style="fill:#263238" d="M427.714 361.113c.288-.901.628-1.785 1.004-2.654.012-.114.028-.227.038-.337a84.802 84.802 0 0 0 .167-2.33c.063-1.063.131-2.128.147-3.194.001-.058.09-.056.09.002.009 1.066.025 2.131-.016 3.197a60.606 60.606 0 0 1-.086 1.595l-.025.354a31.505 31.505 0 0 1 2.957-5.057 26.928 26.928 0 0 1 1.613-2.045c.588-.673 1.209-1.314 1.804-1.98.038-.043.102.023.062.065-1.085 1.131-1.982 2.475-2.843 3.779a37.142 37.142 0 0 0-1.274 2.083c.046-.018.092-.035.137-.054.175-.072.349-.145.526-.212.401-.154.802-.306 1.204-.456.791-.294 1.584-.583 2.373-.883.047-.018.08.064.033.083a89.88 89.88 0 0 0-2.335.978l-1.142.491c-.191.082-.384.16-.576.238-.129.052-.256.117-.391.138-.298.534-.592 1.07-.863 1.617a38.239 38.239 0 0 0-1.802 4.25l-.106.306c.364-.246.829-.406 1.209-.582.508-.235 1.018-.462 1.527-.696 1.034-.475 2.063-.957 3.054-1.517.051-.029.094.051.043.079-1.014.554-2.007 1.143-3.022 1.694-.508.276-1.018.543-1.538.795-.427.206-.907.494-1.386.555-.462 1.362-.849 2.74-.967 4.184-.165 2.014-.146 4.044-.193 6.062-.001.035-.051.033-.054-.001a73.587 73.587 0 0 1-.238-5.516c-.01-1.748.338-3.374.869-5.031z"/><path style="fill:#263238" d="M429.985 350.641c.116 1.036.219 2.098.147 3.14-.002.029-.043.028-.045-.001-.059-1.042-.069-2.08-.19-3.117-.006-.057.081-.079.088-.022zM434.202 351.533c.653-.277 1.302-.537 1.897-.932.048-.032.093.048.044.079-.596.372-1.233.734-1.916.915-.036.009-.061-.047-.025-.062zM426.497 393.1c.012-1.63.043-3.26.062-4.89.031-5.413.075-10.826.172-16.24.077-4.298.179-8.593.3-12.89.001-.025.017-.042.037-.055.006-1.174.011-2.347.018-3.52 0-.03.035-.044.07-.043.036 0 .071.016.071.046l.022 3.527c.017.013.033.029.034.051.217 7.648.411 15.298.456 22.947.009 1.555.008 3.111.015 4.666.052 4.987.075 9.975.057 14.962.005.794.015 1.588.018 2.382.016 4.563-.047 9.126-.049 13.689 0 .246-.273.368-.563.379-.331.013-.684-.119-.683-.399-.002-5.032-.035-10.064-.034-15.096a773.982 773.982 0 0 1-.003-9.516z"/><path style="fill:#ffc727" d="M432.657 388.148s7.095-5.257 13.828-1.705c6.734 3.551 7.79 17.244 7.79 17.244s-9.888 1.414-16.115-4.512c-6-5.712-5.503-11.027-5.503-11.027z"/><path style="fill:#263238" d="M430.723 388.472c1.284-.539 2.714-.673 4.11-.536.283-.063.583-.064.87-.085.333-.024.667-.049 1-.075.689-.054 1.379-.095 2.069-.146 1.4-.105 2.804-.19 4.2-.331.05-.005.06.082.01.089-1.382.177-2.758.373-4.145.514-.713.072-1.426.146-2.141.197-.168.012-.342.031-.519.05.212.048.423.098.63.156 1.113.315 2.185.767 3.215 1.307.559.1 1.114.257 1.663.386.878.207 1.752.433 2.624.662 1.723.451 3.428.959 5.137 1.456.056.016.03.1-.026.086-1.708-.419-3.426-.803-5.137-1.21-.832-.198-1.665-.393-2.495-.598a31.11 31.11 0 0 0-.652-.151 20.785 20.785 0 0 1 5.043 4.384c1.412 1.696 2.536 3.552 3.504 5.528.025.051-.047.1-.076.048a26.864 26.864 0 0 0-4.241-5.566c.031.094.063.189.092.283l.394 1.253c.263.835.528 1.67.778 2.51.017.057-.068.075-.087.022-.299-.81-.583-1.624-.869-2.439l-.421-1.198c-.073-.207-.143-.415-.213-.623-.022-.064-.047-.127-.069-.19a25.016 25.016 0 0 0-2.516-2.145 19.1 19.1 0 0 0-3.766-2.159c.025.123.047.246.072.363.07.324.142.647.209.971.138.672.269 1.345.4 2.018.267 1.373.432 2.763.69 4.137.011.056-.074.079-.087.022-.318-1.381-.728-2.74-1.036-4.124-.154-.692-.31-1.384-.454-2.078-.067-.324-.132-.649-.197-.973-.036-.181-.079-.362-.1-.543-.129-.051-.255-.111-.385-.159-1.861-.689-3.919-1.19-5.903-.809-1.898.364-3.525 1.638-4.27 3.422-.064.154-.308.058-.272-.1.385-1.704 1.809-2.971 3.367-3.626z"/><path style="fill:#263238" d="M441.585 394.319c.201.899.4 1.798.598 2.697.19.859.424 1.746.496 2.623.003.035-.048.035-.058.006-.29-.845-.43-1.767-.603-2.642-.175-.887-.349-1.775-.522-2.663-.01-.056.076-.078.089-.021zM448.447 396.604c.903.458 1.779.979 2.723 1.354.06.024.022.111-.037.082-.909-.453-1.849-.854-2.707-1.401-.023-.014-.002-.046.021-.035z"/><g><path style="fill:#ffc727" d="M431.062 378.494s8.671.553 12.705-5.165c4.034-5.718 3.128-13.884 3.128-13.884s-9.108 1.107-12.726 5.213c-3.616 4.107-3.107 13.836-3.107 13.836z"/><path style="fill:#263238" d="M426.992 387.05c.3-.929.672-1.844 1.023-2.756.337-.875.697-1.741 1.079-2.598a53.86 53.86 0 0 1 2.599-5.109 56.31 56.31 0 0 1 1.943-3.084c.014-.154.044-.307.068-.462.04-.268.079-.537.121-.805.086-.549.182-1.097.274-1.645.2-1.197.447-2.387.637-3.586.009-.056.098-.055.09.002-.175 1.183-.294 2.374-.46 3.558-.081.582-.157 1.164-.246 1.745l-.098.629a62.48 62.48 0 0 1 4.289-5.564c.207-.239.421-.473.633-.708.021-.066.054-.131.08-.198.064-.165.127-.33.189-.496.127-.344.252-.689.376-1.034.244-.679.461-1.364.646-2.062.015-.056.1-.03.086.026-.175.711-.36 1.422-.568 2.125-.101.34-.212.675-.332 1.008l-.062.167a97.456 97.456 0 0 1 3.432-3.523c.041-.041.102.024.062.065-2.266 2.32-4.269 4.882-6.144 7.526.212-.068.429-.121.642-.163a31.81 31.81 0 0 1 2.015-.31c1.413-.18 2.822-.358 4.229-.58.057-.009.079.076.022.087-1.344.265-2.675.568-4.01.874-.63.145-1.262.268-1.896.393-.528.104-1.018.265-1.522.434-.14.201-.285.398-.424.6a81.439 81.439 0 0 0-1.845 2.824c.295-.059.59-.115.885-.173a71.99 71.99 0 0 1 2.015-.362c1.323-.218 2.646-.447 3.953-.745.057-.013.078.074.022.087-1.326.311-2.64.675-3.956 1.025-.635.169-1.275.324-1.917.466-.321.071-.642.142-.964.208-.139.028-.268.065-.39.067a92.24 92.24 0 0 0-3.556 6.302 91.96 91.96 0 0 0-1.4 2.856c-.464.984-.86 1.99-1.288 2.989-.085.2-.402.118-.332-.1z"/><path style="fill:#263238" d="M435.868 367.121c.165-.827.34-1.652.523-2.476.013-.057.098-.03.086.026-.165.813-.321 1.627-.468 2.442-.146.809-.264 1.639-.492 2.43-.004.014-.027.011-.026-.004.043-.811.218-1.623.377-2.418zM440.926 366.88c.402-.2.827-.362 1.246-.525a74.7 74.7 0 0 0 .993-.391c.118-.048.264-.084.366-.161.065-.049.107.065.042.076-.128.021-.253.099-.371.152l-.328.147-.633.282c-.418.185-.844.371-1.281.507-.051.016-.082-.063-.034-.087z"/></g><g><path style="fill:#ffc727" d="M422.186 371.676s-5.249-9.803-13.232-11.321c-7.984-1.518-12.87 6.697-12.87 6.697s5.823 7.437 13.15 8.735c7.326 1.298 12.952-4.111 12.952-4.111z"/><path style="fill:#263238" d="M403.604 364.748a21.612 21.612 0 0 1 6.261.074c-.12-.066-.238-.132-.356-.191-.593-.301-1.182-.606-1.771-.913-1.226-.637-2.465-1.316-3.748-1.83-.06-.024-.023-.109.037-.082 1.249.582 2.543 1.069 3.796 1.645a36.5 36.5 0 0 1 1.852.911c.394.209.83.406 1.217.656 1.754.36 3.467.917 5.075 1.686l-.998-1.087c-.744-.815-1.476-1.67-2.293-2.412-.043-.039.022-.101.065-.062.836.759 1.718 1.461 2.528 2.25.393.383.769.78 1.136 1.188.183.203.366.414.54.632 3.472 1.887 6.426 4.736 8.374 8.179a21.43 21.43 0 0 1 2.33 6.275c.011.055-.068.086-.085.029-1.096-3.701-3.165-7.178-5.869-9.932a23.082 23.082 0 0 0-10.696-6.188 23.442 23.442 0 0 0-7.382-.671c-.105.007-.113-.143-.013-.157z"/><path style="opacity:.1" d="M396.082 367.052s5.825 7.438 13.153 8.734c5.589.991 10.186-1.924 12.053-3.359l.403-.663s-3.779-3.186-10.929-5.024c-7.15-1.836-14.68.312-14.68.312z"/><path style="fill:#263238" d="M408.24 361.253c.607.37 1.209.738 1.773 1.17.555.426 1.072.888 1.54 1.409.041.046-.023.105-.068.065-.53-.46-1.063-.921-1.613-1.357-.54-.428-1.09-.852-1.679-1.211-.05-.029-.002-.106.047-.076zM403.859 362.913c.296.124.598.23.894.353l.889.369c.063.026.034.13-.031.103l-.891-.361c-.298-.121-.588-.257-.886-.378-.054-.022-.028-.109.025-.086z"/></g><g><path style="fill:#ffc727" d="M423.233 384.013s-1.403 9.724-8.715 13.126c-7.312 3.401-16.227 0-16.227 0s3.507-21.04 24.942-13.126z"/><path style="fill:#263238" d="M403.33 390.813a30.493 30.493 0 0 0 2.013-.314c.328-.06.655-.121.983-.186.166-.033.34-.073.513-.103.197-.184.391-.37.592-.548a29.54 29.54 0 0 1 4.472-3.242c.864-.512 1.76-.971 2.68-1.377l-.138.006c-.802.035-1.605.067-2.407.104-1.605.074-3.21.11-4.814.214-.058.004-.055-.086.002-.09 1.61-.109 3.211-.286 4.819-.424.78-.067 1.559-.138 2.339-.208.401-.036.803-.07 1.205-.105.103-.009.206-.022.309-.033.417-.156.837-.303 1.262-.434 1.999-.621 4.144-.866 6.194-.342 1.84.471 3.675 1.677 4.152 3.616.017.067-.088.113-.116.046-.686-1.621-2.485-2.436-4.109-2.773-1.091-.227-2.209-.214-3.311-.065-.045.498-.233 1.011-.369 1.47-.202.684-.402 1.369-.609 2.052-.415 1.366-.871 2.719-1.276 4.087-.017.056-.1.03-.086-.026.339-1.365.626-2.742.955-4.109.162-.671.33-1.341.497-2.012.106-.43.196-.937.368-1.382-.643.113-1.279.265-1.898.447a27.9 27.9 0 0 0-3.314 1.214 28.05 28.05 0 0 1-.421 2.064 31.53 31.53 0 0 1-.694 2.548c-.017.053-.093.029-.082-.025l.033-.159.002-.002c.164-.795.339-1.588.507-2.382.135-.64.259-1.284.398-1.923-.908.408-1.801.854-2.665 1.35-.018.198-.066.401-.095.581-.053.333-.113.666-.174.998-.138.75-.287 1.498-.467 2.239-.346 1.427-.734 2.855-1.257 4.228.011.017.015.038-.001.057a1.747 1.747 0 0 0-.041.048c-.032.037-.083-.006-.074-.046.338-1.441.725-2.87 1.041-4.316.158-.722.317-1.444.462-2.169.072-.362.139-.726.207-1.089.019-.102.034-.213.051-.325a30.733 30.733 0 0 0-7.206 5.878c-.052.059-.156-.024-.107-.087.558-.733 1.112-1.449 1.743-2.126.368-.394.749-.775 1.139-1.148l-.121.021c-.342.058-.686.109-1.03.155-.676.09-1.355.157-2.033.234-.058.007-.08-.08-.023-.087z"/><path style="fill:#263238" d="M408.469 394.11c.012-.085.025-.169.042-.252.021-.108.074-.21.089-.318l.002-.004c.151-.65.278-1.304.395-1.962.008-.046.081-.032.079.013-.031.868-.246 1.73-.556 2.538-.01.026-.056.023-.052-.008l.001-.007zM414.589 393.954c.002-.027.022-.04.043-.041a82.01 82.01 0 0 0 .58-2.59c.093-.456.189-.911.276-1.368.047-.246.092-.492.136-.739.038-.212.057-.44.157-.632.017-.033.076-.025.082.013.061.408-.107.903-.183 1.305-.09.474-.182.949-.286 1.421a48.4 48.4 0 0 1-.723 2.859c-.015.053-.101.041-.097-.015l.015-.213zM403.997 388.012c1.335-.183 2.67-.376 4.008-.538.056-.007.079.079.022.088-1.334.197-2.672.362-4.008.538-.057.007-.079-.08-.022-.088z"/></g><g><path style="fill:#ffc727" d="M426.98 361.207s4.474-19.63-16.617-27.574c-.001 0-5.844 25.839 16.617 27.574z"/><path style="fill:#263238" d="M422.426 350.073a3.845 3.845 0 0 0-.226-.138c-.399-.219-.795-.444-1.192-.666l-2.446-1.368c-1.61-.901-3.199-1.837-4.819-2.718-.051-.028-.004-.104.047-.077 1.624.883 3.276 1.71 4.91 2.573l2.418 1.278c.329.174.659.347.987.522a47.303 47.303 0 0 0-2.281-3.902c-1.102-1.681-2.31-3.283-3.568-4.85-.058-.072.037-.164.104-.099 1.86 1.78 3.471 3.816 4.877 5.979-.002-.069-.003-.138-.007-.204a44.838 44.838 0 0 1-.044-1.466c-.014-.958.032-1.918.003-2.875-.002-.058.088-.056.09.002.039.943.153 1.883.207 2.825.027.471.047.941.061 1.412.008.254.032.544.022.823a44.31 44.31 0 0 1 1.246 2.103 36.387 36.387 0 0 1 1.885 3.953c.021-.489.051-.978.079-1.466.063-1.075.194-2.145.239-3.22.003-.058.091-.056.09.002-.022 1.076.028 2.151-.006 3.226-.017.537-.033 1.074-.068 1.611-.013.197-.023.398-.037.6a35.736 35.736 0 0 1 1.593 5.394c.411 1.966.578 3.936.786 5.928.002.014-.021.014-.022-.001-.185-1.776-.635-3.569-1.119-5.286a73.753 73.753 0 0 0-.833-2.763c-.878-.413-1.718-.929-2.565-1.399-.88-.488-1.765-.964-2.647-1.448-1.759-.965-3.516-1.947-5.332-2.8-.053-.025-.005-.1.047-.077 1.84.833 3.692 1.625 5.497 2.532.899.452 1.783.934 2.659 1.428.732.413 1.485.826 2.185 1.3a41.113 41.113 0 0 0-.652-1.821 52.183 52.183 0 0 0-2.168-4.847z"/><path style="fill:#263238" d="M424.205 345.585c.004-.057.094-.056.09.002-.076 1.12-.113 2.239-.232 3.356-.007.063-.101.062-.099-.002.038-1.122.158-2.236.241-3.356zM414.092 349.334c1.321.531 2.652 1.036 3.966 1.586.037.015.02.075-.018.06-1.333-.499-2.648-1.043-3.973-1.56-.054-.021-.028-.108.025-.086zM412.088 340.28a34.648 34.648 0 0 1 3.751 2.012c.062.038.003.132-.059.096a61.597 61.597 0 0 0-3.739-2.031c-.052-.026-.005-.1.047-.077z"/></g><g><path transform="rotate(-180 427.615 419.686)" style="fill:#455a64" d="M412.406 403.656h30.417v32.061h-30.417z"/><path style="fill:#263238" d="M443.36 415h1.556v60.06h-1.556zM410.477 415h1.556v60.06h-1.556zM426.091 415h1.556v60.06h-1.556z"/><path transform="rotate(-180 427.697 435.881)" style="fill:#263238" d="M411.255 433.662h32.883v4.439h-32.883z"/></g></g></svg>