<?xml version="1.0" encoding="utf-8"?>
<!-- Generator: Adobe Illustrator 27.5.0, SVG Export Plug-In . SVG Version: 6.00 Build 0)  -->
<svg version="1.1" xmlns="http://www.w3.org/2000/svg" xmlns:xlink="http://www.w3.org/1999/xlink" x="0px" y="0px"
	 viewBox="0 0 3710 3710" style="enable-background:new 0 0 3710 3710;" xml:space="preserve">
<g id="Background">
	<g>
		<g>
			<rect style="fill:#FFFFFF;" width="3710" height="3710"/>
		</g>
	</g>
</g>
<g id="Illustration">
	<g>
		<path style="fill:#F4F7FA;" d="M1918.968,483.12c-304.622,121.123-333.799,430.743-608.077,457.315
			c-238.989,23.153-329.827-200.973-497.519-160.814C557.93,840.795,397.329,1449.796,499.92,1950.548
			c105.932,517.06,551.018,1204.426,1288.386,1251.334c827.853,52.665,1454.25-738.209,1492.496-1432.25
			c4.135-75.057,28.562-703.943-452.23-1075.444C2804.548,675.626,2330.77,319.38,1918.968,483.12z"/>
		<g>
			<defs>
				<rect id="SVGID_1_" x="1694.544" y="417.579" width="1558.717" height="1713.152"/>
			</defs>
			<clipPath id="SVGID_00000057842024792564934080000009842659790368463501_">
				<use xlink:href="#SVGID_1_"  style="overflow:visible;"/>
			</clipPath>
			<g style="clip-path:url(#SVGID_00000057842024792564934080000009842659790368463501_);">
				<g>
					<g>
						
							<linearGradient id="SVGID_00000103946395126979749510000003560414432087414148_" gradientUnits="userSpaceOnUse" x1="-3616.4934" y1="-3759.4783" x2="-3088.6338" y2="-384.937" gradientTransform="matrix(-0.583 -0.8125 -0.8125 0.583 -1862.4246 659.3145)">
							<stop  offset="0" style="stop-color:#FF9085"/>
							<stop  offset="1" style="stop-color:#FB6FBB"/>
						</linearGradient>
						<path style="fill:url(#SVGID_00000103946395126979749510000003560414432087414148_);" d="M1872.437,2387.485
							c-17.468-8.255-48.194-41.614-52.618-53.612c-29.442-79.846-94.277-225.76-61.597-309.578
							c5.581-14.315,75.183-6.761,88.656-17.198c45.545-5.955,61.714-5.196,102.231-32.127
							c119.618-79.508-9.211-343.158,239.175-340.814c181.939,1.717,303.057,103.774,368.264-158.435
							c65.207-262.209,419.778-663.741,632.7-397.228c122.198,152.954-106.135,319.995-78.214,506.731
							c26.531,177.448-78.987,282.327-271.059,321.523c-192.072,39.196-128.142,137.788-127.948,298.324
							c0.233,192.838-278.198,136.907-404.539,100.12C2205.749,2275.567,1926.698,2268.774,1872.437,2387.485z"/>
						<g>
							<defs>
								<path id="SVGID_00000151501719082169829210000009538812710589299610_" d="M1724.075,1988.856
									c0.146,132.812-5.176,267.964-5.751,401.71c69.983,29.078,153.012,61.579,197.504-21.636
									c61.857-115.695,290.45-94.037,391.948-63.897c125.623,37.304,404.65,92.703,404.274-99.992
									c-0.313-160.417-64.113-259.137,127.94-298.302c192.053-39.166,297.543-144.069,271.047-321.526
									c-27.883-186.746,200.371-353.692,78.212-506.725c-212.856-266.653-567.65,135.267-632.63,397.143
									c-64.98,261.876-187.099,161.185-368.142,158.276c-247.162-3.971-122.842,265.616-237.958,338.944
									C1860.276,2030.336,1813.793,1999.466,1724.075,1988.856z"/>
							</defs>
							<clipPath id="SVGID_00000097490904430127022380000010700516503300931247_">
								<use xlink:href="#SVGID_00000151501719082169829210000009538812710589299610_"  style="overflow:visible;"/>
							</clipPath>
							<g style="clip-path:url(#SVGID_00000097490904430127022380000010700516503300931247_);">
								<path style="fill:#FCFDFE;" d="M1788.881,2186.928l-0.502-3.557c160.834-22.754,315.776-69.908,460.522-140.151
									c139.092-67.502,268.992-156.378,386.086-264.162c227.367-209.283,402.83-486.524,507.421-801.751l3.409,1.131
									c-104.784,315.804-280.583,593.568-508.397,803.263c-117.354,108.021-247.543,197.095-386.951,264.75
									C2105.387,2116.858,1950.087,2164.121,1788.881,2186.928z"/>
								<path style="fill:#FCFDFE;" d="M2721.47,2285c-139.897-101.993-401.236-188.095-582.567-191.936l0.077-3.592
									c181.952,3.854,444.205,90.267,584.605,192.627L2721.47,2285z"/>
								<path style="fill:#FCFDFE;" d="M1911.617,2168.137l-1.47-3.276c86.077-38.581,149.339-119.181,188.028-239.565
									c28.361-88.241,43.102-195.411,43.817-318.535l3.592,0.021c-0.717,123.49-15.517,231.023-43.989,319.613
									C2062.582,2047.79,1998.662,2129.123,1911.617,2168.137z"/>
								<path style="fill:#FCFDFE;" d="M2668.66,1750.636l-1.634-3.199c158.309-80.962,343.677-56.345,471.307-21.437l-0.947,3.465
									C3010.37,1694.724,2825.945,1670.195,2668.66,1750.636z"/>
								<path style="fill:#FCFDFE;" d="M2927.784,1436.731l-3.328-1.35c32.343-79.75,72.819-249.891-19.492-493.358l3.358-1.273
									c31.173,82.217,50.349,167.749,55.454,247.352C2969.651,1279.708,2957.54,1363.358,2927.784,1436.731z"/>
							</g>
						</g>
					</g>
				</g>
				<g>
					<g>
						<defs>
							<path id="SVGID_00000123410093784080978650000012066677969666675134_" d="M2303.068,2606.657
								c-97.181-14.291-194.264-30.816-291.169-49.567c-1.577,1.425-33.431-209.813,66.908-320.593
								c198.417-214.61,64.769-407.22,26.645-521.35c-61.013-160.937-29.741-356.544,147.516-319.905
								c172.69,31.553,198.886-323.968,169.08-597.855c-25.438-133.303,100.336-295.043,225.85-332.007
								c128.131-40.952,255.999,42.872,295.185,308.581c59.323,307.65-165.198,493.176-248.337,647.42
								c-81.804,151.417,108.496,273.928-44.675,408.09c-128.837,119.209-291.216,204.904-231.816,354.646
								C2479.282,2332.162,2464.671,2453.199,2303.068,2606.657z"/>
						</defs>
						<clipPath id="SVGID_00000153702907862674728260000008160480218193147788_">
							<use xlink:href="#SVGID_00000123410093784080978650000012066677969666675134_"  style="overflow:visible;"/>
						</clipPath>
						
							<linearGradient id="SVGID_00000053509038686215149320000006875128889650888608_" gradientUnits="userSpaceOnUse" x1="472.8596" y1="-1574.9576" x2="-224.9133" y2="408.1884" gradientTransform="matrix(-0.8674 -0.4976 -0.4976 0.8674 2274.7078 2110.0093)">
							<stop  offset="0" style="stop-color:#FFC444"/>
							<stop  offset="0.9964" style="stop-color:#F36F56"/>
						</linearGradient>
						
							<path style="clip-path:url(#SVGID_00000153702907862674728260000008160480218193147788_);fill:url(#SVGID_00000053509038686215149320000006875128889650888608_);" d="
							M2303.068,2606.657c-97.181-14.291-194.264-30.816-291.169-49.567c-1.577,1.425-33.431-209.813,66.908-320.593
							c198.417-214.61,64.769-407.22,26.645-521.35c-60.401-160.818-28.632-334.963,135.047-337.538
							c181.54-6.41,214.453-306.888,181.549-580.223c-25.438-133.303,100.336-295.043,225.85-332.007
							c128.131-40.952,255.999,42.872,295.185,308.581c59.323,307.65-165.198,493.176-248.337,647.42
							c-81.804,151.417,108.496,273.928-44.675,408.09c-128.837,119.209-291.216,204.904-231.816,354.646
							C2479.282,2332.162,2464.671,2453.199,2303.068,2606.657z"/>
						<g style="clip-path:url(#SVGID_00000153702907862674728260000008160480218193147788_);">
							<path style="fill:#FCFDFE;" d="M2172.928,2619.186l-3.588-0.051c-0.028-1.876,92.834-446.23,252.963-878.727
								c22.114-70.042,46.141-140.676,69.375-208.985c62.217-182.915,126.552-372.057,157.104-560.388
								c34.153-210.525,21.98-400.138-37.213-579.674l3.411-1.126c59.377,180.098,71.594,370.268,37.346,581.375
								c-30.6,188.63-94.984,377.916-157.248,560.969c-23.229,68.291-47.247,138.906-69.38,208.994
								C2272.175,2156.242,2174.129,2605.494,2172.928,2619.186z"/>
							<path style="fill:#FCFDFE;" d="M2607.568,1177.763l-2.669-2.402c108.34-120.374,239.058-291.439,309.284-383.341
								c54.336-71.104,56.733-73.789,58.993-73.438l-0.554,3.549l0.277-1.775l0.705,1.612c-2.809,1.882-26.533,32.927-56.566,72.234
								C2846.781,886.142,2716.004,1057.283,2607.568,1177.763z"/>
							<path style="fill:#FCFDFE;" d="M2640.621,1012.757c-22.437-138.103-79.331-228.917-123.108-280.78
								c-48.566-57.54-92.783-82.174-97.265-82.649c0.01,0.002,0.389,0.033,0.815-0.253l-1.999-2.985
								c0.923-0.617,2.043-0.461,4.612,0.656c11.983,5.208,56.773,33.225,103.777,91.643
								c59.211,73.591,99.57,168.266,116.714,273.792L2640.621,1012.757z"/>
							<path style="fill:#FCFDFE;" d="M2330.604,2023.258l-3.567-0.424c15.285-128.388-14.631-266.484-88.918-410.452
								c-38.74-75.078-88.145-148.63-146.842-218.614c-4.067-4.847-5.735-6.848-6.206-7.662l3.107-1.799
								c0.335,0.577,2.769,3.479,5.85,7.153c58.867,70.185,108.421,143.96,147.282,219.275
								C2315.933,1755.352,2345.975,1894.144,2330.604,2023.258z"/>
							<path style="fill:#FCFDFE;" d="M2374.419,1888.052l-3.055-1.89c116.489-188.198,361.927-201.184,364.088-200.604l1.338,1.683
								l-1.231,1.764l-0.566-1.678l-0.163,1.752c-0.009,0-0.021,0-0.037,0C2730.712,1689.079,2489.476,1702.17,2374.419,1888.052z"
								/>
							<path style="fill:#FCFDFE;" d="M2189.149,2546.704l-3.588-0.133c2.053-55.907-17.928-151.203-124.788-287.705
								c-5.754-7.35-5.754-7.35-5.606-8.381l3.556,0.512l-1.778-0.256l1.652-0.656c0.296,0.554,2.478,3.341,5.005,6.568
								C2171.13,2394.008,2191.226,2490.197,2189.149,2546.704z"/>
							<path style="fill:#FCFDFE;" d="M2213.834,2441.396l-3.451-1c12.309-42.472,60.763-125.694,246.983-205.87
								c2.583-1.112,4.247-1.825,4.84-2.131l1.641,3.195c-0.619,0.317-2.357,1.07-5.063,2.234
								C2273.922,2317.418,2225.966,2399.532,2213.834,2441.396z"/>
						</g>
					</g>
				</g>
			</g>
		</g>
		<g>
			<g>
				<path style="fill:#99A0AA;" d="M1642.745,1223.156l-0.63-0.072c-10.187-1.162-19.515,5.546-20.819,14.983l-235.478,1701.881
					c-1.359,9.812,6.144,17.514,16.74,17.202l0.655-0.019c10.574-0.311,20.231-8.495,21.578-18.275l234.002-1696.567
					C1660.09,1232.88,1652.914,1224.316,1642.745,1223.156z"/>
				<path style="fill:#99A0AA;" d="M2394.794,2794.823l-205.98-1559.884c-1.185-8.982-9.675-15.302-18.97-14.112l-0.576,0.074
					c-9.314,1.192-15.908,9.464-14.714,18.473l207.199,1564.37c1.149,8.685,9.367,13.748,18.343,11.311l0.555-0.151
					C2389.613,2812.472,2395.937,2803.484,2394.794,2794.823z"/>
				<path style="fill:#99A0AA;" d="M1737.206,2663.188l70.427-1571.848c0.405-9.05,8.316-16.081,17.68-15.698l0.58,0.024
					c9.382,0.383,16.666,8.054,16.255,17.133l-71.254,1576.422c-0.395,8.752-8.144,14.506-17.297,12.854l-0.566-0.103
					C1743.894,2680.323,1736.816,2671.915,1737.206,2663.188z"/>
			</g>
			<g>
				<g>
					<polygon style="fill:#FFFFFF;" points="2526.27,718.836 2526.27,2193.12 2041.182,2237.335 1217.202,2312.488 
						1217.202,665.935 1362.133,671.762 					"/>
					<g>
						<path style="fill:#B7C0CE;" d="M2544.105,701.541v28.909c0,7.708-6.536,13.714-14.242,13.389l-5.077-0.18l-1135.342-43.565
							l-171.177-6.549l-1.055-0.037c-9.624-0.36-17.843-7.634-17.843-16.245v-32.42c0-8.613,7.914-15.233,17.539-14.836l89.15,3.871
							l1223.718,53.153C2537.481,687.357,2544.105,693.87,2544.105,701.541z"/>
						<path style="fill:#B7C0CE;" d="M2544.105,2173.437v28.91c0,7.707-6.536,14.51-14.242,15.233l-431.134,40.416l-881.365,82.679
							c-9.624,0.905-17.996-5.355-17.996-13.966v-32.42c0-8.611,7.914-16.282,17.539-17.115l1.081-0.073l762.323-67.663
							l544.021-48.268l5.508-0.397C2537.547,2160.085,2544.105,2165.765,2544.105,2173.437z"/>
					</g>
				</g>
				<g>
					<polygon style="fill:#B7C0CE;" points="1630.866,1667.052 1492.165,1674.293 1492.165,1461.906 1630.866,1456.933 					"/>
					<polygon style="fill:#B7C0CE;" points="1855.567,1655.323 1721.699,1662.311 1721.699,1384.98 1855.567,1380.901 					"/>
					<polygon style="fill:#B7C0CE;" points="2072.546,1643.997 1943.262,1650.746 1943.262,1288.499 2072.546,1285.485 					"/>
					<polygon style="fill:#B7C0CE;" points="2282.195,1633.053 2157.264,1639.575 2157.264,1166.269 2282.195,1164.545 					"/>
					<path style="fill:#B7C0CE;" d="M2231.257,880.648c-10.167-5.862-23.484-3.003-29.671,6.477
						c-6.657,10.131-13.533,20.046-20.66,29.742c-133.046,180.843-351.701,287.983-659.221,316.93
						c-10.023,0.94-17.947,1.664-23.809,2.424c-3.836,0.505-9.298,1.23-14.618,3.364c-5.355,2.136-10.493,5.754-13.496,12.086
						c-5.21,11,0.615,23.41,12.954,27.752c3.074,1.085,6.295,1.557,9.406,1.484c3.548-0.072,7.056-0.869,10.205-2.208
						c4.487-0.687,14.148-1.627,23.484-2.532c56.3-5.5,186.198-18.129,325.504-69.98c156.13-58.11,278.066-147.446,364.871-265.729
						c7.707-10.456,15.123-21.166,22.252-32.095C2244.643,898.919,2241.423,886.51,2231.257,880.648z"/>
					<path style="fill:#B7C0CE;" d="M2240.813,1004.104c-11.26,0.007-20.75-8.174-21.492-18.841l-6.146-88.282l-90.618,55.867
						c-10.078,6.201-23.741,3.661-30.51-5.706c-6.776-9.383-4.061-22.027,6.056-28.224l153.23-93.861l10.939,157.636
						c0.767,11.072-8.196,20.638-20.042,21.367C2241.755,1004.09,2241.281,1004.104,2240.813,1004.104z"/>
				</g>
				<g>
					<polygon style="fill:#B7C0CE;" points="2404.994,1819.987 1374.147,1879.088 1374.147,1832.065 2404.994,1776.891 					"/>
					<polygon style="fill:#B7C0CE;" points="2404.994,1934.908 1374.147,2004.484 1374.147,1953.542 2404.994,1888.221 					"/>
					<polygon style="fill:#B7C0CE;" points="2404.994,2049.829 1374.147,2129.879 1374.147,2075.018 2404.994,1999.551 					"/>
				</g>
			</g>
			<path style="opacity:0.2;fill:#B7C0CE;" d="M2098.319,2257.995l-881.16,82.679c-9.624,0.905-17.792-5.355-17.792-13.966v-32.42
				c0-8.611,7.433-16.282,17.058-17.115l0.776-0.073V693.545l-0.524-0.037c-9.623-0.36-17.311-7.634-17.311-16.245v-32.42
				c0-8.613,7.914-15.233,17.539-14.836l89.15,3.871c19.106,10.06,38.045,22.47,55.522,37.885
				c9.661,8.503,18.968,17.91,27.616,28.332c34.3,41.393,58.89,98.562,61.569,177.513c8.359,246.48-29.55,296.884,32.504,361.977
				c8.431,8.83,18.712,17.911,31.196,27.789c3.618,2.859,7.384,5.79,11.365,8.793c54.49,41.141,133.19,76.02,195.86,138.219
				c53.948,53.552,96.031,127.293,100.625,242.682c1.774,44.07-1.917,94.256-12.519,151.68c-2.929,15.813-5.173,31.046-6.802,45.736
				c-2.822,25.616-3.726,49.607-2.966,72.04c0.615,17.187,2.171,33.434,4.668,48.884c3.871,24.242,9.986,46.423,17.91,66.757
				c7.201,18.454,15.885,35.351,25.835,50.874c33.542,52.393,81.087,89.191,131.961,116.401
				c19.791,10.64,40.126,19.793,60.317,27.897C2060.217,2245.116,2079.613,2251.918,2098.319,2257.995z"/>
		</g>
		<g>
			
				<linearGradient id="SVGID_00000021812592073429450780000002079560607515134384_" gradientUnits="userSpaceOnUse" x1="1523.8022" y1="1670.1898" x2="1619.4719" y2="1670.1898">
				<stop  offset="0" style="stop-color:#FFC444"/>
				<stop  offset="0.9964" style="stop-color:#F36F56"/>
			</linearGradient>
			<path style="fill:url(#SVGID_00000021812592073429450780000002079560607515134384_);" d="M1552.807,1704.665
				c0,0,0-25.758-6.911-35.182c-6.911-9.424-20.104-13.727-21.989-21.313c-1.885-7.586,21.989,9.377,30.784,13.146
				c8.796,3.77,56.52-21.8,60.941-24.502c11.308-6.911-4.398,20.732-20.732,28.899c-16.334,8.167-25.126,8.796-25.126,8.796
				l4.394,30.156h-17.591H1552.807z"/>
			
				<linearGradient id="SVGID_00000067209206507283816510000009686767184145398710_" gradientUnits="userSpaceOnUse" x1="1354.8639" y1="734.3224" x2="1361.254" y2="2715.5488">
				<stop  offset="0" style="stop-color:#FF9085"/>
				<stop  offset="1" style="stop-color:#FB6FBB"/>
			</linearGradient>
			<path style="fill:url(#SVGID_00000067209206507283816510000009686767184145398710_);" d="M1139.51,1635.928
				c22.333-22.01,64.934-18.645,90.578-10.293c48.232,15.709,52.068,54.132,123.996,111.586
				c34.471,27.535,52.197,41.3,76.168,41.172c58.69-0.314,98.595-83.086,104.988-96.754c19.196,2.859,38.393,5.718,57.59,8.577
				c9.105,100.533-46.646,194.847-135.816,232.278c-137.25,57.612-254.819-61.032-259.863-66.297
				C1133.704,1789.958,1099.12,1675.732,1139.51,1635.928z"/>
			
				<linearGradient id="SVGID_00000057842932951356547740000018112666184400689309_" gradientUnits="userSpaceOnUse" x1="1705.2916" y1="2979.6331" x2="1788.9371" y2="2979.6331" gradientTransform="matrix(-0.996 0.0899 0.0899 0.996 2457.2842 -161.2849)">
				<stop  offset="0" style="stop-color:#444B8C"/>
				<stop  offset="0.9964" style="stop-color:#26264F"/>
			</linearGradient>
			<path style="fill:url(#SVGID_00000057842932951356547740000018112666184400689309_);" d="M948.471,2947.375
				c-4.339,3.99-4.612,13.31-4.789,19.401c-0.081,2.721-0.121,4.082,0.241,5.02c2.632,6.838,16.199,6.743,37.536,7.614
				c33.719,1.375,43.851,3.403,46.17-1.743c2.171-4.824-4.244-12.112-4.965-12.915c-3.878-4.314-8.399-5.694-17.114-7.984
				c-16.128-4.237-26.984-6.432-30.27-7.098C954.753,2945.512,951.321,2944.756,948.471,2947.375z"/>
			
				<linearGradient id="SVGID_00000030450173262182525790000010937207601185727407_" gradientUnits="userSpaceOnUse" x1="1270.4" y1="2943.2371" x2="1307.0988" y2="2867.2791" gradientTransform="matrix(-0.9976 0.0696 0.0696 0.9976 2041.3982 -61.4496)">
				<stop  offset="0" style="stop-color:#FFC444"/>
				<stop  offset="0.9964" style="stop-color:#F36F56"/>
			</linearGradient>
			<path style="fill:url(#SVGID_00000030450173262182525790000010937207601185727407_);" d="M972.114,2913.748l1.322,38.38
				c-1.05,1.795-12.7,6.724-21.466,1.498l-6.622-38.011L972.114,2913.748z"/>
			
				<linearGradient id="SVGID_00000024693001529204563730000013042799403675703485_" gradientUnits="userSpaceOnUse" x1="1312.4039" y1="2944.1592" x2="1401.2693" y2="2944.1592" gradientTransform="matrix(-0.977 0.2135 0.2135 0.977 1968.6593 -211.2321)">
				<stop  offset="0" style="stop-color:#444B8C"/>
				<stop  offset="0.9964" style="stop-color:#26264F"/>
			</linearGradient>
			<path style="fill:url(#SVGID_00000024693001529204563730000013042799403675703485_);" d="M1232.496,2942.017
				c-5.796,5.755-7.637,16.821-3.168,22.559c4.392,5.642,11.644,1.972,31.568,3.629c21.341,1.777,26.654,7.122,41.394,3.888
				c5.955-1.31,16.529-4.693,16.555-8.895c0.018-2.954-5.177-4.756-22.487-11.599c-24.57-9.711-24.436-10.163-29.701-11.326
				C1253.432,2937.353,1240.152,2934.419,1232.496,2942.017z"/>
			
				<linearGradient id="SVGID_00000052080467268141427570000004565018058091649701_" gradientUnits="userSpaceOnUse" x1="1155.2756" y1="2948.7646" x2="1192.7505" y2="2871.2004" gradientTransform="matrix(-0.9894 0.1455 0.1455 0.9894 1975.2667 -129.3392)">
				<stop  offset="0" style="stop-color:#FFC444"/>
				<stop  offset="0.9964" style="stop-color:#F36F56"/>
			</linearGradient>
			<path style="fill:url(#SVGID_00000052080467268141427570000004565018058091649701_);" d="M1248.048,2907.882l8.824,36.234
				c-0.912,1.869-12.151,7.671-21.29,3.131l-14.08-35.463L1248.048,2907.882z"/>
			
				<linearGradient id="SVGID_00000117651037642901780400000015687874246065431699_" gradientUnits="userSpaceOnUse" x1="1677.879" y1="2734.1587" x2="1440.8447" y2="2199.8269" gradientTransform="matrix(0.9986 0.0531 -0.0531 0.9986 -236.7776 -20.0256)">
				<stop  offset="0" style="stop-color:#40447E"/>
				<stop  offset="0.9964" style="stop-color:#3C3B6B"/>
			</linearGradient>
			<path style="fill:url(#SVGID_00000117651037642901780400000015687874246065431699_);" d="M1194.354,2121.726
				c-4.843,119.939-3.835,255.138,7.998,402.596c11.694,145.739,31.917,277.938,55.449,394.491
				c-13.876,2.953-27.749,5.905-41.625,8.856c-32.982-34.206-74.051-87.476-91.344-160.586
				c-10.733-45.376-5.142-68.103-10.533-123.5c-8.585-88.204-32.968-135.474-56.935-207.508
				c-21.537-64.73-46.032-159.351-55.201-284.573C1066.227,2141.577,1130.29,2131.651,1194.354,2121.726z"/>
			
				<linearGradient id="SVGID_00000152951638875144332220000012600634420146738570_" gradientUnits="userSpaceOnUse" x1="1641.1202" y1="2750.4634" x2="1404.0865" y2="2216.1328" gradientTransform="matrix(0.9986 0.0531 -0.0531 0.9986 -236.7776 -20.0256)">
				<stop  offset="0" style="stop-color:#40447E"/>
				<stop  offset="0.9964" style="stop-color:#3C3B6B"/>
			</linearGradient>
			<path style="opacity:0.3;fill:url(#SVGID_00000152951638875144332220000012600634420146738570_);" d="M1175.292,2682.251
				c-15.289-60.504-44.727-76.498-45.786-133.611c-0.748-40.399,13.769-43.705,12.798-82.372
				c-1.472-58.652-35.837-89.4-53.106-126.291c-18.238-38.961-25.234-101.546,23.879-205.658
				c-36.971,5.728-73.944,11.457-110.916,17.184c9.169,125.222,33.664,219.843,55.201,284.573
				c23.968,72.035,48.349,119.304,56.935,207.508c5.392,55.397-0.199,78.124,10.533,123.5
				c17.294,73.111,58.363,126.38,91.344,160.587c3.529-0.751,7.058-1.501,10.587-2.252c-35.655-42.543-48.241-80.541-51.447-111.375
				C1170.101,2763.879,1190.707,2743.256,1175.292,2682.251z"/>
			
				<linearGradient id="SVGID_00000027571734263220567860000014241330214130732212_" gradientUnits="userSpaceOnUse" x1="1126.3812" y1="2821.8113" x2="889.3482" y2="2287.4824" gradientTransform="matrix(0.9976 -0.0696 0.0696 0.9976 -159.9269 92.3884)">
				<stop  offset="0" style="stop-color:#40447E"/>
				<stop  offset="0.9964" style="stop-color:#3C3B6B"/>
			</linearGradient>
			<path style="fill:url(#SVGID_00000027571734263220567860000014241330214130732212_);" d="M1055.667,2114.254
				c-16.485,151.991-31.635,306.9-45.262,464.647c-10.227,118.373-19.333,235.299-27.393,350.733
				c-14.064,0.981-28.13,1.963-42.194,2.943c-12.164-25.855-28.052-65.242-37.715-115.155
				c-11.737-60.621-6.392-95.964-9.634-158.318c-3.641-69.935-13.499-85.653-27.722-174.385
				c-28.867-180.083-43.301-270.125,2.417-323.224C883.003,2144.257,928.929,2101.477,1055.667,2114.254z"/>
			
				<linearGradient id="SVGID_00000058563426372817324680000013693732449494295714_" gradientUnits="userSpaceOnUse" x1="971.3052" y1="735.5596" x2="977.6955" y2="2716.7876">
				<stop  offset="0" style="stop-color:#FF9085"/>
				<stop  offset="1" style="stop-color:#FB6FBB"/>
			</linearGradient>
			<path style="fill:url(#SVGID_00000058563426372817324680000013693732449494295714_);" d="M691.324,1641.696
				c75.972-25.773,191.893-54.339,333.673-48.522c82.133,3.369,152.747,17.449,208.697,33.111
				c7.573,42.305,15.145,84.612,22.717,126.917c1.747,42.419,2.318,99.881-2.436,167.776c-4.753,67.889-9.419,68.912-20.319,164.746
				c-17.771,156.249-10.32,197.068-41.717,215.843c-20.422,12.212-27.812-2.524-132.037-12.834
				c-69.887-6.914-105.554-10.127-140.942,1.856c-48.19,16.316-64.312,43.698-84.194,34.794c-19.066-8.541-21.5-41.455-23.813-98.84
				c-3.568-88.523-3.361-148.692-3.691-170.23c-1.521-98.818-26.558-174.265-58.624-270.892
				C728.582,1724.984,707.46,1676.073,691.324,1641.696z"/>
			<g>
				
					<linearGradient id="SVGID_00000005952609243781397080000009944741153478560190_" gradientUnits="userSpaceOnUse" x1="928.4671" y1="1565.4974" x2="1095.7909" y2="1565.4974">
					<stop  offset="0" style="stop-color:#FFC444"/>
					<stop  offset="0.9964" style="stop-color:#F36F56"/>
				</linearGradient>
				<path style="fill:url(#SVGID_00000005952609243781397080000009944741153478560190_);" d="M1015.591,1495.28
					c-1.114,24.846-4.932,44.393-8.271,57.742c-3.825,15.295-6.201,19.172-9.134,22.264c-4.415,4.656-10.932,8.411-46.989,15.343
					c-19.621,3.771-22.106,3.507-22.636,5.405c-2.584,9.264,48.523,44.026,103.488,39.229c33.641-2.936,65.033-20.369,63.701-30.47
					c-1.341-10.168-34.98-6.541-43.952-25.283c-6.24-13.038,2.468-30.613,12.424-45.021
					C1056.23,1517.389,1023.581,1512.379,1015.591,1495.28z"/>
				<g>
					
						<linearGradient id="SVGID_00000110460177010018487010000004475982512319165370_" gradientUnits="userSpaceOnUse" x1="743.9771" y1="1406.719" x2="680.7199" y2="1246.0571" gradientTransform="matrix(-0.9988 -0.0494 -0.0494 0.9988 1790.5552 251.6029)">
						<stop  offset="0" style="stop-color:#311944"/>
						<stop  offset="1" style="stop-color:#6B3976"/>
					</linearGradient>
					<path style="fill:url(#SVGID_00000110460177010018487010000004475982512319165370_);" d="M1077.041,1508.396
						c8.437-10.048,9.896-28.296,1.431-40.331c-7.285-10.356-19.504-12.428-26.82-13.671c-21.2-3.597-48.589,3.875-58.996,23.008
						c-6.165,11.339,4.548,36.152,6.195,40.599c1.867,5.027,5.634,6.919,9.006,10.824c4.672,5.417,11.978,14.021,23.888,28.397
						c1.197-3.992,2.957-8.917,5.618-14.217c1.024-2.041,5.126-10.001,11.036-16.469
						C1060.234,1513.571,1069.042,1517.918,1077.041,1508.396z"/>
					
						<linearGradient id="SVGID_00000110459824135178044540000014607148507291868058_" gradientUnits="userSpaceOnUse" x1="1022.4008" y1="1450.4971" x2="1073.2806" y2="1674.3679">
						<stop  offset="0" style="stop-color:#FFC444"/>
						<stop  offset="0.9964" style="stop-color:#F36F56"/>
					</linearGradient>
					<path style="fill:url(#SVGID_00000110459824135178044540000014607148507291868058_);" d="M1014.328,1544.74
						c0,0,12.799,23.752,40.816,23.422c25.084-0.297,31.729-56.162,16.395-68.907c-5.117-4.253-15.697-6.469-24.5-4.5
						c-5.2,1.164-7.048,3.2-15.582,4.934c-7.872,1.602-10.018,0.625-12.467,2.471c-3.062,2.312-5.532,8.245-1.509,24.894
						c-4.513-5.081-10.139-7.24-14.297-5.542c-0.663,0.273-2.442,1.349-3.502,3.067
						C995.848,1530.797,1001.262,1539.286,1014.328,1544.74z"/>
					
						<linearGradient id="SVGID_00000076599536511930888500000014235632495294135439_" gradientUnits="userSpaceOnUse" x1="724.6549" y1="1414.4138" x2="661.3315" y2="1253.5841" gradientTransform="matrix(-0.9988 -0.0494 -0.0494 0.9988 1790.5552 251.6029)">
						<stop  offset="0" style="stop-color:#311944"/>
						<stop  offset="1" style="stop-color:#6B3976"/>
					</linearGradient>
					<path style="fill:url(#SVGID_00000076599536511930888500000014235632495294135439_);" d="M1018.039,1498.748
						c1.157,0.963-2.767,5.264-3.38,11.616c-1.193,12.328,10.526,27.827,23.218,29.763c7.504,1.144,9.82-3.292,22.359-3.946
						c7.766-0.404,14.14,0.92,18.136,2.019c3.198,13.761-1.208,27.076-10.601,32.863c-10.112,6.23-22.352,1.473-27.469-0.517
						c-3.423-1.331-14.394-5.571-19.685-16.121c-5.512-10.994,0.797-17.108-5.794-24.696c-3.325-3.827-7.862-5.65-11.986-12.936
						c-1.119-1.98-1.845-3.717-2.283-4.882C1007.369,1505.421,1016.362,1497.353,1018.039,1498.748z"/>
					<path style="fill:#FFFFFF;" d="M1069.031,1542.74c0,0-5.549,2.535-14.851,1.513c-0.452-0.05-0.96,0.056-1.03,0.288
						c-0.261,0.874,5.513,5.161,11.11,3.905c3.974-0.895,7.218-4.439,6.741-5.41
						C1070.8,1542.627,1069.911,1542.632,1069.031,1542.74z"/>
				</g>
			</g>
			<g>
				
					<linearGradient id="SVGID_00000058564643405013590060000006805907986354272169_" gradientUnits="userSpaceOnUse" x1="4073.394" y1="1393.2469" x2="4082.2363" y2="1522.7887" gradientTransform="matrix(0.9912 -0.1322 0.1322 0.9912 -3204.3625 779.4491)">
					<stop  offset="0" style="stop-color:#311944"/>
					<stop  offset="1" style="stop-color:#893976"/>
				</linearGradient>
				<path style="fill:url(#SVGID_00000058564643405013590060000006805907986354272169_);" d="M1004.043,1634.527
					c4.585,17.329,9.95,21.882,14.147,22.658l11.568-0.206l0,0c2.038-7.411,4.076-14.824,6.114-22.233
					c-4.696,0.6-10.099,1.005-16.083,0.956C1013.937,1635.653,1008.649,1635.18,1004.043,1634.527z"/>
				
					<linearGradient id="SVGID_00000141424488701262368070000004468951836693320868_" gradientUnits="userSpaceOnUse" x1="4044.4648" y1="1585.8547" x2="4044.4648" y2="1294.9346" gradientTransform="matrix(0.9912 -0.1322 0.1322 0.9912 -3204.3625 779.4491)">
					<stop  offset="0" style="stop-color:#311944"/>
					<stop  offset="1" style="stop-color:#893976"/>
				</linearGradient>
				<path style="fill:url(#SVGID_00000141424488701262368070000004468951836693320868_);" d="M1014.821,1655.728
					c0,0,7.274,166.152-40.482,199.278c2.016,5.082,6.399,47.976,6.399,47.976s45.867-20.762,48.717-20.174
					c2.851,0.587,45.808-98.18,0.301-225.828L1014.821,1655.728z"/>
			</g>
			
				<linearGradient id="SVGID_00000115473916019880888500000000104487686860113577_" gradientUnits="userSpaceOnUse" x1="765.3344" y1="2076.2969" x2="1215.7883" y2="2076.2969">
				<stop  offset="0" style="stop-color:#FF9085"/>
				<stop  offset="1" style="stop-color:#FB6FBB"/>
			</linearGradient>
			<path style="opacity:0.3;fill:url(#SVGID_00000115473916019880888500000000104487686860113577_);" d="M1151.417,2250.275
				c-51.266-21.864-50.977-67.131-98.858-86.013c-68.325-26.945-143.796,35.696-155.583,18.332
				c-12.268-18.067,77.874-73.495,65.872-128.142c-9.539-43.428-72.467-35.72-106.183-95.163
				c-31.983-56.388-0.995-108.533-29.31-128.125c-10.155-7.028-28.065-9.798-62.02,5.152
				c23.692,73.946,40.682,139.156,41.927,219.994c0.331,21.537,0.123,81.707,3.691,170.23c2.313,57.385,4.747,90.299,23.813,98.84
				c19.882,8.904,36.005-18.478,84.194-34.794c35.388-11.983,71.055-8.77,140.942-1.856
				c104.225,10.311,111.615,25.046,132.037,12.834c13.3-7.952,19.621-19.907,23.849-42.87
				C1194.895,2260.951,1172.729,2259.363,1151.417,2250.275z"/>
			<g>
				
					<linearGradient id="SVGID_00000116219150035074994920000007467252911134681782_" gradientUnits="userSpaceOnUse" x1="1039.9126" y1="2078.1804" x2="893.441" y2="1967.0923">
					<stop  offset="0.0036" style="stop-color:#26264F"/>
					<stop  offset="1" style="stop-color:#444B8C"/>
				</linearGradient>
				<path style="fill:url(#SVGID_00000116219150035074994920000007467252911134681782_);" d="M1062.792,1835.933l-209.953,17.615
					c-2.213,0.186-3.969,1.775-4.441,4.018l-59.564,282.99c-0.852,4.049,4.622,14.306,8.53,13.911l202.077-26.899
					c2.145-0.219,3.81-1.694,4.31-3.818l69.576-275.756C1074.294,1843.89,1067.027,1835.578,1062.792,1835.933z"/>
				
					<linearGradient id="SVGID_00000085959289911935049690000010600866404478661559_" gradientUnits="userSpaceOnUse" x1="-250.8045" y1="2009.1758" x2="-577.8365" y2="2183.2412" gradientTransform="matrix(-0.9948 0.1018 0.1018 0.9948 349.6805 -26.8702)">
					<stop  offset="0.0036" style="stop-color:#26264F"/>
					<stop  offset="1" style="stop-color:#444B8C"/>
				</linearGradient>
				<path style="fill:url(#SVGID_00000085959289911935049690000010600866404478661559_);" d="M1067.204,1842.916l-210.34,17.357
					c-2.217,0.183-3.976,1.772-4.448,4.018L792.78,2147.55c-0.853,4.053,2.702,8.313,6.613,7.918l204.38-20.631
					c2.149-0.216,3.817-1.691,4.318-3.817l66.043-280.167C1075.102,1846.747,1071.447,1842.565,1067.204,1842.916z"/>
				<path style="fill:#FFFFFF;" d="M1009.138,1856.19l5.158-23.352c0.466-2.108-1.337-4.245-3.498-4.146l-77.257,3.531
					c-1.312,0.06-2.356,0.995-2.58,2.311l-4.334,25.366c-0.356,2.083,1.432,4.11,3.498,3.962l76.482-5.482
					C1007.863,1858.29,1008.865,1857.424,1009.138,1856.19z"/>
				<path style="opacity:0.3;fill:#FFFFFF;" d="M908.952,2087.281c7.547-46.529-18.582-76.479-0.585-112.639
					c25.603-51.436,99.058-31.641,115.695-73.817c4.497-11.4,5.09-28.183-6.603-53.807l49.745-4.101
					c4.243-0.35,7.898,3.828,6.931,7.937l-66.043,280.167c-0.501,2.128-2.169,3.598-4.318,3.816l-126.107,12.734
					C897.349,2127.099,905.886,2106.193,908.952,2087.281z"/>
			</g>
			
				<linearGradient id="SVGID_00000181767265426913255880000001878812611236199314_" gradientUnits="userSpaceOnUse" x1="760.3159" y1="2064.3242" x2="866.4532" y2="2064.3242">
				<stop  offset="0" style="stop-color:#FFC444"/>
				<stop  offset="0.9964" style="stop-color:#F36F56"/>
			</linearGradient>
			<path style="fill:url(#SVGID_00000181767265426913255880000001878812611236199314_);" d="M765.334,2059.469
				c0,0,22.295-1.398,23.411-3.994c1.116-2.596,25.482-25.365,24.683-18.175c-0.799,7.19-5.065,19.673-3.595,20.971
				c1.47,1.298,44.538-9.786,51.728-15.578c7.19-5.792,6.99,25.165-4.194,36.349c-11.184,11.184-33.753,12.583-48.732,13.581
				c-14.979,0.999-44.511-4.427-48.319-2.713C766.552,2077.071,765.334,2059.469,765.334,2059.469z"/>
			
				<linearGradient id="SVGID_00000080176319694847209900000017473307733592216503_" gradientUnits="userSpaceOnUse" x1="634.9883" y1="736.645" x2="641.3785" y2="2717.8733">
				<stop  offset="0" style="stop-color:#FF9085"/>
				<stop  offset="1" style="stop-color:#FB6FBB"/>
			</linearGradient>
			<path style="fill:url(#SVGID_00000080176319694847209900000017473307733592216503_);" d="M769.107,2047.599
				c1.765,20.634-2.728,34.649-10.226,44.259c-33.235,42.602-146.214,25.205-213.372-31.837
				c-49.711-42.223-76.04-107.795-75.078-166.555c1.876-114.656,108.113-227.023,266.164-265.867
				c23.41,69.936,46.819,127.939,70.229,197.876c-97.445,1.504-156.634,86.905-147.845,139.343
				C665.526,2003.883,711.096,2039.015,769.107,2047.599z"/>
		</g>
		<g>
			<path style="fill:#B7C0CE;" d="M2230.851,3039.824c-1.932,0-3.565-1.473-3.745-3.418l-68.242-737.492
				c-0.191-2.07,1.331-3.904,3.401-4.096c2.063-0.172,3.905,1.332,4.096,3.403l60.729,656.288v-672.263
				c0-2.079,1.686-3.765,3.765-3.765c2.079,0,3.765,1.686,3.765,3.765v753.814c0,2.012-1.581,3.668-3.592,3.761
				C2230.969,3039.823,2230.91,3039.824,2230.851,3039.824z"/>
			<g>
				<polygon style="opacity:0.81;fill:#F4F7FA;" points="2991.811,2362.917 2243.166,2280.893 804.888,2346.267 1558.165,2436.469 
									"/>
				<polygon style="fill:#B7C0CE;" points="1558.165,2436.47 2991.811,2362.916 2991.811,2398.443 1558.165,2471.996 
					804.888,2381.793 804.888,2346.266 				"/>
			</g>
			<path style="fill:#B7C0CE;" d="M1563.255,3297.043c-0.05,0-0.099-0.001-0.149-0.003c-2.02-0.079-3.618-1.74-3.618-3.762v-829.924
				c0-2.079,1.686-3.765,3.765-3.765c2.079,0,3.765,1.686,3.765,3.765v733.48l57.377-733.773c0.164-2.073,1.958-3.619,4.048-3.461
				c2.072,0.163,3.621,1.974,3.46,4.047l-64.896,829.924C1566.852,3295.537,1565.21,3297.043,1563.255,3297.043z"/>
			<path style="fill:#B7C0CE;" d="M813.115,3149.611c-0.05,0-0.099-0.001-0.149-0.003c-2.02-0.079-3.618-1.74-3.618-3.762v-766.012
				c0-2.079,1.686-3.765,3.765-3.765c2.079,0,3.765,1.686,3.765,3.765v669.965l52.627-670.26c0.164-2.073,2.009-3.625,4.048-3.458
				c2.074,0.163,3.621,1.974,3.46,4.048l-60.146,766.012C816.713,3148.106,815.071,3149.611,813.115,3149.611z"/>
			<path style="fill:#B7C0CE;" d="M2984.717,3149.611c-1.949,0-3.587-1.494-3.75-3.453l-63.865-766.012
				c-0.173-2.072,1.368-3.892,3.439-4.064c2.08-0.168,3.892,1.368,4.065,3.439l56.348,675.852v-656.93
				c0-2.079,1.686-3.765,3.765-3.765c2.079,0,3.765,1.686,3.765,3.765v747.403c0,2.019-1.592,3.678-3.609,3.761
				C2984.822,3149.61,2984.768,3149.611,2984.717,3149.611z"/>
		</g>
		<g>
			
				<linearGradient id="SVGID_00000063626533758804835550000016951017258528768673_" gradientUnits="userSpaceOnUse" x1="1842.3076" y1="3135.1284" x2="1885.9244" y2="3173.9258" gradientTransform="matrix(-0.9902 -0.14 -0.14 0.9902 3687.3257 206.9384)">
				<stop  offset="0" style="stop-color:#444B8C"/>
				<stop  offset="0.9964" style="stop-color:#26264F"/>
			</linearGradient>
			<path style="fill:url(#SVGID_00000063626533758804835550000016951017258528768673_);" d="M1411.89,3073.154
				c-1.241-6.838-23.323-13.027-34.256-3.868c-5.43,4.547-9.168,13.765-6.027,17.929c1.143,1.514-3.538,4.178,0.947,4.231
				C1387.429,3091.618,1413.125,3079.948,1411.89,3073.154z"/>
			
				<linearGradient id="SVGID_00000102524791745023956840000008403779403007721373_" gradientUnits="userSpaceOnUse" x1="1610.7419" y1="3538.4141" x2="1610.7419" y2="3462.429" gradientTransform="matrix(-0.9988 0.0498 0.0498 0.9988 2810.8794 -528.7908)">
				<stop  offset="0" style="stop-color:#FFC444"/>
				<stop  offset="0.9964" style="stop-color:#F36F56"/>
			</linearGradient>
			<path style="fill:url(#SVGID_00000102524791745023956840000008403779403007721373_);" d="M1387.744,3073.19l-22.907,1.142
				c7.936-14.428-1.606-53.672-1.606-53.672l24.736,0.726c0,0-0.609,11.393-2.117,28.317
				C1385.333,3055.497,1386.286,3064.224,1387.744,3073.19z"/>
			
				<linearGradient id="SVGID_00000094620553706129949090000010947742590804403106_" gradientUnits="userSpaceOnUse" x1="1846.6927" y1="3130.1997" x2="1890.3093" y2="3168.9971" gradientTransform="matrix(-0.9902 -0.14 -0.14 0.9902 3687.3257 206.9384)">
				<stop  offset="0" style="stop-color:#444B8C"/>
				<stop  offset="0.9964" style="stop-color:#26264F"/>
			</linearGradient>
			<path style="fill:url(#SVGID_00000094620553706129949090000010947742590804403106_);" d="M1390.76,3072.845
				c0,0-27.341-6.3-30.298-0.877c-2.958,5.425-5.254,19.946,12.092,19.477C1389.901,3090.977,1392.301,3077.443,1390.76,3072.845z"
				/>
			
				<linearGradient id="SVGID_00000155146863716639190430000001798444019181275795_" gradientUnits="userSpaceOnUse" x1="2023.7428" y1="3079.7463" x2="2067.3618" y2="3118.5457" gradientTransform="matrix(-1 0 0 1 3584.4829 0)">
				<stop  offset="0" style="stop-color:#444B8C"/>
				<stop  offset="0.9964" style="stop-color:#26264F"/>
			</linearGradient>
			<path style="fill:url(#SVGID_00000155146863716639190430000001798444019181275795_);" d="M1551.36,3101.004
				c-2.187-6.596-24.918-9.634-34.462,0.965c-4.738,5.262-7.151,14.913-3.457,18.595c1.344,1.341-2.917,4.634,1.53,4.057
				C1529.723,3122.711,1553.532,3107.558,1551.36,3101.004z"/>
			
				<linearGradient id="SVGID_00000054259081871330728010000001192587824251588225_" gradientUnits="userSpaceOnUse" x1="1858.6307" y1="3408.7722" x2="1858.6307" y2="3332.7852" gradientTransform="matrix(-0.9813 0.1926 0.1926 0.9813 2684.261 -582.0115)">
				<stop  offset="0" style="stop-color:#FFC444"/>
				<stop  offset="0.9964" style="stop-color:#F36F56"/>
			</linearGradient>
			<path style="fill:url(#SVGID_00000054259081871330728010000001192587824251588225_);" d="M1524.498,3107.357l-22.505,4.417
				c5.784-15.417-9.29-52.886-9.29-52.886l24.584-2.83c0,0,1.032,11.363,1.967,28.328
				C1519.575,3090.193,1521.768,3098.695,1524.498,3107.357z"/>
			
				<linearGradient id="SVGID_00000165205330259001882140000004930543089085823914_" gradientUnits="userSpaceOnUse" x1="2028.1282" y1="3074.8181" x2="2071.7463" y2="3113.6167" gradientTransform="matrix(-1 0 0 1 3584.4829 0)">
				<stop  offset="0" style="stop-color:#444B8C"/>
				<stop  offset="0.9964" style="stop-color:#26264F"/>
			</linearGradient>
			<path style="fill:url(#SVGID_00000165205330259001882140000004930543089085823914_);" d="M1530.394,3103.656
				c0,0-27.954-2.41-30.123,3.374c-2.169,5.783-2.411,20.483,14.7,17.591C1532.081,3121.73,1532.563,3107.993,1530.394,3103.656z"/>
			<g>
				<path style="fill:#26264F;" d="M1410.81,2418.672l96.587-226.253c4.826-11.304-1.654-24.235-13.598-27.136l-176.926-42.968
					c-9.562-2.322-19.385,2.697-23.106,11.806l-88.839,217.458c-4.424,10.829,1.407,23.118,12.593,26.541l169.178,51.763
					C1396.42,2432.857,1406.818,2428.022,1410.81,2418.672z"/>
				
					<linearGradient id="SVGID_00000045618411745525210140000011848630485714147510_" gradientUnits="userSpaceOnUse" x1="1477.661" y1="2032.3525" x2="1152.0305" y2="2659.6704">
					<stop  offset="0.0036" style="stop-color:#E38DDD"/>
					<stop  offset="1" style="stop-color:#9571F6"/>
				</linearGradient>
				<path style="fill:url(#SVGID_00000045618411745525210140000011848630485714147510_);" d="M1406.439,2407.79l90.22-211.336
					c4.507-10.559-1.546-22.638-12.702-25.347l-165.262-40.135c-8.931-2.168-18.106,2.519-21.582,11.028l-82.982,203.121
					c-4.132,10.115,1.314,21.594,11.762,24.791l158.025,48.351C1392.996,2421.039,1402.71,2416.523,1406.439,2407.79z"/>
			</g>
			
				<linearGradient id="SVGID_00000111169366964014543240000016331932846429644206_" gradientUnits="userSpaceOnUse" x1="1424.4155" y1="2329.8345" x2="1680.3104" y2="2154.7488">
				<stop  offset="0" style="stop-color:#FFC444"/>
				<stop  offset="0.9964" style="stop-color:#F36F56"/>
			</linearGradient>
			<path style="fill:url(#SVGID_00000111169366964014543240000016331932846429644206_);" d="M1462.136,2345.664l2.898-26.66
				l15.361-29.283c2.092-3.988,3.185-8.424,3.185-12.927v-29.078l-18.546,42.889c0,0-12.171-11.012-16.808-13.331
				c-4.637-2.318-4.057,6.955-0.58,10.433c3.477,3.477-1.739,31.876,1.739,34.774l-1.159,17.388L1462.136,2345.664z"/>
			
				<linearGradient id="SVGID_00000049217231895331101750000001972641279078375303_" gradientUnits="userSpaceOnUse" x1="1093.8717" y1="2242.7498" x2="947.8171" y2="2666.5483">
				<stop  offset="0.0036" style="stop-color:#6165D7"/>
				<stop  offset="1" style="stop-color:#AA80F9"/>
			</linearGradient>
			<path style="fill:url(#SVGID_00000049217231895331101750000001972641279078375303_);" d="M1314.922,2175.847
				c-14.423-35.269-45.382-55.553-61.435-66.072c-37.985-24.888-62.302-20.344-149.532-33.616
				c-116.252-17.688-130.167-34.447-169.237-20.865c-51.323,17.842-78.13,64.429-90.415,85.778
				c-61.932,107.628,10.476,162.333-8.114,376.727c-7.592,87.559-27.058,163.649,19.706,208.648
				c9.847,9.475,20.861,14.431,42.889,24.343c87.362,39.308,165.689,32.532,213.285,27.82c52.375-5.185,78.845-8.156,92.733-26.661
				c22.183-29.559-0.652-67.127-4.637-132.145c-2.861-46.679,7.753-83.668,28.979-157.645
				C1278.492,2290.177,1342.556,2243.419,1314.922,2175.847z"/>
			<g>
				<g>
					
						<linearGradient id="SVGID_00000075872036087954208700000006713578106224473259_" gradientUnits="userSpaceOnUse" x1="974.7728" y1="2081.2532" x2="1370.7375" y2="1911.5538">
						<stop  offset="0" style="stop-color:#FFC444"/>
						<stop  offset="0.9964" style="stop-color:#F36F56"/>
					</linearGradient>
					<path style="fill:url(#SVGID_00000075872036087954208700000006713578106224473259_);" d="M1120.337,2012.717
						c5.292-18.855-3.961-36.317-6-40.079c-8.539-15.752-10.726-17.904-14.8-20.632l-5.663-3.494c0,0-0.328-0.131-0.674-0.255
						c-3.634-1.293-16.02-1.669-18.53-1.134c-8.016,1.711-16.551,34.368-14.116,80.537c-0.332,1.759-0.653,3.533-0.963,5.323
						c-1.262,7.291-2.265,14.438-3.041,21.425c-0.742,6.684-10.219,6.53-16.93,6.102c-27.24-1.738-40.571,0.58-41.73,4.636
						c-2.172,7.603,30.138,32.457,70.035,38.048c53.544,0.398,97.099-5.303,92.418-13.735c-2.079-3.743-43.565-14.583-55.232-25.328
						c-10.683-9.839-9.813-19.996-10.691-27.267C1097.66,2035.184,1116.441,2026.608,1120.337,2012.717z"/>
					
						<linearGradient id="SVGID_00000128446380500780590460000004554063127323139216_" gradientUnits="userSpaceOnUse" x1="1063.9399" y1="1956.9042" x2="1062.1442" y2="2366.3376">
						<stop  offset="0" style="stop-color:#311944"/>
						<stop  offset="1" style="stop-color:#6B3976"/>
					</linearGradient>
					<path style="fill:url(#SVGID_00000128446380500780590460000004554063127323139216_);" d="M1110.488,1935.397
						c-0.048,14.303-6.787,29.579-10.221,32.033c-0.443,0.317-2.938,2.288-5.18,5.659c-0.306,0.458-0.575,0.995-0.815,1.69
						c-3.134,9.013,11.198,19.62,8.432,23.657c-2.007,2.927-11.747-0.988-12.905,1.541c-1.091,2.379,7.004,7.306,5.764,10.155
						c-0.935,2.152-5.917,0.183-9.059,3.479c-1.566,1.642-1.106,2.943-2.765,7.961c-0.938,2.838-2.25,5.943-3.268,7.67
						c-4.944,8.398-18.944,11.466-21.638,8.105c-0.749-0.937-0.105-1.724-0.872-4.867c0,0-0.71-2.913-2.737-6.281
						c-2.896-4.812-9.887-8.254-16.941-13.333c-13.063-9.407-16.614-17.425-17.679-20.134c-0.379-0.965-0.615-1.693-0.785-2.218
						c-3.397-10.543-3.412-26.029,1.328-35.552c7.94-15.953,25.851-8.379,40.512-24.186c16.915-18.237,6.841-43.165,16.02-45.918
						C1087.796,1881.823,1110.575,1908.949,1110.488,1935.397z"/>
					
						<linearGradient id="SVGID_00000173848383007207257940000003135179404976889500_" gradientUnits="userSpaceOnUse" x1="965.2555" y1="2059.0483" x2="1361.2201" y2="1889.3491">
						<stop  offset="0" style="stop-color:#FFC444"/>
						<stop  offset="0.9964" style="stop-color:#F36F56"/>
					</linearGradient>
					<path style="fill:url(#SVGID_00000173848383007207257940000003135179404976889500_);" d="M1097.562,1995.075
						c-3.506-4.817-9.666-0.291-9.702,5.941c-0.037,6.232,6.002,12.712,11.861,11.481
						C1105.58,2011.267,1102.28,2001.559,1097.562,1995.075z"/>
				</g>
			</g>
			
				<linearGradient id="SVGID_00000152959890634275834800000013655225881461498256_" gradientUnits="userSpaceOnUse" x1="-356.9414" y1="2372.9409" x2="-48.6046" y2="2667.3677" gradientTransform="matrix(-1 0 0 1 975.4035 0)">
				<stop  offset="0" style="stop-color:#AA80F9"/>
				<stop  offset="0.9964" style="stop-color:#6165D7"/>
			</linearGradient>
			<path style="opacity:0.3;fill:url(#SVGID_00000152959890634275834800000013655225881461498256_);" d="M1066.862,2717.175
				c15.408-30.68-22.349-71.463,2.319-118.234c20.949-39.724,59.006-30.824,76.504-67.231
				c21.135-43.973-24.829-76.838-23.183-143.736c1.968-79.974,70.781-160.03,111.279-153.009
				c26.202,4.542,29.568,43.632,48.004,86.427c-16.313,35.771-35.373,80.586-52.64,140.769
				c-21.227,73.977-31.84,110.966-28.979,157.645c3.984,65.018,26.82,102.586,4.637,132.145
				c-13.887,18.505-40.358,21.475-92.733,26.661c-47.597,4.713-125.924,11.489-213.285-27.82
				c-11.058-4.976-19.336-8.703-26.089-12.379C1009.181,2758.909,1054.641,2741.51,1066.862,2717.175z"/>
			
				<linearGradient id="SVGID_00000080913793157854867360000004409946443142910391_" gradientUnits="userSpaceOnUse" x1="1317.9812" y1="2319.9854" x2="1171.9261" y2="2743.7854">
				<stop  offset="0.0036" style="stop-color:#6165D7"/>
				<stop  offset="1" style="stop-color:#AA80F9"/>
			</linearGradient>
			<path style="fill:url(#SVGID_00000080913793157854867360000004409946443142910391_);" d="M1467.352,2340.448
				c-8.5-3.671-17.001-7.342-25.501-11.012c-14.367,14.693-32.691,28.981-48.105,24.342c-22.976-6.914-17.231-49.184-45.207-123.45
				c-31.698-84.148-67.662-105.776-85.778-113.597c-10.119-4.369-17.105-7.269-25.502-5.217
				c-38.637,9.445-51.412,110.129-40.571,185.466c6.108,42.446,18.085,125.674,86.358,165.181
				c9.699,5.612,63.083,36.503,115.916,12.171C1444.097,2453.544,1471.986,2400.211,1467.352,2340.448z"/>
			
				<linearGradient id="SVGID_00000172424753256181345120000008520436579303446925_" gradientUnits="userSpaceOnUse" x1="-30.9682" y1="2601.1479" x2="-283.7215" y2="2781.6863" gradientTransform="matrix(-1 0 0 1 975.4035 0)">
				<stop  offset="0" style="stop-color:#444B8C"/>
				<stop  offset="0.9964" style="stop-color:#26264F"/>
			</linearGradient>
			<path style="fill:url(#SVGID_00000172424753256181345120000008520436579303446925_);" d="M1402.714,3023.797
				c-14.129,1.568-28.258,3.141-42.387,4.709c-19.083-21.152-47.571-58.034-62.796-109.891
				c-29.166-99.341,16.498-164.545-14.129-189.961c-35.31-29.302-105.058,49.866-259.033,72.218
				c-49.557,7.193-159.573,23.167-204.086-36.109c-18.046-24.031-28.411-64.533-14.129-98.903
				c25.604-61.617,109.938-54.217,387.764-108.323c107.023-20.844,123.933-27.669,149.359-15.532
				C1469.023,2602.036,1416.586,2941.469,1402.714,3023.797z"/>
			
				<linearGradient id="SVGID_00000162328712512863288020000001557128036795576217_" gradientUnits="userSpaceOnUse" x1="-576.0955" y1="2822.2185" x2="49.8336" y2="2822.2185" gradientTransform="matrix(-1 0 0 1 975.4035 0)">
				<stop  offset="0" style="stop-color:#444B8C"/>
				<stop  offset="0.9964" style="stop-color:#26264F"/>
			</linearGradient>
			<path style="fill:url(#SVGID_00000162328712512863288020000001557128036795576217_);" d="M1528.828,3063.759
				c-14.129,1.568-28.258,3.141-42.387,4.709c-19.082-21.152-47.571-58.034-62.796-109.891
				c-29.166-99.34,16.498-164.544-14.129-189.961c-35.31-29.302-105.058,49.866-259.033,72.219
				c-49.557,7.193-159.572,23.167-204.086-36.109c-18.046-24.031-28.411-64.533-14.129-98.904
				c25.604-61.617,109.938-54.217,387.764-108.323c107.023-20.844,123.933-27.669,149.359-15.532
				C1595.136,2641.998,1542.7,2981.431,1528.828,3063.759z"/>
		</g>
		<g>
			<ellipse style="fill:#B7C0CE;" cx="1045.174" cy="3234.209" rx="234.322" ry="95.633"/>
			<path style="fill:#F4F7FA;" d="M810.853,3222.994c0,49.857,104.909,90.275,234.321,90.275
				c129.413,0,234.322-40.417,234.322-90.275c0-49.856-104.909-131.434-234.322-131.434
				C915.762,3091.56,810.853,3173.138,810.853,3222.994z"/>
			
				<linearGradient id="SVGID_00000117677336111513378690000008559974527592029057_" gradientUnits="userSpaceOnUse" x1="-693.0577" y1="3179.4263" x2="-299.2758" y2="3179.4263" gradientTransform="matrix(-1 0 0 1 511.5771 0)">
				<stop  offset="0" style="stop-color:#AA80F9"/>
				<stop  offset="0.9964" style="stop-color:#6165D7"/>
			</linearGradient>
			<path style="opacity:0.3;fill:url(#SVGID_00000117677336111513378690000008559974527592029057_);" d="M810.853,3222.994
				c0-49.857,104.909-131.434,234.321-131.434c59.753,0,114.252,17.409,155.643,41.04c2.897,6.07,4.247,12.104,3.698,17.834
				c-2.688,28.051-48.437,45.297-74.699,50.984c-66.132,14.324-98.426-25.222-152.953-23.714
				c-33.711,0.931-80.427,17.867-135.836,89.589C821.848,3254.205,810.853,3239.098,810.853,3222.994z"/>
			<path style="fill:#FFFFFF;" d="M1032.34,3136.844c9.362,2.33,18.098,2.238,26.316,0.15c7.453-1.892,12.571-8.789,12.571-16.481
				l-0.001-264.218h-52.104v263.906C1019.122,3128.129,1024.646,3134.93,1032.34,3136.844z"/>
			
				<linearGradient id="SVGID_00000157993368173936762520000011766585467423285129_" gradientUnits="userSpaceOnUse" x1="-559.6496" y1="2997.4358" x2="-507.5445" y2="2997.4358" gradientTransform="matrix(-1 0 0 1 511.5771 0)">
				<stop  offset="0" style="stop-color:#AA80F9"/>
				<stop  offset="0.9964" style="stop-color:#6165D7"/>
			</linearGradient>
			<path style="opacity:0.65;fill:url(#SVGID_00000157993368173936762520000011766585467423285129_);" d="M1032.34,3136.844
				c9.362,2.33,18.098,2.238,26.316,0.15c7.453-1.892,12.571-8.789,12.571-16.481l-0.001-264.218h-52.104v263.906
				C1019.122,3128.129,1024.646,3134.93,1032.34,3136.844z"/>
			<g>
				
					<linearGradient id="SVGID_00000002362682120798702530000014686775555115343512_" gradientUnits="userSpaceOnUse" x1="-274.9374" y1="2942.0288" x2="-370.4673" y2="2817.5503" gradientTransform="matrix(-1 0 0 1 511.5771 0)">
					<stop  offset="0" style="stop-color:#311944"/>
					<stop  offset="1" style="stop-color:#893976"/>
				</linearGradient>
				<path style="fill:url(#SVGID_00000002362682120798702530000014686775555115343512_);" d="M1320.488,2745.096l-79.599-50.319
					c-3.311-18.797-40.831-215.438-193.158-277.188c-61.945-25.11-128.609-22.131-165.192-20.496
					c-73.031,3.261-125.124,5.588-150.178,40.425c-32.173,44.732,21.787,85.298,10.614,213.252
					c-4.556,52.179-16.143,75.354-1.711,109.921c17.289,41.408,57.383,64.36,88.556,77.28
					c37.264,21.64,102.147,52.475,187.843,59.985c144.349,12.651,252.112-49.27,289.171-72.962
					c16.479-5.196,28.861-18.899,32.365-35.818C1342.752,2772.021,1335.297,2754.458,1320.488,2745.096z"/>
			</g>
			<path style="opacity:0.26;fill:#FFFFFF;" d="M1283.888,2780.927c-2.942-17.694-52.256-3.026-98.903-37.677
				c-69.73-51.797-33.539-139.538-94.194-223.71c-55.665-77.245-167.728-116.56-202.517-87.129
				c-46.307,39.177,67.026,185.688,0,280.226c-32.559,45.924-82.163,43.712-82.42,70.646
				c-0.405,42.562,123.053,91.632,240.194,89.484C1171.983,2870.458,1288.558,2809.011,1283.888,2780.927z"/>
		</g>
		<g>
			<g>
				<g>
					
						<linearGradient id="SVGID_00000006671832634797981210000006622905613113158827_" gradientUnits="userSpaceOnUse" x1="1915.283" y1="2389.1763" x2="2429.6733" y2="2389.1763">
						<stop  offset="0" style="stop-color:#444B8C"/>
						<stop  offset="0.9964" style="stop-color:#26264F"/>
					</linearGradient>
					<path style="fill:url(#SVGID_00000006671832634797981210000006622905613113158827_);" d="M2429.673,2372.978l-514.39-3.828
						v11.325c0,3.074,2.244,5.688,5.282,6.154l145.454,22.302c1.726,0.265,3.477,0.335,5.218,0.209l352.846-25.428
						c3.151-0.227,5.59-2.849,5.59-6.007V2372.978z"/>
					<g>
						
							<linearGradient id="SVGID_00000003824696020337125740000006108041021876203966_" gradientUnits="userSpaceOnUse" x1="1910.1426" y1="2261.0579" x2="2251.5994" y2="2261.0579">
							<stop  offset="0" style="stop-color:#444B8C"/>
							<stop  offset="0.9964" style="stop-color:#26264F"/>
						</linearGradient>
						<path style="fill:url(#SVGID_00000003824696020337125740000006108041021876203966_);" d="M2243.003,2354.258l-322.401,20.719
							c-5.769,0.37-10.459-3.569-10.459-8.8v-209.59c0-5.231,4.691-9.472,10.459-9.472h322.401c4.753,0,8.596,3.833,8.596,8.563
							v189.465C2251.599,2349.872,2247.756,2353.952,2243.003,2354.258z"/>
						<path style="fill:#26264F;" d="M2248.144,2354.258l-322.401,20.719c-5.769,0.37-10.46-3.569-10.46-8.8v-209.59
							c0-5.231,4.69-9.472,10.46-9.472h322.401c4.753,0,8.596,3.833,8.596,8.563v189.465
							C2256.74,2349.872,2252.897,2353.952,2248.144,2354.258z"/>
						
							<linearGradient id="SVGID_00000039128257610610939710000014289194530220647557_" gradientUnits="userSpaceOnUse" x1="2291.3438" y1="1398.7968" x2="2065.0786" y2="2343.364">
							<stop  offset="0.0036" style="stop-color:#6165D7"/>
							<stop  offset="1" style="stop-color:#AA80F9"/>
						</linearGradient>
						<path style="fill:url(#SVGID_00000039128257610610939710000014289194530220647557_);" d="M2238.101,2340.9l-300.283,17.997
							c-4.695,0.281-8.51-2.953-8.51-7.223v-183.496c0-4.271,3.815-7.747,8.51-7.765l300.283-1.13
							c3.92-0.015,7.092,3.126,7.092,7.016v167.132C2245.193,2337.322,2242.021,2340.665,2238.101,2340.9z"/>
						<path style="fill:#FFFFFF;" d="M2098.33,2152.847c0,1.947-1.66,3.531-3.709,3.536c-2.052,0.006-3.717-1.572-3.717-3.524
							c0-1.952,1.665-3.535,3.717-3.537C2096.67,2149.322,2098.33,2150.9,2098.33,2152.847z"/>
						<path style="opacity:0.48;fill:#FFFFFF;" d="M2171.773,2296.877c-24.982-12.169-44.624,3.251-63.581-11.963
							c-11.492-9.224-5.85-16.102-19.992-29.885c-15.662-15.267-25.86-10.135-41.601-23.875
							c-19.904-17.373-9.949-30.89-27.094-43.364c-20.798-15.132-43.228-1.126-63.027-15.638
							c-8.539-6.259-13.225-15.359-15.672-25.037h-19.372c-3.395,0-6.151,2.491-6.151,5.563v217.407
							c0,3.073,2.757,5.387,6.151,5.168l330.262-21.224c1.621-0.104,3.058-0.96,3.98-2.203
							c-24.176-0.798-39.029-8.135-48.523-15.721C2188.58,2321.267,2191.802,2306.634,2171.773,2296.877z"/>
					</g>
					<path style="fill:#26264F;" d="M2260.994,2353.679l-345.711,21.808l150.737,23.112c1.726,0.265,3.477,0.335,5.218,0.209
						l358.436-25.831l-163.18-19.151C2264.669,2353.614,2262.828,2353.563,2260.994,2353.679z"/>
					<polygon style="opacity:0.47;fill:#D8DEE8;" points="1965.728,2375.675 2253.542,2357.248 2342.618,2367.618 
						2057.283,2387.316 					"/>
				</g>
			</g>
			
				<linearGradient id="SVGID_00000050625713089770453880000008999216206976419716_" gradientUnits="userSpaceOnUse" x1="2917.011" y1="2927.9656" x2="2933.9187" y2="3143.1514" gradientTransform="matrix(1 0 0 1 -626.2627 0)">
				<stop  offset="0.0036" style="stop-color:#26264F"/>
				<stop  offset="1" style="stop-color:#444B8C"/>
			</linearGradient>
			<path style="fill:url(#SVGID_00000050625713089770453880000008999216206976419716_);" d="M2326.474,3035.067
				c0,0-75.616,5.255-76.727,10.192c-1.112,4.938,51.325,24.023,69.646,24.735c18.322,0.712,33.394-4.703,31.735-12.462
				c-1.658-7.761-8.072-27.28-8.072-27.28L2326.474,3035.067z"/>
			
				<linearGradient id="SVGID_00000023961931012215405000000018052851540427233708_" gradientUnits="userSpaceOnUse" x1="2014.6904" y1="2779.3909" x2="2011.1406" y2="2522.0125" gradientTransform="matrix(0.9853 0.171 -0.171 0.9853 820.6597 -36.2046)">
				<stop  offset="0" style="stop-color:#FFC444"/>
				<stop  offset="0.9964" style="stop-color:#F36F56"/>
			</linearGradient>
			<path style="fill:url(#SVGID_00000023961931012215405000000018052851540427233708_);" d="M2322.902,3001.47l-1.342,35.686
				c0,0,11.502,6.493,20.634,2.763l10.153-37.632L2322.902,3001.47z"/>
			
				<linearGradient id="SVGID_00000008838941141177848370000015013498829738786470_" gradientUnits="userSpaceOnUse" x1="2705.5388" y1="2913.575" x2="2722.4463" y2="3128.761" gradientTransform="matrix(1 0 0 1 -626.2627 0)">
				<stop  offset="0.0036" style="stop-color:#26264F"/>
				<stop  offset="1" style="stop-color:#444B8C"/>
			</linearGradient>
			<path style="fill:url(#SVGID_00000008838941141177848370000015013498829738786470_);" d="M2115.002,3020.677
				c0,0-75.616,5.255-76.727,10.192c-1.112,4.938,51.325,24.023,69.646,24.735c18.322,0.712,33.394-4.703,31.736-12.462
				c-1.659-7.762-8.072-27.28-8.072-27.28L2115.002,3020.677z"/>
			
				<linearGradient id="SVGID_00000088825228792858490630000007628703048398794686_" gradientUnits="userSpaceOnUse" x1="1803.8777" y1="2801.3721" x2="1800.3278" y2="2543.9956" gradientTransform="matrix(0.9853 0.171 -0.171 0.9853 820.6597 -36.2046)">
				<stop  offset="0" style="stop-color:#FFC444"/>
				<stop  offset="0.9964" style="stop-color:#F36F56"/>
			</linearGradient>
			<path style="fill:url(#SVGID_00000088825228792858490630000007628703048398794686_);" d="M2111.429,2987.08l-1.342,35.686
				c0,0,11.502,6.493,20.633,2.763l10.153-37.632L2111.429,2987.08z"/>
			
				<linearGradient id="SVGID_00000059305853277746053630000010813613650674408085_" gradientUnits="userSpaceOnUse" x1="2711.5542" y1="2471.0266" x2="2615.0054" y2="2614.6721">
				<stop  offset="0" style="stop-color:#893976"/>
				<stop  offset="1" style="stop-color:#311944"/>
			</linearGradient>
			<path style="fill:url(#SVGID_00000059305853277746053630000010813613650674408085_);" d="M2314.868,3006.514
				c14.129,1.569,28.258,3.142,42.387,4.709c19.083-21.152,47.571-58.034,62.796-109.891
				c29.353-99.98-13.157-172.028,14.129-189.961c38.621-25.379,122.326,120.736,256.684,116.983
				c55.126-1.541,127.081-28.538,154.736-87.336c4.176-8.877,24.681-55.344,4.71-98.904
				c-20.619-44.977-122.909-64.547-326.646-101.861c-87.454-16.015-131.614-24.004-149.359-15.532
				C2248.56,2584.753,2300.996,2924.186,2314.868,3006.514z"/>
			
				<linearGradient id="SVGID_00000088850346867273345580000008968128182108547973_" gradientUnits="userSpaceOnUse" x1="2099.1169" y1="2787.3108" x2="2792.0127" y2="2787.3108">
				<stop  offset="0" style="stop-color:#893976"/>
				<stop  offset="1" style="stop-color:#311944"/>
			</linearGradient>
			<path style="fill:url(#SVGID_00000088850346867273345580000008968128182108547973_);" d="M2099.138,3007.116
				c14.615,2.543,29.229,5.087,43.844,7.63c17.751-26.146,44.617-67.113,74.66-119.094c62.626-108.36,61.482-130.368,90.424-144.317
				c61.256-29.518,107.538,50.229,259.033,72.218c49.557,7.194,159.572,23.167,204.086-36.109
				c18.046-24.031,28.411-64.533,14.129-98.903c-25.604-61.617-109.938-54.217-387.764-108.323
				c-108.345-21.102-123.116-24.864-149.359-15.532C2101.623,2616.805,2098.768,2935.938,2099.138,3007.116z"/>
			
				<linearGradient id="SVGID_00000082331706303197435410000016455412181661002137_" gradientUnits="userSpaceOnUse" x1="2469.6287" y1="2267.3271" x2="2778.0393" y2="2561.8242">
				<stop  offset="0.0036" style="stop-color:#E38DDD"/>
				<stop  offset="1" style="stop-color:#9571F6"/>
			</linearGradient>
			<path style="fill:url(#SVGID_00000082331706303197435410000016455412181661002137_);" d="M2402.66,2158.567
				c14.423-35.272,45.382-55.555,61.436-66.073c8.034-5.266,15.457-9.212,22.994-12.29c58.137-23.737,116.183-22.104,126.538-21.327
				c25.109,1.881,87.123,6.522,133.07,46.333c22.239,19.271,40.016,46.172,65.936,197.807
				c36.148,211.476,6.809,189.8,35.323,275.517c15.088,45.358,38.594,97.4,13.732,130.634c-8.03,10.735-19.502,13.816-42.889,24.34
				c-87.361,39.31-165.688,32.536-213.285,27.821c-52.375-5.188-78.845-8.155-92.733-26.662
				c-22.183-29.56,0.652-67.127,4.636-132.143c2.861-46.679-7.752-83.671-28.979-157.646
				C2439.091,2272.897,2375.027,2226.136,2402.66,2158.567z"/>
			
				<linearGradient id="SVGID_00000129893899903546729210000013256862998434020282_" gradientUnits="userSpaceOnUse" x1="2100.834" y1="2359.9097" x2="2093.8035" y2="2392.0051">
				<stop  offset="0" style="stop-color:#FFC444"/>
				<stop  offset="0.9964" style="stop-color:#F36F56"/>
			</linearGradient>
			<path style="fill:url(#SVGID_00000129893899903546729210000013256862998434020282_);" d="M2156.504,2369.151l-55.822-10.736
				c-4.01-0.771-8.126-0.812-12.152-0.12l-48.286,8.303c0,0,31.397,12.63,58.086,8.67c26.688-3.96,55.843,11.055,55.843,11.055
				L2156.504,2369.151z"/>
			<g>
				<g>
					
						<linearGradient id="SVGID_00000132080498484467338590000016877153033927061416_" gradientUnits="userSpaceOnUse" x1="5810.6152" y1="1401.2018" x2="6002.959" y2="1643.1948" gradientTransform="matrix(0.9663 0.2576 -0.2576 0.9663 -2744.3408 -923.8408)">
						<stop  offset="0" style="stop-color:#FFC444"/>
						<stop  offset="0.9964" style="stop-color:#F36F56"/>
					</linearGradient>
					<path style="fill:url(#SVGID_00000132080498484467338590000016877153033927061416_);" d="M2526.144,2019.782
						c-9.387-14.184,4.665-41.472,10.223-52.266c0.192-0.373,0.436-0.861,0.959-1.826c8.539-15.753,10.726-17.905,14.8-20.633
						l5.663-3.496c0,0,0.328-0.128,0.674-0.253c3.634-1.292,16.02-1.67,18.53-1.131c8.016,1.71,16.551,34.366,14.115,80.534
						c0.333,1.762,0.653,3.537,0.963,5.326c1.262,7.29,2.265,14.438,3.041,21.424c0.742,6.683,10.219,6.531,16.93,6.103
						c27.24-1.739,40.571,0.579,41.73,4.636c2.172,7.603-30.138,32.457-70.035,38.046c-53.544,0.4-97.099-5.303-92.418-13.734
						c2.079-3.744,43.565-14.584,55.232-25.328c10.683-9.838,9.813-19.993,10.691-27.264
						C2551.719,2030.214,2533.302,2030.6,2526.144,2019.782z"/>
					<path style="fill:#26264F;" d="M2674.187,2015.617c0,0,0.82-13.932-16.309-45.976c0,0-32.454-58.979-75.644-56.193
						c-43.19,2.786-58.515,38.081-30.186,63.624c0,0,5.607,3.128,0.326,8.995s-6.75,19.953,12.329,22.12
						c19.079,2.167-46.325,52.011,0,62.693C2611.028,2081.563,2683.475,2075.061,2674.187,2015.617z"/>
					
						<linearGradient id="SVGID_00000126322212157781303090000007659606622260086423_" gradientUnits="userSpaceOnUse" x1="5819.8223" y1="1389.0229" x2="6034.5747" y2="1659.2087" gradientTransform="matrix(0.9663 0.2576 -0.2576 0.9663 -2744.3408 -923.8408)">
						<stop  offset="0" style="stop-color:#FFC444"/>
						<stop  offset="0.9964" style="stop-color:#F36F56"/>
					</linearGradient>
					<path style="fill:url(#SVGID_00000126322212157781303090000007659606622260086423_);" d="M2554.101,1988.127
						c3.506-4.817,9.666-0.291,9.702,5.942c0.037,6.232-6.002,12.712-11.861,11.481
						C2546.083,2004.319,2549.383,1994.61,2554.101,1988.127z"/>
				</g>
			</g>
			
				<linearGradient id="SVGID_00000102509066491916015300000000159191292941171126_" gradientUnits="userSpaceOnUse" x1="2385.2375" y1="2355.6594" x2="2693.5745" y2="2650.0862">
				<stop  offset="0.0036" style="stop-color:#E38DDD"/>
				<stop  offset="1" style="stop-color:#9571F6"/>
			</linearGradient>
			<path style="opacity:0.3;fill:url(#SVGID_00000102509066491916015300000000159191292941171126_);" d="M2650.721,2699.893
				c-15.408-30.68,22.348-71.462-2.319-118.234c-20.949-39.724-59.006-30.824-76.504-67.231
				c-21.135-43.973,24.829-76.838,23.183-143.736c-1.968-79.974-70.781-160.03-111.279-153.009
				c-26.202,4.542-29.569,43.633-48.004,86.427c16.313,35.771,35.372,80.586,52.64,140.768
				c21.227,73.978,31.84,110.967,28.979,157.646c-3.984,65.018-26.82,102.585-4.636,132.145
				c13.887,18.505,40.358,21.475,92.733,26.661c47.597,4.712,125.924,11.489,213.285-27.82c11.058-4.976,19.337-8.703,26.089-12.379
				C2708.401,2741.627,2662.942,2724.229,2650.721,2699.893z"/>
			
				<linearGradient id="SVGID_00000178924734905598323810000018266061612741235625_" gradientUnits="userSpaceOnUse" x1="2399.0999" y1="2321.1218" x2="2748.8809" y2="2655.123">
				<stop  offset="0.0036" style="stop-color:#E38DDD"/>
				<stop  offset="1" style="stop-color:#9571F6"/>
			</linearGradient>
			<path style="fill:url(#SVGID_00000178924734905598323810000018266061612741235625_);" d="M2142.288,2385.437
				c1.583-7.125,3.166-14.244,4.749-21.368c107.249,19.225,154.147-2.355,176.801-27.573c20.794-23.144,11.928-35.102,45.207-123.45
				c31.698-84.149,67.662-105.775,85.778-113.598c10.119-4.37,17.105-7.267,25.501-5.216
				c38.637,9.443,51.412,110.131,40.571,185.467c-6.108,42.442-18.084,125.671-86.358,165.18c-1.255,0.727-3.242,1.876-5.866,3.279
				c-8.597,4.599-42.761,21.028-110.05,8.89C2239.283,2442.735,2161.881,2397.267,2142.288,2385.437z"/>
		</g>
		<g>
			<ellipse style="fill:#B7C0CE;" cx="2638.869" cy="3183.159" rx="234.322" ry="95.633"/>
			<path style="fill:#F4F7FA;" d="M2873.19,3171.944c0,49.857-104.909,90.275-234.321,90.275
				c-129.413,0-234.322-40.418-234.322-90.275c0-49.856,104.909-131.435,234.322-131.435
				C2768.281,3040.51,2873.19,3122.088,2873.19,3171.944z"/>
			
				<linearGradient id="SVGID_00000112604546559652024920000007138049933822365326_" gradientUnits="userSpaceOnUse" x1="2553.7373" y1="3128.3762" x2="2947.5193" y2="3128.3762" gradientTransform="matrix(1 0 0 1 -74.3293 0)">
				<stop  offset="0" style="stop-color:#AA80F9"/>
				<stop  offset="0.9964" style="stop-color:#6165D7"/>
			</linearGradient>
			<path style="opacity:0.3;fill:url(#SVGID_00000112604546559652024920000007138049933822365326_);" d="M2873.19,3171.944
				c0-49.857-104.909-131.435-234.321-131.435c-59.753,0-114.253,17.409-155.643,41.04c-2.897,6.07-4.247,12.104-3.698,17.834
				c2.687,28.051,48.437,45.297,74.699,50.984c66.131,14.324,98.426-25.222,152.953-23.714
				c33.712,0.932,80.427,17.867,135.835,89.59C2862.195,3203.155,2873.19,3188.048,2873.19,3171.944z"/>
			<path style="fill:#FFFFFF;" d="M2651.703,3085.795c-9.362,2.33-18.098,2.238-26.315,0.149
				c-7.454-1.892-12.571-8.789-12.571-16.481l0.001-264.218h52.104v263.906C2664.921,3077.079,2659.396,3083.88,2651.703,3085.795z"
				/>
			
				<linearGradient id="SVGID_00000100360927374887723610000011741178943888654980_" gradientUnits="userSpaceOnUse" x1="2687.1455" y1="2946.3857" x2="2739.2505" y2="2946.3857" gradientTransform="matrix(1 0 0 1 -74.3293 0)">
				<stop  offset="0" style="stop-color:#AA80F9"/>
				<stop  offset="0.9964" style="stop-color:#6165D7"/>
			</linearGradient>
			<path style="opacity:0.65;fill:url(#SVGID_00000100360927374887723610000011741178943888654980_);" d="M2651.703,3085.795
				c-9.362,2.33-18.098,2.238-26.315,0.149c-7.454-1.892-12.571-8.789-12.571-16.481l0.001-264.218h52.104v263.906
				C2664.921,3077.079,2659.396,3083.88,2651.703,3085.795z"/>
			<g>
				
					<linearGradient id="SVGID_00000147926210432475469520000009864569541934205057_" gradientUnits="userSpaceOnUse" x1="2971.8577" y1="2890.9788" x2="2876.3276" y2="2766.5002" gradientTransform="matrix(1 0 0 1 -74.3293 0)">
					<stop  offset="0" style="stop-color:#311944"/>
					<stop  offset="1" style="stop-color:#893976"/>
				</linearGradient>
				<path style="fill:url(#SVGID_00000147926210432475469520000009864569541934205057_);" d="M2363.554,2694.046l79.598-50.319
					c3.312-18.797,40.832-215.438,193.158-277.188c61.945-25.11,128.61-22.132,165.192-20.496
					c73.031,3.262,125.125,5.588,150.178,40.425c32.173,44.732-21.787,85.298-10.614,213.252
					c4.556,52.179,16.143,75.354,1.711,109.921c-17.289,41.408-57.383,64.36-88.556,77.28
					c-37.264,21.639-102.147,52.475-187.843,59.985c-144.349,12.651-252.112-49.27-289.171-72.962
					c-16.479-5.196-28.861-18.899-32.365-35.818C2341.291,2720.971,2348.746,2703.407,2363.554,2694.046z"/>
			</g>
			<path style="opacity:0.26;fill:#FFFFFF;" d="M2400.154,2729.877c2.942-17.693,52.256-3.026,98.904-37.677
				c69.73-51.797,33.539-139.538,94.194-223.71c55.666-77.245,167.729-116.56,202.517-87.129
				c46.307,39.177-67.026,185.688,0,280.226c32.558,45.924,82.163,43.712,82.42,70.646c0.405,42.562-123.054,91.632-240.194,89.484
				C2512.06,2819.408,2395.485,2757.961,2400.154,2729.877z"/>
		</g>
		<g>
			
				<linearGradient id="SVGID_00000052087876087979258550000010359095131837588110_" gradientUnits="userSpaceOnUse" x1="1867.5116" y1="3028.3621" x2="1877.5658" y2="2878.6685">
				<stop  offset="0" style="stop-color:#FFC444"/>
				<stop  offset="0.9964" style="stop-color:#F36F56"/>
			</linearGradient>
			<path style="fill:url(#SVGID_00000052087876087979258550000010359095131837588110_);" d="M1860.257,2890.97
				c0,0,28.07,7.845,31.054,48.396c-4.59-0.317-15.292,0-15.292,0s1.982-29.49-17.985-35.219
				C1859.64,2900.71,1860.257,2890.97,1860.257,2890.97z"/>
			
				<linearGradient id="SVGID_00000124154053292673239180000000594823420624578955_" gradientUnits="userSpaceOnUse" x1="1806.0313" y1="2977.9019" x2="1813.2249" y2="2870.7993">
				<stop  offset="0.1" style="stop-color:#311944"/>
				<stop  offset="0.267" style="stop-color:#371B47"/>
				<stop  offset="0.4803" style="stop-color:#462150"/>
				<stop  offset="0.7186" style="stop-color:#612A5F"/>
				<stop  offset="0.9736" style="stop-color:#853774"/>
				<stop  offset="1" style="stop-color:#893976"/>
			</linearGradient>
			<path style="fill:url(#SVGID_00000124154053292673239180000000594823420624578955_);" d="M1757.266,2888.535
				c0.7,7.383,1.399,14.766,2.099,22.149c13.872-3.315,29.042-7.162,45.35-7.869c21.204-0.919,40.639,1.127,57.947,4.685
				c0.77-0.932,2.401-3.174,3.153-6.824c1.212-5.882-0.818-10.764-1.194-11.634c-8.817-2.711-18.378-4.983-28.623-6.531
				C1806.62,2878.074,1780.074,2882.476,1757.266,2888.535z"/>
			
				<linearGradient id="SVGID_00000070841445761410250540000008498194762678489758_" gradientUnits="userSpaceOnUse" x1="1760.8777" y1="2900.8921" x2="1841.7463" y2="2944.2483">
				<stop  offset="0.1" style="stop-color:#311944"/>
				<stop  offset="0.267" style="stop-color:#371B47"/>
				<stop  offset="0.4803" style="stop-color:#462150"/>
				<stop  offset="0.7186" style="stop-color:#612A5F"/>
				<stop  offset="0.9736" style="stop-color:#853774"/>
				<stop  offset="1" style="stop-color:#893976"/>
			</linearGradient>
			<path style="fill:url(#SVGID_00000070841445761410250540000008498194762678489758_);" d="M1755.958,2894.932
				c0.041-2.671,0.273-6.005,1.307-6.397c0.974-0.369,2.283,2.045,2.846,3.387c0.234,0.559,0.751,1.912,1.074,6.221
				c0.417,5.555-0.069,8.278-0.514,9.96c-0.267,1.011-0.685,2.543-1.307,2.582c-0.499,0.031-0.934-0.936-1.58-2.809
				C1756.913,2905.353,1755.863,2901.145,1755.958,2894.932z"/>
			
				<linearGradient id="SVGID_00000026134648772651500260000001209069032842133143_" gradientUnits="userSpaceOnUse" x1="1736.4091" y1="3046.5447" x2="1747.8682" y2="2875.9319">
				<stop  offset="0" style="stop-color:#FFC444"/>
				<stop  offset="0.9964" style="stop-color:#F36F56"/>
			</linearGradient>
			<path style="fill:url(#SVGID_00000026134648772651500260000001209069032842133143_);" d="M1730.392,2941.586
				c5.816,0.955,19.957,3.812,19.957,3.812s-9.22-25.937,8.164-37.908c0.45-1.959,0.907-5.07,0.358-8.809
				c-0.425-2.892-1.312-5.203-2.077-6.803C1749.413,2895.532,1733.348,2907.829,1730.392,2941.586z"/>
			
				<linearGradient id="SVGID_00000168811593380052994250000016504573586688125327_" gradientUnits="userSpaceOnUse" x1="1633.9563" y1="3033.3586" x2="1589.2682" y2="2624.8665">
				<stop  offset="0.1" style="stop-color:#311944"/>
				<stop  offset="0.6853" style="stop-color:#6D2F66"/>
				<stop  offset="1" style="stop-color:#893976"/>
			</linearGradient>
			<path style="fill:url(#SVGID_00000168811593380052994250000016504573586688125327_);" d="M1610.107,2948.419
				c0,0,0.712-13.62,24.965-13.62c3.819,2.483,4.01,13.62,4.01,13.62H1610.107z"/>
			
				<linearGradient id="SVGID_00000049191166881106620970000015925647725001768068_" gradientUnits="userSpaceOnUse" x1="1833.6234" y1="3205.0605" x2="1531.1222" y2="3036.6221">
				<stop  offset="0" style="stop-color:#311944"/>
				<stop  offset="1" style="stop-color:#893976"/>
			</linearGradient>
			<path style="fill:url(#SVGID_00000049191166881106620970000015925647725001768068_);" d="M1588.571,3216.178l66.375,35.898
				l40.216-131.835l-66.265-176.744l-18.79,4.922l-28.51,253.836C1580.951,3208,1583.738,3213.564,1588.571,3216.178z"/>
			
				<linearGradient id="SVGID_00000075842346731813446760000008650190671097343888_" gradientUnits="userSpaceOnUse" x1="1561.28" y1="2972.7571" x2="1651.2008" y2="3123.5474">
				<stop  offset="0" style="stop-color:#311944"/>
				<stop  offset="1" style="stop-color:#893976"/>
			</linearGradient>
			<path style="opacity:0.3;fill:url(#SVGID_00000075842346731813446760000008650190671097343888_);" d="M1695.162,3120.241
				l-66.265-176.744l-18.79,4.922c4.626,15.598,6.845,41.001,7.889,55.142c4.442,60.176,19.195,76.921,12.048,118.901
				c-5.943,34.906-18.92,39.643-17.786,63.127c1.236,25.577,17.935,46.995,37.789,63.838l4.898,2.648L1695.162,3120.241z"/>
			
				<linearGradient id="SVGID_00000042714941972330865490000017805552699229098904_" gradientUnits="userSpaceOnUse" x1="1818.1152" y1="2792.394" x2="1850.7712" y2="3230.6758">
				<stop  offset="0.1" style="stop-color:#311944"/>
				<stop  offset="0.6853" style="stop-color:#6D2F66"/>
				<stop  offset="1" style="stop-color:#893976"/>
			</linearGradient>
			<polygon style="fill:url(#SVGID_00000042714941972330865490000017805552699229098904_);" points="1628.897,2943.497 
				1993.347,2943.497 2050.725,3223.654 1654.946,3252.076 			"/>
			<g style="opacity:0.2;">
				
					<linearGradient id="SVGID_00000118372840139397003640000000153213697961939878_" gradientUnits="userSpaceOnUse" x1="1747.4664" y1="3032.3479" x2="2019.9642" y2="3242.3054">
					<stop  offset="0" style="stop-color:#311944"/>
					<stop  offset="1" style="stop-color:#893976"/>
				</linearGradient>
				<path style="fill:url(#SVGID_00000118372840139397003640000000153213697961939878_);" d="M1993.347,2943.497h-122.776
					c-2.261,5.74-5.717,13.683-10.763,22.669c-54.907,97.791-180.601,110.114-178.33,126.185
					c3.394,24.022,283.295-10.075,290.442,22.933c3.45,15.934-55.656,52.155-117.42,65.869
					c-73.951,16.421-128.296-4.274-164.439,32.62c-12.238,12.493-17.641,27.127-20.272,37.024l380.936-27.144L1993.347,2943.497z"/>
			</g>
			
				<linearGradient id="SVGID_00000005245260222921799690000010433404139745578625_" gradientUnits="userSpaceOnUse" x1="1676.1057" y1="3016.9666" x2="1793.108" y2="3012.4229">
				<stop  offset="0.1" style="stop-color:#311944"/>
				<stop  offset="0.6853" style="stop-color:#6D2F66"/>
				<stop  offset="1" style="stop-color:#893976"/>
			</linearGradient>
			<path style="fill:url(#SVGID_00000005245260222921799690000010433404139745578625_);" d="M1635.072,2934.798
				c-4.106,0-9.846-0.457-16.089,2.817c-1.333,0.699-2.51,1.468-3.543,2.249l2.874-0.912c4.624-1.211,10.999,0.401,13.38,4.545
				c2.926,5.093,3.979,16.878,4.619,22.716c1.82,16.606,13.005,119.931,13.005,119.931c0.838,8.712,8.242,15.31,16.993,15.142
				l339.012-15.753c2.574-0.049,5.119-0.767,7.243-2.222c4.432-3.036,6.434-8.301,5.407-13.304l-17.175-123.059
				c-1.453-7.073-7.678-12.15-14.899-12.15H1635.072z"/>
			
				<linearGradient id="SVGID_00000103949740636288881050000010183213621579983782_" gradientUnits="userSpaceOnUse" x1="1854.3553" y1="3366.4646" x2="1818.2611" y2="2960.8372">
				<stop  offset="0.1" style="stop-color:#311944"/>
				<stop  offset="0.267" style="stop-color:#371B47"/>
				<stop  offset="0.4803" style="stop-color:#462150"/>
				<stop  offset="0.7186" style="stop-color:#612A5F"/>
				<stop  offset="0.9736" style="stop-color:#853774"/>
				<stop  offset="1" style="stop-color:#893976"/>
			</linearGradient>
			<path style="fill:url(#SVGID_00000103949740636288881050000010183213621579983782_);" d="M1638.701,2934.798
				c-4.106,0-8.976-0.501-14.403,0.8c-1.464,0.351-3.805,0.995-4.838,1.776c0,0,11.507-2.457,15.864,6.123
				c2.66,5.237,3.979,16.878,4.619,22.716c1.82,16.606,13.005,119.931,13.005,119.931c0.838,8.712,8.242,15.31,16.993,15.142
				l342.831-6.586c2.575-0.049,5.119-0.767,7.243-2.222c4.432-3.036,6.434-8.302,5.407-13.304l-20.994-132.226
				c-1.453-7.073-7.678-12.15-14.899-12.15H1638.701z"/>
			
				<linearGradient id="SVGID_00000021808947878326363480000001735694074825493638_" gradientUnits="userSpaceOnUse" x1="1872.1584" y1="3462.4873" x2="1810.6742" y2="2900.4622">
				<stop  offset="0" style="stop-color:#311944"/>
				<stop  offset="1" style="stop-color:#893976"/>
			</linearGradient>
			<path style="opacity:0.1;fill:url(#SVGID_00000021808947878326363480000001735694074825493638_);" d="M2025.421,3079.174
				l-20.994-132.226c-1.453-7.073-7.678-12.15-14.899-12.15h-350.827c-4.106,0-8.976-0.501-14.404,0.8
				c-1.463,0.351-3.805,0.995-4.838,1.776c0,0,11.507-2.457,15.864,6.123c0.419,0.825,0.802,1.823,1.156,2.918
				c33.318,1.178,66.635,0.33,99.952,2.252c65.862,3.7,132.464,3.7,194.625,27.381c19.884,7.575,33.515,34.789,28.121,47.361
				c-3.89,9.065-17.163,8.347-21.795,20.243c-4.871,12.511,6.809,21.012,1.91,29.792c-5.135,9.202-20.73,4.818-45.977,11.387
				c-13.91,3.619-24.579,8.958-31.243,12.764l150.698-2.895c2.575-0.05,5.119-0.767,7.243-2.222
				C2024.446,3089.442,2026.448,3084.177,2025.421,3079.174z"/>
			<g>
				
					<linearGradient id="SVGID_00000137822160995218481390000016744479767649734051_" gradientUnits="userSpaceOnUse" x1="1967.4929" y1="3168.5571" x2="1766.9447" y2="3063.7249">
					<stop  offset="0" style="stop-color:#FFC444"/>
					<stop  offset="0.9964" style="stop-color:#F36F56"/>
				</linearGradient>
				<path style="fill:url(#SVGID_00000137822160995218481390000016744479767649734051_);" d="M1861.353,3119.316l-42.93,9.194
					l-4.534,0.33c-4.568,0.333-8.5-3.18-8.699-7.809l-1.884-43.76c-0.199-4.629,3.416-8.466,7.996-8.528l4.557-0.061l43.155,4.885
					c4.123-0.055,7.595-2.008,7.782,2.333l1.767,41.039C1868.75,3121.282,1865.465,3119.017,1861.353,3119.316z"/>
				
					<linearGradient id="SVGID_00000106111102290782121100000014116778292532764566_" gradientUnits="userSpaceOnUse" x1="1787.1398" y1="3079.8296" x2="1993.765" y2="3153.769">
					<stop  offset="0" style="stop-color:#FFC444"/>
					<stop  offset="0.9964" style="stop-color:#F36F56"/>
				</linearGradient>
				<path style="fill:url(#SVGID_00000106111102290782121100000014116778292532764566_);" d="M1864.617,3125.376l-47.563,3.464
					c-4.568,0.333-8.5-3.18-8.699-7.809l-1.884-43.76c-0.199-4.629,3.416-8.466,7.996-8.528l47.684-0.636
					c4.123-0.055,7.623,3.452,7.809,7.793l1.767,41.039C1871.915,3121.282,1868.729,3125.077,1864.617,3125.376z"/>
			</g>
		</g>
		<g>
			<path style="fill:#C9CED6;" d="M1038.675,1275.852c16.526,8.391,37.29,0.687,46.376-17.209
				c9.085-17.895,3.053-39.204-13.473-47.595c-0.857-0.435-1.73-0.8-2.607-1.15c3.071-9.902,5.386-19.882,6.938-29.865
				c0.948-0.003,1.898-0.018,2.864-0.105c18.855-1.681,33.82-19.007,33.425-38.7c-0.395-19.694-16-34.296-34.856-32.615
				c-0.985,0.089-1.953,0.244-2.916,0.415c-1.97-9.759-4.668-19.293-8.073-28.519c0.867-0.508,1.73-1.032,2.573-1.623
				c16.132-11.302,21.29-33.608,11.52-49.823c-9.769-16.214-30.767-20.196-46.899-8.895c-0.826,0.58-1.604,1.205-2.372,1.84
				c-6.372-7.043-13.36-13.571-20.921-19.528c0.531-0.872,1.052-1.755,1.523-2.682c9.086-17.895,20.958-37.443,4.303-45.574
				c-38.531-18.809-55.065-2.707-64.151,15.188c-0.47,0.927-0.876,1.868-1.266,2.812c-9.271-2.589-18.665-4.379-28.111-5.366
				c0.058-0.995,0.104-1.992,0.084-3.001c-0.395-19.693,5.448-30.35-13.478-30.718c-41.273-0.802-55.198,17.112-54.803,36.804
				c0.02,1.03,0.106,2.036,0.209,3.036c-9.458,2.696-18.747,6.143-27.789,10.312c-0.43-0.878-0.876-1.751-1.386-2.599
				c-9.769-16.214-30.767-20.197-46.899-8.894c-16.132,11.303-21.29,33.609-11.52,49.823c0.5,0.831,1.048,1.608,1.605,2.374
				c-7.144,7.144-13.834,14.902-20.017,23.225c-0.799-0.502-1.61-0.992-2.466-1.426c-16.527-8.392-37.29-0.687-46.376,17.209
				c-9.085,17.895-3.053,39.204,13.473,47.595c0.857,0.435,1.731,0.8,2.607,1.15c-3.071,9.902-5.386,19.881-6.938,29.865
				c-0.947,0.003-1.898,0.018-2.863,0.104c-18.856,1.681-33.821,19.008-33.426,38.702c0.395,19.693,16.001,34.294,34.856,32.613
				c0.985-0.087,1.953-0.242,2.916-0.414c1.97,9.76,4.668,19.293,8.072,28.52c-0.867,0.507-1.73,1.032-2.573,1.623
				c-16.132,11.301-21.289,33.608-11.519,49.823c9.769,16.214,42.113,23.747,58.245,12.445c0.827-0.579-9.742-4.755-8.974-5.39
				c6.372,7.043,13.36,13.571,20.921,19.528c-0.531,0.872-1.052,1.755-1.523,2.682c-9.086,17.895-3.054,39.204,13.473,47.595
				c16.527,8.391,37.29,0.687,46.375-17.209c0.47-0.927,0.876-1.869,1.266-2.811c9.271,2.589,18.665,4.378,28.111,5.366
				c-0.059,0.995-0.105,1.991-0.084,3.001c0.395,19.693,16,34.295,34.856,32.614c18.855-1.681,33.821-19.008,33.425-38.701
				c-0.02-1.029-0.106-2.035-0.209-3.035c9.459-2.696,18.747-6.143,27.789-10.312c0.429,0.879,0.876,1.751,1.387,2.598
				c9.769,16.215,30.766,20.198,46.899,8.895c16.132-11.302,21.289-33.608,11.52-49.823c-0.501-0.83-1.049-1.607-1.606-2.373
				c7.144-7.145,13.835-14.902,20.017-23.225C1037.008,1274.927,1037.819,1275.417,1038.675,1275.852z M832.652,1278.466
				c-60.005-30.466-81.907-107.834-48.918-172.807c32.988-64.974,108.374-92.947,168.379-62.481
				c60.005,30.466,81.907,107.834,48.918,172.808C968.043,1280.958,892.658,1308.932,832.652,1278.466z"/>
			<path style="fill:#D8DEE8;" d="M1078.772,1179.929c18.855-1.681,33.82-19.008,33.425-38.701
				c-0.395-19.693-16-34.296-34.856-32.615c-0.985,0.088-1.953,0.244-2.916,0.414c-1.969-9.76-4.668-19.292-8.073-28.519
				c0.867-0.507,1.73-1.032,2.573-1.623c16.132-11.301,36.09-38.61,24.708-53.736c-21.601-28.709-43.956-16.282-60.088-4.981
				c-0.826,0.58-1.604,1.204-2.372,1.839c-6.372-7.044-13.36-13.57-20.921-19.528c0.531-0.872,1.052-1.754,1.523-2.681
				c4.945-9.739,5.382-20.477,2.116-29.606c-15.582,27.424-30.953,54.963-46.05,82.653c47.87,35.078,63.111,104.206,33.189,163.141
				c-25.357,49.941-75.759,77.984-124.975,74.47c-2.196,5.694-4.351,11.418-6.702,17.056c-6.38,15.302-13.627,30.288-20.884,45.255
				c4.563,0.861,9.148,1.538,13.744,2.019c-0.059,0.995-0.105,1.992-0.085,3.001c0.395,19.693,12.351,36.425,46.524,34.613
				c18.904-1.003,22.152-21.006,21.757-40.699c-0.02-1.029-0.106-2.035-0.208-3.034c9.458-2.696,18.747-6.144,27.788-10.312
				c0.429,0.879,0.876,1.751,1.387,2.598c9.769,16.215,43.661,23.104,59.793,11.802c16.132-11.302,8.394-36.515-1.374-52.73
				c-0.501-0.83-1.049-1.607-1.606-2.374c7.144-7.144,13.835-14.902,20.017-23.224c0.799,0.502,1.61,0.992,2.467,1.426
				c16.526,8.392,37.29,0.687,46.376-17.209c9.085-17.894,3.053-39.204-13.473-47.595c-0.857-0.435-1.73-0.8-2.607-1.149
				c3.071-9.902,5.386-19.882,6.938-29.864C1076.855,1180.031,1077.807,1180.015,1078.772,1179.929z"/>
			<path style="fill:#D8DEE8;" d="M1056.45,1277.873c16.527,8.391,37.29,0.686,46.375-17.209
				c9.085-17.895,3.053-39.204-13.473-47.595c-0.856-0.435-1.73-0.8-2.607-1.15c3.071-9.902,5.386-19.882,6.938-29.865
				c0.948-0.003,1.898-0.018,2.864-0.105c18.855-1.681,33.82-19.007,33.426-38.7c-0.395-19.694-16-34.296-34.856-32.615
				c-0.986,0.088-1.954,0.244-2.916,0.415c-1.97-9.759-4.668-19.293-8.073-28.52c0.868-0.507,1.731-1.032,2.573-1.623
				c16.131-11.302,21.29-33.608,11.52-49.823c-9.77-16.214-30.767-20.196-46.899-8.895c-0.827,0.58-1.605,1.205-2.373,1.84
				c-6.372-7.044-13.36-13.571-20.921-19.528c0.532-0.871,1.052-1.755,1.523-2.682c9.085-17.895,3.054-39.204-13.473-47.596
				c-16.527-8.391-37.29-0.686-46.376,17.209c-0.47,0.927-0.876,1.868-1.266,2.812c-9.271-2.589-18.665-4.378-28.111-5.366
				c0.059-0.995,0.105-1.992,0.085-3.001c-0.395-19.693-16.001-34.295-34.856-32.614c-18.855,1.681-33.821,19.008-33.426,38.7
				c0.021,1.03,0.107,2.036,0.209,3.036c-9.458,2.696-18.747,6.143-27.788,10.312c-0.43-0.878-0.876-1.751-1.386-2.599
				c-9.77-16.215-30.767-20.197-46.899-8.894c-16.133,11.303-21.289,33.608-11.52,49.823c0.5,0.831,1.048,1.608,1.605,2.374
				c-7.144,7.145-13.835,14.902-20.017,23.224c-0.8-0.501-1.61-0.991-2.467-1.426c-16.527-8.391-37.29-0.687-46.375,17.209
				c-9.086,17.895-3.054,39.204,13.473,47.595c0.856,0.434,1.73,0.8,2.607,1.15c-3.071,9.902-5.386,19.881-6.938,29.865
				c-0.947,0.002-1.898,0.018-2.864,0.103c-18.855,1.682-33.82,19.008-33.426,38.701c0.395,19.694,16.001,34.295,34.856,32.614
				c0.985-0.087,1.954-0.242,2.915-0.414c1.97,9.759,4.668,19.293,8.073,28.52c-0.867,0.507-1.731,1.031-2.574,1.623
				c-16.131,11.301-21.289,33.608-11.52,49.822c9.77,16.215,30.768,20.197,46.899,8.895c0.827-0.579,1.605-1.204,2.373-1.839
				c6.372,7.043,13.36,13.571,20.921,19.528c-0.532,0.871-1.052,1.755-1.523,2.682c-9.086,17.895-3.053,39.204,13.473,47.595
				c16.527,8.391,37.29,0.686,46.376-17.209c0.471-0.927,0.876-1.869,1.266-2.811c9.271,2.589,18.665,4.378,28.111,5.366
				c-0.059,0.995-0.105,1.991-0.085,3.001c0.395,19.693,16.001,34.294,34.856,32.614c18.855-1.681,33.821-19.008,33.426-38.7
				c-0.021-1.029-0.107-2.035-0.208-3.035c9.458-2.696,18.747-6.143,27.788-10.312c0.43,0.878,0.876,1.751,1.386,2.598
				c9.77,16.215,30.767,20.197,46.899,8.895c16.132-11.302,21.289-33.608,11.52-49.823c-0.5-0.83-1.049-1.607-1.606-2.373
				c7.144-7.145,13.835-14.903,20.017-23.225C1054.784,1276.949,1055.594,1277.438,1056.45,1277.873z M850.428,1280.487
				c-60.005-30.466-81.907-107.834-48.919-172.808c32.988-64.973,108.375-92.947,168.379-62.481
				c60.005,30.466,81.907,107.834,48.919,172.808C985.819,1282.98,910.433,1310.953,850.428,1280.487z"/>
		</g>
		<g>
			
				<linearGradient id="SVGID_00000131329632723518097040000017969533258905213619_" gradientUnits="userSpaceOnUse" x1="233.2018" y1="1351.1853" x2="638.2275" y2="1351.1853" gradientTransform="matrix(-1 0 0 1 1770.3242 0)">
				<stop  offset="0" style="stop-color:#FF9085"/>
				<stop  offset="1" style="stop-color:#FB6FBB"/>
			</linearGradient>
			<path style="fill:url(#SVGID_00000131329632723518097040000017969533258905213619_);" d="M1161.44,1431.166
				c-18.62-23.319-29.343-50.696-29.343-79.98c0-85.155,90.669-154.186,202.513-154.186s202.513,69.031,202.513,154.186
				c0,85.155-90.668,154.186-202.513,154.186c-41.918,0-80.861-9.697-113.171-26.305c-21.357,3.643-54.508,9.765-72.002,13.021
				c-5.151,0.958-9.371-4.078-7.527-8.983L1161.44,1431.166z"/>
			<g style="opacity:0.3;">
				
					<linearGradient id="SVGID_00000145778332950504822550000013633639833591007104_" gradientUnits="userSpaceOnUse" x1="286.662" y1="1244.6415" x2="638.1374" y2="1707.5271" gradientTransform="matrix(-1 0 0 1 1770.3242 0)">
					<stop  offset="0" style="stop-color:#FF9085"/>
					<stop  offset="1" style="stop-color:#FB6FBB"/>
				</linearGradient>
				<path style="fill:url(#SVGID_00000145778332950504822550000013633639833591007104_);" d="M1223.789,1383.814
					c45.41-19.086,95.345,21.202,126.565-6.903c31.47-28.332-2.527-84.346,27.614-124.263
					c14.371-19.033,38.516-28.038,66.137-31.185c55.958,27.436,93.018,75.283,93.018,129.723
					c0,85.155-90.668,154.186-202.513,154.186c-41.918,0-80.861-9.697-113.171-26.305c-16.851,2.875-41.039,7.291-59.091,10.627
					C1175.664,1420.654,1200.158,1393.747,1223.789,1383.814z"/>
			</g>
		</g>
	</g>
</g>
</svg>
