<svg xmlns="http://www.w3.org/2000/svg" viewBox="0 0 750 500" style="enable-background:new 0 0 750 500" xml:space="preserve"><path style="fill:#fafafa" d="M559.349 88.168c.589-4.277-5.448-7.796-9.984-8.162-2.163-.174-4.41.156-6.459-.558-4.44-1.548-6.214-7.284-10.546-9.111-3.239-1.366-6.968-.15-10.108 1.43-3.14 1.58-6.243 3.569-9.751 3.794-3.052.195-6.365-.936-9.035.554-1.99 1.111-3.032 3.403-4.865 4.756-1.794 1.323-4.134 1.603-6.36 1.724s-4.53.144-6.557 1.072-3.704 3.071-3.283 5.26l76.948-.759z"/><path style="fill:#f5f5f5" d="M98.791 140.886c.589-4.277-5.448-7.796-9.984-8.162-2.163-.174-4.41.156-6.46-.558-4.44-1.548-6.214-7.284-10.546-9.111-3.239-1.366-6.968-.15-10.108 1.43-3.14 1.58-6.243 3.569-9.751 3.794-3.051.195-6.365-.936-9.035.554-1.99 1.111-3.032 3.403-4.865 4.756-1.794 1.323-4.134 1.603-6.36 1.724s-4.53.143-6.557 1.072c-2.027.928-3.703 3.071-3.283 5.26l76.949-.759z"/><path style="fill:#ebebeb" d="M675.6 124.963c.861-6.255-7.967-11.401-14.601-11.936-3.163-.255-6.449.229-9.446-.816-6.493-2.263-9.087-10.652-15.423-13.324-4.737-1.998-10.19-.219-14.782 2.092-4.592 2.311-9.13 5.22-14.26 5.548-4.462.286-9.308-1.369-13.213.811-2.909 1.624-4.433 4.977-7.115 6.955-2.623 1.935-6.045 2.345-9.3 2.522-3.255.177-6.625.21-9.589 1.567-2.964 1.357-5.416 4.491-4.801 7.692l112.53-1.111z"/><path style="fill:#f5f5f5" d="M404.088 65.969c.638-4.633-5.901-8.445-10.815-8.841-2.343-.189-4.777.169-6.997-.604-4.81-1.676-6.731-7.89-11.424-9.869-3.508-1.48-7.548-.162-10.949 1.549-3.401 1.712-6.763 3.866-10.563 4.11-3.305.211-6.895-1.014-9.787.6-2.155 1.203-3.284 3.686-5.27 5.151-1.943 1.433-4.478 1.737-6.889 1.868-2.411.131-4.907.156-7.103 1.161s-4.012 3.327-3.556 5.698l83.353-.823z"/><path style="fill:#e0e0e0" d="M393.538 141.188c1.369.124 1.146 1.285 2.336 1.715.583.211 2.227.259 2.786.349l1.487.205 3.028-18.788a2.862 2.862 0 0 0-2.379-3.273l-18.374-2.962.199-1.236a3.843 3.843 0 0 1 .666-1.59 7.628 7.628 0 0 0 1.388-4.496c-.032-3.394-2.413-6.292-5.668-7.321-7.864-2.486-9.009 1.702-9.731 6.184a7.609 7.609 0 0 0 .156 3.165c.138.519.179 1.059.093 1.588l-.256 1.587-17.918-2.888a2.86 2.86 0 0 0-3.287 2.359l-7.985 49.536a2.33 2.33 0 0 0 1.938 2.665l50.496 8.139a2.33 2.33 0 0 0 2.677-1.921l2.886-17.902-2.044-.329c-.472-.076-.758-.142-1.212-.161-.96-.041-2.138.464-3.146.302-4.329-.698-7.242-4.834-6.368-9.146.769-3.801 4.347-6.133 8.232-5.781z"/><path style="fill:#f5f5f5" d="M389.566 140.676c1.369.124 2.481.68 3.528 1.39.468.317 1.035.584 1.594.674l1.487.205 3.028-18.788a2.862 2.862 0 0 0-2.379-3.273l-18.374-2.962.199-1.236a3.843 3.843 0 0 1 .666-1.59 7.628 7.628 0 0 0 1.388-4.496c-.032-3.394-2.376-6.417-5.668-7.321-4.531-1.245-9.009 1.702-9.731 6.184a7.609 7.609 0 0 0 .156 3.165 3.82 3.82 0 0 1 .093 1.588l-.256 1.587-17.918-2.888a2.86 2.86 0 0 0-3.287 2.359l-7.985 49.536a2.33 2.33 0 0 0 1.938 2.665l50.496 8.139a2.33 2.33 0 0 0 2.677-1.921l2.886-17.902-2.044-.329a3.75 3.75 0 0 0-1.42.047 7.728 7.728 0 0 1-2.938.093c-4.329-.698-7.242-4.834-6.368-9.146.769-3.801 4.347-6.133 8.232-5.78z"/><path style="fill:#e0e0e0" d="m587.008 247.452 2.65 17.955a2.87 2.87 0 0 0 3.258 2.42l49.943-7.371a2.337 2.337 0 0 0 1.971-2.653l-7.468-50.599a2.337 2.337 0 0 0-2.653-1.971l-18.049 2.664.302 2.048c.07.473.233.927.475 1.34.487.83.829 1.762.978 2.773a7.75 7.75 0 0 1-6.849 8.838c-3.879.415-7.548-2.227-8.385-6.037a7.673 7.673 0 0 1 .146-3.877 3.848 3.848 0 0 0 .137-1.668l-.212-1.436-18.487 2.729a2.87 2.87 0 0 0-2.42 3.258l2.718 18.411 1.945 13.176z"/><path style="fill:#ebebeb" d="M597.764 217.656a7.673 7.673 0 0 1 .146-3.877 3.848 3.848 0 0 0 .137-1.668l-.212-1.436-18.487 2.729a2.87 2.87 0 0 0-2.42 3.258l2.717 18.411-1.247.184a3.862 3.862 0 0 1-1.727-.154 7.718 7.718 0 0 0-4.733.036 7.75 7.75 0 1 0 6.557 13.918 3.86 3.86 0 0 1 1.496-.569l1.6-.236 2.65 17.955a2.869 2.869 0 0 0 3.258 2.42l49.943-7.371a2.338 2.338 0 0 0 1.971-2.653l-7.468-50.599a2.337 2.337 0 0 0-2.653-1.971l-18.049 2.664.302 2.048c.07.473.233.927.475 1.34.487.83.829 1.762.978 2.773a7.748 7.748 0 0 1-6.849 8.837c-3.88.414-7.548-2.228-8.385-6.039z"/><g><path style="fill:#e0e0e0" d="m482.238 178.122 8.081 11.264a2.192 2.192 0 0 0 3.059.503l31.332-22.478c.801-.575.985-1.69.41-2.491l-22.773-31.744a1.785 1.785 0 0 0-2.491-.41l-11.323 8.123.922 1.285c.213.297.483.548.791.743a5.878 5.878 0 0 1 1.634 1.54 5.92 5.92 0 0 1-1.559 8.397c-2.488 1.639-5.904 1.129-7.805-1.166a5.861 5.861 0 0 1-1.257-2.684 2.94 2.94 0 0 0-.491-1.181l-.646-.901-11.598 8.32a2.192 2.192 0 0 0-.503 3.059l8.286 11.551 5.931 8.27z"/></g><g><path style="fill:#ebebeb" d="M479.117 154.127a5.861 5.861 0 0 1-1.257-2.684 2.933 2.933 0 0 0-.491-1.181l-.646-.901-11.598 8.32a2.192 2.192 0 0 0-.503 3.059l8.286 11.551-.782.561a2.971 2.971 0 0 1-1.227.5 5.898 5.898 0 0 0-3.201 1.681 5.92 5.92 0 0 0 7.679 8.953 5.862 5.862 0 0 0 1.642-1.797c.209-.355.481-.669.816-.91l1.004-.72 8.081 11.264a2.192 2.192 0 0 0 3.059.503l31.332-22.478c.801-.575.985-1.69.41-2.491l-22.773-31.744a1.785 1.785 0 0 0-2.491-.41l-11.323 8.123.922 1.285c.213.297.482.548.791.743a5.878 5.878 0 0 1 1.634 1.54 5.92 5.92 0 0 1-1.559 8.397c-2.488 1.642-5.904 1.131-7.805-1.164z"/></g><g><path style="fill:#f5f5f5" d="M33.877 369.231s-6.233 2.525.956 15.758c7.19 13.233 12.102 19.75 12.102 19.75s1.294 3.082-1.314 3.633c-2.608.552-8.403-.219-9.487 3.018-1.125 3.357 1.372 6.432 6.342 9.058 4.97 2.626 15.647 8.777 16.61 9.337.946.55 1.917 1.974.2 2.635-1.716.661-14.661 2.352-13.491 8.446 1.17 6.094 16.217 11.134 17.851 11.716 1.634.583 2.039 1.258 1.93 2.15-.109.892-4.514 1.05-8.175 1.682-3.662.632-7.798 2.006-6.828 5.466.97 3.46 9.989 10.547 31.483 12.093l10.007.064 5.222-8.588c10.056-19.06 8.811-30.463 6.387-33.115-2.423-2.653-5.777.13-8.25 2.904s-4.937 6.428-5.751 6.049c-.814-.379-1.174-1.08-.804-2.775.37-1.695 4.051-17.13-.503-21.346-4.553-4.216-12.835 5.876-14.303 6.983-1.468 1.108-2.164-.47-2.13-1.564.034-1.114.46-13.429.86-19.035.4-5.606-.889-9.352-4.333-10.173-3.321-.792-5.731 4.534-7.579 6.456-1.848 1.922-3.778-.807-3.778-.807s-2.933-7.615-10.362-20.716-12.985-9.019-12.985-9.019"/><path style="fill:#e0e0e0" d="M92.642 476.375c-5.418-9.643-14.76-26.943-22.857-41.754-8.095-14.806-15.436-28.205-20.804-37.874l-6.37-11.444-1.73-3.113-.443-.814c-.098-.184-.142-.282-.142-.282s.062.088.169.267l.47.798 1.781 3.085c1.543 2.68 3.749 6.575 6.456 11.397 5.418 9.643 12.791 23.026 20.885 37.832 8.098 14.811 17.408 32.127 22.777 41.796"/><path style="fill:#e0e0e0" d="M44.197 412.795c.007-.02.257.043.702.176a57.88 57.88 0 0 1 1.875.603c1.575.532 3.733 1.323 6.097 2.238l6.045 2.365 1.835.705c.434.164.672.265.665.286-.007.02-.257-.041-.704-.171a44.502 44.502 0 0 1-1.872-.613c-1.571-.548-3.717-1.366-6.081-2.281l-6.059-2.32-1.84-.696c-.434-.169-.67-.272-.663-.292zM62.083 418.51c-.081-.027 1.352-4.546 3.201-10.092 1.85-5.548 3.415-10.022 3.497-9.995.081.027-1.352 4.545-3.202 10.093-1.849 5.547-3.415 10.022-3.496 9.994zM73.49 441.812c-.017-.013.123-.236.39-.628l1.143-1.651a160.05 160.05 0 0 0 3.663-5.514 155.59 155.59 0 0 0 3.415-5.672l1.004-1.739c.239-.41.381-.632.4-.622.019.01-.086.251-.293.679-.207.427-.518 1.04-.918 1.789a89.642 89.642 0 0 1-3.345 5.732 91.284 91.284 0 0 1-3.747 5.476c-.508.68-.925 1.227-1.224 1.595-.298.37-.471.568-.488.555zM56.174 440.204c.002-.021.245-.022.683-.006l1.854.099c1.565.097 3.724.252 6.108.443 2.384.191 4.542.381 6.102.534l1.846.197c.435.054.675.093.674.115-.002.021-.245.022-.683.006l-1.854-.099a359.343 359.343 0 0 1-6.109-.443 364.066 364.066 0 0 1-6.101-.534l-1.846-.197c-.435-.054-.675-.094-.674-.115zM63.631 462.054c.001-.021.313-.02.874.001l2.377.118c2.006.113 4.775.291 7.833.506 3.058.215 5.826.428 7.828.597l2.37.216c.559.058.867.1.866.122-.002.021-.313.02-.874-.001l-2.377-.118a598.392 598.392 0 0 1-7.834-.506 589.889 589.889 0 0 1-7.826-.597l-2.37-.216c-.56-.058-.868-.1-.867-.122zM85.259 463.427c-.018-.012.152-.299.474-.808l1.373-2.146a261.056 261.056 0 0 0 4.422-7.144 254.58 254.58 0 0 0 4.173-7.293l1.232-2.23c.293-.525.465-.811.484-.802.019.01-.116.315-.376.858-.26.543-.649 1.323-1.146 2.278a145.284 145.284 0 0 1-4.1 7.349 147.158 147.158 0 0 1-4.505 7.106 82.92 82.92 0 0 1-1.457 2.093c-.352.487-.556.752-.574.739z"/></g><g><path style="fill:#f5f5f5" d="M603.956 474.284c-13.131-6.596-18.082-21.662-19.629-35.627-.258-2.331-.869-4.739-.061-6.935.808-2.195 3.18-3.96 5.399-3.285 1.841.561 2.882 2.455 4.087 3.972a13.7 13.7 0 0 0 6.195 4.405c1.589.552 3.484.755 4.825-.261 1.84-1.395 1.675-4.193 1.325-6.498l-1.955-12.887c-.349-2.305-.699-4.659-.299-6.953.399-2.294 1.689-4.558 3.794-5.492 2.106-.933 5.003-.063 5.795 2.128.33.912.28 1.915.483 2.863.203.949.803 1.943 1.752 2.078.96.137 1.788-.651 2.38-1.427 2.043-2.675 3.223-5.911 4.299-9.114 1.077-3.204 2.098-6.472 3.89-9.326 1.791-2.854 4.487-5.302 7.764-5.969 3.277-.667 7.093.861 8.4 3.983 1.31 3.131-.108 6.706-1.79 9.639a52.055 52.055 0 0 1-9.237 11.778c-.652.622-1.359 1.294-1.513 2.189-.278 1.611 1.402 2.927 2.993 3.212 1.803.323 3.643-.127 5.472-.176 1.83-.05 3.894.461 4.821 2.062 1.288 2.221-.325 4.979-2.031 6.879a44.556 44.556 0 0 1-11.961 9.433c-1.607.867-3.314 1.672-4.509 3.063-1.195 1.392-1.72 3.585-.657 5.089 1.064 1.507 3.261 1.718 4.991 1.13 1.729-.588 3.18-1.784 4.781-2.669 2.996-1.657 7.122-2.034 9.551.411 1.596 1.607 2.078 4.098 1.715 6.343-.363 2.245-1.463 4.293-2.669 6.21-4.215 6.7-10.023 12.445-17.007 16.063-6.982 3.619-13.696 5.3-21.394 3.689"/><path style="fill:#e0e0e0" d="M606.278 465.052c1.026-7.31 2.816-15.229 4.972-23.448l1.619-6.079c.536-1.994 1.067-3.972 1.707-5.874 1.262-3.811 2.766-7.378 4.3-10.72 1.533-3.344 3.109-6.46 4.604-9.364 1.502-2.902 2.953-5.58 4.379-7.964 2.839-4.782 5.58-8.361 7.562-10.74a76.843 76.843 0 0 1 2.334-2.698l.628-.682c.143-.152.219-.227.225-.222.006.005-.059.09-.192.252l-.596.71c-.527.622-1.303 1.539-2.271 2.748a87.594 87.594 0 0 0-7.43 10.791c-1.406 2.388-2.838 5.068-4.323 7.973-1.48 2.909-3.042 6.027-4.562 9.366-1.52 3.338-3.009 6.896-4.259 10.687-.633 1.892-1.158 3.853-1.694 5.853l-1.616 6.077c-2.154 8.212-3.951 16.11-4.996 23.395"/><path style="fill:#e0e0e0" d="M614.694 429.616c-.028.009-.157-.33-.368-.951a63.054 63.054 0 0 1-.822-2.652c-.66-2.25-1.465-5.387-2.34-8.85-.875-3.465-1.723-6.582-2.415-8.815-.343-1.117-.63-2.02-.836-2.64-.203-.622-.302-.972-.274-.983.028-.011.179.319.431.925.255.604.586 1.494.967 2.603.769 2.217 1.667 5.335 2.543 8.803l2.218 8.876.69 2.685c.158.634.235.99.206.999z"/><path style="fill:#e0e0e0" d="M643.549 419.763c.005.029-.41.14-1.163.313-.751.178-1.84.431-3.174.785-2.674.688-6.335 1.767-10.321 3.135a156.65 156.65 0 0 0-10.08 3.859c-1.275.534-2.295.994-3.002 1.307-.706.316-1.102.479-1.116.452-.013-.027.359-.241 1.044-.605a56.62 56.62 0 0 1 2.952-1.436c2.517-1.161 6.065-2.609 10.062-3.989 3.998-1.371 7.687-2.409 10.388-3.022a50.158 50.158 0 0 1 3.214-.652c.766-.122 1.19-.177 1.196-.147zM606.563 464.453c-.013.008-.1-.106-.256-.332l-.663-1c-.572-.87-1.367-2.151-2.328-3.747-1.925-3.19-4.445-7.68-7.158-12.672-2.716-4.994-5.19-9.502-7.045-12.727l-2.209-3.814-.595-1.042c-.132-.24-.195-.37-.183-.379.013-.007.1.107.256.333l.663.999c.572.87 1.367 2.151 2.328 3.747 1.925 3.19 4.445 7.68 7.159 12.674 2.715 4.993 5.189 9.499 7.045 12.726.908 1.566 1.654 2.856 2.208 3.813l.595 1.042c.132.241.196.371.183.379z"/><path style="fill:#e0e0e0" d="M644.131 446.023c.006.014-.121.088-.368.218l-1.089.55c-1.008.496-2.367 1.167-4.022 1.981-3.396 1.674-8.059 4.039-13.209 6.659-5.151 2.622-9.841 4.946-13.272 6.55a160.51 160.51 0 0 1-4.082 1.857l-1.123.476c-.259.105-.398.153-.404.139-.006-.014.121-.088.368-.219l1.089-.549 4.021-1.981c3.396-1.673 8.06-4.039 13.211-6.66 5.149-2.621 9.839-4.945 13.27-6.549 1.716-.803 3.11-1.438 4.083-1.857.45-.191.82-.349 1.123-.476.259-.105.398-.153.404-.139z"/></g><g><path style="fill:#ff725e" d="M198.538 58.065s-11.93-4.282-19.928-1.758c-7.998 2.524-10.261 7.601-16.365 7.34-4.812-.206-8.271-2.192-10.139-7.258-1.868-5.065-2.051-11.431-18.436-10.373-12.542.81-13.756 2.682-13.756 2.682l-.43 33.432c7.075-1.32 14.315-2.327 22.139-1.442 0 0 6.473.985 7.533 7.815 1.102 7.105 8.513 9.682 12.906 9.561 6.291-.173 9.353-4.507 14.651-5.881 8.306-2.154 22.851 3.307 22.851 3.307l-1.026-37.425z"/><path style="fill:#263238" d="M154.132 85.04c.128-.001.188-5.543.133-12.377-.055-6.836-.204-12.375-.332-12.374-.128.001-.188 5.542-.133 12.378.054 6.834.203 12.374.332 12.373zM166.947 70.203c-.128.004-.076 5.723.118 12.774.194 7.053.455 12.766.583 12.763.128-.004.076-5.722-.118-12.775-.194-7.052-.455-12.766-.583-12.762z"/><path d="M167.492 90.08c.162 2.562.164 5.964.164 5.964-1.837 1.304-5.687 2.167-7.855 1.555l-.062-.018c-2.925-.837-5.183-3.188-5.978-6.125-.296-1.095-.467-2.154-.421-2.962.483-8.509 1.113-19.115.607-27.623 0 0 5.247 4.779 13.13 2.453l.415 26.756z" style="opacity:.2"/><g style="opacity:.6"><path style="fill:#fff" d="M167.975 64.536c.019.026.401-.211 1.079-.657l2.868-1.887c2.428-1.538 5.89-3.691 10.192-4.633 4.302-.949 8.363-.432 11.116.356 2.776.794 4.335 1.726 4.376 1.64.014-.025-.365-.268-1.084-.653a20.697 20.697 0 0 0-3.199-1.302c-2.768-.881-6.912-1.465-11.309-.495-4.404.967-7.884 3.201-10.274 4.813a67.471 67.471 0 0 0-2.791 2.014c-.645.492-.992.778-.974.804z"/></g><g style="opacity:.6"><path style="fill:#fff" d="M138.498 48.28c.009.08.888-.055 2.286.078 1.389.125 3.318.601 5.102 1.771 1.785 1.171 2.989 2.751 3.657 3.975.68 1.23.905 2.089.983 2.066.047-.008-.066-.908-.69-2.217-.611-1.299-1.826-2.987-3.694-4.213-1.868-1.225-3.899-1.667-5.335-1.71-1.45-.051-2.32.205-2.309.25z"/></g><path style="fill:#263238" d="m119.185 45.285-1.837 222.668 1.658.342 2.082-222.939z"/></g><g><path style="fill:#ff725e" d="m572.225 448.269 4.65 14.614s-13.293 9.634-12.697 12.419l28.66-7.998-6.311-23.068-14.302 4.033z"/><path style="fill:#e0e0e0" d="M585.391 459.169c.597-.003 1.154.514 1.182 1.11.028.596-.493 1.168-1.09 1.181-.597.014-1.285-.586-1.246-1.182.039-.596.687-1.233 1.27-1.103M593.027 467.902l-.609-2.236-27.514 7.867s-1.121.911-.726 1.77l28.849-7.401z"/><path style="fill:#263238" d="M576.37 462.867c.044.139.761.007 1.575.265.821.237 1.345.744 1.458.652.121-.063-.321-.842-1.312-1.136-.988-.304-1.787.099-1.721.219zM573.711 464.95c.006.144.678.213 1.319.673.654.44.953 1.047 1.09 1.002.138-.015.006-.861-.802-1.417-.802-.564-1.641-.393-1.607-.258zM573.008 469.024c.135-.006.135-.759-.438-1.425-.569-.67-1.313-.789-1.34-.655-.047.137.493.43.955.984.475.542.68 1.121.823 1.096zM575.68 459.419c.094.111.682-.261 1.488-.428.803-.183 1.492-.09 1.532-.23.053-.124-.693-.474-1.639-.264-.948.203-1.481.831-1.381.922z"/><g><path style="fill:#ff725e" d="m521.285 430.685 9.752 16.764s-16.913 6.584-17.055 9.729l32.925.159-.026-2.562-7.285-24.436-18.311.346z"/><path style="fill:#e0e0e0" d="M541.184 445.859c.64.164 1.091.872.954 1.518s-.854 1.111-1.496.958c-.642-.152-1.21-.986-1.002-1.613.209-.626 1.08-1.126 1.667-.824M546.907 457.337l-.026-2.562-31.628.713s-1.454.661-1.272 1.69l32.926.159z"/><path style="fill:#263238" d="M531.124 447.29c.008.161.812.22 1.611.724.812.483 1.231 1.172 1.377 1.106.148-.034-.107-.99-1.085-1.583-.972-.601-1.94-.394-1.903-.247zM527.391 449.015c-.034.156.666.418 1.222 1.089.576.654.726 1.386.885 1.377.151.023.247-.92-.461-1.74-.699-.827-1.645-.879-1.646-.726zM525.443 453.213c.146.032.357-.774-.07-1.647-.421-.876-1.183-1.211-1.249-1.076-.089.134.407.598.746 1.32.356.713.413 1.389.573 1.403zM529.014 443.8c.07.145.803-.088 1.712-.041.91.029 1.621.322 1.703.183.091-.118-.608-.701-1.68-.741-1.071-.049-1.816.474-1.735.599z"/><g><path style="fill:#ffbe9d" d="m580.571 298.442 1.841 26.293 9.813 1.899 2.056-29.306z"/><path style="fill:#ffbe9d" d="M577.492 346.654s-.306-6.506-.504-9.093a3.806 3.806 0 0 1 .595-2.349l4.828-7.503v-2.975l9.816 1.9s.733 7.524.733 8.77c0 .801-.303 4.984-.519 7.868a3.034 3.034 0 0 1-2.813 2.799l-.05.003s.558 2.779-2.258 3.021c0 0-1.487 1.571-3.904 1.329l-1.004.025s-.204 1.062-1.896 1.062-1.087-2.296-1.087-2.296l-.242-2.779-1.695.218z"/><path style="fill:#eb996e" d="M579.52 338.611c.14-.005.325 2.011.243 4.5-.078 2.491-.391 4.49-.531 4.476-.146-.014-.067-2.021.01-4.493.082-2.47.131-4.478.278-4.483zM584.182 341.789c.133-.008.287 1.994-.247 4.39-.521 2.4-1.502 4.152-1.619 4.088-.141-.064.605-1.867 1.11-4.2.521-2.329.602-4.279.756-4.278zM587.71 341.882c.136-.01.342 1.685.075 3.761-.258 2.078-.878 3.669-1.008 3.625-.145-.043.24-1.664.491-3.69.261-2.024.292-3.69.442-3.696zM589.753 341.136c.138-.018.4 1.225.328 2.779-.066 1.555-.438 2.769-.574 2.739-.146-.029-.01-1.255.054-2.762.071-1.508.045-2.74.192-2.756z"/></g><g><path style="fill:#263238" d="M523.325 201.417c-1.765.25-3.616-1.001-4.042-2.732-.426-1.731.632-3.698 2.311-4.296-1.132-1.098-1.458-2.941-.772-4.361.686-1.42 2.333-2.31 3.896-2.106.023-1.557.911-3.073 2.259-3.854 1.347-.78 3.105-.796 4.467-.04 1.679-1.521 4.449-1.651 6.264-.296 1.504-.32 3.174.44 3.921 1.784.746 1.344.508 3.164-.559 4.271"/><path style="fill:#ffbe9d" d="M522.811 201.941c.42-8.032 6.938-14.393 14.978-14.62l.799-.023c8.628.26 13.227 7.733 12.728 16.351l-.439 28.719-.035 1.395-19.765 4.545-.178-7.312s-8.317-1.054-8.653-9.331c-.162-3.995.174-12.253.565-19.724z"/><path style="fill:#eb996e" d="M530.83 230.988s5.296.169 10.759-3.481c0 0-2.384 6.03-10.666 5.518l-.093-2.037z"/><path style="fill:#263238" d="M526.537 208.346c-.005.625.521 1.144 1.174 1.161.651.016 1.184-.475 1.189-1.1.004-.625-.521-1.145-1.172-1.162-.654-.017-1.186.476-1.191 1.101zM524.705 205.942c.151.15 1.028-.538 2.3-.571 1.27-.051 2.223.578 2.356.418.066-.071-.091-.345-.506-.63-.409-.284-1.099-.551-1.892-.525-.792.027-1.451.337-1.826.647-.382.311-.506.594-.432.661zM538.761 208.959c-.005.625.521 1.144 1.174 1.16.651.017 1.184-.475 1.189-1.1.004-.625-.521-1.145-1.173-1.161-.653-.017-1.186.476-1.19 1.101zM537.218 205.827c.151.15 1.029-.538 2.301-.57 1.27-.051 2.223.577 2.356.418.066-.071-.09-.345-.506-.629-.409-.284-1.099-.551-1.891-.525-.792.027-1.451.337-1.826.647-.382.309-.508.592-.434.659zM532.867 215.393c.004-.073-.791-.187-2.077-.315-.326-.024-.635-.08-.696-.301-.083-.232.043-.587.19-.969l.891-2.501c1.235-3.56 2.119-6.483 1.975-6.532-.144-.048-1.262 2.798-2.496 6.358-.297.878-.581 1.714-.85 2.515-.112.373-.312.798-.133 1.28.094.24.338.41.547.46.21.058.393.056.554.061 1.292.033 2.092.016 2.095-.056zM536.636 216.167c-.207-.006-.171 1.375-1.325 2.388-1.152 1.017-2.629.903-2.634 1.096-.017.087.335.259.957.258a3.438 3.438 0 0 0 2.201-.837c.704-.622.992-1.432 1.023-2 .036-.578-.128-.916-.222-.905zM536.749 200.85c.135.342 1.401.143 2.898.281 1.501.108 2.717.511 2.906.195.084-.151-.135-.47-.631-.792-.492-.321-1.271-.617-2.169-.691-.899-.073-1.715.093-2.253.329-.542.236-.81.515-.751.678zM525.069 202.247c.232.283 1.1-.042 2.154-.086 1.052-.081 1.952.139 2.149-.169.086-.149-.063-.435-.46-.697-.392-.262-1.041-.467-1.765-.424-.723.043-1.344.323-1.702.629-.365.307-.479.609-.376.747z"/><path style="fill:#263238" d="M523.5 198.122s2.038-5.246 4.504-6.527c2.985-1.55 4.382 1.735 7.244.848 2.862-.888 5.711-2.374 8.722-.228 3.295 2.35 1.832 4.104 2.135 7.772 1.228 14.871 4.066 19.006 4.642 11.969.063-.771 2.179-1.442 2.404-4.698.291-4.222.309-9.34-.715-12.301-.863-2.496-2.348-4.196-4.977-6.042-4.15-2.914-9.736-2.822-13.517-2.333-3.782.488-10.97 5.057-10.442 11.54z"/><path style="fill:#ffbe9d" d="M550.213 211.746c.016-1.279 1.089-2.319 2.365-2.234 1.548.103 3.291.932 3.279 4.125-.021 5.665-5.705 4.475-5.714 4.313-.006-.11.04-3.833.07-6.204z"/><path style="fill:#eb996e" d="M551.384 215.823c.025-.018.099.07.265.147a.99.99 0 0 0 .738.018c.599-.217 1.107-1.166 1.138-2.187a3.268 3.268 0 0 0-.271-1.414c-.171-.415-.438-.706-.739-.76a.502.502 0 0 0-.583.268c-.077.158-.041.271-.071.281-.016.014-.121-.096-.075-.329a.633.633 0 0 1 .224-.354.741.741 0 0 1 .546-.142c.437.032.828.435 1.028.882.223.449.355 1.001.336 1.58-.041 1.142-.629 2.208-1.449 2.441-.399.102-.731-.019-.902-.153-.175-.141-.204-.268-.185-.278z"/><path style="fill:#263238" d="M549.793 200.782c-.721.522-1.483 1.062-2.366 1.174-.883.113-1.911-.368-2.085-1.241-.078-.392.005-.852-.262-1.149-.319-.355-.887-.225-1.359-.161-1.641.221-3.359-.896-3.823-2.485-.402.64-1.382.641-2.029.249s-1.075-1.05-1.588-1.605c-.513-.555-1.225-1.045-1.97-.917-.417.071-.801.331-1.224.306-.745-.045-1.133-.905-1.266-1.64-.133-.735-.245-1.593-.886-1.976-.594-.355-1.344-.119-2.025.001-.681.12-1.57-.016-1.764-.68-.102-.348.038-.722.224-1.034.842-1.412 2.747-2.083 4.288-1.51.501-1.886 2.209-3.391 4.143-3.65 1.934-.259 3.979.742 4.959 2.43a5.133 5.133 0 0 1 4.476-1.309 5.13 5.13 0 0 1 3.636 2.92c1.367-.401 2.951.087 3.855 1.188.904 1.101 1.075 2.75.416 4.012 1.034.553 1.933 1.539 1.987 2.71.054 1.171-1.054 2.37-2.194 2.094.483.899.146 2.148-.724 2.682-.87.535-2.136.272-2.72-.565"/><g><path style="fill:#455a64" d="M531.285 189.792c-.005.001-.003.036.004.104.01.068.016.171.045.301.06.26.175.644.442 1.079.268.428.678.92 1.293 1.303a3.775 3.775 0 0 0 2.337.596l-.099-.123c-.162.489-.098 1.069.158 1.56.242.5.615.938 1.008 1.365.201.204.377.446.652.632.267.178.584.276.906.308.641.064 1.356-.154 1.804-.704l-.213-.055a4.248 4.248 0 0 0 1.884 2.887c.549.374 1.221.593 1.876.557.655-.025 1.258-.234 1.82-.454l-.153-.062a4.456 4.456 0 0 0 1.389 1.709c.57.427 1.32.665 1.987.481 1.328-.32 2.183-1.456 2.332-2.508l-.126.063a2.918 2.918 0 0 0 1.953.231 3.16 3.16 0 0 0 1.339-.643c.318-.262.503-.527.613-.71.101-.19.142-.294.135-.297-.029-.023-.175.436-.808.932a3.143 3.143 0 0 1-1.308.583 2.795 2.795 0 0 1-1.844-.25l-.108-.057-.019.12c-.152.981-.976 2.042-2.208 2.325-.605.16-1.264-.054-1.804-.457a4.257 4.257 0 0 1-1.305-1.622l-.048-.104-.106.041c-.553.214-1.136.411-1.741.432-.606.03-1.209-.164-1.732-.518a4.019 4.019 0 0 1-1.781-2.72l-.043-.267-.17.212c-.378.471-1.017.677-1.593.621a1.764 1.764 0 0 1-.803-.266c-.227-.147-.411-.386-.614-.592-.392-.419-.754-.841-.985-1.306-.242-.459-.301-.968-.163-1.411l.042-.136-.142.014a3.642 3.642 0 0 1-2.239-.536 4.036 4.036 0 0 1-1.283-1.231c-.54-.841-.54-1.441-.581-1.427z"/></g></g><g><path style="fill:#ffbe9d" d="m499.426 288.96-19.519-9.885-6.836 7.19s18.898 16.026 23.544 17.026c-.001 0 5.491-3.784 2.811-14.331z"/><path style="fill:#ffbe9d" d="m474.18 269.65-4.764-.935s-7.085 14.058-6.021 16.512c1.064 2.455 12.835 1.904 12.835 1.904l4.047-5.333s.396-1.123.409-5.873c.008-2.871-6.506-6.275-6.506-6.275z"/><path style="fill:#ffbe9d" d="M463.13 277.374s-1.293 2.976-.531 3.929c0 0-.998 2.934.797 3.925 0 0 7.205-1.753 7.433-3.429l.229-1.676s5.486-.087 3.505-2.749c0 0 1.524-2.357 0-3.043l-1.791-.382s2.263-1.831.824-2.553c-1.697-.851-4.063-1.61-4.063-1.61l-5.4.928-1.003 6.66z"/><path style="fill:#eb996e" d="M463.13 277.374c-.017-.005-.009-.167.02-.471l.152-1.328.654-4.887.017-.126.129-.023 5.392-.973.054-.01.053.017c1.105.357 2.253.77 3.427 1.286.304.152.561.225.906.464.162.121.301.309.362.53.04.22.02.439-.047.619-.277.722-.783 1.201-1.317 1.676l-.107-.448 1.791.379.034.007.019.01c.25.134.523.31.66.603.141.277.188.588.164.871-.045.571-.251 1.083-.496 1.567-.068.129-.135.25-.215.378l-.01-.297c.285.429.614.991.395 1.617-.24.598-.782.859-1.239 1.048-.961.358-1.918.448-2.866.49l.246-.218-.195 1.395c-.021.124-.021.209-.059.363a1.075 1.075 0 0 1-.184.393 2.354 2.354 0 0 1-.538.528c-.773.56-1.597.893-2.39 1.21-1.595.609-3.111 1.031-4.5 1.372l-.075.018-.066-.037c-.829-.468-1.125-1.392-1.141-2.122a5.87 5.87 0 0 1 .304-2.02l.024.135c-.233-.316-.249-.664-.252-.96a4.437 4.437 0 0 1 .091-.829 9 9 0 0 1 .358-1.247c.243-.658.422-.99.445-.98.026.011-.106.362-.301 1.029-.095.334-.206.748-.284 1.239-.055.468-.155 1.115.166 1.572l.045.064-.021.072a5.716 5.716 0 0 0-.233 1.908c.036.684.313 1.433.989 1.799l-.141-.019c1.361-.361 2.868-.806 4.424-1.42.769-.314 1.58-.66 2.264-1.168.167-.127.326-.268.429-.422.111-.148.121-.28.155-.544l.186-1.396.028-.208.218-.01c.886-.043 1.838-.144 2.685-.467.412-.162.819-.408.94-.745.132-.334-.072-.754-.325-1.129l-.102-.151.092-.146c.063-.101.129-.22.19-.336.226-.441.406-.914.44-1.361.038-.456-.146-.803-.517-.97l.052.017-1.79-.385-.503-.108.396-.34c.481-.412.971-.915 1.163-1.435.091-.265.056-.459-.143-.603-.183-.139-.54-.281-.802-.41a36.927 36.927 0 0 0-3.365-1.302l.106.008-5.408.882.146-.149-.817 4.882-.244 1.308c-.062.296-.101.449-.118.444z"/><path style="fill:#eb996e" d="M471.103 280.076c-.015.163-1.876-.008-4.121.229-2.262.205-3.921 1.038-3.991.911-.095-.113 1.571-1.213 3.934-1.429 2.336-.243 4.2.168 4.178.289zM463.807 277.731c-.061-.112 2.255-1.157 5.337-1.25 3.082-.117 5.463.77 5.41.885-.038.157-2.411-.48-5.392-.364-2.981.086-5.306.883-5.355.729zM464.735 274.074c-.064-.113 1.733-.995 4.151-1.027 2.418-.053 4.245.764 4.185.879-.046.152-1.868-.413-4.176-.359-2.307.029-4.108.657-4.16.507z"/><g><path style="fill:#eb996e" d="M474.18 272.119c.066-.071.972.661 2.269 1.813l.139.124-.106.169a8.938 8.938 0 0 0-1.077 2.471 9.508 9.508 0 0 0-.192 3.879c.159.996.392 1.591.314 1.624-.052.026-.413-.527-.674-1.55-.261-1.014-.371-2.517.049-4.087a8.09 8.09 0 0 1 1.205-2.591l.033.292c-1.236-1.218-2.026-2.073-1.96-2.144z"/></g></g><g><path style="fill:#263238" d="m557.105 330.302-32.583 3.271 22.33 58.262 9.439 14.822 15.611 51.82 17.94-5.937c-.26-8.912-32.737-122.238-32.737-122.238z"/><path style="fill:#263238" d="M531.102 333.578s-27.726 31.589-30.059 36.171c-2.332 4.582-4.664 7.234-2.073 13.986 2.591 6.752 28.341 63.556 28.341 63.556s18.268-4.095 18.995-5.382c0 0-12.518-38.071-14.171-44.04-1.918-6.927-5.998-14.742-5.998-14.742s22.774-19.871 26.661-24.211c3.887-4.34 21.258-15.521 20.37-27.332-.579-7.704-2.045-9.902-2.045-9.902l-40.021 11.896z"/><path style="fill:#455a64" d="M530.461 334.11c.11.092-1.49 2.192-3.575 4.689-2.085 2.498-3.865 4.448-3.975 4.356-.11-.092 1.49-2.191 3.576-4.69 2.084-2.496 3.864-4.447 3.974-4.355zM525.989 382.934c-.044.143-1.406-.175-3.115-.244-1.708-.089-3.097.085-3.126-.063-.034-.133 1.37-.548 3.15-.457 1.783.072 3.141.635 3.091.764zM562.511 349.597c.023.027-.301.35-.908.909l-2.581 2.352a399.874 399.874 0 0 0-8.392 7.882c-3.234 3.127-6.15 5.975-8.296 7.999a137.128 137.128 0 0 1-2.564 2.375c-.615.551-.967.843-.992.817-.025-.026.279-.367.851-.963l2.447-2.492c2.08-2.091 4.953-4.98 8.192-8.111 3.238-3.129 6.264-5.867 8.51-7.784a95.21 95.21 0 0 1 2.693-2.23c.648-.512 1.017-.782 1.04-.754zM562.975 398.296c.123.061-.542 1.608-1.764 3.273-1.216 1.671-2.487 2.774-2.583 2.675-.107-.105.974-1.348 2.163-2.983 1.195-1.627 2.052-3.035 2.184-2.965z"/></g><g><path style="fill:#ff725e" d="M516.567 244.683s-1.216 2.167-3.447 7.862c-.769 1.962-5.682 18.592-5.682 18.592l-6.134 17.313s-2.046-1.193-2.931 1.121c-.885 2.313-2.811 14.33-2.811 14.33s2.88 1.528 6.505 1.146c3.625-.382 13.622-5.119 13.622-5.119l2.671-5.723 5.768-12.708.88-41.674c0 .001-6.891 2.404-8.441 4.86z"/><path style="fill:#ff725e" d="m573.164 298.029-.336-15.926-2.584-42.703-16.147-5.665-2.274-6.596-17.55 10.035-4.146-3.919-1.227 4.877-3.891 1.617-6.648 16.105 1.776 27.197s1.332 42.977 5.024 50.955c0 0 10.077-4.124 19.139-3.474 9.062.65 22.152-1.625 22.152-1.625s7.33-2.401 8.001.376"/><path style="fill:#ff725e" d="m573.128 300.845-.336-15.926-2.585-42.703-16.147-5.665-2.274-6.596-17.55 10.036-4.146-3.919-1.227 4.877-3.891 1.617-6.648 16.105 1.776 27.197s1.332 42.977 5.024 50.955c0 0 10.077-4.124 19.139-3.474 9.062.65 22.152-1.625 22.152-1.625s7.33-2.401 8.001.376"/><path style="fill:#fff" d="M556.967 270.737c-.004.074-.921.088-2.401.082l-5.778-.03-5.779.019c-1.48.004-2.397-.013-2.401-.087-.003-.07.908-.184 2.388-.281a89.922 89.922 0 0 1 5.792-.172c2.263.003 4.311.082 5.791.183 1.48.1 2.392.216 2.388.286zM556.931 273.552c-.004.074-.921.088-2.401.082l-5.778-.03-5.779.019c-1.48.003-2.397-.013-2.401-.087-.003-.07.908-.184 2.388-.281a90.657 90.657 0 0 1 5.792-.172c2.263.003 4.311.082 5.791.183 1.48.101 2.392.216 2.388.286zM556.895 276.368c-.004.074-.921.088-2.401.082l-5.778-.03-5.779.019c-1.48.004-2.397-.013-2.401-.087-.003-.07.908-.184 2.388-.281a89.922 89.922 0 0 1 5.792-.172c2.263.003 4.311.082 5.791.183 1.48.101 2.392.216 2.388.286zM556.859 279.184c-.004.074-.921.088-2.401.082l-5.778-.03-5.779.019c-1.48.003-2.397-.013-2.401-.087-.003-.07.908-.184 2.388-.281a90.657 90.657 0 0 1 5.792-.172c2.263.003 4.311.082 5.791.183 1.48.101 2.392.216 2.388.286z"/><path style="fill:#ff725e" d="M569.768 239.278s4.043 1.579 7.423 6.569 13.306 33.529 13.467 35.461l2.303 5.629s1.882 2.42 1.882 5.479v6.439s-9.252-2.101-14.214 1.074c0 0-2.557-2.145-2.006-5.358.277-1.616.927-2.799.927-2.799s-2.329.564-2.799-.64c-.26-.666 0-2.165 0-2.165l-9.281-14.334-2.74-13.077c.001 0-3.333-18.736 5.038-22.278z"/><path style="fill:#263238" d="M535.357 331.135c-.009.001-.027-.075-.054-.224l-.107-.663-.361-2.555-1.209-9.414c-.962-7.956-2.258-18.956-3.123-31.161-.42-6.104-.681-11.937-.5-17.25.206-5.309.772-10.057 1.305-14.03a288.468 288.468 0 0 1 1.459-9.381l.452-2.541.131-.659c.032-.148.053-.223.062-.222.009.001.005.079-.01.23l-.08.667-.355 2.556c-.314 2.218-.794 5.425-1.294 9.397-.486 3.971-1.012 8.717-1.191 14-.154 5.281.12 11.103.54 17.197.863 12.188 2.101 23.191 2.969 31.155l1.044 9.432.264 2.567.056.669c.01.151.011.229.002.23zM541.512 261.07c-.014-.017.353-.033 1.06-.051l3.098-.056 11.297-.108.214-.002v.217l.045 18.071v.12l-.091.077c-.496.422-1.035.853-1.589 1.278a33.03 33.03 0 0 1-3.017 2.078c-1.042.599-2.113 1.202-3.339 1.369-1.212.168-2.403-.101-3.458-.522-1.055-.435-2.013-1.005-2.891-1.623a25.21 25.21 0 0 1-1.272-.952c-.189-.145-.447-.364-.583-.603-.165-.233-.259-.485-.358-.731-.336-.999-.439-1.991-.507-2.942-.111-1.906-.037-3.675.065-5.284a95.25 95.25 0 0 1 .828-7.583c.133-.891.249-1.58.335-2.046.089-.466.146-.712.163-.707.018.004-.004.25-.057.722l-.238 2.057c-.197 1.786-.494 4.373-.661 7.578-.078 1.601-.13 3.362-.002 5.232.073.93.19 1.903.506 2.815.179.465.383.83.801 1.122.404.319.824.627 1.255.927.863.6 1.795 1.145 2.801 1.555 1.006.396 2.11.635 3.204.479 1.086-.146 2.129-.719 3.142-1.308a33.12 33.12 0 0 0 2.967-2.047 41.505 41.505 0 0 0 1.567-1.258l-.09.197.045-18.071.214.214-11.175-.108-3.141-.056-.837-.026c-.191-.007-.293-.016-.301-.024z"/><path style="fill:#ff725e" d="M551.822 227.139s-1.991.748-7.006 3.948c-4.913 3.135-10.544 6.087-10.544 6.087l1.085 8.193 18.633-11.247"/><path style="fill:#263238" d="M553.99 234.12c.009.014-.11.104-.344.264l-1.038.679-3.896 2.443-13.222 8.082-.337.206-.052-.393-.444-3.333-.638-4.86-.023-.177.158-.083c5.104-2.676 9.413-5.297 12.496-7.199 1.559-.922 2.839-1.606 3.741-2.035.9-.432 1.421-.607 1.432-.575.006.015-.115.077-.345.198l-1.005.537a74.81 74.81 0 0 0-3.65 2.159c-3.021 1.971-7.326 4.665-12.431 7.368l.135-.26.648 4.859.439 3.334-.389-.187 13.311-7.934 3.977-2.309 1.085-.602c.248-.134.383-.196.392-.182z"/><path style="fill:#ff725e" d="m530.127 233.255 4.145 3.919-1.352 8.979-4.021-7.707"/><path style="fill:#263238" d="M528.899 238.446c.053-.028.528.762 1.282 2.112s1.789 3.262 2.962 5.478l-.471.079.445-3.013.935-5.962.067.195a179.242 179.242 0 0 1-2.943-2.91c-.699-.713-1.082-1.137-1.049-1.171.032-.034.477.324 1.228.982.751.658 1.81 1.614 3.071 2.775l.084.078-.017.118-.862 5.972-.462 3.01-.118.767-.354-.688a292.212 292.212 0 0 1-2.799-5.563c-.676-1.39-1.052-2.231-.999-2.259zM567.204 241.987c.094.069-1.465 1.541-3.062 4.645a18.625 18.625 0 0 0-1.836 5.863c-.341 2.325-.214 4.978.434 7.702l-.008-.027a196.08 196.08 0 0 0 2.242 5.796c.673 1.659 1.362 3.244 2.14 4.74.757 1.512 1.455 2.984 2.119 4.384 1.324 2.803 2.525 5.319 3.629 7.382a63.327 63.327 0 0 0 2.792 4.782c.708 1.1 1.136 1.686 1.099 1.714-.014.011-.135-.125-.353-.394a21.32 21.32 0 0 1-.914-1.206c-.768-1.066-1.806-2.666-2.948-4.72-1.151-2.05-2.391-4.559-3.738-7.351a6220.8 6220.8 0 0 1-2.141-4.362c-.785-1.495-1.494-3.116-2.166-4.773a168.81 168.81 0 0 1-2.235-5.819l-.005-.014-.003-.013c-.649-2.786-.756-5.509-.375-7.883a18.349 18.349 0 0 1 1.982-5.948 19.812 19.812 0 0 1 2.319-3.42c.309-.37.575-.633.747-.816.173-.183.269-.272.281-.262zM517.398 254.684c.036-.003.127.613.26 1.732.132 1.119.301 2.74.486 4.746.374 4.011.807 9.557 1.246 15.685l1.093 15.695.321 4.757c.071 1.124.094 1.747.058 1.75-.036.003-.126-.613-.26-1.732-.132-1.119-.301-2.74-.486-4.746-.374-4.011-.807-9.558-1.246-15.688l-1.093-15.693-.321-4.757c-.071-1.122-.094-1.746-.058-1.749zM557.211 265.738c0 .144-3.66.26-8.173.26-4.515 0-8.174-.116-8.174-.26 0-.144 3.659-.26 8.174-.26 4.514 0 8.173.116 8.173.26zM505.976 297.328c-.145.04-.848-2.233-2.035-4.9-.604-1.331-1.13-2.552-1.75-3.232-.606-.705-1.222-.809-1.199-.892-.016-.059.705-.084 1.463.635.762.698 1.354 1.942 1.962 3.278 1.206 2.712 1.692 5.081 1.559 5.111z"/><path style="fill:#263238" d="M509.779 295.62c-.06.042-.468-.448-1.095-1.254-.631-.802-1.481-1.924-2.563-3.014-1.082-1.09-2.227-1.89-3.119-2.348-.89-.466-1.5-.64-1.48-.72.011-.06.666-.013 1.636.386.97.389 2.211 1.183 3.332 2.313 1.121 1.129 1.938 2.308 2.495 3.169.553.866.852 1.428.794 1.468zM590.999 291.325c-.039.161-2.64-.662-5.922-.436-3.286.187-5.763 1.329-5.822 1.173-.078-.098 2.383-1.496 5.789-1.693 3.404-.229 6.02.85 5.955.956zM587.308 285.871c0 .167-2.676-.043-5.74.978-3.078.982-5.115 2.728-5.213 2.594-.103-.071 1.854-2.064 5.052-3.089 3.187-1.058 5.943-.601 5.901-.483z"/><g style="opacity:.3"><path d="M541.217 280.298c.991 1.376 1.962 3.297 3.253 4.396 1.291 1.099 2.918 1.895 4.614 1.863 1.493-.028 2.914-.693 4.115-1.581 1.938-1.434 3.033-3.54 3.769-5.836.115-.172-2.769 2.096-4.354 3.105-1.585 1.008-2.721 1.374-4.599 1.369-2.464-.007-4.816-1.854-6.798-3.316"/></g><path style="opacity:.3" d="M534.272 238.09c-.159.139-.435 10.274-.435 10.274l18.522-13.26-17.002 10.263-1.085-7.277z"/></g></g><path style="fill:#ffbe9d" d="M456.671 266.307s.592 3.335 1.803 4.919c1.211 1.584 7.547 9.783 7.547 9.783s1.491 1.118 1.118-1.397c-.373-2.516-2.959-8.944-2.959-8.944s1.053-.916 2.078-.357l3.956-.761-6.175-7.008-7.368 3.765z"/><g><path style="fill:#263238" d="M391.301 137.51c-8.485 6.185-5.687 16.622-7.263 19.202-.629 1.031-1.409 2.073-1.405 3.232.004 1.273.962 2.405 1.056 3.674.131 1.763-1.376 3.27-2.319 4.851-1.289 2.161-1.555 4.753-.725 7.049.173.478 1.088.671.939 1.212-1.415 5.167 3.39 12.595 3.799 12.591 8.382-.076 14.956-9.775 23.313-10.451 1.906-.154 3.117-3.464 4.682-4.437 2.14-1.331 2.909-3.736 3.531-5.945l1.971-6.997c.427-1.517.856-3.041 1.003-4.594.204-2.152-.139-4.304-.229-6.458-.084-1.996.05-4.006-.239-5.985s-1.049-3.974-2.654-5.387"/><path style="fill:#263238" d="M399.323 128.515c-5.553 1.21-11.391 5.687-13.291 11.044-1.9 5.356-1.303 12.087-.893 17.755 1.711-.444 2.85.314 4.604.096 1.14-.142 2.03-1.041 2.711-1.967 1.603-2.178 2.571-4.747 3.512-7.283a1226.955 1226.955 0 0 0 6.562-18.12"/><path style="fill:#ffbe9d" d="M417.301 144.686c-.249-7.865-7.053-14.001-15.142-13.472-7.624.498-13.422 7.058-13.377 14.565.04 6.581.228 13.2.635 15.55 1.227 7.087 5.9 9.174 7.748 9.73.422.127 1.535.169 1.977.161a.048.048 0 0 1 .049.049l-.302 8.408c.126 5.457 3.924 9.735 9.478 9.645 5.573-.091 9.176-4.875 9.153-10.352l-.219-34.284z"/><path style="fill:#263238" d="M390.651 150.379c-.015.604.493 1.112 1.135 1.135.64.023 1.173-.446 1.188-1.051.015-.604-.493-1.113-1.134-1.136-.642-.023-1.174.448-1.189 1.052zM390.537 147.392c.114.149 1.083-.139 2.299.159 1.218.284 2 .99 2.158.905.077-.036-.019-.278-.358-.594-.333-.313-.937-.686-1.695-.867-.758-.181-1.445-.117-1.862.017-.426.134-.6.312-.542.38zM402.573 150.379c-.015.604.493 1.112 1.135 1.135.641.023 1.173-.446 1.188-1.051.015-.604-.493-1.113-1.134-1.136-.642-.023-1.174.448-1.189 1.052zM402.906 148.234c.187.047.904-.72 2.172-1.188 1.262-.479 2.367-.395 2.463-.548.049-.07-.172-.198-.658-.242-.477-.046-1.234.018-2.023.313-.789.296-1.375.734-1.678 1.072-.308.342-.366.574-.276.593zM398.627 156.667c.005-.07-.775-.189-2.038-.327-.32-.028-.623-.085-.679-.299-.078-.226.052-.567.203-.935l.919-2.408c1.275-3.428 2.194-6.245 2.054-6.293-.141-.048-1.288 2.691-2.563 6.119l-.879 2.422c-.117.359-.32.768-.152 1.236.089.233.325.4.531.451.206.058.385.059.543.065 1.269.046 2.057.039 2.061-.031z"/><path style="fill:#eb996e" d="M399.194 171.219s4.839.311 10.846-3.36c0 0-1.837 6.312-10.927 5.626l.081-2.266z"/><g><path style="fill:#eb996e" d="M399.189 159.624c.444-.593 1.229-.927 2.013-.857.544.049 1.096.297 1.431.726.335.43.411 1.046.116 1.465-.333.473-1.038.592-1.637.435-.6-.157-1.118-.535-1.611-.913-.136-.104-.276-.213-.362-.358-.086-.145-.106-.335-.003-.458"/></g><g><path style="fill:#263238" d="M402.706 143.559c.167.315 1.384-.014 2.862-.043 1.478-.058 2.708.198 2.861-.126.067-.154-.179-.438-.696-.693-.513-.255-1.304-.456-2.191-.431-.886.027-1.668.274-2.17.56-.506.285-.74.582-.666.733z"/></g><g><path style="fill:#263238" d="M390.786 143.339c.223.276 1.083-.028 2.12-.059 1.036-.067 1.917.156 2.116-.139.087-.144-.055-.421-.441-.68-.381-.257-1.016-.463-1.729-.43-.712.034-1.327.297-1.685.59-.362.294-.48.584-.381.718z"/></g><g><path style="fill:#263238" d="M399.063 127.875c-1.5 3.705.425 7.894 4.053 9.572 1.567.725 3.53 1.062 4.375 2.568.655 1.166.409 2.724 1.219 3.788.767 1.007 2.187 1.204 3.248 1.894 1.451.943 2.109 2.734 2.353 4.447.245 1.713.173 3.474.607 5.149.434 1.675 1.538 3.335 3.218 3.749.772-4.943 1.45-9.963.906-14.936-.544-4.974-2.431-9.963-6.1-13.364-3.667-3.403-9.305-4.895-13.879-2.867"/></g><g><path style="fill:#263238" d="M417.507 177a6.79 6.79 0 0 1-5.581-6.147c-.229-2.903-.031-6.061-.517-7.688-.866-2.897-2.286-2.45-2.497-5.509-.211-3.059 1.743-6.091 1.245-8.724s-1.334-1.967-2.678-6.088c-1.344-4.121-3.744-5.136-3.744-5.136l1.277-10.117-1.001-.627c6.019-.107 12.942 3.611 15.301 9.149 1.189 2.792 1.612 6.048 3.729 8.222 1.335 1.371 3.229 2.164 4.346 3.718 2.388 3.321.113 8.189 1.699 11.96.709 1.687 2.294 2.839 3.235 4.409 4.809 8.02.771 14.116.771 14.116L417.507 177z"/></g><g><path style="fill:#263238" d="M383.717 158.813c.641-1.094 1.305-2.332 1.008-3.565-.208-.861-.856-1.55-1.164-2.38-.667-1.793.128-3.232.14-3.268.346-1.056.852-2.06 1.123-3.138.217-.861.282-1.762.583-2.598.301-.836.911-1.637 1.777-1.834.825 3.913-.486 7.942-.472 11.941.003.877.065 1.784-.259 2.599-.324.814-1.184 1.5-2.034 1.286"/></g><g><path style="fill:#455a64" d="M426.134 177.434c-.019-.009.094-.194.213-.578.119-.381.245-.973.172-1.734-.063-.759-.323-1.672-.81-2.64-.482-.973-1.24-1.962-2.037-3.088-.784-1.119-1.653-2.443-1.931-4.084-.315-1.622-.164-3.376-.179-5.182-.011-.903-.065-1.832-.303-2.735-.23-.903-.683-1.764-1.374-2.445-.678-.696-1.521-1.258-2.29-1.957-.779-.687-1.412-1.617-1.701-2.655-.603-2.085-.324-4.183-.573-6.122a11.455 11.455 0 0 0-5.808-8.574c-1.408-.774-2.832-1.284-4.101-1.825-1.272-.531-2.401-1.104-3.288-1.764-.893-.648-1.553-1.354-1.987-1.998a5.305 5.305 0 0 1-.762-1.609c-.108-.394-.117-.609-.117-.609.017-.004.052.208.178.591.123.382.354.937.802 1.557.442.621 1.101 1.301 1.989 1.925.882.635 1.997 1.184 3.27 1.7 1.268.526 2.701 1.024 4.142 1.802a11.59 11.59 0 0 1 3.888 3.436 11.713 11.713 0 0 1 2.102 5.332c.254 1.986-.013 4.078.568 6.067.281.992.86 1.846 1.611 2.514.743.679 1.591 1.245 2.299 1.973.724.716 1.209 1.641 1.444 2.584.245.945.295 1.896.302 2.81.005 1.827-.152 3.561.145 5.137.256 1.586 1.086 2.879 1.857 4.004.781 1.128 1.535 2.136 2.012 3.137.481.993.729 1.931.774 2.709a4.236 4.236 0 0 1-.235 1.764c-.14.383-.272.557-.272.557z"/></g><g><path style="fill:#263238" d="M401.921 157.653c.066-.005.167.277.138.754a3.183 3.183 0 0 1-.671 1.721 3.183 3.183 0 0 1-1.511 1.064c-.456.142-.754.112-.765.046-.039-.144 1.074-.41 1.866-1.431.802-1.014.794-2.158.943-2.154z"/></g><g><path style="fill:#263238" d="M431.262 176.457c-.031-.062.958-.255 2.304-1.329a7.499 7.499 0 0 0 1.92-2.413 6.882 6.882 0 0 0 .64-3.974c-.188-1.496-.892-3.095-2.207-4.299-1.271-1.245-3.102-2.148-4.328-3.937-.6-.894-.882-2.003-.935-3.098-.053-1.103.082-2.205.184-3.311.107-1.104.177-2.226-.008-3.321-.191-1.093-.735-2.092-1.54-2.925-.786-.846-1.711-1.566-2.547-2.385a10.525 10.525 0 0 1-2.062-2.786c-1.051-2.02-1.611-4.119-2.385-5.995-.745-1.888-1.773-3.539-3.14-4.708-1.346-1.185-2.858-1.971-4.288-2.514-2.887-1.064-5.42-1.269-7.13-1.465l-1.986-.189c-.454-.046-.693-.077-.691-.095.001-.018.241-.021.698-.009.457.012 1.13.037 1.996.092 1.721.136 4.274.28 7.241 1.322 1.469.533 3.034 1.318 4.444 2.534 1.433 1.197 2.533 2.936 3.299 4.851.799 1.906 1.37 3.995 2.392 5.939a10.055 10.055 0 0 0 1.974 2.655c.81.792 1.741 1.513 2.568 2.402.411.444.789.93 1.08 1.469.294.54.465 1.132.587 1.717.198 1.184.116 2.351.006 3.461-.106 1.112-.241 2.194-.195 3.239.048 1.04.299 2.04.839 2.859 1.102 1.652 2.906 2.586 4.225 3.888a7.408 7.408 0 0 1 2.274 4.566 7.13 7.13 0 0 1-.746 4.151 7.505 7.505 0 0 1-2.053 2.439 6.935 6.935 0 0 1-1.756.981c-.214.085-.384.13-.498.158-.114.028-.173.039-.176.03z"/></g><g><path style="fill:#ff725e" d="m379.838 358.904 4.65 14.614s-13.293 9.634-12.697 12.419l28.66-7.998-6.311-23.068-14.302 4.033z"/><path style="fill:#e0e0e0" d="M393.003 369.803c.597-.003 1.154.514 1.182 1.11.028.596-.493 1.168-1.09 1.181-.597.014-1.285-.586-1.246-1.182.039-.596.687-1.233 1.27-1.103M400.64 378.536l-.609-2.236-27.514 7.867s-1.121.911-.726 1.77l28.849-7.401z"/><path style="fill:#263238" d="M383.982 373.502c.044.139.761.007 1.575.265.821.237 1.345.744 1.459.652.121-.063-.321-.842-1.312-1.137-.988-.303-1.788.1-1.722.22zM381.323 375.584c.006.145.678.213 1.319.673.654.44.953 1.047 1.09 1.002.138-.015.006-.861-.802-1.417-.801-.563-1.641-.392-1.607-.258zM380.62 379.658c.135-.006.135-.759-.438-1.425-.569-.67-1.313-.789-1.34-.655-.047.137.493.43.955.984.475.542.68 1.121.823 1.096zM383.292 370.054c.094.111.682-.261 1.488-.428.803-.183 1.492-.09 1.532-.23.053-.124-.693-.474-1.639-.264-.948.202-1.48.831-1.381.922z"/></g><g><path style="fill:#ff725e" d="m425.6 374.707 9.752 16.764s-16.913 6.584-17.055 9.729l32.926.159-.026-2.562-7.285-24.436-18.312.346z"/><path style="fill:#e0e0e0" d="M445.5 389.881c.639.164 1.091.872.954 1.518s-.854 1.111-1.496.958c-.642-.152-1.21-.986-1.001-1.613.209-.626 1.08-1.126 1.667-.824M451.223 401.358l-.026-2.562-31.628.713s-1.454.661-1.272 1.69l32.926.159z"/><path style="fill:#263238" d="M435.439 391.312c.008.161.812.22 1.611.724.812.483 1.23 1.172 1.377 1.106.148-.034-.107-.99-1.085-1.583-.972-.601-1.94-.394-1.903-.247zM431.707 393.037c-.034.156.666.418 1.222 1.089.576.654.726 1.386.885 1.377.151.023.247-.92-.461-1.74-.699-.828-1.645-.879-1.646-.726zM429.758 397.234c.146.032.357-.774-.07-1.647-.421-.876-1.184-1.211-1.249-1.076-.089.133.407.598.746 1.32.357.714.413 1.39.573 1.403zM433.33 387.822c.069.145.803-.088 1.712-.041.91.029 1.621.322 1.703.183.091-.118-.608-.701-1.68-.741-1.071-.049-1.816.474-1.735.599z"/></g><path style="fill:#ffbe9d" d="m448.43 244.446 8.241 21.862 7.508-3.296-6.063-20.145c0-.001-6.207-1.237-9.686 1.579zM336.944 208.597s-3.627-.584-5.366-1.87c-1.739-1.286-10.739-8.015-10.739-8.015s-1.238-1.597 1.496-1.236 9.751 3.054 9.751 3.054l.034-2.586.869-4.155 8.593 7.493-4.638 7.315z"/><path style="fill:#ffbe9d" d="m359.958 232.424-23.014-23.827 3.445-8.2 24.222 17.963c0 .001-1.659 10.242-4.653 14.064z"/><g><path style="fill:#eb996e" d="M464.037 262.541c.027-.024.46.415 1.219 1.23l3.178 3.481c.338.384.672.723 1.055 1.194.188.282.215.669.07.988-.131.324-.478.572-.813.617l-1.778.355-.462.092c-.168.076-.512-.04-.578-.075a1.38 1.38 0 0 0-.819.014 2.147 2.147 0 0 0-.41.174c-.131.065-.146.109-.168.199a.245.245 0 0 0 .018.125l.094.237.188.479.75 1.974c.493 1.348.991 2.747 1.411 4.22.199.726.397 1.451.453 2.217-.004.381.074.792-.272 1.229-.191.221-.529.255-.737.194a1.647 1.647 0 0 1-.571-.271l-.026-.018-.023-.03c-3.061-3.996-5.734-7.487-7.614-10.036-.853-1.389-1.11-2.653-1.325-3.492-.19-.85-.237-1.325-.208-1.33.033-.006.139.455.382 1.285.262.812.583 2.067 1.425 3.349l7.745 9.912-.049-.048c.232.174.569.256.627.133.13-.127.152-.52.129-.843-.051-.687-.241-1.397-.437-2.108-.413-1.447-.905-2.844-1.389-4.186l-.735-1.97-.184-.478-.092-.237a.727.727 0 0 1-.046-.372c.018-.25.248-.491.423-.559.161-.085.328-.157.504-.208.35-.103.743-.119 1.099 0 .227.081.2.093.346.066l.463-.086 1.783-.33c.487-.043.72-.612.484-.968-.296-.374-.679-.795-.99-1.164l-3.053-3.591c-.712-.856-1.094-1.34-1.067-1.364z"/></g><g><path style="fill:#ff725e" d="M393.347 180.038c-.54.18-5.823 3.724-7.348 6.66-.928 1.786-1.472 12.239-1.472 12.239s-3.24 6.66-2.16 11.339l1.08 4.68s.9 19.979 2.52 24.838c1.62 4.86 5.04 7.74 5.04 7.74s14.399-9.179 21.958-10.799c7.56-1.62 13.679-.36 13.679-.36s3.78-2.16 5.4-5.58c1.62-3.42 2.34-14.219 2.34-14.219l-2.88-38.697-13.438-3.659-5.11-5.52-8.25 6.019-4.142 10.208-1.538-9.088-3.701 3.66-1.978.539z"/><path style="fill:#ff725e" d="M395.585 243.962c-.016.009-.125-.167-.318-.512-.203-.34-.453-.867-.752-1.557-.579-1.385-1.219-3.489-1.541-6.163-.331-2.671-.336-5.882-.144-9.415.174-3.536.477-7.418.94-11.477.918-8.124 2.345-15.398 3.593-20.602a142.214 142.214 0 0 1 1.591-6.135l.495-1.65c.119-.376.189-.571.207-.566.017.005-.02.209-.106.594l-.401 1.675c-.348 1.454-.859 3.555-1.428 6.165a202.165 202.165 0 0 0-4.413 32.022c-.217 3.523-.25 6.702.031 9.349.272 2.648.849 4.736 1.363 6.13.526 1.392.93 2.117.883 2.142zM424.688 200.221c.15.449 19.772 38.195 19.772 38.195s1.02 5.7 2.967 6.749c1.947 1.049 12.284-2.912 12.284-2.912s-.572-6.983-2.22-10.128c-1.648-3.145-21.298-49.96-21.598-50.559-.299-.599-3.134-4.031-6.009-3.945-2.874.087-5.196 22.6-5.196 22.6zM402.22 193.331c-.004-.015.133-.057.397-.124.267-.057.655-.179 1.174-.249 1.03-.19 2.556-.324 4.462-.274 3.816.075 9.121 1.15 14.794 3.409l.249.099-.114.245a18.267 18.267 0 0 0-1.566 5.504l-.029.254-.024.211-.208.021c-4.62.463-9.021-.048-12.68-1.068a34.017 34.017 0 0 1-8.675-3.724l-.121-.073.065-.12 1.641-3.047c.39-.704.611-1.076.635-1.064.024.012-.15.409-.495 1.135l-1.519 3.11-.056-.193c2.083 1.181 5.005 2.589 8.644 3.535 3.622.969 7.959 1.448 12.508.992l-.232.232.03-.261a18.528 18.528 0 0 1 1.622-5.658l.136.344c-5.617-2.264-10.85-3.39-14.618-3.553-1.883-.094-3.395-.012-4.424.122-1.028.125-1.587.235-1.596.195zM384.542 196.418c-.011-.031.289-.176.854-.378.565-.201 1.4-.452 2.453-.67a21.824 21.824 0 0 1 3.754-.433c.354.001.717-.045 1.147.056.436.08.852.522.906.975.147.855-.201 1.701.116 2.255.026.059.08.095.114.145l.211.318-.292.115c-3.262 1.282-6.044 2.715-7.853 3.711l-.065.036-.064-.019c-1.695-.512-2.684-.844-2.667-.906s1.037.158 2.756.582l-.129.017c1.764-1.097 4.54-2.609 7.831-3.906l-.081.433c-.067-.081-.154-.157-.204-.255-.27-.463-.215-.933-.195-1.33.029-.398.086-.785.022-1.098-.053-.314-.24-.515-.532-.592-.292-.079-.663-.054-1.011-.058a24.964 24.964 0 0 0-3.698.315c-2.092.341-3.347.769-3.373.687z"/><path style="fill:#ff725e" d="M385.999 186.698s-2.985 5.166-3.852 8.474-8.658 22.814-8.658 22.814-3.224-1.809-3.844 1.629l-5.033-1.918-5.487 15.289s12.617 6.289 14.235 6.053c1.618-.237 11.759-3.445 11.759-3.445s1.484-3.471 2.194-6.504c.71-3.033 4.5-38.657 4.5-38.657l-5.814-3.735z"/><path style="fill:#fff" d="M382.861 211.799c.008.022-.201.147-.626.212-.421.068-1.067.057-1.796-.224-.708-.283-1.553-.842-1.976-1.847-.205-.49-.276-1.106-.056-1.681.19-.58.823-1.1 1.523-1.037.665.048 1.285.462 1.48 1.118.173.666-.183 1.28-.616 1.613-.444.357-1.019.445-1.488.37a2.271 2.271 0 0 1-1.187-.559 2.04 2.04 0 0 1-.64-1.709c.052-.435.19-.64.216-.629.041.012-.027.237-.013.635.016.385.149.994.678 1.424.498.417 1.47.644 2.134.093.323-.26.541-.709.424-1.103-.105-.384-.561-.71-1.018-.734-.458-.035-.861.275-1.017.701-.171.43-.133.911.027 1.323.322.842 1.044 1.387 1.673 1.683 1.321.603 2.275.244 2.278.351z"/><path style="fill:#263238" d="M389.512 245.992c-.007.012-.183-.085-.482-.321-.294-.242-.688-.65-1.107-1.24-.841-1.179-1.739-3.087-2.489-5.547a11.623 11.623 0 0 1-.453-1.986c-.089-.713-.121-1.427-.19-2.178a247.221 247.221 0 0 0-.44-4.778c-.34-3.362-.801-7.049-1.309-10.919-.539-3.886-.608-7.636-.494-11.024.126-3.391.451-6.438.92-8.964.458-2.528 1.055-4.531 1.588-5.865.239-.678.5-1.174.665-1.513.168-.339.263-.512.28-.504.053.025-.303.735-.754 2.087-.47 1.344-1.007 3.342-1.416 5.859-.419 2.514-.703 5.545-.803 8.916-.087 3.371-.004 7.087.531 10.942.507 3.871.956 7.567 1.27 10.94.159 1.686.288 3.29.393 4.792.059.747.084 1.486.158 2.161.079.684.228 1.319.408 1.932.697 2.447 1.532 4.349 2.304 5.537.762 1.203 1.454 1.632 1.42 1.673zM431.528 178.194c-.008.088-.782.032-2.005.163-1.22.128-2.892.517-4.548 1.385a13.425 13.425 0 0 0-3.732 2.955c-.812.925-1.22 1.584-1.295 1.54-.049-.025.247-.758 1.011-1.774.758-1.012 2.046-2.267 3.774-3.182 1.73-.908 3.498-1.257 4.763-1.292 1.271-.038 2.04.151 2.032.205zM395.488 179.87c-.048-.099.944-.617 2.229-1.604l.257-.197.103.322.695 2.171c.875 2.634 1.743 4.717 1.608 4.781-.124.062-1.216-1.947-2.102-4.616a31.224 31.224 0 0 1-.648-2.21l.36.125c-1.38.947-2.467 1.312-2.502 1.228zM373.133 229.559c-.132.012-.5-2.329-1.423-5.099-.458-1.383-.945-2.607-1.369-3.456-.414-.855-.757-1.336-.696-1.388.046-.044.505.372 1.018 1.21.522.83 1.076 2.065 1.542 3.472.94 2.819 1.085 5.255.928 5.261zM378.192 224.764c-.15.051-.76-1.727-2.103-3.567-1.324-1.854-2.819-2.993-2.724-3.119.061-.115 1.759.877 3.146 2.814 1.402 1.926 1.81 3.851 1.681 3.872z"/><path d="M383.622 199.141c-1.449 5.91-2.892 11.55-2.917 17.635-.025 6.085 1.333 12.785 4.313 18.09-.233-2.842-.478-5.998-.849-8.878-1.424-11.065-1.621-17.962-.547-26.847M369.773 219.586c1.191 1.249 2.392 2.511 3.287 3.987s1.472 3.203 1.293 4.92c-.025.237-.069.484-.218.67-.149.186-.436.281-.633.148-.153-.102-.206-.298-.249-.477a43.16 43.16 0 0 0-3.427-9.298M444.46 238.417c1.594-1.034 2.967-1.89 4.91-2.482 1.872-.57 5.167-.568 5.849-.465.275.042.56-.087.792-.242.232-.155.396-.443.323-.712-.1-.366-.543-.497-.919-.55-4.221-.597-8.172 1.222-10.955 4.451" style="opacity:.3"/><path style="fill:#263238" d="M456.896 235.764c-.019.183-2.954-.58-6.481.172-3.543.725-5.847 2.715-5.94 2.562-.039-.044.475-.592 1.481-1.266 1.001-.672 2.533-1.419 4.35-1.806a13.716 13.716 0 0 1 4.705-.156c1.196.179 1.899.436 1.885.494z"/><path style="fill:#fff" d="M395.44 214.446c.01.014-.101.108-.332.268-.24.14-.609.341-1.132.468a4.686 4.686 0 0 1-1.944.04 4.512 4.512 0 0 1-2.303-1.176c-.706-.686-1.184-1.729-1.242-2.879-.063-1.14.274-2.43 1.182-3.398.21-.246.498-.47.814-.62.315-.147.708-.254 1.117-.118.408.129.699.55.721.955.044.4-.109.821-.365 1.112-.527.589-1.231.837-1.942 1.005a5.216 5.216 0 0 1-2.207-.028c-1.458-.329-2.746-1.209-3.521-2.4-.766-1.186-1.013-2.698-.449-3.941a2.63 2.63 0 0 1 1.409-1.334 2.046 2.046 0 0 1 1.832.172c1.039.651 1.414 1.916 1.172 2.874-.214.978-.792 1.7-1.356 2.205-.577.505-1.157.813-1.63 1.043-.477.228-.858.374-1.117.47-.26.095-.4.135-.407.119-.018-.039.515-.276 1.43-.769.451-.254 1-.581 1.526-1.078.515-.494 1.026-1.189 1.191-2.061.194-.853-.168-1.904-1.034-2.433a1.603 1.603 0 0 0-1.443-.115 2.175 2.175 0 0 0-1.14 1.109c-.467 1.036-.254 2.41.442 3.461.698 1.066 1.879 1.872 3.206 2.17a4.71 4.71 0 0 0 1.987.029c.627-.138 1.283-.396 1.659-.828.385-.4.327-1.135-.131-1.268-.45-.145-1.057.184-1.417.598-.811.842-1.141 2.008-1.1 3.049.036 1.051.45 2.003 1.073 2.639 1.297 1.291 2.977 1.376 3.944 1.197 1.014-.198 1.481-.588 1.507-.537zM426.692 203.673c.045.074-1.35.439-3.215 2.075a11.747 11.747 0 0 0-2.693 3.55 11.004 11.004 0 0 0-.924 2.625c-.17.955-.379 2.046-.05 3.037.162.492.548.874 1.071.928.509.071 1.055-.168 1.388-.597.576-.933.793-2.258.687-3.498-.206-2.504-1.862-5.185-4.591-6.131-2.655-.982-6.151-.263-8.026 2.257a7.408 7.408 0 0 0-1.102 2.052c-.134.383-.228.731-.192 1.082.032.351.2.683.454.937.504.516 1.358.695 1.994.348.615-.337 1.055-1.132 1.374-1.852.616-1.51.572-3.225.1-4.751a9.224 9.224 0 0 0-2.479-3.986c-1.129-1.066-2.521-1.832-3.986-2.089-1.459-.279-2.966.012-4.198.712-1.234.69-2.206 1.794-2.602 3.066-.409 1.259-.229 2.677.482 3.682.701 1.01 2.018 1.457 3.117 1.203 1.145-.22 1.821-1.315 1.884-2.352a3.078 3.078 0 0 0-1.204-2.622c-.746-.613-1.687-.828-2.537-.819-1.737.039-3.115.879-3.962 1.735-.852.882-1.234 1.795-1.55 2.361l-.352.657c-.083.146-.13.219-.138.215s.023-.085.09-.239l.306-.679c.287-.581.636-1.515 1.499-2.456.856-.908 2.266-1.814 4.102-1.886.899-.024 1.922.19 2.748.85a3.422 3.422 0 0 1 1.367 2.903 3.252 3.252 0 0 1-.589 1.691 2.649 2.649 0 0 1-1.57 1.031c-1.258.301-2.741-.193-3.559-1.342-.81-1.135-1.007-2.682-.569-4.071.428-1.402 1.481-2.601 2.803-3.348 1.317-.758 2.948-1.079 4.522-.784 1.576.272 3.054 1.084 4.249 2.207a9.717 9.717 0 0 1 2.625 4.206c.499 1.616.558 3.45-.115 5.102-.17.409-.381.798-.629 1.16-.234.351-.561.734-.986.953-.862.459-1.953.22-2.602-.444a2.06 2.06 0 0 1-.6-1.245c-.05-.471.085-.929.22-1.309a7.885 7.885 0 0 1 1.183-2.192c.999-1.326 2.467-2.236 4.006-2.617a7.878 7.878 0 0 1 4.588.219c1.44.506 2.639 1.498 3.456 2.672a7.885 7.885 0 0 1 1.402 3.875c.084 1.346-.097 2.657-.803 3.785-.417.526-1.102.824-1.754.728a1.635 1.635 0 0 1-.876-.402 1.927 1.927 0 0 1-.49-.784c-.192-.567-.208-1.144-.16-1.682a11.88 11.88 0 0 1 .233-1.551c.22-.994.58-1.891.987-2.685a11.746 11.746 0 0 1 2.819-3.572c.96-.809 1.815-1.293 2.414-1.563.294-.148.536-.22.692-.284.156-.055.238-.08.241-.072zM443.826 201.112s.013.218-.108.608c-.117.386-.376.952-.918 1.517a4.716 4.716 0 0 1-2.479 1.32c-1.098.215-2.457-.046-3.601-.874a6.022 6.022 0 0 1-2.419-3.79c-.321-1.63-.018-3.459.823-5.104.404-.822 1.032-1.66 2.009-2.064.482-.202 1.137-.185 1.597.175.469.355.683.936.68 1.483-.012 1.17-.906 2.016-1.754 2.564a7.887 7.887 0 0 1-2.939 1.168c-2.115.366-4.3-.076-6.005-1.178-.843-.552-1.594-1.27-2.065-2.146-.47-.856-.739-1.874-.478-2.844.254-.971 1.138-1.689 2.055-1.81.91-.149 1.844.101 2.505.674.658.574.999 1.383 1.09 2.157a4.062 4.062 0 0 1-.351 2.189c-.623 1.3-1.739 2.076-2.742 2.507-1.023.435-1.98.546-2.744.583-.769.032-1.363-.02-1.763-.062-.4-.045-.608-.087-.606-.103.002-.054.848.068 2.356-.037.747-.066 1.675-.206 2.639-.647.949-.435 1.98-1.198 2.525-2.394.532-1.148.46-2.868-.684-3.863-.556-.476-1.375-.687-2.146-.551a2.054 2.054 0 0 0-1.672 1.487c-.212.792.015 1.697.45 2.474.431.792 1.114 1.44 1.908 1.959 1.593 1.023 3.654 1.438 5.637 1.094a7.375 7.375 0 0 0 2.742-1.086c.808-.511 1.534-1.268 1.53-2.133.006-.426-.165-.848-.472-1.079-.316-.242-.732-.264-1.118-.113-.788.321-1.378 1.044-1.758 1.819-.809 1.553-1.108 3.279-.825 4.804a5.668 5.668 0 0 0 2.21 3.571c1.058.793 2.308 1.058 3.336.885a4.583 4.583 0 0 0 2.386-1.177c1.08-1.068 1.099-2.022 1.169-1.983z"/><path d="M420.497 192.408c.761 5.039 1.537 10.133 3.456 14.854 1.918 4.721 5.118 9.107 9.645 11.448a462.266 462.266 0 0 0-12.52-26.025" style="opacity:.3"/><path style="fill:#263238" d="M434.384 219.615c-.032.016-.258-.359-.639-1.049l-1.567-2.945a700.402 700.402 0 0 1-4.992-9.802 694.754 694.754 0 0 1-4.856-9.872l-1.419-3.019c-.325-.718-.489-1.123-.457-1.14.032-.016.257.357.637 1.047l1.566 2.944a701.449 701.449 0 0 1 4.994 9.807 700.433 700.433 0 0 1 4.857 9.874l1.418 3.019c.326.716.49 1.12.458 1.136zM418.314 174.639c.009.015-.238.181-.714.482-.465.318-1.161.775-1.984 1.462-.831.678-1.768 1.597-2.887 2.65-1.114 1.056-2.492 2.18-4.189 3.149l-.158.09-.089-.161c-1.212-2.195-2.329-4.794-3.779-7.487l.397-.022c-2.442 6.387-6.061 13.81-7.857 22.389-1.268 6.015-1.636 11.906-1.301 17.22.352 5.318 1.324 10.043 2.383 13.93 1.04 3.9 2.243 6.945 3.018 9.065l.971 2.413.241.633c.052.144.074.219.066.223 0 0-2.369-4.446-4.651-12.235-1.109-3.893-2.126-8.641-2.507-13.998-.365-5.353-.008-11.298 1.27-17.36.932-4.307 2.249-8.367 3.731-12.094l4.227-10.351.178-.437.219.415c1.444 2.733 2.534 5.335 3.708 7.525l-.247-.071c3.38-1.862 5.379-4.368 7.129-5.639 1.718-1.325 2.825-1.791 2.825-1.791z"/></g><g><path style="fill:#263238" d="m391.007 247.534 6.179 22.763 6.748 46.507s15.553 47.642 17.14 51.697c1.587 4.055 7.765 16.936 7.765 16.936l18.588-6.196s-5.112-21.683-7.404-29.792c-2.292-8.109-6.699-16.571-6.699-16.571l-6.17-39.135-.353-34.728-1.41-23.42c0-.001-16.589-4.654-34.384 11.939z"/><path style="fill:#263238" d="M400.413 363.458s-6.771-21.944-9.406-32.344c-2.635-10.401-5.082-17.42-5.082-17.42s2.453-2.107 4.216-3.494c1.763-1.387 22.911-15.4 22.911-15.4s22.856-11.761 24.68-23.798c1.763-11.635.176-15.759-4.76-23.657s-6.327-10.97-6.327-10.97l-1.253-.78-19.215 13.16-1.449 13.714s-30.225 24.206-34.279 29.495c-4.055 5.289-10.361 14.111-7.188 24.512s14.842 51.874 14.842 51.874l22.31-4.892z"/><path style="fill:#455a64" d="M385.7 314.254c-.103.126-1.647-1.607-4.297-2.237-2.637-.684-4.813.124-4.845-.035-.023-.054.478-.342 1.381-.544.898-.206 2.209-.266 3.589.074 1.379.346 2.509 1.013 3.206 1.615.704.601 1.011 1.089.966 1.127zM429.78 281.645c.084.117-9.674 7.317-21.792 16.081-12.123 8.767-22.015 15.777-22.1 15.66-.084-.116 9.672-7.315 21.794-16.082 12.119-8.764 22.013-15.776 22.098-15.659zM406.432 262.116c.088.114-2.178 1.999-5.06 4.21-2.883 2.211-5.29 3.911-5.378 3.797-.087-.114 2.178-1.999 5.061-4.21 2.882-2.211 5.29-3.911 5.377-3.797zM402.957 262.869c-.058.032-.677-.92-1.543-2.538a58.565 58.565 0 0 1-2.958-6.529 58.631 58.631 0 0 1-2.146-6.841c-.433-1.784-.605-2.906-.541-2.92.076-.017.375 1.075.896 2.824a95.937 95.937 0 0 0 2.277 6.751 96.407 96.407 0 0 0 2.801 6.55c.777 1.652 1.282 2.665 1.214 2.703z"/></g></g><g><path style="fill:#ff725e" d="m291.752 326.612 4.65 14.614s-13.293 9.634-12.697 12.419l28.66-7.998-6.311-23.068-14.302 4.033z"/><path style="fill:#e0e0e0" d="M304.918 337.512c.597-.003 1.154.514 1.182 1.11.028.596-.493 1.168-1.09 1.181-.597.014-1.285-.586-1.246-1.182.039-.596.687-1.233 1.27-1.103M312.554 346.245l-.609-2.236-27.514 7.867s-1.121.911-.726 1.77l28.849-7.401z"/><path style="fill:#263238" d="M295.897 341.21c.044.139.761.007 1.575.265.821.237 1.345.744 1.458.652.121-.063-.321-.842-1.312-1.137-.988-.303-1.787.101-1.721.22zM293.238 343.293c.006.144.678.213 1.319.673.654.44.952 1.047 1.09 1.002.138-.015.006-.861-.801-1.417-.803-.564-1.642-.393-1.608-.258zM292.535 347.367c.135-.006.135-.759-.438-1.425-.569-.67-1.313-.789-1.34-.655-.047.137.493.43.955.984.475.542.68 1.121.823 1.096zM295.207 337.762c.094.111.682-.261 1.488-.428.803-.183 1.492-.09 1.532-.23.053-.124-.693-.474-1.639-.264-.948.203-1.481.832-1.381.922z"/><g><path style="fill:#ff725e" d="m234.202 300.203 9.752 16.764s-16.913 6.584-17.055 9.729l32.925.159-.026-2.562-7.285-24.436-18.311.346z"/><path style="fill:#e0e0e0" d="M254.102 315.378c.639.164 1.091.872.954 1.518s-.854 1.111-1.496.958c-.642-.152-1.21-.986-1.001-1.612.209-.626 1.08-1.126 1.667-.824M259.825 326.855l-.026-2.562-31.628.713s-1.454.661-1.272 1.69l32.926.159z"/><path style="fill:#263238" d="M244.041 316.809c.008.161.812.22 1.611.724.812.483 1.231 1.172 1.377 1.106.148-.034-.107-.99-1.085-1.583-.972-.602-1.94-.394-1.903-.247zM240.309 318.533c-.034.156.666.418 1.222 1.089.576.654.726 1.386.885 1.377.151.023.247-.92-.46-1.74-.7-.827-1.646-.879-1.647-.726zM238.36 322.731c.146.032.357-.774-.07-1.647-.421-.876-1.183-1.211-1.249-1.076-.089.134.407.598.746 1.32.357.713.414 1.39.573 1.403zM241.932 313.318c.069.145.803-.088 1.712-.041.91.029 1.621.322 1.703.183.091-.118-.608-.701-1.68-.741-1.071-.049-1.816.475-1.735.599z"/></g><g><path style="fill:#996964" d="m248.912 53.134.791-.053c8.563-.074 13.409 7.157 13.246 15.718l2.131 34.531-14.888 14.017-5.705-7.068-.394-7.388-.331-6.196s-8.285-.725-8.936-8.916c-.314-3.955-.299-12.152-.199-19.571.108-7.981 6.323-14.54 14.285-15.074z"/><path style="fill:#784d48" d="M243.753 96.689s5.209.074 10.484-3.755c0 0-2.13 6.069-10.36 5.88l-.124-2.125z"/><path style="fill:#263238" d="M236.737 74.001c.019.62.561 1.114 1.208 1.105.646-.009 1.156-.517 1.136-1.136-.02-.62-.56-1.115-1.207-1.106-.648.009-1.157.518-1.137 1.137zM236.507 71.673c.155.143.998-.573 2.258-.654 1.257-.099 2.226.487 2.352.324.063-.073-.104-.339-.526-.605-.416-.265-1.111-.504-1.896-.448-.784.057-1.425.39-1.785.711-.366.323-.479.608-.403.672zM248.31 73.181c.02.62.561 1.114 1.208 1.105.646-.009 1.156-.517 1.136-1.137-.02-.62-.561-1.115-1.207-1.106-.648.009-1.157.518-1.137 1.138zM248.606 70.515c.139.159 1.056-.461 2.316-.405 1.26.038 2.16.725 2.303.576.07-.066-.065-.348-.458-.658-.385-.309-1.049-.621-1.836-.651-.786-.028-1.459.234-1.852.514-.397.282-.541.553-.473.624zM245.113 81.149c.001-.072-.791-.155-2.071-.232-.324-.012-.633-.055-.702-.271-.091-.227.02-.583.151-.968l.787-2.513c1.087-3.576 1.851-6.508 1.707-6.551-.145-.042-1.143 2.822-2.23 6.398l-.746 2.525c-.097.374-.279.803-.082 1.274.103.235.35.393.561.435.21.049.392.04.551.039 1.281-.017 2.074-.065 2.074-.136zM248.518 66.039c.147.334 1.394.087 2.884.166 1.492.049 2.713.402 2.888.082.077-.153-.152-.461-.656-.761-.5-.299-1.283-.563-2.177-.602-.894-.037-1.697.158-2.22.413-.529.255-.784.543-.719.702zM236.597 68.153c.241.271 1.089-.084 2.132-.168 1.04-.12 1.94.063 2.123-.25.079-.151-.079-.428-.483-.673-.399-.244-1.05-.422-1.766-.353-.715.071-1.32.372-1.663.689-.348.319-.45.622-.343.755z"/><path style="fill:#996964" d="M262.687 74.914c.136-.07 5.521-2.044 5.718 3.573.197 5.617-5.483 4.656-5.498 4.495-.015-.161-.22-8.068-.22-8.068z"/><path style="fill:#784d48" d="M264.548 80.794c.024-.019.1.065.268.135a.98.98 0 0 0 .732-.011c.586-.239 1.052-1.198 1.044-2.211a3.241 3.241 0 0 0-.323-1.391c-.186-.405-.462-.683-.762-.725a.498.498 0 0 0-.568.289c-.07.16-.03.271-.06.281-.015.015-.124-.09-.087-.324a.631.631 0 0 1 .208-.36.741.741 0 0 1 .536-.162c.434.015.838.4 1.053.835.239.437.39.979.394 1.554.004 1.133-.538 2.213-1.342 2.476-.391.117-.725.009-.9-.117-.178-.134-.212-.259-.193-.269z"/><path style="fill:#263238" d="M233.076 58.701c.173-1.102.908-2.194 1.997-2.432-.533-1.016-.269-2.385.604-3.13.872-.745 2.265-.792 3.186-.107-.184-1.705 1.823-3.223 3.413-2.582-.127-.987.501-2.021 1.436-2.362.935-.342 2.081.042 2.621.878 1.037-2.09 4.3-2.577 5.903-.882 2.183-.95 5.022.083 6.084 2.213 1.837-.026 3.629 1.188 4.286 2.904a3.457 3.457 0 0 1 2.907 1.737 3.458 3.458 0 0 1-.048 3.386c1.465.588 1.909 2.813.783 3.918a2.522 2.522 0 0 1 1.526 2.152 2.523 2.523 0 0 1-1.292 2.299c.832.046 1.235 1.114 1.043 1.925-.192.811-.746 1.489-1.021 2.275-.227.648-.257 1.349-.444 2.009a4.45 4.45 0 0 1-2.465 2.819l.158.159c.195.708-.773 1.27-1.468 1.03-.694-.239-1.126-.911-1.558-1.506-.494-.681-1.066-1.334-1.324-2.135-.258-.801-.098-1.819.622-2.256-.99-.255-1.681-1.2-1.932-2.19-.251-.991-.141-2.033-.029-3.048l.493-4.497c-2.035.087-4.074-1.064-5.051-2.851-1.376 1.218-3.849.786-4.73-.827-.514 2.052-2.856 3.448-4.906 2.924.3 1.145-1.709 2.363-2.829 2.746s-2.605-.326-2.605-.326-1.884 1.293-2.987.937c-1.083-.35-2.594-1.605-1.976-2.761-.001-.001-.57-1.317-.397-2.419z"/><path style="fill:#455a64" d="M266.53 62.206c-.056-.016-.062.393-.507.762-.217.174-.548.309-.906.227-.353-.074-.727-.367-.837-.776l-.09-.331-.244.247a1.519 1.519 0 0 1-1.523.347c-.616-.214-1-.87-.972-1.429l.017-.333-.295.147a1.491 1.491 0 0 1-1.135.069 1.488 1.488 0 0 1-.729-.559c-.304-.449-.286-.807-.341-.801-.029-.012-.145.366.14.924.143.268.408.571.814.74.398.168.925.203 1.421-.022l-.279-.185a1.87 1.87 0 0 0 1.222 1.849 1.884 1.884 0 0 0 1.946-.472l-.333-.084c.183.583.69.924 1.158.997.486.079.901-.141 1.13-.375.477-.505.373-.964.343-.942zM267.739 67.518c-.03-.031-.19.171-.584.276-.363.104-1.075.065-1.449-.503l-.123-.188-.144.176a1.505 1.505 0 0 1-1.401.497c-.546-.093-1.067-.614-1.137-1.238l-.041-.368-.298.224a.988.988 0 0 1-.249.135c-.416.156-.919.023-1.158-.302a1.079 1.079 0 0 1-.122-1.113l.185-.362-.392.088a1.784 1.784 0 0 1-1.314-.228 1.776 1.776 0 0 1-.689-.813c-.237-.575-.14-.966-.195-.969-.022-.016-.214.376-.017 1.048.101.325.324.713.727.996.396.28.963.451 1.566.337l-.207-.274a1.453 1.453 0 0 0 .13 1.54c.355.482 1.047.666 1.631.448.132-.048.256-.118.361-.198l-.339-.144c.102.83.765 1.465 1.488 1.579a1.823 1.823 0 0 0 1.729-.682l-.267-.012c.254.362.633.533.955.584.327.057.615-.001.828-.084.434-.179.546-.443.526-.45z"/><g><path style="fill:#455a64" d="M243 50.239c.026.026.165-.235.607-.407a1.19 1.19 0 0 1 .822-.009c.302.108.616.377.736.764l.097.315.149-.299a2.054 2.054 0 0 1 1.661-1.086c.755-.064 1.639.441 1.946 1.283l.132.362.214-.322c.391-.588 1.104-1.009 1.875-1.062.768-.068 1.573.319 2.063.979.201.265.34.569.415.882l.054.224.218-.07c1.064-.343 2.289.187 2.757 1.069.492.89.315 1.993-.219 2.646l-.2.245.312.033a2.65 2.65 0 0 1 1.754.959c.389.475.536 1.017.569 1.454.055.896-.257 1.363-.202 1.378.013.007.096-.097.195-.325.096-.227.207-.587.201-1.062a2.732 2.732 0 0 0-.546-1.615 2.904 2.904 0 0 0-1.931-1.129l.112.278c.636-.748.866-1.992.303-3.053-.558-1.058-1.953-1.681-3.236-1.28l.271.154a2.795 2.795 0 0 0-.488-1.043c-.566-.768-1.52-1.224-2.431-1.139-.903.071-1.716.562-2.17 1.261l.345.04c-.394-1.019-1.435-1.577-2.338-1.485-.91.089-1.592.683-1.874 1.308l.246.016a1.424 1.424 0 0 0-.923-.879 1.307 1.307 0 0 0-.942.074 1.243 1.243 0 0 0-.459.361c-.082.108-.104.174-.095.18z"/></g><g><path style="fill:#263238" d="M248.879 81.771c-.206.002-.116 1.369-1.222 2.419-1.103 1.052-2.571.997-2.569 1.188-.013.087.343.244.959.219a3.42 3.42 0 0 0 2.15-.914c.674-.643.928-1.458.937-2.022.013-.575-.162-.904-.255-.89z"/></g></g><g><path style="fill:#996964" d="m331.742 199.754 2.219-10.607s-7.816-5.384-12.317-5.385l-9.044 6.511s1.94 9.401 4.282 10.372c.568.235 1.471 1.379 3.518.853 4.361-1.118 11.342-1.744 11.342-1.744z"/><path style="fill:#996964" d="M312.671 190.242s-10.097-16.255-11.274-21.333c0 0-.412-5.265 11.202-2.51l9.044 17.363"/><path style="fill:#784d48" d="M330.656 199.502c-.02.009-.166-.253-.219-.79-.058-.535.04-1.327.322-2.251.244-.913.712-2.036.434-3.245-.132-.582-.5-1.189-1.081-1.406-.569-.225-1.397-.044-1.631.54l-.175.437-.263-.393a1.664 1.664 0 0 0-1.534-.696c-.594.066-1.169.537-1.345 1.141l-.304 1.044-.205-1.089-.018-.096c-.17-.806-1.314-1.197-2.033-.849-.783.339-1.273 1.147-1.521 1.924l-.098.307-.265-.176c-.494-.327-1.161-.262-1.672.005-.529.26-.894.707-1.116 1.203-.446.999-.436 2.03-.473 2.854.001 1.686-.379 2.65-.438 2.618-.031-.01.038-.245.091-.689.06-.444.074-1.096.053-1.931-.001-.826-.066-1.886.397-3.017.227-.555.657-1.118 1.279-1.436.594-.326 1.442-.454 2.142-.01l-.363.131c.266-.86.787-1.803 1.78-2.252.495-.227 1.094-.224 1.608-.025.511.191 1.009.62 1.137 1.235l.026.148-.509-.046a2.158 2.158 0 0 1 1.784-1.506 2.158 2.158 0 0 1 2.009.931l-.438.043c.188-.451.607-.741 1.02-.852a2.001 2.001 0 0 1 1.238.065c.796.325 1.188 1.082 1.33 1.749.275 1.404-.278 2.544-.551 3.434-.318.898-.456 1.636-.453 2.15.003.512.09.786.055.796z"/><path style="fill:#784d48" d="M320.4 201.499c-.148-.035.175-1.804.285-4.004.122-2.2-.014-3.994.137-4.012.133-.023.507 1.783.383 4.04-.114 2.255-.675 4.012-.805 3.976zM324.793 192.776c.131-.028.566 1.802.427 4.097-.127 2.297-.769 4.064-.896 4.021-.148-.04.255-1.821.376-4.051.136-2.229-.059-4.045.093-4.067zM328.248 192.206c.133-.02.447 1.75.191 3.932-.245 2.184-.951 3.837-1.076 3.787-.145-.048.322-1.727.559-3.847.249-2.116.174-3.858.326-3.872z"/><g><path style="fill:#784d48" d="M329.605 191.44c-.051.037-.344-.292-.8-.887l.193.067c-.851.352-2.293.686-3.895.476-1.425-.18-2.645-.703-3.417-1.222-.782-.514-1.156-.961-1.115-1.005.083-.134 1.862 1.393 4.596 1.71 1.509.197 2.868-.043 3.724-.274l.133-.036.061.103c.375.636.571 1.031.52 1.068z"/></g></g><g><path style="fill:#263238" d="M304.656 300.35c-3.488-18.401-12.779-34-13.017-35.25-.238-1.25-3.448-17.157-3.448-17.157s3.902-41.13 3.02-48.298c-.882-7.168-59.097-6.059-59.097-6.059s-16.505 53.652-15.425 63.309c1.08 9.657 21.222 57.076 21.222 57.076l18.782-.143-15.981-57.796 16.219-42.965s3.68 28.425 5.578 35.685c2.151 8.227 7.945 29.157 11.347 35.494 3.402 6.337 7.405 11.148 8.564 18.327s9.659 36.546 9.659 36.546l18.279-3.852c.003-.002-2.039-15.597-5.702-34.917z"/><path style="fill:#455a64" d="M258.728 226.214c-.067.012-.35-1.26-.659-3.337-.313-2.076-.66-4.955-.978-8.14a249.392 249.392 0 0 1-.686-8.168c-.137-2.093-.177-3.392-.106-3.397.072-.006.242 1.281.473 3.365l.838 8.149.825 8.145c.215 2.084.368 3.37.293 3.383zM288.035 207.447c.001.056-.737.138-1.914-.052-1.173-.185-2.771-.713-4.294-1.727-1.519-1.02-2.618-2.296-3.237-3.309-.625-1.015-.832-1.728-.779-1.749.079-.036.402.613 1.084 1.542a13.138 13.138 0 0 0 3.222 3.083 13.166 13.166 0 0 0 4.08 1.799c1.117.276 1.841.326 1.838.413zM241.945 199.261c.045.039-.337.583-1.149 1.277-.807.693-2.082 1.492-3.641 1.995-1.562.498-3.063.588-4.123.493-1.064-.092-1.691-.313-1.677-.371.011-.167 2.627.376 5.641-.618 3.029-.943 4.843-2.906 4.949-2.776zM240.571 255.254c-.042.15-1.691-.257-3.756-.247-2.066-.009-3.715.397-3.756.247-.049-.123 1.6-.776 3.756-.768 2.156-.008 3.805.645 3.756.768z"/></g><g><path style="fill:#ff725e" d="M291.169 184.299c-1.404-7.809-2.758-13.445-2.758-13.445l-3.463-21.306-2.331-46.369-17.599-5.737s-8.419 6.486-13.51 6.78c-5.091.294-7.704-2.543-7.704-2.543l-10.956 6.352-4.305 9.789 3.942 46.772s1.51 27.681-1.081 30.504c-.015.016-.012.036.007.047.704.427 14.937 2.371 24.548 3.425 7.143.783 19.64.029 26.061-.453 2.71-.204 6.716 2.404 10.266 3.521l-.644-13.184a32.17 32.17 0 0 0-.473-4.153z"/><path style="fill:#ff725e" d="M304.725 149.538c-.226-1.075-10.862-33.8-11.88-35.75-3.062-5.861-10.227-10.61-10.227-10.61-9.314 3.558-5.792 23.887-5.792 23.887l7.382 20.615 7.337 17.717 18.05 23.994c5.563-3.289 13.22-6.878 13.22-6.878l-18.09-32.975z"/><path style="fill:#996964" d="m198.513 141.554-7.91-4.647-11.72-.428s-.471 1.517 1.881 2.442c2.352.925 6.632 1.247 6.632 1.247s-1.706-.223 1.831 2.768c3.537 2.991 8.172 2.913 8.172 2.913l1.114-4.295z"/><path style="fill:#996964" d="M179.846 137.158s-3.914.555-4.929 1.506c-1.015.95-.55 1.63-.248 1.931.302.301 2.307.139 2.867-.168s3.707-.627 3.707-.627-3.682 1.442-4.055 2.579c-.374 1.137 1.227 1.851 1.227 1.851s-.963 1.667-.368 2.526c.595.859 1.318.931 1.318.931s-.983 1.148-.133 2.012c.85.864 4.147.21 4.147.21s1.894.724 2.75.363c.856-.36 11.177-.826 11.177-.826l.947-6.876-15.602-4.76-2.805-.652z"/><path style="fill:#784d48" d="M182.268 143.105c-.138-.056-.031-.615-.015-1.291.025-.676-.051-1.239.09-1.288.129-.053.457.519.431 1.303-.022.784-.38 1.335-.506 1.276zM178.415 144.229c-.003-.078.331-.121.818-.221.238-.056.522-.137.76-.303.241-.165.462-.428.503-.717.048-.286-.106-.573-.316-.773-.207-.202-.468-.315-.701-.397-.471-.153-.801-.226-.79-.304.009-.063.329-.126.877-.053.269.043.617.137.93.395.301.241.593.688.514 1.208-.082.51-.43.854-.763 1.049a2.11 2.11 0 0 1-.967.261c-.549.011-.863-.08-.865-.145z"/><path style="fill:#784d48" d="M178.415 144.229c-.001-.063.48-.184 1.302-.204.408-.006.926.045 1.451.271.265.116.508.254.771.452.27.231.441.515.572.828.12.313.21.658.108 1.036-.111.367-.382.606-.63.758-.517.3-1.003.383-1.416.441-.832.09-1.331-.076-1.32-.138.007-.08.506-.052 1.257-.225.366-.092.83-.225 1.218-.481.191-.13.35-.301.4-.495.051-.184 0-.453-.1-.701-.1-.247-.25-.486-.417-.632a3.656 3.656 0 0 0-.643-.406 3.682 3.682 0 0 0-1.27-.34c-.775-.073-1.282-.084-1.283-.164z"/><path style="fill:#784d48" d="M180.953 150.144c.019-.062.377-.081.944-.357l.474-.215c.184-.082.373-.137.475-.23.191-.161.093-.412-.35-.663a8.075 8.075 0 0 0-2.234-.816c-.605-.118-1.001-.112-1.009-.191-.01-.062.385-.203 1.052-.174.675.039 1.547.231 2.471.742.109.07.214.143.318.229.105.082.23.227.284.373.151.288.016.732-.239.88-.237.168-.454.194-.615.254l-.502.157c-.632.206-1.097.094-1.069.011zM182.457 144.083c-.014.146-.474.217-1.021.29-.548.069-1.011.116-1.061-.021-.051-.132.381-.417.994-.495.613-.081 1.104.086 1.088.226zM185.887 148.882c-.151-.026.531-1.881-.216-4.019a6.006 6.006 0 0 0-.591-1.245l-.061-.098.03-.101c.211-.713.133-1.38.016-1.824-.117-.449-.254-.702-.202-.736.039-.029.27.17.485.635.212.456.38 1.207.172 2.054l-.032-.199c.265.383.504.84.675 1.344.395 1.146.371 2.271.204 3.03-.158.768-.425 1.182-.48 1.159zM192.245 146.573c-.004.062-.43.107-1.1-.046-.666-.149-1.56-.543-2.352-1.239-.79-.7-1.292-1.537-1.524-2.178-.236-.644-.246-1.072-.185-1.085.149-.051.562 1.583 2.054 2.872 1.464 1.321 3.138 1.522 3.107 1.676z"/><path style="fill:#784d48" d="M194.857 145.636c-.009.03-.257-.01-.693-.138a10.857 10.857 0 0 1-1.788-.733 13.175 13.175 0 0 1-4.84-4.235l.215.114-.681-.015c-2.722-.128-5.088-.912-6.656-1.773-.785-.454-1.279-1.057-1.474-1.528-.204-.476-.145-.776-.118-.771.044-.004.058.273.298.679.235.406.717.912 1.474 1.299 1.53.736 3.876 1.455 6.498 1.574l.659.015.14.003.076.111c1.389 2.046 3.203 3.418 4.58 4.214 1.385.806 2.337 1.103 2.31 1.184z"/><path style="fill:#ff725e" d="M228.433 111.398c-1.349 3.323-8.069 36.251-8.069 36.251l-21.851-8.62s-5.522 15.246-6.269 14.978c-.747-.267 29.434 13.922 34.95 11.846 4.841-1.822 5.7-9.762 5.7-9.762l10.91-54.412c.001-.001-12.485 2.607-15.371 9.719z"/><path style="fill:#263238" d="M284.358 189.585c.011.034-.591.246-1.691.599-.548.182-1.223.39-2.018.594-.793.208-1.691.471-2.703.681-2.01.477-4.435.914-7.145 1.271a81.06 81.06 0 0 1-8.869.591 80.849 80.849 0 0 1-8.879-.47c-2.715-.32-5.145-.724-7.162-1.173-1.014-.196-1.916-.447-2.712-.644a30.58 30.58 0 0 1-2.026-.566c-1.104-.338-1.709-.541-1.698-.575.01-.034.634.103 1.751.38.557.144 1.24.314 2.041.479.799.17 1.702.394 2.717.566 2.017.401 4.439.765 7.14 1.057 2.704.263 5.688.437 8.824.426a88.236 88.236 0 0 0 8.815-.547c2.696-.329 5.113-.726 7.124-1.155 1.012-.186 1.912-.423 2.709-.603a41.046 41.046 0 0 0 2.035-.507c1.115-.293 1.737-.439 1.747-.404zM273.892 123.636c.032-.017.353.531.908 1.538.543 1.013 1.29 2.5 2.152 4.365 1.732 3.727 3.898 8.972 6.207 14.792l5.91 14.904 1.841 4.495c.44 1.059.667 1.653.635 1.668-.033.015-.323-.55-.82-1.586a123.193 123.193 0 0 1-1.995-4.435c-1.633-3.768-3.748-9.031-6.055-14.854-2.309-5.819-4.417-11.078-6.06-14.834a177.391 177.391 0 0 0-1.997-4.424c-.497-1.032-.758-1.612-.726-1.629zM284.948 106.626c.017.091-.893.256-2.254.805-1.36.542-3.144 1.556-4.744 3.117-1.593 1.57-2.641 3.334-3.21 4.683-.576 1.35-.758 2.257-.849 2.238-.05-.005.003-.947.506-2.373.495-1.422 1.535-3.292 3.188-4.919 1.659-1.62 3.549-2.624 4.98-3.09 1.436-.476 2.379-.511 2.383-.461z"/><path style="fill:#fff" d="M269.789 98.996c.012.014-.124.155-.393.412l-1.192 1.106-4.398 4.046a299.671 299.671 0 0 0-13.984 13.882 299.907 299.907 0 0 0-12.995 14.817 14893.48 14893.48 0 0 1-3.767 4.639l-1.03 1.258c-.24.284-.373.428-.387.417-.014-.011.091-.176.304-.481l.953-1.318c.833-1.141 2.075-2.764 3.641-4.747a236.542 236.542 0 0 1 12.902-14.942 236.83 236.83 0 0 1 14.115-13.797 169.974 169.974 0 0 1 4.513-3.927l1.257-1.033c.291-.23.45-.345.461-.332zM281.434 102.846c.013.013-.161.213-.503.581l-1.515 1.595-5.593 5.842c-4.706 4.947-11.124 11.86-17.942 19.735a497.667 497.667 0 0 0-16.893 20.642l-4.912 6.423-1.338 1.746c-.311.396-.481.599-.495.588-.015-.01.127-.234.41-.65l1.259-1.804c1.098-1.564 2.73-3.796 4.783-6.526 4.104-5.463 9.969-12.869 16.792-20.76a450.031 450.031 0 0 1 18.071-19.65 324.687 324.687 0 0 1 5.714-5.729l1.585-1.526c.365-.344.564-.519.577-.507zM275.955 128.59c.013.013-.139.187-.44.508l-1.334 1.384-4.92 5.071a452.653 452.653 0 0 0-15.713 17.206 453.401 453.401 0 0 0-14.775 18.023l-4.312 5.597-1.178 1.518c-.274.344-.425.519-.439.509s.108-.207.355-.57l1.1-1.577c.96-1.366 2.387-3.315 4.183-5.7 3.589-4.772 8.71-11.245 14.673-18.14 5.966-6.888 11.636-12.886 15.843-17.122 2.103-2.119 3.827-3.812 5.041-4.958l1.403-1.315c.324-.298.501-.447.513-.434zM239.12 190.65c.096.107-.844 1.113-2.1 2.248-1.257 1.135-2.353 1.968-2.449 1.861-.096-.107.844-1.113 2.1-2.248 1.256-1.134 2.353-1.968 2.449-1.861zM282.179 143.999c.013.012-.122.182-.391.494l-1.195 1.347-4.448 4.905c-3.76 4.137-8.937 9.868-14.582 16.261a1534.982 1534.982 0 0 0-14.33 16.489l-4.316 5.021-1.188 1.353c-.276.306-.428.461-.442.449-.014-.012.111-.189.361-.516a955.2 955.2 0 0 0 1.113-1.416 361.123 361.123 0 0 1 4.19-5.129 726.561 726.561 0 0 1 14.221-16.596 727.52 727.52 0 0 1 14.702-16.166 366.427 366.427 0 0 1 4.57-4.794l1.267-1.281c.294-.288.455-.433.468-.421zM286.584 161.559c.028.023-.32.505-.974 1.357-.652.854-1.621 2.07-2.84 3.556a242.615 242.615 0 0 1-9.9 11.287 242.654 242.654 0 0 1-10.576 10.66 139.522 139.522 0 0 1-3.351 3.079c-.805.711-1.262 1.092-1.287 1.066-.024-.026.386-.457 1.148-1.214l3.233-3.196c2.727-2.7 6.456-6.47 10.452-10.751a388.725 388.725 0 0 0 9.999-11.169l2.964-3.447c.702-.811 1.104-1.25 1.132-1.228zM253.732 193.35c.076.135-.926.769-1.816 1.881-.74.896-1.161 1.797-1.364 2.062l-.268.35.121-.378c.027-.086.054-.125.081-.124.026.001.05.042.071.13l-.148-.028c0-.333.305-1.374 1.104-2.342.97-1.204 2.171-1.675 2.219-1.551zM289.34 178.238c.111.092-2.169 3.013-5.091 6.524-2.923 3.512-5.382 6.284-5.492 6.192-.111-.092 2.169-3.013 5.092-6.525 2.922-3.51 5.381-6.283 5.491-6.191zM277.515 191.146c.11.111-1.261 1.537-2.528 3.591-1.283 2.045-1.955 3.905-2.103 3.855-.128-.03.338-2.018 1.661-4.13 1.309-2.12 2.887-3.418 2.97-3.316zM291.02 188.973c.119.081-1.186 2.215-2.914 4.767-1.729 2.553-3.226 4.556-3.345 4.475-.119-.081 1.185-2.215 2.914-4.767 1.728-2.552 3.226-4.555 3.345-4.475zM246.204 103.973c.056.051-.792 1.067-2.16 2.708a299.297 299.297 0 0 0-5.265 6.471 298.688 298.688 0 0 0-5.059 6.635c-1.274 1.715-2.064 2.776-2.126 2.734-.03-.02.129-.312.442-.823.312-.512.784-1.238 1.384-2.124a119.635 119.635 0 0 1 4.95-6.744 120.49 120.49 0 0 1 5.396-6.391 57.086 57.086 0 0 1 1.741-1.843c.424-.425.67-.648.697-.623zM231.462 134.944c-.092.111-1.727-1.093-3.652-2.689-1.926-1.596-3.412-2.98-3.32-3.091.092-.111 1.727 1.093 3.653 2.69 1.924 1.596 3.411 2.98 3.319 3.09zM231.595 148.144c-.12.101-2.021-2.064-4.658-4.421-2.631-2.366-4.99-4.02-4.903-4.149.068-.112 2.583 1.364 5.25 3.761 2.673 2.39 4.415 4.73 4.311 4.809z"/><path style="fill:#263238" d="M231.304 119.561c.018.001.031.232.038.672l.017 1.922.155 7.071.747 23.328c.298 9.114.535 17.365.625 23.341.049 2.988.059 5.406.046 7.077l-.036 1.924c-.014.44-.03.671-.048.671s-.037-.231-.057-.671l-.062-1.923-.212-7.07-.778-23.333c-.299-9.111-.526-17.362-.595-23.338-.038-2.988-.026-5.407.011-7.079.015-.836.058-1.485.08-1.924.029-.439.051-.669.069-.668z"/><path style="fill:#fff" d="M229.912 163.608c-.072.028-.494-.932-1.204-2.465s-1.726-3.632-3.014-5.857a50.534 50.534 0 0 0-3.661-5.464c-1.031-1.333-1.727-2.117-1.668-2.173.044-.044.838.652 1.954 1.941 1.118 1.284 2.521 3.187 3.826 5.435a46.47 46.47 0 0 1 2.902 5.973c.626 1.579.927 2.587.865 2.61zM213.851 145.27c.061-.008.254.954.331 2.534.079 1.578-.006 3.778-.464 6.155-.463 2.376-1.207 4.449-1.87 5.883-.661 1.437-1.2 2.256-1.254 2.227-.158-.07 1.725-3.517 2.612-8.209.93-4.682.472-8.584.645-8.59z"/><g><path style="fill:#fff" d="M205.178 141.57c.064.012-.036.954-.37 2.448a35.218 35.218 0 0 1-1.829 5.687c-.903 2.158-1.93 4.015-2.757 5.301-.826 1.288-1.426 2.021-1.479 1.984-.065-.044.425-.849 1.163-2.173a53.214 53.214 0 0 0 2.593-5.313 53.218 53.218 0 0 0 1.953-5.579c.421-1.455.648-2.37.726-2.355z"/></g><g><path style="fill:#fff" d="M228.287 113.106c.105-.089 1.082.931 1.874 2.465.8 1.531 1.071 2.917.939 2.952-.144.043-.628-1.233-1.401-2.712-.764-1.482-1.53-2.612-1.412-2.705z"/></g><g><path style="fill:#fff" d="M295.603 121.423c.033.14-4.47 1.305-10.056 2.601-5.588 1.297-10.142 2.234-10.175 2.094-.032-.14 4.469-1.304 10.057-2.601 5.586-1.296 10.141-2.234 10.174-2.094z"/></g><g><path style="fill:#fff" d="M300.621 139.666c.035.14-3.9 1.245-8.788 2.469-4.89 1.224-8.881 2.103-8.916 1.964-.035-.139 3.899-1.245 8.789-2.469 4.888-1.225 8.88-2.104 8.915-1.964z"/></g><g><path style="fill:#fff" d="M307.813 155.474c.019.143-4.154.814-9.32 1.499-5.167.685-9.371 1.125-9.39.983-.019-.143 4.154-.814 9.321-1.499 5.166-.686 9.37-1.126 9.389-.983z"/></g><g><path style="fill:#fff" d="M317.536 170.84c-.005.074-1.158.064-3.018.033-1.86-.031-4.429-.072-7.266-.066-2.838.008-5.406.062-7.266.102-1.86.04-3.013.056-3.018-.018-.005-.069 1.141-.215 3.001-.35 1.86-.135 4.435-.247 7.282-.255 2.846-.006 5.422.093 7.282.219 1.861.126 3.007.266 3.003.335z"/></g><g style="opacity:.3"><path d="M274.288 124.387c.69 11.986 4.953 24.682 12.145 34.296 0 .137-1.354-8.526-1.354-8.526s-6.519-16.263-10.791-25.77"/></g><g style="opacity:.3"><path d="m246.473 187.021 21.186 1.26c3.022.18 6.395.245 8.657-1.767.233-.207.465-.477.432-.787-.063-.593-.902-.647-1.488-.537a65.716 65.716 0 0 1-27.264-.653c-.682-.162-1.418-.332-2.065-.063-.647.27-1.049 1.192-.558 1.693"/></g><g style="opacity:.3"><path d="M232.123 159.55c-4.201-11.227-4.598-23.84-1.11-35.309l.972 35.211"/></g><g style="opacity:.3"><path d="M220.364 147.648c.793 2.927 1.753 5.418 3.086 8.142.214.437.571.944 1.05.854.441-.083.618-.63.594-1.078-.052-.963-.61-1.815-1.15-2.613l-3.538-5.236"/></g></g></g></g><g><path style="fill:#ebebeb" d="m506.898 457.892.434-27.009-44.835-1.37-.589-28.155h-45.672v-15.923h-49.08v-15.643l-40.218-1.154v-19.811h-44.99l-.212-23.942-60.964 1.073v-26.101h-46.179v-31.904H98.831l-2.018 206.81h461.891v-16.871z"/><path style="fill:#263238" d="M98.831 267.953s.436-.015 1.292-.022l3.815-.022 14.826-.042 55.829-.074h.16v.16l.026 31.904-.186-.186 46.178-.028h.214v.214l.012 26.101-.23-.226 60.963-1.093.248-.005.002.248.218 23.942-.251-.249 44.99-.007h.258v.258l.001 19.81-.252-.26 26.288.754 13.93.4.253.007v.253l-.001 15.643-.259-.259 49.08.005h.254v.254l-.003 15.923-.251-.251 45.671.012h.235l.005.234.579 28.155-.222-.224 44.835 1.39.205.006-.003.205-.452 27.009-.191-.195 51.806.044h.147v.147l-.02 16.871-.128-.128 34.936.061 9.032.033c2.031.011 3.067.034 3.067.034s-1.036.023-3.067.034l-9.032.033-34.936.061h-.128v-.128l-.02-16.871.147.147-51.806.044h-.195l.003-.195a413295 413295 0 0 0 .418-27.009l.202.211-44.836-1.348-.218-.007-.005-.218-.599-28.155.239.234-45.671.012h-.251v-.251l-.003-15.923.254.254-49.08.005h-.26v-.26l-.001-15.643.253.26-13.93-.4-26.288-.755-.252-.007v-.252l.001-19.81.258.258-44.99-.007h-.249l-.002-.249-.207-23.942.25.244-60.964 1.053-.23.004v-.23l.012-26.101.214.214-46.178-.028h-.186v-.186l.026-31.904.16.16-55.829-.074-14.826-.042-3.815-.022a45.146 45.146 0 0 1-1.289-.017zM158.244 391.108a1.576 1.576 0 0 1-.017-.249l-.018-.702-.041-2.683-.092-9.944.167.167-43.49.093c.115-.116-.263.259.258-.26v3.498l-.001 3.439-.006 6.641-.253-.253 31.034.117 9.12.071 2.464.033.645.016c.147.005.225.011.23.016.005.005-.061.011-.198.016l-.614.016-2.41.033-9.062.071-31.209.117-.253.001v-.254l-.006-6.641-.002-3.439v-3.498c.52-.522.146-.145.263-.261l43.49.093h.169l-.001.167-.092 10.045-.041 2.646-.018.672c-.005.148-.01.221-.016.216z"/><path style="fill:#e0e0e0" d="M133.741 391.397h43.493v13.579h-43.493zM257.173 456.729h43.493v13.579h-43.493zM212.666 429.282h43.493v13.579h-43.493z"/><path style="fill:#263238" d="M281.676 456.44a1.576 1.576 0 0 1-.017-.249l-.018-.702-.041-2.683-.092-9.945.167.167-43.49.093c.115-.116-.263.259.258-.26v3.499l-.001 3.439-.006 6.641-.253-.253 31.034.117 9.12.071 2.464.033.645.016c.147.005.224.01.23.016s-.061.011-.198.016l-.614.016-2.41.033-9.062.071-31.209.117-.253.001v-.254l-.005-6.641-.001-3.439v-3.499c.52-.522.146-.145.263-.261l43.49.093h.169l-.001.167-.092 10.045-.041 2.646-.018.672c-.007.149-.013.222-.018.217z"/></g><g><path style="fill:#ff725e" d="M195.394 453.606c2.183-1.422 4.88-1.851 7.481-1.688 1.397.088 2.871.354 3.911 1.291 1.04.937 1.401 2.736.417 3.731-.586.593-1.469.763-2.298.837-2.005.18-4.262.052-5.739 1.419-.843.78-1.335 1.984-2.392 2.432-1.034.439-2.302-.069-2.966-.975-.664-.906-.804-2.109-.651-3.221 0 .001.038-2.394 2.237-3.826zM189.084 443.952c1.613 1.869 4.283.926 5.428-.431 1.145-1.357 1.501-3.191 1.818-4.938.723-3.991 1.436-8.173.206-12.038-.368-1.156-.928-2.288-1.847-3.08s-2.247-1.184-3.382-.757c-1.343.505-2.064 1.944-2.554 3.293a28.496 28.496 0 0 0-1.569 12.453c.191 1.959.63 3.992 1.9 5.498M185.508 447.231c1.346-1.97 1.368-4.647.457-6.852s-2.645-3.984-4.577-5.384a21.59 21.59 0 0 0-7.572-3.492c-1.07-.258-2.189-.435-3.269-.22-1.08.214-2.121.883-2.531 1.905-.607 1.51.29 3.177 1.214 4.517a54.697 54.697 0 0 0 5.417 6.671c1.59 1.671 3.383 3.297 5.61 3.899 2.227.602 4.444.28 5.43-1.321"/><path style="fill:#263238" d="M192.063 474.311c.027-.001.036-.331.035-.927l-.01-2.52c.01-1.062.037-2.327.19-3.716.153-1.387.459-2.903.893-4.454.455-1.544 1.056-2.966 1.81-4.132.747-1.169 1.663-2.054 2.553-2.601a7.854 7.854 0 0 1 2.274-.969c.577-.119.899-.198.897-.224-.002-.026-.33.003-.928.079a7.17 7.17 0 0 0-2.384.885c-.942.538-1.918 1.44-2.704 2.636-.794 1.192-1.419 2.647-1.882 4.219-.441 1.578-.739 3.109-.876 4.524-.137 1.412-.135 2.688-.111 3.755.028 1.068.085 1.928.131 2.523.047.595.087.923.112.922z"/><path style="fill:#263238" d="M192.041 472.374c.013-.002.006-.149-.018-.427l-.126-1.213a135.945 135.945 0 0 1-.398-4.463c-.288-3.772-.374-7.854-.327-13.626.049-5.428.211-11.756.639-15.903.086-.942.183-1.792.28-2.537.089-.746.164-1.389.247-1.912l.164-1.208c.033-.277.045-.424.032-.426-.013-.002-.049.14-.107.413l-.234 1.198c-.105.52-.202 1.161-.311 1.906a55.809 55.809 0 0 0-.337 2.536c-.458 3.764-.816 8.998-.868 14.784-.047 5.784.198 11.022.555 14.796.169 1.888.364 3.411.518 4.459l.197 1.205c.049.277.081.42.094.418z"/><path style="fill:#263238" d="M191.048 462.325c.026-.004-.024-.453-.137-1.266-.129-.81-.36-1.975-.736-3.394a45.687 45.687 0 0 0-1.623-4.889c-.317-.825-1.067-2.803-2.691-5.707-2.152-3.94-4.85-7.066-7.112-8.943-.537-.504-1.113-.849-1.581-1.197-.241-.165-.456-.332-.67-.46l-.6-.33c-.722-.393-1.124-.598-1.136-.575-.052.088 1.614.854 3.813 2.765 2.191 1.907 4.82 5.017 6.955 8.923a47.078 47.078 0 0 1 2.698 5.651c.735 1.782 1.27 3.436 1.69 4.832.406 1.401.676 2.551.849 3.348.156.803.255 1.245.281 1.242z"/></g><g><path style="fill:#263238" d="M656.674 474.763c0 .144-136.965.26-305.881.26-168.975 0-305.91-.117-305.91-.26s136.936-.26 305.91-.26c168.915 0 305.881.116 305.881.26z"/></g></svg>