<?xml version="1.0" encoding="utf-8"?>
<!-- Generator: Adobe Illustrator 27.5.0, SVG Export Plug-In . SVG Version: 6.00 Build 0)  -->
<svg version="1.1" xmlns="http://www.w3.org/2000/svg" xmlns:xlink="http://www.w3.org/1999/xlink" x="0px" y="0px"
	 viewBox="0 0 500 500" style="enable-background:new 0 0 500 500;" xml:space="preserve">
<g id="Background_Complete">
	<g>
		<g>
			<rect x="449.387" y="44.611" style="fill:#E0E0E0;" width="6.335" height="136.21"/>
		</g>
		<g>
			<path style="fill:#F5F5F5;" d="M357.489,45.756V180.92c0,0.05,0.041,0.091,0.091,0.091h90.753c0.05,0,0.091-0.041,0.091-0.091
				V45.756c0-0.051-0.041-0.091-0.091-0.091H357.58C357.529,45.665,357.489,45.706,357.489,45.756z"/>
		</g>
		<g>
			<g>
				<path style="fill:#EBEBEB;" d="M449.387,182.065h-92.86c-0.05,0-0.091-0.041-0.091-0.091V44.703c0-0.05,0.041-0.091,0.091-0.091
					h92.86c0.05,0,0.091,0.041,0.091,0.091v137.271C449.478,182.024,449.437,182.065,449.387,182.065z M358.633,179.958h88.646
					c0.051,0,0.091-0.041,0.091-0.092V46.81c0-0.05-0.041-0.091-0.091-0.091h-88.646c-0.05,0-0.091,0.041-0.091,0.091v133.057
					C358.542,179.917,358.583,179.958,358.633,179.958z"/>
			</g>
		</g>
		<g>
			<path style="fill:#FFFFFF;" d="M366.645,54.106v118.375c0,0.05,0.041,0.091,0.091,0.091h72.601c0.051,0,0.091-0.041,0.091-0.091
				V54.106c0-0.05-0.041-0.091-0.091-0.091h-72.601C366.686,54.015,366.645,54.056,366.645,54.106z"/>
		</g>
		<g>
			<path style="fill:#EBEBEB;" d="M423.326,135.525h-40.739c-0.035,0-0.064-0.029-0.064-0.064V87.69
				c0-0.035,0.029-0.064,0.064-0.064h40.739c0.036,0,0.064,0.029,0.064,0.064v47.771
				C423.39,135.497,423.362,135.525,423.326,135.525z"/>
		</g>
		<g>
			<g>
				<path style="fill:#E0E0E0;" d="M420.155,129.663c0.053,0.154-1.964,1.037-5.802,0.587c-1.89-0.257-4.242-0.936-6.522-2.607
					c-2.232-1.672-4.351-4.367-5.068-7.971c-0.745-3.575,0.45-8.032,3.876-10.896c0.851-0.711,1.841-1.31,2.939-1.722
					c1.167-0.433,2.426-0.576,3.677-0.424c1.244,0.152,2.561,0.585,3.676,1.605c1.126,1.022,1.742,2.747,1.449,4.282
					c-0.266,1.55-1.111,2.737-2.018,3.676c-0.936,0.956-1.997,1.662-3.078,2.268c-2.198,1.214-4.711,1.975-7.345,2.098
					c-2.622,0.126-5.394-0.412-7.827-1.781c-2.41-1.354-4.471-3.406-5.76-5.971c-1.307-2.535-1.723-5.611-1.034-8.362
					c0.663-2.741,2.221-5.191,4.408-6.89c1.098-0.851,2.339-1.479,3.695-1.866c1.365-0.35,2.772-0.416,4.16-0.13
					c1.373,0.289,2.776,0.964,3.776,2.13c1.014,1.156,1.466,2.665,1.48,4.035c0.021,1.377-0.354,2.72-0.985,3.844
					c-0.619,1.127-1.453,2.041-2.33,2.801c-1.768,1.497-3.752,2.482-5.789,3.076c-2.036,0.585-4.124,0.74-6.091,0.47
					c-1.961-0.277-3.808-0.999-5.301-2.031c-3.012-2.044-4.752-5.15-5.063-8.019c-0.341-2.922,0.728-5.318,1.876-6.875
					c1.181-1.588,2.537-2.399,3.47-2.772c0.955-0.362,1.498-0.349,1.522-0.258c0.04,0.13-0.432,0.341-1.207,0.857
					c-0.758,0.526-1.83,1.414-2.698,2.9c-0.848,1.457-1.549,3.571-1.105,5.873c0.404,2.294,1.972,4.758,4.501,6.304
					c2.476,1.573,5.95,1.978,9.286,0.884c1.653-0.533,3.3-1.424,4.646-2.629c1.336-1.199,2.246-2.741,2.17-4.354
					c-0.043-1.618-1.062-2.758-2.797-3.09c-0.845-0.165-1.794-0.112-2.672,0.126c-0.871,0.267-1.758,0.711-2.521,1.321
					c-1.542,1.213-2.709,3.054-3.179,5.066c-0.483,2.01-0.195,4.141,0.78,6.073c0.96,1.927,2.561,3.532,4.397,4.571
					c1.828,1.041,3.956,1.486,6.05,1.408c2.096-0.075,4.154-0.667,5.949-1.627c0.908-0.49,1.744-1.043,2.374-1.674
					c0.646-0.632,1.096-1.354,1.205-1.963c0.118-0.617-0.07-1.153-0.487-1.58c-0.438-0.435-1.182-0.762-1.968-0.867
					c-0.789-0.12-1.606-0.046-2.317,0.197c-0.782,0.268-1.511,0.676-2.159,1.183c-1.297,1.016-2.27,2.408-2.815,3.878
					c-0.555,1.474-0.685,3-0.474,4.454c0.432,2.922,2.078,5.341,3.894,6.898c1.852,1.566,3.896,2.372,5.598,2.794
					C418.053,129.769,420.128,129.371,420.155,129.663z"/>
			</g>
		</g>
	</g>
	<g>
		<g>
			<g>
				<g>
					<rect x="46.169" y="92.237" style="fill:#FAFAFA;" width="106.67" height="95.433"/>
				</g>
			</g>
			<g>
				<g>
					<g>
						<path style="fill:#E0E0E0;" d="M152.839,187.67c0,0-0.018-0.612-0.027-1.771c-0.006-1.171-0.016-2.883-0.028-5.113
							c-0.014-4.481-0.036-11.03-0.063-19.372c-0.03-16.674-0.073-40.501-0.124-69.176l0.242,0.242
							c-30.72,0.013-67.382,0.027-106.66,0.043h-0.01l0.285-0.285c-0.012,34.72-0.024,67.391-0.034,95.433l-0.251-0.251
							c31.822,0.052,58.456,0.096,77.151,0.127c9.354,0.029,16.718,0.051,21.76,0.066c2.512,0.013,4.442,0.023,5.761,0.03
							c0.645,0.006,1.139,0.011,1.486,0.014C152.662,187.66,152.839,187.67,152.839,187.67s-0.158,0.01-0.484,0.014
							c-0.34,0.003-0.825,0.008-1.458,0.014c-1.308,0.007-3.221,0.017-5.712,0.029c-5.029,0.015-12.374,0.038-21.704,0.066
							c-18.735,0.031-45.424,0.074-77.313,0.127l-0.251,0v-0.251c-0.01-28.042-0.022-60.713-0.034-95.433v-0.285h0.285h0.01
							c39.278,0.016,75.94,0.031,106.66,0.043h0.243l0,0.242c-0.052,28.739-0.094,52.618-0.124,69.33
							c-0.027,8.319-0.048,14.85-0.063,19.318c-0.012,2.21-0.022,3.907-0.028,5.067C152.857,187.094,152.839,187.67,152.839,187.67z
							"/>
					</g>
				</g>
			</g>
		</g>
		<g>
			<g>
				<g>
					<path style="fill:#E0E0E0;" d="M87.07,109.193c0,0.157-5.615,0.285-12.539,0.285c-6.927,0-12.54-0.128-12.54-0.285
						c0-0.157,5.613-0.285,12.54-0.285C81.456,108.908,87.07,109.036,87.07,109.193z"/>
				</g>
			</g>
		</g>
		<g>
			<g>
				<g>
					<path style="fill:#E0E0E0;" d="M132.268,116.359c0,0.158-15.425,0.285-34.448,0.285c-19.03,0-34.451-0.127-34.451-0.285
						c0-0.157,15.421-0.285,34.451-0.285C116.843,116.074,132.268,116.201,132.268,116.359z"/>
				</g>
			</g>
		</g>
		<g>
			<g>
				<rect x="62.175" y="128.497" style="fill:#E0E0E0;" width="4.494" height="4.494"/>
			</g>
		</g>
		<g>
			<g>
				<rect x="73.237" y="128.497" style="fill:#E0E0E0;" width="4.494" height="4.494"/>
			</g>
		</g>
		<g>
			<g>
				<rect x="84.503" y="128.293" style="fill:#E0E0E0;" width="4.494" height="4.494"/>
			</g>
		</g>
		<g>
			<g>
				<rect x="95.361" y="128.497" style="fill:#E0E0E0;" width="4.494" height="4.494"/>
			</g>
		</g>
		<g>
			<g>
				<rect x="106.423" y="128.497" style="fill:#E0E0E0;" width="4.494" height="4.494"/>
			</g>
		</g>
		<g>
			<g>
				<rect x="117.486" y="128.497" style="fill:#E0E0E0;" width="4.494" height="4.494"/>
			</g>
		</g>
		<g>
			<g>
				<rect x="128.548" y="128.497" style="fill:#EBEBEB;" width="4.494" height="4.494"/>
			</g>
		</g>
		<g>
			<g>
				<rect x="62.175" y="138.051" style="fill:#EBEBEB;" width="4.494" height="4.494"/>
			</g>
		</g>
		<g>
			<g>
				<rect x="73.237" y="138.051" style="fill:#E0E0E0;" width="4.494" height="4.494"/>
			</g>
		</g>
		<g>
			<g>
				<rect x="84.299" y="138.051" style="fill:#EBEBEB;" width="4.494" height="4.494"/>
			</g>
		</g>
		<g>
			<g>
				<rect x="95.361" y="138.051" style="fill:#E0E0E0;" width="4.494" height="4.494"/>
			</g>
		</g>
		<g>
			<g>
				<rect x="106.423" y="138.051" style="fill:#E0E0E0;" width="4.494" height="4.494"/>
			</g>
		</g>
		<g>
			<g>
				<rect x="117.69" y="137.846" style="fill:#E0E0E0;" width="4.494" height="4.494"/>
			</g>
		</g>
		<g>
			<g>
				<rect x="128.548" y="138.051" style="fill:#E0E0E0;" width="4.494" height="4.494"/>
			</g>
		</g>
		<g>
			<g>
				<rect x="62.175" y="147.605" style="fill:#E0E0E0;" width="4.494" height="4.494"/>
			</g>
		</g>
		<g>
			<g>
				<rect x="73.441" y="147.4" style="fill:#E0E0E0;" width="4.494" height="4.494"/>
			</g>
		</g>
		<g>
			<g>
				<rect x="84.299" y="147.605" style="fill:#E0E0E0;" width="4.494" height="4.494"/>
			</g>
		</g>
		<g>
			<g>
				<rect x="95.361" y="147.605" style="fill:#EBEBEB;" width="4.494" height="4.494"/>
			</g>
		</g>
		<g>
			<g>
				<rect x="106.423" y="147.605" style="fill:#E0E0E0;" width="4.494" height="4.494"/>
			</g>
		</g>
		<g>
			<g>
				<rect x="117.486" y="147.605" style="fill:#E0E0E0;" width="4.494" height="4.494"/>
			</g>
		</g>
		<g>
			<g>
				<rect x="128.548" y="147.605" style="fill:#E0E0E0;" width="4.494" height="4.494"/>
			</g>
		</g>
		<g>
			<g>
				<rect x="62.175" y="157.158" style="fill:#E0E0E0;" width="4.494" height="4.494"/>
			</g>
		</g>
		<g>
			<g>
				<rect x="73.237" y="157.158" style="fill:#E0E0E0;" width="4.494" height="4.494"/>
			</g>
		</g>
		<g>
			<g>
				<rect x="84.299" y="157.158" style="fill:#E0E0E0;" width="4.494" height="4.494"/>
			</g>
		</g>
		<g>
			<g>
				<rect x="95.565" y="156.954" style="fill:#E0E0E0;" width="4.494" height="4.494"/>
			</g>
		</g>
		<g>
			<g>
				<rect x="106.423" y="157.158" style="fill:#E0E0E0;" width="4.494" height="4.494"/>
			</g>
		</g>
		<g>
			<g>
				<rect x="117.486" y="157.158" style="fill:#EBEBEB;" width="4.494" height="4.494"/>
			</g>
		</g>
		<g>
			<g>
				<rect x="128.548" y="157.158" style="fill:#E0E0E0;" width="4.494" height="4.494"/>
			</g>
		</g>
		<g>
			<g>
				<rect x="62.175" y="166.712" style="fill:#E0E0E0;" width="4.494" height="4.494"/>
			</g>
		</g>
		<g>
			<g>
				<rect x="73.237" y="166.712" style="fill:#EBEBEB;" width="4.494" height="4.494"/>
			</g>
		</g>
		<g>
			<g>
				<rect x="84.299" y="166.712" style="fill:#E0E0E0;" width="4.494" height="4.494"/>
			</g>
		</g>
		<g>
			<g>
				<rect x="95.361" y="166.712" style="fill:#E0E0E0;" width="4.494" height="4.494"/>
			</g>
		</g>
		<g>
			<g>
				<rect x="106.423" y="166.712" style="fill:#E0E0E0;" width="4.494" height="4.494"/>
			</g>
		</g>
		<g>
			<g>
				<rect x="117.69" y="166.508" style="fill:#E0E0E0;" width="4.494" height="4.494"/>
			</g>
		</g>
		<g>
			<g>
				<rect x="128.548" y="166.712" style="fill:#E0E0E0;" width="4.494" height="4.494"/>
			</g>
		</g>
	</g>
</g>
<g id="Background_Simple" style="display:none;">
	<path style="display:inline;fill:#F5F5F5;" d="M407.915,84.882l-1.074-3.083c-9.055-25.987-31.342-45.241-58.317-49.235
		c-3.467-0.513-6.973-0.777-10.487-0.774c-25.304,0.019-50.264,13.828-63.991,35.403c-8.073,12.689-12.892,28.253-24.966,37.116
		c-15.714,11.535-37.332,7.392-56.129,2.766c-18.797-4.626-40.441-8.716-56.105,2.888c-9.81,7.268-15.037,19.463-16.957,31.589
		c-5.083,32.103,10.982,65.203,36.103,85.31c25.121,20.107,57.971,28.435,90.081,28.795c44.982,0.505,91.089-14.623,123.606-46.241
		S419.151,128.89,407.915,84.882z"/>
	
		<ellipse transform="matrix(0.2335 -0.9724 0.9724 0.2335 -37.5058 148.1306)" style="display:inline;fill:#F5F5F5;" cx="75.199" cy="97.853" rx="25.342" ry="25.342"/>
	<circle style="display:inline;fill:#F5F5F5;" cx="431.187" cy="235.494" r="25.342"/>
</g>
<g id="Floor">
	<g>
		<path style="fill:#263238;" d="M475.502,478.029c0,0.144-100.969,0.26-225.491,0.26c-124.565,0-225.513-0.117-225.513-0.26
			c0-0.144,100.947-0.26,225.513-0.26C374.533,477.768,475.502,477.885,475.502,478.029z"/>
	</g>
</g>
<g id="Character">
	<g>
		<g>
			<g>
				<g>
					<path style="fill:#E0E0E0;" d="M211.047,364.757c0,0,25.05,11.434,49.418,11.434c22.567,0,47.809-11.36,47.809-11.36
						L211.047,364.757z"/>
				</g>
				<g>
					<rect x="253.351" y="365.846" style="fill:#E0E0E0;" width="9.665" height="101.226"/>
				</g>
				<g>
					<path style="fill:#E0E0E0;" d="M301.51,468.815h-85.774v0c0-3.278,2.657-5.935,5.935-5.935h73.904
						C298.853,462.88,301.51,465.538,301.51,468.815L301.51,468.815z"/>
				</g>
				<g>
					<path style="fill:#263238;" d="M225.793,471.372c0,3.615-2.931,6.546-6.546,6.546c-3.615,0-6.546-2.931-6.546-6.546
						c0-3.615,2.931-6.546,6.546-6.546C222.862,464.827,225.793,467.757,225.793,471.372z"/>
				</g>
				<g>
					<path style="fill:#263238;" d="M263.906,471.372c0,3.615-2.931,6.546-6.546,6.546c-3.615,0-6.546-2.931-6.546-6.546
						c0-3.615,2.931-6.546,6.546-6.546C260.975,464.827,263.906,467.757,263.906,471.372z"/>
				</g>
				<g>
					<path style="fill:#263238;" d="M308.056,471.372c0,3.615-2.931,6.546-6.546,6.546c-3.615,0-6.546-2.931-6.546-6.546
						c0-3.615,2.931-6.546,6.546-6.546C305.125,464.827,308.056,467.757,308.056,471.372z"/>
				</g>
				<g>
					<rect x="247.32" y="402.279" style="fill:#E0E0E0;" width="13.145" height="5.44"/>
				</g>
				<g>
					<rect x="244.926" y="398.471" style="fill:#E0E0E0;" width="4.787" height="13.056"/>
				</g>
				<g>
					<g>
						<path style="fill:#455A64;" d="M310.435,364.757H203.12c-4.012,0-7.265-3.253-7.265-7.265l0,0
							c0-4.013,3.253-7.265,7.265-7.265h116.731v5.114C319.852,360.541,315.636,364.757,310.435,364.757z"/>
					</g>
				</g>
				<g>
					<g>
						<path style="fill:#455A64;" d="M236.262,208.783l75.736,0.936c3.74,0.046,6.756,3.075,6.786,6.816l1.068,133.692
							l-102.036,1.394l11.515-136.544C229.634,211.485,232.659,208.738,236.262,208.783z"/>
					</g>
				</g>
			</g>
			<g>
				<path style="fill:#263238;" d="M307.699,211.234c0.144,0,0.26,30.87,0.26,68.941c0,38.084-0.117,68.947-0.26,68.947
					s-0.26-30.863-0.26-68.947C307.438,242.104,307.555,211.234,307.699,211.234z"/>
			</g>
		</g>
		<g>
			<path style="fill:#263238;" d="M303.801,350.752c-0.001,0.144-22.505,0.115-50.258-0.064c-27.762-0.18-50.26-0.442-50.259-0.585
				c0.001-0.144,22.5-0.115,50.263,0.065C281.299,350.346,303.802,350.608,303.801,350.752z"/>
		</g>
		<g>
			<path style="fill:#263238;" d="M309.097,364.757c0,0.144-23.689,0.247-52.904,0.231c-29.225-0.016-52.909-0.146-52.909-0.289
				c0-0.144,23.684-0.247,52.909-0.231C285.409,364.484,309.098,364.613,309.097,364.757z"/>
		</g>
		<g>
			<path style="fill:#263238;" d="M253.352,439.634c-0.144,0-0.26-13.817-0.26-30.858c0-17.046,0.117-30.86,0.26-30.86
				c0.144,0,0.26,13.814,0.26,30.86C253.612,425.817,253.495,439.634,253.352,439.634z"/>
		</g>
		<g>
			<path style="fill:#263238;" d="M249.713,410.54c-0.144,0-0.26-2.629-0.26-5.872c0-3.244,0.117-5.872,0.26-5.872
				c0.144,0,0.26,2.629,0.26,5.872C249.974,407.911,249.857,410.54,249.713,410.54z"/>
		</g>
		<g>
			<path style="fill:#263238;" d="M249.74,401.908c0,0.144-1.078,0.26-2.407,0.26c-1.33,0-2.407-0.117-2.407-0.26
				c0-0.144,1.077-0.26,2.407-0.26C248.662,401.648,249.74,401.764,249.74,401.908z"/>
		</g>
		<g>
			<path style="fill:#263238;" d="M249.74,405.199c0,0.144-1.078,0.26-2.407,0.26c-1.33,0-2.407-0.117-2.407-0.26
				c0-0.144,1.077-0.26,2.407-0.26C248.662,404.938,249.74,405.055,249.74,405.199z"/>
		</g>
		<g>
			<path style="fill:#263238;" d="M249.74,408.489c0,0.144-1.078,0.26-2.407,0.26c-1.33,0-2.407-0.117-2.407-0.26
				s1.077-0.26,2.407-0.26C248.662,408.229,249.74,408.345,249.74,408.489z"/>
		</g>
		<g>
			<path style="fill:#263238;" d="M276.633,374.57c0.008,0.035-0.5,0.171-1.427,0.387c-0.924,0.23-2.282,0.47-3.967,0.715
				c-3.371,0.471-8.081,0.812-13.274,0.634c-5.195-0.15-9.875-0.713-13.227-1.284c-1.678-0.283-3.026-0.565-3.952-0.782
				c-0.925-0.224-1.432-0.365-1.424-0.4c0.008-0.035,0.529,0.038,1.464,0.201c0.936,0.155,2.289,0.381,3.968,0.617
				c3.355,0.476,8.018,0.978,13.187,1.127c5.167,0.177,9.848-0.104,13.212-0.479c1.681-0.197,3.042-0.381,3.974-0.549
				C276.103,374.604,276.625,374.535,276.633,374.57z"/>
		</g>
		<g>
			<path style="fill:#263238;" d="M316.328,362.212c-0.112,0.005-0.088-1.063-0.52-2.683c-0.458-1.593-1.534-3.738-3.523-5.357
				c-1.948-1.653-4.169-2.516-5.791-2.911c-1.634-0.405-2.694-0.414-2.691-0.509c0-0.036,0.264-0.057,0.745-0.064
				c0.242-0.013,0.534,0.013,0.875,0.046c0.343,0.022,0.728,0.077,1.151,0.167c1.685,0.313,4.013,1.148,6.048,2.873
				c2.078,1.689,3.167,3.991,3.543,5.663c0.16,0.852,0.25,1.546,0.221,2.03C316.382,361.948,316.364,362.212,316.328,362.212z"/>
		</g>
	</g>
	<g>
		<g>
			<path style="fill:#CC675D;" d="M177.59,229.424c0,0-1.71-3.663-5.198-4.308c-3.488-0.645-16.05,1.171-16.05,1.171
				s-7.126-3.361-8.538-2.882c-1.412,0.479-1.046,2.512-1.046,2.512s8.068,4.016,9.386,4.677
				C157.462,231.255,174.171,231.24,177.59,229.424z"/>
			<path style="fill:#CC675D;" d="M156.908,213.22c0,0-2.983,0.912-0.052,4.281c2.93,3.368,3.315,2.175,3.721,4.425
				c0.406,2.25,0.406,2.25,0.406,2.25l11.41,0.94c0,0-3.218-2.883-5.937-5.082C163.735,217.834,159.995,212.888,156.908,213.22z"/>
			<g>
				<path style="fill:#CC675D;" d="M154.37,214.251c0.292-0.441,1.167-1.245,1.656-1.046c1.773,0.72,1.177,2.957,1.039,3.762
					c-0.235,1.378-3.331,5.669-3.331,5.669l2.563,2.144l-3.124,0.563l-4.278-3.595c0,0,3.271-3.983,3.673-4.672
					C153.01,216.319,153.855,215.028,154.37,214.251z"/>
				<g>
					<path style="fill:#9C4741;" d="M154.37,214.25c0.021,0.014-0.085,0.226-0.302,0.608c-0.266,0.45-0.585,0.99-0.964,1.632
						c-0.813,1.452-2.316,3.231-4.03,5.403l-0.03-0.324c1.321,1.099,2.767,2.302,4.295,3.575l-0.212-0.056
						c0.722-0.131,1.48-0.269,2.251-0.408c0.293-0.053,0.584-0.105,0.872-0.157l-0.121,0.455c-0.884-0.743-1.741-1.463-2.558-2.15
						l-0.179-0.15l0.136-0.191c1.075-1.507,2.057-2.95,2.799-4.301c0.186-0.337,0.344-0.674,0.467-0.999
						c0.094-0.297,0.156-0.695,0.215-1.009c0.106-0.657,0.129-1.284-0.048-1.792c-0.16-0.515-0.539-0.855-0.924-1.036
						c-0.325-0.171-0.71,0.113-0.943,0.267C154.596,213.984,154.397,214.271,154.37,214.25c-0.023-0.011,0.13-0.341,0.619-0.769
						c0.123-0.105,0.268-0.216,0.453-0.31c0.17-0.083,0.451-0.185,0.7-0.051c0.437,0.172,0.918,0.565,1.124,1.157
						c0.226,0.582,0.215,1.266,0.124,1.958c-0.059,0.36-0.09,0.671-0.204,1.081c-0.128,0.367-0.287,0.722-0.472,1.073
						c-0.736,1.405-1.7,2.859-2.775,4.393l-0.043-0.341c0.82,0.682,1.68,1.399,2.568,2.138l0.428,0.356l-0.549,0.099
						c-0.288,0.052-0.579,0.105-0.871,0.158c-0.771,0.138-1.531,0.274-2.252,0.404l-0.12,0.021l-0.092-0.078
						c-1.517-1.287-2.951-2.504-4.261-3.616l-0.174-0.147l0.144-0.176c1.743-2.139,3.3-3.885,4.152-5.251
						c0.424-0.618,0.78-1.137,1.077-1.57C154.202,214.421,154.349,214.237,154.37,214.25z"/>
				</g>
			</g>
			<path style="fill:#CC675D;" d="M138.945,218.333c0,0,0.966-2.123,3.478-1.077c2.512,1.046,9.94,7.316,9.94,7.316l3.717,0.026
				l4.901-0.422l11.41,0.94c0,0,3.026,0.987,5.61,4.513c0,0,1.841,2.312,2.124,2.635c0.283,0.324-7.079,5.623-7.079,5.623
				s-2.711-1.984-6.33-2.605c-3.619-0.621-8.189-1.446-9.099-1.507s-1.53-0.174-2.491-1.349c-0.961-1.176-6.695-4.713-8.276-6.001
				C145.268,225.136,138.945,218.333,138.945,218.333z"/>
			<path style="fill:#CC675D;" d="M159.487,219.182c0.97,0.13,1.993-0.214,2.688-0.904"/>
			<g>
				<path style="fill:#9C4741;" d="M165.193,224.214c0,0.033-0.394,0.061-1.118,0.084c-0.824,0.014-1.856,0.031-3.096,0.051
					l0.016-0.001c-2.069,0.199-4.699,0.452-7.665,0.737l-0.09,0.009l-0.078-0.055c-1.201-0.857-2.517-1.771-3.892-2.693
					c-1.539-1.017-3.03-2.006-4.486-2.742c-0.363-0.183-0.729-0.337-1.064-0.408c-0.355-0.054-0.707-0.001-1.02,0.137
					c-0.625,0.28-1.098,0.856-1.381,1.41l-0.065-0.252c1.562,1.226,2.876,2.258,3.893,3.056c0.921,0.741,1.427,1.174,1.401,1.209
					c-0.026,0.034-0.581-0.334-1.545-1.019c-1.045-0.76-2.396-1.744-4.002-2.912l-0.139-0.101l0.074-0.151
					c0.32-0.655,0.806-1.289,1.575-1.662c0.382-0.177,0.834-0.251,1.27-0.19c0.448,0.084,0.839,0.255,1.218,0.439
					c1.517,0.749,3.009,1.73,4.56,2.753c1.383,0.926,2.696,1.848,3.896,2.722l-0.168-0.047c2.971-0.226,5.606-0.426,7.679-0.583
					l0.011-0.001l0.006,0c1.239,0.043,2.271,0.078,3.094,0.106C164.801,224.145,165.194,224.181,165.193,224.214z"/>
			</g>
			<g>
				<path style="fill:#CC675D;" d="M148.994,228.025l-5.421-4.098c0,0,0.868-1.952,2.652-1.697c1.783,0.255,5.768,3.335,5.768,3.335
					l6.018,1.21c0,0,6.452-3.154,11.627-1.885"/>
				<g>
					<path style="fill:#9C4741;" d="M169.639,224.889c-0.016,0.095-1.238-0.284-3.344-0.124c-2.089,0.127-5.048,0.786-8.175,2.231
						l-0.078,0.036l-0.079-0.016c-1.684-0.334-3.51-0.697-5.411-1.074c-0.206-0.041-0.41-0.083-0.61-0.123l-0.058-0.012l-0.05-0.038
						c-1.508-1.134-3.018-2.182-4.508-2.913c-0.374-0.165-0.751-0.327-1.111-0.389c-0.363-0.058-0.722-0.016-1.043,0.119
						c-0.643,0.272-1.122,0.862-1.411,1.423l-0.064-0.247c1.572,1.233,2.888,2.266,3.899,3.06c0.92,0.739,1.423,1.169,1.397,1.202
						c-0.025,0.033-0.576-0.333-1.538-1.017c-1.039-0.757-2.392-1.741-4.007-2.917l-0.137-0.1l0.073-0.148
						c0.324-0.66,0.816-1.31,1.607-1.674c0.392-0.174,0.852-0.234,1.294-0.168c0.447,0.072,0.842,0.242,1.245,0.413
						c1.568,0.749,3.082,1.791,4.621,2.944l-0.108-0.049c0.2,0.04,0.405,0.081,0.61,0.122c1.899,0.386,3.723,0.758,5.406,1.1
						l-0.157,0.02c3.225-1.451,6.233-2.048,8.378-2.094c1.073-0.035,1.923,0.075,2.495,0.182
						C169.345,224.775,169.646,224.861,169.639,224.889z"/>
				</g>
			</g>
			<polygon style="fill:#CC675D;" points="180.125,232.264 191.55,245.225 180.707,253.333 173.046,237.887 			"/>
			<polygon style="fill:#E0E0E0;" points="175.932,246.698 171.577,240.49 182.298,232.264 186.519,238.057 			"/>
			<g>
				<path style="fill:#263238;" d="M181.47,241.983c-0.116,0.085-1.163-1.149-2.337-2.756c-1.175-1.607-2.033-2.979-1.917-3.064
					c0.116-0.085,1.162,1.149,2.337,2.756C180.728,240.527,181.586,241.898,181.47,241.983z"/>
			</g>
			<circle style="fill:#263238;" cx="177.389" cy="239.917" r="1.038"/>
		</g>
		<g>
			<path style="fill:#CC675D;" d="M352.674,230.302c0,0,1.71-3.663,5.198-4.308c3.488-0.645,16.05,1.171,16.05,1.171
				s7.126-3.361,8.538-2.882c1.412,0.479,1.046,2.512,1.046,2.512s-8.068,4.016-9.386,4.677
				C372.802,232.133,356.093,232.118,352.674,230.302z"/>
			<path style="fill:#CC675D;" d="M373.356,214.098c0,0,2.983,0.913,0.052,4.281c-2.93,3.368-3.315,2.175-3.72,4.425
				c-0.406,2.25-0.406,2.25-0.406,2.25l-11.41,0.94c0,0,3.218-2.883,5.937-5.082C366.529,218.712,370.269,213.766,373.356,214.098z"
				/>
			<g>
				<path style="fill:#CC675D;" d="M375.894,215.129c-0.292-0.441-1.167-1.245-1.656-1.046c-1.773,0.72-1.177,2.957-1.039,3.762
					c0.235,1.378,3.331,5.669,3.331,5.669l-2.563,2.144l3.124,0.563l4.278-3.595c0,0-3.271-3.983-3.673-4.672
					C377.254,217.197,376.409,215.906,375.894,215.129z"/>
				<g>
					<path style="fill:#9C4741;" d="M375.894,215.129c0.021-0.014,0.168,0.171,0.423,0.529c0.297,0.433,0.654,0.952,1.077,1.57
						c0.852,1.366,2.409,3.112,4.152,5.251l0.144,0.176l-0.174,0.148c-1.31,1.112-2.744,2.329-4.261,3.616l-0.092,0.078l-0.12-0.022
						c-0.722-0.129-1.481-0.266-2.252-0.404c-0.293-0.053-0.584-0.105-0.871-0.158l-0.549-0.099l0.428-0.356
						c0.887-0.739,1.748-1.455,2.568-2.138l-0.043,0.341c-1.075-1.534-2.039-2.988-2.775-4.393
						c-0.184-0.351-0.344-0.706-0.471-1.073c-0.113-0.409-0.145-0.72-0.204-1.081c-0.091-0.691-0.101-1.375,0.124-1.958
						c0.207-0.592,0.687-0.985,1.125-1.157c0.249-0.135,0.529-0.033,0.699,0.051c0.185,0.093,0.329,0.205,0.453,0.31
						C375.764,214.788,375.917,215.117,375.894,215.129c-0.028,0.021-0.226-0.266-0.726-0.632c-0.234-0.155-0.618-0.438-0.943-0.267
						c-0.384,0.181-0.764,0.521-0.924,1.036c-0.177,0.508-0.154,1.135-0.048,1.792c0.059,0.314,0.121,0.712,0.215,1.009
						c0.123,0.325,0.28,0.661,0.467,0.999c0.742,1.351,1.724,2.794,2.799,4.301l0.136,0.191l-0.179,0.15
						c-0.816,0.686-1.674,1.407-2.558,2.15l-0.121-0.455c0.288,0.052,0.579,0.104,0.872,0.157c0.771,0.14,1.53,0.277,2.251,0.408
						l-0.212,0.056c1.529-1.272,2.975-2.475,4.295-3.575l-0.03,0.324c-1.714-2.172-3.216-3.951-4.03-5.403
						c-0.379-0.642-0.698-1.182-0.964-1.632C375.979,215.354,375.873,215.143,375.894,215.129z"/>
				</g>
			</g>
			<path style="fill:#CC675D;" d="M391.318,219.211c0,0-0.966-2.123-3.478-1.077c-2.512,1.046-9.94,7.316-9.94,7.316l-3.717,0.026
				l-4.901-0.422l-11.41,0.94c0,0-3.026,0.987-5.61,4.513c0,0-1.841,2.311-2.124,2.635c-0.283,0.324,7.079,5.623,7.079,5.623
				s2.711-1.984,6.33-2.605c3.619-0.621,8.189-1.446,9.099-1.507c0.91-0.061,1.53-0.174,2.491-1.349
				c0.961-1.176,6.695-4.713,8.276-6.001C384.996,226.014,391.318,219.211,391.318,219.211z"/>
			<path style="fill:#CC675D;" d="M370.777,220.061c-0.971,0.13-1.993-0.214-2.688-0.904"/>
			<g>
				<path style="fill:#9C4741;" d="M365.07,225.092c0-0.033,0.393-0.068,1.116-0.104c0.824-0.028,1.855-0.064,3.094-0.106l0.006,0
					l0.011,0.001c2.073,0.158,4.707,0.358,7.678,0.583l-0.168,0.047c1.201-0.874,2.513-1.796,3.896-2.721
					c1.551-1.024,3.043-2.005,4.56-2.754c0.38-0.184,0.77-0.355,1.218-0.439c0.436-0.06,0.888,0.013,1.27,0.19
					c0.769,0.372,1.255,1.006,1.575,1.662l0.074,0.151l-0.139,0.101c-1.605,1.168-2.957,2.152-4.002,2.912
					c-0.964,0.684-1.519,1.053-1.545,1.019c-0.026-0.034,0.48-0.468,1.401-1.209c1.017-0.798,2.331-1.83,3.893-3.056l-0.065,0.252
					c-0.283-0.554-0.756-1.13-1.381-1.41c-0.313-0.138-0.665-0.19-1.02-0.137c-0.335,0.071-0.701,0.224-1.064,0.408
					c-1.456,0.737-2.947,1.725-4.486,2.742c-1.375,0.921-2.691,1.836-3.892,2.693l-0.078,0.055l-0.09-0.009
					c-2.966-0.285-5.596-0.538-7.665-0.737l0.016,0.001c-1.24-0.02-2.272-0.037-3.096-0.051
					C365.464,225.153,365.071,225.125,365.07,225.092z"/>
			</g>
			<g>
				<path style="fill:#CC675D;" d="M381.27,228.903l5.421-4.098c0,0-0.868-1.952-2.652-1.698c-1.783,0.255-5.768,3.335-5.768,3.335
					l-6.018,1.21c0,0-6.452-3.154-11.627-1.885"/>
				<g>
					<path style="fill:#9C4741;" d="M360.625,225.767c-0.007-0.028,0.294-0.114,0.863-0.248c0.572-0.107,1.422-0.217,2.495-0.182
						c2.145,0.046,5.153,0.643,8.378,2.094l-0.157-0.02c1.683-0.342,3.507-0.714,5.405-1.1c0.206-0.041,0.41-0.082,0.61-0.122
						l-0.108,0.049c1.539-1.153,3.052-2.195,4.621-2.944c0.402-0.172,0.797-0.342,1.245-0.413c0.443-0.066,0.902-0.005,1.294,0.168
						c0.791,0.364,1.282,1.014,1.607,1.674l0.073,0.148l-0.137,0.099c-1.615,1.176-2.967,2.16-4.007,2.917
						c-0.962,0.683-1.512,1.05-1.538,1.017c-0.025-0.033,0.478-0.463,1.397-1.202c1.011-0.794,2.327-1.826,3.899-3.06l-0.064,0.247
						c-0.288-0.56-0.768-1.15-1.411-1.423c-0.321-0.135-0.681-0.177-1.043-0.119c-0.36,0.061-0.737,0.223-1.111,0.389
						c-1.49,0.731-3,1.779-4.508,2.913l-0.05,0.038l-0.058,0.012c-0.2,0.04-0.405,0.081-0.61,0.123
						c-1.9,0.377-3.726,0.74-5.411,1.074l-0.079,0.016l-0.078-0.036c-3.127-1.445-6.086-2.104-8.175-2.231
						C361.863,225.484,360.641,225.863,360.625,225.767z"/>
				</g>
			</g>
			<polygon style="fill:#CC675D;" points="350.138,233.142 338.714,246.103 349.557,254.211 357.218,238.765 			"/>
			<polygon style="fill:#E0E0E0;" points="354.332,247.576 358.687,241.368 347.966,233.142 343.745,238.935 			"/>
			<g>
				<path style="fill:#263238;" d="M348.794,242.861c-0.116-0.085,0.742-1.457,1.917-3.063c1.175-1.607,2.221-2.841,2.337-2.756
					c0.116,0.085-0.742,1.456-1.917,3.063C349.956,241.712,348.91,242.946,348.794,242.861z"/>
			</g>
			<circle style="fill:#263238;" cx="352.874" cy="240.795" r="1.038"/>
		</g>
		<path style="fill:#CC675D;" d="M249.435,351.378c0.705-0.047,40.059,0.03,40.059,0.03l24.592,1.603
			c8.575,0.256,11.051-3.848,10.849-6.544c-0.258-3.44-3.885-7.345-3.885-7.345s-20.181-4.178-20.679-3.831
			c-0.498,0.347-49.049,3.891-49.049,3.891L249.435,351.378z"/>
		<path style="fill:#263238;" d="M303.678,299.94c0.362,0.729,39.588,11.144,39.588,11.144l-79.709,27.281
			c0,0-11.432-13.469-11.07-13.469S303.678,299.94,303.678,299.94z"/>
		<path style="fill:#263238;" d="M268.805,327.469v24.206c0,0,50.768,1.144,67.571-2.456c16.803-3.601,26.481-21.196,20.456-30.306
			c-7.071-10.691-24.391-9.583-30.092-8.983C321.039,310.529,268.805,327.469,268.805,327.469z"/>
		<path style="fill:#E0E0E0;" d="M245.111,186.593c-0.935,0-21.277,8.104-21.511,8.779c-0.234,0.675,11.295,68.993,11.295,68.993
			s-2.018,4.771-1.69,8.946c0.463,5.896,2.857,7.262,2.857,7.262l58.69,0.109l6.71-86.545l-19.641-7.544l-5.979-9.389l-26.116,2.126
			L245.111,186.593z"/>
		<path style="fill:#263238;" d="M236.278,275.12c0,0-12.439,14.164-15.366,34.098l44.824,28.897l40.553-29.946
			c0,0-4.147-22.43-11.221-33.049H236.278z"/>
		<path style="fill:#263238;" d="M229.627,302.338c0,0-49.557,2.219-56.888,6.526l81.348,26.321c0,0,11.432-13.469,11.07-13.469
			C264.795,321.716,229.627,302.338,229.627,302.338z"/>
		<path style="opacity:0.2;" d="M249.083,180.599c0,0,3.201,46.432,2.974,53.994c-0.227,7.562-2.267,35.475-7.369,47.263
			c-5.101,11.788-9.99,26.454-9.99,26.454l-8.133-2.858l15.969-40.815l2.834-47.615l1.92-33.247L249.083,180.599z"/>
		<path style="fill:#FF725E;" d="M249.083,180.168l-5.06,6.407l-18.403,6.924l4.528,81.444l-17.575,28.55
			c6.956-0.181,14.022,2.046,13.991,1.959c0.027-0.017,21.057-28.551,21.057-60.135
			C247.623,234.621,249.083,180.168,249.083,180.168z"/>
		<path style="fill:#FF725E;" d="M277.672,179.892l5.06,5.976l20.427,7.112l-3.902,81.31l17.232,29.531
			c-9.363,0.499-17.593,3.995-17.593,3.995c-0.027-0.017-19.516-26.665-17.876-63.692
			C281.492,233.44,277.672,179.892,277.672,179.892z"/>
		<path style="fill:#FF725E;" d="M225.639,193.339c-5.55,2.118-8.393,20.662-11.697,27.871c-2.995,6.535-13.454,29.82-13.454,29.82
			l-11.263-15.577l-15.381,12.316c0,0,17.413,27.35,21.659,29.704c4.247,2.355,6.214,3.175,12.307,1.002
			c6.093-2.173,21.875-34.595,21.875-34.595l0,0L225.639,193.339z"/>
		<g>
			<path style="fill:#263238;" d="M225.638,200.569c0.018-0.001,0.046,0.221,0.084,0.645c0.036,0.479,0.082,1.094,0.139,1.855
				c0.115,1.676,0.273,3.991,0.467,6.824c0.423,5.818,0.999,13.747,1.635,22.507c0.645,8.793,1.183,16.757,1.484,22.527
				c0.156,2.885,0.252,5.221,0.301,6.836c0.017,0.764,0.031,1.38,0.041,1.86c0.004,0.426-0.003,0.649-0.021,0.65
				c-0.018,0.001-0.046-0.221-0.084-0.645c-0.036-0.478-0.082-1.093-0.139-1.855c-0.115-1.676-0.273-3.991-0.466-6.824
				c-0.423-5.818-0.999-13.748-1.636-22.511c-0.645-8.79-1.183-16.753-1.484-22.523c-0.156-2.885-0.252-5.221-0.301-6.836
				c-0.017-0.764-0.031-1.381-0.041-1.861C225.614,200.794,225.621,200.57,225.638,200.569z"/>
		</g>
		<g>
			<path style="fill:#263238;" d="M246.529,259.254c-0.018,0.002-0.07-0.26-0.152-0.763c-0.084-0.552-0.195-1.284-0.334-2.2
				c-0.275-1.969-0.66-4.724-1.132-8.105c-0.912-6.898-2.161-16.338-3.54-26.766c-0.251-1.945-0.497-3.856-0.737-5.721l-0.006-0.044
				l0.009-0.042c1.16-5.425,2.236-10.462,3.173-14.848l0.028,0.159c-1.837-3.013-3.455-5.667-4.792-7.86l-0.058-0.094l0.066-0.085
				c1.531-1.974,2.754-3.549,3.629-4.677c0.405-0.507,0.729-0.913,0.98-1.227c0.226-0.275,0.349-0.414,0.361-0.405
				s-0.088,0.165-0.291,0.457c-0.234,0.327-0.536,0.749-0.914,1.277c-0.847,1.149-2.03,2.755-3.511,4.766l0.008-0.179
				c1.365,2.176,3.017,4.809,4.892,7.798l0.046,0.073l-0.018,0.086c-0.914,4.391-1.964,9.433-3.096,14.864l0.003-0.086
				c0.242,1.865,0.491,3.775,0.743,5.72c1.32,10.436,2.516,19.882,3.389,26.785c0.404,3.39,0.733,6.153,0.968,8.127
				c0.099,0.922,0.178,1.658,0.237,2.213C246.53,258.984,246.547,259.251,246.529,259.254z"/>
		</g>
		<g>
			<path style="fill:#263238;" d="M280.994,250.92c-0.017-0.004,0.022-0.26,0.114-0.743c0.107-0.531,0.248-1.232,0.425-2.108
				c0.404-1.881,0.967-4.508,1.658-7.73c1.46-6.565,3.457-15.543,5.662-25.461c0.081-0.357,0.161-0.713,0.24-1.063l0.016,0.162
				c-2.356-5.37-4.572-10.421-6.522-14.868l-0.049-0.112l0.064-0.102c1.822-2.911,3.465-5.536,4.884-7.803l0.019,0.216
				c-2.097-2.383-3.798-4.316-5.016-5.7c-0.555-0.647-1-1.165-1.337-1.559c-0.301-0.36-0.452-0.554-0.439-0.565
				s0.19,0.159,0.516,0.497c0.356,0.378,0.824,0.874,1.409,1.495c1.247,1.357,2.989,3.254,5.137,5.591l0.091,0.099l-0.072,0.117
				c-1.395,2.282-3.01,4.925-4.801,7.855l0.015-0.214c1.967,4.439,4.202,9.482,6.578,14.844l0.035,0.078l-0.019,0.084
				c-0.079,0.35-0.159,0.706-0.24,1.063c-2.264,9.905-4.313,18.871-5.811,25.427c-0.758,3.207-1.377,5.822-1.82,7.694
				c-0.216,0.867-0.389,1.56-0.521,2.086C281.086,250.676,281.012,250.924,280.994,250.92z"/>
		</g>
		<g>
			<path style="fill:#263238;" d="M201.258,263.724c-0.155-0.009-0.025-3.151-0.301-7.004c-0.261-3.856-0.824-6.948-0.672-6.979
				c0.067-0.014,0.294,0.744,0.545,1.996c0.251,1.252,0.51,3.001,0.647,4.947c0.134,1.945,0.12,3.713,0.044,4.987
				C201.447,262.946,201.326,263.729,201.258,263.724z"/>
		</g>
		<path style="fill:#FF725E;" d="M302.112,192.62c5.88,1.595,12.419,20.05,15.004,26.751c2.585,6.701,13.564,30.939,13.564,30.939
			l11.263-15.577l15.382,12.316c0,0-17.413,27.35-21.659,29.704c-4.247,2.355-6.214,3.175-12.307,1.002
			c-6.093-2.173-22.806-35.711-22.806-35.711l0,0L302.112,192.62z"/>
		<g>
			<path style="fill:#263238;" d="M329.589,262.814c-0.068,0.004-0.188-0.778-0.263-2.053c-0.076-1.274-0.09-3.042,0.044-4.987
				c0.136-1.946,0.396-3.695,0.647-4.947c0.251-1.252,0.478-2.01,0.545-1.997c0.152,0.031-0.412,3.123-0.672,6.979
				C329.614,259.664,329.743,262.805,329.589,262.814z"/>
		</g>
		<g>
			<path style="fill:#263238;" d="M301.353,196.73c0.018,0,0.031,0.27,0.039,0.784c0.003,0.563,0.006,1.31,0.01,2.246
				c-0.016,2.005-0.039,4.813-0.068,8.259c-0.085,6.973-0.247,16.605-0.502,27.242c-0.255,10.641-0.561,20.271-0.865,27.239
				c-0.146,3.484-0.302,6.302-0.428,8.249c-0.069,0.934-0.124,1.679-0.165,2.24c-0.043,0.512-0.075,0.78-0.093,0.779
				c-0.018-0.001-0.022-0.271-0.012-0.785c0.017-0.562,0.039-1.309,0.068-2.244c0.064-2.003,0.153-4.809,0.262-8.252
				c0.184-7.018,0.435-16.624,0.713-27.238c0.255-10.612,0.486-20.218,0.654-27.237c0.097-3.445,0.176-6.251,0.233-8.255
				c0.037-0.935,0.066-1.682,0.088-2.244C301.313,196.999,301.335,196.73,301.353,196.73z"/>
		</g>
		<g>
			<g>
				<path style="fill:#263238;" d="M275.286,98.049c1.364-1.412,3.42-2.127,5.369-1.867c0.793,0.106,1.659,0.35,2.349-0.055
					c0.493-0.29,0.758-0.841,1.128-1.276c1.136-1.337,3.475-1.382,4.662-0.09c0.292,0.318,0.529,0.706,0.91,0.909
					c1.543,0.82,3.274-2.063,4.808-1.227c-0.679,0.3-1.351,0.704-1.734,1.339c-0.382,0.635-0.381,1.548,0.173,2.041
					c1.438,1.279,3.839-1.539,5.444-0.476c0.865,0.573,0.974,2.049,1.982,2.299c0.39,0.097,0.795-0.037,1.194-0.078
					c1.343-0.137,2.689,0.965,2.815,2.305c0.108,1.145-0.482,2.539,0.374,3.311c0.53,0.478,1.34,0.407,2.047,0.306
					c-0.022,1.05-0.29,2.095-0.776,3.028c1.863,1.083,2.52,3.802,1.358,5.612c0.905,0.718,1.827,1.468,2.39,2.476
					c0.562,1.008,0.686,2.346-0.002,3.272c-0.156,0.211-0.353,0.4-0.445,0.645c-0.1,0.266-0.063,0.562-0.008,0.84
					c0.211,1.074,0.676,2.116,0.634,3.21c-0.041,1.094-0.865,2.287-1.957,2.185c-0.255-0.024-0.535-0.111-0.751,0.027
					c-0.163,0.104-0.231,0.305-0.267,0.494c-0.149,0.772,0.038,1.564,0.139,2.344c0.101,0.78,0.096,1.638-0.371,2.272
					c-0.467,0.634-1.544,0.847-2.033,0.229c0.303,1.22,0.606,2.44,0.909,3.66c0.18,0.725,0.322,1.601-0.21,2.127
					c-0.698,0.689-1.945,0.132-2.464-0.7c-0.519-0.832-0.652-1.861-1.193-2.679c-0.221-0.334-0.508-0.63-0.656-1.002
					c-0.117-0.294-0.154-0.645-0.397-0.848c-0.489-0.408-1.251,0.269-1.189,0.902c0.062,0.633,0.562,1.117,0.959,1.615
					c0.397,0.497,0.716,1.202,0.386,1.746c-0.159,0.263-0.444,0.433-0.596,0.699c-0.526,0.923,0.831,1.836,0.983,2.886
					c0.112,0.777-0.459,1.473-1.021,2.022c-0.686,0.67-2.007,1.206-2.427,0.345c-0.146-0.299-0.091-0.659-0.201-0.972
					c-0.129-0.367-0.462-0.616-0.749-0.879c-0.714-0.654-1.228-1.521-1.46-2.459c0.802,1.003,1.645,2.328,1.061,3.471
					c-0.244,0.478-0.696,0.807-1.072,1.191c-0.738,0.752-1.2,1.736-1.928,2.498c-0.727,0.762-1.918,1.277-2.835,0.756
					c0.312,1.012-0.156,2.208-1.073,2.741c-0.917,0.533-2.192,0.35-2.921-0.419c-0.2-0.211-0.374-0.468-0.643-0.578
					c-0.29-0.119-0.619-0.038-0.928,0.016c-1.855,0.323-3.862-0.498-4.955-2.026c0.315-0.108,0.63-0.216,0.946-0.324
					c-1.85-0.254-3.778-0.537-5.311-1.602s-2.515-3.166-1.699-4.841c0.353-0.726,1.024-1.469,0.729-2.22
					c-0.204-0.518-0.786-0.76-1.311-0.949c-2.196-0.79-4.393-1.579-6.589-2.369c-1.066-0.383-2.188-0.806-2.893-1.691
					c-0.704-0.885-0.757-2.385,0.191-3.004c-0.501-1.021-1.299-1.894-2.271-2.487c-1.093-0.666-2.372-0.971-3.494-1.587
					c-1.122-0.616-2.141-1.719-2.05-2.993c0.09-1.274,1.862-2.246,2.735-1.311c-0.161-1.921-3.591-2.067-3.871-3.974
					c-0.227-1.55,1.765-2.339,2.798-3.519c-0.205-0.539-0.753-0.888-0.974-1.421c-0.463-1.118,0.706-2.223,1.805-2.735
					c1.099-0.512,2.439-1.029,2.714-2.207c0.281-1.205-0.748-2.578-0.095-3.631c0.362-0.583,1.22-0.789,1.809-0.433
					c0.899-2.206,5.065-0.509,6.298-2.548c0.098-0.161,0.17-0.348,0.147-0.535c-0.02-0.162-0.109-0.306-0.209-0.435
					c-0.477-0.61-1.22-0.94-1.829-1.419c-0.609-0.478-1.118-1.275-0.836-1.995c0.283-0.72,1.657-0.686,1.635,0.087
					c0.793-0.697,2.251-0.32,2.604,0.673c0.541-0.643,1.59-0.627,2.31-0.193s1.19,1.174,1.634,1.888"/>
			</g>
			<g>
				<path style="fill:#FF725E;" d="M285.615,122.572c-0.738-3.166-3.128-5.702-5.752-7.63c-1.1-0.808-2.305-1.558-3.659-1.748
					c-1.353-0.191-2.886,0.308-3.552,1.498l0.222,2.269c-0.23,3.615,2.615,6.607,4,9.956c0.603,1.456,1.103,3.209,2.564,3.811
					c0.766,0.315,1.65,0.221,2.429-0.062C284.931,129.555,286.353,125.738,285.615,122.572z"/>
			</g>
			<g>
				<path style="fill:#263238;" d="M286.209,139.264c1.994-2.753,1.57-6.966-0.933-9.269c1.28-1.708,0.723-4.266-0.681-5.874
					c-1.404-1.609-3.443-2.494-5.411-3.328c-1.215-4.846-6.815-8.11-11.648-6.788c-2.651-3.639-8.073-4.057-12.363-2.667
					c-1.048,0.34-2.092,0.769-3.194,0.798c-0.808,0.021-1.604-0.175-2.409-0.258c-4.423-0.456-8.699,2.769-10.291,6.908
					c-0.255,0.662-0.459,1.357-0.877,1.93c-0.549,0.752-1.402,1.21-2.123,1.8c-1.559,1.276-2.512,3.257-2.535,5.267
					c-0.019,1.707,0.581,3.501-0.092,5.071c-0.337,0.787-0.97,1.434-1.227,2.251c-0.742,2.367,1.936,4.682,1.529,7.129
					c-0.083,0.499-0.293,0.968-0.417,1.459c-0.251,1.004-0.122,2.098,0.358,3.016c0.37,0.709,0.951,1.35,1.022,2.145
					c0.054,0.604-0.198,1.188-0.301,1.785c-0.253,1.461,3.062,6.964,4.345,7.714l37.618-0.816c2.828-0.665,5.067-3.307,5.252-6.198
					c0.031-0.481,0.022-1.001,0.308-1.39c0.244-0.331,0.65-0.491,1.006-0.696c2.381-1.37,2.572-4.693,2.233-7.414
					c-0.048-0.381-0.099-0.771-0.014-1.145C285.489,140.151,285.882,139.716,286.209,139.264z"/>
			</g>
			<g>
				<path style="fill:#CC675D;" d="M275.437,139.647c-0.093-6.638-4.502-14.135-11.213-17.177c-4.231-1.918-7.483-1.831-9.682-2.019
					c-4.926-0.42-8.812,2.126-8.812,2.126c-2.058,0.549-9.441,7.715-9.603,15.251c-0.181,8.372-0.07,18.6,1.181,24.79
					c2.516,12.446,12.215,13.642,12.215,13.642c0.001-0.019-0.053,4.24-0.053,4.24l13.991,11.496l12.791-13.55L275.437,139.647z"/>
			</g>
			<g>
				<path style="fill:#9C4741;" d="M255.913,160.425c-0.072-0.61-0.404-1.153-0.832-1.528c-0.856-0.751-2.12-0.84-3.055-0.215
					c-0.935,0.625-1.068,1.706-0.91,2.923l0,0c0.51,0.719,0.884,1.43,1.764,1.518c0.137,0.014,0.274,0.02,0.412,0.019
					c0.668-0.008,1.351-0.224,1.867-0.708C255.676,161.95,256.002,161.177,255.913,160.425z"/>
			</g>
			<g>
				<g>
					<g>
						<g>
							<g>
								<g>
									<g>
										<path style="fill:#263238;" d="M245.598,146.947c-0.197-0.213-1.432,0.671-3.168,0.642
											c-1.734-0.005-2.995-0.913-3.187-0.704c-0.094,0.093,0.105,0.474,0.654,0.884c0.54,0.409,1.466,0.811,2.548,0.823
											c1.081,0.009,1.996-0.374,2.525-0.773C245.509,147.419,245.695,147.042,245.598,146.947z"/>
									</g>
								</g>
							</g>
						</g>
					</g>
				</g>
			</g>
			<g>
				<g>
					<g>
						<g>
							<g>
								<g>
									<path style="fill:#263238;" d="M249.926,155.751c0.004-0.098-1.082-0.24-2.838-0.39c-0.445-0.028-0.868-0.098-0.955-0.396
										c-0.117-0.315,0.048-0.798,0.241-1.321c0.372-1.086,0.761-2.224,1.17-3.416c1.62-4.861,2.773-8.852,2.576-8.915
										c-0.197-0.064-1.67,3.826-3.29,8.687c-0.388,1.198-0.76,2.341-1.114,3.434c-0.147,0.509-0.411,1.09-0.158,1.742
										c0.133,0.325,0.468,0.551,0.755,0.616c0.288,0.075,0.537,0.069,0.757,0.073
										C248.833,155.887,249.924,155.85,249.926,155.751z"/>
								</g>
							</g>
						</g>
					</g>
				</g>
			</g>
			<g>
				<g>
					<g>
						<g>
							<g>
								<path style="fill:#9C4741;" d="M249.522,176.26c0,0,8.533,0.195,16.701-5.17c0,0-4.114,9.016-16.741,8.363L249.522,176.26z"
									/>
							</g>
						</g>
					</g>
				</g>
			</g>
			<g>
				<g>
					<g>
						<g>
							<g>
								<g>
									<g>
										<g>
											<path style="fill:#263238;" d="M238.799,138.754c0.309,0.41,1.625,0.073,3.182,0.137
												c1.559,0.015,2.859,0.419,3.185,0.024c0.144-0.192-0.042-0.596-0.598-0.999c-0.547-0.401-1.48-0.755-2.551-0.783
												c-1.071-0.026-2.016,0.279-2.579,0.652C238.866,138.16,238.664,138.554,238.799,138.754z"/>
										</g>
									</g>
								</g>
							</g>
						</g>
					</g>
				</g>
			</g>
			<g>
				<g>
					<g>
						<g>
							<g>
								<g>
									<g>
										<path style="fill:#263238;" d="M256.301,146.685c0.2-0.21,1.422,0.691,3.158,0.687c1.734,0.02,3.008-0.871,3.196-0.658
											c0.093,0.094-0.111,0.472-0.665,0.875c-0.546,0.401-1.478,0.791-2.559,0.787c-1.081-0.006-1.991-0.403-2.514-0.809
											C256.384,147.158,256.203,146.779,256.301,146.685z"/>
									</g>
								</g>
							</g>
						</g>
					</g>
				</g>
			</g>
			<g>
				<g>
					<g>
						<g>
							<g>
								<g>
									<g>
										<g>
											<path style="fill:#263238;" d="M263.278,138.322c-0.34,0.394-1.681-0.008-3.292-0.021
												c-1.61-0.063-2.973,0.276-3.288-0.134c-0.139-0.199,0.075-0.594,0.669-0.968c0.586-0.373,1.567-0.68,2.673-0.654
												c1.107,0.027,2.067,0.379,2.628,0.779C263.239,137.725,263.427,138.129,263.278,138.322z"/>
										</g>
									</g>
								</g>
							</g>
						</g>
					</g>
				</g>
			</g>
			<g>
				<g>
					<g>
						<g>
							<g>
								<path style="fill:#CC675D;" d="M273.906,151.604c-0.036-0.933,0.954-3.178,1.872-3.36c2.452-0.485,6.909-0.472,7.21,5.775
									c0.411,8.54-8.274,7.19-8.301,6.946C274.667,160.775,274.032,154.826,273.906,151.604z"/>
							</g>
						</g>
					</g>
				</g>
			</g>
			<g>
				<g>
					<g>
						<g>
							<g>
								<g>
									<path style="fill:#9C4741;" d="M276.901,157.732c0.036-0.029,0.154,0.097,0.412,0.2c0.252,0.1,0.678,0.158,1.117-0.031
										c0.889-0.374,1.582-1.843,1.549-3.384c-0.016-0.779-0.214-1.511-0.52-2.11c-0.292-0.612-0.718-1.029-1.178-1.088
										c-0.458-0.083-0.768,0.204-0.861,0.449c-0.103,0.245-0.04,0.413-0.085,0.429c-0.023,0.023-0.191-0.134-0.139-0.49
										c0.027-0.171,0.118-0.378,0.312-0.552c0.197-0.176,0.495-0.276,0.815-0.257c0.663,0.014,1.286,0.591,1.622,1.25
										c0.372,0.659,0.615,1.481,0.632,2.355c0.028,1.723-0.778,3.376-1.999,3.792c-0.595,0.185-1.106,0.028-1.376-0.161
										C276.926,157.938,276.872,157.749,276.901,157.732z"/>
								</g>
							</g>
						</g>
					</g>
				</g>
			</g>
			<g>
				<path style="fill:#263238;" d="M234.229,138.025c1.687-1.149,2.732-2.661,2.541-4.69c1.162,0.294,2.267-1.227,2.896-2.244
					s1.429-1.55,1.329-2.741c-0.02-0.235-0.045-0.484,0.057-0.697c0.16-0.334,0.564-0.458,0.914-0.583
					c1.804-0.643,3.222-2.262,3.618-4.13c1.869,0.727,3.921,0.979,5.912,0.728c0.94,1.246,2.544,1.962,4.103,1.831
					c1.559-0.131,3.02-1.105,3.737-2.491c0.562,1.048,1.702,1.688,2.868,1.933c1.166,0.245,2.374,0.147,3.562,0.049
					c-0.42,2.316,1.179,4.817,3.461,5.417c0.309,0.081,0.665,0.159,0.817,0.439c0.158,0.291,0.012,0.644-0.094,0.957
					c-0.668,1.984,0.732,4.395,2.792,4.804c-1.357,1.14-1.11,3.64,0.444,4.494c0.319,0.175,0.735,0.384,0.702,0.746
					c-0.013,0.137-0.094,0.258-0.173,0.372c-0.604,0.871-1.202,1.82-1.236,2.878c-0.035,1.058,0.729,2.213,1.791,2.216
					c-0.536,0.516-1.03,1.172-1.012,1.915c0.018,0.743,0.802,1.469,1.486,1.173c0.291-0.126,4.524-1.135,4.701-1.397
					c2.29-3.379-0.907-6.881-1.313-10.939c-0.406-4.058-1.992-7.94-4.176-11.389c-0.916-1.447-1.947-2.836-3.211-3.993
					c-1.441-1.319-3.151-2.305-4.852-3.267c-2.22-1.255-4.502-2.505-7.008-2.988c-4.668-0.9-9.405,0.97-13.636,3.132
					c-1.609,0.822-3.211,1.705-4.543,2.925c-1.593,1.46-2.732,3.342-3.713,5.265c-1.418,2.778-2.568,5.759-2.745,8.871"/>
			</g>
			<g>
				<path style="fill:#455A64;" d="M232.427,135.104c0,0,0.072-0.356,0.425-0.935c0.17-0.292,0.413-0.632,0.639-1.066
					c0.22-0.434,0.388-0.981,0.417-1.615c0.043-0.633-0.036-1.339-0.121-2.112c-0.085-0.77-0.177-1.628-0.033-2.539
					c0.135-0.906,0.463-1.853,1.02-2.735c0.278-0.44,0.613-0.864,1.006-1.251c0.39-0.391,0.852-0.725,1.314-1.057
					c0.458-0.336,0.922-0.695,1.258-1.171c0.337-0.476,0.534-1.054,0.748-1.64c0.43-1.182,1.074-2.346,1.951-3.384
					c0.871-1.037,1.941-1.987,3.22-2.677c0.627-0.368,1.323-0.624,2.032-0.854c0.723-0.186,1.471-0.338,2.242-0.342
					c0.383-0.017,0.771,0.021,1.158,0.046c0.386,0.044,0.767,0.11,1.148,0.162c0.763,0.12,1.53,0.112,2.29-0.088
					c0.761-0.181,1.503-0.486,2.287-0.714c0.778-0.247,1.59-0.405,2.412-0.523c0.824-0.117,1.665-0.143,2.511-0.122
					c0.846,0.037,1.695,0.159,2.532,0.363c1.658,0.434,3.288,1.289,4.426,2.669c0.112,0.137,0.224,0.273,0.334,0.408l-0.139-0.049
					c2.569-0.697,5.301-0.106,7.437,1.197c2.151,1.299,3.785,3.365,4.365,5.685l-0.071-0.083c1.055,0.448,2.099,0.9,3.066,1.464
					c0.965,0.561,1.856,1.242,2.538,2.091c0.676,0.853,1.105,1.869,1.231,2.905c0.13,1.032-0.093,2.111-0.705,2.92l-0.013-0.143
					c1.271,1.175,1.952,2.776,2.145,4.309c0.194,1.54-0.072,3.058-0.725,4.28c-0.147,0.314-0.352,0.589-0.536,0.868
					c-0.199,0.267-0.403,0.518-0.56,0.785c-0.158,0.267-0.259,0.553-0.272,0.849c-0.018,0.296,0.026,0.592,0.059,0.886
					c0.136,1.176,0.154,2.27,0.036,3.246c-0.119,0.974-0.368,1.833-0.747,2.501c-0.369,0.672-0.847,1.14-1.278,1.438
					c-0.431,0.308-0.818,0.436-1.029,0.603c-0.22,0.154-0.294,0.277-0.302,0.27c0,0,0.065-0.13,0.282-0.296
					c0.209-0.178,0.596-0.319,1.011-0.629c0.419-0.302,0.878-0.767,1.232-1.431c0.363-0.659,0.599-1.506,0.707-2.469
					c0.107-0.965,0.082-2.049-0.062-3.214c-0.035-0.291-0.082-0.594-0.066-0.912c0.011-0.319,0.122-0.641,0.288-0.922
					c0.165-0.283,0.371-0.54,0.565-0.803c0.177-0.274,0.375-0.541,0.517-0.848c0.629-1.193,0.881-2.674,0.685-4.175
					c-0.194-1.494-0.865-3.047-2.096-4.177l-0.071-0.065l0.058-0.077c0.572-0.761,0.782-1.777,0.655-2.765
					c-0.123-0.991-0.54-1.971-1.19-2.787c-0.659-0.816-1.528-1.48-2.477-2.029c-0.952-0.552-1.986-0.998-3.042-1.444l-0.056-0.024
					l-0.015-0.059c-0.566-2.249-2.158-4.261-4.259-5.528c-2.086-1.271-4.749-1.842-7.236-1.166l-0.081,0.022l-0.058-0.07
					c-0.107-0.13-0.215-0.262-0.323-0.394c-1.097-1.331-2.673-2.161-4.292-2.587c-0.817-0.199-1.648-0.32-2.478-0.357
					c-0.83-0.022-1.656,0.003-2.467,0.117c-0.808,0.116-1.607,0.27-2.373,0.512c-0.77,0.222-1.517,0.528-2.302,0.714
					c-0.391,0.094-0.791,0.158-1.194,0.171c-0.403,0.012-0.8-0.029-1.187-0.083c-0.387-0.054-0.766-0.12-1.143-0.164
					c-0.377-0.025-0.752-0.063-1.125-0.047c-0.749,0.003-1.478,0.149-2.183,0.328c-0.692,0.223-1.373,0.471-1.987,0.829
					c-1.253,0.671-2.306,1.6-3.165,2.615c-0.865,1.017-1.5,2.155-1.928,3.317c-0.216,0.581-0.419,1.176-0.779,1.681
					c-0.36,0.506-0.844,0.872-1.306,1.208c-0.468,0.333-0.918,0.655-1.3,1.034c-0.385,0.375-0.715,0.786-0.989,1.215
					c-0.549,0.858-0.877,1.784-1.016,2.67c-0.147,0.889-0.065,1.733,0.013,2.504c0.078,0.773,0.151,1.487,0.099,2.131
					c-0.037,0.645-0.217,1.206-0.449,1.644c-0.237,0.437-0.486,0.772-0.663,1.058c-0.181,0.283-0.298,0.511-0.367,0.668
					C232.459,135.022,232.433,135.107,232.427,135.104z"/>
			</g>
			<g>
				<path style="fill:#455A64;" d="M263.44,112.282c-0.012,0.02-0.231-0.121-0.656-0.308c-0.423-0.184-1.065-0.41-1.889-0.471
					c-0.817-0.066-1.825,0.041-2.801,0.518c-0.969,0.473-1.899,1.306-2.474,2.413c-0.165,0.318-0.305,0.655-0.389,0.983
					c-0.08,0.326-0.08,0.67,0.097,0.897l0.22,0.283l-0.35-0.084c-0.961-0.231-1.932-0.013-2.638,0.417
					c-0.718,0.429-1.159,1.069-1.392,1.637c-0.236,0.574-0.279,1.08-0.28,1.42c0.001,0.342,0.036,0.529,0.017,0.533
					c-0.007,0.002-0.022-0.044-0.044-0.132c-0.023-0.088-0.046-0.222-0.059-0.397c-0.026-0.347-0.009-0.874,0.217-1.482
					c0.222-0.6,0.67-1.293,1.428-1.763c0.743-0.469,1.773-0.717,2.812-0.475l-0.129,0.198c-0.251-0.325-0.233-0.755-0.148-1.11
					c0.093-0.364,0.234-0.705,0.409-1.043c0.603-1.162,1.58-2.026,2.6-2.509c1.028-0.487,2.08-0.577,2.921-0.485
					c0.849,0.087,1.498,0.347,1.916,0.562c0.209,0.109,0.366,0.205,0.466,0.278C263.395,112.233,263.445,112.274,263.44,112.282z"/>
			</g>
			<g>
				<path style="fill:#455A64;" d="M277.725,121.554c0.01,0.011-0.086,0.128-0.288,0.317c-0.202,0.187-0.51,0.45-0.944,0.709
					c-0.432,0.254-1.001,0.51-1.69,0.577c-0.677,0.067-1.489-0.057-2.153-0.56l0.189-0.036c-0.077,0.118-0.157,0.238-0.238,0.36
					c-0.087,0.118-0.185,0.231-0.279,0.348c-0.606,0.674-1.355,1.148-2.09,1.41c-0.734,0.27-1.444,0.358-2.032,0.334
					c-0.59-0.023-1.054-0.149-1.362-0.255c-0.304-0.121-0.463-0.207-0.456-0.221c0.016-0.054,0.676,0.288,1.821,0.294
					c0.567,0,1.246-0.103,1.944-0.374c0.699-0.263,1.407-0.721,1.98-1.359c0.089-0.111,0.182-0.217,0.264-0.328
					c0.077-0.115,0.152-0.229,0.226-0.339l0.08-0.12l0.109,0.084c0.593,0.455,1.339,0.585,1.976,0.535
					c0.645-0.048,1.196-0.272,1.625-0.499C277.267,121.957,277.695,121.518,277.725,121.554z"/>
			</g>
			<g>
				<path style="fill:#455A64;" d="M282.56,129.302c0.009,0.002,0.004,0.055-0.015,0.158c-0.026,0.1-0.069,0.25-0.175,0.421
					c-0.198,0.343-0.65,0.768-1.345,0.968c-0.698,0.21-1.577,0.103-2.458-0.171c-0.442-0.139-0.901-0.277-1.373-0.48
					c-0.459-0.203-0.963-0.502-1.225-1.03c-0.02-0.046-0.04-0.093-0.059-0.135l0.204,0.053c-0.8,0.675-1.629,1.267-2.483,1.619
					c-0.848,0.365-1.71,0.45-2.397,0.34c-0.692-0.103-1.209-0.374-1.509-0.615c-0.153-0.118-0.259-0.226-0.322-0.304
					c-0.065-0.078-0.095-0.121-0.088-0.127c0.017-0.016,0.158,0.143,0.469,0.351c0.307,0.208,0.811,0.441,1.474,0.516
					c0.661,0.082,1.47-0.016,2.281-0.378c0.815-0.35,1.617-0.93,2.409-1.599l0.133-0.112l0.072,0.165
					c0.015,0.036,0.032,0.074,0.049,0.113c0.215,0.437,0.657,0.715,1.096,0.911c0.444,0.195,0.909,0.342,1.34,0.484
					c0.861,0.28,1.688,0.395,2.34,0.222c0.656-0.166,1.097-0.54,1.309-0.847C282.507,129.517,282.534,129.294,282.56,129.302z"/>
			</g>
			<g>
				<path style="fill:#455A64;" d="M290.552,98.443c0.001,0.018-0.148,0.012-0.404,0.088c-0.253,0.077-0.617,0.263-0.931,0.652
					c-0.316,0.383-0.574,0.957-0.582,1.657c-0.024,0.698,0.169,1.477,0.411,2.318l0.039,0.136l-0.144,0.001
					c-0.963,0.008-2.036,0.323-2.928,1.018c-0.893,0.682-1.544,1.811-1.508,3.054c0.004,1.129,0.536,2.206,1.358,2.798l0.297,0.214
					l-0.366,0.011c-1.324,0.041-2.486,0.711-3.194,1.55c-0.726,0.845-0.978,1.854-0.993,2.665c-0.016,0.822,0.188,1.463,0.362,1.876
					c0.178,0.415,0.321,0.619,0.304,0.631c-0.006,0.004-0.045-0.044-0.115-0.142c-0.071-0.096-0.164-0.248-0.266-0.454
					c-0.201-0.41-0.436-1.061-0.442-1.912c-0.007-0.838,0.235-1.901,0.986-2.801c0.732-0.891,1.943-1.609,3.351-1.661l-0.069,0.225
					c-0.898-0.639-1.466-1.795-1.47-2.996c-0.013-0.653,0.14-1.302,0.435-1.86c0.29-0.561,0.712-1.025,1.178-1.392
					c0.946-0.727,2.072-1.044,3.081-1.04l-0.105,0.137c-0.231-0.845-0.419-1.651-0.378-2.382c0.023-0.731,0.316-1.345,0.662-1.731
					c0.346-0.398,0.741-0.576,1.01-0.635c0.136-0.03,0.243-0.039,0.314-0.035C290.516,98.433,290.552,98.437,290.552,98.443z"/>
			</g>
			<g>
				<path style="fill:#455A64;" d="M306.567,116.361c0.003,0.006-0.043,0.036-0.137,0.088c-0.095,0.048-0.23,0.134-0.42,0.213
					c-0.376,0.166-0.953,0.363-1.711,0.457c-0.754,0.09-1.695,0.076-2.705-0.218c-1.009-0.275-2.083-0.851-2.964-1.774l0.194-0.023
					c-0.707,1.285-2.035,2.494-3.755,2.786c-1.818,0.306-3.663-0.643-4.356-2.096l0.222-0.018c-0.189,0.602-0.552,1.107-0.974,1.49
					c-0.424,0.385-0.902,0.657-1.374,0.848c-0.957,0.374-1.87,0.402-2.598,0.374c-0.733-0.035-1.305-0.136-1.694-0.206
					c-0.389-0.073-0.596-0.125-0.594-0.137c0.002-0.014,0.214,0.012,0.605,0.061c0.391,0.046,0.963,0.123,1.686,0.137
					c0.717,0.007,1.609-0.042,2.518-0.415c0.89-0.366,1.846-1.097,2.195-2.222l0.09-0.291l0.132,0.273
					c0.648,1.343,2.394,2.237,4.099,1.947c1.619-0.272,2.899-1.42,3.586-2.648l0.081-0.144l0.114,0.121
					c0.838,0.891,1.868,1.461,2.844,1.742c0.976,0.301,1.892,0.333,2.632,0.266C305.779,116.821,306.549,116.306,306.567,116.361z"
					/>
			</g>
			<g>
				<path style="fill:#455A64;" d="M298.069,129.206c0.006,0.002-0.011,0.067-0.094,0.159c-0.083,0.091-0.247,0.191-0.477,0.235
					c-0.458,0.078-1.131,0.033-1.906-0.24c-0.765-0.275-1.632-0.826-2.251-1.731c-0.615-0.893-0.961-2.123-0.765-3.373l0.004-0.026
					l0.19,0.133c-1.106,0.609-2.35,0.749-3.416,0.605c-1.077-0.14-1.978-0.569-2.647-1.019c-0.674-0.454-1.134-0.928-1.423-1.271
					c-0.289-0.345-0.418-0.559-0.406-0.568c0.042-0.043,0.593,0.823,1.928,1.686c0.665,0.419,1.543,0.814,2.578,0.936
					c1.026,0.126,2.212-0.018,3.26-0.595l0.225-0.124l-0.035,0.258l-0.003,0.025c-0.185,1.177,0.134,2.346,0.707,3.2
					c0.575,0.864,1.389,1.407,2.118,1.693c0.732,0.284,1.396,0.356,1.824,0.312C297.928,129.45,298.055,129.187,298.069,129.206z"/>
			</g>
			<g>
				<path style="fill:#455A64;" d="M271.833,99.48c0.065,0.009-0.432,0.985-0.285,2.639c0.079,0.813,0.344,1.782,0.94,2.686
					c0.596,0.898,1.536,1.704,2.694,2.175c0.652,0.265,1.331,0.403,1.978,0.428l0.159,0.006l-0.041,0.152
					c-0.263,0.971-0.3,1.929-0.205,2.771c0.1,0.843,0.32,1.573,0.573,2.148c0.124,0.287,0.252,0.547,0.38,0.749
					c0.132,0.199,0.305,0.325,0.467,0.33c0.163,0.01,0.284-0.056,0.34-0.118c0.058-0.063,0.067-0.113,0.077-0.11
					c0.004,0,0.012,0.055-0.042,0.138c-0.053,0.082-0.186,0.174-0.378,0.177c-0.197,0.01-0.416-0.134-0.568-0.344
					c-0.151-0.213-0.286-0.465-0.425-0.756c-0.279-0.579-0.524-1.323-0.642-2.188c-0.113-0.864-0.087-1.854,0.179-2.862l0.118,0.158
					c-0.678-0.022-1.388-0.164-2.068-0.441c-1.209-0.491-2.185-1.339-2.796-2.283c-0.611-0.951-0.865-1.961-0.923-2.801
					c-0.063-0.845,0.072-1.527,0.197-1.978c0.07-0.225,0.129-0.397,0.182-0.509C271.795,99.535,271.825,99.477,271.833,99.48z"/>
			</g>
			<g>
				<path style="fill:#263238;" d="M254.897,157.788c-0.245-0.036-0.397,1.604-1.911,2.642c-1.512,1.042-3.25,0.701-3.283,0.929
					c-0.032,0.101,0.362,0.354,1.1,0.44c0.724,0.09,1.806-0.047,2.732-0.682c0.924-0.637,1.38-1.557,1.497-2.225
					C255.157,158.212,255.01,157.789,254.897,157.788z"/>
			</g>
		</g>
		<g>
			<path style="fill:#455A64;" d="M268.805,316.876c0,0.031-0.48,0.061-1.371,0.089c-0.973,0.019-2.256,0.044-3.833,0.076
				l-0.162,0.003l-0.002-0.168c-0.059-4.097-0.096-10.451-0.096-17.567c0-6.29,0.029-11.983,0.076-16.104
				c0.034-1.996,0.062-3.643,0.083-4.88c0.031-1.152,0.065-1.789,0.101-1.789c0.036,0,0.07,0.637,0.101,1.789
				c0.021,1.237,0.049,2.884,0.083,4.88c0.047,4.121,0.076,9.815,0.076,16.104c0,7.116-0.037,13.47-0.096,17.567l-0.165-0.165
				c1.578,0.031,2.861,0.057,3.833,0.076C268.325,316.815,268.805,316.845,268.805,316.876z"/>
		</g>
		<path style="fill:#455A64;" d="M268.952,279.49c0.591,0.591,0.591,1.548,0,2.139c-0.59,0.591-1.548,0.591-2.139,0
			c-0.591-0.59-0.591-1.548,0-2.139C267.404,278.899,268.362,278.899,268.952,279.49z"/>
		<g>
			<path style="fill:#263238;" d="M277.672,190.941c0.019,0.014-0.132,0.244-0.431,0.662c-0.349,0.472-0.788,1.066-1.324,1.792
				c-1.219,1.595-2.871,3.758-4.839,6.335l-0.161,0.211l-0.18-0.2c-2.181-2.43-4.741-5.281-7.482-8.335l0.398-0.011
				c-0.123,0.155-0.256,0.322-0.389,0.49c-2.409,3.014-4.678,5.852-6.646,8.314l-0.173,0.217l-0.179-0.207
				c-2.337-2.699-4.311-4.979-5.765-6.659c-0.648-0.771-1.178-1.404-1.596-1.9c-0.363-0.445-0.548-0.69-0.529-0.707
				c0.019-0.016,0.24,0.197,0.637,0.611c0.442,0.475,1.005,1.078,1.692,1.815c1.49,1.648,3.513,3.886,5.906,6.534l-0.352,0.009
				c1.954-2.473,4.207-5.324,6.599-8.352c0.133-0.168,0.266-0.335,0.389-0.49l0.193-0.243l0.205,0.232
				c2.72,3.072,5.26,5.941,7.425,8.385l-0.341,0.011c2.028-2.53,3.73-4.654,4.986-6.22c0.575-0.694,1.047-1.264,1.421-1.716
				C277.467,191.128,277.654,190.927,277.672,190.941z"/>
		</g>
		<g>
			<path style="fill:#263238;" d="M264.814,277.624c-0.018,0-0.037-0.299-0.056-0.869c-0.014-0.616-0.034-1.447-0.059-2.492
				c-0.045-2.214-0.107-5.332-0.185-9.165c-0.21-7.781-0.497-18.449-0.815-30.233c-0.34-11.811-0.593-22.505-0.663-30.247
				c-0.041-3.871-0.041-7.004-0.019-9.169c0.017-1.046,0.03-1.877,0.039-2.493c0.015-0.57,0.031-0.869,0.049-0.869
				s0.037,0.299,0.056,0.869c0.014,0.616,0.034,1.446,0.059,2.492c0.045,2.214,0.107,5.332,0.185,9.165
				c0.21,7.781,0.497,18.45,0.815,30.238c0.34,11.806,0.593,22.499,0.663,30.242c0.041,3.871,0.041,7.005,0.019,9.17
				c-0.016,1.046-0.03,1.877-0.039,2.493C264.848,277.324,264.831,277.624,264.814,277.624z"/>
		</g>
		<g>
			<path style="fill:#263238;" d="M271.272,256.504c0.023,0.065-0.719,0.405-1.958,0.854c-1.238,0.449-2.978,0.996-4.931,1.478
				c-1.954,0.48-3.749,0.803-5.054,0.98c-1.306,0.177-2.121,0.221-2.131,0.153c-0.021-0.152,3.182-0.677,7.061-1.638
				C268.138,257.381,271.22,256.36,271.272,256.504z"/>
		</g>
		<path style="fill:#263238;" d="M261.075,336.671c0,0-54.458-21.805-60.66-24.181c-14.053-5.384-35.42-9.902-36.32,9.152
			c-0.9,19.054,24.917,30.456,42.973,31.643l49.638-0.018L261.075,336.671z"/>
		<path style="fill:#CC675D;" d="M268.805,323.901l-15.102,1.339c0,0-2.688-3.543-5.009-4.398s-6.597,0-9.407-1.1
			s-9.999-6.633-12.742-8.468c-3.804-2.545-8.065-2.758-8.065-2.758s-6.333-1.227-10.231,2.302
			c-1.777,1.608-1.949,5.259-1.949,5.259s44.716,22.969,45.204,22.724c0.489-0.244,17.301,3.059,17.301,3.059V323.901z"/>
		<g>
			<path style="fill:#455A64;" d="M251.504,338.802c-0.008,0.016-0.236-0.078-0.662-0.271c-0.471-0.22-1.087-0.509-1.855-0.868
				c-1.655-0.8-3.957-1.913-6.779-3.278c-2.87-1.409-6.265-3.076-10.025-4.922c-3.76-1.88-7.937-3.859-12.221-6.141
				c-4.295-2.26-8.365-4.444-12.156-6.244c-3.786-1.807-7.284-3.244-10.293-4.245c-3.007-1.006-5.51-1.59-7.247-1.948
				c-0.869-0.178-1.552-0.273-2.011-0.366c-0.46-0.086-0.701-0.14-0.699-0.158c0.002-0.018,0.247,0.001,0.713,0.053
				c0.464,0.059,1.155,0.123,2.033,0.27c1.755,0.298,4.286,0.831,7.325,1.797c3.04,0.961,6.572,2.371,10.384,4.161
				c3.816,1.783,7.901,3.959,12.193,6.217c4.277,2.279,8.449,4.271,12.195,6.173c3.741,1.884,7.118,3.583,9.973,5.021
				c2.791,1.426,5.068,2.59,6.705,3.426c0.75,0.395,1.352,0.713,1.812,0.955C251.3,338.661,251.512,338.786,251.504,338.802z"/>
		</g>
		<g>
			<path style="fill:#9C4741;" d="M268.805,341.861c-0.025,0.142-3.874-0.428-8.594-1.273c-4.722-0.845-8.528-1.644-8.503-1.786
				c0.025-0.142,3.873,0.428,8.595,1.273C265.024,340.919,268.831,341.719,268.805,341.861z"/>
		</g>
		<g>
			<path style="fill:#455A64;" d="M268.805,346.434c-0.013,0-0.026-0.154-0.038-0.452c-0.009-0.338-0.021-0.772-0.036-1.313
				c-0.016-1.198-0.038-2.867-0.066-4.958c-0.023-4.307-0.056-10.343-0.094-17.484l-0.001-0.194l0.192-0.037
				c5.385-1.045,11.489-2.229,17.937-3.48c11.505-2.185,21.918-4.163,29.513-5.606c3.744-0.686,6.791-1.244,8.955-1.64
				c1.023-0.176,1.836-0.316,2.44-0.42c0.559-0.09,0.854-0.129,0.857-0.112c0.003,0.018-0.285,0.091-0.838,0.215
				c-0.599,0.128-1.405,0.299-2.421,0.516c-2.156,0.436-5.192,1.049-8.923,1.803c-7.587,1.481-17.99,3.512-29.484,5.755
				c-6.452,1.233-12.559,2.4-17.947,3.43l0.19-0.23c-0.039,7.141-0.071,13.177-0.094,17.484c-0.028,2.091-0.05,3.76-0.066,4.958
				c-0.015,0.541-0.027,0.975-0.036,1.313C268.831,346.28,268.818,346.434,268.805,346.434z"/>
		</g>
		<path style="opacity:0.2;" d="M301.496,242.036c0,0,3.299-8.521,3.523-12.472c0.467-8.248-3.773-30.184-3.773-30.184
			L301.496,242.036z"/>
		<g>
			<path style="fill:#455A64;" d="M248.7,317.849c-0.066,0.066-1.307-1.169-3.505-2.929c-2.193-1.763-5.405-3.985-9.256-5.884
				c-3.858-1.889-7.58-3.073-10.315-3.732c-2.737-0.664-4.473-0.892-4.46-0.984c0.004-0.036,0.441-0.006,1.229,0.079
				c0.789,0.076,1.924,0.258,3.313,0.546c2.777,0.571,6.562,1.713,10.463,3.623c3.894,1.92,7.111,4.218,9.26,6.067
				c1.077,0.923,1.915,1.71,2.457,2.288C248.435,317.496,248.726,317.823,248.7,317.849z"/>
		</g>
		<g>
			<path style="fill:#455A64;" d="M316.489,303.821c-0.005,0.044-0.477,0.03-1.32,0.062c-0.845,0.064-2.066,0.182-3.556,0.474
				c-2.985,0.539-7.051,1.633-11.398,3.238c-4.346,1.614-8.116,3.488-10.697,5.079c-2.585,1.592-3.992,2.854-4.061,2.774
				c-0.024-0.027,0.318-0.351,0.961-0.917c0.318-0.287,0.715-0.63,1.213-0.978c0.498-0.348,1.032-0.797,1.689-1.19
				c2.556-1.687,6.337-3.632,10.714-5.257c4.378-1.617,8.49-2.662,11.519-3.113c1.511-0.247,2.755-0.311,3.612-0.313
				C316.024,303.711,316.493,303.794,316.489,303.821z"/>
		</g>
	</g>
</g>
<g id="Speech_bubble">
	<g>
		<g>
			
				<ellipse transform="matrix(0.4372 -0.8994 0.8994 0.4372 49.1788 220.8182)" style="fill:#FFFFFF;" cx="201.028" cy="71.114" rx="29.323" ry="29.323"/>
			<g>
				<path style="fill:#263238;" d="M227.585,83.546c0,0,0.045-0.157,0.155-0.451c0.121-0.314,0.288-0.746,0.503-1.301
					c0.113-0.287,0.238-0.605,0.376-0.955c0.122-0.357,0.221-0.759,0.348-1.188c0.247-0.86,0.559-1.845,0.724-2.998
					c0.488-2.269,0.659-5.139,0.344-8.412c-0.332-3.268-1.284-6.965-3.22-10.63c-1.937-3.639-4.812-7.309-8.8-10.114
					c-1.018-0.664-2.014-1.404-3.153-1.944c-0.559-0.285-1.106-0.609-1.687-0.869c-0.591-0.24-1.187-0.482-1.786-0.725
					c-0.592-0.267-1.215-0.456-1.849-0.63c-0.632-0.177-1.26-0.387-1.907-0.541c-1.311-0.227-2.626-0.555-3.995-0.612
					c-1.359-0.174-2.743-0.11-4.141-0.097c-0.697,0.042-1.395,0.144-2.098,0.212c-0.707,0.05-1.403,0.199-2.101,0.352
					c-1.414,0.234-2.781,0.715-4.175,1.141c-1.344,0.566-2.724,1.09-4.008,1.845c-2.586,1.442-5.085,3.22-7.158,5.491
					c-2.095,2.241-3.871,4.831-5.246,7.669c-1.3,2.875-2.153,5.898-2.533,8.943c-0.418,3.047-0.181,6.106,0.367,9.016
					c0.242,1.47,0.724,2.866,1.15,4.261c0.566,1.344,1.071,2.702,1.798,3.938c0.331,0.634,0.661,1.264,1.076,1.84
					c0.398,0.585,0.766,1.186,1.181,1.748c0.885,1.083,1.723,2.187,2.727,3.119c0.921,1.015,2.015,1.815,3.029,2.677
					c0.532,0.398,1.097,0.746,1.637,1.118c0.54,0.375,1.084,0.733,1.669,1.016c0.571,0.305,1.139,0.607,1.701,0.908
					c0.573,0.279,1.171,0.492,1.749,0.739c1.144,0.529,2.351,0.82,3.513,1.177c4.709,1.266,9.369,1.123,13.404,0.279
					c4.055-0.861,7.504-2.497,10.225-4.336c2.715-1.855,4.809-3.824,6.239-5.652c0.78-0.865,1.336-1.736,1.838-2.476
					c0.248-0.372,0.494-0.705,0.69-1.028c0.18-0.329,0.344-0.63,0.492-0.9c0.289-0.52,0.513-0.925,0.677-1.219
					C227.494,83.681,227.585,83.546,227.585,83.546s-0.059,0.15-0.199,0.432c-0.153,0.301-0.363,0.714-0.633,1.246
					c-0.142,0.275-0.299,0.581-0.472,0.916c-0.189,0.328-0.429,0.668-0.672,1.046c-0.492,0.753-1.038,1.638-1.811,2.519
					c-1.415,1.86-3.506,3.868-6.233,5.765c-2.733,1.88-6.21,3.56-10.311,4.455c-4.081,0.878-8.806,1.045-13.59-0.22
					c-1.181-0.357-2.407-0.649-3.57-1.181c-0.587-0.248-1.195-0.463-1.778-0.745c-0.573-0.303-1.15-0.608-1.731-0.916
					c-0.594-0.286-1.148-0.648-1.698-1.027c-0.551-0.376-1.125-0.729-1.667-1.132c-1.034-0.871-2.147-1.684-3.086-2.712
					c-1.023-0.945-1.878-2.065-2.78-3.165c-0.423-0.571-0.799-1.181-1.205-1.775c-0.422-0.585-0.76-1.224-1.098-1.868
					c-0.74-1.257-1.258-2.636-1.834-4.003c-0.438-1.418-0.927-2.838-1.177-4.333c-0.561-2.96-0.803-6.074-0.381-9.176
					c0.384-3.1,1.252-6.178,2.576-9.103c1.399-2.889,3.207-5.525,5.342-7.805c2.112-2.31,4.657-4.118,7.289-5.583
					c1.308-0.766,2.712-1.299,4.08-1.871c1.419-0.433,2.81-0.918,4.248-1.155c0.711-0.154,1.419-0.303,2.138-0.354
					c0.715-0.069,1.425-0.171,2.134-0.212c1.422-0.012,2.83-0.072,4.211,0.107c1.391,0.062,2.728,0.397,4.059,0.633
					c0.657,0.158,1.295,0.373,1.937,0.555c0.643,0.179,1.276,0.373,1.876,0.646c0.608,0.249,1.212,0.497,1.812,0.743
					c0.589,0.267,1.144,0.596,1.71,0.888c1.154,0.553,2.164,1.306,3.193,1.985c4.037,2.863,6.935,6.599,8.874,10.295
					c1.939,3.722,2.876,7.468,3.184,10.772c0.29,3.309,0.087,6.201-0.435,8.48c-0.182,1.158-0.511,2.145-0.774,3.005
					c-0.135,0.429-0.243,0.83-0.373,1.186c-0.147,0.348-0.28,0.664-0.401,0.95c-0.235,0.548-0.419,0.974-0.552,1.284
					C227.663,83.405,227.585,83.546,227.585,83.546z"/>
			</g>
		</g>
		<g>
			<g>
				<g>
					<path style="fill:#FF725E;" d="M185.479,66.887c0,0-1.408,16.972,16.972,16.972C202.451,74.802,194.979,67.652,185.479,66.887z
						"/>
				</g>
			</g>
			<g>
				<g>
					<path style="fill:#FF725E;" d="M219.112,66.9c0,0-16.972-1.408-16.972,16.972C211.197,83.872,218.347,76.399,219.112,66.9z"/>
				</g>
			</g>
			<g style="opacity:0.4;">
				<g>
					<path style="fill:#FFFFFF;" d="M185.479,66.887c0,0-1.408,16.972,16.972,16.972C202.451,74.802,194.979,67.652,185.479,66.887z
						"/>
				</g>
			</g>
			<g style="opacity:0.4;">
				<g>
					<path style="fill:#FFFFFF;" d="M219.112,66.9c0,0-16.972-1.408-16.972,16.972C211.197,83.872,218.347,76.399,219.112,66.9z"/>
				</g>
			</g>
			<g>
				<g>
					<path style="fill:#FF725E;" d="M201.636,57.611c0,0-13.865,12.447,0.759,26.249C209.196,76.653,208.62,65.353,201.636,57.611z"
						/>
				</g>
			</g>
		</g>
		<g>
			<path style="fill:#FFFFFF;" d="M235.216,96.925c-0.993,2.122-3.519,3.037-5.642,2.044c-2.122-0.994-3.038-3.519-2.044-5.642
				c0.993-2.122,3.52-3.037,5.642-2.044C235.294,92.276,236.209,94.802,235.216,96.925z"/>
			<g>
				<path style="fill:#263238;" d="M235.216,96.925c-0.045-0.019,0.117-0.362,0.219-1.014c0.099-0.64,0.088-1.644-0.471-2.666
					c-0.529-1.011-1.712-1.984-3.233-2.102c-1.492-0.153-3.235,0.696-3.966,2.294c-0.76,1.585-0.295,3.468,0.778,4.516
					c1.065,1.093,2.57,1.377,3.685,1.136c1.143-0.226,1.921-0.86,2.349-1.346C235.013,97.247,235.172,96.902,235.216,96.925
					c0.021,0.007-0.074,0.384-0.481,0.946c-0.4,0.549-1.191,1.282-2.428,1.578c-1.205,0.311-2.888,0.048-4.103-1.157
					c-1.224-1.152-1.771-3.281-0.91-5.076c0.827-1.81,2.812-2.753,4.48-2.551c1.704,0.161,2.983,1.285,3.516,2.409
					c0.565,1.139,0.509,2.217,0.343,2.875C235.463,96.621,235.235,96.936,235.216,96.925z"/>
			</g>
		</g>
	</g>
</g>
<g id="Briefcase">
	<g>
		<g>
			
				<rect x="368.033" y="417.983" transform="matrix(1 0.0022 -0.0022 1 0.9693 -0.8882)" style="fill:#263238;" width="86.697" height="59.952"/>
		</g>
		<g>
			<path style="fill:#263238;" d="M422.121,418.168c0.779,3.181,0.827,6.602,0.015,9.597l-4.512-1.224
				c1.06-3.908,0.05-9.183-2.347-12.267c-2.455-3.159-5.678-3.748-7.95-3.685c-2.577,0.071-4.719,0.96-6.363,2.642
				c-2.044,2.089-3.325,5.592-3.264,8.924l-4.674,0.085c-0.084-4.589,1.677-9.293,4.596-12.278c2.487-2.543,5.799-3.942,9.577-4.047
				c4.738-0.13,8.917,1.819,11.77,5.489C420.432,413.289,421.505,415.654,422.121,418.168z"/>
		</g>
		<g>
			<g>
				<path style="fill:#455A64;" d="M444.817,478.006c-0.017,0-0.03-0.21-0.039-0.609c-0.005-0.45-0.01-1.029-0.018-1.746
					c0.006-1.576,0.015-3.753,0.025-6.418c0.069-5.471,0.163-12.929,0.267-21.169c0.159-8.242,0.303-15.7,0.409-21.171
					c0.075-2.664,0.136-4.841,0.18-6.416c0.03-0.716,0.055-1.295,0.074-1.744c0.022-0.399,0.042-0.608,0.059-0.608
					c0.017,0,0.03,0.21,0.039,0.608c0.005,0.45,0.011,1.028,0.018,1.745c-0.006,1.576-0.015,3.753-0.025,6.417
					c-0.069,5.472-0.163,12.932-0.267,21.175c-0.159,8.24-0.303,15.698-0.409,21.17c-0.075,2.663-0.136,4.84-0.18,6.415
					c-0.03,0.716-0.054,1.294-0.073,1.744C444.854,477.798,444.834,478.007,444.817,478.006z"/>
			</g>
		</g>
		<g>
			<g>
				<path style="fill:#455A64;" d="M444.883,447.423c0,0.134-17.091,0.207-38.168,0.161c-21.084-0.046-38.171-0.192-38.17-0.326
					c0-0.134,17.087-0.207,38.171-0.161C427.794,447.142,444.884,447.289,444.883,447.423z"/>
			</g>
		</g>
		<g>
			<path style="fill:#455A64;" d="M400.523,446.321c-0.959,0.686-1.316,1.93-0.679,2.922c0.637,0.992,2.111,1.334,3.111,0.708
				c1-0.626,1.332-2.118,0.679-3.1C402.981,445.869,401.46,445.604,400.523,446.321"/>
		</g>
		<g>
			<g>
				<path style="fill:#455A64;" d="M454.664,478.028c-0.059,0.033-0.662-0.929-1.589-2.511c-0.927-1.582-2.179-3.783-3.535-6.229
					l0.422,0.007l-0.006,0.01c-1.398,2.337-2.662,4.451-3.678,6.15c-0.418,0.708-0.783,1.328-1.102,1.868
					c-0.256,0.442-0.387,0.692-0.359,0.684c-0.341-0.112,1.856-4.154,4.721-8.952l0.006-0.01l0.217-0.362l0.205,0.369
					c1.356,2.446,2.56,4.674,3.41,6.298C454.227,476.974,454.723,477.995,454.664,478.028z"/>
			</g>
		</g>
		<g>
			<g>
				<path style="fill:#455A64;" d="M449.995,418.242c0.135,0.001,0.159,11.371,0.055,25.393
					c-0.104,14.026-0.298,25.392-0.432,25.391c-0.134-0.001-0.159-11.369-0.055-25.395
					C449.667,429.61,449.86,418.241,449.995,418.242z"/>
			</g>
		</g>
	</g>
</g>
<g id="Desk_1_">
	<g>
		<g>
			<g>
				<g>
					<g>
						<g>
							<g>
								<polygon style="fill:#455A64;" points="130.307,311.795 139.075,311.795 139.075,313.497 119.88,478.029 109.646,478.029 
																	"/>
							</g>
						</g>
						<g>
							<g>
								<g>
									<path style="fill:#263238;" d="M130.307,311.794c0,0-0.023,0.301-0.086,0.868c-0.067,0.579-0.164,1.417-0.291,2.513
										c-0.265,2.215-0.654,5.458-1.154,9.637c-1.019,8.37-2.493,20.473-4.319,35.471c-3.695,29.971-8.814,71.497-14.519,117.773
										l-0.292-0.288c2.984,0,6.193,0,9.42,0c0.277,0,0.555,0,0.815,0l-0.292,0.234c9.036-77.446,16.765-142.963,19.397-164.513
										l0,0.008c0.004-0.79,0.006-1.257,0.008-1.702l0.082,0.073c-2.984-0.019-5.164-0.032-6.616-0.041
										c-0.714-0.008-1.245-0.013-1.615-0.017C130.489,311.804,130.307,311.794,130.307,311.794s0.163-0.009,0.511-0.014
										c0.365-0.004,0.891-0.009,1.597-0.017c1.461-0.009,3.656-0.023,6.66-0.041l0.082,0l0,0.074
										c0.002,0.445,0.004,0.912,0.008,1.702l0,0.004l-0.001,0.004c-2.398,21.572-9.958,87.104-18.992,164.55l-0.027,0.234h-0.265
										c-0.26,0-0.537,0-0.815,0c-3.227,0-6.435,0-9.42,0h-0.328l0.036-0.288c5.806-46.337,11.016-87.918,14.776-117.929
										c1.898-14.966,3.43-27.045,4.489-35.398c0.535-4.151,0.95-7.373,1.233-9.573c0.144-1.079,0.254-1.905,0.329-2.476
										C130.258,312.069,130.307,311.794,130.307,311.794z"/>
								</g>
							</g>
						</g>
					</g>
				</g>
			</g>
			<g>
				<g>
					<g>
						<g>
							<polygon style="fill:#455A64;" points="93.675,313.74 406.212,314.074 406.325,305.826 93.675,305.826 							"/>
						</g>
					</g>
				</g>
				<g>
					<g>
						<g>
							<g>
								<polygon style="fill:#455A64;" points="362.246,311.804 353.477,311.804 353.477,313.548 371.747,477.918 380.753,477.918 
																	"/>
							</g>
						</g>
					</g>
					<g>
						<g>
							<g>
								<g>
									<path style="fill:#263238;" d="M362.641,313.956c0,0,0.021,0.294,0.077,0.853c0.059,0.566,0.145,1.393,0.257,2.474
										c0.234,2.177,0.578,5.373,1.021,9.491c0.9,8.242,2.203,20.168,3.817,34.943c3.263,29.527,7.784,70.437,12.82,116.008
										l0.243-0.236c-2.81,0-5.832,0-8.871,0c-0.046,0-0.091,0-0.134,0l0.243,0.194c-8.535-76.108-15.766-140.576-18.167-161.989
										l0,0.006c-0.003-0.807-0.005-1.287-0.007-1.743l-0.069,0.061c2.988-0.016,5.17-0.027,6.618-0.034
										c0.716-0.006,1.249-0.011,1.614-0.014C362.46,313.964,362.641,313.956,362.641,313.956s-0.164-0.008-0.514-0.012
										c-0.362-0.003-0.889-0.008-1.599-0.014c-1.456-0.008-3.651-0.019-6.656-0.034l-0.069,0l0,0.061
										c-0.002,0.457-0.004,0.936-0.007,1.743v0.003l0,0.003c2.357,21.417,9.453,85.896,17.831,162.018l0.021,0.194h0.222
										c0.043,0,0.089,0,0.134,0c3.039,0,6.061,0,8.871,0h0.27l-0.026-0.236c-5.12-45.622-9.715-86.579-13.033-116.14
										c-1.674-14.75-3.025-26.655-3.959-34.883c-0.472-4.095-0.838-7.273-1.087-9.438c-0.127-1.068-0.224-1.884-0.29-2.444
										C362.683,314.229,362.641,313.956,362.641,313.956z"/>
								</g>
							</g>
						</g>
					</g>
				</g>
			</g>
		</g>
		<g>
			<path style="fill:#263238;" d="M406.078,314.074c0,0.144-69.94,0.186-156.195,0.094c-86.285-0.092-156.209-0.283-156.209-0.427
				c0-0.144,69.925-0.186,156.21-0.094C336.139,313.739,406.078,313.93,406.078,314.074z"/>
		</g>
		<g>
			<path style="fill:#263238;" d="M406.078,305.993c0,0.144-69.94,0.186-156.195,0.094c-86.285-0.092-156.209-0.283-156.209-0.427
				c0-0.144,69.925-0.186,156.21-0.093C336.139,305.658,406.078,305.849,406.078,305.993z"/>
		</g>
	</g>
</g>
<g id="Plant">
	<g>
		<g>
			<path style="fill:#263238;" d="M60.905,329.668c0.008-0.003,0.055,0.103,0.138,0.312c0.09,0.235,0.208,0.543,0.356,0.932
				c0.316,0.853,0.764,2.057,1.334,3.594c1.158,3.121,2.861,7.627,5.095,13.142c4.493,11.012,11.048,26.131,20.296,41.777
				c2.216,3.969,4.259,7.935,5.795,11.956c1.558,4.013,2.535,8.079,3.082,11.99c1.073,7.846,0.593,15.002-0.065,20.912
				c-0.685,5.923-1.59,10.662-2.198,13.935c-0.318,1.608-0.568,2.869-0.744,3.761c-0.087,0.407-0.156,0.729-0.209,0.975
				c-0.05,0.219-0.08,0.331-0.089,0.329c-0.009-0.002,0.004-0.116,0.036-0.339c0.04-0.249,0.092-0.574,0.158-0.985
				c0.154-0.896,0.371-2.163,0.648-3.778c0.546-3.282,1.395-8.027,2.031-13.939c0.61-5.899,1.046-13.024-0.044-20.804
				c-0.557-3.879-1.533-7.9-3.083-11.875c-1.529-3.984-3.563-7.926-5.774-11.885c-9.255-15.658-15.778-30.844-20.183-41.894
				c-2.193-5.538-3.844-10.066-4.944-13.21c-0.559-1.568-0.964-2.797-1.242-3.628c-0.128-0.396-0.23-0.709-0.307-0.949
				C60.926,329.783,60.896,329.671,60.905,329.668z"/>
		</g>
		<g>
			<path style="fill:#263238;" d="M69.319,381.991c0.015-0.01,0.141,0.148,0.367,0.458c0.254,0.36,0.573,0.813,0.966,1.37
				c0.866,1.256,2.052,2.974,3.499,5.072c2.937,4.293,7.079,10.177,11.221,16.967c2.058,3.404,3.876,6.734,5.402,9.825
				c1.526,3.092,2.724,5.961,3.656,8.395c0.912,2.441,1.591,4.439,1.983,5.843c0.187,0.655,0.339,1.189,0.46,1.613
				c0.1,0.37,0.144,0.567,0.126,0.572s-0.095-0.182-0.227-0.542c-0.145-0.415-0.328-0.939-0.553-1.581
				c-0.451-1.382-1.181-3.355-2.133-5.771c-0.972-2.408-2.2-5.248-3.743-8.316c-1.543-3.067-3.366-6.375-5.417-9.769
				c-4.129-6.769-8.22-12.683-11.081-17.03c-1.435-2.171-2.589-3.933-3.363-5.167c-0.36-0.579-0.652-1.05-0.885-1.424
				C69.4,382.178,69.304,382,69.319,381.991z"/>
		</g>
		<path style="fill:#455A64;" d="M52.151,394.907c3.149-6.759,11.242-11.172,18.673-10.567c-1.655,0.665-2.676,2.383-3.09,4.118
			c-0.414,1.735-0.338,3.544-0.478,5.322c-0.671,8.537-6.164,15.822-11.44,22.568c-3.706,4.74-7.435,9.504-11.868,13.572
			C44.481,417.776,45.246,404.911,52.151,394.907z"/>
		<path style="fill:#455A64;" d="M70.824,384.435c-4.717-3.636-10.811-5.141-16.766-5.202c-5.955-0.061-11.838,1.223-17.611,2.684
			c-3.467,0.878-6.989,1.854-9.954,3.855c-2.965,2.001-5.325,5.228-5.384,8.804c4.896-5.381,12.785-6.42,19.771-8.449
			c4.735-1.375,9.302-3.341,14.129-4.348C59.836,380.774,66.557,381.967,70.824,384.435"/>
		<path style="fill:#455A64;" d="M70.015,383.471c2.072-2.168,0.928-7.247-0.875-9.643c-1.803-2.396-4.663-3.74-7.488-4.745
			c-3.719-1.323-7.588-2.223-11.509-2.676c0.398,2.464,1.844,4.661,3.638,6.395c1.795,1.734,3.935,3.061,6.057,4.374
			C63.231,379.274,66.623,381.372,70.015,383.471"/>
		<path style="fill:#455A64;" d="M89.425,380.556c5.911,2.59,10.491,7.427,14.9,12.141c-6.543-1.594-12.838-4.201-18.591-7.7
			c-2.289-1.392-4.558-2.952-7.172-3.535c-2.615-0.583-5.553,0.579-7.737,2.389C74.525,378.4,83.514,377.966,89.425,380.556z"/>
		<path style="fill:#455A64;" d="M170.266,378.099c7.351,9.353,9.794,21.844,8.972,33.712c-4.305-15.726-13.539-30.064-26.075-40.49
			c-4.792-3.985-10.919-7.138-16.858-7.138C148.526,363.094,162.684,368.452,170.266,378.099z"/>
		<path style="fill:#455A64;" d="M153.204,359.316c4.097,0.3,7.846,2.377,11.233,4.702c5.188,3.562,10.052,8.053,12.315,13.925
			c-9.039-10.865-23.786-16.687-37.809-14.926C143.409,360.794,148.229,358.951,153.204,359.316z"/>
		<path style="fill:#455A64;" d="M141.718,345.269c2.374,1.647,4.19,4.353,4.067,7.24c-0.084,1.979-1.058,3.836-2.356,5.332
			c-1.298,1.496-3.37,3.575-4.967,4.746c-1.504-6.666-3.315-13.63-4.819-20.296C136.475,342.866,139.344,343.622,141.718,345.269z"
			/>
		<path style="fill:#455A64;" d="M127.837,344.628c3.206,2.056,6.067,4.819,7.626,8.294c1.559,3.475,2.211,7.861,0.243,11.122
			c-5.596-8.308-11.723-16.637-18.182-24.293C121.064,341.155,124.63,342.571,127.837,344.628z"/>
		<path style="fill:#455A64;" d="M116.057,356.08c7.356-0.592,14.914,2.72,19.465,8.529c-3.025-1.561-7.076-2.415-10.452-1.978
			c-9.036,1.171-18.009,2.834-26.864,4.981C101.77,361.15,108.701,356.672,116.057,356.08z"/>
		<path style="fill:#455A64;" d="M60.993,329.668c-0.214-2.132,2.086-4.253,4.095-4.999c2.008-0.746,4.245-0.505,6.337-0.041
			c12.128,2.69,22.15,13.154,24.314,25.386c-5.599-2.772-11.363-5.21-17.253-7.294c0.332,0.094,0.664,0.189,0.997,0.283
			c-5.693-1.108-10.817-4.85-13.605-9.936c-0.537-0.979-1.008-2.027-1.822-2.792C63.243,329.51,61.957,329.105,60.993,329.668"/>
		<path style="fill:#455A64;" d="M60.98,329.647c-5.525-3.774-12.51-5.467-19.095-4.286c-6.586,1.18-12.655,5.314-15.864,11.184
			c-3.209,5.871-3.364,13.389-0.1,19.229c3.088-6.414,6.392-13.094,12.14-17.294c1.346-0.983,2.868-1.882,3.625-3.366
			c0.878-1.722,0.519-3.85,1.271-5.631c0.926-2.195,3.476-2.832,5.855-2.956C51.189,326.402,58.083,328.591,60.98,329.647"/>
		<path style="fill:#455A64;" d="M61.129,329.541c-5.71-1.692-12.167,1.098-16.053,5.375c-3.886,4.277-5.861,10.017-6.53,15.757
			c-0.669,5.74-0.13,11.545,0.451,17.294c4.464-6.65,7.803-14.053,9.833-21.801c0.918-3.505,1.588-7.124,3.238-10.349
			C53.719,332.593,57.544,330.064,61.129,329.541"/>
		<path style="fill:#455A64;" d="M61.318,329.668c-4.562-2.113-7.133-6.882-7.72-11.875c-0.587-4.993,1.582-10.224,5.53-13.337
			c4.543,4.139,6.293,11.078,4.256,16.876C62.42,324.079,60.664,326.832,61.318,329.668"/>
		<g>
			<path style="fill:#263238;" d="M97.419,422.214c-0.017-0.006,0.051-0.253,0.195-0.72c0.152-0.464,0.349-1.159,0.675-2.028
				c0.615-1.751,1.618-4.246,3.013-7.258c2.784-6.026,7.254-14.061,12.923-22.452c5.666-8.395,11.389-15.591,15.954-20.416
				c2.282-2.411,4.265-4.242,5.775-5.336c0.75-0.552,1.376-0.922,1.814-1.143c0.452-0.197,0.689-0.292,0.696-0.275
				s-0.218,0.144-0.646,0.368c-0.416,0.248-1.016,0.639-1.74,1.211c-1.457,1.133-3.39,2.993-5.628,5.426
				c-4.478,4.869-10.14,12.081-15.792,20.456c-5.656,8.371-10.161,16.352-13.022,22.318c-1.432,2.983-2.484,5.447-3.156,7.172
				c-0.354,0.856-0.581,1.538-0.765,1.99C97.537,421.983,97.436,422.22,97.419,422.214z"/>
		</g>
		<polygon style="fill:#FF725E;" points="81.259,478.029 112.438,478.029 117.413,438.236 75.569,438.236 		"/>
		<path style="fill:#455A64;" d="M92.203,419.215c-3.304-7.587-1.911-16.79-6.108-23.923c-3.213-5.461-9.151-8.703-15.053-11.007
			c-1.37,4.113-0.721,8.702,1.018,12.673c1.739,3.971,4.492,7.41,7.401,10.624C83.479,412.025,87.838,415.111,92.203,419.215"/>
		
			<rect x="73.645" y="438.236" transform="matrix(-1 -1.224647e-16 1.224647e-16 -1 193.9223 884.5952)" style="fill:#FF725E;" width="46.633" height="8.124"/>
		<g>
			<path style="fill:#263238;" d="M75.199,446.619c0-0.144,10.092-0.26,22.538-0.26c12.451,0,22.54,0.117,22.54,0.26
				s-10.09,0.26-22.54,0.26C85.291,446.879,75.199,446.763,75.199,446.619z"/>
		</g>
		<path style="fill:#455A64;" d="M58.846,329.987c1.634-2.832,3.281-5.683,5.422-8.154c2.141-2.471,4.83-4.567,7.967-5.487
			c4.203-1.233,8.716-0.255,12.914,0.994c4.905,1.46,9.701,3.286,14.334,5.46c-6.058,2.306-12.921,2.428-19.057,0.338
			c-3.208-1.092-6.324-0.951-9.691-0.568C66.634,323.037,61.502,326.829,58.846,329.987"/>
		<path style="fill:#455A64;" d="M134.673,364.044c6.922,0.38,12.981,5.709,15.397,12.207c2.417,6.498,1.591,13.874-1.023,20.295
			c-2.614,6.421-6.888,12.022-11.418,17.271c-2.274-7.815-4.557-15.672-5.558-23.75
			C131.071,381.989,131.829,371.671,134.673,364.044z"/>
		<g style="opacity:0.2;">
			<path d="M170.266,378.099c7.351,9.353,9.794,21.844,8.972,33.712c-4.305-15.726-13.539-30.064-26.075-40.49
				c-4.792-3.985-10.919-7.138-16.858-7.138C148.526,363.094,162.684,368.452,170.266,378.099z"/>
		</g>
		<g style="opacity:0.2;">
			<path d="M153.204,359.316c4.097,0.3,7.846,2.377,11.233,4.702c5.188,3.562,10.052,8.053,12.315,13.925
				c-9.039-10.865-23.786-16.687-37.809-14.926C143.409,360.794,148.229,358.951,153.204,359.316z"/>
		</g>
		<g style="opacity:0.2;">
			<path d="M141.718,345.269c2.374,1.647,4.19,4.353,4.067,7.24c-0.084,1.979-1.058,3.836-2.356,5.332
				c-1.298,1.496-3.37,3.575-4.967,4.746c-1.504-6.666-3.315-13.63-4.819-20.296C136.475,342.866,139.344,343.622,141.718,345.269z"
				/>
		</g>
		<g style="opacity:0.2;">
			<path d="M127.837,344.628c3.206,2.056,6.067,4.819,7.626,8.294c1.559,3.475,2.211,7.861,0.243,11.122
				c-5.596-8.308-11.723-16.637-18.182-24.293C121.064,341.155,124.63,342.571,127.837,344.628z"/>
		</g>
		<g style="opacity:0.2;">
			<path d="M116.057,356.08c7.356-0.592,14.914,2.72,19.465,8.529c-3.025-1.561-7.076-2.415-10.452-1.978
				c-9.036,1.171-18.009,2.834-26.864,4.981C101.77,361.15,108.701,356.672,116.057,356.08z"/>
		</g>
		<g style="opacity:0.2;">
			<path d="M134.673,364.044c6.922,0.38,12.981,5.709,15.397,12.207c2.417,6.498,1.591,13.874-1.023,20.295
				c-2.614,6.421-6.888,12.022-11.418,17.271c-2.274-7.815-4.557-15.672-5.558-23.75
				C131.071,381.989,131.829,371.671,134.673,364.044z"/>
		</g>
	</g>
</g>
<g id="Drink">
	<g>
		<g>
			<g>
				<polygon style="fill:#9C4741;" points="385.261,305.826 366.62,305.826 362.292,269.555 389.19,269.555 				"/>
			</g>
			<g>
				<g>
					<g>
						<polygon style="fill:#E0E0E0;" points="387.409,267.45 386.6,264.86 365.392,262.27 363.611,267.45 361.021,267.45 
							361.021,272.145 390.161,272.145 390.161,267.45 						"/>
						<g>
							<path style="fill:#263238;" d="M387.409,267.45c0.01-0.014,0.261-0.028,0.729-0.045c0.509-0.013,1.179-0.031,2.023-0.053
								l0.097-0.003l0.001,0.101c0.015,1.223,0.035,2.805,0.058,4.695l0.002,0.155l-0.158,0.001
								c-6.573,0.063-17.184,0.104-29.14,0.104h-0.26v-0.26c0-0.04,0-0.083,0-0.126c0.001-1.549,0.001-3.076,0.002-4.569l0-0.259
								l0.258,0c0.877,0.001,1.739,0.002,2.59,0.003l-0.241,0.172c0.618-1.786,1.216-3.515,1.791-5.177l0.065-0.188l0.196,0.024
								c9.678,1.208,17.39,2.203,21.19,2.736l0.065,0.009l0.017,0.059c0.228,0.802,0.408,1.438,0.545,1.921
								C387.359,267.196,387.419,267.436,387.409,267.45c-0.01,0.014-0.091-0.198-0.243-0.627c-0.166-0.486-0.384-1.127-0.66-1.934
								l0.081,0.068c-3.816-0.398-11.542-1.287-21.225-2.445l0.261-0.163c-0.568,1.664-1.16,3.396-1.77,5.184l-0.059,0.172l-0.183,0
								c-0.851,0.001-1.713,0.002-2.59,0.003l0.258-0.258c0.001,1.493,0.001,3.02,0.002,4.569c0,0.043,0,0.086,0,0.126l-0.26-0.26
								c11.956,0,22.566,0.041,29.14,0.104l-0.156,0.156c0.023-1.89,0.043-3.471,0.058-4.695l0.098,0.098
								c-0.864-0.022-1.55-0.04-2.07-0.053C387.629,267.478,387.399,267.464,387.409,267.45z"/>
						</g>
					</g>
				</g>
			</g>
			<g>
				<polygon style="fill:#CC675D;" points="387.158,293.802 364.163,293.802 363.045,282.806 388.514,282.806 				"/>
			</g>
			<g>
				<g>
					<path style="fill:#9C4741;" d="M374.222,285.429c-1.052,0.637-1.478,1.976-0.948,3.117l0.731,1.575
						c0.53,1.141,1.828,1.679,2.993,1.286L374.222,285.429z"/>
				</g>
				<g>
					<path style="fill:#9C4741;" d="M374.712,285.202l2.776,5.978c1.052-0.637,1.478-1.976,0.948-3.117l-0.731-1.574
						C377.176,285.347,375.877,284.809,374.712,285.202z"/>
				</g>
			</g>
		</g>
		<g>
			<path style="fill:#263238;" d="M387.626,267.462c0,0.144-5.507,0.26-12.299,0.26c-6.795,0-12.301-0.117-12.301-0.26
				s5.506-0.26,12.301-0.26C382.119,267.202,387.626,267.318,387.626,267.462z"/>
		</g>
	</g>
</g>
<g id="Device">
	<g>
		<g>
			<g>
				<g>
					<g>
						<path style="fill:#E0E0E0;" d="M95.084,251.5l11.013,54.066h76.347h19.243c1.054,0,1.909-0.855,1.909-1.909l0,0
							c0-1.054-0.855-1.909-1.909-1.909h-19.243l-10.21-50.282c-0.196-0.965-1.039-1.661-2.023-1.672l-73.058-0.798
							C95.823,248.981,94.819,250.197,95.084,251.5z"/>
					</g>
				</g>
			</g>
			<g>
				<g>
					<g>
						<g>
							<path style="fill:#263238;" d="M95.084,251.5c0,0-0.012-0.054-0.03-0.163c-0.018-0.108-0.032-0.274-0.01-0.491
								c0.038-0.418,0.265-1.12,1.011-1.58c0.183-0.113,0.398-0.194,0.632-0.25c0.236-0.053,0.492-0.049,0.752-0.047
								c0.525,0.004,1.098,0.008,1.72,0.013c1.245,0.01,2.682,0.022,4.301,0.036c6.484,0.062,15.896,0.151,27.624,0.262
								c5.866,0.059,12.31,0.124,19.257,0.194c3.474,0.036,7.073,0.073,10.788,0.111c1.858,0.019,3.744,0.039,5.658,0.059
								c0.957,0.01,1.921,0.02,2.892,0.03c0.246,0.006,0.477-0.004,0.74,0.018c0.256,0.027,0.507,0.099,0.738,0.213
								c0.463,0.227,0.844,0.623,1.049,1.1c0.107,0.239,0.152,0.499,0.2,0.735l0.148,0.727c0.099,0.486,0.198,0.973,0.297,1.462
								c0.199,0.978,0.399,1.961,0.601,2.952c0.403,1.98,0.811,3.985,1.224,6.014c0.825,4.058,1.67,8.21,2.532,12.448
								c1.723,8.476,3.516,17.294,5.362,26.378l-0.128-0.105c3.614,0,7.318-0.001,11.082-0.001c1.882,0,3.78,0,5.689,0l1.434,0
								h0.719c0.233,0.002,0.489-0.012,0.744,0.045c0.504,0.104,0.961,0.411,1.253,0.835c0.296,0.422,0.417,0.961,0.338,1.47
								c-0.088,0.626-0.493,1.187-1.043,1.487c-0.276,0.148-0.587,0.232-0.899,0.243l-0.882,0.004c-1.169,0-2.335,0-3.498,0
								c-2.325,0-4.636,0-6.933,0c-4.593-0.001-9.127-0.001-13.591-0.002c-8.929-0.002-17.582-0.004-25.879-0.006
								c-16.593-0.008-31.764-0.016-44.882-0.023l-0.083,0l-0.016-0.081c-3.366-16.618-6.104-30.136-8.002-39.504
								c-0.942-4.681-1.674-8.324-2.173-10.801c-0.245-1.235-0.432-2.178-0.559-2.817C95.141,251.827,95.084,251.5,95.084,251.5
								s0.076,0.324,0.21,0.957c0.133,0.638,0.33,1.579,0.588,2.811c0.511,2.475,1.261,6.115,2.226,10.791
								c1.918,9.364,4.686,22.876,8.089,39.486l-0.099-0.081c13.118-0.007,28.288-0.014,44.882-0.023
								c8.297-0.002,16.949-0.004,25.879-0.006c4.464-0.001,8.998-0.001,13.591-0.001c2.297,0,4.608,0,6.933,0
								c1.163,0,2.328,0,3.498,0l0.872-0.003c0.272-0.01,0.542-0.082,0.782-0.211c0.479-0.262,0.832-0.751,0.908-1.294
								c0.069-0.444-0.036-0.912-0.294-1.28c-0.254-0.369-0.652-0.637-1.09-0.727c-0.216-0.049-0.444-0.037-0.689-0.039l-0.719,0
								h-1.434c-1.909,0-3.807,0-5.689,0c-3.764,0-7.468-0.001-11.082-0.001h-0.107l-0.021-0.105
								c-1.843-9.085-3.632-17.904-5.351-26.381c-0.859-4.238-1.701-8.392-2.524-12.45c-0.411-2.029-0.818-4.035-1.219-6.015
								c-0.201-0.99-0.4-1.974-0.598-2.952c-0.099-0.489-0.198-0.976-0.296-1.462l-0.147-0.727c-0.05-0.247-0.089-0.478-0.185-0.689
								c-0.183-0.427-0.524-0.782-0.938-0.986c-0.207-0.102-0.432-0.167-0.661-0.192c-0.223-0.02-0.479-0.012-0.718-0.018
								c-0.971-0.011-1.935-0.022-2.892-0.033c-1.914-0.022-3.801-0.044-5.658-0.065c-3.715-0.043-7.314-0.085-10.788-0.124
								c-6.947-0.082-13.391-0.157-19.257-0.226c-11.728-0.145-21.139-0.261-27.623-0.341c-1.619-0.022-3.056-0.041-4.301-0.058
								c-0.622-0.009-1.195-0.017-1.72-0.025c-0.263-0.004-0.51-0.01-0.74,0.04c-0.228,0.053-0.438,0.13-0.618,0.239
								c-0.733,0.443-0.966,1.129-1.012,1.541C95.026,251.279,95.099,251.499,95.084,251.5z"/>
						</g>
					</g>
				</g>
			</g>
		</g>
		<g>
			<g>
				<g>
					<path style="fill:#FFFFFF;" d="M139.133,276.243c0,1.744-1.413,3.157-3.157,3.157c-1.744,0-3.157-1.413-3.157-3.157
						c0-1.744,1.413-3.157,3.157-3.157C137.72,273.086,139.133,274.499,139.133,276.243z"/>
				</g>
			</g>
		</g>
		<g>
			<g>
				<g>
					<g>
						<path style="fill:#263238;" d="M95.174,251.937c0,0,0.112-0.008,0.329-0.011c0.227-0.001,0.548-0.003,0.967-0.005
							c0.859,0.001,2.109,0.003,3.716,0.005c3.236,0.016,7.904,0.038,13.668,0.066c11.548,0.082,27.488,0.194,45.092,0.318
							c2.202,0.018,4.378,0.035,6.522,0.052c0.536,0.004,1.07,0.009,1.602,0.013c0.26,0.006,0.538-0.011,0.818,0.049
							c0.275,0.056,0.54,0.164,0.775,0.314c0.473,0.3,0.827,0.779,0.97,1.316c0.119,0.529,0.209,1.029,0.314,1.541
							c0.808,4.073,1.588,8.001,2.33,11.744c1.479,7.484,2.811,14.224,3.931,19.888c1.108,5.656,2.005,10.237,2.628,13.412
							c0.303,1.577,0.539,2.806,0.701,3.649c0.076,0.411,0.134,0.727,0.176,0.95c0.038,0.214,0.051,0.326,0.051,0.326
							s-0.031-0.108-0.077-0.32c-0.047-0.222-0.114-0.536-0.202-0.945c-0.173-0.841-0.426-2.066-0.75-3.639
							c-0.642-3.172-1.567-7.746-2.71-13.396c-1.135-5.661-2.486-12.397-3.986-19.877c-0.747-3.742-1.532-7.669-2.345-11.741
							c-0.104-0.504-0.199-1.031-0.311-1.523c-0.127-0.476-0.441-0.899-0.86-1.165c-0.209-0.133-0.443-0.229-0.686-0.278
							c-0.24-0.054-0.498-0.039-0.769-0.044c-0.532-0.004-1.066-0.008-1.602-0.012c-2.144-0.017-4.32-0.034-6.522-0.051
							c-17.604-0.154-33.543-0.294-45.092-0.395c-5.764-0.063-10.431-0.115-13.667-0.15c-1.607-0.023-2.857-0.042-3.716-0.054
							c-0.418-0.009-0.74-0.016-0.966-0.021C95.285,251.947,95.174,251.937,95.174,251.937z"/>
					</g>
				</g>
			</g>
		</g>
	</g>
</g>
</svg>
