<?xml version="1.0" encoding="utf-8"?>
<!-- Generator: Adobe Illustrator 27.5.0, SVG Export Plug-In . SVG Version: 6.00 Build 0)  -->
<svg version="1.1" xmlns="http://www.w3.org/2000/svg" xmlns:xlink="http://www.w3.org/1999/xlink" x="0px" y="0px"
	 viewBox="0 0 750 500" style="enable-background:new 0 0 750 500;" xml:space="preserve">
<g id="BACKGROUND">
	<rect style="fill:#FFFFFF;" width="750" height="500"/>
</g>
<g id="OBJECTS">
	<g>
		<rect x="113.52" y="305.865" style="fill:#DAE6F0;" width="194.553" height="80.275"/>
		<rect x="259.165" y="185.986" style="fill:#DAE6F0;" width="194.553" height="80.275"/>
		<rect x="415.523" y="84.703" style="fill:#DAE6F0;" width="194.553" height="80.275"/>
	</g>
	<g>
		
			<ellipse transform="matrix(0.7071 -0.7071 0.7071 0.7071 46.33 345.4712)" style="fill:none;stroke:#263F5C;stroke-linecap:round;stroke-miterlimit:10;stroke-dasharray:10,10,10;" cx="440.186" cy="116.81" rx="88.947" ry="88.947"/>
		
			<ellipse transform="matrix(0.7071 -0.7071 0.7071 0.7071 32.5654 491.4109)" style="fill:none;stroke:#263F5C;stroke-linecap:round;stroke-miterlimit:10;stroke-dasharray:10,10,10;" cx="609.468" cy="206.396" rx="88.947" ry="88.947"/>
	</g>
	<ellipse style="fill:#DAE6F0;" cx="375" cy="446.172" rx="325.069" ry="25.965"/>
	<g>
		<g>
			<defs>
				<path id="SVGID_1_" d="M540.175,200.56c0-67.651-54.511-122.57-122.005-123.231c-67.78-0.664-123.877,54.359-124.464,122.14
					c-0.347,40.048,18.413,75.724,47.712,98.475c21.495,16.69,36.813,40.064,43.167,66.526l2.61,10.872h59.485l2.61-10.869
					c6.381-26.577,21.897-49.917,43.439-66.74C521.607,275.18,540.175,240.04,540.175,200.56z"/>
			</defs>
			<clipPath id="SVGID_00000169545851220940811690000017362663929496058271_">
				<use xlink:href="#SVGID_1_"  style="overflow:visible;"/>
			</clipPath>
			<path style="clip-path:url(#SVGID_00000169545851220940811690000017362663929496058271_);fill:#E8AC29;" d="M540.175,200.56
				c0-67.651-54.511-122.57-122.005-123.231c-67.78-0.664-123.877,54.359-124.464,122.14c-0.347,40.048,18.413,75.724,47.712,98.475
				c21.495,16.69,36.813,40.064,43.167,66.526l2.61,10.872h59.485l2.61-10.869c6.381-26.577,21.897-49.917,43.439-66.74
				C521.607,275.18,540.175,240.04,540.175,200.56z"/>
			<path style="clip-path:url(#SVGID_00000169545851220940811690000017362663929496058271_);fill:#F0CA6C;" d="M494.064,104.443
				c-20.817-16.726-47.178-26.833-75.894-27.114c-67.78-0.664-123.877,54.359-124.464,122.14c-0.008,0.944,0.005,1.883,0.017,2.823
				C347.851,232.508,485.048,232.508,494.064,104.443z"/>
			
				<path style="clip-path:url(#SVGID_00000169545851220940811690000017362663929496058271_);fill:none;stroke:#FFFFFF;stroke-width:3;stroke-miterlimit:10;" d="
				M435.506,403.005c0,0-24.538-144.57,10.392-178.787s57.33,49.12-28.214,49.12h-1.493c-85.545,0-63.145-83.338-28.214-49.12
				s10.393,178.787,10.393,178.787"/>
		</g>
		<path style="fill:#0C143B;" d="M446.522,395.057h-59.168c-4.528,0-8.198-3.67-8.198-8.198v-1.426c0-4.528,3.67-8.198,8.198-8.198
			h59.168c4.528,0,8.198,3.67,8.198,8.198v1.426C454.72,391.387,451.05,395.057,446.522,395.057z"/>
		<path style="fill:#0C143B;" d="M431.275,415.805h-28.673c-4.921,0-8.911-3.99-8.911-8.911v0c0-4.921,3.99-8.911,8.911-8.911
			h28.673c4.921,0,8.911,3.99,8.911,8.911v0C440.186,411.816,436.196,415.805,431.275,415.805z"/>
		
			<ellipse transform="matrix(0.624 -0.7814 0.7814 0.624 21.6555 350.4364)" style="fill:#F5DEA9;" cx="375" cy="152.714" rx="46.763" ry="42.143"/>
	</g>
	<g>
		<g>
			<path style="fill:#477C6C;" d="M358.095,379.46c0.66-12.652,1.774-120.949-151.687-139.725
				C237.623,263.414,318.159,326.792,358.095,379.46z"/>
			<path style="fill:#2E5245;" d="M206.408,239.735c-0.076-0.009-0.149-0.02-0.225-0.029c0,0,11.851,154.319,151.832,140.965
				c0,0,0.039-0.422,0.081-1.211C318.159,326.792,237.623,263.414,206.408,239.735z"/>
		</g>
		<g>
			<path style="fill:#477C6C;" d="M327.861,397.868c-4.347-3.595-42.757-32.75-90.217,17.113
				C254.395,410.112,298.433,398.157,327.861,397.868z"/>
			<path style="fill:#2E5245;" d="M237.644,414.981c-0.023,0.025-0.047,0.048-0.07,0.073c0,0,58.302,36.741,90.699-16.835
				c0,0-0.14-0.126-0.411-0.35C298.433,398.157,254.395,410.112,237.644,414.981z"/>
		</g>
	</g>
	<g>
		<g>
			<path style="fill:#477C6C;" d="M541.865,155.258c5.304-1.921,49.916-20.226,31.031-86.424
				C568.592,85.74,556.549,129.753,541.865,155.258z"/>
			<path style="fill:#2E5245;" d="M572.896,68.834c-0.009-0.033-0.018-0.065-0.027-0.097c0,0-61.243,31.596-31.514,86.698
				c0,0,0.18-0.057,0.511-0.177C556.549,129.753,568.592,85.74,572.896,68.834z"/>
		</g>
		<g>
			<path style="fill:#477C6C;" d="M544.826,170.737c4.479,3.429,43.959,31.118,89.509-20.495
				C617.779,155.738,574.222,169.341,544.826,170.737z"/>
			<path style="fill:#2E5245;" d="M634.335,150.242c0.022-0.025,0.045-0.05,0.067-0.075c0,0-59.643-34.522-90.001,20.235
				c0,0,0.145,0.121,0.424,0.335C574.222,169.341,617.779,155.738,634.335,150.242z"/>
		</g>
	</g>
	<g>
		<g>
			<path style="fill:#979CF9;" d="M306.089,138.564v-23.65h-16.244c-1.115-5.28-3.059-10.252-5.679-14.785l11.937-11.937
				L279.38,71.469l-11.494,11.494c-4.397-2.863-9.263-5.064-14.462-6.456V59.635h-23.65v16.244
				c-5.281,1.115-10.252,3.059-14.785,5.679L203.052,69.62l-16.723,16.723l11.494,11.494c-2.863,4.397-5.064,9.263-6.456,14.462
				h-16.873v23.65h16.244c1.115,5.28,3.059,10.252,5.679,14.785l-11.937,11.937l16.723,16.723l11.494-11.494
				c4.397,2.863,9.263,5.064,14.462,6.456v16.872h23.65v-16.244c5.28-1.115,10.252-3.059,14.785-5.679l11.937,11.937l16.723-16.723
				l-11.494-11.494c2.863-4.397,5.064-9.263,6.456-14.462H306.089z M240.292,151.414c-14.35,0-25.982-11.633-25.982-25.982
				c0-14.349,11.633-25.982,25.982-25.982c14.35,0,25.982,11.633,25.982,25.982C266.274,139.781,254.641,151.414,240.292,151.414z"
				/>
			
				<ellipse transform="matrix(0.9759 -0.2181 0.2181 0.9759 -21.5686 55.4142)" style="fill:none;stroke:#FFFFFF;stroke-width:0.9845;stroke-miterlimit:10;" cx="240.292" cy="125.432" rx="44.681" ry="44.681"/>
			
				<ellipse transform="matrix(0.9741 -0.2261 0.2261 0.9741 -22.1344 57.5659)" style="fill:none;stroke:#FFFFFF;stroke-width:0.841;stroke-miterlimit:10;" cx="240.292" cy="125.432" rx="38.167" ry="38.167"/>
		</g>
		<g>
			<path style="fill:#979CF9;" d="M608.371,365.754v-23.65h-16.244c-1.115-5.28-3.059-10.252-5.679-14.785l11.937-11.937
				l-16.723-16.723l-11.494,11.494c-4.397-2.863-9.263-5.064-14.462-6.456v-16.872h-23.65v16.244
				c-5.281,1.115-10.252,3.059-14.785,5.679l-11.937-11.937l-16.723,16.723l11.494,11.494c-2.863,4.397-5.064,9.263-6.456,14.462
				h-16.872v23.65h16.244c1.115,5.28,3.059,10.252,5.679,14.785l-11.937,11.937l16.723,16.723l11.494-11.494
				c4.397,2.863,9.263,5.064,14.462,6.456v16.872h23.65v-16.244c5.28-1.115,10.252-3.059,14.785-5.679l11.937,11.937l16.723-16.723
				l-11.494-11.494c2.863-4.398,5.064-9.263,6.456-14.463H608.371z M542.574,378.604c-14.35,0-25.982-11.633-25.982-25.982
				c0-14.35,11.633-25.982,25.982-25.982c14.349,0,25.982,11.633,25.982,25.982C568.556,366.972,556.924,378.604,542.574,378.604z"
				/>
			<circle style="fill:none;stroke:#FFFFFF;stroke-width:0.9845;stroke-miterlimit:10;" cx="542.574" cy="352.622" r="44.681"/>
			<circle style="fill:none;stroke:#FFFFFF;stroke-width:0.841;stroke-miterlimit:10;" cx="542.574" cy="352.622" r="38.167"/>
		</g>
		<path style="fill:#80AECC;" d="M192.167,247.272v-13.625h-9.358c-0.643-3.042-1.762-5.906-3.271-8.518l6.877-6.877l-9.634-9.634
			l-6.622,6.622c-2.533-1.65-5.337-2.917-8.332-3.719v-9.72h-13.625v9.358c-3.042,0.643-5.906,1.762-8.518,3.272l-6.877-6.877
			l-9.634,9.634l6.622,6.622c-1.649,2.533-2.917,5.336-3.719,8.332h-9.72v13.625h9.358c0.643,3.042,1.762,5.906,3.271,8.518
			l-6.877,6.877l9.634,9.634l6.622-6.622c2.533,1.65,5.337,2.917,8.332,3.719v9.72h13.625v-9.358
			c3.042-0.643,5.906-1.762,8.518-3.272l6.877,6.877l9.634-9.634l-6.622-6.622c1.649-2.533,2.917-5.337,3.719-8.332H192.167z
			 M154.261,254.675c-8.267,0-14.968-6.702-14.968-14.968s6.702-14.968,14.968-14.968c8.267,0,14.968,6.702,14.968,14.968
			S162.528,254.675,154.261,254.675z"/>
		<path style="fill:#80AECC;" d="M660.733,225.91v-13.625h-9.358c-0.643-3.042-1.762-5.906-3.272-8.518l6.877-6.877l-9.634-9.634
			l-6.622,6.622c-2.533-1.65-5.336-2.917-8.332-3.719v-9.72h-13.625v9.358c-3.042,0.643-5.906,1.762-8.518,3.272l-6.877-6.877
			l-9.634,9.634l6.622,6.622c-1.649,2.533-2.917,5.337-3.719,8.332h-9.72v13.625h9.358c0.643,3.042,1.762,5.906,3.272,8.518
			l-6.877,6.877l9.634,9.634l6.622-6.622c2.533,1.65,5.336,2.917,8.332,3.719v9.72h13.625v-9.358
			c3.042-0.643,5.906-1.762,8.518-3.272l6.877,6.877l9.634-9.634l-6.622-6.622c1.649-2.533,2.917-5.336,3.719-8.332H660.733z
			 M622.826,233.312c-8.267,0-14.968-6.702-14.968-14.968c0-8.267,6.702-14.968,14.968-14.968s14.968,6.702,14.968,14.968
			C637.795,226.611,631.093,233.312,622.826,233.312z"/>
	</g>
	<g>
		<g>
			
				<rect x="285.069" y="60.625" transform="matrix(0.9909 0.1347 -0.1347 0.9909 36.9595 -36.4451)" style="fill:#0C143B;" width="5.3" height="388.384"/>
			
				<rect x="325.756" y="66.158" transform="matrix(0.9909 0.1347 -0.1347 0.9909 38.0762 -41.8771)" style="fill:#0C143B;" width="5.3" height="388.384"/>
			
				<rect x="311.131" y="80.672" transform="matrix(0.9909 0.1348 -0.1348 0.9909 14.3533 -43.9287)" style="fill:#0C143B;" width="41.062" height="6.772"/>
			
				<rect x="307.865" y="104.689" transform="matrix(0.9909 0.1348 -0.1348 0.9909 17.56 -43.2695)" style="fill:#0C143B;" width="41.062" height="6.772"/>
			
				<rect x="304.599" y="128.705" transform="matrix(0.9909 0.1348 -0.1348 0.9909 20.7667 -42.6102)" style="fill:#0C143B;" width="41.062" height="6.772"/>
			
				<rect x="301.332" y="152.722" transform="matrix(0.9909 0.1348 -0.1348 0.9909 23.9735 -41.951)" style="fill:#0C143B;" width="41.062" height="6.772"/>
			
				<rect x="298.066" y="176.738" transform="matrix(0.9909 0.1348 -0.1348 0.9909 27.1801 -41.2917)" style="fill:#0C143B;" width="41.062" height="6.772"/>
			
				<rect x="294.8" y="200.755" transform="matrix(0.9909 0.1348 -0.1348 0.9909 30.3868 -40.6324)" style="fill:#0C143B;" width="41.062" height="6.772"/>
			
				<rect x="291.533" y="224.771" transform="matrix(0.9909 0.1348 -0.1348 0.9909 33.5936 -39.9731)" style="fill:#0C143B;" width="41.062" height="6.772"/>
			
				<rect x="288.267" y="248.788" transform="matrix(0.9909 0.1348 -0.1348 0.9909 36.8003 -39.3139)" style="fill:#0C143B;" width="41.062" height="6.772"/>
			
				<rect x="285.001" y="272.804" transform="matrix(0.9909 0.1348 -0.1348 0.9909 40.007 -38.6546)" style="fill:#0C143B;" width="41.062" height="6.772"/>
			
				<rect x="281.734" y="296.821" transform="matrix(0.9909 0.1348 -0.1348 0.9909 43.2137 -37.9954)" style="fill:#0C143B;" width="41.062" height="6.772"/>
			
				<rect x="278.468" y="320.837" transform="matrix(0.9909 0.1348 -0.1348 0.9909 46.4206 -37.3362)" style="fill:#0C143B;" width="41.062" height="6.772"/>
			
				<rect x="275.202" y="344.854" transform="matrix(0.9909 0.1348 -0.1348 0.9909 49.6273 -36.677)" style="fill:#0C143B;" width="41.062" height="6.772"/>
			
				<rect x="271.936" y="368.87" transform="matrix(0.9909 0.1348 -0.1348 0.9909 52.834 -36.0177)" style="fill:#0C143B;" width="41.062" height="6.772"/>
			
				<rect x="268.669" y="392.887" transform="matrix(0.9909 0.1348 -0.1348 0.9909 56.0406 -35.3584)" style="fill:#0C143B;" width="41.062" height="6.772"/>
			
				<rect x="265.403" y="416.904" transform="matrix(0.9909 0.1348 -0.1348 0.9909 59.2473 -34.6991)" style="fill:#0C143B;" width="41.062" height="6.772"/>
		</g>
		<g>
			<path style="fill:#AAC5D8;" d="M216.745,228.477c0,0,14.091-2.673,30.318,0C247.063,228.477,232.138,237.922,216.745,228.477z"/>
			<path style="fill:#A35757;" d="M252.295,229.909c8.323-0.205,21.289-0.666,32.082-1.67c0,0-4.009-26.123-4.009-36.066
				l5.244,0.213c0,0,12.942,24.967,11.965,42.64c-0.136,2.463-1.65,4.633-3.864,5.72c-5.126,2.515-16.876,6.364-41.046,6.627
				c-4.87,0.053-8.873-3.866-8.873-8.736v0C243.795,233.902,247.561,230.026,252.295,229.909z"/>
			<path style="fill:#DAE6F0;" d="M282.752,216.818c0.861,6.44,1.625,11.421,1.625,11.421c-10.793,1.004-23.759,1.465-32.082,1.67
				c-4.734,0.117-8.501,3.992-8.501,8.728v0c0,4.87,4.003,8.789,8.873,8.736c24.171-0.263,35.92-4.112,41.046-6.627
				c2.214-1.086,3.728-3.257,3.864-5.72c0.366-6.627-1.225-14.28-3.357-21.258C290.425,213.461,286.065,214.727,282.752,216.818z"/>
			<path style="fill:#A35757;" d="M281.04,198.029c0,0-3.619-1.194-3.132-5.007c0.487-3.813-2.341-6.845-1.305-8.451
				c0.856-1.327,2.793,0.501,3.58,2.35c0.576,1.354,0.453,3.218,0.77,2.991c0.317-0.227,1.971-1.98,2.323-3.283
				c0.399-1.481,1.833-9.042,1.854-9.396c0.156-2.646,1.457-2.347,1.457-2.347c1.985,0.104,1.26,5.172,1.077,6.585
				c-0.277,2.132-0.999,5.634-0.999,5.634l0.303,0.123c0,0,5.688-10.046,5.989-10.564c0.511-0.88,1.254-0.797,1.523-0.661
				c0.41,0.208,0.838,0.814,0.452,2.076c-0.583,1.906-2.976,8.488-4.47,10.846c0,0,3.764-5.376,5.792-6.993
				c0.673-0.536,1.742-1.42,2.424-0.704c0.778,0.817-0.459,2.368-0.63,2.621c-1.169,1.724-4.119,5.638-5.723,7.135l0.175,0.373
				c0,0,5.825-1.348,7.452-1.863c0.157-0.05,0.931-0.321,1.294,0.304c0.57,0.982-0.442,1.457-0.644,1.564
				c-1.006,0.533-4.255,2.22-6.282,2.862c-0.711,0.225-1.34,0.657-1.768,1.267c-1.008,1.433-3.112,3.937-5.843,4.539
				C282.824,200.886,281.04,198.029,281.04,198.029z"/>
			<g>
				<path style="fill:#874545;" d="M222.335,200.791c2.127,2.858,2.743,7.662,0.376,9.386c-2.367,1.724-6.821-0.285-8.948-3.142
					c-2.127-2.858-1.932-6.572,0.435-8.296C216.565,197.014,220.208,197.933,222.335,200.791z"/>
				<g>
					<g>
						<path style="fill:#0C143B;" d="M220.086,205.079c-0.327-0.429-0.735-0.806-1.156-1.141c-0.911-0.726-1.969-1.26-3.119-1.475
							c-0.198-0.037-0.283,0.267-0.084,0.304c1.109,0.207,2.139,0.716,3.016,1.423c0.283,0.228,0.551,0.474,0.799,0.739
							c0.073,0.078,0.145,0.158,0.214,0.239c0.017,0.02,0.105,0.131,0.058,0.07C219.935,205.397,220.209,205.24,220.086,205.079
							L220.086,205.079z"/>
					</g>
				</g>
			</g>
			<path style="fill:#2F5356;" d="M235.893,324.933c13.432-1.213,25.75-5.104,27.987-12.201l-58.475,5.592
				c0,0,4.5,7.027,21.087,7.027C229.611,325.351,232.782,325.214,235.893,324.933"/>
			<g>
				<path style="fill:#0C143B;" d="M238.549,303.662v26.716l-4.487-0.087c0,0-3.64,28.126-15.259,100.688l-12.669-0.131
					c0,0-10.586-112.305,3.796-126.593L238.549,303.662z"/>
				<path style="fill:#0C143B;" d="M233.255,304.272l1.996,26.041l1.984,0.039c0,0,5.162,41.979,3.574,100.626h14.293
					c0,0,20.646-80.23,3.803-127.316L233.255,304.272z"/>
			</g>
			<path style="fill:#B26666;" d="M250.328,235.596c-14.86-4.582-10.807-19.759-10.807-19.759h-14.764
				c0,0,4.053,15.177-10.807,19.759c-0.926,0.286-1.799,0.572-2.636,0.861c11.79,11.667,31.104,8.75,41.602,0.184
				c0.006-0.066,0.015-0.132,0.021-0.198C252.108,236.158,251.24,235.877,250.328,235.596z"/>
			<g>
				<path style="fill:#874545;" d="M225.24,219.435c-0.096-2.144-0.484-3.598-0.484-3.598l6.851-0.827v-0.128l0.531,0.064
					l0.531-0.064v0.128l6.851,0.827c0,0-0.662,2.479-0.47,5.736C237.547,224.609,232.139,228.818,225.24,219.435z"/>
			</g>
			<path style="fill:#B26666;" d="M249.425,191.064c0.622,6.196,1.14,19.544-4.694,25.369c-7.671,7.66-20.939,3.126-24.172-4.725
				c-2.79-6.776-2.779-19.189,2.099-27.348c2.528-4.228,7.837-7.301,14.36-6.971C246.698,177.881,249.229,189.113,249.425,191.064z"
				/>
			<g>
				<g>
					<path style="fill:#0C143B;" d="M236.714,193.423c0.089,1.753,0.178,3.505,0.266,5.258c0.066,1.295,0.131,2.59,0.197,3.885
						c0.026,0.505,0.051,1.01,0.077,1.516c0.014,0.271-0.034,0.647,0.046,0.909c0.013,0.041-0.015,0.121,0.008,0.158
						c-0.121-0.194,0.265-0.12-0.063-0.116c-0.125,0.002-0.269,0.052-0.391,0.076c-0.564,0.109-1.127,0.218-1.691,0.327
						c-0.199,0.038-0.115,0.342,0.084,0.304c0.754-0.146,1.507-0.291,2.26-0.437c0.064-0.012,0.119-0.087,0.116-0.152
						c-0.173-3.422-0.346-6.844-0.52-10.266c-0.025-0.487-0.049-0.974-0.074-1.461C237.019,193.222,236.703,193.221,236.714,193.423
						L236.714,193.423z"/>
				</g>
			</g>
			<g>
				<path style="fill:#874545;" d="M230.432,206.77c0,1.592-1.496,2.883-3.34,2.883c-1.845,0-3.34-1.291-3.34-2.883
					c0-1.592,1.496-2.883,3.34-2.883C228.936,203.886,230.432,205.177,230.432,206.77z"/>
			</g>
			<g>
				<path style="fill:#874545;" d="M247.454,206.77c0,1.592-1.496,2.883-3.34,2.883c-1.845,0-3.34-1.291-3.34-2.883
					c0-1.592,1.495-2.883,3.34-2.883C245.958,203.886,247.454,205.177,247.454,206.77z"/>
			</g>
			<path style="fill:#0C143B;" d="M226.142,196.645c0.124,0.641,1.349,0.322,2.88,0.032c1.531-0.29,2.789-0.439,2.665-1.08
				c-0.124-0.641-1.465-0.926-2.997-0.636C227.159,195.25,226.018,196.004,226.142,196.645z"/>
			<path style="fill:#0C143B;" d="M240.27,195.363c-0.127,0.64,1.13,0.796,2.66,1.092c1.53,0.296,2.753,0.621,2.88-0.019
				c0.127-0.64-1.011-1.4-2.54-1.696C241.739,194.444,240.397,194.723,240.27,195.363z"/>
			<path style="fill:#DAE6F0;" d="M259.74,248.185c-0.483-5.477-1.705-10.768-4.692-15.371c-2.948-1.23-5.782-2.87-7.985-4.338
				c-9.361,3.663-21.09,3.937-30.318,0c-1.149,0.228-11.324,6.321-11.867,11.64c-0.287,2.809-0.372,5.646-0.586,8.069
				c-0.569,6.449-4.14,60.051-4.14,60.051c8.61,5.582,20.399,7.474,31.194,7.796h1.341c10.794-0.322,22.584-2.214,31.194-7.796
				C263.88,308.236,260.309,254.635,259.74,248.185z"/>
			<path style="fill:#AAC5D8;" d="M201.474,288.527c-0.736,10.903-1.322,19.709-1.322,19.709c8.61,5.582,20.399,7.474,31.194,7.796
				h1.341c10.794-0.322,22.584-2.214,31.194-7.796c0,0-0.767-11.518-1.647-24.517C245.835,298.307,221.53,301.427,201.474,288.527z"
				/>
			<path style="fill:#0C143B;" d="M229.368,201.275c0,0.977,0.476,1.769,1.064,1.769c0.587,0,1.064-0.792,1.064-1.769
				c0-0.977-0.476-1.769-1.064-1.769C229.845,199.505,229.368,200.298,229.368,201.275z"/>
			<path style="fill:#0C143B;" d="M240.261,201.275c0,0.977,0.476,1.769,1.064,1.769s1.064-0.792,1.064-1.769
				c0-0.977-0.476-1.769-1.064-1.769S240.261,200.298,240.261,201.275z"/>
			<g>
				<path style="fill:#28114F;" d="M262.017,411.233l-5.187,29.692c0,0,13.149,2.843,18.842,7.45
					c1.459,1.181,0.653,3.521-1.231,3.578c-9.253,0.281-32.558,0.803-32.946-1.042c-0.484-2.303-2.219-39.678-2.219-39.678H262.017z
					"/>
			</g>
			<g>
				<path style="fill:#28114F;" d="M225.359,411.233l-5.187,29.692c0,0,13.149,2.843,18.842,7.45
					c1.459,1.181,0.653,3.521-1.231,3.578c-9.253,0.281-32.558,0.803-32.946-1.042c-0.484-2.303-2.219-39.678-2.219-39.678H225.359z
					"/>
			</g>
			<ellipse style="fill:#874545;" cx="236.169" cy="213.836" rx="0.671" ry="0.281"/>
			<g>
				<g>
					<path style="fill:#0C143B;" d="M232.523,208.626c0.323,0.88,1.198,1.527,2.052,1.823c1.486,0.516,3.494,0.316,4.572-0.932
						c0.221-0.256,0.429-0.563,0.526-0.891c0.057-0.195-0.247-0.278-0.304-0.084c-0.226,0.766-0.991,1.347-1.707,1.603
						c-1.42,0.507-3.293,0.276-4.348-0.87c-0.187-0.203-0.409-0.521-0.487-0.733C232.757,208.353,232.453,208.434,232.523,208.626
						L232.523,208.626z"/>
				</g>
			</g>
			<path style="fill:#0C143B;" d="M215.383,198.125c0,0,2.585-0.991,3.295,5.068c0,0,5.139,1.736,6.486-14.634
				c0,0,2.115,3.047,3.75,3.118c1.635,0.071,0-6.945,0-6.945s6.086-6.732,15.199,1.63c0,0,3.028,3.207,5.092,3.452
				c4.279,0.509,5.622-16.781-13.107-16.988c-18.729-0.207-17.84,15.094-17.84,15.094S211.521,189.174,215.383,198.125z"/>
			<g>
				<g>
					<defs>
						<path id="SVGID_00000067215401311693573800000012630850160566708144_" d="M298.646,195.441
							c6.235-14.359-0.274-31.04-14.539-37.401c-14.326-6.388-31.303,0.121-37.675,14.454c-3.764,8.468-3.071,17.77,1.052,25.299
							c3.024,5.523,4.121,11.897,3.031,18.099l-0.448,2.548l12.626,5.482l1.556-2.067c3.804-5.053,9.248-8.577,15.371-10.162
							C287.828,209.568,295.008,203.821,298.646,195.441z"/>
					</defs>
					<clipPath id="SVGID_00000105402652362124129570000004527282528065711257_">
						<use xlink:href="#SVGID_00000067215401311693573800000012630850160566708144_"  style="overflow:visible;"/>
					</clipPath>
					<path style="clip-path:url(#SVGID_00000105402652362124129570000004527282528065711257_);fill:#E8AC29;" d="M298.646,195.441
						c6.235-14.359-0.274-31.04-14.539-37.401c-14.326-6.388-31.303,0.121-37.675,14.454c-3.764,8.468-3.071,17.77,1.052,25.299
						c3.024,5.523,4.121,11.897,3.031,18.099l-0.448,2.548l12.626,5.482l1.556-2.067c3.804-5.053,9.248-8.577,15.371-10.162
						C287.828,209.568,295.008,203.821,298.646,195.441z"/>
					<path style="clip-path:url(#SVGID_00000105402652362124129570000004527282528065711257_);fill:#F0CA6C;" d="M297.717,170.79
						c-2.877-5.469-7.541-10.043-13.61-12.75c-14.326-6.388-31.304,0.121-37.675,14.454c-0.089,0.2-0.173,0.4-0.257,0.601
						C254.88,184.497,284.001,197.142,297.717,170.79z"/>
					
						<path style="clip-path:url(#SVGID_00000105402652362124129570000004527282528065711257_);fill:none;stroke:#FFFFFF;stroke-width:0.6942;stroke-miterlimit:10;" d="
						M257.772,228.765c0,0,8.115-32.947,18.683-36.991c10.568-4.044,7.642,15.71-10.516,7.826l-0.317-0.138
						c-18.157-7.884-5.722-23.509-1.462-13.026c4.261,10.482-14.272,38.907-14.272,38.907"/>
				</g>
				<path style="fill:#0C143B;" d="M260.843,228.093l-12.559-5.453c-0.961-0.417-1.402-1.535-0.985-2.496l0.131-0.303
					c0.417-0.961,1.535-1.402,2.496-0.984l12.559,5.453c0.961,0.417,1.402,1.535,0.985,2.496l-0.131,0.303
					C262.921,228.07,261.804,228.51,260.843,228.093z"/>
				<path style="fill:#0C143B;" d="M255.694,231.092l-6.086-2.643c-1.045-0.454-1.524-1.668-1.07-2.713l0,0
					c0.454-1.045,1.668-1.524,2.713-1.07l6.086,2.643c1.045,0.454,1.524,1.668,1.07,2.713l0,0
					C257.953,231.066,256.739,231.545,255.694,231.092z"/>
				<path style="fill:#F5DEA9;" d="M263.431,161.445c-5.281,2.798-7.518,8.924-4.996,13.684c2.522,4.759,8.847,6.349,14.128,3.551
					c5.281-2.798,7.518-8.924,4.996-13.684C275.037,160.237,268.711,158.647,263.431,161.445z"/>
			</g>
			<g>
				<path style="fill:#B26666;" d="M214.64,231.912c8.058,2.094,20.65,5.22,31.302,7.226c0,0,4.257-25.693,6.994-35.251l5.748,1.272
					c0,0,3.885,27.416-1.919,44.138c-0.809,2.33-2.861,4-5.289,4.435c-5.62,1.007-17.976,1.473-41.285-4.928
					c-4.696-1.29-7.466-6.159-6.125-10.841v0C205.369,233.41,210.057,230.721,214.64,231.912z"/>
				<path style="fill:#B26666;" d="M251.809,208.365c0,0-3.619-1.194-3.132-5.007c0.487-3.813-2.341-6.845-1.305-8.451
					c0.856-1.327,2.793,0.501,3.58,2.35c0.576,1.354,0.453,3.218,0.77,2.991c0.317-0.227,1.971-1.98,2.323-3.284
					c0.399-1.481,1.833-9.042,1.853-9.396c0.156-2.646,1.457-2.347,1.457-2.347c1.985,0.104,1.26,5.172,1.077,6.585
					c-0.277,2.132-0.999,5.634-0.999,5.634l0.303,0.123c0,0,5.688-10.046,5.989-10.564c0.511-0.88,1.254-0.797,1.523-0.661
					c0.41,0.208,0.838,0.814,0.452,2.076c-0.582,1.906-2.976,8.488-4.47,10.846c0,0,3.764-5.376,5.793-6.993
					c0.673-0.536,1.742-1.42,2.423-0.703c0.778,0.817-0.459,2.368-0.63,2.621c-1.17,1.724-4.119,5.638-5.723,7.134l0.175,0.373
					c0,0,5.825-1.348,7.452-1.863c0.157-0.05,0.931-0.321,1.294,0.304c0.57,0.982-0.442,1.457-0.644,1.564
					c-1.006,0.533-4.255,2.22-6.282,2.862c-0.711,0.225-1.339,0.657-1.768,1.267c-1.008,1.433-3.112,3.937-5.843,4.539
					C253.593,211.222,251.809,208.365,251.809,208.365z"/>
				<path style="fill:#DAE6F0;" d="M247.443,230.448c-0.898,5.049-1.501,8.69-1.501,8.69c-10.652-2.006-23.244-5.133-31.302-7.226
					c-4.583-1.191-9.271,1.498-10.575,6.05v0c-1.341,4.682,1.429,9.551,6.125,10.841c23.309,6.401,35.665,5.935,41.285,4.928
					c2.428-0.435,4.48-2.105,5.289-4.435c1.691-4.872,2.556-10.651,2.938-16.396C255.804,230.829,251.551,229.72,247.443,230.448z"
					/>
				<g>
					<g>
						<path style="fill:#AAC5D8;" d="M210.091,249.165c9.669,2.644,19.594,4.843,29.628,5.414c2.829,0.161,5.675,0.185,8.501-0.055
							c2.854-0.242,5.795-0.621,7.725-3.007c1.769-2.188,2.268-5.53,2.809-8.21c0.692-3.431,1.083-6.916,1.323-10.406
							c0.009-0.124-0.076-0.267-0.186-0.324c-3.89-2.028-8.155-3.201-12.548-2.49c-0.116,0.019-0.242,0.147-0.262,0.262
							c-0.514,2.894-1.02,5.79-1.501,8.69c0.154-0.087,0.308-0.175,0.461-0.262c-10.522-1.991-20.94-4.536-31.302-7.226
							c-0.467-0.121-0.667,0.602-0.199,0.723c10.362,2.69,20.78,5.235,31.302,7.226c0.183,0.035,0.426-0.049,0.461-0.262
							c0.328-1.979,0.67-3.956,1.015-5.933c0.147-0.839,0.057-2.296,0.976-2.607c0.731-0.247,1.811-0.117,2.57-0.077
							c1.936,0.101,3.838,0.565,5.65,1.242c0.461,0.173,0.916,0.359,1.366,0.56c0.278,0.125,1.044,0.347,1.228,0.589
							c0.45,0.592,0.061,1.975-0.007,2.681c-0.202,2.112-0.477,4.217-0.858,6.304c-0.318,1.743-0.707,3.474-1.2,5.176
							c-0.506,1.749-1.033,3.44-2.452,4.674c-2.41,2.097-6.499,2.024-9.538,2.088c-4.224,0.088-8.454-0.259-12.638-0.817
							c-7.478-0.997-14.854-2.69-22.125-4.679C209.824,248.314,209.625,249.037,210.091,249.165L210.091,249.165z"/>
					</g>
				</g>
			</g>
		</g>
	</g>
	<g>
		<g>
			<path style="fill:#0C143B;" d="M442.668,68.834L442.668,68.834c1.371,0,2.482-1.111,2.482-2.482V52.917
				c0-1.371-1.111-2.482-2.482-2.482l0,0c-1.371,0-2.482,1.111-2.482,2.482v13.435C440.186,67.723,441.297,68.834,442.668,68.834z"
				/>
			<path style="fill:#0C143B;" d="M433.468,59.635L433.468,59.635c0,1.371,1.111,2.482,2.482,2.482h13.435
				c1.371,0,2.482-1.111,2.482-2.482l0,0c0-1.371-1.111-2.482-2.482-2.482H435.95C434.579,57.153,433.468,58.264,433.468,59.635z"/>
		</g>
		<g>
			<path style="fill:#0C143B;" d="M618.668,333.423L618.668,333.423c1.371,0,2.482-1.111,2.482-2.482v-13.435
				c0-1.371-1.111-2.482-2.482-2.482l0,0c-1.371,0-2.482,1.111-2.482,2.482v13.435C616.186,332.312,617.297,333.423,618.668,333.423
				z"/>
			<path style="fill:#0C143B;" d="M609.468,324.224L609.468,324.224c0,1.371,1.111,2.482,2.482,2.482h13.435
				c1.371,0,2.482-1.111,2.482-2.482l0,0c0-1.371-1.111-2.482-2.482-2.482H611.95C610.579,321.742,609.468,322.853,609.468,324.224z
				"/>
		</g>
		<g>
			<path style="fill:#0C143B;" d="M161.948,186.557L161.948,186.557c1.371,0,2.482-1.111,2.482-2.482V170.64
				c0-1.371-1.111-2.482-2.482-2.482l0,0c-1.371,0-2.482,1.111-2.482,2.482v13.435C159.466,185.446,160.577,186.557,161.948,186.557
				z"/>
			<path style="fill:#0C143B;" d="M152.748,177.357L152.748,177.357c0,1.371,1.111,2.482,2.482,2.482h13.435
				c1.371,0,2.482-1.111,2.482-2.482v0c0-1.371-1.111-2.482-2.482-2.482H155.23C153.859,174.876,152.748,175.987,152.748,177.357z"
				/>
		</g>
		<g>
			<path style="fill:#0C143B;" d="M130.697,183.13L130.697,183.13c0.49,0,0.888-0.397,0.888-0.888v-4.806
				c0-0.49-0.398-0.888-0.888-0.888l0,0c-0.49,0-0.888,0.398-0.888,0.888v4.806C129.809,182.733,130.207,183.13,130.697,183.13z"/>
			<path style="fill:#0C143B;" d="M127.406,179.839L127.406,179.839c0,0.49,0.397,0.888,0.888,0.888h4.806
				c0.49,0,0.888-0.397,0.888-0.888l0,0c0-0.49-0.398-0.888-0.888-0.888h-4.806C127.804,178.952,127.406,179.349,127.406,179.839z"
				/>
		</g>
		<g>
			<path style="fill:#0C143B;" d="M471.44,77.323L471.44,77.323c0.49,0,0.888-0.397,0.888-0.888v-4.806
				c0-0.49-0.398-0.888-0.888-0.888l0,0c-0.49,0-0.888,0.397-0.888,0.888v4.806C470.552,76.926,470.949,77.323,471.44,77.323z"/>
			<path style="fill:#0C143B;" d="M468.149,74.032L468.149,74.032c0,0.49,0.398,0.888,0.888,0.888h4.806
				c0.49,0,0.888-0.397,0.888-0.888l0,0c0-0.49-0.397-0.888-0.888-0.888h-4.806C468.546,73.145,468.149,73.542,468.149,74.032z"/>
		</g>
		<g>
			<path style="fill:#0C143B;" d="M591.502,278.836L591.502,278.836c0.981,0,1.776-0.795,1.776-1.776v-9.612
				c0-0.981-0.795-1.776-1.776-1.776l0,0c-0.981,0-1.776,0.795-1.776,1.776v9.612C589.726,278.041,590.521,278.836,591.502,278.836z
				"/>
			<path style="fill:#0C143B;" d="M584.92,272.254L584.92,272.254c0,0.981,0.795,1.776,1.776,1.776h9.612
				c0.981,0,1.776-0.795,1.776-1.776l0,0c0-0.981-0.795-1.776-1.776-1.776h-9.612C585.715,270.479,584.92,271.274,584.92,272.254z"
				/>
		</g>
	</g>
</g>
</svg>
