<?xml version="1.0" encoding="utf-8"?>
<!-- Generator: Adobe Illustrator 27.5.0, SVG Export Plug-In . SVG Version: 6.00 Build 0)  -->
<svg version="1.1" xmlns="http://www.w3.org/2000/svg" xmlns:xlink="http://www.w3.org/1999/xlink" x="0px" y="0px"
	 viewBox="0 0 500 500" style="enable-background:new 0 0 500 500;" xml:space="preserve">
<g id="Floor">
	<path id="Floor_10_" style="fill:#F5F5F5;" d="M84.265,440.302C-7.27,387.454-7.271,301.772,84.263,248.926
		s239.939-52.846,331.473,0s91.535,138.528,0.002,191.376C324.205,493.149,175.8,493.149,84.265,440.302z"/>
</g>
<g id="Clouds">
	<g id="Clouds_2_">
		<g id="XMLID_750_">
			<path id="XMLID_751_" style="fill:#E6E6E6;" d="M393.996,86.481l6.816,3.936c-0.034-0.305-0.057-0.607-0.057-0.902v-1.975
				c0-3.514,2.467-4.938,5.51-3.182c1.233,0.712,2.366,1.839,3.284,3.158c0.498-4.419,3.965-6.065,8.176-3.634
				c4.553,2.629,8.244,9.022,8.244,14.279v2.954c0,1.362-0.252,2.508-0.698,3.423l5.662,3.269c1.688,0.975,3.057,3.345,3.057,5.294
				c0,1.949-1.368,2.739-3.057,1.765L393.996,93.54c-1.688-0.975-3.057-3.345-3.057-5.295
				C390.94,86.296,392.308,85.506,393.996,86.481z"/>
		</g>
		<g id="XMLID_747_">
			<path id="XMLID_749_" style="fill:#E6E6E6;" d="M429.767,60.612l3.76,1.446v-8.283c0-6.566,5.238-8.141,10.924-4.857l0,0
				c5.687,3.283,10.297,11.268,10.297,17.834v1.203c1.29-0.515,2.956-0.315,4.778,0.736l0,0c4.092,2.363,7.41,8.109,7.41,12.834
				v0.547l5.243,3.027c2.695,1.556,4.88,5.34,4.88,8.451s-2.185,4.373-4.88,2.817l-42.411-24.486c-2.695-1.556-4.88-5.34-4.88-8.451
				C424.888,60.318,427.072,59.056,429.767,60.612z"/>
		</g>
	</g>
</g>
<g id="Sun">
	
		<ellipse id="Sun_1_" transform="matrix(0.8507 -0.5257 0.5257 0.8507 30.6335 200.6194)" style="fill:#F28F8F;" cx="368.421" cy="46.393" rx="15.52" ry="15.52"/>
</g>
<g id="Shadows">
	<ellipse id="Shadow_1_" style="fill:#E0E0E0;" cx="122.825" cy="392.962" rx="19.541" ry="11.282"/>
	<polygon id="Shadow_22_" style="fill:#E0E0E0;" points="320.865,447.575 91.567,315.19 162.441,274.271 391.739,406.656 	"/>
</g>
<g id="Plants">
	<g id="Plants_11_">
		<g id="Plants_1_">
			<g id="XMLID_259_">
				<path id="XMLID_291_" style="fill:#BA68C8;" d="M393.161,381.215c-0.285,0.058-2.405,0.011-2.695-0.011
					c-3.316-0.26-7.043-2.183-10.37-4.033c-2.193-1.219-5.142-2.879-6.218-5.255c-0.533-1.177-0.51-2.706,0.405-3.619
					c0.986-0.984,2.772-1.082,3.384-2.333c-2.218-1.793-5.453-2.253-7.187-4.518c-1.306-1.705-1.738-3.762-1.799-5.909
					c-0.036-1.266,0.312-2.945,1.236-3.811c1.094-1.026,2.829-0.723,4.296-0.409c0.387,0.083,0.789,0.162,1.176,0.08
					c0.387-0.082,0.759-0.367,0.817-0.759c0.071-0.48-0.327-0.891-0.708-1.192c-0.817-0.645-1.715-1.185-2.495-1.875
					c-0.779-0.689-1.451-1.569-1.625-2.595c-0.207-1.22,0.311-2.437,0.849-3.552c0.91-1.886,1.884-3.778,3.015-5.543
					c0.273-0.426,2.552-4.878,2.369-4.904c5.215,0.737,10.252,3.082,14.661,5.879c2.461,1.561,5.873,4.264,6,7.494
					c0.036,0.919-0.243,1.804-0.639,2.623c-0.18,0.372-0.47,0.702-0.695,1.046c-0.142,0.218-0.724,1.053,0.008,0.842
					c0.163-0.047,0.294-0.166,0.418-0.281c1.097-1.016,2.193-2.031,3.289-3.047c0.328-0.304,0.681-0.621,1.119-0.709
					c0.931-0.187,2.812,0.937,4.31,3.433c0.991,1.653,1.16,3.733,0.893,5.63c-0.431,3.052-2.007,5.804-3.553,8.471
					c0.929-0.62,1.858-1.24,2.786-1.86c3.255-2.172,2.536,3.756,2.181,4.964c-0.933,3.178-3.363,7.737-5.71,10.078
					C399.948,378.263,396.942,380.449,393.161,381.215z"/>
				<path id="XMLID_283_" style="opacity:0.5;fill:#FFFFFF;" d="M393.161,381.215c-0.285,0.058-2.405,0.011-2.695-0.011
					c-3.316-0.26-7.043-2.183-10.37-4.033c-2.193-1.219-5.142-2.879-6.218-5.255c-0.533-1.177-0.51-2.706,0.405-3.619
					c0.986-0.984,2.772-1.082,3.384-2.333c-2.218-1.793-5.453-2.253-7.187-4.518c-1.306-1.705-1.738-3.762-1.799-5.909
					c-0.036-1.266,0.312-2.945,1.236-3.811c1.094-1.026,2.829-0.723,4.296-0.409c0.387,0.083,0.789,0.162,1.176,0.08
					c0.387-0.082,0.759-0.367,0.817-0.759c0.071-0.48-0.327-0.891-0.708-1.192c-0.817-0.645-1.715-1.185-2.495-1.875
					c-0.779-0.689-1.451-1.569-1.625-2.595c-0.207-1.22,0.311-2.437,0.849-3.552c0.91-1.886,1.884-3.778,3.015-5.543
					c0.273-0.426,2.552-4.878,2.369-4.904c5.215,0.737,10.252,3.082,14.661,5.879c2.461,1.561,5.873,4.264,6,7.494
					c0.036,0.919-0.243,1.804-0.639,2.623c-0.18,0.372-0.47,0.702-0.695,1.046c-0.142,0.218-0.724,1.053,0.008,0.842
					c0.163-0.047,0.294-0.166,0.418-0.281c1.097-1.016,2.193-2.031,3.289-3.047c0.328-0.304,0.681-0.621,1.119-0.709
					c0.931-0.187,2.812,0.937,4.31,3.433c0.991,1.653,1.16,3.733,0.893,5.63c-0.431,3.052-2.007,5.804-3.553,8.471
					c0.929-0.62,1.858-1.24,2.786-1.86c3.255-2.172,2.536,3.756,2.181,4.964c-0.933,3.178-3.363,7.737-5.71,10.078
					C399.948,378.263,396.942,380.449,393.161,381.215z"/>
				<path style="fill:#FFFFFF;" d="M392.73,362.643c2.488-6.241,6.426-10.095,8.785-12.399l0.085-0.082
					c0.154-0.151,0.158-0.399,0.006-0.555c-0.15-0.152-0.4-0.158-0.555-0.006l-0.085,0.083c-2.257,2.205-5.926,5.822-8.477,11.551
					c-2.15-11.993-7.183-22.117-10.758-26.242c-0.151-0.171-0.416-0.194-0.591-0.042c-0.175,0.151-0.193,0.416-0.042,0.59
					c3.527,4.068,8.492,14.042,10.597,25.872c-6.463-6.13-14.167-6.46-14.248-6.463c-0.216-0.007-0.397,0.163-0.404,0.379
					c-0.005,0.149,0.075,0.281,0.194,0.351c0.055,0.032,0.117,0.051,0.185,0.053c0.08,0.003,8.11,0.338,14.497,6.996
					c0.897,5.598,1.111,13.403,0.18,17.652c-0.035,0.162,0.028,0.323,0.15,0.419c0.048,0.038,0.105,0.065,0.169,0.079
					c0.225,0.05,0.448-0.093,0.498-0.319C393.865,376.238,393.645,368.339,392.73,362.643z"/>
			</g>
		</g>
		<g id="Plants_10_">
			<g id="XMLID_313_">
				<path id="XMLID_332_" style="fill:#BA68C8;" d="M386.55,403.445c0.246,0.202,2.368,1.188,2.667,1.304
					c3.433,1.338,8.291,1.067,12.707,0.68c2.911-0.255,6.839-0.619,9.357-2.677c1.247-1.02,2.16-2.695,1.816-4.134
					c-0.371-1.552-2.074-2.531-1.912-4.191c3.288-0.866,6.764,0.215,9.862-1.402c2.333-1.217,4.02-3.242,5.394-5.548
					c0.81-1.359,1.495-3.355,1.113-4.749c-0.452-1.65-2.35-2.168-3.99-2.544c-0.433-0.099-0.878-0.21-1.21-0.488
					c-0.332-0.278-0.525-0.771-0.342-1.225c0.224-0.557,0.869-0.81,1.429-0.951c1.201-0.302,2.419-0.451,3.611-0.82
					c1.191-0.369,2.393-0.997,3.193-2.028c0.952-1.226,1.185-2.802,1.338-4.278c0.257-2.496,0.454-5.03,0.418-7.502
					c-0.009-0.596,0.468-6.553,0.664-6.491c-5.6-1.746-12.009-1.657-18.074-0.77c-3.385,0.495-8.409,1.768-10.513,5.218
					c-0.599,0.982-0.865,2.081-0.975,3.165c-0.05,0.492,0.034,0.993,0.046,1.478c0.007,0.306,0.07,1.5-0.524,0.912
					c-0.132-0.13-0.188-0.324-0.241-0.51c-0.461-1.64-0.921-3.28-1.382-4.921c-0.138-0.491-0.292-1.008-0.671-1.318
					c-0.805-0.658-3.35-0.355-6.357,1.628c-1.991,1.313-3.432,3.493-4.329,5.687c-1.444,3.53-1.573,7.294-1.68,10.949
					c-0.537-1.128-1.075-2.256-1.612-3.384c-1.883-3.953-4.804,2.846-5.193,4.333c-1.025,3.912-1.418,10.059-0.534,13.751
					C381.658,396.919,383.286,400.766,386.55,403.445z"/>
				<path id="XMLID_328_" style="opacity:0.3;fill:#FFFFFF;" d="M386.55,403.445c0.246,0.202,2.368,1.188,2.667,1.304
					c3.433,1.338,8.291,1.067,12.707,0.68c2.911-0.255,6.839-0.619,9.357-2.677c1.247-1.02,2.16-2.695,1.816-4.134
					c-0.371-1.552-2.074-2.531-1.912-4.191c3.288-0.866,6.764,0.215,9.862-1.402c2.333-1.217,4.02-3.242,5.394-5.548
					c0.81-1.359,1.495-3.355,1.113-4.749c-0.452-1.65-2.35-2.168-3.99-2.544c-0.433-0.099-0.878-0.21-1.21-0.488
					c-0.332-0.278-0.525-0.771-0.342-1.225c0.224-0.557,0.869-0.81,1.429-0.951c1.201-0.302,2.419-0.451,3.611-0.82
					c1.191-0.369,2.393-0.997,3.193-2.028c0.952-1.226,1.185-2.802,1.338-4.278c0.257-2.496,0.454-5.03,0.418-7.502
					c-0.009-0.596,0.468-6.553,0.664-6.491c-5.6-1.746-12.009-1.657-18.074-0.77c-3.385,0.495-8.409,1.768-10.513,5.218
					c-0.599,0.982-0.865,2.081-0.975,3.165c-0.05,0.492,0.034,0.993,0.046,1.478c0.007,0.306,0.07,1.5-0.524,0.912
					c-0.132-0.13-0.188-0.324-0.241-0.51c-0.461-1.64-0.921-3.28-1.382-4.921c-0.138-0.491-0.292-1.008-0.671-1.318
					c-0.805-0.658-3.35-0.355-6.357,1.628c-1.991,1.313-3.432,3.493-4.329,5.687c-1.444,3.53-1.573,7.294-1.68,10.949
					c-0.537-1.128-1.075-2.256-1.612-3.384c-1.883-3.953-4.804,2.846-5.193,4.333c-1.025,3.912-1.418,10.059-0.534,13.751
					C381.658,396.919,383.286,400.766,386.55,403.445z"/>
				<path style="fill:#FFFFFF;" d="M396.876,386.073c1.366-8.004-0.162-14.119-1.079-17.778l-0.034-0.131
					c-0.06-0.24,0.089-0.511,0.334-0.606c0.241-0.092,0.491,0.024,0.551,0.264l0.033,0.131c0.878,3.501,2.285,9.228,1.295,16.705
					c9.467-11.994,22.108-23.161,28.164-25.901c0.254-0.112,0.529-0.008,0.609,0.243c0.08,0.25-0.064,0.547-0.32,0.663
					c-5.973,2.701-18.456,13.739-27.779,25.576c10.135-3.509,17.943-0.104,18.025-0.068c0.217,0.098,0.293,0.371,0.167,0.61
					c-0.086,0.164-0.246,0.269-0.407,0.287c-0.074,0.008-0.147-0.002-0.216-0.033c-0.081-0.036-8.214-3.595-18.596,0.526
					c-4.314,5.651-7.832,11.419-9.514,16.495c-0.064,0.194-0.226,0.338-0.405,0.382c-0.071,0.017-0.143,0.02-0.215,0.004
					c-0.253-0.056-0.386-0.32-0.296-0.59C388.903,397.689,392.486,391.821,396.876,386.073z"/>
			</g>
		</g>
	</g>
</g>
<g id="Sign">
	<g id="Placard_3_">
		<g id="Placard_2_">
			<g>
				<path style="fill:#BA68C8;" d="M133.841,383.448c-6.084-3.513-15.949-3.513-22.033,0c-3.043,1.757-4.554,4.059-4.548,6.361
					c0.002,0.712,0.002,1.671,0,2.383c-0.005,2.302,1.505,4.603,4.548,6.36c6.084,3.513,15.949,3.513,22.033,0
					c3.043-1.757,4.554-4.058,4.548-6.36c-0.002-0.712-0.002-1.671,0-2.383C138.395,387.507,136.884,385.205,133.841,383.448z"/>
				<ellipse style="fill:#BA68C8;" cx="122.825" cy="389.809" rx="15.58" ry="8.995"/>
				<ellipse style="opacity:0.3;fill:#FFFFFF;" cx="122.825" cy="389.809" rx="15.58" ry="8.995"/>
			</g>
			<path style="fill:#BA68C8;" d="M121.112,302.504h3.426v87.881l0,0c0,0.253-0.167,0.506-0.502,0.699
				c-0.669,0.386-1.753,0.386-2.422,0c-0.335-0.193-0.502-0.446-0.502-0.699l0,0V302.504z"/>
			<path style="opacity:0.15;" d="M121.112,322.235l3.426,1.983v-16.513c-0.927,0.042-2.298,0.103-3.426,0.153V322.235z"/>
			<g>
				<polygon style="fill:#BA68C8;" points="94.483,304.182 94.483,260.856 96.704,259.574 145.536,287.768 145.536,331.094 
					143.315,332.376 				"/>
				<polygon style="opacity:0.5;fill:#FFFFFF;" points="145.536,287.768 143.315,289.05 94.483,260.856 96.704,259.574 				"/>
				<g>
					<polygon style="fill:#BA68C8;" points="143.315,332.376 94.483,304.182 94.483,260.856 143.315,289.05 					"/>
				</g>
				<polygon style="opacity:0.3;fill:#FFFFFF;" points="143.315,332.376 94.483,304.182 94.483,260.856 143.315,289.05 				"/>
				<polygon style="fill:#BA68C8;" points="141.272,291.004 97.456,265.618 97.491,302.764 141.272,328.041 				"/>
				<polygon style="fill:#FAFAFA;" points="141.272,291.004 141.272,325.984 99.283,301.742 99.283,266.673 				"/>
				<polygon style="opacity:0.25;" points="99.283,301.742 97.491,302.764 97.456,265.618 99.283,266.673 				"/>
			</g>
		</g>
		<g>
			<path style="fill:#37474F;" d="M113.102,282.634c0.132,0.076,0.246,0.214,0.341,0.417c0.095,0.202,0.143,0.404,0.143,0.606
				v10.999c0,1.268-0.131,2.313-0.395,3.136c-0.262,0.822-0.634,1.424-1.118,1.807c-0.483,0.382-1.058,0.551-1.727,0.505
				c-0.67-0.047-1.403-0.3-2.203-0.763c-0.812-0.468-1.551-1.065-2.22-1.791c-0.669-0.726-1.242-1.558-1.719-2.495
				c-0.478-0.937-0.847-1.969-1.11-3.095c-0.262-1.125-0.393-2.321-0.393-3.59v-10.999c0-0.201,0.047-0.349,0.143-0.441
				c0.094-0.092,0.209-0.1,0.34-0.024l2.345,1.354c0.131,0.076,0.244,0.215,0.341,0.417c0.095,0.202,0.143,0.405,0.143,0.606v10.889
				c0,1.103,0.175,2.069,0.527,2.897c0.353,0.828,0.886,1.449,1.603,1.862c0.717,0.414,1.251,0.41,1.603-0.012
				c0.352-0.421,0.528-1.184,0.528-2.286v-10.889c0-0.203,0.048-0.349,0.143-0.441c0.095-0.092,0.21-0.1,0.34-0.024L113.102,282.634
				z"/>
			<path style="fill:#37474F;" d="M121.571,287.523c0.764,0.441,1.45,0.971,2.06,1.59c0.608,0.617,1.128,1.321,1.558,2.112
				c0.43,0.79,0.761,1.657,0.993,2.6c0.234,0.943,0.35,1.947,0.35,3.013c0,1.084-0.116,1.963-0.35,2.638
				c-0.232,0.674-0.563,1.154-0.993,1.438c-0.43,0.286-0.949,0.39-1.558,0.315c-0.609-0.076-1.296-0.335-2.06-0.776l-2.291-1.323
				v5.623c0,0.203-0.048,0.35-0.143,0.441c-0.095,0.092-0.21,0.1-0.341,0.024l-2.345-1.353c-0.131-0.076-0.245-0.214-0.34-0.417
				c-0.095-0.202-0.143-0.405-0.143-0.607v-17.808c0-0.203,0.048-0.349,0.143-0.441c0.095-0.092,0.208-0.1,0.34-0.024
				L121.571,287.523z M119.28,294.829l2.202,1.272c0.501,0.289,0.916,0.359,1.245,0.209c0.328-0.15,0.492-0.612,0.492-1.384
				c0-0.772-0.164-1.422-0.492-1.951c-0.329-0.529-0.744-0.939-1.245-1.229l-2.202-1.272V294.829z"/>
		</g>
		<polygon style="fill:#BA68C8;" points="133.258,293.984 128.595,299.451 131.225,300.97 131.225,314.016 135.29,316.363 
			135.29,303.317 137.92,304.835 		"/>
	</g>
</g>
<g id="Stairs">
	<g id="Strairs">
		<g>
			<polygon style="fill:#BA68C8;" points="108.242,141.886 99.904,137.072 99.904,223.725 170.779,264.643 170.778,298.341 
				241.653,339.26 241.655,372.958 312.528,413.876 312.528,437.946 320.864,442.761 320.865,409.063 249.99,368.144 
				249.991,334.446 179.116,293.528 179.117,259.83 108.243,218.911 			"/>
			<polygon style="opacity:0.25;" points="108.242,141.886 99.904,137.072 99.904,223.725 170.779,264.643 170.778,298.341 
				241.653,339.26 241.655,372.958 312.528,413.876 312.528,437.946 320.864,442.761 320.865,409.063 249.99,368.144 
				249.991,334.446 179.116,293.528 179.117,259.83 108.243,218.911 			"/>
		</g>
		<g>
			<path style="fill:#BA68C8;" d="M185.505,91.749l-42.216-34.112c-0.217-0.175-0.441-0.328-0.668-0.457
				c-0.936-0.533-8.103-4.679-8.325-4.807c-2.082-1.196-4.504-0.484-5.666,1.797l-45.54,89.382
				c-0.699,1.372-0.739,2.264-0.236,2.565c0.423,0.253,7.835,4.514,8.339,4.815c0.423,0.252,1.229,0.088,2.349-0.559l91.509-52.833
				C187.507,96.123,187.71,93.53,185.505,91.749z"/>
			<path style="fill:#BA68C8;" d="M185.053,97.54l-91.509,52.833c-2.454,1.417-3.401,0.519-2.115-2.007l45.54-89.382
				c1.287-2.525,4.117-3.128,6.321-1.347l42.216,34.112C187.71,93.53,187.507,96.123,185.053,97.54z"/>
			<path style="opacity:0.3;fill:#FFFFFF;" d="M134.294,52.371c0.216,0.123,6.517,3.777,8.077,4.67
				c-2.012-0.995-4.29-0.246-5.399,1.94l-45.549,89.384c-0.688,1.344-0.739,2.237-0.257,2.556c-0.719-0.431-7.903-4.547-8.313-4.803
				c-0.503-0.298-0.462-1.191,0.236-2.566l45.539-89.384C129.788,51.889,132.21,51.181,134.294,52.371z"/>
		</g>
		<polygon style="fill:#BA68C8;" points="108.243,137.072 108.243,218.911 174.947,180.399 174.947,98.56 		"/>
		<g>
			<polygon style="fill:#BA68C8;" points="108.243,218.911 179.117,259.83 245.821,221.318 174.947,180.399 			"/>
			<polygon style="opacity:0.3;fill:#FFFFFF;" points="108.243,218.911 179.117,259.83 245.821,221.318 174.947,180.399 			"/>
		</g>
		<polygon style="fill:#BA68C8;" points="245.821,221.318 245.821,255.015 179.116,293.528 179.117,259.83 		"/>
		<g>
			<polygon style="fill:#BA68C8;" points="179.116,293.528 249.991,334.446 316.695,295.934 245.82,255.016 			"/>
			<polygon style="opacity:0.3;fill:#FFFFFF;" points="179.116,293.528 249.991,334.446 316.695,295.934 245.82,255.016 			"/>
		</g>
		<polygon style="fill:#BA68C8;" points="316.695,295.934 316.695,329.632 249.99,368.144 249.991,334.446 		"/>
		<g>
			<polygon style="fill:#BA68C8;" points="249.99,368.144 320.865,409.063 387.569,370.551 316.694,329.632 			"/>
			<polygon style="opacity:0.3;fill:#FFFFFF;" points="249.99,368.144 320.865,409.063 387.569,370.551 316.694,329.632 			"/>
		</g>
		<polygon style="fill:#BA68C8;" points="387.569,370.551 387.569,404.249 320.864,442.761 320.865,409.063 		"/>
	</g>
</g>
<g id="Character">
	<path id="Shadow_49_" style="opacity:0.25;" d="M284.34,293.528c-8.089-0.338-19.492,0.032-24.746,2.407
		c-3.892,1.759-5.696,3.598-3.683,7.235c1.107,2,3.181,2.97,4.619,4.604c1.168,1.326,0.957,2.711-0.351,3.722
		c-1.895,1.464-3.845,2.84-5.697,4.363c-6.347,5.217,1.295,5.033,3.134,4.982c4.882-0.136,12.097-0.919,18.795-2.986
		c4.211-1.299,5.535-1.858,5.535-1.858v33.698c0,0,5.098,3.341,11.375,6.746c14.636,7.94,20.385,11.582,27.184,12.597
		c6.644,0.991,12.23-1.282,12.326-8.114c0.143-10.177-3.628-14.442-6.455-16.974c-3.253-2.914-12.906-12.455-12.906-12.455
		s0-33.693,0-33.697C313.47,297.797,303.579,294.332,284.34,293.528z"/>
	<g id="Character_6_">
		<path style="fill:#B16668;" d="M230.019,63.109c2.18-0.984,3.335,4.19,4.69,8.009c1.246,3.512,3.22,7.999,4.012,8.211
			c1.122,0.3,0.466-4.161,1.904-5.964c1.449-1.817,2.379-1.085,2.254,0.96c-0.102,1.66,0.406,6.581-0.444,10.159
			c-0.331,1.393-0.822,2.976,0.455,5.191c5.67,9.829,16.191,23.162,16.191,23.162s12.561,5.063,20.226,7.221
			c5.71,1.608,11.647,3.518,16.27,5.361c0.459,1.749-1.918,18.482-9.613,16.301c-1.384-4.814-18.905-9.08-29.641-13.36
			c-6.524-2.6-8.13-3.436-9.74-6.171c-4.662-7.919-5.076-9.353-8.455-16.195c-3.838-7.771-4.92-9.322-5.554-10.007
			c-2.02-2.182-3.944-3.567-5.193-5.313c-1.502-2.099-3.163-4.656-3.838-7.247c-0.192-0.736-0.266-1.582,0.177-2.201
			c0.226-0.315,0.564-0.536,0.793-0.848c0.357-0.485,0.541-1.249,0.967-1.674c0.589-0.587,1.797-0.5,2.348-1.123
			c0.242-0.273,0.547-1.358,0.868-1.531c0.681-0.366,1.063-0.266,1.676-0.447c0.331-0.097,1.302-0.058,1.296-0.537
			c-0.007-0.581-0.444-2.205-1.285-5.556C229.658,66.621,228.767,63.674,230.019,63.109z"/>
		<path style="fill:#BA68C8;" d="M295.531,125.037c-1.064-0.4-2.739-1.334-4.852-2.006c-2.114-0.672-19.037-5.904-23.818-7.622
			c-4.782-1.717-7.621-2.835-7.621-2.835l-6.989-8.816c0,0-0.896,2.169-4.479,4.032c-3.583,1.863-7.813,1.966-7.813,1.966
			s1.694,3.744,4.113,9.049c2.088,4.578,2.29,5.731,5.919,7.327c4.169,1.834,15.183,5.882,20.231,7.797
			c6.174,2.341,13.429,5.148,14.534,7.407C284.754,141.336,295.012,131.862,295.531,125.037z"/>
		<path style="opacity:0.6;fill:#FFFFFF;" d="M295.531,125.037c-1.064-0.4-2.739-1.334-4.852-2.006
			c-2.114-0.672-19.037-5.904-23.818-7.622c-4.782-1.717-7.621-2.835-7.621-2.835l-6.989-8.816c0,0-0.896,2.169-4.479,4.032
			c-3.583,1.863-7.813,1.966-7.813,1.966s1.694,3.744,4.113,9.049c2.088,4.578,2.29,5.731,5.919,7.327
			c4.169,1.834,15.183,5.882,20.231,7.797c6.174,2.341,13.429,5.148,14.534,7.407C284.754,141.336,295.012,131.862,295.531,125.037z
			"/>
		<g>
			<path style="fill:#BA68C8;" d="M252.422,103.975c0,0-1.242,3.292-5.498,4.994c-4.255,1.702-6.548,1.669-6.548,1.669l-2.894-5.943
				c0,0,4.553-0.874,7.201-2.623c2.648-1.749,3.51-4.071,3.51-4.071L252.422,103.975z"/>
			<path style="opacity:0.85;fill:#FFFFFF;" d="M252.422,103.975c0,0-1.242,3.292-5.498,4.994c-4.255,1.702-6.548,1.669-6.548,1.669
				l-2.894-5.943c0,0,4.553-0.874,7.201-2.623c2.648-1.749,3.51-4.071,3.51-4.071L252.422,103.975z"/>
		</g>
		<path style="fill:#9A4A4D;" d="M236.761,77.387c0.518,2.366,1.719,4.8,0.828,5.881c-0.681,0.826-2.066,0.869-2.898-0.094
			c0,0,0.105,1.118-0.824,1.698c-0.929,0.58-1.83-0.024-1.83-0.024c0.007,0.535-0.997,1.626-2.349,1.213
			c0.518,0.563,1.893,1.261,2.563-0.102c0,0,2.094,0.524,2.693-1.166c0,0-0.777,1.871,1.07,4.336c0,0-0.915-2.454-0.029-4.45
			c0,0,1.733,0.123,2.508-1.313C239.267,81.929,236.761,77.387,236.761,77.387z"/>
		<path style="fill:#263238;" d="M331.841,89.148c-0.075,0.343-0.185,0.683-0.338,1.033c-0.29,0.663-0.928,1.18-1.108,1.877
			c-0.409,1.584,1.567,3.4,2.151,4.725c1.063,2.411-1.127,4.442-2.706,5.939c-0.741,0.702-1.199,1.82-0.891,2.863
			c0.224,0.759,1.095,1.064,1.799,0.759c-0.226,0.475-0.786,0.669-1.246,0.683c-1.525,0.046-2.324-0.808-2.64-1.869
			c-0.077,0.568,0.2,1.168,0.164,1.762c-0.056,0.955-0.531,1.608-1.435,1.946c-0.74,0.277-1.551,0.365-2.29,0.673
			c-0.906,0.377-1.166,0.955-1.725,1.712c-1.105,1.493-2.557,1.84-4.357,1.806c-1.933-0.036-3.547-1.204-4.722-2.656
			c-0.454-0.561-0.962-1.081-1.388-1.675c-1.382-1.933-3.232-3.455-4.682-5.362c-1.503-1.977-2.786-4.11-4.008-6.268
			c-1.542-2.723-2.703-5.635-3.898-8.521c-0.234-0.566-0.364-1.154-0.801-1.606c-0.38-0.394-0.889-0.689-1.393-0.894
			c-1.918-0.78-4.151-1.087-5.197-3.125c-0.831-1.619-0.557-3.7,1.161-4.576c0.611-0.311,1.276-1.116,0.642-1.748
			c-0.462-0.46-1.174-0.502-1.549-1.066c-0.627-0.943,0.262-2.855,1.507-2.67c-1.013,0.439-0.399,1.454,0.499,1.573
			c0.87,0.116,1.405-0.271,1.907-0.906c0.301-0.381,0.698-0.662,1.187-0.762c0.548-0.111,1.013,0.221,1.544,0.265
			c1.436,0.119,2.113-2.356,3.076-3.113c1.758-1.383,4.466-1.752,6.449-0.697c0.985,0.524,1.628,1.365,2.299,2.22
			c0.395,0.504,1.053,1.38,1.681,1.559c0.798,0.227,1.775,0.047,2.517-0.284c1.626-0.725,2.644-1,4.898-0.562
			c1.321,0.256,2.774,0.877,3.561,2.053c0.688,1.028,0.634,2.048,0.775,3.215c0.174,1.439,0.756,2.315,2.21,2.576
			c0.77,0.138,1.477-0.032,2.046-0.648c0.342-0.37,0.382-0.984,0.122-1.331c1.086,0.523,1.504,1.446,1.274,2.629
			c-0.226,1.161-1.541,1.868-2.641,2.017c0.87-0.119,2.906,0.629,4.311,1.796c0.737,0.612,1.321,2.119,1.357,3.072
			C331.984,88.126,331.952,88.641,331.841,89.148z"/>
		<g>
			<path id="XMLID_746_" style="fill:#37474F;" d="M325.419,323.267c0.272,2.083,0.856,4.512,1.236,8.772
				c0.373,4.177-0.549,4.381,1.658,15.115c1.324,6.443,0.889,8.955-3.279,14.103c-4.462,5.51-8.744,4.118-11.24-2.397
				c-2.134-5.568-1.855-8.087-1.566-13.72c0.289-5.633,0.319-7.278,0.298-11.758c-0.018-3.949,0.452-6.623,0.367-9.651
				L325.419,323.267z"/>
			<path style="fill:#B16668;" d="M325.426,323.901c0.088,3.705-0.03,9.367,0.459,14.868c0.367,4.126,1.406,8.188,1.3,11.115
				c-0.039,1.061-1.114,1.73-2.1,1.337c-2.64-1.051-6.6-1.098-9.517,0.11c-0.933,0.386-1.971-0.283-2.064-1.288
				c-0.736-7.966-0.611-25.963-0.611-25.963c-1.402-13.341-4.872-36.092-5.318-40.974c-0.66-7.221-2.174-16.342-2.689-21.999
				c-0.514-5.657-3.923-45.123-3.923-45.123l26.022-36.452c0,0,0.292,5.586,4.2,14.049c5.27,11.413,3.802,20.518,2.185,30.876
				c-1.347,8.629-5.068,47.41-5.068,47.41s-0.183,8.032,0.203,17.251C329.027,301.606,325.229,315.602,325.426,323.901z"/>
			<path style="fill:#B16668;" d="M326.986,179.53c-15.86,3.502-30.83,4.362-40.191,0.868c-0.298,4.814-7.975,13.732-17.578,27.973
				c-10.953,16.243-17.24,26.128-17.24,26.128c-3.954,7.345-5.455,9.2-1.606,18.109c4.16,9.628,16.668,28.211,17.788,34.91
				c0.284,1.698-0.54,6.018-1.514,9.204c-0.974,3.186-2.658,7.446-4.257,9.552c0,0-4.628,5.513-3.504,5.995
				c1.124,0.482,11.48,0.999,16.013-0.644c4.533-1.643,4.808-5.58,5.986-12.806c1.178-7.226,1.981-18.085,1.981-18.085
				s-0.759-0.232-1.876-1.649c-1.026-1.302-2.189-3.046-2.924-7.221c-0.735-4.175-2.111-13.195-3.676-18.343
				c-1.565-5.148-3.552-8.133-3.552-8.133l30.764-27.39L326.986,179.53z"/>
			<g>
				<path style="fill:#263238;" d="M288.005,291.497c-0.212,1.683-1.541,3.648-2.038,6.279c-0.497,2.632-0.846,5.368-0.846,9.098
					c0,3.731,0,4.261,0,4.261h-1.157c0,0,0-5.392,0-7.758c0-2.366-0.234-4.095-1.365-4.349
					C282.598,299.028,282.408,291.497,288.005,291.497z"/>
				<path style="fill:#37474F;" d="M282.598,280.139c0.856,1.927,3.513,4.561,4.69,6.381c0.682,1.054,0.969,2.216,1.059,3.184
					c0.088,0.947-0.24,1.882-0.881,2.585c-0.916,1.004-2.383,2.684-3.363,4.162c-1.304,1.966-3.705,6.527-4.267,9.682
					c-0.562,3.156-0.834,5.927-3.426,7.621c-2.02,1.321-10.493,3.475-14.813,3.989c-5.895,0.701-7.582-2.06-5.495-4.454
					c2.087-2.394,5.634-6.49,6.285-7.016c0,0,2.638-0.598,5.543,0.467c3.389,1.243,4.552,3.11,7.936,1.183
					c3.064-1.745,3.998-7.639,3.271-16.005C278.312,282.421,282.598,280.139,282.598,280.139z"/>
			</g>
			<path style="fill:#455A64;" d="M327.432,178.316c2.23,5.357,4.334,8.292,7.157,15.82c2.543,6.782,1.733,16.85-1.218,34.402
				c-2.952,17.552-4.216,43.326-4.216,43.326s0.424,10.444-1.141,28.883c0,0-3.255,2.407-9.371,2.407
				c-6.117,0-8.643-1.838-8.643-1.838s-2.883-19.302-3.78-26.63c-1.179-9.628-1.689-15.053-2.793-26.893
				c-1.408-15.1-2.805-26.947-2.805-26.947l-28.797,24.831c0,0,2.154,3.929,3.18,9.337c1.026,5.408,1.544,8.113,1.544,8.113
				s-4.438,4.68-9.048,6.039c-4.611,1.359-8.23,0-8.23,0s-8.822-14.448-11.136-19.979c-2.314-5.531-0.476-8.005,1.855-12.593
				c2.33-4.588,25.463-38.288,29.879-44.563c4.416-6.275,5.596-8.766,6.715-12.085c0,0,2.164,1.42,13.434,1.304
				C311.289,181.134,327.432,178.316,327.432,178.316z"/>
			<path style="fill:#37474F;" d="M271.825,245.678c-1.62,1.575-4.613,2.742-7.703,2.926c0,0,6.083,1,8.514-1.223L271.825,245.678z"
				/>
			<path style="fill:#37474F;" d="M300.622,220.847l-0.35-5.321c0,0-8.126-2.539-11.088-11.427c0,0-0.115,6.526,7.221,12.404
				c0,0,1.243,2.492-2.143,6.217c-3.386,3.724-18.606,19.654-18.606,19.654L300.622,220.847z"/>
		</g>
		<g id="XMLID_473_">
			<path id="XMLID_745_" style="fill:#BA68C8;" d="M330.397,155.874c-8.552-4.813-8.585-20.609-7.266-28.346
				c0-0.003-9.405-0.997-9.405-0.997l-18.195-1.493c-1.723,1.58-4.852,4.814-12.189,14.442c-3.802,4.99-6.312,12.971,2.13,19.624
				l1.133,7.711c0.698,6.383-2.606,11.177-0.021,13.133c2.564,2.858,18.096,10.004,40.402-1.252
				c1.669-1.121,0.651-2.418,1.016-9.639C328.001,169.057,328.57,163.914,330.397,155.874z"/>
			<path id="XMLID_748_" style="opacity:0.5;fill:#FFFFFF;" d="M330.397,155.874c-8.552-4.813-8.585-20.609-7.266-28.346
				c0-0.003-9.405-0.997-9.405-0.997l-18.195-1.493c-1.723,1.58-4.852,4.814-12.189,14.442c-3.802,4.99-6.312,12.971,2.13,19.624
				l1.133,7.711c0.698,6.383-2.606,11.177-0.021,13.133c2.564,2.858,18.096,10.004,40.402-1.252
				c1.669-1.121,0.651-2.418,1.016-9.639C328.001,169.057,328.57,163.914,330.397,155.874z"/>
		</g>
		<g id="XMLID_333_">
			<path style="fill:#BA68C8;" d="M314.657,114.474c0.973-4.071,4.128-9.805,4.786-15.914c0.658-6.108,0.557-11.328-5.524-15.732
				c-6.081-4.404-12.403-4.036-15.11-3.524c-2.707,0.512-5.809,3.05-5.809,3.05L314.657,114.474z"/>
			<path style="fill:#263238;" d="M287.072,92.991c-1.092-2.536-0.696-9.973,5.928-10.637c0,0,8.923-3.319,16.672,2.524
				c7.75,5.843,7.022,14.385,7.022,14.385l-1.856,10.637l-0.143,3.599L287.072,92.991z"/>
			<g id="XMLID_334_">
				<path id="XMLID_358_" style="fill:#B16668;" d="M290.711,85.743c-1.434,0.783-4.228,3.221-4.415,16.718
					c-0.158,11.439,3.299,14.393,5.057,15.272c1.758,0.879,5.222,0.51,8.594,0.051l-0.256,8.239c0,0-4.106,3.981-2.019,7.738
					c0.424,0.762-1.54,9.591-0.671,9.867c0.869,0.276,3.866-8.511,5.078-8.713c1.967-0.328,4.165-0.389,6.142-1.717
					c5.267-3.536,5.941-6.284,5.941-6.284l0.676-17.014c0,0,1.9,2.066,5.354-0.855c2.851-2.412,3.934-6.614,1.865-8.966
					c-2.069-2.352-6.067-1.878-7.709,1.308c-6.413-0.047-3.999-15.988-10.685-13.717C296.244,90.191,291.315,90.14,290.711,85.743z"
					/>
				<path id="XMLID_338_" style="fill:#263238;" d="M314.371,100.028l-0.113,4.838c-1.295,0.021-2.319-1.045-2.288-2.381
					C312.002,101.149,313.077,100.049,314.371,100.028z"/>
				<g>
					<g id="XMLID_356_">
						<path id="XMLID_357_" style="fill:#263238;" d="M291.656,99.195c0.016,0.792-0.59,1.444-1.353,1.457
							c-0.762,0.012-1.393-0.62-1.408-1.412c-0.015-0.792,0.591-1.444,1.353-1.457C291.011,97.771,291.641,98.403,291.656,99.195z"
							/>
					</g>
					<g id="XMLID_347_">
						<path id="XMLID_355_" style="fill:#263238;" d="M303.039,99.412c0.015,0.792-0.591,1.444-1.353,1.457
							c-0.762,0.012-1.393-0.62-1.408-1.412c-0.015-0.792,0.59-1.444,1.353-1.457C302.393,97.988,303.024,98.62,303.039,99.412z"/>
					</g>
					<path id="XMLID_346_" style="fill:#9A4A4D;" d="M300.129,109.29l-3.83,1.118c0.274,1.139,1.353,1.812,2.41,1.503
						C299.767,111.603,300.402,110.429,300.129,109.29z"/>
					<path id="XMLID_345_" style="fill:#263238;" d="M287.965,95.685l2.866-1.914c-0.48-0.849-1.511-1.109-2.302-0.58
						C287.737,93.719,287.485,94.836,287.965,95.685z"/>
					<path id="XMLID_360_" style="fill:#263238;" d="M304.091,95.894l-2.866-1.914c0.48-0.849,1.511-1.109,2.302-0.58
						C304.318,93.928,304.571,95.045,304.091,95.894z"/>
					<polygon id="XMLID_336_" style="fill:#9A4A4D;" points="296.097,98 295.842,107.37 291.518,105.8 					"/>
					<path id="XMLID_335_" style="fill:#9A4A4D;" d="M299.947,117.784c3.548-0.353,10.668-2.683,12.131-5.21
						c0,0-0.445,1.865-2.684,3.723c-2.24,1.857-9.499,3.794-9.499,3.794L299.947,117.784z"/>
				</g>
			</g>
		</g>
		<g>
			<path style="fill:#BA68C8;" d="M340.721,198.144c-0.312-0.18-0.605-0.169-0.87-0.02l-0.001-0.014l-29.183,16.849l1.68,24.168
				l29.179-16.847c0.751-0.342,1.279-1.863,1.279-3.994v-13.807C342.805,201.645,341.872,198.809,340.721,198.144z"/>
			<path style="opacity:0.3;" d="M324.015,207.255c0.731-0.422,1.842,0.428,1.018,4.082c-0.825,3.654-3.321,12.599-2.895,14.794
				c0.426,2.195,0.792,3.109,2.558,0.43c1.766-2.679,4.651-22.462,4.651-22.462L324.015,207.255z"/>
			<path style="fill:#BA68C8;" d="M311.538,214.993c1.151,0.665,2.084,3.501,2.084,6.335l0,13.807c0,2.834-0.933,4.593-2.084,3.928
				c-1.151-0.665-2.084-3.501-2.084-6.335v-13.806C309.453,216.087,310.387,214.329,311.538,214.993z"/>
			<path style="opacity:0.3;" d="M311.538,214.993c1.151,0.665,2.084,3.501,2.084,6.335l0,13.807c0,2.834-0.933,4.593-2.084,3.928
				c-1.151-0.665-2.084-3.501-2.084-6.335v-13.806C309.453,216.087,310.387,214.329,311.538,214.993z"/>
			<path style="opacity:0.3;" d="M313.622,222.798c0,1.932,10.81-0.805,14.593-2.991c3.783-2.185,14.59-10.828,14.59-13.239v1.212
				c0,0-3.759,6.536-13.945,12.399c-10.186,5.863-15.238,3.274-15.238,3.274V222.798z"/>
			<path style="fill:#FAFAFA;" d="M328.344,217.524c0.728-0.42,1.318,0.261,1.318,1.522c0,1.261-0.59,2.624-1.318,3.044
				c-0.728,0.42-1.318-0.261-1.318-1.522C327.026,219.307,327.616,217.945,328.344,217.524z"/>
		</g>
		<g>
			<path style="fill:#B16668;" d="M323.131,127.793c7.511,1.099,12.039,3.072,14.409,9.28c2.37,6.208,9.342,27.333,10.767,31.735
				c1.425,4.402,1.034,6.369-0.869,10.722c-1.192,2.725-2.363,5.46-3.528,8.197c-1.547,3.635-4.573,9.321-5.095,10.758
				c-0.592,1.63-0.635,3.279-0.637,4.995c-0.002,1.636,0.102,3.257-0.179,4.891c-0.458,2.671-0.765,3.79-1.556,5.602
				c-0.54,1.236-0.9,2.591-1.519,3.782c-0.433,0.833-1.269,1.525-1.86,2.24c-0.683,0.826-0.95,1.896-1.78,2.621
				c-1.454,1.27-2.938,1.408-4.297,1.977c-0.61,0.82-1.641,2.557-2.316,3.32c-1.723,1.947-1.996-1.348-1.901-2.456
				c0.099-1.157,0.435-2.393,0.791-3.502c0.926-2.882,1.73-5.739,2.331-8.706c0.203-1.003,1.472-7.59-1.145-6.415l-4.73,2.728
				c0.208-1.946,1.714-4.063,5.497-8.856c3.689-4.673,8.617-27.527,8.617-27.527l-7.146-17.976c0,0-5.283-7.016-5.728-15.949
				C320.812,130.32,323.131,127.793,323.131,127.793z"/>
			<g>
				<path style="fill:#BA68C8;" d="M323.131,127.528c3.724,0.434,8.857,1.007,11.737,4.376c2.88,3.368,3.239,4.73,7.181,16.341
					c3.942,11.611,6.779,20.383,7.116,22.017c0.338,1.634,1.045,4.139-1.96,9.803c0,0-1.572-2.005-6.302-3.367
					c-4.73-1.362-7.406-0.706-7.406-0.706l0.485-2.814l-8.058-18.247c0,0-5.057-7.044-5.058-17.15
					C320.863,129.852,323.131,127.528,323.131,127.528z"/>
				<path style="opacity:0.6;fill:#FFFFFF;" d="M323.131,127.528c3.724,0.434,8.857,1.007,11.737,4.376
					c2.88,3.368,3.239,4.73,7.181,16.341c3.942,11.611,6.779,20.383,7.116,22.017c0.338,1.634,1.045,4.139-1.96,9.803
					c0,0-1.572-2.005-6.302-3.367c-4.73-1.362-7.406-0.706-7.406-0.706l0.485-2.814l-8.058-18.247c0,0-5.057-7.044-5.058-17.15
					C320.863,129.852,323.131,127.528,323.131,127.528z"/>
			</g>
			<g>
				<path style="fill:#BA68C8;" d="M333.496,175.992l-1.733,7.08c4.543-0.063,8.67,1.272,12.29,4.317l3.151-7.326
					c0,0-0.616-1.674-5.983-3.341S333.496,175.992,333.496,175.992z"/>
				<path style="opacity:0.85;fill:#FFFFFF;" d="M333.496,175.992l-1.733,7.08c4.543-0.063,8.67,1.272,12.29,4.317l3.151-7.326
					c0,0-0.616-1.674-5.983-3.341S333.496,175.992,333.496,175.992z"/>
			</g>
		</g>
	</g>
</g>
</svg>
