<?xml version="1.0" encoding="utf-8"?>
<!-- Generator: Adobe Illustrator 27.5.0, SVG Export Plug-In . SVG Version: 6.00 Build 0)  -->
<svg version="1.1" xmlns="http://www.w3.org/2000/svg" xmlns:xlink="http://www.w3.org/1999/xlink" x="0px" y="0px"
	 viewBox="0 0 500 500" style="enable-background:new 0 0 500 500;" xml:space="preserve">
<g id="Floor">
	<path id="Floor_00000069366392507668251240000005672542113606813833_" style="fill:#FAFAFA;" d="M77.661,247.63
		c-95.177,54.951-95.175,144.044,0.005,198.995c95.18,54.951,249.496,54.951,344.674,0c95.178-54.951,95.175-144.044-0.005-198.995
		C327.154,192.679,172.838,192.679,77.661,247.63z"/>
</g>
<g id="Plants">
	<g id="Plants_00000115494875397423573780000013157978522307564968_">
		<g id="XMLID_00000181784850005491380420000011141376419014972316_">
			<g id="XMLID_00000106851572250462730200000016164658156604194495_">
				<path style="fill:#E0E0E0;" d="M73.415,369.838c-3.538,2.535-6.868,5.137-9.983,7.813c-1.674-7.647-4.648-15.691-7.937-21.582
					c-4.142-7.44-8.773-13.43-11.905-17.729c-7.241-9.925,3.687-15.12,12.46-10.488c8.773,4.639,13.338,12.85,15.666,26.959
					C72.338,358.603,73.216,365.322,73.415,369.838z"/>
			</g>
			<path style="fill:#FFFFFF;" d="M50.391,330.429c-0.237-0.18-0.568-0.123-0.739,0.114c-0.18,0.237-0.123,0.559,0.114,0.739
				c9.583,7.032,17.628,19.49,19.351,41.749c0.334-0.244,0.67-0.527,1.008-0.769C68.252,350.01,60.024,337.501,50.391,330.429z"/>
		</g>
		<g id="XMLID_00000125579129795575588370000009295064003112820402_">
			<g id="XMLID_00000143608099977987418880000004594839500674351499_">
				<path style="fill:#F0F0F0;" d="M68.535,373.475c-7.895,6.155-14.606,12.642-20.124,19.378c-0.804-0.514-1.508-1.16-2.063-1.939
					c-0.663-0.953-1.077-2.063-1.243-3.206c-0.224-1.64,0.033-3.405-0.721-4.871c-1.011-1.964-3.414-2.676-5.551-3.239
					c-2.138-0.555-4.532-1.367-5.402-3.397c-0.771-1.781-0.265-4.209,0.613-5.849c0.886-1.649,2.129-3.43,1.814-5.393
					c-0.273-1.673-1.64-2.924-2.883-4.076c-1.243-1.152-2.544-2.51-2.626-4.2c-0.091-1.541,0.895-2.974,2.146-3.877
					c2.237-1.591,5.17-1.682,7.721-0.903c2.618,0.795,4.929,2.419,7.44,3.48c2.485,1.044,5.203,0.124,7.837,0.688
					c0.042,0,0.083,0.008,0.116,0.017c2.601,0.58,5.335,1.607,6.263,4.374c0.92,2.742-0.24,6.048,1.351,8.459
					c0.895,1.359,2.394,1.939,3.703,2.8c0.696,0.464,1.185,0.986,1.524,1.591C68.486,373.359,68.511,373.417,68.535,373.475z"/>
			</g>
			<path style="fill:#FFFFFF;" d="M56.953,371.203c-0.019-0.066-0.057-0.114-0.114-0.161c-6.392-10.075-16.931-15.236-20.539-16.221
				c-0.199-0.057-0.407,0.057-0.464,0.265c-0.057,0.199,0.057,0.417,0.265,0.474c3.409,0.937,13.2,5.7,19.497,14.971
				c-9.403-3.541-16.761,0.587-16.836,0.634c-0.18,0.104-0.246,0.331-0.142,0.521c0.067,0.104,0.18,0.18,0.303,0.189
				c0.076,0,0.151-0.009,0.218-0.057c0.076-0.038,7.651-4.299,17.187-0.189c1.567,2.509,2.938,5.789,3.797,8.932
				c0.211-0.183,0.476-0.442,0.689-0.625C59.927,376.85,58.513,373.686,56.953,371.203z"/>
		</g>
	</g>
	<g id="Plants_00000018234566906890565280000003158772266133693075_">
		<g id="XMLID_00000031188146769260187550000002567078304715071108_">
			<path style="fill:#E0E0E0;" d="M464.578,346.616c-3.711,6.102-10.615,9.711-15.561,20.884c-1.188,2.681-2.265,5.803-3.153,9.499
				c-0.731,3.02-1.219,5.779-1.549,8.225c-1.069-1.054-2.17-2.107-3.311-3.137c-1.746-1.604-3.562-3.177-5.465-4.734
				c0.087-6.833,1.038-14.932,3.908-23.133c4.12-11.787,12.471-17.818,17.755-18.785
				C463.116,334.35,469.422,338.659,464.578,346.616z"/>
			<path style="fill:#FFFFFF;" d="M458.288,340.027c-8.303,6.212-18.234,22.418-17.959,41.439c-0.252-0.228-0.503-0.448-0.755-0.668
				c-0.008-18.934,9.923-35.014,18.243-41.25c0.157-0.118,0.393-0.11,0.527,0.024C458.469,339.697,458.445,339.901,458.288,340.027z
				"/>
		</g>
		<g id="XMLID_00000090288006229427588590000001918214037802884527_">
			<path style="fill:#F0F0F0;" d="M454.388,380.341c-3.043,2.791-5.339,5.465-7.006,8.028c-0.991-1.054-2.013-2.107-3.067-3.145
				c-1.069-1.054-2.17-2.107-3.311-3.137c1.596-6.259,4.859-11.197,8.013-14.586c1.942-2.092,3.837-3.593,5.268-4.466
				c5.347-3.24,13.131-4.954,14.861-0.016C470.876,367.949,461.268,374.019,454.388,380.341z"/>
			<path style="fill:#FFFFFF;" d="M463.572,362.665c-5.433,2.178-15.663,12.471-19.603,22.213c-0.197-0.181-0.385-0.37-0.582-0.558
				c4.089-9.876,14.271-19.98,19.902-22.237c0.197-0.079,0.409-0.008,0.488,0.149C463.855,362.398,463.768,362.586,463.572,362.665z
				"/>
		</g>
	</g>
</g>
<g id="Shadows">
	
		<ellipse id="Shadow_00000166642140000786265260000005657874362350349234_" style="fill:#F0F0F0;" cx="398.505" cy="396.567" rx="51.306" ry="29.621"/>
	
		<ellipse id="Shadow_00000013909613118850786440000012394312215982075533_" style="fill:#F0F0F0;" cx="98.675" cy="396.567" rx="51.306" ry="29.621"/>
</g>
<g id="Floor_light">
	<ellipse style="opacity:0.3;fill:#BA68C8;" cx="250" cy="423.548" rx="87.003" ry="50.231"/>
</g>
<g id="Character_3">
	<g id="Chartacter_00000018941856450483751070000001423180261342994835_">
		<g id="Arm_00000029035771927734541840000016051025857967886480_">
			<g id="Arm_00000129192847492174311080000002345356232243554991_">
				<path style="fill:#EBEBEB;" d="M424.624,241.778c0.468,1.126,0.89,2.286,1.036,3.497c0.216,1.793-0.727,3.789,0.106,5.454
					c0.722,1.443,4.787,2.469,6.152,3.33c0.539,0.34,1.153,0.725,1.803,0.788c0.793,0.076,0.8-0.123,0.966-0.789
					c0.313-1.256,0.447-2.553,0.406-3.847c-0.079-2.537-0.828-5.057-2.192-7.202c-0.561-0.883-1.255-1.731-2.202-2.176
					c-0.882-0.415-1.942-0.433-2.838-0.048C427.284,241.034,424.383,241.197,424.624,241.778z"/>
				<path style="opacity:0.1;" d="M424.624,241.778c0.468,1.126,0.89,2.286,1.036,3.497c0.216,1.793-0.727,3.789,0.106,5.454
					c0.722,1.443,4.787,2.469,6.152,3.33c0.539,0.34,1.153,0.725,1.803,0.788c0.793,0.076,0.8-0.123,0.966-0.789
					c0.313-1.256,0.447-2.553,0.406-3.847c-0.079-2.537-0.828-5.057-2.192-7.202c-0.561-0.883-1.255-1.731-2.202-2.176
					c-0.882-0.415-1.942-0.433-2.838-0.048C427.284,241.034,424.383,241.197,424.624,241.778z"/>
				<path style="fill:#EBEBEB;" d="M436.939,247.648c-0.047-3.929,0.112-8.035-0.383-11.787c-0.494-3.752-1.08-18.091-1.519-22.099
					c-0.577-5.266-1.644-8.634-2.207-11.911c-0.63-3.666-1.016-8.646-2.029-16.636c-1.003-7.911-2.632-12.489-6.513-15.32
					c-3.559-2.596-7.492-2.925-9.954-3.635c-1.098,2.344-0.864,10.782-0.864,10.782s2.626,18.281,2.847,20.513
					c0.221,2.232,3.562,14.572,5.754,23.005c1.258,4.84,2.633,9.701,2.633,9.701c0.515,2.993,0.647,4.118-0.143,6.404
					c-1.223,3.538-2.345,6.087-2.69,8.181c-0.345,2.094-0.844,3.91-1.294,5.111s1.454,1.708,2.944,0.767
					c1.49-0.941,1.418-2.538,2.296-3.97c0.878-1.432,2.26-4.326,3.081-3.553c0.822,0.773,1.576,3.253,2.605,4.975
					c0.546,0.914,1.063,1.85,1.226,2.916c0.181,1.182-0.606,2.752-0.098,3.798c0.114,0.234,0.296,0.428,0.492,0.6
					c0.522,0.457,1.167,0.78,1.852,0.884C436.854,256.662,436.952,248.728,436.939,247.648z"/>
			</g>
			<path style="fill:#E0E0E0;" d="M418.056,166.561c5.842,1.514,8.832,3.909,10.779,7.875c1.947,3.966,3.162,14.565,3.911,21.105
				c0.749,6.54,2.676,12.822,3.148,19.478s0.417,12.02,0.417,12.02s-1.982,1.226-6.155,1.747s-6.458,0-6.458,0
				s-4.977-18.362-6.269-23.385c-1.292-5.023-1.878-9.788-3.443-18.654c-1.565-8.867-1.064-18.187-0.209-20.863L418.056,166.561z"/>
			<path style="opacity:0.1;" d="M418.056,166.561c5.842,1.514,8.832,3.909,10.779,7.875c1.947,3.966,3.162,14.565,3.911,21.105
				c0.749,6.54,2.676,12.822,3.148,19.478s0.417,12.02,0.417,12.02s-1.982,1.226-6.155,1.747s-6.458,0-6.458,0
				s-4.977-18.362-6.269-23.385c-1.292-5.023-1.878-9.788-3.443-18.654c-1.565-8.867-1.064-18.187-0.209-20.863L418.056,166.561z"/>
			<g>
				<g id="Briefcase_00000071550476739889690760000007491347646320642225_">
					<g id="XMLID_00000170995524537301025190000010564070930450646421_">
						<g id="XMLID_00000145031185963690584060000006339620961603245232_">
							<path id="XMLID_00000131346271839297609980000014942727144683723406_" style="fill:#E0E0E0;" d="M460.793,273.834
								l0.141,41.966c0.007,2.035-1.428,3.215-3.184,4.257l-4.406,2.566c-1.216,0.71-1.895,0.95-3.445,0.689
								c-0.678-0.108-1.818-0.657-2.359-0.957c-0.036-0.009-0.064-0.027-0.092-0.046l-0.239-0.137l-45.196-25.892
								c-3.303-1.892-5.345-5.402-5.358-9.208l-0.13-38.213c-0.003-0.87,0.607-1.936,1.367-2.378l7.518-4.369
								c0.75-0.442,1.978-0.447,2.731-0.009l51.269,29.371c0.386,0.21,0.726,0.593,0.975,1.014
								C460.634,272.919,460.792,273.404,460.793,273.834z"/>
							<path id="XMLID_00000170984293149974207050000005612952826355438980_" style="opacity:0.2;" d="M460.793,273.834
								l0.141,41.966c0.007,2.035-1.428,3.215-3.184,4.257l-4.406,2.566c-1.216,0.71-1.895,0.95-3.445,0.689
								c-0.678-0.108-1.818-0.657-2.359-0.957l0-0.018c1.762,0.819,3.143-0.102,3.136-2.182l-0.133-39.541
								c-0.002-0.66-0.234-1.392-0.612-2.041l10.454-6.083C460.634,272.919,460.792,273.404,460.793,273.834z"/>
						</g>
						<path id="XMLID_00000000919852664089988410000011780317966132480691_" style="fill:#E0E0E0;" d="M450.546,280.613
							c-0.004-1.315-0.942-2.926-2.083-3.58l-48.457-27.76c-1.915-1.097-3.476-0.189-3.469,2.018l0.117,35.777
							c0.013,3.806,2.055,7.317,5.357,9.209l45.199,25.895c1.915,1.097,3.476,0.189,3.469-2.018L450.546,280.613z"/>
						<path id="XMLID_00000170236968556682199560000017331616497670018231_" style="opacity:0.1;" d="M450.546,280.613
							c-0.004-1.315-0.942-2.926-2.083-3.58l-48.457-27.76c-1.915-1.097-3.476-0.189-3.469,2.018l0.117,35.777
							c0.013,3.806,2.055,7.317,5.357,9.209l45.199,25.895c1.915,1.097,3.476,0.189,3.469-2.018L450.546,280.613z"/>
						<g>
							<path style="fill:#F0F0F0;" d="M402.974,243.529l51.36,29.716c1.471,0.851,2.388,2.434,2.394,4.133l0.145,43.191l-0.78,0.454
								l-0.147-43.642c-0.005-1.422-0.773-2.747-2.004-3.46l-51.746-29.94L402.974,243.529z"/>
						</g>
					</g>
					<g id="XMLID_00000137097300787002730110000001729116612327727524_">
						<path id="XMLID_00000003077790398699424250000007327526769613509012_" style="fill:#E0E0E0;" d="M421.2,248.831l0.022,6.499
							l-2.536,1.476l-0.029-8.63c-0.002-0.447,0.308-0.625,0.694-0.405L421.2,248.831z"/>
						<path id="XMLID_00000163066490988689157450000002717743983630931616_" style="opacity:0.2;" d="M421.2,248.831l0.022,6.499
							l-2.536,1.476l-0.029-8.63c-0.002-0.447,0.308-0.625,0.694-0.405L421.2,248.831z"/>
						<path id="XMLID_00000049904969510164817080000000797617520893519751_" style="fill:#F0F0F0;" d="M439.082,255.192
							l0.035,10.521l-2.421,1.413l-1.637-0.94l-0.029-8.63c-0.001-0.443-0.317-0.984-0.7-1.205l-12.404-7.103l-2.576-1.476
							c-0.387-0.22-0.696-0.042-0.694,0.405l0.029,8.63l-1.641-0.94l-0.035-10.517c0-0.044,0.004-0.092,0.011-0.137
							c0.051-0.414,0.339-0.874,0.685-1.072l1.032-0.603c0.382-0.223,1.005-0.225,1.392-0.005l18.253,10.455
							C438.769,254.212,439.08,254.75,439.082,255.192z"/>
						<path id="XMLID_00000018927196712059003350000008888027705932720796_" style="opacity:0.2;" d="M436.661,256.605l0.035,10.521
							l-1.637-0.94l-0.029-8.63c-0.001-0.443-0.317-0.984-0.7-1.205l-12.404-7.103l-2.576-1.476
							c-0.387-0.22-0.696-0.042-0.694,0.405l0.029,8.63l-1.641-0.94l-0.035-10.517c0-0.044,0.004-0.092,0.011-0.137
							c0.06-0.342,0.345-0.464,0.687-0.268L435.96,255.4C436.343,255.624,436.659,256.162,436.661,256.605z"/>
					</g>
				</g>
			</g>
			<path style="fill:#EBEBEB;" d="M434.725,256.711c-1.134,0.663-2.093,1.626-3.303,2.137c-1.21,0.511-2.866,0.387-3.524-0.751
				c-0.136-0.236-0.224-0.506-0.415-0.7c-0.422-0.431-1.129-0.319-1.709-0.484c-0.857-0.244-1.403-1.091-2.2-1.489
				c-0.358-0.178-0.757-0.261-1.115-0.44c-1.118-0.559-1.258-1.617-1.713-2.631c-0.506-1.129-0.905-2.214-0.98-3.465
				c-0.027-0.457-0.013-0.936,0.2-1.342c0.186-0.355,0.505-0.618,0.829-0.853c0.757-0.548,1.589-0.991,2.465-1.314
				c0.551-0.203,1.158-0.36,1.722-0.195c0.564,0.165,1.037,0.762,0.871,1.326c0.766-0.234,1.597-0.249,2.371-0.044
				c0.359,0.095,0.726,0.253,0.94,0.557c0.442,0.63,0.027,1.515,0.219,2.261c0.904-0.112,2.013-0.135,2.504,0.632
				c0.502,0.782-0.885,4.463-0.433,4.738c1.06,0.646,2.121,1.292,3.181,1.938"/>
		</g>
		<g id="Bottom_00000014617555724739986790000001857695619172715959_">
			<g>
				<polygon style="fill:#E0E0E0;" points="410.033,385.822 414.5,383.971 412.873,380.743 409.96,383.546 				"/>
				<polygon style="opacity:0.1;" points="410.033,385.822 414.5,383.971 412.873,380.743 409.96,383.546 				"/>
				<path style="fill:#E0E0E0;" d="M404.606,377.27c0,0,0.173,3.095,0.147,4.082c-0.026,0.987,4.229,3.982,5.281,4.47l-0.073-2.276
					c0.913,0.888,1.473,2.025,2.471,3.695c0.832,1.393,1.909,4.035,4.164,5.811c3.348,2.636,8.518,3.915,13.772,4.017
					c5.254,0.103,8.239-1.238,9.712-2.402c1.474-1.164,1.924-2.504,1.529-3.831C441.214,389.509,404.606,377.27,404.606,377.27z"/>
				<g id="XMLID_00000181776131201655392080000010564201562120204210_">
					<path id="XMLID_00000101061434327051550540000013111627151603484095_" style="fill:#E0E0E0;" d="M418.471,366.352l0.033-1.818
						c0.967-0.045,1.128,2.583,2.579,4.867c1.951,3.071,4.81,6.911,7.549,9.325c5.406,4.762,10.209,7.729,12.621,9.874
						c3.229,2.869-2.279,7.608-10.857,7.273c-4.258-0.167-11.85-2.178-14.015-4.657c-2.165-2.478-3.536-6.373-5.267-8.171
						c-1.731-1.798-5.412-3.576-6.509-5.775c-0.602-1.208-0.343-4.055-0.036-6.477c0.282-2.222,0.291-5.621,1.545-5.367l0.108,1.139
						c0.527,0.961,1.737,2.541,5.177,3.062C413.117,369.888,418.227,369.955,418.471,366.352z"/>
					<path id="XMLID_00000121967307907437106240000007033139708938005140_" style="opacity:0.2;" d="M418.471,366.352l0.033-1.818
						c0.967-0.045,1.128,2.583,2.579,4.867c1.951,3.071,4.81,6.911,7.549,9.325c5.406,4.762,10.209,7.729,12.621,9.874
						c3.229,2.869-2.279,7.608-10.857,7.273c-4.258-0.167-11.85-2.178-14.015-4.657c-2.165-2.478-3.536-6.373-5.267-8.171
						c-1.731-1.798-5.412-3.576-6.509-5.775c-0.602-1.208-0.343-4.055-0.036-6.477c0.282-2.222,0.291-5.621,1.545-5.367l0.108,1.139
						c0.527,0.961,1.737,2.541,5.177,3.062C413.117,369.888,418.227,369.955,418.471,366.352z"/>
					<path style="opacity:0.15;" d="M414.154,369.672c1.635-0.168,3.387-0.74,4.048-2.228c0.008-0.018,0.021-0.03,0.029-0.048
						c0,0-0.398,1.705,1.165,3.472c1.562,1.767,11.457,14.249,11.457,14.249s-9.186-10.279-10.947-12.214
						c-2.604-2.861-3.421-3.186-5.76-3.228C414.148,369.674,414.151,369.673,414.154,369.672z"/>
				</g>
				<g>
					<path style="opacity:0.15;" d="M416.35,372.987c-0.027,0.288-0.282,0.5-0.571,0.473c-0.288-0.027-0.5-0.283-0.473-0.571
						c0.027-0.288,0.283-0.5,0.571-0.473C416.165,372.443,416.377,372.698,416.35,372.987z"/>
					<path style="opacity:0.15;" d="M418.926,375.74c-0.027,0.288-0.282,0.5-0.571,0.473c-0.288-0.027-0.5-0.283-0.473-0.571
						c0.027-0.288,0.283-0.5,0.571-0.473C418.742,375.196,418.953,375.452,418.926,375.74z"/>
					<path style="opacity:0.15;" d="M421.503,378.493c-0.027,0.288-0.283,0.5-0.571,0.473c-0.288-0.027-0.5-0.283-0.473-0.571
						c0.027-0.288,0.282-0.5,0.571-0.473C421.318,377.949,421.53,378.205,421.503,378.493z"/>
					<path style="opacity:0.15;" d="M424.079,381.246c-0.027,0.288-0.283,0.5-0.571,0.473c-0.288-0.027-0.5-0.283-0.473-0.571
						c0.027-0.288,0.283-0.5,0.571-0.473C423.894,380.702,424.106,380.958,424.079,381.246z"/>
					<path style="opacity:0.15;" d="M426.655,383.999c-0.027,0.288-0.283,0.5-0.571,0.473s-0.5-0.282-0.473-0.571
						c0.027-0.288,0.282-0.5,0.571-0.473C426.471,383.456,426.682,383.711,426.655,383.999z"/>
				</g>
				<g>
					<path style="fill:#263238;" d="M415.815,373.148c-0.049-0.003-0.098-0.023-0.135-0.061c-0.083-0.082-0.084-0.216-0.002-0.298
						c0.104-0.106,2.584-2.58,5.886-2.444c0.001,0,0.002,0,0.004,0c0.114,0.007,0.202,0.104,0.198,0.22
						c-0.005,0.116-0.103,0.207-0.22,0.202c-3.116-0.127-5.544,2.295-5.568,2.319C415.933,373.131,415.873,373.152,415.815,373.148z
						"/>
				</g>
				<g>
					<path style="fill:#263238;" d="M418.392,375.892c-0.049-0.003-0.098-0.023-0.135-0.061c-0.083-0.082-0.084-0.216-0.002-0.298
						c0.104-0.106,2.584-2.58,5.886-2.445c0.001,0,0.002,0,0.004,0c0.115,0.007,0.202,0.105,0.198,0.22
						c-0.005,0.116-0.103,0.207-0.22,0.202c-3.111-0.128-5.543,2.295-5.567,2.319C418.511,375.875,418.451,375.895,418.392,375.892z
						"/>
				</g>
				<g>
					<path style="fill:#263238;" d="M420.968,378.655c-0.049-0.003-0.098-0.023-0.135-0.061c-0.083-0.082-0.084-0.216-0.002-0.298
						c0.104-0.106,2.584-2.58,5.886-2.444c0.001,0,0.003,0,0.004,0c0.114,0.007,0.202,0.104,0.198,0.22
						c-0.005,0.116-0.103,0.207-0.22,0.202c-3.111-0.128-5.544,2.295-5.567,2.319C421.086,378.637,421.026,378.658,420.968,378.655z
						"/>
				</g>
				<g>
					<path style="fill:#263238;" d="M423.544,381.408c-0.049-0.003-0.098-0.023-0.135-0.06c-0.083-0.082-0.084-0.215-0.002-0.298
						c0.104-0.106,2.584-2.581,5.886-2.445c0.001,0,0.002,0,0.004,0c0.114,0.007,0.202,0.104,0.198,0.22
						c-0.005,0.116-0.103,0.207-0.22,0.202c-3.111-0.128-5.544,2.296-5.568,2.32C423.662,381.39,423.602,381.411,423.544,381.408z"
						/>
				</g>
				<g>
					<path style="fill:#263238;" d="M426.121,384.16c-0.049-0.003-0.098-0.023-0.135-0.06c-0.083-0.082-0.084-0.216-0.002-0.298
						c0.104-0.106,2.584-2.58,5.886-2.445c0.001,0,0.002,0,0.004,0c0.114,0.007,0.202,0.104,0.198,0.219
						c-0.005,0.116-0.103,0.207-0.22,0.202c-3.111-0.128-5.543,2.295-5.567,2.319C426.239,384.143,426.179,384.164,426.121,384.16z"
						/>
				</g>
			</g>
			<g>
				<g>
					<path style="fill:#E0E0E0;" d="M378.1,401.468c-0.36,4.146-1.084,6.881-2.627,9.275c-1.543,2.393-4.654,2.931-7.024,2.653
						c-3.332-0.392-6.755-2.373-8.428-6.94c-1.007-2.747-0.779-6.019-0.03-9.852L378.1,401.468z"/>
					<path id="XMLID_00000061465373169140709510000000932223363059204537_" style="fill:#E0E0E0;" d="M366.187,370.948
						c-1.163,0.058-1.664,5.624-2.492,11.189c-0.887,5.964-2.814,9.259-3.525,13.277c-0.985,5.569-0.668,8.098,1.2,11.544
						c1.867,3.446,10.294,7.096,13.859,2.34c2.906-3.878,3.147-8.264,3.051-13.869c-0.098-5.794-0.213-9.871,0.148-14.256
						c0.346-4.191,0.751-8.251-0.243-8.747c-0.095,0.614-0.193,1.394-0.292,1.997c-0.076,0.463-0.257,2.733-0.907,2.736
						c-0.045-0.538-0.02-1.037,0.032-1.582c0.045-0.474,0.02-0.993-0.279-1.363c-0.301-0.373-0.803-0.505-1.271-0.612
						c-1.135-0.258-2.278-0.494-3.435-0.631c-0.576-0.068-1.155-0.113-1.735-0.123c-0.47-0.008-2.594-0.112-3.044,0.04
						c-0.276,0.093-0.535,0.281-0.644,0.551c-0.081,0.2-0.073,0.423-0.079,0.639c-0.011,0.388-0.071,0.774-0.178,1.146
						c-0.047,0.164-0.167,0.363-0.332,0.318c-0.134-0.036-0.182-0.206-0.179-0.344c0.015-0.677,0.115-1.166,0.168-1.952
						c0.025-0.363,0.098-0.857,0.113-1.222C366.139,371.665,366.152,371.306,366.187,370.948z"/>
					<path id="XMLID_00000090259845203998178770000011650580121031592362_" style="opacity:0.2;" d="M366.187,370.948
						c-1.163,0.058-1.664,5.624-2.492,11.189c-0.887,5.964-2.814,9.259-3.525,13.277c-0.985,5.569-0.668,8.098,1.2,11.544
						c1.867,3.446,10.294,7.096,13.859,2.34c2.906-3.878,3.147-8.264,3.051-13.869c-0.098-5.794-0.213-9.871,0.148-14.256
						c0.346-4.191,0.751-8.251-0.243-8.747c-0.095,0.614-0.193,1.394-0.292,1.997c-0.076,0.463-0.257,2.733-0.907,2.736
						c-0.045-0.538-0.02-1.037,0.032-1.582c0.045-0.474,0.02-0.993-0.279-1.363c-0.301-0.373-0.803-0.505-1.271-0.612
						c-1.135-0.258-2.278-0.494-3.435-0.631c-0.576-0.068-1.155-0.113-1.735-0.123c-0.47-0.008-2.594-0.112-3.044,0.04
						c-0.276,0.093-0.535,0.281-0.644,0.551c-0.081,0.2-0.073,0.423-0.079,0.639c-0.011,0.388-0.071,0.774-0.178,1.146
						c-0.047,0.164-0.167,0.363-0.332,0.318c-0.134-0.036-0.182-0.206-0.179-0.344c0.015-0.677,0.115-1.166,0.168-1.952
						c0.025-0.363,0.098-0.857,0.113-1.222C366.139,371.665,366.152,371.306,366.187,370.948z"/>
					<path style="opacity:0.15;" d="M364.384,396.921c-0.029,0.222,0.128,0.426,0.35,0.455c0.223,0.029,0.426-0.128,0.455-0.35
						c0.029-0.222-0.128-0.426-0.35-0.455C364.616,396.542,364.412,396.698,364.384,396.921z"/>
					<path style="opacity:0.15;" d="M364.883,393.063c-0.029,0.222,0.128,0.426,0.35,0.455c0.222,0.029,0.426-0.128,0.455-0.35
						c0.029-0.223-0.128-0.426-0.351-0.455C365.115,392.684,364.912,392.841,364.883,393.063z"/>
					<path style="opacity:0.15;" d="M365.354,389.423c-0.029,0.222,0.128,0.426,0.35,0.454c0.222,0.029,0.426-0.128,0.454-0.35
						c0.029-0.222-0.128-0.426-0.35-0.455C365.586,389.043,365.383,389.2,365.354,389.423z"/>
					<path style="opacity:0.15;" d="M365.819,385.833c-0.029,0.222,0.128,0.426,0.35,0.455c0.223,0.029,0.426-0.128,0.455-0.351
						c0.029-0.222-0.128-0.426-0.35-0.454C366.051,385.454,365.847,385.611,365.819,385.833z"/>
					<path style="opacity:0.15;" d="M374.982,386.667c-0.029,0.222,0.128,0.426,0.35,0.455c0.222,0.029,0.426-0.128,0.454-0.35
						c0.029-0.222-0.128-0.426-0.35-0.455C375.215,386.288,375.011,386.445,374.982,386.667z"/>
					<path style="opacity:0.15;" d="M374.514,390.281c-0.029,0.222,0.128,0.426,0.35,0.455c0.222,0.029,0.426-0.128,0.455-0.35
						c0.029-0.222-0.128-0.426-0.35-0.455C374.747,389.902,374.543,390.059,374.514,390.281z"/>
					<path style="opacity:0.15;" d="M374.043,393.923c-0.029,0.222,0.128,0.426,0.35,0.455c0.222,0.029,0.426-0.128,0.454-0.35
						s-0.128-0.426-0.35-0.454C374.276,393.544,374.072,393.701,374.043,393.923z"/>
					<path style="opacity:0.15;" d="M373.544,397.783c-0.029,0.222,0.128,0.426,0.35,0.455c0.222,0.029,0.426-0.128,0.455-0.35
						c0.029-0.222-0.128-0.426-0.35-0.454C373.776,397.404,373.573,397.56,373.544,397.783z"/>
					<path style="opacity:0.15;" d="M369.781,400.024l3.504-26.857c-0.416-0.072-0.833-0.146-1.253-0.196
						c-0.267-0.032-0.536-0.036-0.804-0.057L369.781,400.024z"/>
				</g>
				<g>
					<g>
						<path style="fill:#263238;" d="M364.762,397.178c0.02,0.003,0.041,0.002,0.062-0.002c2.697-0.518,7.263-0.113,9.03,0.814
							c0.1,0.056,0.224,0.014,0.278-0.087c0.053-0.101,0.014-0.225-0.087-0.278c-1.872-0.982-6.476-1.397-9.298-0.854
							c-0.112,0.021-0.186,0.129-0.163,0.24C364.602,397.103,364.676,397.168,364.762,397.178z"/>
					</g>
					<g>
						<path style="fill:#263238;" d="M365.261,393.32c0.035,0.004,0.072-0.001,0.106-0.016c2.073-0.909,6.968-0.229,8.986,0.829
							c0.101,0.054,0.225,0.014,0.278-0.087c0.053-0.101,0.014-0.225-0.087-0.278c-2.105-1.105-7.157-1.802-9.342-0.841
							c-0.105,0.046-0.152,0.167-0.106,0.271C365.127,393.267,365.191,393.311,365.261,393.32z"/>
					</g>
					<g>
						<path style="fill:#263238;" d="M365.733,389.679c0.035,0.004,0.072-0.001,0.106-0.016c2.073-0.909,6.967-0.229,8.985,0.829
							c0.101,0.056,0.225,0.014,0.278-0.087c0.053-0.101,0.014-0.225-0.087-0.278c-2.103-1.106-7.155-1.801-9.342-0.841
							c-0.105,0.046-0.152,0.167-0.106,0.271C365.599,389.627,365.663,389.671,365.733,389.679z"/>
					</g>
					<g>
						<path style="fill:#263238;" d="M366.197,386.09c0.036,0.004,0.072-0.001,0.106-0.016c2.073-0.909,6.967-0.229,8.986,0.829
							c0.099,0.055,0.224,0.014,0.278-0.087c0.053-0.101,0.014-0.225-0.087-0.278c-2.105-1.104-7.156-1.802-9.342-0.841
							c-0.105,0.046-0.152,0.167-0.106,0.271C366.063,386.037,366.127,386.082,366.197,386.09z"/>
					</g>
				</g>
			</g>
			<g>
				<path id="XMLID_00000183948421273122390350000001917805005393293961_" style="fill:#E0E0E0;" d="M370.566,229.867
					c-2.689,34.084-4.339,80.493-4.339,80.493c-0.241,2.588-2.794,14.202-2.891,27.031c-0.117,15.551,0.844,38.869,0.844,38.869
					s8.34,4.265,15.972,1.72c0,0,7.628-37.608,11.129-57.264c2.714-15.233,7.224-44.595,7.224-44.595l1.389,33.968
					c0,0-0.459,10.98-0.171,17.776c0.335,7.905,4.65,40.656,4.65,40.656s9.87,7.664,17.797,1.592c0,0,2.967-54.982,3.19-64.492
					c0.437-18.655,0.262-55.676-0.418-79.759L370.566,229.867z"/>
				<path id="XMLID_00000039106372320580125940000017919432071144782757_" style="opacity:0.1;" d="M370.566,229.867
					c-2.689,34.084-4.339,80.493-4.339,80.493c-0.241,2.588-2.794,14.202-2.891,27.031c-0.117,15.551,0.844,38.869,0.844,38.869
					s8.34,4.265,15.972,1.72c0,0,7.628-37.608,11.129-57.264c2.714-15.233,7.224-44.595,7.224-44.595l1.389,33.968
					c0,0-0.459,10.98-0.171,17.776c0.335,7.905,4.65,40.656,4.65,40.656s9.87,7.664,17.797,1.592c0,0,2.967-54.982,3.19-64.492
					c0.437-18.655,0.262-55.676-0.418-79.759L370.566,229.867z"/>
				<path style="opacity:0.1;" d="M386.592,263.476c-4.617,34.475-9.498,69.512-14.318,103.971
					C379.326,333.348,383.864,298.167,386.592,263.476z M419.125,288.503c-0.328-7.657-0.78-15.319-1.635-22.94
					c0.124,3.832,0.248,7.658,0.291,11.488l0.187,11.485l0.141,11.484l0.032,2.87l0.016,1.423l-0.035,1.434l-0.145,5.743
					c-0.157,7.657-0.295,20.495-0.346,28.154c-0.072,7.659-0.048,15.32,0.072,22.985c0.459-7.652,0.823-15.309,1.09-22.968
					c0.288-7.659,0.49-20.5,0.673-28.161C419.753,303.845,419.422,296.148,419.125,288.503z M398.505,276.122l1.389,33.968
					l0.841-33.914l3.308-16.492c8.725-2.206,11.783-7.835,11.783-7.835c-4.741,4.258-13.993,5.606-13.993,5.606L398.505,276.122z"/>
			</g>
		</g>
		<g id="Top_00000056428702580538435840000011380801809929446021_">
			<g id="Top_00000064326006224836929970000006338920161265914506_">
				<g id="Chest_00000028307400762816490250000017565191284922978235_">
					<path id="XMLID_00000062899865456125240860000005306684132567144112_" style="fill:#E0E0E0;" d="M372.442,168.484
						c0,0-5.109,4.548-3.755,16.889c1.178,10.736,1.719,19.744,1.85,23.911c0.201,6.39-0.7,28.181-0.7,28.181
						c9.206,11.867,50.299,10.22,55.68-0.07c0,0-0.276-14.782-0.293-29.057c-0.013-10.455-0.267-20.221-0.805-26.494
						c-0.773-9.023-4.64-13.596-6.363-15.283l-14.932-3.734l-12.432-0.609L372.442,168.484z"/>
				</g>
			</g>
			<g id="Head_00000141431633550990526490000005308690974653958558_">
				<path style="fill:#E0E0E0;" d="M387.557,156.998c-0.854-3.972-5.017-7.975-6.962-11.386c-1.876-3.289-3.019-5.854-2.961-9.025
					c0.034-1.879,0.497-3.734,2.054-5.169c-0.469-6.845,6.358-10.495,10.976-11.823c5.37-1.544,9.785-1.966,15.41,0.277
					c2.152,0.858,4.798,2.156,7.018,6.423c0.825,1.586,1.068,4.243,0.982,6.569c-0.008,0.219-0.396,1.076-0.549,1.238
					c-0.156,0.166-0.116,0.722-0.153,0.945c-0.107,0.642-0.246,1.261-0.612,1.812c-0.561,0.845-1.299,1.69-2.207,2.171
					c-2.892,1.536-6.14,2.137-9.293,2.934c-1.248,0.316-2.495,0.631-3.742,0.947c-0.218,0.055-1.355,0.174-1.482,0.375
					C396.034,143.286,387.557,156.998,387.557,156.998z"/>
				<path style="opacity:0.2;" d="M387.557,156.998c-0.854-3.972-5.017-7.975-6.962-11.386c-1.876-3.289-3.019-5.854-2.961-9.025
					c0.034-1.879,0.497-3.734,2.054-5.169c-0.469-6.845,6.358-10.495,10.976-11.823c5.37-1.544,9.785-1.966,15.41,0.277
					c2.152,0.858,4.798,2.156,7.018,6.423c0.825,1.586,1.068,4.243,0.982,6.569c-0.008,0.219-0.396,1.076-0.549,1.238
					c-0.156,0.166-0.116,0.722-0.153,0.945c-0.107,0.642-0.246,1.261-0.612,1.812c-0.561,0.845-1.299,1.69-2.207,2.171
					c-2.892,1.536-6.14,2.137-9.293,2.934c-1.248,0.316-2.495,0.631-3.742,0.947c-0.218,0.055-1.355,0.174-1.482,0.375
					C396.034,143.286,387.557,156.998,387.557,156.998z"/>
				<g id="XMLID_00000027566393897715954130000013607686914397723279_">
					<path style="fill:#EBEBEB;" d="M382.639,152.07c2.886,1.558,4.713-0.344,4.713-0.344l-0.539,12.061
						c2.447,5.363,8.956,2.939,16.589,12.21c0,0,2.329-3.969,0.238-11.724l0.295-4.054c0,0,2.877-0.1,4.751-0.419
						c3.352-0.571,5.003-3.572,5.964-8.023c0.776-3.592,0.909-7.887-0.048-12.11c-0.244-1.079-0.379-2.184-0.313-3.288
						c0.175-2.932-0.312-3.614-1.173-6.032c-3.574-2.631-11.712-4.224-18.961,0.626c1.053,4.393-0.517,7.979-3.666,9.808
						c0.203,1.19,0.483,4.206-1.486,4.236c-1.418,0.021-1.59-1.752-3.112-3.254c-1.553-1.534-4.936-1.775-6.15,0.59
						C378.042,145.662,379.477,150.364,382.639,152.07z"/>
					<path style="fill:#E0E0E0;" d="M403.935,160.219c-5.002-0.371-8.962-0.785-11.712-4.279c-1.724-2.191-3.256-5.769-3.256-5.769
						s0.701,4.386,2.455,7.301c1.352,2.247,4.556,4.212,12.389,4.545L403.935,160.219z"/>
				</g>
				<path style="fill:#E0E0E0;" d="M404.465,137.752c2.161,1.015,4.535,4.014,7.01,7.952l-5.681,1.995L404.465,137.752z"/>
				<path style="opacity:0.2;" d="M405.971,150.557c0.018-0.048-0.016-0.104-0.062-0.127c-0.046-0.023-0.1-0.023-0.151-0.023
					c-1.179,0.001-2.365-0.268-3.419-0.799c-0.091-0.046-0.187-0.095-0.289-0.087c-0.478,0.036,0.287,0.547,0.384,0.611
					c1.014,0.657,2.271,0.897,3.431,0.503C405.899,150.622,405.936,150.607,405.971,150.557z"/>
				<path id="XMLID_00000016042115004874233880000011167165340086970269_" style="opacity:0.2;" d="M400.474,135.62l-2.938,1.761
					c-0.473-0.845-0.198-1.925,0.613-2.411C398.96,134.484,400.001,134.775,400.474,135.62z"/>
				<path id="XMLID_00000168108711956539706100000014890745963401853059_" style="opacity:0.2;" d="M412.572,136.396l-3.17-1.365
					c0.347-0.896,1.338-1.318,2.213-0.941C412.49,134.467,412.919,135.499,412.572,136.396z"/>
				<g id="XMLID_00000096756662821072089970000005745921684397792695_">
					<path id="XMLID_00000155863064442124188870000017291647051509490357_" style="fill:#E0E0E0;" d="M401.503,139.942
						c0.126,0.794-0.392,1.535-1.157,1.654c-0.765,0.119-1.487-0.428-1.613-1.223c-0.126-0.795,0.392-1.535,1.157-1.654
						C400.655,138.6,401.378,139.148,401.503,139.942z"/>
					<path id="XMLID_00000106147647304667721680000013873098352338807187_" style="fill:#E0E0E0;" d="M410.262,138.112
						c0.773-0.052,1.444,0.556,1.501,1.359c0.056,0.802-0.524,1.495-1.297,1.547c-0.772,0.052-1.444-0.556-1.501-1.359
						C408.909,138.857,409.489,138.164,410.262,138.112"/>
					<path id="XMLID_00000036948413640325523280000016373221312382263430_" style="opacity:0.2;" d="M400.474,135.62l-2.938,1.761
						c-0.473-0.845-0.198-1.925,0.613-2.411C398.96,134.484,400.001,134.775,400.474,135.62z"/>
					<path id="XMLID_00000095328434390847751110000000017841797303357576_" style="opacity:0.2;" d="M412.572,136.396l-3.17-1.365
						c0.347-0.896,1.338-1.318,2.213-0.941C412.49,134.467,412.919,135.499,412.572,136.396z"/>
					<path id="XMLID_00000054964374243550598890000005259576508351766402_" style="opacity:0.2;" d="M401.503,139.942
						c0.126,0.794-0.392,1.535-1.157,1.654c-0.765,0.119-1.487-0.428-1.613-1.223c-0.126-0.795,0.392-1.535,1.157-1.654
						C400.655,138.6,401.378,139.148,401.503,139.942z"/>
					<path id="XMLID_00000135688536803068592930000001600210177109606839_" style="opacity:0.2;" d="M410.262,138.112
						c0.773-0.052,1.444,0.556,1.501,1.359c0.056,0.802-0.524,1.495-1.297,1.547c-0.772,0.052-1.444-0.556-1.501-1.359
						C408.909,138.857,409.489,138.164,410.262,138.112"/>
				</g>
			</g>
			<path style="fill:#E0E0E0;" d="M392.056,165.227c-2.363-1.974-4.793-3.434-5.008-5.098l-0.011-1.35
				c-1.089-0.148-1.033,0.639-2.065,2.568c-0.533,0.998-2.364,3.619-2.364,3.619s0.804,2.729,3.054,5.867
				c1.608,2.243,4.35,4.988,7.569,7.064c1.663,1.066,1.56,1.072,2.074-0.131c0.503-1.213,2.387-4.796,3.055-5.445
				c0.465-0.452,1.048,0.138,2.285,1.424c1.238,1.286,2.755,2.252,2.755,2.252s-3.624-5.488-4.284-6.099
				C398.215,169.054,394.419,167.212,392.056,165.227z M409.809,168.734c-0.375-2.026-2.332-5.079-3.398-6.759
				c-0.277-0.442-1.242-1.505-1.514-1.772c-0.356-0.005-0.681,0.026-0.962,0.015l-0.295,4.054c0,0,0.792,3.101,0.605,4.915
				c-0.111,1.073-0.226,5.2-0.843,6.809c0.341-0.628,0.648-1.097,1.16-2.091c0.511-0.994,1.43-3.638,1.942-3.687
				c1.06-0.128,3.305,5.152,3.557,4.471C410.16,174.435,410.412,171.982,409.809,168.734z"/>
			<path style="opacity:0.1;" d="M392.056,165.227c-2.363-1.974-4.793-3.434-5.008-5.098l-0.011-1.35
				c-1.089-0.148-1.033,0.639-2.065,2.568c-0.533,0.998-2.364,3.619-2.364,3.619s0.804,2.729,3.054,5.867
				c1.608,2.243,4.35,4.988,7.569,7.064c1.663,1.066,1.56,1.072,2.074-0.131c0.503-1.213,2.387-4.796,3.055-5.445
				c0.465-0.452,1.048,0.138,2.285,1.424c1.238,1.286,2.755,2.252,2.755,2.252s-3.624-5.488-4.284-6.099
				C398.215,169.054,394.419,167.212,392.056,165.227z M409.809,168.734c-0.375-2.026-2.332-5.079-3.398-6.759
				c-0.277-0.442-1.242-1.505-1.514-1.772c-0.356-0.005-0.681,0.026-0.962,0.015l-0.295,4.054c0,0,0.792,3.101,0.605,4.915
				c-0.111,1.073-0.226,5.2-0.843,6.809c0.341-0.628,0.648-1.097,1.16-2.091c0.511-0.994,1.43-3.638,1.942-3.687
				c1.06-0.128,3.305,5.152,3.557,4.471C410.16,174.435,410.412,171.982,409.809,168.734z"/>
			<g id="Arm_00000064337897648809414840000013036297627585748359_">
				<g id="Arm_00000008148604661129677310000006805042664643140266_">
					<g>
						<g>
							<path style="fill:#EBEBEB;" d="M376.041,262.272c-2.427-2.715-2.97-6.823-5.603-9.359c-0.806-0.776-1.768-1.361-2.606-2.098
								c-0.95-0.837-1.21-1.409-1.255-2.667c-0.021-0.572,1.044-32.794,1.044-32.794s4.605-10.233,7.243-20.594
								c2.524-14.806,1.069-22.594-2.866-25.751c-7.166,2.601-8.329,4.824-10.16,9.809c-1.19,3.238-2.64,8.07-4.43,14.819
								c-2.772,10.445-2.652,9.499-4.403,17.06c-0.742,3.205-1.078,10.284-0.675,16.484c0.54,8.303,1.677,21.632,1.802,22.814
								c0.406,3.847-0.058,9.413,0.732,11.604c0.79,2.191,1.865,4.904,2.681,6.605c0.816,1.702,2.519,2.128,2.519,2.128
								s1.756,3.132,3.141,4.591c1.385,1.459,2.965,0.958,2.965,0.958s0.794,1.081,2.822,3.138c2.028,2.057,2.227,1.428,2.611,1.015
								c0.385-0.413,0.917-1.631,0.257-2.717c-0.661-1.086-2.782-3.273-3.334-4.141c-0.551-0.868-1.235-3.107-1.235-3.107
								s0.609,0.866,1.185,1.733c0.577,0.867,2.151,2.141,3.194,3.171c1.53,1.512,2.77,2.326,3.357,1.784
								c0.587-0.541,0.623-1.929-0.113-3.115c-0.736-1.187-3.922-4.139-4.316-5.424c-0.393-1.285-0.846-1.816-1.484-5.086
								c-0.12-0.618-0.882-3.242,0.685-2.486c0.357,0.172,0.595,0.513,0.825,0.836c0.676,0.949,1.43,1.87,2.404,2.509
								c0.974,0.64,2.203,0.97,3.325,0.656c0.172-0.048,0.344-0.114,0.474-0.237c0.274-0.261,0.273-0.714,0.112-1.057
								c-0.161-0.343-0.448-0.606-0.709-0.88C376.165,262.409,376.102,262.341,376.041,262.272z"/>
							<path style="opacity:0.1;" d="M366.169,275.882c-1.199-1.338-2.1-2.913-2.891-4.519c-0.75-1.628-1.392-3.315-1.758-5.07
								c0.649,1.667,1.298,3.32,2.079,4.917C364.348,272.822,365.211,274.372,366.169,275.882z"/>
							<path style="opacity:0.1;" d="M360.064,270.333c-0.595-0.684-0.993-1.5-1.365-2.312c-0.331-0.831-0.643-1.672-0.788-2.564
								c0.425,0.795,0.749,1.617,1.115,2.424L360.064,270.333z"/>
						</g>
						<path style="opacity:0.1;" d="M367.29,270.07c-1.063-1.385-2.209-4.077-2.209-4.077s0.34,3.336,2.708,5.546L367.29,270.07z"/>
					</g>
				</g>
				<g>
					<path style="fill:#E0E0E0;" d="M372.572,168.439c-7.08,2.186-9.093,3.688-10.75,6.34c-2.02,3.233-2.962,7.092-6.603,19.625
						c-3.641,12.533-4.821,17.973-4.918,20.646c-0.187,5.127-0.094,7.637,0.823,14.888c0.677,5.358,1.03,9.243,2.029,17.415
						c3.717,1.442,12.588,1.312,14.413-1.127c0-5.531,0.212-8.896,0.306-15.152c0.118-7.79,0.524-13.857,0.524-13.857l7.8-23.412
						C376.197,193.805,380.629,174.505,372.572,168.439z"/>
				</g>
				<g style="opacity:0.1;">
					<path d="M372.572,168.439c-7.08,2.186-9.093,3.688-10.75,6.34c-2.02,3.233-2.962,7.092-6.603,19.625
						c-3.641,12.533-4.821,17.973-4.918,20.646c-0.187,5.127-0.094,7.637,0.823,14.888c0.677,5.358,1.03,9.243,2.029,17.415
						c3.717,1.442,12.588,1.312,14.413-1.127c0-5.531,0.212-8.896,0.306-15.152c0.118-7.79,0.524-13.857,0.524-13.857l7.8-23.412
						C376.197,193.805,380.629,174.505,372.572,168.439z"/>
				</g>
			</g>
		</g>
	</g>
</g>
<g id="Character_2">
	<g id="Character_00000060729876248675914550000004987678901736664245_">
		<g id="Bottom_00000170963782159239944100000010382786818880798888_">
			<g id="Bottom_00000179627410927773106350000001464765250201841808_">
				<g>
					<polygon style="fill:#263238;" points="235.919,421.028 232.659,419.352 235.919,418.495 					"/>
					<path style="fill:#263238;" d="M203.206,426.607c0,0,39.087-17.003,39.528-14.365c0.097,0.581,0.07,1.104-0.045,1.581
						c0.034-0.047,0.076-0.093,0.107-0.14L242,418.58c0,0-2.814,2.337-6.081,2.449c0-0.237,0-1.699,0-2.533
						c-1.061,0.427-2.153,0.937-3.452,1.772c-2.514,1.617-4.16,4.487-6.854,7.81c-1.963,2.421-5.411,3.511-10.505,4.157
						c-5.481,0.695-10.283-0.437-11.618-1.936C202.427,429.104,203.003,426.946,203.206,426.607z"/>
					<path style="fill:#C8856A;" d="M204.292,425.714c0.38-0.387,1.788-1.9,3.688-3.541c1.661-1.436,3.599-3.253,5.676-4.712
						c0.829-0.582,2.102-1.515,2.818-2.265c0.688-0.72,1.349-1.467,1.964-2.252c1.911-2.439,3.477-5.126,4.811-7.918
						c0.633-1.325,1.782-4.242,1.554-9.691c-0.346-8.253-0.967-11.238-0.912-16.599l18.468,2.833
						c-0.587,2.963-1.27,9.583-1.608,12.955c-0.513,5.129-1.27,5.605,0.64,10.76c0.562,1.517,1.415,2.981,1.464,4.599
						c0.081,2.629-2.006,4.866-4.321,6.114c-1.918,1.035-4.114,1.458-5.977,2.563c-1.96,1.163-3.496,2.94-4.907,4.698
						c-1.333,1.66-2.413,3.629-4.264,4.781c-2.052,1.278-3.995,1.655-6.357,2.099c-2.716,0.51-6.19,0.515-8.499,0.297
						C204.505,430.055,201.529,428.534,204.292,425.714z"/>
					<g>
						<g>
							<path style="fill:#37474F;" d="M219.568,417.916c-2.798-1.536-5.366-0.964-6.011-0.646c-2.898,2.234-5.3,4.222-6.994,5.611
								c-2.057,1.686-3.859,3.227-3.816,5.193c0.068,3.088,11.973,4.206,18.681,1.384c3.487-1.167,4.772-4.067,4.772-4.067
								S225.286,421.056,219.568,417.916z M242.398,407.185c-0.986-2.002-1.358-3.021-1.358-3.021
								c-2.334,1.229-6.454,6.986-4.698,12.868c2.113-0.522,4.186-1.298,5.903-3.898
								C243.543,411.17,243.384,409.187,242.398,407.185z"/>
						</g>
					</g>
				</g>
				<g>
					<path style="fill:#263238;" d="M271.057,416.883c-1.152,1.732,0.071,8.43-0.323,13.16c-0.358,4.297-1.443,10.984-0.539,16.058
						c0.926,5.199,5.053,10.794,11.12,6.252c3.76-2.815,5.35-6.297,6.038-12.478c0.478-4.296-1.06-10.304-2.376-15.632
						c-1.537-6.223-2.093-9.542-2.093-9.542L271.057,416.883z"/>
					<path style="fill:#C8856A;" d="M285.014,385.497c-0.227,8.841-0.739,16.503-1.001,22.932
						c-0.024,2.997-0.308,7.302,0.102,11.332c0.483,4.759,1.17,7.82,1.692,10.497c0.728,3.741,1.295,6.102-0.116,10.23
						c-0.11,0.321-0.269,0.628-0.448,0.928c-1.897,3.38-6.535,5.836-7.983,5.377c-0.428,0.665-1.475,1.042-2.594,0.819
						c-0.16-0.032-0.321-0.076-0.482-0.133c-0.161-0.057-0.322-0.127-0.481-0.212c-0.955-0.506-1.847-1.517-2.332-3.23
						c-0.081-0.285-0.15-0.59-0.207-0.916c-0.905-5.205-0.033-8.524,0.127-10.544c0.186-2.331-0.008-5.308,0.048-9.081
						c0.109-7.281-2.364-15.31-3.413-21.021c-0.852-4.638-1.893-11.66-3.01-16.978H285.014z"/>
					<path style="fill:#37474F;" d="M286.549,435.122c-3.548-1.695-13.965-2.231-15.78,2.793c-0.187,4.776-0.314,8.014,2.577,12.263
						c3.842,5.645,9.251-0.053,11.369-3.711C286.833,442.809,286.961,437.711,286.549,435.122z"/>
				</g>
				<path style="fill:#37474F;" d="M268.247,245.829c5.26,9.005,12.348,21.523,13.004,41.915c0.875,27.179,1.442,46.65,1.637,49.924
					c0.195,3.274,2.696,7.46,3.575,23.672c0.979,18.061-1.578,45.239-1.578,45.239s-2.177,2.571-8.335,3.292
					c-5.681,0.665-8.675-2.338-8.675-2.338s-9.792-42.979-11.576-53.752c-1.628-9.831-7.489-46.196-7.489-46.196l-2.45,28.511
					c0,0,2.064,9.145,0.711,23.348c-1.354,14.203-5.846,37.704-5.846,37.704s-3.717,3.029-9.76,2.79
					c-5.53-0.218-7.836-2.448-7.836-2.448s-3.35-53.946-3.784-69.992c-0.435-16.046-1.934-56.246,2.473-80.139L268.247,245.829z"/>
				<g>
					<path style="fill:#263238;" d="M226.508,270.315c0.856,6.524,10.87,13.297,14.764,14.12l4.911,24.47l0.176,27.191l2.45-28.511
						l-4.448-25.685C244.361,281.9,231.918,278.782,226.508,270.315z"/>
					<path style="fill:#263238;" d="M227.881,332.178c-0.16-3.638-0.041-7.345,0.028-11.029c0.068-3.691,0.205-7.382,0.309-11.076
						l0.786-22.172c-0.942,7.343-1.63,14.718-2.115,22.106c-0.462,7.397-0.896,14.763-0.717,22.244
						c0.336,15.826,0.796,34.629,1.492,43.501C227.966,367.769,228.055,335.832,227.881,332.178z"/>
					<path style="fill:#263238;" d="M268.323,353.448c-1.211-8.371-3.852-27.176-5.052-35.574
						c-1.171-8.403-2.334-16.816-3.616-25.216c0.624,8.474,1.347,16.937,2.296,25.382c0.931,8.446,3.351,27.32,4.694,35.739
						c1.708,10.705,3.199,25.471,6.89,42.531C272.641,387.062,269.844,363.967,268.323,353.448z"/>
				</g>
			</g>
		</g>
		<g id="Top_00000172404603717521659240000010055398677011278746_">
			<g>
				<path style="fill:#BA68C8;" d="M235.147,194.66c-5.316,0.752-6.611,0.943-11.249,3.518
					c-5.041,2.798-31.127,32.772-31.127,32.772s3.264,2.474,8.574,1.742c5.31-0.733,23.261-10.441,23.261-10.441L235.147,194.66z"/>
				<g>
					<path style="fill:#AF6152;" d="M222.338,185.912c0,0,0.44-0.206,0.591-1.138c0.15-0.933,0.082-1.584,0.232-2.625
						c0.149-1.041,0.633-2.769,1.601-2.929c0.968-0.159,1.393,2.055,1.382,3.84c-0.01,1.785-0.013,2.838,1.126,4.88
						c1.139,2.043,2.077,4.652,0.802,6.88L222.338,185.912z"/>
					<path style="fill:#C8856A;" d="M216.01,182.227c0.569-1.728,0.564-3.925,0.781-5.307c0.217-1.382,0.675-2.552,1.282-3.915
						c0.607-1.363,1.094-3.159,1.592-3.325c0.499-0.166,1.321,0.41,1.253,1.503c0,0,0.669-0.785,1.244-1.607
						c0.575-0.822,0.98-1.855,1.766-2.017c0.786-0.161,1.125,1.092,0.825,1.949c-0.3,0.858-0.528,1.346-0.528,1.346
						s0.755,0.372,0.039,1.909c-0.387,0.832-0.767,1.249-1.124,1.715c-0.291,1.188-0.355,1.776-0.966,2.74
						c-0.367,1.12-0.581,2.071-1.118,2.98c0.251,0.83,0.884,1.826,0.832,3.25c-0.053,1.424-0.288,1.75,1.298,3.507
						c1.068,1.184,2.914,2.558,3.906,4.176c0.992,1.617,1.648,3.313,0.243,5.327c-1.404,2.014-2.495,3.465-3.822,5.59
						c-1.002,1.604-2.015,3.737-6.209,11.357c-3.258,5.919-3.533,6.665-5.094,8.796c-2.185,2.981-4.709,6.857-10.109,8.809
						c-5.4,1.953-11.477,1.013-10.527-3.406c1.139-5.297,2.857-9.415,5.351-12.19c2.494-2.775,3.363-3.436,6.629-6.26
						c2.689-2.324,4.798-4.765,8.115-8.098c3.269-3.284,5.596-6.538,5.628-7.702c0.054-1.968-0.738-4.847-1.124-6.322
						C215.586,184.783,215.235,184.849,216.01,182.227z"/>
					<path style="fill:#AF6152;" d="M228.072,194.821c-0.286,1.068-1.068,1.858-1.659,2.778c-0.609,0.904-1.221,1.807-1.806,2.727
						c-0.581,0.922-1.177,1.835-1.738,2.77c-0.57,0.93-1.188,2.294-1.728,3.242c0.629-0.891,1.296-2.225,1.9-3.132
						c0.613-0.902,1.193-1.823,1.796-2.731l1.779-2.74l0.892-1.371C227.797,195.893,228.005,195.364,228.072,194.821z"/>
					<path style="fill:#AF6152;" d="M220.919,171.183c-0.105,0.493-0.271,0.954-0.453,1.41c-0.185,0.452-0.391,0.903-0.609,1.328
						l-0.033,0.064l0.012,0.098c0.03,0.243,0.037,0.521,0.031,0.783c-0.005,0.266-0.041,0.53-0.084,0.791
						c-0.087,0.522-0.264,1.025-0.511,1.493l-0.061,0.116l0.044,0.1c0.076,0.17,0.147,0.375,0.2,0.572
						c0.053,0.2,0.104,0.404,0.134,0.611c0.031,0.207,0.064,0.417,0.07,0.63c0.012,0.213,0,0.427-0.008,0.646
						c0.16-0.406,0.236-0.852,0.245-1.298c0.001-0.223-0.007-0.449-0.043-0.671c-0.035-0.225-0.076-0.438-0.153-0.672l-0.017,0.215
						c0.322-0.497,0.55-1.06,0.652-1.643c0.058-0.291,0.078-0.586,0.081-0.881c0.003-0.298-0.019-0.582-0.083-0.892l-0.021,0.162
						c0.208-0.475,0.362-0.954,0.477-1.451C220.901,172.2,220.963,171.686,220.919,171.183z"/>
					<path style="fill:#AF6152;" d="M224.227,170.855c-0.167,0.234-0.346,0.45-0.549,0.642c-0.202,0.189-0.421,0.372-0.639,0.519
						l-0.043,0.029l-0.024,0.081c-0.166,0.556-0.414,1.111-0.722,1.602c-0.303,0.5-0.693,0.93-1.143,1.277l-0.142,0.109l0.034,0.176
						c0.055,0.289,0.077,0.638,0.077,0.965c-0.006,0.332-0.028,0.668-0.075,1.002c-0.053,0.333-0.112,0.668-0.199,1
						c-0.075,0.336-0.194,0.66-0.298,0.996c0.203-0.286,0.375-0.594,0.528-0.913c0.158-0.318,0.27-0.657,0.368-1.001
						c0.09-0.346,0.155-0.701,0.18-1.062c0.026-0.366,0.03-0.715-0.042-1.108l-0.108,0.285c0.262-0.197,0.519-0.406,0.725-0.661
						c0.209-0.249,0.403-0.511,0.554-0.795c0.153-0.283,0.286-0.574,0.389-0.876c0.098-0.305,0.183-0.604,0.225-0.932l-0.067,0.11
						c0.227-0.207,0.414-0.426,0.579-0.671C223.998,171.387,224.14,171.129,224.227,170.855z"/>
					<path style="fill:#AF6152;" d="M220.587,182.095c-0.02,0.637,0.157,1.271,0.423,1.847c0.275,0.576,0.642,1.098,1.08,1.556
						c-0.124-0.294-0.273-0.569-0.413-0.846c-0.138-0.279-0.283-0.551-0.411-0.83C220.998,183.267,220.786,182.697,220.587,182.095z
						"/>
					<path style="fill:#AF6152;" d="M225.8,189.406c0.315,1.136,0.474,2.252,0.299,3.345c-0.076,0.545-0.238,1.076-0.461,1.589
						c-0.225,0.514-0.514,1.004-0.822,1.513c0.48-0.347,0.894-0.793,1.213-1.309c0.325-0.513,0.533-1.103,0.628-1.71
						C226.84,191.62,226.522,190.346,225.8,189.406z"/>
				</g>
			</g>
			<path style="fill:#263238;" d="M254.41,150.589c4.409-3.805,12.713-3.986,17.089,3.516c4.376,7.503,4.285,22.189,4.285,31.269
				c0,9.08,0,26.403,0,26.403s-0.279,4.051-10.687,4.051c-10.408,0-12.363-1.816-12.363-1.816v-59.071L254.41,150.589z"/>
			<path style="fill:#BA68C8;" d="M263.484,151.517c1.062,1.317,1.868,2.79,2.215,3.939c0.281,0.931,0.348,2.039-0.281,2.781
				c-0.493,0.582-1.322,0.796-2.078,0.705c-2.552-0.308-4.872-3.035-6.218-5.039c-1.154-1.718-2.687-5.092,0.53-5.637
				C259.717,147.917,261.889,149.541,263.484,151.517z"/>
			<path id="Chest_00000000206467408040694900000002645145560584151194_" style="fill:#FAFAFA;" d="M274.559,255.929
				c-0.569-4.132-3.452-4.743-2.049-14.613c0.694-4.886,3.146-17.527,3.146-17.527s-8.404-6.483-5.706-25.383l-9.043-3.638
				l-4.926-1.741l-13.173,0.497l-7.679,2.017c-2.427,2.086-6.868,5.373-10.441,10.42c-5.156,7.282-6.082,15.299-0.813,21.288
				c0.056,1.163-0.156,19.182-1.514,23.568c-0.539,1.742-1.273,4.113-0.137,6.453C227.297,265.592,257.376,274.069,274.559,255.929z
				"/>
			<g>
				<g>
					<path style="fill:#BA68C8;" d="M242.808,193.524l-7.66,1.135c-6.78,5.123-14.846,14.363-15.298,21.475
						c-0.452,7.112,3.162,11.919,3.162,11.919s0.101,14.458-1.554,22.094c-1.655,7.635-3.483,27.445-3.483,27.445
						s1.613,2.07,7.28,3.661c1.737-9.797,4.277-45.899,4.039-54.526C229.055,218.099,229.5,204.397,242.808,193.524z"/>
					<path style="opacity:0.3;" d="M242.808,193.524l-7.66,1.135c-6.78,5.123-14.846,14.363-15.298,21.475
						c-0.452,7.112,3.162,11.919,3.162,11.919s0.101,14.458-1.554,22.094c-1.655,7.635-3.483,27.445-3.483,27.445
						s1.613,2.07,7.28,3.661c1.737-9.797,4.277-45.899,4.039-54.526C229.055,218.099,229.5,204.397,242.808,193.524z"/>
					<path style="opacity:0.2;" d="M228.232,230.746c-0.559-2.29-1.174-4.566-1.797-6.837c-0.632-2.268-1.221-4.549-1.785-6.825
						c-0.268-1.138-0.531-2.29-0.646-3.421c-0.172-1.079,0.596-1.98,1.357-2.828c1.582-1.665,3.485-3.084,5.419-4.372l0.179-0.119
						l-0.039-0.214c-0.22-1.205-0.18-2.506,0.016-3.741c0.207-1.24,0.637-2.457,1.299-3.522c0.699-1.046,1.625-1.949,2.652-2.714
						c1.026-0.771,2.152-1.414,3.328-1.951c-1.22,0.434-2.388,1.022-3.474,1.743c-1.094,0.708-2.089,1.599-2.863,2.682
						c-0.744,1.108-1.235,2.358-1.501,3.659c-0.257,1.307-0.296,2.632-0.076,3.976l0.14-0.333c-1.989,1.304-3.93,2.676-5.594,4.434
						c-0.41,0.444-0.794,0.923-1.107,1.472c-0.09,0.126-0.14,0.289-0.206,0.437c-0.063,0.15-0.132,0.296-0.15,0.476
						c-0.086,0.355-0.051,0.663-0.034,0.975c0.138,1.212,0.418,2.359,0.702,3.51c0.576,2.295,1.299,4.541,1.995,6.792
						C226.751,226.272,227.502,228.505,228.232,230.746z"/>
				</g>
				<g>
					<path style="fill:#BA68C8;" d="M258.785,193.963c0,0-2.122,4.984-6.051,13.964c-3.93,8.98-6.441,16.781-6.373,25.098
						c0.068,8.318,2.786,51.326,2.786,51.326s11.925,1.797,22.727-2.551l-0.882-16.659l4.088,15.874c0,0,5.168-1.854,7.078-3.577
						c-2.813-17.32-9.117-25.539-9.431-31.933c-0.215-4.391,3.514-16.562,4.227-27.534c0.621-9.562-1.312-19.218-1.312-19.218
						L258.785,193.963z"/>
					<path style="opacity:0.3;" d="M258.785,193.963c0,0-2.122,4.984-6.051,13.964c-3.93,8.98-6.441,16.781-6.373,25.098
						c0.068,8.318,2.786,51.326,2.786,51.326s11.925,1.797,22.727-2.551l-0.882-16.659l4.088,15.874c0,0,5.168-1.854,7.078-3.577
						c-2.813-17.32-9.117-25.539-9.431-31.933c-0.215-4.391,3.514-16.562,4.227-27.534c0.621-9.562-1.312-19.218-1.312-19.218
						L258.785,193.963z"/>
					<path style="opacity:0.2;" d="M247.934,235.503c0.667-2.137,1.941-3.986,3.277-5.747c1.336-1.769,2.802-3.44,4.306-5.074
						c0.741-0.827,1.499-1.64,2.261-2.451l1.148-1.219c0.193-0.214,0.379-0.4,0.579-0.644c0.05-0.067,0.096-0.095,0.149-0.195
						c0.053-0.101,0.101-0.208,0.141-0.316c0.061-0.204,0.049-0.375,0.061-0.56c-0.144-1.295-0.674-2.284-1.163-3.317
						c-0.528-1.006-1.096-1.971-1.712-2.926l-0.056,0.553l3.408-3.445l1.695-1.735l0.42-0.438l0.21-0.219
						c0.068-0.086,0.124-0.091,0.288-0.35c0.127-0.335,0.083-0.526,0.088-0.759c-0.013-0.218-0.037-0.428-0.066-0.636
						c-0.268-1.641-0.693-3.206-1.163-4.766c-0.477-1.556-0.966-3.105-1.523-4.633c0.386,1.579,0.788,3.151,1.141,4.733
						c0.339,1.581,0.734,3.166,0.906,4.743c0.039,0.363,0.056,0.848-0.015,1.019c0.057-0.084-0.04,0.045-0.115,0.103l-0.221,0.21
						l-0.442,0.421l-1.755,1.701l-3.493,3.427l-0.249,0.244l0.193,0.309c0.579,0.928,1.128,1.894,1.622,2.87
						c0.475,0.961,0.997,2.001,1.103,2.936c-0.011,0.089,0,0.207-0.021,0.266c-0.014,0.021-0.021,0.042-0.023,0.069
						c-0.002,0.028-0.07,0.092-0.102,0.136c-0.15,0.191-0.354,0.405-0.531,0.607l-1.127,1.232c-0.753,0.825-1.504,1.653-2.237,2.498
						c-1.448,1.706-2.846,3.461-4.118,5.309c-0.637,0.923-1.211,1.892-1.725,2.889C248.564,233.349,248.142,234.405,247.934,235.503
						z"/>
				</g>
			</g>
			<g>
				<g>
					<g>
						<g id="Briefcase_1_">
							<g>
								<path style="fill:#37474F;" d="M323.351,343.394l-4.037-45.995c-0.068-0.825-0.83-1.93-1.701-2.468l-1.329-0.82
									c-0.452-0.279-0.864-0.35-1.164-0.245l-0.001-0.004l-53.495,17.495l7.878,50.293l53.469-17.482v-0.001
									C323.237,344.073,323.385,343.809,323.351,343.394z"/>
							</g>
							<path style="fill:#263238;" d="M269.503,361.649c4.495-1.338,8.979-2.708,13.449-4.122l13.392-4.295l13.343-4.445
								c4.441-1.501,8.869-3.043,13.285-4.621c-4.495,1.337-8.979,2.707-13.449,4.121l-13.392,4.296l-13.342,4.446
								C278.347,358.53,273.92,360.073,269.503,361.649z"/>
							<g>
								<path style="fill:#263238;" d="M261.741,357.247l6.71,4.142c0.871,0.538,1.522,0.304,1.454-0.521l-4.037-45.995
									c-0.068-0.825-0.83-1.93-1.701-2.468l-1.328-0.82c-0.871-0.538-1.607-0.317-1.643,0.493l-0.967,42.728
									C260.193,355.617,260.87,356.709,261.741,357.247z"/>
							</g>
							<g>
								<path style="fill:#BA68C8;" d="M284.529,353.24c-0.317-0.047-0.586-0.29-0.609-0.555l-2.119-21.867
									c-0.024-0.275,0.226-0.471,0.558-0.438c0.314,0.018,0.62,0.284,0.644,0.559l2.119,21.867
									c0.024,0.275-0.226,0.471-0.558,0.438C284.552,353.243,284.541,353.241,284.529,353.24z"/>
							</g>
							<g>
								<path style="fill:#BA68C8;" d="M308.832,345.535c-0.317-0.047-0.586-0.289-0.609-0.554l-2.118-21.867
									c-0.025-0.275,0.226-0.471,0.558-0.438c0.324,0.034,0.62,0.284,0.644,0.559l2.118,21.867
									c0.024,0.275-0.226,0.471-0.558,0.438C308.856,345.539,308.844,345.537,308.832,345.535z"/>
							</g>
							<g>
								<path style="fill:#455A64;" d="M272.327,337.263c-2.048,0.669-4.66-0.867-4.824-2.836l-1.63-19.557
									c-0.073-0.819-0.836-1.928-1.711-2.462l-1.323-0.818c-0.413-0.259-0.787-0.344-1.075-0.278l53.359-17.451l0,0.01
									c0.299-0.113,0.708-0.042,1.158,0.241l1.335,0.819c0.862,0.532,1.625,1.641,1.699,2.47l1.615,19.375
									c0.229,2.753-1.431,5.078-4.293,6.013L272.327,337.263z"/>
							</g>
							<g>
								<polygon style="fill:#BA68C8;" points="291.598,329.343 297.945,327.27 298.263,330.212 291.904,332.292 								"/>
							</g>
						</g>
						<path style="fill:#37474F;" d="M295.92,300.108c-0.99-4.119-2.424-10.68-3.721-10.977l1.063-1.599
							c0,0,1.337,0.042,2.535,3.708c0.982,3.006,2.28,8.164,2.28,8.164L295.92,300.108z"/>
					</g>
					<g>
						<path style="fill:#AF6152;" d="M282.265,298.09c-1.734-0.535-3.119-2.857-3.293-3.622c-0.174-0.766,0.461-3.325,1.228-3.983
							c0.767-0.658,4.118-3.367,5.052-2.973c0.934,0.394,1.311,5.655,0.212,7.491C284.364,296.839,282.265,298.09,282.265,298.09z"
							/>
						<path style="fill:#C8856A;" d="M294.88,292.996c0.958-2.733,1.667-5.998,1.881-7.219c0.39-2.225,0.364-4.302,0.452-6.561
							c0.212-5.421,1.497-21.487,1.051-29.935l-15.286,6.231c0,0,3.435,18.402,3.506,21.352c0.042,1.75-2.089,3.586-3.064,5.003
							c-0.942,1.369-1.487,2.855-2.051,4.399c-0.601,1.646-1.352,3.238-2.243,4.748c-0.111,0.188-0.227,0.382-0.257,0.598
							c-0.076,0.543,0.442,1.031,0.986,1.098c0.544,0.067,1.078-0.18,1.537-0.479c1.142-0.746,1.903-1.806,2.689-2.892
							c0.113-0.156,0.263-0.33,0.455-0.312c0.175,0.016,0.292,0.189,0.349,0.355c0.115,0.335,0.146,1.237,0.103,1.588
							c-0.177,1.441-0.767,2.47-1.523,3.704c-0.678,1.107-1.879,2.237-3.375,1.959c0.158,0.178,0.65,0.773,0.84,0.942
							c0.253,0.225,0.795,0.678,1.097,0.831c0.83,0.419,1.535,0.395,2.462,0.178c1.099-0.257,2.008-1.164,3.135-1.221
							c0.304-0.015,0.608,0.034,0.912,0.052c0.677,0.04,1.396-0.09,1.918-0.523c0.455-0.378,0.74-0.962,1.272-1.223
							c0.279-0.136,0.595-0.167,0.896-0.245C293.811,295.114,294.494,294.096,294.88,292.996z"/>
					</g>
					<path style="fill:#263238;" d="M281.854,290.593c-1.353,1.381-2.158,4.338-1.992,6.786c0.166,2.448,0.942,7.673,0.942,7.673
						l2.112-0.691c0,0-0.25-1.858-0.737-5.754c-0.448-3.584,0.358-5.433,0.951-6.228c0.858-1.149,1.859-1.411,1.859-1.411
						s0.459-1.781-0.293-1.948C283.849,289.03,283.207,289.213,281.854,290.593z"/>
				</g>
				<path style="fill:#BA68C8;" d="M281.012,248.786c0,0-9.788-19.936-11.779-24.313c-1.99-4.377-3.147-18.837,4.058-26.355
					c8.545,1.976,8.839,3.261,12.768,12.921c3.928,9.66,9.691,24.736,11.41,29.819c1.297,3.837,1.252,7.233,1.075,13.433
					c-0.155,5.414-0.488,9.656-0.488,9.656s-1.603,1.47-7.07,1.503c-5.049,0.03-6.546-1.874-6.546-1.874L281.012,248.786z"/>
			</g>
			<path style="fill:#263238;" d="M258.792,185.498c0-2.973,4.146-8.066,6.447-13.297c2.301-5.231,2.598-13.497-2.198-16.509
				c-0.571-8.186-17.034-12.535-27.577-6.513c-10.544,6.022-9.8,17.773-3.102,20.966
				C239.059,173.339,258.792,185.498,258.792,185.498z"/>
			<g id="Head_00000075151472134493225800000008740161708575588754_">
				<g id="Head_13_">
					<g id="Head_00000172409188001122669890000009313131428264099225_">
						<g id="XMLID_486_">
							<g id="XMLID_00000165216304063947656020000009561572835651231399_">
								<path id="XMLID_00000062896186162822377290000001541105019061424033_" style="fill:#C8856A;" d="M260.893,181.396
									c1.998,0.4,3.76-0.567,4.992-1.888c2.734-2.934,2.423-5.952,1.191-7.979c-1.012-1.666-3.546-2.755-5.345-1.659
									c-1.924,1.172-1.996,2.148-2.735,3.49c-0.758,1.378-2.575,0.264-1.888-5.159c-3.685-1.79-1.643-6.872-3.615-9.43
									c-2.513-3.26-7.297-1.697-9.9-0.511c-0.767,0.35-1.664,0.222-2.29-0.343c-1.645-1.483-4.117-1.993-6.238-0.892
									c-2.273,1.181-3.375,2.842-3.042,8.352c0.076,1.257,0.003,2.524-0.245,3.758c-0.288,1.434-0.614,3.02-0.674,3.971
									c-0.332,5.187,1.205,11.315,3.891,13.91c1.526,1.474,4.353,2.893,7.814,2.735v3.773c0,0-8.824,9.427,1.109,9.427
									c11.364,0,14.867-8.988,14.867-8.988l0.007-14.139C258.792,179.824,258.995,181.016,260.893,181.396z"/>
							</g>
						</g>
					</g>
					<g id="XMLID_00000127722941423492003980000003265564273784881046_">
						<path id="XMLID_4531_" style="fill:#263238;" d="M247.118,164.303l3.559,1.594c0.417-1.023-0.042-2.209-1.025-2.649
							C248.669,162.808,247.535,163.281,247.118,164.303z"/>
						<path id="XMLID_4522_" style="fill:#263238;" d="M233.682,165.642l3.668-1.402c-0.35-1.04-1.455-1.569-2.467-1.182
							C233.87,163.445,233.332,164.602,233.682,165.642z"/>
						<path id="XMLID_4520_" style="fill:#AF6152;" d="M246.781,178.478l-5.453,1.196c0.275,1.537,1.719,2.515,3.224,2.185
							C246.058,181.529,247.056,180.015,246.781,178.478z"/>
						<path style="fill:#F28F8F;" d="M243.491,181.877c0.256-1.286,1.359-2.276,2.72-2.32c0.188-0.006,0.372,0.009,0.551,0.038
							c-0.231,1.096-1.075,2.016-2.21,2.265C244.189,181.938,243.831,181.938,243.491,181.877z"/>
						<path style="fill:#263238;" d="M234.784,168.347c-0.359,0.804-0.001,1.745,0.8,2.102c0.801,0.357,1.74-0.005,2.099-0.809
							c0.359-0.804,0.001-1.745-0.8-2.102C236.083,167.181,235.143,167.543,234.784,168.347z"/>
						<path style="fill:#263238;" d="M246.552,168.347c-0.359,0.804-0.001,1.745,0.8,2.102c0.801,0.357,1.74-0.005,2.099-0.809
							c0.359-0.804,0.001-1.745-0.8-2.102C247.85,167.181,246.911,167.543,246.552,168.347z"/>
						<path id="XMLID_4515_" style="fill:#AF6152;" d="M243.369,167.033l-1.283,10.336l-5.603-1.922
							C238.07,171.453,240.632,167.509,243.369,167.033z"/>
					</g>
				</g>
				<path style="fill:#AF6152;" d="M242.808,189.751c5.989-0.132,11.431-2.911,13.367-6.041c-0.721,4.164-5.5,6.242-8.333,6.901
					c-3.445,0.801-5.034,0.757-5.034,0.757V189.751z"/>
			</g>
		</g>
	</g>
</g>
<g id="Character_1_00000036937419422740059400000000554968855230491808_">
	<g id="Character_7_">
		<g id="Arm_00000095335758267358307880000012583074182808224930_">
			<g id="Arm_00000167371977288357940070000001785267844276497819_">
				<path style="fill:#F0F0F0;" d="M72.115,237.453c-0.508,0.998,1.502,2.788,1.283,3.887c-0.309,1.551-1.494,5.656-4.856,4.728
					c-0.125-0.035-0.258-0.082-0.381-0.039c-0.13,0.045-0.206,0.177-0.282,0.292c-0.397,0.604-1.118,0.98-1.84,0.96
					c-3.964-0.107-0.289-7.557,0.881-9.118c0.576-0.769,1.271-1.496,2.169-1.837c0.837-0.318,1.808-0.26,2.601,0.156
					C72.203,236.748,72.377,236.938,72.115,237.453z"/>
				<path style="opacity:0.1;" d="M72.115,237.453c-0.508,0.998,1.502,2.788,1.283,3.887c-0.309,1.551-1.494,5.656-4.856,4.728
					c-0.125-0.035-0.258-0.082-0.381-0.039c-0.13,0.045-0.206,0.177-0.282,0.292c-0.397,0.604-1.118,0.98-1.84,0.96
					c-3.964-0.107-0.289-7.557,0.881-9.118c0.576-0.769,1.271-1.496,2.169-1.837c0.837-0.318,1.808-0.26,2.601,0.156
					C72.203,236.748,72.377,236.938,72.115,237.453z"/>
				<path style="fill:#F0F0F0;" d="M62.898,242.124c0.32-3.593,0.464-7.363,1.18-10.764c0.716-3.4,2.263-16.487,2.947-20.124
					c0.899-4.78,2.113-7.789,2.859-10.749c0.835-3.312,1.539-7.844,3.029-15.087c1.475-7.172,4.15-11.248,7.902-13.567
					c3.441-2.126,6.205-2.15,8.508-2.626c0.84,2.223,0.031,9.932,0.031,9.932s-3.691,16.551-4.051,18.579
					c-0.359,2.028-4.287,13.09-6.888,20.656c-1.493,4.343-3.093,8.696-3.093,8.696c-0.682,2.704-0.882,3.724-0.32,5.872
					c0.87,3.325,1.718,5.738,1.887,7.679c0.168,1.941,0.498,3.639,0.825,4.771c0.327,1.132-1.451,1.461-2.749,0.495
					c-1.298-0.966-1.119-2.423-1.822-3.796c-0.703-1.373-1.764-4.12-2.571-3.47c-0.807,0.65-1.672,2.867-2.736,4.371
					c-0.765,1.081-1.207,2.038-1.444,3.336c-0.193,1.057-0.757,2.157-2.112,1.833C62.1,247.639,62.76,243.676,62.898,242.124z"/>
			</g>
			<path style="fill:#E0E0E0;" d="M86.432,169.206c-5.455,0.974-9.212,4.451-11.274,7.944c-2.062,3.494-3.606,11.631-4.752,17.566
				c-1.146,5.935-3.353,11.551-4.254,17.61c-0.901,6.06-1.229,10.975-1.229,10.975s1.728,1.262,5.512,2.033
				c3.783,0.771,5.912,0.455,5.912,0.455s5.849-16.46,7.386-20.968c1.537-4.508,2.408-8.828,4.465-16.836
				c2.057-8.008,3.168-17.141,2.574-19.652L86.432,169.206z"/>
			<path style="opacity:0.1;" d="M86.432,169.206c-5.455,0.974-9.212,4.451-11.274,7.944c-2.062,3.494-3.606,11.631-4.752,17.566
				c-1.146,5.935-3.353,11.551-4.254,17.61c-0.901,6.06-1.229,10.975-1.229,10.975s1.728,1.262,5.512,2.033
				c3.783,0.771,5.912,0.455,5.912,0.455s5.849-16.46,7.386-20.968c1.537-4.508,2.408-8.828,4.465-16.836
				c2.057-8.008,3.168-17.141,2.574-19.652L86.432,169.206z"/>
			<g>
				<g id="Briefcase_00000082350974263968230100000004944684078363035803_">
					<g>
						<path style="fill:#E0E0E0;" d="M95.669,292.366l0.855-41.241c0.019-0.74-0.55-1.794-1.272-2.356l-1.101-0.857
							c-0.374-0.291-0.734-0.394-1.01-0.33l0-0.004l-49.2,10.374l2.142,45.428l49.177-10.365l0,0
							C95.503,292.958,95.659,292.737,95.669,292.366z"/>
					</g>
					<g style="opacity:0.1;">
						<path d="M95.669,292.366l0.855-41.241c0.019-0.74-0.55-1.794-1.272-2.356l-1.101-0.857c-0.374-0.291-0.734-0.394-1.01-0.33
							l0-0.004l-49.2,10.374l2.142,45.428l49.177-10.365l0,0C95.503,292.958,95.659,292.737,95.669,292.366z"/>
					</g>
					<g>
						<path style="fill:#EBEBEB;" d="M39.613,298.722l5.56,4.327c0.722,0.562,1.322,0.417,1.342-0.322l0.854-41.24
							c0.019-0.74-0.55-1.795-1.272-2.356l-1.101-0.857c-0.722-0.562-1.396-0.437-1.507,0.28l-4.984,37.856
							C38.395,297.125,38.891,298.16,39.613,298.722z"/>
					</g>
					<g>
						<path style="fill:#F0F0F0;" d="M60.239,297.363c-0.277-0.073-0.492-0.314-0.487-0.551l0.229-19.626
							c0.005-0.247,0.246-0.396,0.538-0.335c0.277,0.046,0.523,0.312,0.518,0.558l-0.229,19.626
							c-0.005,0.247-0.246,0.396-0.538,0.335C60.259,297.368,60.249,297.365,60.239,297.363z"/>
					</g>
					<g>
						<path style="fill:#F0F0F0;" d="M82.568,292.866c-0.277-0.072-0.492-0.313-0.487-0.551l0.23-19.626
							c0.005-0.246,0.246-0.396,0.537-0.335c0.285,0.061,0.523,0.312,0.518,0.558l-0.23,19.626
							c-0.005,0.247-0.246,0.396-0.538,0.335C82.588,292.872,82.578,292.869,82.568,292.866z"/>
					</g>
					<g>
						<path style="fill:#E0E0E0;" d="M50.944,281.995c-1.884,0.396-4.055-1.22-4.011-2.985l0.44-17.527
							c0.014-0.734-0.557-1.793-1.282-2.352l-1.097-0.854c-0.342-0.27-0.666-0.381-0.928-0.351l49.076-10.348l-0.001,0.009
							c0.276-0.072,0.633,0.031,1.005,0.326l1.107,0.857c0.714,0.556,1.285,1.615,1.27,2.358l-0.436,17.364
							c-0.062,2.467-1.761,4.372-4.393,4.926L50.944,281.995z"/>
					</g>
					<g>
						<polygon style="fill:#F0F0F0;" points="68.824,276.822 74.661,275.593 74.659,278.237 68.811,279.47 						"/>
					</g>
				</g>
			</g>
			<path style="fill:#E0E0E0;" d="M64.834,243.454c-0.684,0.43-1.32,0.946-1.806,1.59c-1.114,1.476-1.513,3.698-1.351,5.507
				c0.029,0.322,0.18,3.624,0.023,3.658c0,0,2.049-0.433,2.049-0.433c-0.044-1.752-0.489-3.589,0.138-5.28
				c0.567-1.53,1.776-2.813,3.237-3.526c2.753-1.343,7.153-1.174,8.684,1.891c0.614,1.229,0.388,2.906,0.561,4.255l2.093-0.441
				c0.038-0.008-0.416-2.807-0.443-2.979c-0.236-1.514-0.246-3.153-1.431-4.275c-2.856-2.704-8.453-1.939-11.541-0.098
				C64.976,243.366,64.905,243.41,64.834,243.454z"/>
			<path style="opacity:0.1;" d="M64.834,243.454c-0.684,0.43-1.32,0.946-1.806,1.59c-1.114,1.476-1.513,3.698-1.351,5.507
				c0.029,0.322,0.18,3.624,0.023,3.658c0,0,2.049-0.433,2.049-0.433c-0.044-1.752-0.489-3.589,0.138-5.28
				c0.567-1.53,1.776-2.813,3.237-3.526c2.753-1.343,7.153-1.174,8.684,1.891c0.614,1.229,0.388,2.906,0.561,4.255l2.093-0.441
				c0.038-0.008-0.416-2.807-0.443-2.979c-0.236-1.514-0.246-3.153-1.431-4.275c-2.856-2.704-8.453-1.939-11.541-0.098
				C64.976,243.366,64.905,243.41,64.834,243.454z"/>
			<path style="fill:#EBEBEB;" d="M67.952,249.016c1.351-0.012,2.675-0.375,3.953-0.814c1.051-0.361,2.142-0.821,2.784-1.728
				c0.846-1.197,0.585-3.037-0.562-3.95c-0.54-0.43-1.34-0.646-1.918-0.268c-0.123,0.08-0.245,0.189-0.391,0.181
				c-0.119-0.006-0.218-0.089-0.318-0.154c-0.435-0.282-1.012-0.261-1.495-0.073c-0.483,0.189-0.892,0.523-1.292,0.852
				c-0.055-0.328-0.531-0.325-0.843-0.208c-1.61,0.607-2.891,1.996-3.415,3.628c-0.282,0.878-0.338,1.371,0.508,1.837
				C65.868,248.82,66.923,249.025,67.952,249.016z"/>
		</g>
		<g id="Bottom_00000118372097195696232800000016065906636923793806_">
			<g>
				<path style="fill:#E0E0E0;" d="M121.537,400.101c0.061,3.753,0.486,6.36,1.766,8.616c1.28,2.256,3.848,3.06,6.507,2.533
					c2.659-0.527,5.578-2.294,7.001-5.292c1.205-2.538,1.433-5.389,0.989-8.886L121.537,400.101z"/>
				<path style="opacity:0.2;" d="M121.537,400.101c0.061,3.753,0.486,6.36,1.766,8.616c1.28,2.256,3.848,3.06,6.507,2.533
					c2.659-0.527,5.578-2.294,7.001-5.292c1.205-2.538,1.433-5.389,0.989-8.886L121.537,400.101z"/>
				<path id="XMLID_376_" style="fill:#E0E0E0;" d="M134.303,376.237c0.393,2.528,0.546,4.249,1.081,7.718
					c0.829,5.377,2.004,7.728,2.407,12.176c0.461,5.083-0.261,7.471-2.476,10.275c-2.211,2.8-8.601,5.684-11.61,1.168
					c-2.453-3.682-2.387-7.642-1.927-12.677c0.476-5.205,0.261-8.832,0.215-12.8c0-0.026-0.001-0.052-0.001-0.078
					c-0.019-1.357-0.01-4.032-0.094-5.386c-0.184-2.982,1.859-3.139,2.675-3.497c1.144-0.503,2.36-0.858,3.607-0.971
					c1.266-0.114,2.53,0.148,3.758,0.49C133.324,373.043,133.927,373.816,134.303,376.237z"/>
				<path id="XMLID_00000139255765529600347570000000529514269986985649_" style="opacity:0.1;" d="M134.303,376.237
					c0.393,2.528,0.546,4.249,1.081,7.718c0.829,5.377,2.004,7.728,2.407,12.176c0.461,5.083-0.261,7.471-2.476,10.275
					c-2.211,2.8-8.601,5.684-11.61,1.168c-2.453-3.682-2.387-7.642-1.927-12.677c0.476-5.205,0.261-8.832,0.215-12.8
					c0-0.026-0.001-0.052-0.001-0.078c-0.019-1.357-0.01-4.032-0.094-5.386c-0.184-2.982,1.859-3.139,2.675-3.497
					c1.144-0.503,2.36-0.858,3.607-0.971c1.266-0.114,2.53,0.148,3.758,0.49C133.324,373.043,133.927,373.816,134.303,376.237z"/>
			</g>
			<g>
				<path style="fill:#E0E0E0;" d="M59.224,387.344c-0.234,0.019-0.391,2.539,0.966,3.496c1.566,1.105,6.039,2.768,11.682,1.601
					c5.644-1.166,8.595-3.114,10.73-5.137s5.126-4.875,7.661-5.63c2.355-0.701,5.416-2.163,6.126-2.938
					c0.71-0.775,0.352-3.941,0.352-3.941L59.224,387.344z"/>
				<path style="opacity:0.2;" d="M59.224,387.344c-0.234,0.019-0.391,2.539,0.966,3.496c1.566,1.105,6.039,2.768,11.682,1.601
					c5.644-1.166,8.595-3.114,10.73-5.137s5.126-4.875,7.661-5.63c2.355-0.701,5.416-2.163,6.126-2.938
					c0.71-0.775,0.352-3.941,0.352-3.941L59.224,387.344z"/>
				<path id="XMLID_377_" style="fill:#E0E0E0;" d="M93.534,364.691c0.268-0.01,0.531,0.018,0.769,0.137
					c0.647,0.322,0.832,1.142,0.942,1.856c0.095,0.616,0.12,1.284,0.372,1.858c0.834,1.897,1.504,5.29,1.104,7.355
					c-0.316,1.633-4.543,3.301-6.965,4.417c-2.474,1.14-5.269,3.305-7.694,5.569c-2.51,2.344-7.975,4.931-11.686,5.281
					c-5.665,0.533-9.455-0.657-10.744-2.532c-1.596-2.32-0.607-3.817,5.679-7.25c1.19-0.65,5.328-3.47,6.734-4.484
					c1.486-1.072,2.898-2.245,4.183-3.538c0.65-0.654,1.267-1.339,1.839-2.058c0.864-1.086,1.977-1.97,2.999-2.91
					c0.743-0.683,1.491-1.37,2.342-1.912c1.374-0.875,2.968-1.331,4.577-1.521c1.643-0.193,3.223,0.06,4.863-0.187
					C93.073,364.737,93.305,364.7,93.534,364.691z"/>
				<path id="XMLID_00000032632485653493030150000001837255555788465030_" style="opacity:0.1;" d="M93.534,364.691
					c0.268-0.01,0.531,0.018,0.769,0.137c0.647,0.322,0.832,1.142,0.942,1.856c0.095,0.616,0.12,1.284,0.372,1.858
					c0.834,1.897,1.504,5.29,1.104,7.355c-0.316,1.633-4.543,3.301-6.965,4.417c-2.474,1.14-5.269,3.305-7.694,5.569
					c-2.51,2.344-7.975,4.931-11.686,5.281c-5.665,0.533-9.455-0.657-10.744-2.532c-1.596-2.32-0.607-3.817,5.679-7.25
					c1.19-0.65,5.328-3.47,6.734-4.484c1.486-1.072,2.898-2.245,4.183-3.538c0.65-0.654,1.267-1.339,1.839-2.058
					c0.864-1.086,1.977-1.97,2.999-2.91c0.743-0.683,1.491-1.37,2.342-1.912c1.374-0.875,2.968-1.331,4.577-1.521
					c1.643-0.193,3.223,0.06,4.863-0.187C93.073,364.737,93.305,364.7,93.534,364.691z"/>
			</g>
			<path style="fill:#F0F0F0;" d="M80.164,361.973c0.273,4.728-0.597,6.481-2.188,8.455c-3.331,4.135-7.727,7.182-11.892,10.491
				c-1.062,2.649,5.045,3.85,9.944,0.842c4.144-2.544,8.898-5.641,10.296-6.843c3.54-3.043,7.411-5.173,7.953-9.266
				c0.124-0.94,2.05-13.543,3.655-25.824l-19.615,0.97C79.147,348.905,79.85,356.538,80.164,361.973z"/>
			<path style="fill:#F0F0F0;" d="M133.749,374.878c-0.308-9.878,1.193-20.574,1.355-35.103l-18.725-1.59
				c0.133,0.78,0.264,1.577,0.399,2.339c1.984,14.091,5.116,27.842,5.468,34.868c0.126,1.679,1.364,18.161,2.009,21.952
				c0.644,3.791,9.127,4.264,9.956-2.171C134.762,390.89,133.813,376.942,133.749,374.878z"/>
			<g>
				<g>
					<path style="fill:#E0E0E0;" d="M120.98,215.332c5.223,8.375,9.125,15.235,10.656,40.707
						c1.531,25.472,1.385,40.955,1.614,44.024c0.228,3.07,2.507,6.85,3.092,22.081c0.602,15.675-0.955,35.289-0.955,35.289
						s-1.442,2.811-7.425,3.574c-5.519,0.704-8.344-1.189-8.344-1.189s-6.708-31.629-9.18-42.004
						c-2.171-9.112-7.64-44.259-7.64-44.259l-2.632,24.469c0,0,2.949,9.309,1.159,22.682c-1.778,13.284-3.878,25.537-3.878,25.537
						s-4.333,1.498-10.181,1.667c-4.741,0.137-8.951-1.493-8.951-1.493s-3.879-38.867-4.492-53.918s-1.81-56.865,2.945-75.08
						L120.98,215.332z"/>
				</g>
				<path style="opacity:0.1;" d="M132.371,307.767c-0.232-0.865-0.452-1.687-0.657-2.472c-1.814-6.979-1.842-20.409-2.292-32.071
					c-0.136-3.524-0.277-7.168-0.47-11.037c-0.755-15.179-2.661-32.131-11.07-42.771l-0.624,0.46
					c5.653,7.153,8.321,17.261,9.685,27.748c-7.944-0.689-9.981-8.148-12.759-18.417c-0.38-1.403-0.773-2.856-1.195-4.345
					l-0.757,0.202c0.422,1.487,0.814,2.936,1.193,4.336c2.772,10.249,4.973,18.366,13.614,19.006
					c0.572,4.619,0.904,9.298,1.129,13.82c0.192,3.866,0.333,7.508,0.469,11.03c0.452,11.706,0.48,25.171,2.316,32.227
					c0.204,0.787,0.425,1.611,0.658,2.477c2.416,9.02,2.124,27.61,1.568,51.445c0.301-0.173,0.569-0.346,0.798-0.515
					C134.471,335.275,134.779,316.761,132.371,307.767z M80.173,238.906c1.306,4.964,9.766,8.844,13.565,9.562l1.16,5.058
					c-0.075,2.718-0.16,5.57-0.249,8.516c-0.488,16.237-0.836,32.991,0.02,36.77c1.661,7.327,1.217,14.372,0.266,23.952
					c-0.859,8.643-2.344,19.356-3.272,24.835c0.275-0.033,0.538-0.066,0.786-0.101c0.936-5.429,2.161-14.978,3.372-24.694
					c1.221-9.799,1.537-16.497-0.393-24.186c-0.916-3.653-0.458-21.126,0.005-36.557c0.056-1.872,0.111-3.704,0.163-5.491
					l4.086,17.809l0.482,23.645l2.632-24.469l-6.122-28.74C96.676,244.815,86.211,244.52,80.173,238.906z"/>
			</g>
		</g>
		<g id="Top_00000072261009290880859300000006454411969065808777_">
			<g>
				<path style="fill:#FAFAFA;" d="M107.344,165.154l13.027,4.05c2.237,0.768,10.687,5.923,7.734,18.645
					c-0.977,4.207-2.307,10.115-3.509,16.013c-0.919,4.51,2.454,13.19,5.18,27.014c0,0-11.174,8.884-33.376,6.377
					c-16.939-1.913-18.775-8.254-18.775-8.254c0.472-15.769,1.865-21.86,1.836-27.853c0,0-2.475-3.02-2.58-8.38
					c-0.11-5.62,1.367-8.643,6.407-15.018c4.796-6.067,7.745-9.232,7.745-9.232L107.344,165.154z"/>
				<g>
					<path style="fill:#EBEBEB;" d="M96.662,166.733c-0.606,0.223-5.894,1.6-5.894,1.6c-6.837,5.782-11.265,12.542-12.932,16.381
						c-2,4.607-2.264,9.684-2.385,16.923c-0.105,6.298-1.795,24.712-1.795,33.879c0.681,2.435,3.545,3.926,3.545,3.926
						c1.511-20.026,2.171-27.143,3.883-43.897c2.199-14.753,13.969-25.869,16.435-27.56L96.662,166.733z"/>
				</g>
				<g>
					<path style="fill:#EBEBEB;" d="M113.503,165.892l0.078,1.269c-3.255,10.717-3.273,24.844-3.347,34.876
						c-0.156,21.057,2.907,43.415,2.907,43.415s13.214,2.349,19.169-5.696c0,0-3.484-12.849-5.479-25.059
						c-1.183-7.236,3.632-24.933,2.385-35.409c-0.521-4.377-0.821-7.566-4.191-8.745
						C122.342,169.604,113.503,165.892,113.503,165.892z"/>
					<path style="fill:#E0E0E0;" d="M87.368,172.842l-0.118,0.095l0.04,0.162l0.413,1.678c-1.841,1.541-3.669,3.097-5.476,4.679
						l-0.102,0.09l-0.019,0.131c-0.304,2.147-0.592,4.295-0.805,6.454c-0.109,1.079-0.225,2.157-0.309,3.239
						c-0.073,1.083-0.161,2.165-0.176,3.251l1.015-6.42c0.348-2.092,0.657-4.191,0.974-6.286c1.832-1.578,3.644-3.178,5.44-4.797
						l0.149-0.134l-0.055-0.178l-0.521-1.696c0.692-0.637,1.394-1.261,2.073-1.913c0.721-0.688,1.451-1.365,2.158-2.068
						c-0.798,0.598-1.574,1.222-2.359,1.835C88.903,171.575,88.143,172.217,87.368,172.842z M117.561,173.998l-0.052-0.146
						c-0.375-1.048-0.743-2.097-1.139-3.137c-0.391-1.042-0.774-2.087-1.183-3.123c0.292,1.075,0.609,2.142,0.919,3.211
						c0.289,1.018,0.604,2.027,0.914,3.038l-2.694,2.111l-0.175,0.137l0.081,0.217l2.198,5.831c-0.665,1.39-1.259,2.806-1.864,4.219
						c-0.615,1.464-1.222,2.933-1.773,4.424c-0.55,1.491-1.065,2.996-1.53,4.517c-0.435,1.528-0.864,3.07-1.035,4.652
						c0.342-1.55,0.845-3.051,1.392-4.534c0.529-1.489,1.109-2.961,1.723-4.419c0.608-1.46,1.207-2.924,1.85-4.369
						c0.63-1.451,1.306-2.884,1.952-4.323l0.065-0.144l-0.055-0.139l-2.26-5.734l2.541-2.18L117.561,173.998z"/>
				</g>
			</g>
			<g id="Head_00000106866678638241098920000015996962722962898346_">
				<g id="Hair_00000101814478501068989290000007702282537956388259_">
					<path style="fill:#E0E0E0;" d="M97.584,152.578c-0.699-1.441-1.3-3.07-2.433-4.245c-1.113-1.155-2.633-1.796-3.942-2.684
						c-1.405-0.953-2.811-1.907-4.216-2.86c-5.099-3.047-6.819-10.275-5.093-13.635c3.989-7.764,13.912-10.094,19.231-10.14
						c10.086-0.088,14.88,2.736,15.68,7.995c3.096,0.149,4.818,1.679,6.354,3.935c1.259,1.849,1.59,3.346,1.499,8.96
						c-0.019,1.186,0.204,2.885,0.632,3.982c0.69,1.768,2.2,3.571,2.779,5.378c0.639,1.995,0.937,3.771,0.252,5.751
						c-0.685,1.979-2.167,3.707-4.097,4.52c0.602-1.462,0.524-3.189-0.208-4.59c-0.284,2.027-0.783,4.366-2.619,5.272
						c-1.883,0.929-4.173-0.175-6.224,0.273c-1.34,0.292-2.469,1.225-3.805,1.534c-0.631,0.146-2.318,0.305-2.732-0.372
						c-0.4-0.654,0.306-1.809-0.098-2.621c-0.519-1.046-2.988-1.545-4.078-2.033C102.395,156.071,98.659,154.795,97.584,152.578z"/>
					<path style="opacity:0.1;" d="M97.584,152.578c-0.699-1.441-1.3-3.07-2.433-4.245c-1.113-1.155-2.633-1.796-3.942-2.684
						c-1.405-0.953-2.811-1.907-4.216-2.86c-5.099-3.047-6.819-10.275-5.093-13.635c3.989-7.764,13.912-10.094,19.231-10.14
						c10.086-0.088,14.88,2.736,15.68,7.995c3.096,0.149,4.818,1.679,6.354,3.935c1.259,1.849,1.59,3.346,1.499,8.96
						c-0.019,1.186,0.204,2.885,0.632,3.982c0.69,1.768,2.2,3.571,2.779,5.378c0.639,1.995,0.937,3.771,0.252,5.751
						c-0.685,1.979-2.167,3.707-4.097,4.52c0.602-1.462,0.524-3.189-0.208-4.59c-0.284,2.027-0.783,4.366-2.619,5.272
						c-1.883,0.929-4.173-0.175-6.224,0.273c-1.34,0.292-2.469,1.225-3.805,1.534c-0.631,0.146-2.318,0.305-2.732-0.372
						c-0.4-0.654,0.306-1.809-0.098-2.621c-0.519-1.046-2.988-1.545-4.078-2.033C102.395,156.071,98.659,154.795,97.584,152.578z"/>
					<path style="fill:#E0E0E0;" d="M98.251,131.602c-0.576-4.837-6.148-9.567-12.352-6.319c-3.077,1.611-4.939,4.617-5.188,8.058
						c-0.109,1.5,0.067,3.03,0.505,4.469c0.537,1.765,1.82,2.885,0.712,4.812c-0.604,1.052-1.556,1.862-2.228,2.872
						c-1.862,2.799-1.001,7.042,1.804,8.896c-0.772-1.962-0.035-4.408,1.692-5.617c-1.039,1.965-0.45,4.727-0.2,6.24
						c0.921,5.573,5.198,8.538,9.698,9.515c3.782,0.821,11.01-0.551,11.531-3.701c0.236-1.428-2.406-4.145-2.573-5.584
						c-0.2-1.72-0.416-3.438-0.642-5.155c-0.739-5.611-1.578-11.21-2.482-16.797C98.437,132.728,98.345,132.165,98.251,131.602z"/>
					<path style="opacity:0.2;" d="M98.251,131.602c-0.576-4.837-6.148-9.567-12.352-6.319c-3.077,1.611-4.939,4.617-5.188,8.058
						c-0.109,1.5,0.067,3.03,0.505,4.469c0.537,1.765,1.82,2.885,0.712,4.812c-0.604,1.052-1.556,1.862-2.228,2.872
						c-1.862,2.799-1.001,7.042,1.804,8.896c-0.772-1.962-0.035-4.408,1.692-5.617c-1.039,1.965-0.45,4.727-0.2,6.24
						c0.921,5.573,5.198,8.538,9.698,9.515c3.782,0.821,11.01-0.551,11.531-3.701c0.236-1.428-2.406-4.145-2.573-5.584
						c-0.2-1.72-0.416-3.438-0.642-5.155c-0.739-5.611-1.578-11.21-2.482-16.797C98.437,132.728,98.345,132.165,98.251,131.602z"/>
				</g>
				<path style="fill:#F0F0F0;" d="M112.548,164.69c-0.007-1.658,0.276-9.973,0.276-9.973c0.066,0.619,3.077,2.326,5.788-0.862
					c2.783-3.273,2.348-7.836,0.347-9.659c-3.092-2.817-7.465-0.256-7.935,3.795c-2.316,1.279-3.172-1.6-1.688-4.921
					c-0.228-2.674-3.005-2.996-2.889-8.83c-0.349-2.898-4.794-4.85-8.195-2.638c-2.289-2.676-7.868-2.862-10.197,1.72
					c-1.485,3.399-1.974,3.504-1.513,7.722c0.163,1.492-1.025,3.339-1.117,5.326c-0.409,8.823,1.801,13.823,4.619,15.32
					c1.889,1.004,5.037,1.215,6.895,0.992l0.023,2.28l0,0c-0.068,1.387,0.078,2.64-1.273,3.085c-0.57,0.906-2.86,8.847-2.174,19.739
					c8.453-9.244,18.868-19.405,19.47-20.767C112.643,166.483,112.555,166.348,112.548,164.69z"/>
				<path style="opacity:0.2;" d="M96.065,153.304c-0.019-0.048,0.016-0.104,0.062-0.127c0.046-0.024,0.1-0.023,0.152-0.023
					c1.179,0.001,2.365-0.268,3.419-0.799c0.091-0.046,0.187-0.095,0.289-0.087c0.478,0.036-0.286,0.548-0.384,0.61
					c-1.014,0.657-2.271,0.897-3.431,0.503C96.137,153.369,96.1,153.354,96.065,153.304z"/>
				<g>
					<g>
						<path id="XMLID_00000148626417359884504510000011802323854671353241_" style="fill:#E0E0E0;" d="M88.313,138.796l3.558-1.154
							c-0.284-1.002-1.311-1.556-2.294-1.238C88.595,136.723,88.029,137.794,88.313,138.796z"/>
						<path id="XMLID_00000000941255642628277000000013663279898101182104_" style="fill:#E0E0E0;" d="M103.979,139.498
							l-3.512-1.421c0.359-0.992,1.436-1.479,2.406-1.086C103.842,137.384,104.338,138.506,103.979,139.498z"/>
						<path id="XMLID_00000054245997195573548570000015956036026316047492_" style="fill:#E0E0E0;" d="M91.788,142.476
							c0.108,0.846-0.497,1.637-1.35,1.769c-0.853,0.132-1.631-0.447-1.738-1.293c-0.108-0.846,0.497-1.637,1.349-1.769
							C90.902,141.052,91.681,141.63,91.788,142.476z"/>
						<path id="XMLID_00000138554972863277632540000015731455062766424496_" style="fill:#E0E0E0;" d="M102.73,142.725
							c0.107,0.845-0.497,1.637-1.35,1.769c-0.853,0.132-1.631-0.448-1.738-1.293c-0.108-0.846,0.497-1.638,1.35-1.769
							C101.843,141.301,102.622,141.879,102.73,142.725z"/>
					</g>
					<g style="opacity:0.2;">
						<path id="XMLID_00000113345315633074683730000003103605605567898043_" d="M88.313,138.796l3.558-1.154
							c-0.284-1.002-1.311-1.556-2.294-1.238C88.595,136.723,88.029,137.794,88.313,138.796z"/>
						<path id="XMLID_00000057848854992360297380000012515256915147466368_" d="M103.979,139.498l-3.512-1.421
							c0.359-0.992,1.436-1.479,2.406-1.086C103.842,137.384,104.338,138.506,103.979,139.498z"/>
						<path id="XMLID_00000074442868705543097680000003186998979490454436_" d="M91.788,142.476c0.108,0.846-0.497,1.637-1.35,1.769
							c-0.853,0.132-1.631-0.447-1.738-1.293c-0.108-0.846,0.497-1.637,1.349-1.769C90.902,141.052,91.681,141.63,91.788,142.476z"
							/>
						<path id="XMLID_00000002344873035908565790000001233852812040138687_" d="M102.73,142.725c0.107,0.845-0.497,1.637-1.35,1.769
							c-0.853,0.132-1.631-0.448-1.738-1.293c-0.108-0.846,0.497-1.638,1.35-1.769C101.843,141.301,102.622,141.879,102.73,142.725z
							"/>
					</g>
				</g>
				<path style="fill:#E0E0E0;" d="M91.46,148.391l4.87,1.375l0.621-8.868C94.994,141.06,93.211,144.431,91.46,148.391z"/>
				<g id="XMLID_00000165195460191427042030000015607208432057980596_">
					<path id="XMLID_00000083086711166777241920000002685705033390613165_" style="fill:#E0E0E0;" d="M96.939,162.682
						c4.408-0.161,7.673-1.515,9.614-2.854c1.661-1.146,2.869-2.608,3.489-3.852c0,0-0.817,3.272-2.968,5.049
						c-3.977,3.286-10.118,3.293-10.118,3.293L96.939,162.682z"/>
				</g>
			</g>
			<g>
				<path style="fill:#F5F5F5;" d="M93.514,187.786c-2.108-4.75-2.313-6.695-1.762-9.13c0.551-2.434,2.407-10.347,5.191-13.362
					l-0.133,3.79C96.81,169.084,93.717,178.404,93.514,187.786z"/>
				<path style="fill:#F5F5F5;" d="M93.514,187.786c0,0,1.556-2.74,2.122-5.072c0.567-2.332,1.291-3.624,5.518-6.828
					c4.227-3.204,10.51-10.413,11.404-12.114l0.025-1.158c0,0,0.757,0.113,0.862,2.205c0.072,1.433,0.135,2.341,0.135,2.341
					C110.844,172.144,101.923,180.064,93.514,187.786z"/>
			</g>
			<g id="Arm_00000089573267005979984550000000637826169678482828_">
				<g id="Arm_00000054238031015254703350000012354031962972284809_">
					<g>
						<g>
							<path style="fill:#F0F0F0;" d="M121.668,256.887c-0.24,0.251-0.503,0.493-0.651,0.808c-0.148,0.314-0.149,0.731,0.103,0.97
								c0.119,0.113,0.277,0.173,0.435,0.217c1.03,0.289,2.159-0.014,3.053-0.602c0.894-0.587,1.586-1.433,2.207-2.304
								c0.211-0.296,0.43-0.61,0.757-0.768c1.439-0.695,0.74,1.715,0.629,2.282c-0.586,3.002-1.002,3.49-1.363,4.67
								c-0.361,1.18-3.286,3.891-3.963,4.981c-0.676,1.089-0.643,2.363-0.104,2.86c0.539,0.497,1.678-0.25,3.083-1.638
								c0.957-0.946,2.403-2.116,2.933-2.912c0.53-0.796,1.088-1.591,1.088-1.591s-0.628,2.056-1.134,2.853
								c-0.507,0.797-2.454,2.805-3.061,3.802c-0.607,0.997-0.117,2.115,0.236,2.495c0.353,0.38,0.536,0.957,2.398-0.932
								c1.862-1.889,2.591-2.881,2.591-2.881s1.451,0.46,2.722-0.879c1.271-1.34,2.884-4.216,2.884-4.216s1.563-0.392,2.313-1.954
								c0.749-1.563,1.737-4.054,2.462-6.065c0.725-2.012,0.299-7.122,0.672-10.654c0.115-1.086,1.158-13.325,1.655-20.948
								c0.371-5.693,0.062-12.193-0.62-15.136c-1.608-6.942-1.498-6.073-4.043-15.664c-1.644-6.197-2.975-10.634-4.068-13.607
								c-1.682-4.577-2.749-6.619-9.329-9.007c-3.613,2.899-4.949,10.05-2.631,23.645c2.423,9.514,6.651,18.909,6.651,18.909
								s0.978,29.587,0.958,30.112c-0.042,1.155-0.28,1.68-1.153,2.449c-0.769,0.677-1.653,1.214-2.393,1.927
								c-2.417,2.329-2.916,6.1-5.144,8.593C121.784,256.764,121.726,256.826,121.668,256.887z"/>
							<path style="opacity:0.1;" d="M130.904,269.197c1.1-1.228,1.928-2.675,2.655-4.149c0.689-1.495,1.278-3.043,1.614-4.655
								c-0.596,1.531-1.192,3.049-1.909,4.515C132.577,266.388,131.785,267.811,130.904,269.197z"/>
							<path style="opacity:0.1;" d="M136.51,264.102c0.546-0.628,0.911-1.378,1.253-2.123c0.304-0.763,0.591-1.536,0.724-2.354
								c-0.39,0.73-0.688,1.485-1.024,2.226L136.51,264.102z"/>
						</g>
						<path style="opacity:0.1;" d="M129.875,263.861c0.976-1.272,2.029-3.744,2.029-3.744s-0.312,3.063-2.486,5.092
							L129.875,263.861z"/>
					</g>
				</g>
				<g>
					<path style="fill:#E0E0E0;" d="M125.025,170.543c6.501,2.008,8.349,3.386,9.87,5.822c1.855,2.969,2.72,6.512,6.063,18.02
						c3.343,11.508,4.426,16.503,4.516,18.957c0.172,4.707,0.086,7.013-0.756,13.67c-0.622,4.92-0.946,8.487-1.863,15.99
						c-3.413,1.324-11.558,1.205-13.234-1.035c0-5.079-0.195-8.169-0.281-13.913c-0.108-7.153-0.481-12.724-0.481-12.724
						l-7.162-21.497C121.697,193.834,117.627,176.112,125.025,170.543z"/>
				</g>
				<g style="opacity:0.1;">
					<path d="M125.025,170.543c6.501,2.008,8.349,3.386,9.87,5.822c1.855,2.969,2.72,6.512,6.063,18.02
						c3.343,11.508,4.426,16.503,4.516,18.957c0.172,4.707,0.086,7.013-0.756,13.67c-0.622,4.92-0.946,8.487-1.863,15.99
						c-3.413,1.324-11.558,1.205-13.234-1.035c0-5.079-0.195-8.169-0.281-13.913c-0.108-7.153-0.481-12.724-0.481-12.724
						l-7.162-21.497C121.697,193.834,117.627,176.112,125.025,170.543z"/>
				</g>
			</g>
		</g>
	</g>
</g>
<g id="Spotlight_2">
	<g id="Lamp_00000131344313377144608520000001914442250534778772_">
		<g>
			<path id="Sphere_1_x2F_2_00000092434512412454985880000015627870200165001147_" style="fill:#FFFFFF;" d="M233.072,86.314
				c0-2.502,1.652-5.002,4.958-6.911c6.61-3.816,17.329-3.816,23.939,0c3.306,1.909,4.958,4.409,4.958,6.911
				c0,9.348-8.656,14.892-16.928,14.892C241.728,101.205,233.072,95.662,233.072,86.314z"/>
			<path style="fill:#455A64;" d="M277.779,79.821c0-0.412-0.035-0.823-0.089-1.234c-1.038-8-11.883-18.202-27.691-18.202
				c-16.016,0-26.94,10.472-27.729,18.517c-0.017,0.169-0.026,0.338-0.033,0.507c-0.006,0.137-0.017,0.276-0.017,0.412h0
				c0.001,4.104,2.713,8.209,8.137,11.34c10.849,6.264,28.438,6.264,39.286,0C275.066,88.03,277.779,83.925,277.779,79.821
				L277.779,79.821C277.779,79.821,277.779,79.821,277.779,79.821z"/>
			<path style="fill:#37474F;" d="M276.022,85.431c-5.164,6.132-24.215,10.759-37.935,5.298
				c-13.732-5.466-15.041-16.875-8.423-23.508c-4.376,3.527-7.021,7.875-7.394,11.681c-0.016,0.169-0.026,0.338-0.033,0.507
				c-0.006,0.137-0.017,0.276-0.017,0.412h0c0.001,4.104,2.713,8.209,8.136,11.34c10.849,6.264,28.438,6.264,39.286,0
				C272.552,89.481,274.674,87.52,276.022,85.431z"/>
			<path id="Sphere_1_x2F_2" style="fill:#37474F;" d="M261.485,69.502c0,1.698-1.121,3.394-3.364,4.689
				c-4.485,2.589-11.757,2.589-16.242,0c-2.243-1.295-3.364-2.991-3.364-4.689c0-6.342,5.873-10.103,11.485-10.103
				C255.612,59.398,261.485,63.159,261.485,69.502z"/>
			<path style="fill:#263238;" d="M258.121,74.191c0.77-0.444,1.397-0.938,1.902-1.461c-3.474,2.654-11.54,3.344-16.192,0.063
				c-4.399-3.102-3.647-9.426,1.203-12.4c-3.646,1.507-6.52,4.674-6.52,9.109c0,1.698,1.121,3.394,3.364,4.689
				C246.364,76.78,253.636,76.78,258.121,74.191z"/>
			<path id="Sphere_1_x2F_2_00000058547717366999272880000003544099772394989247_" style="fill:#263238;" d="M253.382,61.838
				c0,0.5-0.33,0.999-0.991,1.381c-1.321,0.762-3.462,0.762-4.783,0c-0.661-0.382-0.991-0.881-0.991-1.381
				c0-1.868,1.514-3.382,3.382-3.382C251.867,58.455,253.382,59.97,253.382,61.838z"/>
		</g>
		<g>
			<path d="M250.661,22.229c0-0.098-0.065-0.196-0.194-0.27c-0.258-0.149-0.677-0.149-0.935,0c-0.129,0.074-0.194,0.172-0.194,0.27
				c0,0.059,0,37.121,0,37.181c0,0.098,0.065,0.195,0.194,0.27c0.258,0.149,0.677,0.149,0.935,0c0.129-0.075,0.194-0.172,0.194-0.27
				C250.661,59.35,250.661,22.288,250.661,22.229z"/>
			<path style="fill:#455A64;" d="M249.532,21.959c-0.129,0.074-0.194,0.172-0.194,0.27c0,0.098,0.065,0.195,0.194,0.27
				c0.258,0.149,0.677,0.149,0.935,0c0.129-0.074,0.194-0.172,0.194-0.27c0-0.098-0.065-0.196-0.194-0.27
				C250.209,21.81,249.79,21.81,249.532,21.959z"/>
		</g>
	</g>
	<g id="Light">
		<path style="opacity:0.15;fill:#BA68C8;" d="M311.521,459.067c-33.98,19.62-89.07,19.62-123.04,0
			c-16.99-9.81-25.47-22.66-25.47-35.51c0-1.78,0.16-3.55,0.48-5.31l58.73-338.33c0.01,1.25,0.27,2.5,0.8,3.72
			c0.52,1.25,1.32,2.48,2.38,3.64c0.63,0.7,1.36,1.38,2.19,2.03c0.55,0.43,1.14,0.85,1.78,1.26c0.32,0.2,0.65,0.4,0.99,0.59
			c1.35,0.79,2.81,1.47,4.35,2.06c0.09,0.03,0.18,0.06,0.27,0.09c2.99,5.04,9.1,7.9,15.02,7.9c5.92,0,12.02-2.86,15.02-7.9
			c1.64-0.61,3.19-1.32,4.62-2.15c0.36-0.2,0.7-0.41,1.03-0.62c0.08-0.06,0.16-0.11,0.24-0.17c0.25-0.16,0.49-0.32,0.72-0.48
			l0.24-0.18c0.22-0.17,0.45-0.34,0.66-0.51c0.07-0.05,0.13-0.1,0.2-0.16c0.22-0.18,0.43-0.36,0.64-0.55
			c0.05-0.04,0.09-0.09,0.14-0.13c0.22-0.2,0.43-0.4,0.63-0.6c0.03-0.03,0.06-0.07,0.09-0.1c0.21-0.22,0.42-0.44,0.61-0.66
			c0.02-0.02,0.03-0.04,0.05-0.06c0.2-0.24,0.4-0.48,0.58-0.72c0,0,0.01-0.01,0.02-0.02c1.52-2.03,2.29-4.2,2.29-6.38l58.73,338.43
			C339.172,432.807,330.851,447.907,311.521,459.067z"/>
	</g>
</g>
<g id="Spotlights_1">
	<g id="Lamp_00000021101483089148780320000002830089581713872515_">
		<g>
			<path id="Sphere_1_x2F_2_00000044869832347487461940000015806833538823344779_" style="fill:#BA68C8;" d="M85.183,86.314
				c0-2.502,1.652-5.002,4.958-6.911c6.61-3.816,17.329-3.816,23.939,0c3.306,1.909,4.958,4.409,4.958,6.911
				c0,9.348-8.656,14.892-16.928,14.892C93.839,101.205,85.183,95.662,85.183,86.314z"/>
			<path id="Sphere_1_x2F_2_00000075140304232441502620000000220118054297476766_" style="opacity:0.4;fill:#FFFFFF;" d="
				M85.183,86.314c0-2.502,1.652-5.002,4.958-6.911c6.61-3.816,17.329-3.816,23.939,0c3.306,1.909,4.958,4.409,4.958,6.911
				c0,9.348-8.656,14.892-16.928,14.892C93.839,101.205,85.183,95.662,85.183,86.314z"/>
			<path style="fill:#455A64;" d="M129.891,79.821c0-0.412-0.035-0.823-0.089-1.234c-1.038-8-11.882-18.202-27.69-18.202
				c-16.016,0-26.94,10.472-27.729,18.517c-0.017,0.169-0.026,0.338-0.033,0.507c-0.006,0.137-0.017,0.276-0.017,0.412h0
				c0.001,4.104,2.713,8.209,8.136,11.34c10.849,6.264,28.438,6.264,39.286,0C127.178,88.03,129.89,83.925,129.891,79.821
				L129.891,79.821C129.891,79.821,129.891,79.821,129.891,79.821z"/>
			<path style="fill:#37474F;" d="M128.134,85.431c-5.164,6.132-24.215,10.759-37.935,5.298
				c-13.732-5.466-15.041-16.875-8.423-23.508c-4.376,3.527-7.021,7.875-7.394,11.681c-0.017,0.169-0.026,0.338-0.033,0.507
				c-0.006,0.137-0.017,0.276-0.017,0.412h0c0.001,4.104,2.713,8.209,8.136,11.34c10.849,6.264,28.438,6.264,39.286,0
				C124.664,89.481,126.785,87.52,128.134,85.431z"/>
			<path id="Sphere_1_x2F_2_00000104707032286569253280000009743704081498643378_" style="fill:#37474F;" d="M113.596,69.502
				c0,1.698-1.121,3.394-3.364,4.689c-4.485,2.589-11.757,2.589-16.242,0c-2.243-1.295-3.364-2.991-3.364-4.689
				c0-6.342,5.873-10.103,11.485-10.103C107.724,59.398,113.596,63.159,113.596,69.502z"/>
			<path style="fill:#263238;" d="M110.232,74.191c0.77-0.444,1.397-0.938,1.902-1.461c-3.474,2.654-11.54,3.344-16.192,0.063
				c-4.399-3.102-3.647-9.426,1.203-12.4c-3.646,1.507-6.52,4.674-6.52,9.109c0,1.698,1.121,3.394,3.364,4.689
				C98.475,76.78,105.747,76.78,110.232,74.191z"/>
			<path id="Sphere_1_x2F_2_00000020373699378183137260000007293583401917674931_" style="fill:#263238;" d="M105.493,61.838
				c0,0.5-0.33,0.999-0.991,1.381c-1.321,0.762-3.462,0.762-4.783,0c-0.661-0.382-0.991-0.881-0.991-1.381
				c0-1.868,1.514-3.382,3.382-3.382C103.979,58.455,105.493,59.97,105.493,61.838z"/>
		</g>
		<g>
			<path d="M102.773,22.229c0-0.098-0.065-0.196-0.194-0.27c-0.258-0.149-0.677-0.149-0.935,0c-0.129,0.074-0.194,0.172-0.194,0.27
				c0,0.059,0,37.121,0,37.181c0,0.098,0.065,0.195,0.194,0.27c0.258,0.149,0.677,0.149,0.936,0c0.129-0.075,0.194-0.172,0.194-0.27
				C102.773,59.35,102.773,22.288,102.773,22.229z"/>
			<path style="fill:#455A64;" d="M101.644,21.959c-0.129,0.074-0.194,0.172-0.194,0.27c0,0.098,0.065,0.195,0.194,0.27
				c0.258,0.149,0.677,0.149,0.936,0c0.129-0.074,0.194-0.172,0.194-0.27c0-0.098-0.065-0.196-0.194-0.27
				C102.321,21.81,101.902,21.81,101.644,21.959z"/>
		</g>
	</g>
	<g id="Lamp">
		<g>
			<path id="Sphere_1_x2F_2_00000132784528208412205530000013324822552873437107_" style="fill:#BA68C8;" d="M414.816,86.314
				c0-2.502-1.652-5.002-4.958-6.911c-6.61-3.816-17.329-3.816-23.939,0c-3.307,1.909-4.958,4.409-4.958,6.911
				c0,9.348,8.656,14.892,16.928,14.892C406.16,101.205,414.816,95.662,414.816,86.314z"/>
			<path id="Sphere_1_x2F_2_00000082349520967879354410000015379025272096399744_" style="opacity:0.4;fill:#FFFFFF;" d="
				M414.816,86.314c0-2.502-1.652-5.002-4.958-6.911c-6.61-3.816-17.329-3.816-23.939,0c-3.307,1.909-4.958,4.409-4.958,6.911
				c0,9.348,8.656,14.892,16.928,14.892C406.16,101.205,414.816,95.662,414.816,86.314z"/>
			<path style="fill:#455A64;" d="M370.108,79.821c0-0.412,0.035-0.823,0.089-1.234c1.038-8,11.882-18.202,27.69-18.202
				c16.016,0,26.94,10.472,27.729,18.517c0.017,0.169,0.026,0.338,0.033,0.507c0.006,0.137,0.017,0.276,0.017,0.412h0
				c-0.001,4.104-2.713,8.209-8.136,11.34c-10.849,6.264-28.438,6.264-39.286,0C372.821,88.03,370.109,83.925,370.108,79.821
				L370.108,79.821C370.108,79.821,370.108,79.821,370.108,79.821z"/>
			<path style="fill:#37474F;" d="M371.865,85.431c5.164,6.132,24.215,10.759,37.935,5.298c13.732-5.466,15.041-16.875,8.423-23.508
				c4.376,3.527,7.021,7.875,7.394,11.681c0.016,0.169,0.026,0.338,0.033,0.507c0.006,0.137,0.017,0.276,0.017,0.412h0
				c-0.001,4.104-2.713,8.209-8.136,11.34c-10.849,6.264-28.438,6.264-39.286,0C375.335,89.481,373.214,87.52,371.865,85.431z"/>
			<path id="Sphere_1_x2F_2_00000097461939800092699250000000914190650519401910_" style="fill:#37474F;" d="M386.403,69.502
				c0,1.698,1.121,3.394,3.364,4.689c4.485,2.589,11.757,2.589,16.242,0c2.243-1.295,3.364-2.991,3.364-4.689
				c0-6.342-5.873-10.103-11.485-10.103C392.276,59.398,386.403,63.159,386.403,69.502z"/>
			<path style="fill:#263238;" d="M389.767,74.191c-0.77-0.444-1.397-0.938-1.902-1.461c3.474,2.654,11.54,3.344,16.192,0.063
				c4.399-3.102,3.647-9.426-1.203-12.4c3.646,1.507,6.52,4.674,6.52,9.109c0,1.698-1.121,3.394-3.364,4.689
				C401.524,76.78,394.252,76.78,389.767,74.191z"/>
			<path id="Sphere_1_x2F_2_00000019662785957707328590000007132794995198892175_" style="fill:#263238;" d="M394.506,61.838
				c0,0.5,0.33,0.999,0.991,1.381c1.321,0.762,3.462,0.762,4.783,0c0.661-0.382,0.991-0.881,0.991-1.381
				c0-1.868-1.514-3.382-3.382-3.382C396.02,58.455,394.506,59.97,394.506,61.838z"/>
		</g>
		<g>
			<path d="M397.227,22.229c0-0.098,0.064-0.196,0.194-0.27c0.258-0.149,0.677-0.149,0.935,0c0.129,0.074,0.194,0.172,0.194,0.27
				c0,0.059,0,37.121,0,37.181c0,0.098-0.065,0.195-0.194,0.27c-0.258,0.149-0.677,0.149-0.935,0
				c-0.129-0.075-0.194-0.172-0.194-0.27C397.227,59.35,397.227,22.288,397.227,22.229z"/>
			<path style="fill:#455A64;" d="M398.356,21.959c0.129,0.074,0.194,0.172,0.194,0.27c0,0.098-0.065,0.195-0.194,0.27
				c-0.258,0.149-0.677,0.149-0.935,0c-0.129-0.074-0.194-0.172-0.194-0.27c0-0.098,0.065-0.196,0.194-0.27
				C397.679,21.81,398.098,21.81,398.356,21.959z"/>
		</g>
	</g>
</g>
</svg>
