<?xml version="1.0" encoding="utf-8"?>
<!-- Generator: Adobe Illustrator 27.5.0, SVG Export Plug-In . SVG Version: 6.00 Build 0)  -->
<svg version="1.1" xmlns="http://www.w3.org/2000/svg" xmlns:xlink="http://www.w3.org/1999/xlink" x="0px" y="0px"
	 viewBox="0 0 500 500" style="enable-background:new 0 0 500 500;" xml:space="preserve">
<g id="Floor">
	<ellipse id="Floor_1_" style="fill:#FAFAFA;" cx="250" cy="359.153" rx="229.215" ry="132.338"/>
</g>
<g id="Shadows">
	<path id="Shadow_51_" style="fill:#EBEBEB;" d="M422.043,320.778c-10.3,5.947-10.3,15.588,0,21.535c10.3,5.947,27,5.947,37.299,0
		c10.3-5.947,10.3-15.588,0-21.535C449.043,314.831,432.343,314.831,422.043,320.778z"/>
	<polygon id="Shadow_7_" style="fill:#EBEBEB;" points="260.06,404.35 378.882,472.951 443.762,435.439 324.94,366.836 	"/>
	<path id="Shadow_29_" style="fill:#EBEBEB;" d="M297.187,387.258c-0.325,1.667-1.027,3.314-2.104,4.9
		c-1.698,2.562-4.341,4.961-7.909,7.024c-13.683,7.899-35.875,7.899-49.558,0c-3.568-2.063-6.211-4.463-7.909-7.024
		c-1.068-1.586-1.769-3.233-2.094-4.9h-0.01c-1.22-5.937,2.125-12.128,10.013-16.682c13.683-7.909,35.875-7.909,49.558,0
		C295.062,375.13,298.407,381.321,297.187,387.258z"/>
	<path id="Shadow_50_" style="fill:#EBEBEB;" d="M55.148,365.524L13.637,341.6c-0.965-0.558-0.966-1.463-0.002-2.022l102.592-59.445
		c0.964-0.559,2.529-0.561,3.494-0.003l41.511,23.924c0.966,0.558,0.967,1.463,0.002,2.022L58.642,365.521
		C57.678,366.08,56.114,366.081,55.148,365.524z"/>
	<ellipse id="Shadow_8_" style="fill:#EBEBEB;" cx="154.954" cy="419.944" rx="67.841" ry="39.168"/>
</g>
<g id="Shelf">
	<g id="Shelf_2_">
		<g>
			<g>
				<polygon style="fill:#EBEBEB;" points="140.262,76.651 109.683,58.995 12.136,115.288 12.137,118.644 42.715,136.3 
					140.262,80.007 				"/>
			</g>
			<g>
				<polygon style="fill:#FAFAFA;" points="42.715,132.944 140.262,76.651 109.683,58.995 12.136,115.288 				"/>
			</g>
			<g>
				<polygon style="fill:#E6E6E6;" points="42.715,132.944 42.715,136.3 12.137,118.644 12.136,115.288 				"/>
			</g>
		</g>
		<g id="XMLID_3541_">
			<g id="XMLID_3558_">
				<polygon id="XMLID_3563_" style="fill:#E0E0E0;" points="111.313,28.367 131.143,39.822 131.143,77.548 111.313,66.094 				"/>
				<path id="XMLID_3562_" style="fill:#FFFFFF;" d="M130.505,40.449l-19.192-11.014c-0.989,1.143-2.454,1.941-4.388,2.399
					l19.029,10.967C125.954,42.801,127.183,42.514,130.505,40.449z"/>
				<path id="XMLID_3561_" style="fill:#FAFAFA;" d="M124.11,42.735c1.018,0.584,2.67,0.584,3.688,0l3.232-1.855
					c1.018-0.584,1.018-1.532,0-2.117l-18.915-10.855l-0.802,0.458l18.603,10.744c0.611,0.351,0.611,0.919,0,1.269l-3.003,1.704
					c-0.611,0.35-1.602,0.35-2.213-0.001L106.102,31.36l-0.907,0.521L124.11,42.735z"/>
				<path id="XMLID_3560_" style="fill:#E0E0E0;" d="M105.197,31.879v37.726l18.913,10.854c1.018,0.584,2.67,0.584,3.688,0
					l3.232-1.854c0.507-0.292,0.762-0.673,0.762-1.058V39.82c0,0.385-0.256,0.766-0.762,1.058l-3.232,1.858
					c-1.018,0.584-2.67,0.584-3.688,0L105.197,31.879z"/>
				<path id="XMLID_3559_" style="fill:#F0F0F0;" d="M125.954,43.175c0.668,0,1.335-0.146,1.844-0.438l3.232-1.858
					c0.507-0.292,0.762-0.673,0.762-1.058v37.726c0,0.385-0.256,0.766-0.762,1.058l-3.232,1.854
					c-0.509,0.292-1.176,0.438-1.844,0.438V43.175z"/>
			</g>
			<g id="XMLID_3542_">
				<polygon id="XMLID_3556_" style="fill:#EBEBEB;" points="103.203,33.022 123.034,44.478 123.034,82.203 103.203,70.75 				"/>
				<path id="XMLID_3555_" style="fill:#FFFFFF;" d="M122.396,45.104L103.203,34.09c-0.989,1.143-2.454,1.941-4.388,2.399
					l19.029,10.967C117.844,47.456,119.074,47.169,122.396,45.104z"/>
				<path id="XMLID_3552_" style="fill:#FAFAFA;" d="M116,47.391c1.018,0.584,2.67,0.584,3.688,0l3.231-1.855
					c1.018-0.585,1.018-1.532,0-2.117l-18.915-10.855l-0.802,0.458l18.603,10.744c0.611,0.351,0.611,0.919,0,1.269l-3.003,1.704
					c-0.611,0.35-1.602,0.35-2.214-0.001L97.993,36.015l-0.907,0.521L116,47.391z"/>
				<path id="XMLID_3551_" style="fill:#E0E0E0;" d="M97.087,36.535V74.26L116,85.114c1.018,0.584,2.67,0.584,3.688,0l3.232-1.854
					c0.507-0.292,0.762-0.673,0.762-1.058V44.476c0,0.385-0.255,0.766-0.762,1.058l-3.232,1.858c-1.018,0.584-2.67,0.584-3.688,0
					L97.087,36.535z"/>
				<path id="XMLID_3548_" style="fill:#F0F0F0;" d="M117.844,47.831c0.667,0,1.335-0.146,1.844-0.438l3.232-1.858
					c0.507-0.292,0.762-0.673,0.762-1.058v37.726c0,0.385-0.255,0.766-0.762,1.058l-3.232,1.854
					c-0.509,0.292-1.176,0.438-1.844,0.438V47.831z"/>
			</g>
		</g>
		<g id="XMLID_3497_">
			<polygon id="XMLID_3523_" style="fill:#EBEBEB;" points="89.663,43.048 109.492,54.503 103.333,93.369 83.503,81.916 			"/>
			<path id="XMLID_3522_" style="fill:#FFFFFF;" d="M108.709,55.046l-19.202-11.02c-1.238,0.998-2.944,1.658-5.107,1.984
				l19.032,10.968C103.432,56.979,104.807,56.775,108.709,55.046z"/>
			<path id="XMLID_3521_" style="fill:#FAFAFA;" d="M101.442,56.829c1.019,0.585,2.809,0.665,3.998,0.179l3.774-1.541
				c1.189-0.486,1.327-1.354,0.308-1.939l-18.924-10.86l-0.936,0.38l18.602,10.743c0.611,0.351,0.528,0.871-0.186,1.162
				l-3.505,1.414c-0.714,0.291-1.788,0.242-2.4-0.109L83.577,45.536l-1.06,0.433L101.442,56.829z"/>
			<path id="XMLID_3499_" style="fill:#E0E0E0;" d="M82.52,45.968L76.36,84.834l18.923,10.859c1.018,0.585,2.81,0.665,3.999,0.179
				l3.775-1.541c0.592-0.243,0.924-0.579,0.981-0.932l6.159-38.867c-0.056,0.353-0.389,0.689-0.981,0.932l-3.775,1.545
				c-1.189,0.486-2.98,0.405-3.999-0.179L82.52,45.968z"/>
			<path id="XMLID_3498_" style="fill:#F0F0F0;" d="M103.377,57.322c0.724,0.032,1.468-0.069,2.063-0.312l3.775-1.545
				c0.592-0.243,0.924-0.579,0.981-0.932L104.037,93.4c-0.056,0.353-0.389,0.689-0.981,0.932l-3.775,1.541
				c-0.594,0.243-1.339,0.344-2.063,0.312L103.377,57.322z"/>
		</g>
		<g id="Picture_3_">
			<g id="Frame_18_">
				<polygon id="XMLID_3493_" style="fill:#FAFAFA;" points="56.711,113.65 58.117,114.327 84.134,99.305 82.73,98.628 				"/>
				<g id="XMLID_3458_">
					<g id="XMLID_3480_">
						<g id="XMLID_3488_">
							<polygon id="XMLID_3489_" style="fill:#FFFFFF;" points="82.73,98.628 57.979,112.915 54.379,75.894 79.13,61.616 							"/>
						</g>
					</g>
				</g>
				<path id="XMLID_3448_" style="fill:#F0F0F0;" d="M82.535,56.876L51.732,74.66l4.247,43.663l30.803-17.784L82.535,56.876z
					 M84.134,99.305l-26.018,15.021l-3.737-38.433l26.017-15.021L84.134,99.305z"/>
				<polygon id="XMLID_3288_" style="fill:#E0E0E0;" points="84.134,99.305 82.73,98.628 79.13,61.616 80.397,60.873 				"/>
				<polygon id="XMLID_528_" style="fill:#FAFAFA;" points="82.535,56.876 81.111,56.217 50.308,74.002 51.732,74.66 				"/>
				<polygon id="XMLID_527_" style="fill:#E0E0E0;" points="50.308,74.002 51.732,74.66 55.979,118.323 54.555,117.665 				"/>
			</g>
			<g id="Land_14_">
				<polygon style="fill:#F0F0F0;" points="81.641,97.924 58.824,111.098 58.217,104.861 62.46,86.54 66.506,92.792 65.668,98.059 
					72.414,78.621 81.034,91.688 				"/>
				<path style="fill:#F0F0F0;" d="M62.11,78.826c-0.932,0.538-1.607,1.8-1.508,2.819c0.1,1.019,0.935,1.409,1.867,0.87
					c0.932-0.538,1.607-1.8,1.508-2.819C63.878,78.678,63.042,78.288,62.11,78.826z"/>
			</g>
		</g>
		<g id="Pot_11_">
			<path id="Shadow_30_" style="opacity:0.05;" d="M43.895,111.08c4.221,2.437,4.221,6.389,0,8.826
				c-4.221,2.437-11.066,2.437-15.287,0c-4.221-2.437-4.221-6.389,0-8.826C32.829,108.643,39.673,108.643,43.895,111.08z"/>
			<g id="XMLID_3239_">
				<path id="XMLID_3243_" style="fill:#F5F5F5;" d="M29.379,117.228c-3.677-3.751-5.836-13.118-2.25-16.093h18.245
					c3.585,2.974,1.428,12.336-2.247,16.09c-0.031,0.035-0.068,0.069-0.101,0.103c-0.042,0.041-0.084,0.083-0.126,0.124
					c-0.104,0.1-0.214,0.199-0.332,0.296c-0.029,0.024-0.059,0.046-0.088,0.069c-0.09,0.071-0.179,0.142-0.278,0.21
					c-0.157,0.111-0.315,0.215-0.475,0.304c-3.024,1.746-7.927,1.746-10.951,0h0h0c-0.161-0.09-0.32-0.194-0.478-0.306
					c-0.091-0.064-0.174-0.13-0.258-0.195c-0.036-0.029-0.072-0.055-0.109-0.085c-0.114-0.093-0.22-0.188-0.321-0.285
					c-0.049-0.046-0.097-0.095-0.146-0.143C29.436,117.285,29.405,117.257,29.379,117.228z"/>
				<path id="XMLID_526_" style="fill:#FFFFFF;" d="M43.789,99.707c4.163,2.404,4.163,6.3,0,8.704
					c-4.163,2.403-10.912,2.403-15.075,0c-4.163-2.403-4.163-6.3,0-8.704C32.876,97.304,39.626,97.304,43.789,99.707z"/>
				<path id="XMLID_3241_" style="fill:#EBEBEB;" d="M40.837,101.412c2.533,1.462,2.533,3.833,0,5.295
					c-2.533,1.462-6.639,1.462-9.172,0c-2.533-1.462-2.533-3.833,0-5.295C34.198,99.949,38.304,99.949,40.837,101.412z"/>
				<path id="XMLID_525_" style="fill:#E0E0E0;" d="M31.666,103.925c2.533-1.462,6.639-1.462,9.172,0
					c0.704,0.406,1.204,0.884,1.517,1.391c-0.313,0.508-0.813,0.985-1.517,1.391c-2.533,1.462-6.639,1.462-9.172,0
					c-0.704-0.406-1.205-0.884-1.517-1.391C30.461,104.808,30.962,104.331,31.666,103.925z"/>
			</g>
			<g id="XMLID_524_">
				<path id="XMLID_3238_" style="fill:#EBEBEB;" d="M40.278,105.315c0,0,1.785-1.701,3.317-4.41
					c1.532-2.709,1.815-6.338,1.023-6.786c-0.792-0.448-4.016,3.172-4.016,3.172s0.475-2.211,0.339-4.624
					c-0.135-2.413-0.723-4.605-1.414-5.048c-0.691-0.443-2.237,2.602-2.9,4.807c-0.663,2.206-1.059,4.019-1.059,4.019
					s-0.453-2.981-1.188-5.076c-0.804-2.29-1.534-2.807-2.099-2.581c-0.566,0.226-0.939,1.295-1.104,4.345
					c-0.116,2.135,0.136,4.365,0.136,4.365s-1.136-1.25-2.399-2.462c-1.385-1.331-1.979-1.514-2.375-1.26
					c-0.396,0.254-0.505,2.325,1.641,6.207c1.894,3.425,4.051,5.332,4.051,5.332S35.203,107.231,40.278,105.315z"/>
			</g>
		</g>
	</g>
</g>
<g id="Lamp">
	<g id="Lamp_4_">
		<g>
			<path style="fill:#EBEBEB;" d="M461.712,326.892h-0.019c0.003-3.106-2.033-6.211-6.138-8.581c-8.208-4.739-21.516-4.739-29.724,0
				c-4.105,2.37-6.14,5.475-6.137,8.581h-0.02v2.903l0,0c0.049,3.065,2.106,6.121,6.156,8.46c8.209,4.739,21.517,4.739,29.725,0
				c4.052-2.339,6.107-5.394,6.156-8.46l0,0V326.892z"/>
		</g>
		<path id="XMLID_559_" style="fill:#F5F5F5;" d="M425.831,318.311c-8.208,4.739-8.208,12.422,0,17.161
			c8.208,4.739,21.517,4.739,29.724,0c8.208-4.739,8.208-12.422,0-17.161C447.347,313.572,434.039,313.572,425.831,318.311z"/>
		<path id="XMLID_555_" style="fill:#E0E0E0;" d="M442.956,107.776h-4.525v217.758h0.019c-0.055,0.37,0.153,0.752,0.644,1.035
			c0.884,0.511,2.317,0.511,3.2,0c0.491-0.283,0.699-0.665,0.644-1.035h0.018V107.776z"/>
		<g id="XMLID_548_">
			<g id="XMLID_549_">
				<path id="XMLID_554_" style="fill:#EBEBEB;" d="M470.16,100.089h0.012l-10.988-40.843h-37.13l-10.845,40.843h0.017
					c-1.976,5.402,0.74,11.241,8.18,15.434c11.756,6.625,30.818,6.625,42.574,0C469.42,111.331,472.137,105.492,470.16,100.089z"/>
				<path id="XMLID_553_" style="fill:#F5F5F5;" d="M427.514,67.969c7.278,4.102,19.08,4.102,26.359,0
					c7.279-4.101,7.279-10.751,0-14.853c-7.279-4.102-19.08-4.102-26.359,0C420.235,57.218,420.235,63.868,427.514,67.969z"/>
				<path id="XMLID_552_" style="fill:#E0E0E0;" d="M440.693,68.464c-4.346,0-8.402-0.938-11.418-2.639
					c-2.666-1.5-4.133-3.376-4.133-5.283c0-1.907,1.467-3.783,4.133-5.283c3.016-1.701,7.072-2.638,11.418-2.638
					c4.346,0,8.402,0.938,11.418,2.638c2.665,1.5,4.133,3.376,4.133,5.283c0,1.907-1.467,3.783-4.133,5.283
					C449.095,67.526,445.039,68.464,440.693,68.464z"/>
			</g>
		</g>
	</g>
</g>
<g id="Drawer">
	<g id="Drawer_3_">
		<g>
			<g>
				<g>
					<polygon style="fill:#E0E0E0;" points="63.93,342.384 60.365,360.07 56.899,362.071 53.464,360.088 49.869,342.385 
						56.9,338.325 					"/>
					<polygon style="opacity:0.05;" points="63.93,342.384 60.365,360.07 56.899,362.071 53.464,360.088 49.869,342.385 
						56.9,338.325 					"/>
					<polygon style="fill:#EBEBEB;" points="56.899,362.071 56.9,346.443 63.93,342.384 60.365,360.07 					"/>
				</g>
				<polygon style="opacity:0.05;" points="63.93,342.384 61.627,353.806 56.899,356.535 52.191,353.818 49.869,342.385 
					56.9,338.325 				"/>
			</g>
			<g>
				<g>
					<polygon style="fill:#E0E0E0;" points="33.015,324.536 29.45,342.221 25.985,344.223 22.55,342.239 18.954,324.536 
						25.986,320.477 					"/>
					<polygon style="opacity:0.05;" points="33.015,324.536 29.45,342.221 25.985,344.223 22.55,342.239 18.954,324.536 
						25.986,320.477 					"/>
					<polygon style="fill:#EBEBEB;" points="25.985,344.223 25.985,328.595 33.015,324.536 29.45,342.221 					"/>
				</g>
				<polygon style="opacity:0.05;" points="33.015,324.536 30.713,335.957 25.984,338.687 21.276,335.969 18.954,324.536 
					25.986,320.477 				"/>
			</g>
			<g>
				<g>
					<polygon style="opacity:0.05;" points="155.378,289.585 151.813,307.271 148.347,309.272 144.912,307.289 141.316,289.586 
						148.348,285.526 					"/>
					<polygon style="fill:#EBEBEB;" points="148.347,309.272 148.347,293.645 155.378,289.585 151.813,307.271 					"/>
				</g>
				<polygon style="opacity:0.05;" points="155.378,289.585 153.075,301.007 148.347,303.737 143.639,301.018 141.317,289.586 
					148.348,285.526 				"/>
			</g>
			<g id="Cabinet_1_">
				<g id="Cabinet_3_">
					<g id="XMLID_3908_">
						<polygon id="XMLID_3911_" style="fill:#E0E0E0;" points="56.899,353.682 18.587,331.562 18.587,248.642 56.898,270.761 						
							"/>
						<polygon id="XMLID_3910_" style="fill:#EBEBEB;" points="56.898,270.761 157.37,212.753 157.371,295.674 56.899,353.682 
													"/>
						<polygon id="XMLID_3909_" style="fill:#F5F5F5;" points="157.37,212.753 56.898,270.761 18.587,248.642 119.058,190.634 
													"/>
					</g>
					<g id="XMLID_545_">
						<g id="XMLID_546_">
							<polygon id="XMLID_3907_" style="fill:#E0E0E0;" points="62.372,311.838 151.897,260.15 151.895,290.582 152.902,291.164 
								63.377,342.851 62.37,342.269 							"/>
						</g>
						<g id="XMLID_3904_">
							<polygon id="XMLID_3905_" style="fill:#F5F5F5;" points="63.379,312.42 152.904,260.732 152.902,291.164 63.377,342.851 
															"/>
						</g>
						<g id="XMLID_3902_">
							<path id="XMLID_3903_" style="fill:#E0E0E0;" d="M106.418,293.322l7.446-4.299c0.967-0.558,1.751-0.303,1.751,0.569
								c0,0.873-0.784,2.033-1.751,2.591l-7.447,4.299c-0.967,0.558-1.75,0.303-1.75-0.569
								C104.668,295.039,105.452,293.88,106.418,293.322z"/>
						</g>
					</g>
					<g id="XMLID_3822_">
						<g id="XMLID_3895_">
							<polygon id="XMLID_3900_" style="fill:#E0E0E0;" points="62.37,275.094 151.896,223.405 151.894,253.837 152.901,254.419 
								63.376,306.106 62.369,305.524 							"/>
						</g>
						<g id="XMLID_3831_">
							<polygon id="XMLID_3832_" style="fill:#F5F5F5;" points="63.377,275.676 152.902,223.988 152.901,254.419 63.376,306.106 
															"/>
						</g>
						<g id="XMLID_3823_">
							<path id="XMLID_3824_" style="fill:#E0E0E0;" d="M106.417,256.577l7.446-4.299c0.966-0.558,1.75-0.303,1.75,0.57
								c0,0.873-0.784,2.033-1.75,2.591l-7.447,4.299c-0.966,0.558-1.75,0.303-1.75-0.569
								C104.667,258.295,105.45,257.135,106.417,256.577z"/>
						</g>
					</g>
				</g>
			</g>
		</g>
		<g id="Pot_12_">
			<g id="XMLID_3820_">
				<path id="XMLID_3821_" style="fill:#E0E0E0;" d="M116.185,215.242c4.644,2.681,4.644,7.029,0,9.71
					c-4.644,2.681-12.174,2.681-16.818,0c-4.644-2.681-4.644-7.029,0-9.71C104.011,212.56,111.54,212.56,116.185,215.242z"/>
			</g>
			<g id="XMLID_3804_">
				<path id="XMLID_3819_" style="fill:#EBEBEB;" d="M100.379,220.696c-4.045-4.127-6.421-14.432-2.476-17.706h20.073
					c3.944,3.272,1.571,13.572-2.472,17.702c-0.035,0.038-0.074,0.076-0.111,0.114c-0.046,0.046-0.092,0.092-0.139,0.136
					c-0.114,0.11-0.236,0.219-0.366,0.325c-0.032,0.027-0.064,0.05-0.097,0.076c-0.099,0.078-0.197,0.156-0.305,0.231
					c-0.172,0.122-0.346,0.236-0.523,0.334c-3.327,1.921-8.721,1.921-12.048,0h0h-0.001c-0.178-0.099-0.353-0.214-0.526-0.337
					c-0.1-0.07-0.191-0.143-0.284-0.215c-0.04-0.031-0.08-0.061-0.12-0.094c-0.126-0.102-0.243-0.207-0.353-0.314
					c-0.054-0.051-0.107-0.104-0.161-0.157C100.442,220.76,100.408,220.728,100.379,220.696z"/>
				<path id="XMLID_3815_" style="fill:#FAFAFA;" d="M116.233,201.672c4.58,2.644,4.58,6.931,0,9.576
					c-4.58,2.644-12.006,2.644-16.585,0c-4.58-2.644-4.58-6.931,0-9.575C104.227,199.028,111.653,199.028,116.233,201.672z"/>
				<path id="XMLID_3814_" style="fill:#F5F5F5;" d="M112.986,203.547c2.786,1.609,2.786,4.217,0,5.826
					c-2.786,1.609-7.304,1.609-10.09,0c-2.786-1.609-2.786-4.217,0-5.826C105.682,201.938,110.199,201.938,112.986,203.547z"/>
				<path id="XMLID_3813_" style="fill:#EBEBEB;" d="M102.895,206.312c2.787-1.609,7.304-1.609,10.09,0
					c0.774,0.447,1.325,0.972,1.669,1.531c-0.344,0.558-0.895,1.084-1.669,1.531c-2.786,1.609-7.304,1.609-10.09,0
					c-0.774-0.447-1.325-0.972-1.669-1.531C101.57,207.284,102.121,206.759,102.895,206.312z"/>
			</g>
			<g id="XMLID_3799_">
				<path id="XMLID_3803_" style="fill:#E0E0E0;" d="M112.371,207.842c0,0,1.964-1.872,3.65-4.852
					c1.685-2.98,1.996-6.973,1.125-7.466c-0.871-0.492-4.418,3.49-4.418,3.49s0.522-2.433,0.373-5.087
					c-0.149-2.654-0.796-5.066-1.556-5.553c-0.76-0.487-2.461,2.862-3.191,5.289c-0.729,2.427-1.165,4.421-1.165,4.421
					s-0.498-3.28-1.308-5.584c-0.885-2.519-1.687-3.089-2.309-2.84c-0.622,0.249-1.033,1.424-1.215,4.78
					c-0.127,2.35,0.15,4.803,0.15,4.803s-1.25-1.375-2.639-2.709c-1.524-1.464-2.177-1.666-2.613-1.387
					c-0.436,0.279-0.556,2.558,1.805,6.829c2.084,3.769,4.457,5.867,4.457,5.867S106.787,209.95,112.371,207.842z"/>
			</g>
		</g>
		<g id="Picture_14_">
			<g id="Frame_3_">
				<polygon id="XMLID_3798_" style="fill:#FAFAFA;" points="54.173,254.005 55.665,254.723 83.296,238.77 81.805,238.051 				"/>
				<g id="XMLID_3794_">
					<g id="XMLID_3795_">
						<g id="XMLID_3796_">
							<polygon id="XMLID_3797_" style="fill:#FFFFFF;" points="81.805,238.051 55.52,253.224 51.696,213.907 77.982,198.744 
															"/>
						</g>
					</g>
				</g>
				<path id="XMLID_3791_" style="fill:#F0F0F0;" d="M81.598,193.71l-32.714,18.887l4.51,46.371l32.713-18.887L81.598,193.71z
					 M83.296,238.77l-27.631,15.953l-3.969-40.816l27.631-15.953L83.296,238.77z"/>
				<polygon id="XMLID_3790_" style="fill:#E0E0E0;" points="83.296,238.77 81.805,238.051 77.982,198.744 79.327,197.954 				"/>
				<polygon id="XMLID_3788_" style="fill:#FAFAFA;" points="81.598,193.71 80.086,193.01 47.373,211.897 48.885,212.597 				"/>
				<polygon id="XMLID_3787_" style="fill:#E0E0E0;" points="47.373,211.897 48.885,212.597 53.395,258.968 51.883,258.269 				"/>
			</g>
			<g id="Land_9_">
				<polygon style="fill:#F0F0F0;" points="80.648,237.304 56.416,251.294 55.772,244.671 60.278,225.214 64.575,231.853 
					63.685,237.447 70.85,216.803 80.004,230.68 				"/>
				<path style="fill:#F0F0F0;" d="M59.907,217.021c-0.99,0.571-1.707,1.912-1.602,2.994c0.105,1.082,0.993,1.496,1.983,0.925
					c0.99-0.572,1.707-1.912,1.601-2.994C61.784,216.864,60.896,216.45,59.907,217.021z"/>
			</g>
		</g>
	</g>
</g>
<g id="Plants">
	<g id="Plant_12_">
		<g id="Pot_10_">
			<path id="XMLID_522_" style="fill:#37474F;" d="M290.369,360.379l-55.957-0.011l5.785,24.103h0.008
				c0.441,2.906,2.58,5.743,6.433,7.967c8.702,5.024,22.812,5.024,31.514,0c4.147-2.394,6.293-5.497,6.488-8.634L290.369,360.379z"
				/>
			<path style="fill:#263238;" d="M283.545,376.899c1.268-0.732,2.374-1.521,3.358-2.345l3.149-12.877
				c-1.437,1.62-3.317,3.141-5.661,4.497c-11.805,6.814-30.723,6.986-42.929,0.554l1.422-5.742l-0.436-0.606l-8.033-0.001
				l5.783,24.092h0.008c0.441,2.906,2.58,5.743,6.433,7.967c6.199,3.579,15.135,4.595,22.913,3.075
				c-13.941,1.039-23.508-5.057-24.942-10.676c-0.572-2.242-1.571-7.203-1.571-7.203
				C254.682,383.548,272.42,383.315,283.545,376.899z"/>
			<path id="XMLID_521_" style="fill:#455A64;" d="M293.279,353.248c-0.289,1.48-0.911,2.942-1.868,4.349
				c-1.507,2.274-3.853,4.404-7.021,6.235c-12.146,7.012-31.845,7.012-43.991,0c-3.167-1.832-5.514-3.961-7.021-6.235
				c-0.948-1.408-1.57-2.87-1.859-4.349h-0.009c-1.083-5.27,1.886-10.766,8.889-14.808c12.146-7.02,31.845-7.02,43.991,0
				C291.393,342.483,294.362,347.978,293.279,353.248z"/>
			<path id="XMLID_519_" style="fill:#37474F;" d="M291.411,357.598c-1.507,2.274-3.853,4.404-7.021,6.235
				c-12.146,7.012-31.845,7.012-43.991,0c-3.167-1.832-5.514-3.961-7.021-6.235c-0.948-1.408-1.57-2.87-1.859-4.349h-0.009
				l1.381,9.484c0.632,3.817,3.474,7.535,8.546,10.458c11.578,6.678,30.338,6.678,41.916,0c4.999-2.887,7.842-6.56,8.518-10.323
				l0.072-0.487l1.335-9.132C292.99,354.728,292.368,356.19,291.411,357.598z"/>
			<path id="XMLID_517_" style="fill:#263238;" d="M280.727,340.552c-10.125-5.848-26.539-5.848-36.655,0
				c-5.73,3.312-8.212,7.779-7.463,12.092c0.577,3.312,3.068,6.533,7.463,9.069c10.116,5.847,26.53,5.847,36.655,0
				c4.386-2.536,6.876-5.757,7.454-9.06C288.938,348.33,286.457,343.863,280.727,340.552z"/>
			<path id="XMLID_515_" style="fill:#FAFAFA;" d="M238.319,356.652c1.266,1.842,3.171,3.571,5.752,5.06
				c10.116,5.847,26.53,5.847,36.655,0c2.577-1.49,4.481-3.22,5.746-5.061c-0.075-3.501-2.419-6.985-7.044-9.658
				c-9.408-5.433-24.659-5.433-34.059,0C240.741,349.668,238.397,353.154,238.319,356.652z"/>
		</g>
		<g>
			<path style="fill:#BA68C8;" d="M264.334,345.771c-4.652-1.26-5.44-11.338-2.834-21.973c2.535-10.346,10.65-25.861,12.376-25.52
				c1.726,0.341,3.879,17.204,2.666,28.34C275.072,340.109,268.986,347.032,264.334,345.771z"/>
			<path style="opacity:0.3;" d="M264.334,345.771c-4.652-1.26-5.44-11.338-2.834-21.973c2.535-10.346,10.65-25.861,12.376-25.52
				c1.726,0.341,3.879,17.204,2.666,28.34C275.072,340.109,268.986,347.032,264.334,345.771z"/>
			<path style="opacity:0.5;fill:#BA68C8;" d="M266.6,313.194c0.833,1.317,1.346,3.548,3.302,3.557
				c1.569,0.007,2.389-1.655,3.802-2.035c1.137-0.306,2.214,0.296,3.121,0.936c-0.015-0.405-0.032-0.809-0.052-1.212
				c-0.804-0.53-1.714-0.979-2.697-0.951c-0.879,0.025-1.583,0.499-2.255,1.018c-0.726,0.562-1.611,1.414-2.612,1.001
				c-1.13-0.466-1.454-1.886-2.033-2.835c-0.321-0.526-0.727-0.971-1.24-1.276c-0.126,0.285-0.252,0.571-0.377,0.858
				C265.974,312.469,266.338,312.779,266.6,313.194z M272.117,309.033c0.669-0.317,1.054-0.981,1.57-1.479
				c0.655-0.632,1.55-0.767,2.396-0.463c0.029,0.01,0.053,0.031,0.082,0.043c-0.044-0.36-0.089-0.712-0.135-1.058
				c-0.145-0.044-0.291-0.085-0.443-0.107c-0.673-0.1-1.384,0.021-1.944,0.423c-0.643,0.461-0.999,1.253-1.677,1.659
				c-1.214,0.728-2.182-0.597-2.546-1.593c-0.163-0.448-0.289-0.906-0.439-1.355c-0.123,0.233-0.247,0.471-0.372,0.712
				c0.083,0.319,0.164,0.639,0.26,0.943C269.285,308.065,270.523,309.789,272.117,309.033z M271.964,322.492
				c-0.849,0.517-1.564,1.384-2.543,1.664c-2.398,0.686-2.95-3.018-4.476-4.111c-0.646-0.463-1.421-0.636-2.176-0.568
				c-0.095,0.285-0.187,0.567-0.277,0.849c0.398-0.07,0.808-0.085,1.216,0.011c1.024,0.242,1.607,0.98,2.098,1.862
				c0.765,1.375,1.739,3.341,3.658,2.963c0.855-0.169,1.539-0.763,2.227-1.257c0.971-0.697,2.03-1.126,3.243-0.874
				c0.724,0.151,1.28,0.54,1.824,0.972c0.022-0.362,0.042-0.728,0.058-1.098c-0.664-0.497-1.376-0.883-2.217-0.984
				C273.678,321.813,272.756,322.01,271.964,322.492z M273.424,330.624c-1.061-0.264-2.203-0.061-3.173,0.417
				c-1.11,0.547-1.912,1.618-3.075,2.059c-2.533,0.96-2.925-2.71-4.781-3.611c-0.611-0.297-1.273-0.415-1.918-0.37
				c-0.04,0.288-0.081,0.576-0.116,0.86c0.246-0.016,0.492-0.018,0.734,0.015c1.27,0.173,2.03,0.94,2.612,2.023
				c0.898,1.671,2.076,3.027,4.126,2.028c1.095-0.534,1.88-1.535,3.007-2.017c1.226-0.524,2.725-0.568,3.778,0.345
				c0.194,0.168,0.437,0.491,0.712,0.873c0.095-0.358,0.181-0.733,0.268-1.106C275.026,331.429,274.341,330.852,273.424,330.624z"/>
			<path style="opacity:0.1;" d="M264.334,345.771c4.652,1.26,10.739-5.662,12.208-19.152c0.383-3.519,0.43-7.609,0.261-11.57
				c-3.801,3.121-7.611,9.49-7.611,9.49s-2.49-6.516-4.517-10.175c-1.32,3.242-2.466,6.54-3.175,9.434
				C258.894,334.434,259.682,344.511,264.334,345.771z"/>
		</g>
		<g>
			<path style="fill:#BA68C8;" d="M260.542,351.359c-6.121,3.928-11.827-10.041-14.87-20.585
				c-3.043-10.543-1.055-38.106,2.029-39.614c2.183-1.067,13.737,23.632,16.011,35.655
				C265.355,335.509,265.408,348.237,260.542,351.359z"/>
			<path style="opacity:0.1;" d="M260.542,351.359c-6.121,3.928-11.827-10.041-14.87-20.585
				c-3.043-10.543-1.055-38.106,2.029-39.614c2.183-1.067,13.737,23.632,16.011,35.655
				C265.355,335.509,265.408,348.237,260.542,351.359z"/>
			<path style="fill:#BA68C8;" d="M247.336,310.624c1.921,0.946,3.45,0.953,4.949-0.669c1.394-1.508,2.421-3.409,4.594-3.165
				c-0.211-0.485-0.422-0.965-0.634-1.441c-0.35-0.016-0.702,0.012-1.058,0.107c-1.898,0.508-2.75,2.483-4.081,3.731
				c-2.052,1.923-4.241-0.603-6.568-0.461c-0.071,0.004-0.139,0.021-0.21,0.028c-0.021,0.42-0.04,0.842-0.057,1.266
				C245.288,309.939,246.355,310.14,247.336,310.624z M264.155,329.589c-0.322-0.117-0.654-0.223-1.007-0.291
				c-1.011-0.194-2.06,0.047-2.888,0.655c-1.853,1.362-1.936,4.38-4.931,3.59c-2.279-0.601-3.987-2.102-6.378-0.904
				c-0.815,0.409-1.544,0.986-2.197,1.656c0.114,0.349,0.23,0.699,0.348,1.05c0.869-0.853,1.842-1.557,2.978-1.849
				c2.578-0.662,4.522,1.943,7.088,1.517c2.093-0.348,2.318-2.643,3.77-3.778c1.077-0.842,2.231-0.638,3.395-0.213
				C264.279,330.538,264.22,330.061,264.155,329.589z M247.443,300.616c0.716,0.986,1.722,2.073,3.049,1.391
				c1.419-0.729,1.527-2.453,2.44-3.577c-0.167-0.323-0.333-0.641-0.497-0.947c-0.886,1.186-1.327,3.763-3.025,3.671
				c-1.329-0.072-1.85-2.041-2.962-2.61c-0.38-0.194-0.752-0.251-1.108-0.214c-0.042,0.267-0.084,0.534-0.123,0.811
				c0.087-0.008,0.173-0.021,0.265-0.018C246.409,299.154,246.95,299.939,247.443,300.616z M252.053,321.539
				c2.415,0.522,3.595-2.355,4.684-3.952c0.809-1.186,2.025-2.41,3.354-2.836c-0.16-0.432-0.324-0.865-0.491-1.299
				c-0.448,0.099-0.88,0.253-1.261,0.47c-1.102,0.626-1.923,1.622-2.619,2.66c-0.73,1.087-1.331,2.546-2.46,3.278
				c-1.292,0.838-2.807-0.472-4.147-0.719c-1.244-0.229-2.536-0.119-3.725,0.305c-0.387,0.138-0.766,0.329-1.13,0.547
				c0.026,0.598,0.056,1.19,0.093,1.77c1.012-0.949,2.577-1.347,3.923-1.319C249.686,320.472,250.733,321.254,252.053,321.539z"/>
			<path style="opacity:0.1;" d="M260.501,315.868c-3.244,3.887-4.957,8.12-4.957,8.12s-6.644-9.011-11.31-13.094
				c-0.257,7.484,0.114,15.294,1.438,19.881c3.043,10.544,8.749,24.513,14.87,20.585c4.866-3.122,4.813-15.851,3.17-24.544
				C263.136,323.771,261.964,319.913,260.501,315.868z"/>
		</g>
		<g>
			<path style="fill:#BA68C8;" d="M260.123,358.542c-11.19,0.604-21.649-6.169-28.43-14.713
				c-6.782-8.544-12.079-26.188-10.547-27.272c1.532-1.084,19.587,10.048,26.365,18.08
				C256.401,345.171,260.123,358.542,260.123,358.542z"/>
			<path style="opacity:0.2;" d="M260.123,358.542c-11.19,0.604-21.649-6.169-28.43-14.713
				c-6.782-8.544-12.079-26.188-10.547-27.272c1.532-1.084,19.587,10.048,26.365,18.08
				C256.401,345.171,260.123,358.542,260.123,358.542z"/>
			<path style="fill:#BA68C8;" d="M235.697,330.514c0.654-1.055,0.281-2.325,0.138-3.461c-0.105-0.835,0.062-1.561,0.453-2.171
				c-0.421-0.303-0.842-0.601-1.263-0.895c-0.546,0.939-0.612,1.96-0.458,3.033c0.186,1.29,0.497,2.898-1.231,3.135
				c-1.883,0.258-4.487-1.425-5.995,0.438c-0.73,0.902-0.451,2.055-0.478,3.114c-0.011,0.442-0.161,0.929-0.404,1.361
				c0.202,0.425,0.409,0.847,0.619,1.266c0.44-0.539,0.749-1.213,0.834-1.897c0.161-1.301-0.348-2.981,1.406-3.258
				c1.215-0.193,2.386,0.369,3.586,0.454C233.975,331.708,235.093,331.487,235.697,330.514z M229.455,321.171
				c0.137-0.213,0.308-0.382,0.493-0.532c-0.341-0.211-0.676-0.416-1.006-0.614c-0.822,1.078-0.821,2.56-1.652,3.634
				c-0.555,0.717-1.273,0.771-2.112,0.6c-0.809-0.164-1.553-0.276-2.331,0.079c-0.167,0.076-0.321,0.168-0.468,0.268
				c0.083,0.268,0.167,0.537,0.255,0.813c0.343-0.194,0.731-0.314,1.174-0.326c0.847-0.024,1.633,0.421,2.487,0.363
				c0.592-0.04,1.087-0.329,1.482-0.761C228.697,323.69,228.74,322.279,229.455,321.171z M241.852,336.166
				c0.874-0.72,1.415-1.801,1.697-2.88c0.2-0.764,0.19-1.589,0.291-2.374c-0.345-0.313-0.697-0.626-1.059-0.94
				c-0.229,1.312-0.105,2.633-0.782,3.867c-0.776,1.414-1.937,1.826-3.483,1.824c-1.115-0.001-2.203,0.066-2.993,0.954
				c-0.731,0.822-0.962,1.948-1.116,3.001c-0.228,1.557-0.465,2.998-1.915,3.879c-0.25,0.152-0.509,0.266-0.771,0.365
				c0.261,0.328,0.536,0.649,0.808,0.972c0.603-0.273,1.153-0.656,1.607-1.194c1.874-2.22,0.355-6.632,4.332-6.628
				C239.722,337.014,240.837,337.002,241.852,336.166z M247.869,337.293c0.221-0.433,0.516-0.816,0.84-1.174
				c-0.316-0.404-0.638-0.805-0.969-1.203c-0.96,0.983-1.474,2.19-1.793,3.517c-0.342,1.426-0.528,2.976-1.457,4.171
				c-0.973,1.251-2.523,1.118-3.809,1.837c-1.1,0.615-1.936,1.612-2.386,2.784c-0.348,0.908-0.455,1.868-0.598,2.821
				c0.389,0.331,0.783,0.658,1.184,0.976c0.01-0.057,0.022-0.117,0.031-0.172c0.253-1.587,0.44-3.211,1.676-4.374
				c1.184-1.114,2.812-0.946,4.076-1.838C247.074,342.939,246.654,339.667,247.869,337.293z M252.718,341.956
				c-0.322,0.257-0.631,0.53-0.907,0.834c-1.91,2.098-1.673,4.822-2.374,7.389c-0.358,1.313-1.056,2.648-2.38,3.195
				c-1.066,0.441-2.273,0.014-3.2,0.852c-0.035,0.031-0.057,0.071-0.089,0.104c0.551,0.315,1.11,0.614,1.676,0.899
				c0.299-0.076,0.619-0.088,0.933-0.107c0.626-0.038,1.176-0.131,1.74-0.418c0.962-0.491,1.666-1.367,2.128-2.324
				c1.16-2.404,0.643-5.326,2.09-7.611c0.344-0.544,0.755-1.006,1.213-1.4C253.28,342.9,253.004,342.429,252.718,341.956z"/>
			<path style="opacity:0.2;" d="M234.922,323.915c1.053,9.263,5.997,34.192,25.201,34.627c0,0-3.722-13.371-12.613-23.905
				C244.635,331.23,239.733,327.268,234.922,323.915z"/>
		</g>
		<g>
			<path style="fill:#BA68C8;" d="M260.123,358.542c-8.803-1.284-16.354-6.856-20.237-23.435
				c-3.883-16.58-4.474-24.066-1.805-25.713c3.073-1.897,15.084,14.818,18.948,22.167
				C266.736,350.029,260.123,358.542,260.123,358.542z"/>
			<path style="opacity:0.2;fill:#FFFFFF;" d="M243.792,327.906c2.192,0.689,5.049,1.421,6.693-0.744
				c0.805-1.061,1.025-2.495,1.584-3.614c-0.385-0.562-0.779-1.128-1.18-1.694c-0.966,1.563-0.942,3.869-2.639,4.764
				c-1.275,0.673-2.787,0.231-4.075-0.158c-1.322-0.399-2.649-0.796-4.044-0.608c-0.772,0.104-1.477,0.367-2.107,0.741
				c0.096,0.484,0.205,1,0.309,1.507c0.284-0.16,0.577-0.305,0.881-0.419C240.77,327.096,242.258,327.423,243.792,327.906z
				 M241.193,319.324c0.664,0.269,1.315,0.54,2.044,0.389c1.336-0.276,2.035-1.568,2.717-2.614c0.201-0.307,0.419-0.61,0.675-0.868
				c-0.277-0.34-0.553-0.674-0.827-0.998c-0.056,0.058-0.115,0.107-0.168,0.171c-0.833,1.007-1.532,3.063-3.082,3.089
				c-0.751,0.013-1.468-0.481-2.195-0.639c-0.629-0.136-1.262-0.142-1.897-0.04c-0.641,0.102-1.231,0.34-1.759,0.671
				c0.043,0.38,0.094,0.782,0.148,1.188c0.724-0.414,1.526-0.691,2.361-0.723C239.904,318.923,240.552,319.065,241.193,319.324z
				 M250.797,337.74c0.841-1.228,1.448-2.615,2.689-3.507c1.45-1.041,2.909-0.978,4.486-0.798c-0.297-0.613-0.608-1.234-0.942-1.87
				c-1.014-0.108-2.007-0.127-3.04,0.193c-1.375,0.426-2.523,1.286-3.358,2.453c-0.761,1.063-1.275,2.358-2.253,3.25
				c-1.792,1.635-4.214,0.204-6.216-0.194c-0.585-0.116-1.172-0.162-1.755-0.137c0.155,0.578,0.313,1.145,0.477,1.694
				c0.734-0.006,1.506,0.102,2.315,0.354C246.189,340.11,248.798,340.66,250.797,337.74z M260.934,340.964
				c-0.148,0.043-0.295,0.07-0.443,0.126c-1.188,0.454-2.207,1.238-2.982,2.24c-0.853,1.102-1.305,2.439-2.111,3.567
				c-0.942,1.32-1.992,1.646-3.503,1.167c-1.324-0.42-2.513-0.727-3.868-0.285c-0.932,0.304-1.751,0.848-2.451,1.531
				c0.298,0.446,0.607,0.859,0.918,1.267c0.552-0.479,1.197-0.893,1.891-1.103c1.109-0.336,2.009-0.04,3.033,0.379
				c2.528,1.034,4.678,0.375,6.229-1.894c0.753-1.102,1.19-2.411,2.036-3.45c0.503-0.618,1.125-1.082,1.818-1.393
				C261.337,342.422,261.154,341.708,260.934,340.964z"/>
			<path style="opacity:0.15;" d="M257.028,331.56c-0.699-1.33-1.667-2.968-2.799-4.746c-3.805,11.769-5.031,28.935,5.893,31.727
				C260.123,358.542,266.736,350.029,257.028,331.56z"/>
		</g>
		<g>
			<path style="fill:#BA68C8;" d="M264.669,358.542c11.19,0.604,21.649-6.169,28.431-14.713
				c6.782-8.544,12.079-26.188,10.547-27.272c-1.532-1.084-19.587,10.048-26.365,18.08
				C268.392,345.171,264.669,358.542,264.669,358.542z"/>
			<path style="opacity:0.2;" d="M264.669,358.542c11.19,0.604,21.649-6.169,28.431-14.713c6.782-8.544,12.079-26.188,10.547-27.272
				c-1.532-1.084-19.587,10.048-26.365,18.08C268.392,345.171,264.669,358.542,264.669,358.542z"/>
			<path style="fill:#BA68C8;" d="M291.888,331.632c1.199-0.085,2.37-0.646,3.586-0.454c1.754,0.278,1.244,1.958,1.406,3.258
				c0.085,0.684,0.394,1.358,0.834,1.897c0.21-0.419,0.417-0.84,0.619-1.266c-0.243-0.432-0.393-0.919-0.404-1.361
				c-0.027-1.058,0.251-2.212-0.478-3.114c-1.508-1.863-4.112-0.18-5.995-0.438c-1.728-0.237-1.417-1.845-1.231-3.135
				c0.154-1.073,0.088-2.094-0.458-3.033c-0.421,0.294-0.842,0.592-1.263,0.895c0.391,0.609,0.558,1.336,0.453,2.171
				c-0.143,1.136-0.516,2.406,0.138,3.461C289.698,331.487,290.817,331.708,291.888,331.632z M297.014,324.694
				c0.396,0.432,0.89,0.721,1.482,0.761c0.854,0.058,1.64-0.387,2.487-0.363c0.443,0.012,0.831,0.132,1.174,0.326
				c0.089-0.275,0.173-0.545,0.255-0.813c-0.147-0.1-0.301-0.191-0.468-0.268c-0.777-0.356-1.522-0.243-2.331-0.079
				c-0.839,0.17-1.557,0.117-2.112-0.6c-0.831-1.074-0.829-2.556-1.652-3.634c-0.33,0.199-0.665,0.403-1.006,0.614
				c0.184,0.15,0.355,0.319,0.493,0.532C296.052,322.279,296.095,323.69,297.014,324.694z M286.324,337.013
				c3.978-0.005,2.459,4.408,4.332,6.628c0.454,0.538,1.004,0.921,1.607,1.194c0.272-0.323,0.547-0.643,0.808-0.972
				c-0.263-0.099-0.521-0.213-0.771-0.365c-1.45-0.881-1.687-2.323-1.915-3.879c-0.154-1.053-0.384-2.18-1.116-3.001
				c-0.791-0.888-1.878-0.956-2.993-0.954c-1.546,0.001-2.707-0.41-3.483-1.824c-0.678-1.234-0.553-2.555-0.782-3.867
				c-0.362,0.314-0.714,0.627-1.06,0.94c0.101,0.785,0.092,1.61,0.292,2.374c0.282,1.079,0.823,2.16,1.697,2.88
				C283.955,337.002,285.069,337.014,286.324,337.013z M280.128,344.638c1.265,0.891,2.892,0.724,4.076,1.838
				c1.235,1.163,1.422,2.787,1.676,4.374c0.009,0.054,0.021,0.115,0.031,0.172c0.401-0.318,0.795-0.644,1.184-0.976
				c-0.143-0.953-0.25-1.913-0.598-2.821c-0.45-1.172-1.286-2.169-2.386-2.784c-1.286-0.719-2.836-0.586-3.809-1.837
				c-0.928-1.194-1.114-2.744-1.457-4.171c-0.319-1.327-0.833-2.534-1.793-3.517c-0.33,0.398-0.653,0.799-0.969,1.203
				c0.324,0.358,0.619,0.741,0.84,1.174C278.138,339.667,277.717,342.939,280.128,344.638z M271.244,343.369
				c0.458,0.394,0.869,0.856,1.213,1.4c1.446,2.285,0.93,5.207,2.09,7.611c0.462,0.957,1.165,1.833,2.128,2.324
				c0.564,0.287,1.114,0.381,1.74,0.418c0.314,0.019,0.633,0.032,0.933,0.107c0.565-0.285,1.125-0.584,1.676-0.899
				c-0.033-0.033-0.055-0.073-0.089-0.104c-0.927-0.837-2.134-0.411-3.2-0.852c-1.323-0.547-2.021-1.883-2.38-3.195
				c-0.7-2.567-0.464-5.291-2.374-7.389c-0.276-0.304-0.585-0.577-0.907-0.834C271.788,342.429,271.512,342.9,271.244,343.369z"/>
			<path style="opacity:0.2;" d="M289.87,323.915c-1.053,9.263-5.997,34.192-25.201,34.627c0,0,3.722-13.371,12.613-23.905
				C280.157,331.23,285.059,327.268,289.87,323.915z"/>
		</g>
		<g>
			<path style="fill:#BA68C8;" d="M264.669,358.542c8.803-1.284,16.354-6.856,20.237-23.435c3.883-16.58,4.474-24.066,1.805-25.713
				c-3.073-1.897-15.084,14.818-18.948,22.167C258.056,350.029,264.669,358.542,264.669,358.542z"/>
			<path style="opacity:0.2;fill:#FFFFFF;" d="M285.578,327.681c0.304,0.114,0.597,0.259,0.881,0.419
				c0.105-0.507,0.213-1.023,0.31-1.507c-0.63-0.373-1.335-0.637-2.108-0.741c-1.395-0.188-2.722,0.209-4.044,0.608
				c-1.288,0.389-2.8,0.831-4.075,0.158c-1.697-0.895-1.673-3.201-2.639-4.764c-0.401,0.566-0.795,1.131-1.18,1.694
				c0.559,1.119,0.779,2.553,1.584,3.614c1.644,2.165,4.501,1.433,6.693,0.744C282.534,327.423,284.022,327.096,285.578,327.681z
				 M285.582,318.951c0.836,0.033,1.637,0.31,2.361,0.723c0.054-0.406,0.105-0.808,0.148-1.188
				c-0.528-0.332-1.118-0.569-1.759-0.671c-0.635-0.101-1.268-0.096-1.897,0.04c-0.727,0.158-1.444,0.652-2.195,0.639
				c-1.551-0.026-2.25-2.082-3.083-3.089c-0.053-0.065-0.112-0.113-0.168-0.171c-0.274,0.325-0.55,0.659-0.827,0.998
				c0.256,0.259,0.475,0.561,0.675,0.868c0.683,1.046,1.382,2.338,2.717,2.614c0.73,0.151,1.38-0.12,2.045-0.389
				C284.24,319.065,284.888,318.923,285.582,318.951z M281.591,339.18c0.809-0.252,1.581-0.361,2.315-0.354
				c0.164-0.549,0.323-1.116,0.478-1.694c-0.583-0.025-1.17,0.021-1.755,0.137c-2.002,0.397-4.424,1.829-6.216,0.194
				c-0.978-0.892-1.492-2.187-2.253-3.25c-0.835-1.167-1.983-2.027-3.358-2.453c-1.034-0.32-2.027-0.302-3.041-0.193
				c-0.334,0.636-0.645,1.258-0.942,1.87c1.577-0.179,3.036-0.243,4.486,0.798c1.241,0.891,1.848,2.279,2.689,3.507
				C275.994,340.66,278.604,340.11,281.591,339.18z M263.293,343.118c0.693,0.311,1.315,0.775,1.818,1.393
				c0.845,1.039,1.283,2.348,2.036,3.45c1.55,2.269,3.7,2.927,6.228,1.894c1.024-0.419,1.923-0.715,3.033-0.379
				c0.694,0.211,1.34,0.624,1.891,1.103c0.311-0.408,0.62-0.821,0.918-1.267c-0.7-0.684-1.52-1.228-2.451-1.531
				c-1.355-0.442-2.544-0.135-3.868,0.285c-1.511,0.479-2.561,0.153-3.503-1.167c-0.806-1.128-1.257-2.465-2.11-3.567
				c-0.775-1.002-1.794-1.786-2.982-2.24c-0.148-0.057-0.296-0.083-0.444-0.126C263.638,341.708,263.454,342.422,263.293,343.118z"
				/>
			<path style="opacity:0.15;" d="M267.764,331.56c0.699-1.33,1.667-2.968,2.799-4.746c3.805,11.769,5.031,28.935-5.893,31.727
				C264.669,358.542,258.056,350.029,267.764,331.56z"/>
		</g>
		<g>
			<path style="fill:#BA68C8;" d="M262.396,360.368c7.424,0,9.892-10.105,9.149-18.237c-0.743-8.132-5.881-23.605-9.149-23.605
				c-3.268,0-8.406,15.473-9.149,23.605C252.504,350.263,254.972,360.368,262.396,360.368z"/>
			<path style="opacity:0.3;fill:#FFFFFF;" d="M262.396,360.368c7.424,0,9.892-10.105,9.149-18.237
				c-0.743-8.132-5.881-23.605-9.149-23.605c-3.268,0-8.406,15.473-9.149,23.605C252.504,350.263,254.972,360.368,262.396,360.368z"
				/>
			<path style="opacity:0.2;fill:#FFFFFF;" d="M262.352,329.108c1.183-0.235,1.936-1.198,2.765-1.977
				c0.675-0.634,1.465-1.006,2.292-1.187c-0.19-0.482-0.382-0.952-0.576-1.404c-1.155,0.307-2.187,0.973-3.133,1.926
				c-0.452,0.455-0.93,0.947-1.552,1.164c-0.898,0.313-1.445-0.172-2.035-0.758c-0.707-0.702-1.447-1.244-2.442-1.459
				c-0.025-0.005-0.05-0.005-0.074-0.01c-0.155,0.381-0.308,0.773-0.46,1.172c0.931,0.165,1.828,0.637,2.587,1.453
				C260.432,328.788,261.278,329.321,262.352,329.108z M256.811,338.019c2.474,1.939,4.519-0.812,6.1-2.447
				c1.323-1.367,2.718-1.647,4.223-0.386c0.896,0.751,1.698,1.644,2.826,2.049c0.29,0.104,0.573,0.167,0.851,0.21
				c-0.095-0.462-0.196-0.929-0.305-1.403c-1.155-0.291-2.001-1.179-3.012-2.008c-2.211-1.813-4.202-1.053-5.951,0.955
				c-1.007,1.157-2.641,3.146-4.304,1.904c-0.977-0.73-1.441-1.973-2.462-2.681c-0.013-0.009-0.027-0.012-0.04-0.021
				c-0.105,0.408-0.205,0.813-0.302,1.216C255.401,336.056,255.892,337.298,256.811,338.019z M259.586,346.917
				c1.403,1.857,3.151,2.314,5.051,0.721c0.926-0.777,1.538-1.881,2.546-2.565c1.409-0.956,3.028-0.458,4.486,0.114
				c0.004-0.442-0.005-0.882-0.02-1.32c-0.669-0.27-1.344-0.52-2.062-0.643c-1.137-0.195-2.245-0.026-3.195,0.648
				c-1.052,0.746-1.696,1.91-2.71,2.693c-0.55,0.425-1.422,0.951-2.143,0.685c-0.849-0.313-1.358-1.373-1.977-2
				c-0.784-0.794-1.786-1.374-2.869-1.642c-1.253-0.31-2.481-0.154-3.552,0.354c-0.013,0.42-0.023,0.84-0.019,1.264
				C255.357,344.248,257.933,344.73,259.586,346.917z M266.63,354.482c-1.191,0.921-2.675,1.423-4.19,1.257
				c-0.803-0.087-1.541-0.336-2.111-0.922c-0.412-0.422-0.708-0.942-1.127-1.36c-0.754-0.753-1.739-1.234-2.794-1.384
				c-0.793-0.112-1.582-0.028-2.329,0.195c0.129,0.456,0.271,0.9,0.428,1.333c1.219-0.395,2.489-0.384,3.699,0.511
				c0.891,0.66,1.318,1.748,2.262,2.366c0.851,0.557,1.894,0.748,2.896,0.748c1.066,0.001,2.134-0.264,3.078-0.761
				c1.066-0.56,1.825-1.527,2.861-2.125c0.274-0.158,0.562-0.285,0.856-0.388c0.208-0.541,0.391-1.103,0.554-1.682
				c-0.337,0.038-0.681,0.102-1.038,0.22C268.447,352.897,267.626,353.712,266.63,354.482z"/>
		</g>
	</g>
	<g id="Plants_2_">
		<g>
			<g>
				<path style="fill:#BA68C8;" d="M101.145,425.02c-0.137-0.077-0.233-0.209-0.263-0.363
					c-4.186-21.226-24.023-34.849-32.493-40.666c-1.37-0.94-2.451-1.683-3.153-2.24c-3.141-2.492-4.758-6.026-4.321-9.452
					c0.392-3.087,2.459-5.676,5.671-7.1c7.857-3.489,21.657,5.275,31.411,19.943c13.67,20.559,9.966,37.149,9.927,37.315
					c-0.041,0.174-0.167,0.316-0.334,0.378l-5.996,2.22c-0.069,0.025-0.141,0.036-0.212,0.033
					C101.3,425.084,101.218,425.061,101.145,425.02z M97.106,385.736c-9.474-14.248-22.691-22.839-30.087-19.56
					c-2.904,1.289-4.696,3.512-5.045,6.258c-0.387,3.052,1.08,6.222,3.927,8.479c0.673,0.534,1.741,1.267,3.093,2.196
					c8.497,5.835,28.286,19.426,32.811,40.726l5.132-1.9C107.346,419.719,109.544,404.444,97.106,385.736z"/>
			</g>
			<g>
				<path style="fill:#BA68C8;" d="M104.787,423.826c0.024,0.001,0.048,0.001,0.072-0.002c0.294-0.024,0.512-0.283,0.487-0.578
					c-2.131-25.077-21.949-47.402-34.12-51.163c-0.283-0.089-0.582,0.07-0.669,0.353c-0.087,0.282,0.071,0.582,0.353,0.669
					c12.035,3.718,31.35,26.45,33.372,50.232C104.304,423.608,104.524,423.814,104.787,423.826z"/>
			</g>
		</g>
		<g>
			<g>
				<path style="fill:#BA68C8;" d="M107.378,422.868c0.077,0.004,0.156-0.009,0.232-0.041l4.046-1.695
					c0.163-0.068,0.282-0.212,0.317-0.385c0.05-0.246,4.943-24.922-3.813-56.574c-4.46-16.124-15.68-31.142-26.679-35.711
					c-5.289-2.194-10.245-2.026-14.734,0.505c-2.538,1.431-4.025,3.307-4.42,5.576c-1.094,6.273,6.172,14.692,13.863,23.606
					c5.382,6.236,10.947,12.684,13.792,18.592c0.128,0.267,0.448,0.376,0.714,0.25c0.266-0.129,0.378-0.447,0.249-0.714
					c-2.906-6.036-8.518-12.539-13.945-18.828c-7.522-8.717-14.627-16.949-13.62-22.723c0.342-1.964,1.615-3.544,3.893-4.829
					c4.185-2.361,8.827-2.514,13.797-0.447c10.72,4.452,21.679,19.175,26.059,35.008c8.192,29.614,4.354,53.02,3.847,55.798
					l-3.78,1.584c-0.272,0.113-0.401,0.427-0.287,0.699C106.993,422.737,107.178,422.859,107.378,422.868z"/>
			</g>
			<g>
				<path style="fill:#BA68C8;" d="M106.838,407.53c0.013,0.001,0.026,0.001,0.039,0.001c0.295-0.007,0.529-0.252,0.523-0.547
					c-0.854-39.046-25.659-67.817-32.6-72.477c-0.244-0.163-0.578-0.1-0.742,0.145c-0.165,0.245-0.1,0.578,0.145,0.742
					c6.84,4.593,31.283,32.989,32.127,71.613C106.336,407.291,106.56,407.517,106.838,407.53z"/>
			</g>
		</g>
	</g>
	<g id="Plants_5_">
		<g>
			<g>
				<path style="fill:#BA68C8;" d="M401.53,423.088c-0.071,0.003-0.143-0.008-0.212-0.033l-5.996-2.22
					c-0.167-0.062-0.293-0.204-0.334-0.378c-0.039-0.165-3.743-16.755,9.927-37.315c9.755-14.669,23.554-23.432,31.411-19.943
					c3.212,1.425,5.279,4.013,5.671,7.1c0.436,3.426-1.18,6.96-4.321,9.452c-0.702,0.557-1.783,1.299-3.153,2.24
					c-8.471,5.817-28.308,19.44-32.493,40.666c-0.03,0.154-0.126,0.286-0.263,0.363C401.693,423.061,401.611,423.084,401.53,423.088
					z M395.974,419.936l5.132,1.9c4.526-21.3,24.315-34.891,32.811-40.726c1.352-0.929,2.42-1.662,3.093-2.196
					c2.847-2.258,4.314-5.428,3.927-8.479c-0.349-2.746-2.141-4.969-5.045-6.258c-7.396-3.279-20.612,5.312-30.087,19.56
					C393.367,402.444,395.565,417.719,395.974,419.936z"/>
			</g>
			<g>
				<path style="fill:#BA68C8;" d="M398.124,421.826c-0.024,0.001-0.048,0.001-0.072-0.002c-0.294-0.024-0.512-0.283-0.487-0.578
					c2.131-25.077,21.949-47.402,34.12-51.163c0.283-0.089,0.582,0.07,0.669,0.353c0.087,0.282-0.071,0.582-0.353,0.669
					c-12.035,3.718-31.35,26.45-33.372,50.232C398.607,421.608,398.387,421.814,398.124,421.826z"/>
			</g>
		</g>
		<g>
			<g>
				<path style="fill:#BA68C8;" d="M395.533,420.868c-0.077,0.004-0.156-0.009-0.232-0.041l-4.046-1.695
					c-0.163-0.068-0.282-0.212-0.318-0.385c-0.05-0.246-4.943-24.922,3.813-56.574c4.46-16.124,15.68-31.142,26.679-35.711
					c5.289-2.194,10.245-2.026,14.734,0.505c2.538,1.431,4.025,3.307,4.42,5.576c1.094,6.273-6.172,14.692-13.863,23.606
					c-5.382,6.236-10.947,12.684-13.792,18.592c-0.128,0.267-0.448,0.376-0.714,0.25c-0.266-0.129-0.378-0.447-0.25-0.714
					c2.906-6.036,8.518-12.539,13.945-18.828c7.522-8.717,14.627-16.949,13.62-22.723c-0.342-1.964-1.615-3.544-3.893-4.829
					c-4.185-2.361-8.828-2.514-13.797-0.447c-10.72,4.452-21.679,19.175-26.059,35.008c-8.192,29.614-4.354,53.02-3.847,55.798
					l3.78,1.584c0.272,0.113,0.401,0.427,0.286,0.699C395.918,420.737,395.733,420.859,395.533,420.868z"/>
			</g>
			<g>
				<path style="fill:#BA68C8;" d="M396.073,405.53c-0.013,0.001-0.026,0.001-0.039,0.001c-0.295-0.007-0.529-0.252-0.523-0.547
					c0.854-39.046,25.659-67.817,32.6-72.477c0.244-0.163,0.578-0.1,0.742,0.145c0.164,0.245,0.1,0.578-0.145,0.742
					c-6.84,4.593-31.283,32.989-32.127,71.613C396.575,405.291,396.35,405.517,396.073,405.53z"/>
			</g>
		</g>
	</g>
</g>
<g id="Mirror">
	<g id="Mirror_6_">
		<g>
			<path style="fill:#455A64;" d="M420.958,436.151c-1.366,0-3.093-0.411-5.206-1.63l-66.837-38.592
				c-5.855-3.38-11.52-11.213-12.898-17.833l-39.446-190.201c-0.251-1.197,0.517-2.369,1.714-2.617
				c1.208-0.259,2.369,0.517,2.617,1.714l39.446,190.201c1.115,5.347,6.052,12.172,10.78,14.902l66.837,38.592
				c1.887,1.087,3.227,1.212,3.724,0.86c0.493-0.357,0.797-1.671,0.359-3.804l-38.979-189.913c-0.246-1.197,0.525-2.367,1.723-2.613
				c1.199-0.244,2.364,0.525,2.613,1.723l38.979,189.913c1.053,5.127-0.867,7.389-2.105,8.284
				C423.617,435.613,422.523,436.151,420.958,436.151z"/>
		</g>
		<g>
			<g>
				<polygon style="fill:#BA68C8;" points="276.771,405.998 375.659,463.092 393.637,151.674 294.749,94.581 				"/>
				<polygon style="opacity:0.45;fill:#FFFFFF;" points="276.771,405.998 375.659,463.092 393.637,151.674 294.749,94.581 				"/>
				<polygon style="fill:#BA68C8;" points="398.204,149.038 393.637,151.674 375.659,463.092 380.226,460.455 				"/>
			</g>
			<g>
				<polygon style="fill:#BA68C8;" points="280.781,336.523 379.67,393.616 397.648,82.199 298.76,25.106 				"/>
				<polygon style="fill:#FAFAFA;" points="287.639,332.814 304.786,36.252 390.79,85.907 373.642,382.471 				"/>
				<g>
					<polygon style="fill:#BA68C8;" points="402.215,79.562 397.648,82.199 379.67,393.616 384.237,390.979 					"/>
					<polygon style="opacity:0.2;" points="402.215,79.562 397.648,82.199 379.67,393.616 384.237,390.979 					"/>
				</g>
				<g>
					<polygon style="fill:#BA68C8;" points="303.327,22.469 298.76,25.106 397.648,82.199 402.215,79.562 					"/>
					<polygon style="opacity:0.2;fill:#FFFFFF;" points="303.327,22.469 298.76,25.106 397.648,82.199 402.215,79.562 					"/>
				</g>
			</g>
			<g style="opacity:0.55;">
				<g id="Character_4_">
					<g id="Bottom_4_">
						<g>
							<path style="fill:#B16668;" d="M370.824,343.875l-1.411,24.445l-0.329,5.691l-4.065-2.35l-3.934-2.269l-11.165-6.445
								c-1.654-9.068-3.096-17.066-3.096-17.066l6.173-0.615l0.837-0.081h0.01L370.824,343.875z"/>
						</g>
						<path style="fill:#37474F;" d="M371.242,241.852c-1.473,34.081-2.512,49.473-2.138,53.265c0.202,2.128,1.62,6.588,2.31,10.948
							c0.691,4.36,0.915,11.81,0.915,11.81l-1.505,26l-1.411,24.445c-1.916,0.816-5.412,1.236-8.327,1.072l-11.165-6.445
							l-0.595-0.343c-1.836-10.338-6.213-34.928-8.039-43.784c-2.683-12.941-7.756-49.594-7.756-49.594l-7.434,26.395
							c0,0,1.876,11.579-0.857,23.864c-1.866,8.402-4.125,18.276-5.87,25.831l-19.154-11.065l-0.595-0.343l-4.004-2.31
							c-0.101-14.252-0.171-32.246-0.101-42.443c0.02-2.017,0.05-4.276,0.091-6.758l4.085-70.624v-0.01
							c0.645-6.021,1.382-11.831,2.229-17.197h0.04l57.814,1.553C365.755,204.684,372.392,215.184,371.242,241.852z"/>
						<path style="fill:#263238;" d="M303.971,222.835c3.309,7.503,13.873,12.219,18.432,13.002l8.615,33.151l-4.921,26.636
							l7.432-26.396l-9.662-39.533C323.867,229.695,311.362,229.618,303.971,222.835z"/>
						<path style="fill:#263238;" d="M342.867,265.615c-1.278-9.776-2.548-19.564-3.955-29.338c0.643,9.853,1.4,19.695,2.42,29.518
							c0.999,9.824,2.802,31.365,7.745,58.675c1.757,9.707,4.413,24.141,6.714,33.746c-1.542-9.75-3.487-24.33-5.193-34.052
							C345.548,295.387,344.179,275.386,342.867,265.615z"/>
						<path style="fill:#263238;" d="M305.853,238.826l-2.945,25.609c-0.454,4.266-0.948,8.533-1.372,12.809
							c-0.414,4.256-0.888,8.543-1.039,12.769c-0.131,4.246-0.091,8.563-0.101,12.85l-0.01,12.89c0,6.163-0.061,12.335-0.171,18.498
							l-0.595-0.343c-0.343-6.042-0.605-12.093-0.787-18.135c-0.262-8.604-0.474-17.167-0.323-25.831
							c0.484-8.674,1.664-17.177,2.875-25.71C302.615,255.731,304.088,247.248,305.853,238.826z"/>
					</g>
					<g id="Top_5_">
						<g>
							<path style="fill:#E0E0E0;" d="M327.064,133.529l-4.87,24.429c0,0-0.434,0.356-1.177,0.987l-0.009,0
								c-0.578,0.475-1.359,1.104-2.275,1.862c-3.759,3.076-9.919,8.096-15.081,12.153c-0.501,0.392-1.324,1.005-1.796,1.369
								l0.403-6.985l0.909-15.708l0.773-13.359c2.535-2.44,5.94-4.889,10.22-5.594C318.441,131.978,321.842,133.474,327.064,133.529
								z"/>
						</g>
						<g>
							<path style="fill:#B16668;" d="M303.597,198.821c-2.712-3.124-1.713-7.957,0.335-12.487
								c0.442-6.954,0.345-13.596,0.345-13.596l53.207,9.766c-1.892,7.471-1.581,6.225,2.29,13.621
								C348.152,211.127,308.772,206.813,303.597,198.821z"/>
							<path style="fill:#455A64;" d="M365.844,162.542c-0.92,1.965-1.875,4.173-2.814,6.496l0,0.009
								c-0.495,1.231-0.982,2.5-1.459,3.77c-0.213,0.569-0.427,1.148-0.631,1.718l0,0.009c-1.763,4.912-3.241,9.765-3.921,13.311
								c-0.211,0.136-0.432,0.271-0.661,0.397c-0.173,0.108-0.364,0.207-0.546,0.306c-12.548,6.64-44.655,5.09-51.811-3.342
								c-0.119-0.135-0.228-0.28-0.328-0.414c-0.435-2.067-0.373-7.533-0.021-11.842c0.097-1.157,0.211-2.229,0.348-3.13
								c-0.425-0.681-1.338-1.692-1.741-2.486l0.909-15.708c2.023-3,5.877-6.099,11.077-10.145
								c6.143-4.775,12.819-7.962,12.819-7.962l6.776-0.242l6.153-0.212l12.578,1.375c0,0,1.252,0.439,5.579,2.214
								c1.287,0.525,2.78,1.093,4.234,1.716c0.009,0,0.019,0.01,0.028,0.01c1.305,0.554,2.59,1.163,3.666,1.805
								C368.452,141.626,370.024,153.623,365.844,162.542z"/>
							<path style="fill:#37474F;" d="M317.388,171.156c3.068,4.466,15.679,11.36,25.731,4.633
								C339.82,184.71,319.371,182.915,317.388,171.156z"/>
						</g>
						<g id="Head_5_">
							<path style="fill:#263238;" d="M323.394,97.597c-0.887,0.758-2,1.255-3.17,1.337c-1.187,0.083-2.546-0.173-3.435,0.618
								c-0.475,0.423-0.7,1.108-0.568,1.731c0.132,0.622,0.616,1.157,1.222,1.35c-1.348-0.092-2.611-0.979-3.156-2.214
								c-0.545-1.236-0.349-2.767,0.491-3.824c0.51-0.643,1.228-1.112,1.665-1.806c0.439-0.698,0.546-1.594,0.285-2.376
								c-0.401-1.2-1.226-1.78-1.697-2.955c-0.332-0.829-0.622-1.992-0.466-2.871c0.208-1.171,0.619-2.338,1.398-3.237
								c1.688-1.948,5.251-2.712,7.711-2.896c-0.428-1.642-0.214-4.532,3.331-6.831c2.677-1.736,6.827-1.648,9.443,0.286
								c0.085-2.071,1.734-3.842,3.672-4.579c1.937-0.737,4.099-0.606,6.132-0.201c3.282,0.653,6.789,2.38,7.725,5.593
								c4.463-1.03,8.232,0.904,10.299,3.489c2.067,2.585,2.685,7.393,0.226,10.801c6.607,4.143,6.707,12.811,4.44,18.715
								c-1.958,5.1-5.723,6.995-10.15,11.626c-0.845,0.884-5.045,4.932-5.195,6.145L323.394,97.597z"/>
							<path style="fill:#BA68C8;" d="M334.734,83.168c14.041-2.641,27.714,9.654,27.535,25.673
								c1.982-9.56,0.57-15.292-4.278-20.564C350.21,79.815,339.528,80.106,334.734,83.168z"/>
							<path id="XMLID_496_" style="fill:#B16668;" d="M327.972,88.731c0,0-5.169,3.982-6.446,20.017
								c-0.917,11.512,0.974,15.953,4.37,18.027c2.026,1.237,4.687,1.826,8.292,2.11l-0.395,5.044c0,0-12.624,11.012-3.435,13.2
								c4.888,1.164,9.986-0.811,14.528-3.051c4.645-2.291,7.42-7.109,7.42-7.109l1.47-13.835c0,0,3.026,2.872,7.079,0.031
								c3.654-2.561,4.825-7.445,2.823-10.592c-2.002-3.147-5.865-2.858-8.473,0.458c0,0-3.838,0.91-2.836-3.947
								c0,0-2.749-1.429-3.679-6.523c-0.476-2.603,2.466-7.474,0.628-9.544c-2.852-2.404-8.687,0.652-13.99,0.254
								C332.602,93.063,329.896,89.318,327.972,88.731z"/>
							<g>
								<g>
									<path id="XMLID_492_" style="fill:#9A4A4D;" d="M338.336,115.175l-5.38,2.641c0.709,1.546,2.488,2.209,3.973,1.48
										C338.415,118.567,339.045,116.723,338.336,115.175z"/>
									<path style="fill:#F28F8F;" d="M337.94,116.743c-1.402,0.082-2.472,1.285-2.39,2.687c0.003,0.051,0.018,0.098,0.024,0.148
										c0.454,0.014,0.917-0.066,1.355-0.281c0.98-0.481,1.577-1.449,1.674-2.495C338.388,116.757,338.169,116.729,337.94,116.743
										z"/>
								</g>
								<path id="XMLID_490_" style="fill:#263238;" d="M325.34,100.297l3.952-1.223c-0.299-1.113-1.426-1.741-2.518-1.403
									C325.683,98.009,325.041,99.185,325.34,100.297z"/>
								<path id="XMLID_314_" style="fill:#263238;" d="M340.792,99.065l4.08,3.319c0.967-1.101,0.837-2.737-0.291-3.653
									C343.456,97.814,341.759,97.964,340.792,99.065z"/>
								<polygon id="XMLID_312_" style="fill:#9A4A4D;" points="335.031,102.559 332.175,114.383 326.297,110.645 								"/>
								<path id="XMLID_305_" style="fill:#9A4A4D;" d="M334.188,128.883c9.473,0.04,14.225-1.822,16.305-4.95
									c0,0-1.262,4.217-4.47,5.561c-5.555,2.329-12.017,1.799-12.017,1.799L334.188,128.883z"/>
								<path id="XMLID_293_" style="fill:#263238;" d="M328.663,103.834c-0.016,1.012-0.86,1.841-1.884,1.853
									c-1.025,0.011-1.842-0.8-1.826-1.812c0.016-1.012,0.859-1.841,1.883-1.852C327.861,102.011,328.679,102.822,328.663,103.834
									z"/>
								<path id="XMLID_275_" style="fill:#263238;" d="M342.173,107.368c-0.13,1.026-0.893-0.728-2.105-1.132
									c-1.212-0.405-2.749,0.59-2.283-0.333c0.465-0.924,1.495-1.327,2.706-0.923
									C341.703,105.384,342.299,106.379,342.173,107.368z"/>
								<path style="fill:#9A4A4D;" d="M338.307,104.434c0.108-0.209,0.318-0.359,0.522-0.486c0.33-0.205,0.683-0.393,1.066-0.472
									c0.339-0.07,0.665-0.146,1.015-0.114c0.476,0.044,0.888,0.211,1.257,0.512c0.201,0.163,0.38,0.347,0.537,0.552
									c0.191,0.25,0.307,0.458,0.295,0.776c-0.001,0.041-0.03,0.064-0.07,0.046c-0.077-0.035-0.139-0.004-0.218-0.063
									c-0.09-0.068-0.162-0.159-0.249-0.232c-0.141-0.118-0.301-0.216-0.467-0.296c-0.362-0.175-0.786-0.322-1.189-0.358
									c-0.592-0.053-1.208-0.022-1.761,0.222c-0.151,0.067-0.613,0.383-0.769,0.204c-0.041-0.047-0.034-0.119-0.016-0.179
									C338.273,104.506,338.289,104.469,338.307,104.434z"/>
							</g>
							<g>
								<path style="fill:#BA68C8;" d="M354.062,126.306c-0.228,3.025,2.048,5.682,5.083,5.91c3.025,0.228,5.682-2.059,5.91-5.083
									c0.166-2.201-0.989-4.187-2.792-5.202c-0.231,0.255-0.492,0.499-0.762,0.731c1.62,0.769,2.693,2.486,2.549,4.396
									c-0.186,2.472-2.358,4.34-4.83,4.154c-2.482-0.187-4.34-2.358-4.154-4.83c0.059-0.784,0.327-1.532,0.749-2.167
									c0.456-0.693,1.115-1.26,1.9-1.616c0.261-0.112,0.374-0.406,0.262-0.657c-0.112-0.261-0.416-0.375-0.667-0.262
									c-1.036,0.468-1.881,1.223-2.456,2.16C354.404,124.574,354.128,125.422,354.062,126.306z"/>
							</g>
						</g>
						<g>
							<g>
								<path style="fill:#9A4A4D;" d="M350.557,168.674c-2.529-2.443-6.968-6.66-9.08-6.432c-2.112,0.228-6.067,0.975-6.067,0.975
									L350.557,168.674z"/>
								<path style="fill:#B16668;" d="M353.605,170.478c-9.638-5.608-8.282-5.652-14.861-7.342
									c-6.579-1.69-11.414-2.688-15.08-3.594c-3.666-0.906-4.998-1.192-5.099,0.421c-0.101,1.613,2.231,3.177,4.969,4.401
									c2.738,1.224,7.465,3.326,7.465,3.326s-1.987,2.112-3.17,3.466c-1.39,1.59-0.9,3.546,0.531,4.392
									c-0.968,1.433-1.138,3.87,0.688,4.565c0.16,2.589,1.035,3.191,2.479,3.553c1.444,0.362,3.24,0.593,4.355,0.138
									c1.115-0.455,2.341-1.301,2.341-1.301c2.182,1.873,5.72,5.01,11.12,3.782c3.1-0.801,12.443,6.222,12.443,6.222
									c5.708-2.279,5.965-8.106,3.99-15.386C365.777,177.122,357.893,172.973,353.605,170.478z"/>
								<path style="fill:#9A4A4D;" d="M328.917,166.163c1.438,0.401,2.368,0.064,3.895,0.829c-0.689-0.084-1.223,0.198-1.811,0.699
									c0,0-3.887-1.728-6.654-2.964C324.351,164.728,327.48,165.762,328.917,166.163z"/>
								<path style="fill:#9A4A4D;" d="M328.361,175.549c0.398-1.165,1.02-2.208,1.769-3.17c0.385-0.472,0.803-0.927,1.3-1.309
									c0.48-0.36,1.116-0.748,1.752-0.594c-0.302,0.068-0.538,0.229-0.749,0.423c-0.219,0.177-0.41,0.396-0.607,0.602
									c-0.379,0.434-0.75,0.883-1.111,1.346C329.975,173.759,329.256,174.702,328.361,175.549z"/>
								<path style="fill:#9A4A4D;" d="M329.049,180.113c-0.007-0.634,0.284-1.228,0.571-1.758c0.294-0.54,0.651-1.037,1.027-1.516
									c0.389-0.469,0.803-0.919,1.268-1.321c0.458-0.396,0.974-0.79,1.58-0.956c-0.449,0.415-0.777,0.907-1.158,1.361
									l-1.108,1.387l-1.126,1.371C329.742,179.151,329.321,179.569,329.049,180.113z"/>
								<path style="fill:#9A4A4D;" d="M338.224,182.503c-0.479-0.246-0.911-0.564-1.316-0.852
									c-0.411-0.279-0.808-0.517-1.195-0.517c-0.194-0.014-0.396,0.023-0.603,0.096c-0.232,0.084-0.467,0.194-0.71,0.271
									c-0.48,0.177-0.985,0.312-1.525,0.412c0.392-0.351,0.82-0.667,1.273-0.94c0.224-0.146,0.453-0.268,0.691-0.4
									c0.271-0.123,0.587-0.197,0.911-0.188c0.67,0.038,1.18,0.438,1.54,0.826C337.666,181.606,337.943,182.045,338.224,182.503z"
									/>
								<path style="fill:#9A4A4D;" d="M334.992,178.989c0.113,0.313,0.262,0.501,0.433,0.645c0.18,0.146,0.395,0.304,0.615,0.473
									c0.429,0.354,0.861,0.761,1.117,1.354c-0.632-0.133-1.118-0.411-1.587-0.77c-0.222-0.193-0.458-0.4-0.618-0.717
									C334.769,179.656,334.809,179.243,334.992,178.989z"/>
							</g>
							<path style="fill:#E0E0E0;" d="M382.024,150.128l-1.624,28.07l-0.161,2.905l-1.19,20.546
								c-2.542-0.484-5.255-1.352-8.714-2.804c-8.119-3.389-10.883-4.892-12.174-6.435c-1.16-1.392-1.16-2.854-1.15-3.127v-0.01
								c0-0.02,0-0.03,0-0.03l0.625,0.424l0.051,0.03l0.716,0.454l0.04,0.03c0.141,0,5.457-0.05,5.568-7.625
								c0.071-5.517-2.693-7.726-3.036-7.988c-0.02-0.01-0.03-0.02-0.03-0.02l-0.121-0.071l-0.393-0.212l-0.696-0.373l-0.081-0.04
								l-0.827-0.444l-0.121-0.071c0,0,0.313-1.251,2.864-0.514c0.151,0.05,0.323,0.101,0.494,0.161
								c2.834,0.988,3.571,1.362,3.641,1.392l-1.533-3.076l-1.14-2.249v-0.01l-1.402-2.784c0,0-7.313-14.201,0.756-27.878
								c0.01,0,0.01,0.01,0.02,0.01c3.742,1.231,14.02-1.957,18.539,8.957C381.258,148.121,381.631,149.059,382.024,150.128z"/>
							<path style="opacity:0.1;" d="M380.4,178.198l-0.161,2.905c-4.499-3.45-8.563-4.68-14.524-6.717l-0.01-0.01l-1.533-3.076
								c0,0,3.974,1.079,7.434,2.3C374.116,174.486,377.737,176.302,380.4,178.198z"/>
						</g>
					</g>
				</g>
			</g>
			<g id="Shines_1_" style="opacity:0.1;">
				<polygon style="fill:#BA68C8;" points="295.158,202.775 294.442,215.159 388.77,120.83 389.486,108.447 				"/>
				<polygon style="fill:#BA68C8;" points="303.223,63.291 302.507,75.675 328.334,49.847 320.937,45.577 				"/>
				<polygon style="fill:#BA68C8;" points="358.63,67.339 340.187,56.691 301.359,95.518 299.574,126.395 				"/>
				<polygon style="fill:#BA68C8;" points="387.761,138.277 293.433,232.606 292.15,254.795 386.479,160.466 				"/>
				<polygon style="fill:#BA68C8;" points="377.427,317.012 379.212,286.135 316.1,349.247 334.543,359.896 				"/>
				<polygon style="fill:#BA68C8;" points="380.457,264.607 381.173,252.223 295.845,337.552 303.241,341.823 				"/>
				<polygon style="fill:#BA68C8;" points="385.023,185.646 385.739,173.262 291.41,267.591 290.694,279.974 				"/>
			</g>
		</g>
	</g>
</g>
<g id="Character">
	<g id="Character_2_">
		<g id="Bottom_1_">
			<g>
				<path style="fill:#B16668;" d="M188.28,392.29c-0.865-1.045-1.636-1.594-2.095-5.28c-0.657-5.287-0.056-17.313,0.601-45.945
					l-25.496,6.119c0,0,4.497,19.94,6.313,29.037c0.73,3.654,1.575,8.51,1.555,9.181c-0.041,0.105,0.132,0.304,0.105,0.984
					c-0.243,5.466,6.881,7.982,11.517,11.856c1.831,1.531,7.154,6.046,12.604,9.121c3.411,1.925,10.502,2.426,11.489,0.219
					C199.233,402.83,192.691,397.619,188.28,392.29z"/>
				<g>
					<path style="fill:#263238;" d="M214.572,413.944c0.3,0.015,0.594,3.345-1.105,4.673c-1.961,1.532-7.614,3.932-14.868,2.636
						c-7.255-1.296-11.099-3.745-13.902-6.33c-2.803-2.586-6.731-6.231-9.999-7.119c-3.035-0.824-6.299-2.374-7.235-3.37
						c-0.936-0.995-0.596-5.204-0.596-5.204L214.572,413.944z"/>
					<path id="XMLID_282_" style="fill:#37474F;" d="M168.967,383.876c0,0-0.423-0.034-0.659,0.933
						c-0.281,1.151,0.012,3.974-0.498,5.876c-1.414,5.265-1.173,7.824-0.875,10.004c0.298,2.179,5.226,3.921,8.363,5.292
						c3.204,1.4,6.856,4.145,10.038,7.037c3.294,2.993,10.374,6.179,15.128,6.478c7.258,0.456,12.057-1.288,13.635-3.828
						c1.953-3.143,0.634-5.082-7.527-9.352c-1.545-0.808-6.937-4.36-8.771-5.642c-1.939-1.354-3.787-2.846-5.476-4.501
						c-0.855-0.838-1.669-1.718-2.426-2.644c-0.667-0.815-1.614-1.809-1.984-2.801c-0.084-0.225-0.137-0.486-0.21-0.719
						c-0.212-0.672-0.35-1.289-0.45-1.982c-0.101-0.7-0.137-1.716-0.777-2.164c-0.735-0.514-2.105-0.52-2.967-0.496
						c-1.083,0.03-2.174,0.115-3.241,0.3c-1.242,0.216-2.669,0.257-3.452,1.376c-0.6,0.857-0.74,1.97-0.833,2.991
						c-0.045,0.486-0.057,0.977-0.086,1.465c-0.012,0.208,0.059,0.587-0.229,0.486c-0.274-0.096-0.548-0.839-0.642-1.092
						c-0.205-0.557-0.325-1.148-0.553-1.696c-0.26-0.628-0.557-1.273-0.953-1.817c-0.371-0.508-1.609-0.55-2.197-0.777
						c-0.647-0.25-1.717-1.024-2.099-1.442L168.967,383.876z"/>
					<path style="fill:#FAFAFA;" d="M207.888,407.016c-10.551,0.218-14.175,6.553-14.816,10.55c2.561,1.048,5.218,1.792,7.391,1.928
						c7.258,0.456,12.356-1.27,13.934-3.81C216.24,412.719,215.207,410.205,207.888,407.016z"/>
					<g>
						<g>
							<path style="fill:#F0F0F0;" d="M192.119,406.364c-0.114-0.005-0.228-0.048-0.319-0.132c-0.211-0.19-0.227-0.515-0.037-0.726
								c1.55-1.722,5.887-3.891,9.688-3.291c0.281,0.044,0.474,0.308,0.429,0.587c-0.044,0.28-0.3,0.472-0.587,0.428
								c-3.55-0.55-7.537,1.598-8.766,2.964C192.419,406.314,192.268,406.371,192.119,406.364z"/>
						</g>
						<g>
							<path style="fill:#F0F0F0;" d="M187.717,403.507c-0.115-0.005-0.228-0.048-0.32-0.131c-0.211-0.19-0.227-0.515-0.038-0.726
								c1.552-1.724,5.89-3.899,9.689-3.291c0.282,0.044,0.473,0.308,0.429,0.588c-0.043,0.28-0.295,0.472-0.587,0.428
								c-3.549-0.555-7.537,1.598-8.766,2.964C188.017,403.457,187.866,403.515,187.717,403.507z"/>
						</g>
						<g>
							<path style="fill:#F0F0F0;" d="M183.666,400.292c-0.115-0.005-0.228-0.049-0.32-0.132c-0.211-0.19-0.227-0.515-0.037-0.726
								c1.55-1.723,5.904-3.893,9.689-3.291c0.281,0.044,0.473,0.308,0.428,0.587c-0.043,0.28-0.297,0.47-0.588,0.428
								c-3.544-0.551-7.536,1.598-8.766,2.964C183.966,400.241,183.816,400.299,183.666,400.292z"/>
						</g>
						<g>
							<path style="fill:#F0F0F0;" d="M179.7,397.079c-0.112-0.005-0.223-0.047-0.314-0.127c-0.215-0.187-0.235-0.512-0.049-0.725
								c2.136-2.446,6.769-3.902,10.566-3.301c0.281,0.044,0.474,0.308,0.428,0.587c-0.043,0.28-0.298,0.465-0.587,0.428
								c-3.419-0.539-7.737,0.793-9.634,2.961C180.005,397.028,179.851,397.086,179.7,397.079z"/>
						</g>
					</g>
				</g>
			</g>
			<g>
				<path style="fill:#B16668;" d="M106.13,347.066c0.162,21.082,0.483,34.914,0.014,43.986c-0.145,2.81-1.509,24.627-1.109,30.497
					c0.601,8.819,11.768,8.829,12.899,3.721c1.133-5.108,4.605-29.672,5.108-31.909c2.074-9.228,9.099-42.99,9.099-42.99
					L106.13,347.066z"/>
				<g>
					<path style="fill:#263238;" d="M121.385,428.895c-0.363,5.102-1.201,8.476-3.051,11.446c-1.85,2.97-5.28,3.866-8.729,2.944
						c-3.45-0.922-7.852-3.323-8.786-7.74c-0.934-4.417-1.474-7.443-0.626-12.167L121.385,428.895z"/>
					<path id="XMLID_280_" style="fill:#37474F;" d="M106.144,391.053c-1.427,0.093-0.765,7.627-1.676,14.48
						c-0.977,7.345-3.213,10.36-4.079,16.381c-0.989,6.88,0.111,9.973,2.472,14.172c2.36,4.199,10.855,8.397,15.145,2.484
						c3.498-4.821,3.71-10.214,3.486-17.099c-0.231-7.118,0.325-12.037,0.686-17.432c0.345-5.157,2.096-10.086,0.864-10.676
						c0,0-0.163,1.062-0.521,2.291c-0.259,0.887-0.493,1.785-0.836,2.656c-0.15,0.382-0.474,0.779-0.595,0.154
						c-0.082-0.424-0.035-0.861,0.017-1.284c0.234-1.898-0.722-2.065-1.237-2.219c-1.117-0.335-5.535-0.937-6.603-1.023
						c-1.088-0.089-5.63-0.163-6.126,0.451c-0.336,0.415-0.393,1.118-0.506,1.987c-0.135,1.035-0.385,1.792-0.411,1.466
						C106.166,397.098,106.108,391.493,106.144,391.053z"/>
					<path style="fill:#FAFAFA;" d="M99.941,425.902c-0.302,4.276,0.683,7.22,2.53,10.506c2.36,4.199,11.544,8.42,15.834,2.507
						c2.135-2.942,2.742-6.445,3.077-10.023C118.918,424.259,103.975,422.038,99.941,425.902z"/>
					<g>
						<g>
							<path style="fill:#F0F0F0;" d="M118.369,421.358c-0.059-0.007-0.118-0.023-0.175-0.051c-0.057-0.028-6.62-2.842-13.062-1.439
								c-0.285,0.057-0.566-0.12-0.629-0.405c-0.062-0.285,0.12-0.567,0.406-0.629c6.813-1.479,13.505,1.404,13.755,1.525
								c0.262,0.131,0.369,0.448,0.24,0.709C118.802,421.272,118.585,421.383,118.369,421.358z"/>
						</g>
						<g>
							<path style="fill:#F0F0F0;" d="M105.519,414.736c-0.199-0.023-0.378-0.159-0.444-0.362c-0.089-0.279,0.062-0.577,0.34-0.667
								c6.421-2.082,13.474,1.26,13.739,1.404c0.258,0.138,0.353,0.459,0.213,0.716c-0.14,0.256-0.464,0.346-0.716,0.213
								c-0.06-0.031-6.934-3.272-12.908-1.327C105.668,414.738,105.592,414.744,105.519,414.736z"/>
						</g>
						<g>
							<path style="fill:#F0F0F0;" d="M105.807,409.895c-0.196-0.022-0.371-0.155-0.44-0.353c-0.095-0.278,0.051-0.578,0.327-0.672
								c7.064-2.427,13.753,1.212,14.001,1.367c0.248,0.155,0.323,0.481,0.168,0.729c-0.155,0.248-0.488,0.324-0.729,0.168
								c-0.055-0.036-6.52-3.521-13.095-1.264C105.961,409.896,105.882,409.904,105.807,409.895z"/>
						</g>
						<g>
							<path style="fill:#EBEBEB;" d="M106.218,405.132c-0.193-0.022-0.367-0.151-0.438-0.346c-0.099-0.275,0.043-0.578,0.318-0.677
								c6.621-2.382,13.823,1.353,14.093,1.516c0.252,0.147,0.334,0.472,0.185,0.724c-0.147,0.252-0.471,0.339-0.724,0.184
								c-0.063-0.036-7.047-3.643-13.195-1.43C106.378,405.132,106.297,405.141,106.218,405.132z"/>
						</g>
					</g>
				</g>
			</g>
			<path style="fill:#37474F;" d="M122.583,189.783c-6.641,8.983-14.044,20.024-13.576,48.591
				c0.598,36.506,1.264,53.006,0.757,57.053c-0.506,4.048-2.749,4.201-4.853,24.284c-1.809,17.268,0.417,51.675,0.417,51.675
				s2.396,3.003,10.078,3.664c8.207,0.706,12.573-1.897,12.573-1.897s8.033-39.512,10.865-51.577
				c3.231-13.762,9.717-52.831,9.717-52.831l7.193,28.452c0,0-2.339,12.331,0.232,25.545c3.388,17.419,8.16,40.707,8.16,40.707
				s4.625,1.481,10.682,1.236c9.45-0.383,11.733-5.537,11.733-5.537s1.709-48.035,2.09-67.995
				c0.405-21.238,0.117-68.664-4.135-101.369H122.583z"/>
			<path style="fill:#263238;" d="M160.034,226.727l-11.472,42.017l7.193,28.452l-4.5-28.637l10.168-35.218
				c4.899-0.707,16.337-5.449,20.092-13.381C173.415,227.004,160.034,226.727,160.034,226.727z"/>
			<path style="fill:#263238;" d="M128.724,327.027c-2.104,10.352-4.604,25.894-6.533,36.281c2.738-10.21,5.993-25.576,8.152-35.91
				c6.072-29.075,8.62-52.069,9.971-62.55c1.374-10.48,2.466-20.987,3.437-31.51c-1.786,10.415-3.426,20.85-5.074,31.273
				C136.991,275.026,134.953,296.385,128.724,327.027z"/>
			<path style="fill:#263238;" d="M182.554,278.233c0.323,4.572,0.71,9.168,0.747,13.697c0.019,4.549-0.145,9.161-0.262,13.749
				l-0.351,13.787c-0.242,9.193-0.381,18.393-0.408,27.6c0.853-9.168,1.547-18.345,2.067-27.532c0.524-9.196,1-18.355,1.081-27.623
				c-0.261-9.304-1.276-18.424-2.327-27.582c-1.078-9.144-2.41-18.259-4.054-27.319l2.408,27.487
				C181.822,269.078,182.232,273.654,182.554,278.233z"/>
		</g>
		<g id="Top">
			<g>
				<g id="Arm_18_">
					<g>
						<g>
							<path style="fill:#B16668;" d="M266.469,141.268c-0.924-1.866-2.097-0.653-2.732-0.803c0,0,2.7-0.773,1.109-3.991
								c-0.981-1.985-3.207-0.262-3.049-0.58c0.071-0.142,3.902-2.664,7.988-5.501c3.88-2.694,2.958-3.666,2.549-4.348
								c-0.369-0.614-0.873-1.742-3.992,0.027c-3.074,1.743-11.324,6.336-13.326,7.394c-2.001,1.058-3.172,1.403-2.361-1.138
								c0.761-2.384,1.503-4.626,1.13-6.624c-0.624-3.343-2.748-3.434-3.466-1.65c-1.013,2.517-2.744,5.11-4.796,8.96
								c-1.07,2.008-1.953,3.943-2.814,5.263c-1.83,2.808-4.95,4.292-10.462,5.818c-4.508,1.248-4.413,1.61-14.214,3.629
								c-9.295,1.915-17.979,15.474-13.531,21.16c2.564,3.278,9.446,5.109,18.715,1.027c7.859-3.461,14.708-9.517,17.833-11.101
								c3.126-1.584,4.678-2.784,7.533-2.704c3.883,0.109,6.305-0.896,9.589-2.58c1.57-0.805,4.502-2.256,6.655-3.577
								c2.103-1.291,3.136-2.619,2.574-4.15c-0.764-2.081-2.273-0.711-2.311-0.984C265.053,144.542,267.785,143.926,266.469,141.268
								z"/>
						</g>
						<path style="fill:#9A4A4D;" d="M258.14,149.5c-0.028-1.065,1.345-2.07,1.345-2.07s-0.947,0.482-1.895,0.236
							c-0.948-0.247-1.692-1.469-1.502-2.33c0.19-0.861,1.438-1.549,1.438-1.549s-0.795,0.182-1.758-0.136
							c-0.962-0.318-1.361-1.315-1.017-2.507c0.344-1.192,3.115-2.9,5.789-4.363c0,0-1.543,0.291-3.462,1.321
							c-1.474,0.792-2.484,1.378-3.068,2.372c-0.083-1.251-0.438-2.462-1.098-3.524c0.752,3.386-1.36,9.854-4.62,12.908
							c2.889-1.206,4.833-3.859,5.489-6.699c0.417,0.797,1.265,1.272,2.013,1.113c-0.362,0.518-0.935,1.249-0.201,2.772
							c0.734,1.523,2.092,1.421,2.092,1.421s-0.794,0.653-0.078,1.919c0.716,1.266,1.97,1.231,3.257,0.575
							C259.698,151.431,258.168,150.565,258.14,149.5z"/>
					</g>
				</g>
				<path style="fill:#E0E0E0;" d="M159.373,123.75c5.593,0.096,9.273-1.412,13.829-0.534c6.617,1.276,8.124,3.792,13.479,9.467
					c6.78,7.186,16.754,17.346,16.754,17.346s9.244-2.656,16.85-4.768c7.606-2.113,13.574-4.558,14.287-1.857l-3.619,1.053
					c0,0-4.249,3.007-2.78,11.12c1.232,6.805,6.714,7.274,6.714,7.274l3.441-2.318c0,0,1.069,3.707-2.462,5.823
					c-3.531,2.116-23.643,8.758-30.193,10.617c-6.55,1.859-8.295,0.617-15.479-4.811c-7.184-5.429-26.311-22.132-26.311-22.132
					L159.373,123.75z"/>
				<path style="opacity:0.1;" d="M203.435,150.029c-4.658,1.453-9.18,6.655-9.463,10.65c-2.103-8.036,7.668-12.483,7.668-12.483
					L203.435,150.029z"/>
			</g>
			<g>
				<path style="fill:#B16668;" d="M182.607,194.28c2.991-3.264,2.061-8.463,0-13.368c-0.273-7.453,0.021-14.556,0.021-14.556
					l-57.203,8.92c1.809,8.047,1.512,6.705-2.842,14.506C134.586,206.166,176.841,202.681,182.607,194.28z"/>
				<path style="fill:#455A64;" d="M182.927,179.284c0.666-2.798,0.64-11.443,0.085-16.032c2.435-3.704,5.136-8.979,2.731-15.114
					c-2.171-5.538-4.98-8.999-12.887-15.498c-6.434-5.289-13.484-8.89-13.484-8.89l-13.814-0.849l-13.501,1.109
					c0,0-1.352,0.433-6.026,2.202c-2.656,1.005-6.105,2.147-8.588,3.556c-2.58,1.464-4.611,14.252-0.391,23.912
					c3.549,8.124,7.548,20.22,8.718,27.334C138.098,189.434,175.532,188.812,182.927,179.284z"/>
				<path style="fill:#37474F;" d="M168.646,164.286c-3.41,4.689-17.1,11.703-27.661,4.218
					C144.259,178.144,166.187,176.81,168.646,164.286z"/>
			</g>
			<g id="Head_1_">
				<path style="fill:#263238;" d="M164.333,85.419c0.927,0.837,2.104,1.401,3.353,1.522c1.268,0.123,2.729-0.112,3.657,0.76
					c0.496,0.466,0.717,1.206,0.558,1.868c-0.159,0.662-0.693,1.22-1.347,1.41c1.444-0.06,2.821-0.972,3.44-2.278
					c0.619-1.306,0.452-2.95-0.416-4.105c-0.527-0.702-1.282-1.224-1.729-1.98c-0.45-0.759-0.539-1.721-0.237-2.55
					c0.464-1.273,1.363-1.869,1.9-3.113c0.379-0.878,0.723-2.113,0.581-3.058c-0.189-1.259-0.595-2.519-1.403-3.503
					c-1.75-2.132-5.54-3.052-8.166-3.319c0.506-1.745,0.359-4.842-3.368-7.403c-2.814-1.934-7.257-1.959-10.111,0.034
					c-0.031-2.218-1.745-4.16-3.797-5.005c-2.051-0.844-4.368-0.765-6.554-0.391c-3.53,0.604-7.331,2.351-8.425,5.761
					c-4.746-1.23-8.833,0.731-11.118,3.437c-2.285,2.706-3.085,7.832-0.552,11.549c-7.187,4.243-7.543,13.513-5.287,19.894
					c1.948,5.512,5.922,7.648,10.525,12.73c0.879,0.97,5.256,5.421,5.382,6.724L164.333,85.419z"/>
				<path style="fill:#BA68C8;" d="M152.616,69.657c-14.946-3.228-29.926,9.533-30.195,26.675
					c-1.846-10.284-0.171-16.377,5.167-21.878C136.155,65.626,147.575,66.244,152.616,69.657z"/>
				<path id="XMLID_272_" style="fill:#B16668;" d="M159.691,75.802c0,0,5.416,4.409,6.321,21.6c0.65,12.342-1.5,17.039-5.192,19.16
					c-2.203,1.265-5.067,1.819-8.932,2.019l0.278,5.408c0,0,13.189,12.144,3.296,14.22c-5.263,1.105-10.66-1.154-15.455-3.681
					c-4.903-2.584-7.734-7.818-7.734-7.818l-1.175-14.844c0,0-3.32,2.986-7.575-0.17c-3.836-2.845-4.948-8.104-2.715-11.413
					c2.232-3.31,6.357-2.89,9.052,0.733c0,0,4.079,1.084,3.148-4.141c0,0,2.981-1.449,4.123-6.873
					c0.584-2.771-2.424-8.067-0.398-10.228c3.12-2.49,9.275,0.948,14.96,0.673C154.613,80.304,157.615,76.376,159.691,75.802z"/>
				<g>
					<g>
						<path id="XMLID_271_" style="fill:#9A4A4D;" d="M147.843,103.796l5.68,2.979c-0.803,1.633-2.725,2.292-4.293,1.47
							C147.661,107.422,147.04,105.431,147.843,103.796z"/>
						<path style="fill:#F28F8F;" d="M148.222,105.484c1.497,0.128,2.608,1.446,2.48,2.943c-0.005,0.054-0.022,0.104-0.03,0.157
							c-0.487,0.002-0.979-0.097-1.442-0.34c-1.035-0.543-1.646-1.595-1.719-2.718C147.742,105.486,147.978,105.463,148.222,105.484
							z"/>
					</g>
					<path id="XMLID_270_" style="fill:#263238;" d="M162.174,88.251l-4.193-1.421c0.352-1.182,1.576-1.822,2.734-1.429
						C161.872,85.794,162.526,87.07,162.174,88.251z"/>
					<path id="XMLID_269_" style="fill:#263238;" d="M145.678,86.49l-4.461,3.434c-1.003-1.206-0.817-2.952,0.416-3.9
						C142.864,85.075,144.676,85.285,145.678,86.49z"/>
					<polygon id="XMLID_268_" style="fill:#9A4A4D;" points="151.742,90.393 154.457,103.125 160.853,99.295 					"/>
					<path id="XMLID_267_" style="fill:#9A4A4D;" d="M151.888,118.58c-10.135-0.229-15.166-2.357-17.301-5.764
						c0,0,1.229,4.547,4.622,6.078c5.876,2.651,12.804,2.27,12.804,2.27L151.888,118.58z"/>
					<path id="XMLID_266_" style="fill:#263238;" d="M158.517,91.94c-0.012,1.083,0.867,1.994,1.963,2.036
						c1.096,0.042,1.993-0.803,2.005-1.886c0.012-1.083-0.867-1.994-1.962-2.036C159.428,90.013,158.529,90.857,158.517,91.94z"/>
					<path id="XMLID_261_" style="fill:#263238;" d="M143.962,95.333c0.11,1.101,0.976-0.753,2.284-1.151
						c1.308-0.398,2.924,0.71,2.452-0.291c-0.471-1.002-1.561-1.463-2.868-1.065C144.522,93.224,143.856,94.272,143.962,95.333z"/>
					<path style="fill:#9A4A4D;" d="M148.182,92.305c-0.11-0.227-0.33-0.393-0.545-0.535c-0.347-0.229-0.719-0.44-1.127-0.535
						c-0.361-0.085-0.708-0.175-1.082-0.151c-0.511,0.033-0.956,0.2-1.36,0.511c-0.219,0.169-0.416,0.36-0.59,0.575
						c-0.212,0.262-0.342,0.481-0.338,0.822c0.001,0.044,0.03,0.069,0.074,0.051c0.084-0.035,0.149,0,0.235-0.061
						c0.098-0.07,0.178-0.166,0.273-0.241c0.154-0.122,0.328-0.223,0.508-0.304c0.392-0.177,0.85-0.322,1.283-0.349
						c0.635-0.04,1.293,0.011,1.878,0.288c0.16,0.076,0.645,0.427,0.816,0.24c0.045-0.049,0.04-0.126,0.022-0.191
						C148.216,92.383,148.201,92.343,148.182,92.305z"/>
				</g>
				<g>
					<path style="fill:#BA68C8;" d="M130.7,115.253c0.157,3.242-2.354,6.02-5.608,6.177c-3.242,0.157-6.02-2.365-6.177-5.608
						c-0.114-2.359,1.178-4.451,3.136-5.485c0.24,0.28,0.512,0.548,0.795,0.804c-1.755,0.776-2.953,2.583-2.854,4.63
						c0.128,2.65,2.398,4.711,5.048,4.583c2.661-0.129,4.71-2.398,4.582-5.048c-0.041-0.84-0.306-1.648-0.739-2.34
						c-0.468-0.755-1.157-1.38-1.986-1.783c-0.276-0.127-0.389-0.445-0.261-0.711c0.127-0.276,0.456-0.389,0.721-0.262
						c1.095,0.53,1.977,1.362,2.566,2.381C130.383,113.389,130.654,114.305,130.7,115.253z"/>
				</g>
			</g>
			<g>
				<g>
					<path style="fill:#9A4A4D;" d="M133.233,160.679c2.775-2.541,7.646-6.925,9.899-6.621c2.253,0.305,6.463,1.218,6.463,1.218
						L133.233,160.679z"/>
					<path style="fill:#B16668;" d="M129.92,162.521c10.472-5.723,9.023-5.809,16.11-7.428c7.087-1.619,12.288-2.548,16.236-3.412
						c3.948-0.864,5.381-1.131,5.443,0.597s-2.478,3.335-5.443,4.566c-2.965,1.231-8.082,3.344-8.082,3.344s2.065,2.316,3.292,3.799
						c1.441,1.741,0.861,3.82-0.694,4.684c0.994,1.561,1.106,4.173-0.867,4.864c-0.245,2.765-1.199,3.384-2.754,3.729
						c-1.555,0.346-3.484,0.542-4.663,0.023c-1.18-0.518-2.467-1.459-2.467-1.459c-2.388,1.941-6.264,5.196-12.005,3.727
						c-3.293-0.946-13.491,6.299-13.491,6.299c-6.041-2.602-6.149-8.843-3.827-16.575
						C116.708,169.28,125.261,165.068,129.92,162.521z"/>
					<path style="fill:#9A4A4D;" d="M156.456,158.614c-1.549,0.387-2.535,0-4.19,0.775c0.74-0.07,1.303,0.247,1.917,0.8
						c0,0,4.208-1.737,7.204-2.979C161.382,157.21,158.005,158.227,156.456,158.614z"/>
					<path style="fill:#9A4A4D;" d="M156.781,168.671c-0.915-0.942-1.654-1.975-2.42-2.974c-0.374-0.506-0.759-0.997-1.156-1.471
						c-0.207-0.225-0.408-0.464-0.64-0.658c-0.223-0.21-0.475-0.388-0.796-0.463c0.684-0.136,1.342,0.301,1.843,0.701
						c0.517,0.424,0.949,0.923,1.347,1.438C155.731,166.294,156.37,167.424,156.781,168.671z"/>
					<path style="fill:#9A4A4D;" d="M155.914,173.535c-0.265-0.593-0.699-1.059-1.069-1.573l-1.162-1.504l-1.15-1.514
						c-0.397-0.495-0.74-1.028-1.215-1.476c0.639,0.204,1.173,0.643,1.648,1.082c0.482,0.445,0.911,0.939,1.312,1.451
						c0.388,0.523,0.756,1.064,1.059,1.647C155.631,172.222,155.93,172.859,155.914,173.535z"/>
					<path style="fill:#9A4A4D;" d="M146.03,175.828c0.321-0.474,0.635-0.932,1.049-1.34c0.398-0.401,0.95-0.809,1.659-0.829
						c0.342,0,0.673,0.086,0.958,0.224c0.251,0.146,0.493,0.283,0.729,0.443c0.478,0.302,0.929,0.646,1.344,1.024
						c-0.57-0.131-1.103-0.296-1.611-0.503c-0.257-0.092-0.505-0.217-0.751-0.315c-0.222-0.086-0.44-0.132-0.653-0.124
						c-0.424-0.01-0.859,0.24-1.305,0.53C147.009,175.239,146.542,175.571,146.03,175.828z"/>
					<path style="fill:#9A4A4D;" d="M149.588,172.161c0.178,0.279,0.203,0.714-0.001,1.042c-0.181,0.329-0.439,0.542-0.682,0.741
						c-0.51,0.37-1.037,0.658-1.704,0.799c0.303-0.61,0.78-1.029,1.25-1.395c0.24-0.175,0.476-0.34,0.672-0.497
						C149.31,172.696,149.468,172.491,149.588,172.161z"/>
				</g>
				<path style="fill:#E0E0E0;" d="M121.451,127.926c-4.013,1.243-14.957-2.518-20.109,9.065
					c-3.734,8.394-13.076,34.422-15.437,48.863c-1.051,6.43,3.222,9.432,6.65,9.634c6.458,0.379,10.758-0.044,18.647-3.095
					c8.785-3.397,11.796-4.928,13.21-6.539c1.413-1.611,1.325-3.353,1.325-3.353l-1.562,0.967c0,0-5.838-0.112-5.725-8.33
					c0.087-6.287,3.507-8.482,3.507-8.482l2.43-1.224c0,0-0.344-1.511-3.595-0.475c-3.251,1.036-3.936,1.398-3.936,1.398
					l4.596-8.576C121.451,157.78,129.679,142.789,121.451,127.926z"/>
				<path style="opacity:0.1;" d="M116.855,166.356c-6.567,2.05-11.002,3.248-16.016,6.971c-4.275,3.175-6.375,5.626-8.405,10.223
					c0.281-3.581,2.257-7.598,5.904-11.389c2.501-2.6,8.51-5.617,12.241-6.818c3.731-1.201,8.018-2.239,8.018-2.239L116.855,166.356
					z"/>
			</g>
		</g>
	</g>
</g>
<g id="Speech_Bubble">
	<g id="Speech_Bubble_13_">
		<g id="Speech_Bubble_3_">
			<path style="fill:#FFFFFF;" d="M245.088,99.8c-4.74,4.307-10.732,6.374-16.682,6.289l-2.772-0.2
				c-5.514-0.712-10.818-3.302-14.844-7.733c-9.003-9.907-8.267-25.292,1.64-34.295c4.43-4.026,9.957-6.098,15.514-6.281
				l2.778,0.065c5.932,0.483,11.7,3.113,16.006,7.852C255.735,75.409,254.999,90.794,245.088,99.8z"/>
			<path style="fill:#455A64;" d="M248.22,64.083c-9.786-10.731-26.48-11.5-37.211-1.714c-9.628,8.78-11.227,23.115-4.388,33.721
				l-3.645,7.325c-0.622,1.251,0.62,2.613,1.923,2.108l7.63-2.956c9.932,7.783,24.352,7.508,33.979-1.272
				C257.238,91.508,258.007,74.814,248.22,64.083z M245.12,99.774c-4.732,4.315-10.721,6.393-16.671,6.318l-2.772-0.195
				c-5.515-0.703-10.824-3.283-14.857-7.706c-9.02-9.891-8.312-25.278,1.58-34.298c4.423-4.034,9.946-6.115,15.503-6.308l2.778,0.06
				c5.932,0.472,11.705,3.092,16.02,7.824C255.724,75.364,255.015,90.75,245.12,99.774z"/>
		</g>
		<g>
			<path id="Heart_4_" style="fill:#BA68C8;" d="M228.708,93.808c-13.523-7.265-14.589-15.012-10.637-18.785
				c3.541-3.38,9.988-1.121,10.689,3.73c0.735-4.845,7.197-7.06,10.715-3.656C243.401,78.897,242.281,86.637,228.708,93.808z"/>
		</g>
	</g>
</g>
<g id="Hearts">
	<g id="Hearts_1_">
		<path style="fill:#BA68C8;" d="M76.57,194.838c-5.488-0.689-9.402,4.729-7.828,11.728c-3.992-5.961-10.616-6.853-13.895-2.398
			c-3.279,4.455,2.807,16.428,21.233,19.483C86.551,208.185,82.058,195.527,76.57,194.838z"/>
		<g>
			<path style="fill:#BA68C8;" d="M72.008,159.358c-3.716-1.917-7.903,0.911-8.607,6.288c-1.283-5.269-5.753-7.625-9.239-5.316
				c-3.486,2.309-2.281,12.391,10.004,19.352C75.621,171.429,75.725,161.275,72.008,159.358z"/>
			<path style="opacity:0.3;fill:#FFFFFF;" d="M72.008,159.358c-3.716-1.917-7.903,0.911-8.607,6.288
				c-1.283-5.269-5.753-7.625-9.239-5.316c-3.486,2.309-2.281,12.391,10.004,19.352C75.621,171.429,75.725,161.275,72.008,159.358z"
				/>
		</g>
		<g>
			<path style="fill:#BA68C8;" d="M41.672,181.556c-3.418,0.158-5.233,3.872-3.537,7.973c-3.061-3.213-7.192-3.059-8.722,0.001
				c-1.53,3.061,3.441,9.719,14.994,9.64C49.161,188.641,45.09,181.398,41.672,181.556z"/>
			<path style="opacity:0.6;fill:#FFFFFF;" d="M41.672,181.556c-3.418,0.158-5.233,3.872-3.537,7.973
				c-3.061-3.213-7.192-3.059-8.722,0.001c-1.53,3.061,3.441,9.719,14.994,9.64C49.161,188.641,45.09,181.398,41.672,181.556z"/>
		</g>
	</g>
	<g id="Hearts_2_">
		<path style="fill:#BA68C8;" d="M412.307,178.258c5.433-1.039,9.685,4.117,8.562,11.203c3.603-6.204,10.156-7.518,13.713-3.282
			c3.557,4.236-1.75,16.574-19.942,20.802C403.2,192.217,406.874,179.298,412.307,178.258z"/>
		<g>
			<path style="fill:#BA68C8;" d="M413.856,146.048c3.394-2.442,7.951-0.26,9.437,4.955c0.495-5.401,4.57-8.388,8.358-6.616
				c3.788,1.772,4.076,11.922-7.052,20.612C412.055,158.518,410.462,148.49,413.856,146.048z"/>
			<path style="opacity:0.3;fill:#FFFFFF;" d="M413.856,146.048c3.394-2.442,7.951-0.26,9.437,4.955
				c0.495-5.401,4.57-8.388,8.358-6.616c3.788,1.772,4.076,11.922-7.052,20.612C412.055,158.518,410.462,148.49,413.856,146.048z"/>
		</g>
		<g>
			<path style="fill:#BA68C8;" d="M452.255,165.759c3.418,0.167,5.223,3.886,3.516,7.982c3.069-3.205,7.2-3.04,8.722,0.024
				c1.521,3.065-3.467,9.71-15.019,9.601C444.747,172.824,448.837,165.592,452.255,165.759z"/>
			<path style="opacity:0.6;fill:#FFFFFF;" d="M452.255,165.759c3.418,0.167,5.223,3.886,3.516,7.982
				c3.069-3.205,7.2-3.04,8.722,0.024c1.521,3.065-3.467,9.71-15.019,9.601C444.747,172.824,448.837,165.592,452.255,165.759z"/>
		</g>
	</g>
</g>
</svg>
