<svg xmlns="http://www.w3.org/2000/svg" xmlns:xlink="http://www.w3.org/1999/xlink" viewBox="0 0 565.05 320.66"><defs><style>.cls-1,.cls-27{fill:#dd4026;}.cls-2,.cls-46{fill:#fff;}.cls-3{isolation:isolate;}.cls-4,.cls-52{fill:#71bf9d;}.cls-5,.cls-63{fill:#3c8460;}.cls-6{fill:#ffd25a;}.cls-7{fill:#ffbe57;}.cls-21,.cls-34,.cls-47,.cls-52,.cls-7{opacity:0.5;}.cls-12,.cls-33,.cls-44,.cls-58,.cls-7{mix-blend-mode:multiply;}.cls-60,.cls-8{fill:none;stroke-miterlimit:10;}.cls-8{stroke:#fff;stroke-width:1.02px;}.cls-17,.cls-36,.cls-9{fill:#a1abad;}.cls-12,.cls-46,.cls-63,.cls-9{opacity:0.3;}.cls-10,.cls-32{fill:#ff8976;}.cls-10,.cls-11,.cls-12,.cls-13,.cls-15,.cls-17,.cls-27,.cls-28,.cls-30,.cls-35{fill-rule:evenodd;}.cls-11{fill:#ef6456;}.cls-12{fill:#ba2b27;}.cls-13,.cls-14{fill:#7c4284;}.cls-15,.cls-16{fill:#3e2344;}.cls-18,.cls-30{fill:#ffb072;}.cls-19{fill:#764582;}.cls-20,.cls-35{fill:#9d68aa;}.cls-21,.cls-24,.cls-28{fill:#552f5e;}.cls-22{clip-path:url(#clip-path);}.cls-23{fill:#b22714;}.cls-25{clip-path:url(#clip-path-2);}.cls-26{fill:#af79bc;}.cls-29{fill:#ffdcae;}.cls-31,.cls-34{fill:#e57e55;}.cls-37,.cls-44{fill:#e5daca;}.cls-38{clip-path:url(#clip-path-3);}.cls-39{fill:#c13725;}.cls-40{fill:#d8462a;}.cls-41{fill:#f99441;}.cls-42{fill:#ffc49c;}.cls-43{fill:#1e1c1c;}.cls-44{opacity:0.8;}.cls-45{fill:#efe9da;}.cls-47{fill:#d8d0bf;}.cls-48{fill:#fcf7f0;}.cls-49{fill:#d36d29;}.cls-50{fill:#ffcc5a;}.cls-51{fill:#ffe3a4;}.cls-53{fill:#e4bce8;}.cls-54{fill:#8d5b99;}.cls-55{fill:#c899ce;}.cls-56,.cls-58{fill:#d3d3d3;}.cls-57{fill:#e2e2e2;}.cls-59{fill:#f4f4f4;}.cls-60{stroke:#3c8460;stroke-width:1.16px;}.cls-61{fill:#83b6e5;}.cls-62{fill:#261f28;}</style><clipPath id="clip-path" transform="translate(-93.37 -102.33)"><path class="cls-1" d="M378.28,366.34s0,4.39-.7,5a11.66,11.66,0,0,0-4.36,5.61,2.77,2.77,0,0,1-1.79-.59l1.11-4.6s-4.81,2.39-7.08,2.42c-2.74,0-10.54-2.83-11.31-4.14,0,0,0-3,3.34-2.64,8.41.89,14-6.08,14-6.08C374.4,358.27,378,361.92,378.28,366.34Z"/></clipPath><clipPath id="clip-path-2" transform="translate(-93.37 -102.33)"><path class="cls-1" d="M404.55,392.84s1.66,4.06,1.25,4.91a11.67,11.67,0,0,0-1.92,6.84,2.74,2.74,0,0,1-1.87.13l-.72-4.68s-3.55,4-5.63,4.92c-2.53,1.07-10.83,1.37-12,.45,0,0-1.15-2.76,2.1-3.71,8.11-2.35,10.66-10.92,10.66-10.92C397.91,386.84,402.57,388.87,404.55,392.84Z"/></clipPath><clipPath id="clip-path-3" transform="translate(-93.37 -102.33)"><ellipse class="cls-2" cx="138.1" cy="170.16" rx="23.01" ry="24.44" transform="translate(-80.19 150.77) rotate(-45.86)"/></clipPath></defs><title>contact</title><g class="cls-3"><g id="OBJECTS"><path class="cls-4" d="M564.35,321s19.13-7.25,34-12.34c10.95-3.76,20.66-5.44,21.24-9.49.66-4.61-11-4.11-23.25.49-13.16,4.94-27,14.18-27,14.18s18.22-14.6,33.85-25.93c10.14-7.34,20-11.23,20.39-15.94.51-5.62-14.49-3.29-27.88,6.74-15.08,11.29-28,32.3-28,32.3s6.53-15.67,15.24-28.32c7.3-10.61,16.53-19.43,14.24-24.62-2.62-5.95-14.76,5.18-22.74,19.4-7.3,13-10.61,28.91-10.61,28.91a89.8,89.8,0,0,1,1-15.67c1.41-8.73,4.3-18,1-19C559.51,269.62,550.6,300.16,564.35,321Z" transform="translate(-93.37 -102.33)"/><path class="cls-5" d="M566.62,318.22s12.82-7.07,24.78-12.37c9.66-4.27,19.34-6.76,19.29-5.76s-8.27,3.47-18.48,7A223.42,223.42,0,0,0,566.62,318.22Z" transform="translate(-93.37 -102.33)"/><path class="cls-5" d="M572.07,308.09a269,269,0,0,1,20.73-20.81c8-6.92,17.4-11.43,17.64-10.46s-7.77,5-16.5,11.41C583.32,296,572.07,308.09,572.07,308.09Z" transform="translate(-93.37 -102.33)"/><path class="cls-5" d="M565.73,307.48a270.77,270.77,0,0,1,12-26.82c5-9.31,12.19-16.87,12.77-16.05s-5.48,7.48-11.37,16.53C572,292.17,565.73,307.48,565.73,307.48Z" transform="translate(-93.37 -102.33)"/><path class="cls-5" d="M563.14,314.32s-2.26-4.11-3-17.18c-.56-10.55,3.4-20.66,4.31-20.26S561,286.21,561.08,297C561.25,310.62,563.14,314.32,563.14,314.32Z" transform="translate(-93.37 -102.33)"/><path class="cls-4" d="M168.46,377.18s-20.38,1.84-36,3.75c-11.49,1.41-21,4.14-23.25.75-2.61-3.85,8.11-8.5,21.13-9.72,14-1.3,30.46,1,30.46,1s-22.76-5.17-41.77-8.53C106.73,362.22,96.19,363,93.75,359c-2.92-4.84,11.6-9.29,28-6.12,18.49,3.57,39.31,16.81,39.31,16.81S148.37,358.42,135,350.85c-11.2-6.36-23.36-10.26-23.57-15.93-.24-6.5,15.54-1.78,28.94,7.51,12.23,8.49,22.17,21.38,22.17,21.38a90.7,90.7,0,0,0-7.77-13.65c-5.09-7.24-11.73-14.29-9.22-16.69C150.37,328.86,171.73,352.44,168.46,377.18Z" transform="translate(-93.37 -102.33)"/><path class="cls-5" d="M165.21,375.69s-14.62-.77-27.69-.3c-10.56.38-20.36,2.37-19.88,3.25s9-.49,19.69-1.78A222.87,222.87,0,0,1,165.21,375.69Z" transform="translate(-93.37 -102.33)"/><path class="cls-5" d="M155.88,369a268.8,268.8,0,0,0-27.74-9.66c-10.21-2.74-20.64-2.69-20.44-1.71s9.2,1.14,19.83,3.06C140.48,363,155.88,369,155.88,369Z" transform="translate(-93.37 -102.33)"/><path class="cls-5" d="M161.31,365.64a267.87,267.87,0,0,0-22.5-18.89c-8.56-6.18-18.34-9.85-18.5-8.86s8.2,4.34,17.45,9.91C149,354.58,161.31,365.64,161.31,365.64Z" transform="translate(-93.37 -102.33)"/><path class="cls-5" d="M166.64,370.66s.23-4.69-4.85-16.75c-4.1-9.73-12.08-17.1-12.73-16.34s7.26,6.84,11.86,16.62C166.72,366.51,166.64,370.66,166.64,370.66Z" transform="translate(-93.37 -102.33)"/><path class="cls-6" d="M147.54,388.88H658.42s-32.6-71.66-52.54-77.72-66.8,4.37-72.59.5S501.15,236.34,491.52,230s-173.85,31.14-183.23,44.3c-7.51,10.53-31,46-42.09,51.19s-67.65-10.36-78.33-6.9S147.54,388.88,147.54,388.88Z" transform="translate(-93.37 -102.33)"/><path class="cls-7" d="M605.88,311.16a48.86,48.86,0,0,0-10.55-1.71c8.1,17.15,9.73,34.91-7.53,48.55-28.58,20.85-63.83,14.27-90.5-5.49-41-31.83-83.83-12.08-125.75-3.29-18.1,3.29-45.72-2.2-42.87-23.06,4.9-49.16,46.26-67,85.62-84.68-47.75,10.64-100.8,25.47-106,32.79-7.51,10.53-31,46-42.09,51.19s-67.65-10.36-78.33-6.9-40.33,70.32-40.33,70.32H658.42S625.82,317.22,605.88,311.16Z" transform="translate(-93.37 -102.33)"/><path class="cls-2" d="M213,324.94a6.41,6.41,0,0,1,3,.49c.55.27.73.74.4,1a1,1,0,0,1-.56.23,5.79,5.79,0,0,1-1.5-.06,6.34,6.34,0,0,1-1.45-.43c-.55-.26-.74-.73-.41-1A1,1,0,0,1,213,324.94Z" transform="translate(-93.37 -102.33)"/><path class="cls-2" d="M218.56,325.89a5.79,5.79,0,0,1,1.5.07,6.34,6.34,0,0,1,1.45.43c.55.28.73.74.4,1a1,1,0,0,1-.57.23,5.79,5.79,0,0,1-1.5-.07,6,6,0,0,1-1.45-.44c-.55-.27-.73-.73-.4-1A.93.93,0,0,1,218.56,325.89Z" transform="translate(-93.37 -102.33)"/><path class="cls-2" d="M224.16,326.85a5.79,5.79,0,0,1,1.5.08,5.48,5.48,0,0,1,1.45.43c.55.27.73.73.4,1a1,1,0,0,1-.56.23,5.77,5.77,0,0,1-1.5-.08,5.87,5.87,0,0,1-1.45-.43c-.55-.27-.73-.74-.41-1A1.09,1.09,0,0,1,224.16,326.85Z" transform="translate(-93.37 -102.33)"/><path class="cls-2" d="M234.11,328.51a6.56,6.56,0,0,1,2.95.44c.56.26.75.72.42,1a1,1,0,0,1-.56.25,5.79,5.79,0,0,1-1.5,0,6,6,0,0,1-1.46-.41c-.55-.26-.74-.72-.41-1A1,1,0,0,1,234.11,328.51Z" transform="translate(-93.37 -102.33)"/><path class="cls-2" d="M241.2,329.51a2.15,2.15,0,0,1,.9-.08,2.06,2.06,0,0,1,.88.28c.55.35.6.88.1,1.18a.72.72,0,0,1-.2.09,2.19,2.19,0,0,1-.91.09,2.17,2.17,0,0,1-.89-.29c-.55-.35-.58-.88-.08-1.18A1.21,1.21,0,0,1,241.2,329.51Z" transform="translate(-93.37 -102.33)"/><path class="cls-2" d="M247.19,330.05a2.46,2.46,0,0,1,1.77,0c.57.28.69.8.21,1.17l-.18.11a2.22,2.22,0,0,1-.92.2,2.28,2.28,0,0,1-.91-.21c-.58-.3-.64-.83-.17-1.16A.82.82,0,0,1,247.19,330.05Z" transform="translate(-93.37 -102.33)"/><path class="cls-2" d="M170.7,350.78c2.13-4.16,4.32-8.27,6.67-12.28A96.54,96.54,0,0,1,185.06,327c.37-.44.77-.86,1.15-1.29s.83-.81,1.26-1.21a7.46,7.46,0,0,1,1.5-1,5.23,5.23,0,0,1,1.65-.48,30.32,30.32,0,0,1,6.38-.1c4.21.31,8.36.95,12.5,1.65.58.1,1,.47.94.82s-.54.53-1.09.46c-4.14-.57-8.29-1.11-12.42-1.37a29.6,29.6,0,0,0-6.11.12,4.84,4.84,0,0,0-2.52,1.19c-.38.36-.76.72-1.13,1.1s-.73.81-1.08,1.23a93.93,93.93,0,0,0-7.6,11.29c-2.36,3.95-4.61,8-6.84,12.06-.3.57-.76.86-1,.66S170.42,351.33,170.7,350.78Z" transform="translate(-93.37 -102.33)"/><path class="cls-2" d="M170,354.24a6.22,6.22,0,0,1-.51,1.33,5.75,5.75,0,0,1-.78,1.16c-.45.47-.89.43-1-.09a1.54,1.54,0,0,1,0-.56,5.89,5.89,0,0,1,.51-1.35,5.55,5.55,0,0,1,.78-1.15c.45-.47.89-.43,1,.09A1.6,1.6,0,0,1,170,354.24Z" transform="translate(-93.37 -102.33)"/><path class="cls-2" d="M167.6,359a6,6,0,0,1-.49,1.34,5.7,5.7,0,0,1-.77,1.16c-.45.48-.88.44-1-.07a1.83,1.83,0,0,1,0-.57,6.58,6.58,0,0,1,.5-1.35,5.7,5.7,0,0,1,.77-1.16c.45-.47.89-.44,1,.08A1.6,1.6,0,0,1,167.6,359Z" transform="translate(-93.37 -102.33)"/><path class="cls-2" d="M165.21,363.74c-.73,1.78-1.56,3.49-2.37,5.21s-1.68,3.4-2.62,5.05c-.32.56-.76.8-1,.55a1.25,1.25,0,0,1,0-1.17c.7-1.79,1.52-3.52,2.34-5.24s1.7-3.4,2.66-5c.32-.56.77-.8,1-.54A1.23,1.23,0,0,1,165.21,363.74Z" transform="translate(-93.37 -102.33)"/><path class="cls-2" d="M158.15,378.37a2.59,2.59,0,0,1-.22.86,2.22,2.22,0,0,1-.5.68c-.54.42-1,.17-1-.57v0a2.37,2.37,0,0,1,.22-.86,2.22,2.22,0,0,1,.5-.68c.54-.42,1-.17,1,.56Z" transform="translate(-93.37 -102.33)"/><path class="cls-2" d="M155.76,383.58a2.31,2.31,0,0,1-.21.85,2.1,2.1,0,0,1-.5.69c-.53.43-1,.19-1-.55v0a2.42,2.42,0,0,1,.21-.87,2.21,2.21,0,0,1,.5-.69c.53-.43,1-.18,1,.56Z" transform="translate(-93.37 -102.33)"/><path class="cls-8" d="M649.27,388.88s-27.61-65.55-46.6-71.22-66.4,5.12-71.92,1.5-33.49-74.45-42.66-80.4-165.3,28.68-174.78,40.35c-7.73,9.51-30.24,50.32-40.94,54.86-14.62,6.2-69.8-8.55-80-5.32s-34.25,60.23-34.25,60.23" transform="translate(-93.37 -102.33)"/><path class="cls-2" d="M603.69,314.07a8.54,8.54,0,0,1,1.45.49,11.22,11.22,0,0,1,1.37.72c.48.41.58.8.24.86a1.23,1.23,0,0,1-.54-.07,8.71,8.71,0,0,1-1.41-.49,9,9,0,0,1-1.34-.7c-.5-.35-.66-.7-.33-.82A1.07,1.07,0,0,1,603.69,314.07Z" transform="translate(-93.37 -102.33)"/><path class="cls-2" d="M608.91,316.7a4.92,4.92,0,0,1,1.37.74,10.84,10.84,0,0,1,1.2,1.06c.42.47.48.86.12.87a1.13,1.13,0,0,1-.53-.15,9.11,9.11,0,0,1-1.28-.84c-.39-.36-.84-.57-1.23-.93s-.56-.78-.21-.84A1.21,1.21,0,0,1,608.91,316.7Z" transform="translate(-93.37 -102.33)"/><path class="cls-2" d="M613.68,320.29a10.64,10.64,0,0,1,1.22,1,10.36,10.36,0,0,1,1.08,1.2c.38.51.38.9,0,.86a1.2,1.2,0,0,1-.52-.23,8.77,8.77,0,0,1-1.2-1,11,11,0,0,1-1.07-1.18c-.37-.51-.41-.92-.07-.9A1.33,1.33,0,0,1,613.68,320.29Z" transform="translate(-93.37 -102.33)"/><path class="cls-2" d="M620.92,328.37a11.26,11.26,0,0,1,1,1.23,13.16,13.16,0,0,1,.89,1.39c.3.58.22,1-.11.87a1.63,1.63,0,0,1-.47-.33,11,11,0,0,1-1-1.22,11.47,11.47,0,0,1-.87-1.38c-.3-.58-.27-1,.07-.89A1.35,1.35,0,0,1,620.92,328.37Z" transform="translate(-93.37 -102.33)"/><path class="cls-2" d="M625.35,334.84a4.12,4.12,0,0,1,.62.76,4.54,4.54,0,0,1,.45.91c.19.65,0,.94-.44.62l-.17-.13a3.7,3.7,0,0,1-.61-.76,4.21,4.21,0,0,1-.45-.9c-.21-.64,0-.93.43-.63Z" transform="translate(-93.37 -102.33)"/><path class="cls-2" d="M628.75,340.6a4.17,4.17,0,0,1,.59.79,4.83,4.83,0,0,1,.4.93c.18.66,0,.93-.46.6a1.07,1.07,0,0,1-.16-.14,4.17,4.17,0,0,1-.59-.79,4.83,4.83,0,0,1-.4-.93c-.18-.65,0-.93.46-.61A1.1,1.1,0,0,1,628.75,340.6Z" transform="translate(-93.37 -102.33)"/><path class="cls-2" d="M550.48,314.59l12.44-1.1,12.45-1c4.15-.32,8.3-.63,12.48-.71a47.76,47.76,0,0,1,12.47,1.32c.57.17,1,.49.9.72s-.53.26-1.06.12a49.81,49.81,0,0,0-12.3-1.12c-4.14.1-8.28.43-12.43.77l-12.45.94-12.45.91c-.57,0-1-.12-1-.35S549.93,314.64,550.48,314.59Z" transform="translate(-93.37 -102.33)"/><path class="cls-2" d="M547.63,315.57a6.33,6.33,0,0,1-2.5.19c-.58-.09-.79-.38-.47-.64a1.5,1.5,0,0,1,.42-.21,5.94,5.94,0,0,1,1.25-.21,5.82,5.82,0,0,1,1.25,0c.58.09.8.38.48.64A1.23,1.23,0,0,1,547.63,315.57Z" transform="translate(-93.37 -102.33)"/><path class="cls-2" d="M542.88,315.92a5.92,5.92,0,0,1-2.51.15c-.58-.1-.78-.4-.45-.65a1.26,1.26,0,0,1,.42-.2,6.85,6.85,0,0,1,2.5-.15c.58.1.79.39.47.65A1.43,1.43,0,0,1,542.88,315.92Z" transform="translate(-93.37 -102.33)"/><path class="cls-2" d="M538.11,316.16a14.22,14.22,0,0,1-5.17-.35,4.16,4.16,0,0,1-1.26-.67,3.23,3.23,0,0,1-.54-.5,4.79,4.79,0,0,1-.48-.53,16.84,16.84,0,0,1-1.58-2.37c-.32-.57-.39-1.07-.17-1.13s.49.23.77.62a26.23,26.23,0,0,0,1.62,2.15c.14.18.3.31.44.46a2.35,2.35,0,0,0,.45.4,3.76,3.76,0,0,0,.47.3c.18.07.36.16.55.22a19.5,19.5,0,0,0,4.89.55c.57,0,1,.22.9.46S538.57,316.12,538.11,316.16Z" transform="translate(-93.37 -102.33)"/><path class="cls-2" d="M526.73,307.54a2.53,2.53,0,0,1-.47-.7A3.06,3.06,0,0,1,526,306c-.11-.69.17-.88.62-.44l0,0a2.87,2.87,0,0,1,.46.69,4.32,4.32,0,0,1,.29.81c.12.69-.15.9-.61.47Z" transform="translate(-93.37 -102.33)"/><path class="cls-2" d="M524.25,302.4a2.73,2.73,0,0,1-.44-.73,2.86,2.86,0,0,1-.25-.83c-.08-.7.21-.88.64-.41l0,0a3.71,3.71,0,0,1,.43.72,3.56,3.56,0,0,1,.25.82c.09.7-.19.89-.64.43Z" transform="translate(-93.37 -102.33)"/><path class="cls-9" d="M635.07,402.36c0,2.85-17.93,5.17-40,5.17s-40-2.32-40-5.17,17.93-5.18,40-5.18S635.07,399.5,635.07,402.36Z" transform="translate(-93.37 -102.33)"/><path class="cls-9" d="M311.3,400.56h70.2a3.68,3.68,0,0,0,.58-.05l82.79-13.93a3.5,3.5,0,0,1,1.44.06l67.06,16.84a3.51,3.51,0,0,1,1,6.37l-19.9,12.6a3.55,3.55,0,0,1-1.88.54H269a3.51,3.51,0,0,1-1.2-6.8l42.31-15.42A3.48,3.48,0,0,1,311.3,400.56Z" transform="translate(-93.37 -102.33)"/><path class="cls-10" d="M498.27,323.21c6.78-4.56,16.75-67.19,15.13-74.36-2.66-11.71-54.9-13.9-56.73,2.23-4.2,37.1-15.53,61-12.42,68.18C449.06,330.3,494.41,325.81,498.27,323.21Z" transform="translate(-93.37 -102.33)"/><path class="cls-11" d="M491.58,323.21c5.94-4.56,17.19-74.1,14.77-79.49-2.27-5-50.14-7.85-51.74,8.28-3.69,37.11-13.15,60.12-10.42,67.26C448.41,330.3,488.19,325.81,491.58,323.21Z" transform="translate(-93.37 -102.33)"/><path class="cls-12" d="M497.88,256.36c1.17-12.57-12.13-17.58-24.62-15.75-9.74,1.42-18,4.85-18.65,11.39-3.69,37.11-12.4,58.05-9.67,65.19,2.19,5.74,32.35,6.56,38.78.8C489.48,312.83,495.74,279.46,497.88,256.36Z" transform="translate(-93.37 -102.33)"/><path class="cls-13" d="M431.78,396.83a4.11,4.11,0,1,1-4.11-4.11A4.11,4.11,0,0,1,431.78,396.83Z" transform="translate(-93.37 -102.33)"/><path class="cls-13" d="M500.3,396.83a4.11,4.11,0,1,1-4.1-4.11A4.11,4.11,0,0,1,500.3,396.83Z" transform="translate(-93.37 -102.33)"/><circle class="cls-14" cx="363.4" cy="299.04" r="4.1"/><path class="cls-13" d="M473.18,391.71a4.1,4.1,0,1,1-4.1-4.1A4.1,4.1,0,0,1,473.18,391.71Z" transform="translate(-93.37 -102.33)"/><path class="cls-15" d="M463.22,378.05h-2.48c-4.86,0-8.8,4.32-8.8,9.64v1.85c0,2.62,20.08,2.62,20.08,0v-1.85C472,382.37,468.08,378.05,463.22,378.05Z" transform="translate(-93.37 -102.33)"/><path class="cls-16" d="M437.45,359.09c-2.22.68-2.87-1.42-.65-2.1l12.44-3.81L452.32,341l2.13.53-3.39,13.39Z" transform="translate(-93.37 -102.33)"/><path class="cls-17" d="M465.59,378.68c0,1.34-7.17,1.34-7.17,0V338.85h7.17Z" transform="translate(-93.37 -102.33)"/><path class="cls-16" d="M355.88,224.6h25.45a3.91,3.91,0,0,1,3.91,3.91v1.55A11.92,11.92,0,0,1,373.31,242h-9.42A11.92,11.92,0,0,1,352,230.05v-1.55A3.91,3.91,0,0,1,355.88,224.6Z"/><path class="cls-11" d="M421.42,319.75c0-4.42,77.68-4.42,77.68,0,0,0,4.09,17.67-38.84,17.67S421.42,319.75,421.42,319.75Z" transform="translate(-93.37 -102.33)"/><path class="cls-12" d="M422.51,318.09c0-2.21,66.1-2.21,66.1,0,0,0,3.48,8.84-33.05,8.84S422.51,318.09,422.51,318.09Z" transform="translate(-93.37 -102.33)"/><path class="cls-15" d="M454.79,381.53l-27.64,6.09a4.57,4.57,0,0,0-3.58,4.46v1.8l29.82-3.19Z" transform="translate(-93.37 -102.33)"/><path class="cls-15" d="M469.08,381.53l27.64,6.09a4.57,4.57,0,0,1,3.58,4.46v1.8l-29.82-3.19Z" transform="translate(-93.37 -102.33)"/><path class="cls-15" d="M460.41,382.21c-4.35,0-7.22,12.45-7.19,15.71,0,2.34,2.48,5.29,6.32,1.41a84.78,84.78,0,0,0,6.45-8S467,382.21,460.41,382.21Z" transform="translate(-93.37 -102.33)"/><path class="cls-18" d="M430.06,273.11c-10.74,4.28-29.84,10.48-29.84,10.48-1.43.4.8,6.44,2.23,6a281.91,281.91,0,0,0,29.26-5C434.12,280.23,435.19,276.8,430.06,273.11Z" transform="translate(-93.37 -102.33)"/><path class="cls-19" d="M458.06,237.29c-.18-5.9-10.92-16.26-16.51-5.64-5.28,10.06-1.15,33.84-4.26,36-.85.59-9.12,4.53-8.75,6.06.12.52,2.86,1.43,4,5.49.94,3.46-1,5.55-.7,6.06.21,1.12,13.35-3.24,15.82-5.84C454.35,272.37,458.25,243.19,458.06,237.29Z" transform="translate(-93.37 -102.33)"/><path class="cls-18" d="M403.44,282.73c-4.13.32-8.93-.87-14.3-1.35a26.52,26.52,0,0,0-5.91,1c-1.1.43-3.88,3.24-3.84,4,1.12,1.56,4.06-1.1,5.06-1.67a4.93,4.93,0,0,1,2.14-.18,18.1,18.1,0,0,0-2.79,1.89c-.8.88-2,4.64-1.61,5.32,1.7.89,3.12-2.82,3.76-3.78a1.87,1.87,0,0,1,.54-.46c-.72,1.82-1.38,4.16-1.12,4.6,1.7.89,3.59-3.17,4.23-4.13a1.54,1.54,0,0,1,.39-.36l.25.27c-.65,1.75-1.21,3.81-1,4.22,1.21.64,2.51-1.24,3.4-2.71.21.07.41.15.65.22,3.61,1.05,9.61,1.46,12.85-.58C408,288.25,405.47,282.57,403.44,282.73Z" transform="translate(-93.37 -102.33)"/><path class="cls-20" d="M459.34,220.66s-13.16,4.44-14.93,8,1.76,10-.1,14.68c-7.33,18.41,3.07,22.8,3.07,22.8,4.38,13.08-1.24,21.78-1.36,33-1.87,3.08,47.24,15.58,46.1,6C490.5,291.5,484,282,485.6,271.81s8.47-27.75,3.95-37.47S469.65,218.63,459.34,220.66Z" transform="translate(-93.37 -102.33)"/><path class="cls-21" d="M488,288.24a61.2,61.2,0,0,1-2.39-9.73c-2.5-14.93-4.11-23.75-7-22.26s-4.05,10.78-5.76,12.56c-2,2.12-17.78,16.75-25.17,18.29v.07a6.1,6.1,0,0,0,6.21,7.31A137.37,137.37,0,0,0,488,288.24Z" transform="translate(-93.37 -102.33)"/><path class="cls-1" d="M378.28,366.34s0,4.39-.7,5a11.66,11.66,0,0,0-4.36,5.61,2.77,2.77,0,0,1-1.79-.59l1.11-4.6s-4.81,2.39-7.08,2.42c-2.74,0-10.54-2.83-11.31-4.14,0,0,0-3,3.34-2.64,8.41.89,14-6.08,14-6.08C374.4,358.27,378,361.92,378.28,366.34Z" transform="translate(-93.37 -102.33)"/><g class="cls-22"><path class="cls-23" d="M353.57,369.26c.17.08,8.39,4.4,11.22,4.14s6.78-2.75,7.56-2.56,5.23.52,5.23.52l-3.75,8.39L352,374.33Z" transform="translate(-93.37 -102.33)"/></g><path class="cls-6" d="M362.55,367.06l.65,1.46a5.3,5.3,0,0,0,2.93-.89l-.46-1.54a.55.55,0,0,0-.66-.37l-2.12.61A.53.53,0,0,0,362.55,367.06Z" transform="translate(-93.37 -102.33)"/><path class="cls-24" d="M405.64,298.87c-6,3.92-34.4,62.36-34.4,62.36-.9,1.31,6.27,5.94,7.17,4.62,0,0,31.94-36.21,37.07-45.86,1.51-2.83,32,7.23,54.56,5.42,23.69-1.9,26.72-18,20.65-28C487.64,292.33,411.66,295,405.64,298.87Z" transform="translate(-93.37 -102.33)"/><path class="cls-16" d="M416.25,314.8c2.46-.13,9.1-2.87,9-3.77-.1-.72-6.34,2.25-6.34,2.25s7.76-4,6.78-5.66c-.54-.89-3.78,3.46-9.38,6.33C416.28,314,414.8,314.88,416.25,314.8Z" transform="translate(-93.37 -102.33)"/><path class="cls-1" d="M404.55,392.84s1.66,4.06,1.25,4.91a11.67,11.67,0,0,0-1.92,6.84,2.74,2.74,0,0,1-1.87.13l-.72-4.68s-3.55,4-5.63,4.92c-2.53,1.07-10.83,1.37-12,.45,0,0-1.15-2.76,2.1-3.71,8.11-2.35,10.66-10.92,10.66-10.92C397.91,386.84,402.57,388.87,404.55,392.84Z" transform="translate(-93.37 -102.33)"/><g class="cls-25"><path class="cls-23" d="M382.78,404.89c.18,0,9.43.9,12-.42s5.24-5.1,6-5.22,5-1.5,5-1.5l-.3,9.18-22.28,3.25Z" transform="translate(-93.37 -102.33)"/></g><path class="cls-6" d="M390.26,399.45l1.15,1.11a5.27,5.27,0,0,0,2.38-1.93l-1-1.26a.55.55,0,0,0-.75-.08l-1.73,1.36A.52.52,0,0,0,390.26,399.45Z" transform="translate(-93.37 -102.33)"/><path class="cls-16" d="M416,314c-18,13.78-14.6,42-20.15,77-.24,2.39,7.42,3.56,8.83.54,0,0,6.13-14.84,10.05-26,2-5.84,10.91-24.12,12.14-35.61C428,319.53,425.78,316.24,416,314Z" transform="translate(-93.37 -102.33)"/><path class="cls-18" d="M467.53,277.16c-11.59,3.62-30.94,8.45-30.94,8.45-1.42.4.4,7.05,1.83,6.65a261.5,261.5,0,0,0,31.1-3.3C471.15,284.63,471.57,280.81,467.53,277.16Z" transform="translate(-93.37 -102.33)"/><path class="cls-18" d="M437.26,285.44a31.08,31.08,0,0,1-10.39-2.28s-8.66-1.11-10-.91-5.22,2.64-5.37,3.53c.85,2,4.85-.19,6.13-.57a6.18,6.18,0,0,1,2.66.41,16.32,16.32,0,0,0-4.17,1c-1.17.73-3.72,4.51-3.5,5.39,1.61,1.53,4-1.84,5-2.7a3.44,3.44,0,0,1,1.19-.48l-.1.05c-1.16.73-3.71,4.51-3.49,5.39,1.6,1.53,4-1.84,5-2.7a4,4,0,0,1,1.38-.53c-1,1.13-2.36,3.26-2.22,3.84,1.32,1.26,3.31-1.51,4.14-2.22a5.31,5.31,0,0,1,1.94-.6,4.59,4.59,0,0,0,.66.35c3.14,1.4,9.16,1.56,12.34.12C440.29,292,439.12,285.55,437.26,285.44Z" transform="translate(-93.37 -102.33)"/><path class="cls-26" d="M491.07,238.8c-.18-5.9-8.22-16.28-13.8-5.66-5.29,10.06.85,34.79-2.26,36.95-.87.61-9.75,6.22-9.41,7.44.2.68,3.57,1.51,3.94,5.47s-1.19,6-.63,6.46,15.51-3.55,18-6.16C493.62,276.25,491.26,244.7,491.07,238.8Z" transform="translate(-93.37 -102.33)"/><path class="cls-19" d="M477,269.57c2.37-.46,9.44.54,9.57,1.42.1.71-6.65-.61-6.65-.61s8.5,2,8,3.72c-.27,1-4.56-2.36-10.67-3.73C477.23,270.37,475.57,269.84,477,269.57Z" transform="translate(-93.37 -102.33)"/><path class="cls-27" d="M482.29,210.15c-1.15,9-37,13.14-39.51,1.58-3.71-16.74,4.14-31.11,18.24-31.17C477.44,180.5,483.69,199.14,482.29,210.15Z" transform="translate(-93.37 -102.33)"/><path class="cls-28" d="M451.17,201.8c-.09,3.34-1,6-4.13,5.95-2.2-.06-3.91-2.81-3.82-6.15s1.93-6,4.13-5.95C450.49,195.73,451.25,198.46,451.17,201.8Z" transform="translate(-93.37 -102.33)"/><path class="cls-28" d="M445,205.66s-4.81,7.07-3.67,9.84,6.74,2.27,6.74,2.27l0-.82s-4.85.35-5.88-2c-.84-1.92,3.52-8.87,3.52-8.87Z" transform="translate(-93.37 -102.33)"/><path class="cls-15" d="M451.3,217.6c0,.86-1.19,1.52-2.6,1.48s-2.55-.76-2.53-1.61,1.19-1.52,2.61-1.48S451.32,216.75,451.3,217.6Z" transform="translate(-93.37 -102.33)"/><path class="cls-13" d="M452.11,201.57c-.07,2.78-1.61,5-3.44,4.94s-3.25-2.34-3.18-5.12,1.61-5,3.44-4.94S452.18,198.79,452.11,201.57Z" transform="translate(-93.37 -102.33)"/><ellipse class="cls-20" cx="449.03" cy="201.49" rx="4.04" ry="2.65" transform="translate(142.56 542.79) rotate(-88.51)"/><path class="cls-18" d="M463.63,205.06a40.84,40.84,0,0,0,2.39,9.45c1.76,4.11,4.34,5.4,5.86,7.6,2.67,3.88-14.57,13.86-15.3,14.12,0,0-7.2-8.64-5.11-11.51,2.31-3.16,5-4.49,3.72-10.28-1.13-5-1.8-7.84-1.8-7.84Z" transform="translate(-93.37 -102.33)"/><path class="cls-29" d="M452.31,223.18a4.64,4.64,0,0,0,.53,2.9,4.07,4.07,0,0,0,2.27,1.73,9.41,9.41,0,0,0,3,.43,12.74,12.74,0,0,0,3.07-.35,15.82,15.82,0,0,0,8-4.57,10.15,10.15,0,0,0,1.8-2.55h0a.22.22,0,0,1,.4.16,11.78,11.78,0,0,1-4,5.2,15.89,15.89,0,0,1-6,2.83,13.78,13.78,0,0,1-3.33.32,9.09,9.09,0,0,1-3.32-.59,4.88,4.88,0,0,1-2.61-2.25,5,5,0,0,1-.29-3.37.23.23,0,0,1,.27-.15.22.22,0,0,1,.16.24Z" transform="translate(-93.37 -102.33)"/><path class="cls-29" d="M452.51,223.24a15.7,15.7,0,0,0-.6,4.83,24.75,24.75,0,0,0,.6,4.86,29.09,29.09,0,0,0,1.59,4.63c.3.76.71,1.47,1.07,2.21s.83,1.41,1.24,2.12l-.79-.13c1.65-1.43,3.24-3,4.79-4.54a64,64,0,0,0,4.37-4.94,43.5,43.5,0,0,0,3.78-5.39,25.75,25.75,0,0,0,2.63-6h0a.22.22,0,0,1,.42.1,24.53,24.53,0,0,1-2.37,6.29,42.78,42.78,0,0,1-3.68,5.62,62.3,62.3,0,0,1-4.39,5.07,59.16,59.16,0,0,1-4.87,4.62h0a.5.5,0,0,1-.72-.06l-.06-.07c-.42-.74-.86-1.46-1.26-2.2s-.78-1.51-1.08-2.3a26.43,26.43,0,0,1-1.53-4.84,23.14,23.14,0,0,1-.44-5.05,16.05,16.05,0,0,1,.91-5,.21.21,0,0,1,.28-.13.23.23,0,0,1,.13.27Z" transform="translate(-93.37 -102.33)"/><path class="cls-29" d="M457.28,245.13c-.32,2-1.46,3.46-2.54,3.29s-1.69-1.94-1.37-3.93,1.46-3.46,2.54-3.28S457.61,243.14,457.28,245.13Z" transform="translate(-93.37 -102.33)"/><path class="cls-4" d="M456.67,245c-.22,1.37-1,2.39-1.75,2.26s-1.16-1.33-.94-2.7,1-2.38,1.75-2.26S456.9,243.66,456.67,245Z" transform="translate(-93.37 -102.33)"/><path class="cls-30" d="M463.7,205.54s-1.89,10.82-12.08,9.63c-5.13-.61-7.22-10.58-5.2-13.82,0,0-2.48-5.74-.18-10.75,2.46-5.37,10.34-6.59,17.26-4.16,0,0,2,3.42.85,11.95a2.61,2.61,0,0,1,3.34-.3c1.51.9,1.59,2.9,1,4.75C468,205.07,465.53,206.91,463.7,205.54Z" transform="translate(-93.37 -102.33)"/><path class="cls-31" d="M464.47,204.74l.84-2-1.28-.59s1-3.77,3.07-2.28C468.8,201.08,466.61,205.6,464.47,204.74Z" transform="translate(-93.37 -102.33)"/><path class="cls-2" d="M450.23,208.3a16.94,16.94,0,0,1,6.11-.89C455.61,210.23,450.53,211.42,450.23,208.3Z" transform="translate(-93.37 -102.33)"/><path class="cls-32" d="M449.78,208a.79.79,0,0,1,.22-.19l.09,0h.05l.11,0,.19,0,.4-.09.79-.15c.52-.08,1-.16,1.57-.21a25.51,25.51,0,0,1,3.15-.1.25.25,0,0,1,.25.25s0,.05,0,.07a3.76,3.76,0,0,1-1.22,1.82,5.24,5.24,0,0,1-1.93,1,3.5,3.5,0,0,1-2.26,0,2.5,2.5,0,0,1-1-.75,6.27,6.27,0,0,1-.3-.58A2.58,2.58,0,0,1,449.78,208Zm.89.54c.09.06.13.05.12.11l.13.36a1.44,1.44,0,0,0,.57.55,2.9,2.9,0,0,0,1.81.15,3.6,3.6,0,0,0,2.79-2.39l.24.32a14.74,14.74,0,0,0-3,.25,12.22,12.22,0,0,0-1.48.34l-.72.24-.35.14-.17.07-.08,0,0,0,.05,0A.49.49,0,0,0,450.67,208.57Z" transform="translate(-93.37 -102.33)"/><g class="cls-33"><path class="cls-31" d="M456.34,207.41" transform="translate(-93.37 -102.33)"/></g><g class="cls-33"><path class="cls-31" d="M450.23,208.3" transform="translate(-93.37 -102.33)"/></g><path class="cls-16" d="M447.08,201.49c0,.49.65.55,1.43.52s1.4-.15,1.38-.63-.67-.85-1.44-.82S447.06,201,447.08,201.49Z" transform="translate(-93.37 -102.33)"/><path class="cls-1" d="M446,199.43a5.4,5.4,0,0,1,2.17-1.46c1.18-.31,2.07.76,2.25.51a5,5,0,0,0,.37-.79,4.78,4.78,0,0,0-2.81-.39A3.12,3.12,0,0,0,446,199.43Z" transform="translate(-93.37 -102.33)"/><path class="cls-16" d="M454.6,201c0,.48.65.54,1.43.51s1.4-.15,1.38-.63-.67-.85-1.45-.82S454.58,200.47,454.6,201Z" transform="translate(-93.37 -102.33)"/><path class="cls-1" d="M459.31,198.07a7,7,0,0,0-3-1.08c-.88,0-2.61,1.21-2.86,1a3.08,3.08,0,0,1-.52-.72,6.07,6.07,0,0,1,3.49-1A3.89,3.89,0,0,1,459.31,198.07Z" transform="translate(-93.37 -102.33)"/><path class="cls-34" d="M451.27,206.5s1.79,0,1.77-.47-3.74-1.19-4-.84S450.48,206.24,451.27,206.5Z" transform="translate(-93.37 -102.33)"/><path class="cls-31" d="M450.49,198.29s1.24,2.07.93,2.87-2,3.52-2.09,3.9,1.8,1.4,1.94,1.46-2.68-.49-2.56-1.37,2.34-4,2.44-4.4A10.79,10.79,0,0,0,450.49,198.29Z" transform="translate(-93.37 -102.33)"/><path class="cls-27" d="M464.35,198.39c-4.75.66-15.52-9.5-16.8-9.22s-2.62,5-1.88,9.71c0,0-3.59-8.46.66-13.74,4.46-5.54,15.88-4.89,19.54.83,2.77,4.31,1.52,11.95,1.52,11.95S466.09,198.15,464.35,198.39Z" transform="translate(-93.37 -102.33)"/><path class="cls-28" d="M468.77,201.08c-.09,3.34-1,6-4.14,5.95-2.19-.06-3.9-2.81-3.81-6.15s1.93-6,4.13-5.95C468.08,195,468.85,197.74,468.77,201.08Z" transform="translate(-93.37 -102.33)"/><path class="cls-13" d="M469.71,200.85c-.08,2.77-1.62,5-3.44,4.94s-3.25-2.34-3.18-5.12,1.61-5,3.44-4.94S469.78,198.07,469.71,200.85Z" transform="translate(-93.37 -102.33)"/><path class="cls-35" d="M469.28,200.83c-.06,2.23-1.3,4-2.76,4s-2.61-1.87-2.55-4.1,1.29-4,2.76-4S469.33,198.6,469.28,200.83Z" transform="translate(-93.37 -102.33)"/><path class="cls-16" d="M464.1,195.66s.61-10.89-9.88-11.16S444.75,197,444.75,197l-.78,1.3s-2.67-14.44,9.95-15c12-.52,11.36,11.87,11.36,11.87Z" transform="translate(-93.37 -102.33)"/><path class="cls-36" d="M326.82,329.22,114.94,343.31q-8.55-71.37-21.19-143.63l211.88-8.29Z" transform="translate(-93.37 -102.33)"/><path class="cls-37" d="M93.75,199.68l211.88-8.29L194.36,103.23a5.51,5.51,0,0,0-6.7.51Z" transform="translate(-93.37 -102.33)"/><path class="cls-4" d="M305,265.28,117.72,277.74a2.67,2.67,0,0,1-2.82-2.29L96.2,143.39a2.66,2.66,0,0,1,2.53-3L286,133a2.67,2.67,0,0,1,2.74,2.28l18.69,126.93A2.66,2.66,0,0,1,305,265.28Z" transform="translate(-93.37 -102.33)"/><ellipse class="cls-2" cx="138.1" cy="170.16" rx="23.01" ry="24.44" transform="translate(-173.56 48.44) rotate(-45.86)"/><g class="cls-38"><path class="cls-39" d="M152.91,184.11c4.5,4.76,9.26,17,11.69,23.55,1.65,4.47-3.8,6.86-6.66,3-3.51-4.74-8.44-14.37-11.87-21.05C143.84,185.26,148.24,179.17,152.91,184.11Z" transform="translate(-93.37 -102.33)"/><path class="cls-40" d="M138.82,179.31c-.55.4-10.68,3.3-12.55,8.54-1,2.65,13.49,29.72,13.49,29.72s3.09,3.45,14.06-2.71c0,0,.31-10.67.13-19.48,0-1.49-1.62-3.89-1.68-5.21-.17-3.57,1.08-5.34.58-6.07C150.87,181.21,138.82,179.31,138.82,179.31Z" transform="translate(-93.37 -102.33)"/><path class="cls-41" d="M135,155.78a12.11,12.11,0,0,1,4.2,6.53c.75,3.9,1.19,10.36,2.37,11.58s7.85,2.34,7.85,2.34.05-14.16-3.91-18.66C142.11,153.72,135,155.78,135,155.78Z" transform="translate(-93.37 -102.33)"/><path class="cls-2" d="M142.84,170.87c.52,1.44,1.52,2.43,2.23,2.21s.87-1.56.35-3A4,4,0,0,0,144,168c-.18-.12-.07-.29.11-.17a4.22,4.22,0,0,1,1.56,2.17c.56,1.57.35,3-.48,3.25s-1.92-.78-2.49-2.35a4.05,4.05,0,0,1-.29-2.08l.2.1A4.2,4.2,0,0,0,142.84,170.87Z" transform="translate(-93.37 -102.33)"/><path class="cls-41" d="M143.91,164.35c.88,4.88-1.59,8.19-6.11,8.74-5.79.71-8.91-3-9.79-7.84s2.25-8.27,6.77-8.82S142.65,157.42,143.91,164.35Z" transform="translate(-93.37 -102.33)"/><path class="cls-42" d="M133.61,170.58s2.39,8.75,1.14,10.16c-1.8,2-2.61,2-2.34,3.21.69,3.1,6.69,5.5,9.25,5,2.94-.55,5.48-4,5-6.24-.28-1.41-1.5-1.35-5-3-1-.44-1.86-9.31-1.86-9.31Z" transform="translate(-93.37 -102.33)"/><path class="cls-42" d="M143.2,163c-.56-3.09-2.79-5.26-5.79-4.9-2.19.26-7,1.53-4.81,6.42a5.42,5.42,0,0,1,.5,2.41l-.2-.27c-.39-.51-1.64-1.72-2.56-.85s0,3.14,1.13,3.95a2,2,0,0,0,1.62.26s0,.09,0,.13a7.41,7.41,0,0,0,7.35,4.83c2.85-.35,4.39-1.63,3.8-6C144.08,167.45,143.2,163,143.2,163Z" transform="translate(-93.37 -102.33)"/><path class="cls-43" d="M136.62,165.49s0,0,0,0,0,0,0,0Z" transform="translate(-93.37 -102.33)"/><path class="cls-41" d="M141.29,159.21c.94.67,2.38,3.81,2.38,3.81s2.94-9.1-5.8-9c-6.92.08-8.46,4.06-7.65,7.3.76,3,3.54,6.43,3.54,6.43a7.67,7.67,0,0,0,.06-2.68C133.66,162.8,139.32,157.83,141.29,159.21Z" transform="translate(-93.37 -102.33)"/><path class="cls-31" d="M132,168.4l.76-.43a5.23,5.23,0,0,0-.5-1c-.27-.31-1.14-1.18-1.65-.58s.11,2.22.89,2.68a.61.61,0,0,0,.72,0Z" transform="translate(-93.37 -102.33)"/><path class="cls-16" d="M129.81,161l2.78,1.31a.22.22,0,0,0,.3-.11l.35-.75a.24.24,0,0,0-.12-.32l-2.82-1.33a.22.22,0,0,0-.31.11l-.31.78A.24.24,0,0,0,129.81,161Z" transform="translate(-93.37 -102.33)"/><path class="cls-40" d="M125.72,188.12c-2.62,5.64-2.84,18.45-2.83,25.33a3.79,3.79,0,0,0,7.43,1.27c1.68-5.37,3-15.76,3.89-23C134.8,187.06,128.43,182.28,125.72,188.12Z" transform="translate(-93.37 -102.33)"/><path class="cls-2" d="M131.19,171.41c.27,1.48,1.1,2.62,1.84,2.53s1.13-1.38.86-2.86a3.91,3.91,0,0,0-1.11-2.25c-.16-.15,0-.3.14-.15a4.15,4.15,0,0,1,1.18,2.37c.29,1.63-.16,3-1,3.09s-1.78-1.08-2.08-2.71a3.94,3.94,0,0,1,.07-2.08,1.18,1.18,0,0,0,.18.13A4.22,4.22,0,0,0,131.19,171.41Z" transform="translate(-93.37 -102.33)"/><path class="cls-2" d="M142.06,169.49s-1.12-.8-4.22-.08C138.51,171.05,142.14,171.36,142.06,169.49Z" transform="translate(-93.37 -102.33)"/><path class="cls-31" d="M142,169.53a4,4,0,0,0-1-.21,6.14,6.14,0,0,0-1.05,0,12.47,12.47,0,0,0-2.08.32l.16-.31a2.48,2.48,0,0,0,2,1.22,2.42,2.42,0,0,0,1.23-.12,1,1,0,0,0,.47-.35,1.38,1.38,0,0,0,.14-.27C141.94,169.71,142,169.63,142,169.53Zm.16-.08a1.21,1.21,0,0,1-.68,1.27A2.8,2.8,0,0,1,140,171a3.54,3.54,0,0,1-1.38-.4,2.13,2.13,0,0,1-1-1.06h0a.22.22,0,0,1,.12-.29h0a9.33,9.33,0,0,1,2.17-.26,5.06,5.06,0,0,1,1.1.09A2.5,2.5,0,0,1,142.14,169.45Z" transform="translate(-93.37 -102.33)"/><path class="cls-16" d="M138.34,165.48c0,.29-.34.36-.8.38s-.85,0-.87-.31.32-.54.78-.56S138.31,165.19,138.34,165.48Z" transform="translate(-93.37 -102.33)"/><path class="cls-16" d="M142.58,165.33c0,.29-.35.35-.81.37s-.84,0-.87-.31.33-.54.79-.56S142.55,165,142.58,165.33Z" transform="translate(-93.37 -102.33)"/><path class="cls-41" d="M143.3,164s-1.22-.79-1.5-.74-1.28.58-1.42.44a2.31,2.31,0,0,1-.29-.45,7.79,7.79,0,0,1,1.78-.4A3.5,3.5,0,0,1,143.3,164Z" transform="translate(-93.37 -102.33)"/><path class="cls-41" d="M135.31,164s1.31-.73,1.69-.68,1.63.49,1.76.35a1.66,1.66,0,0,0,.24-.46,12.82,12.82,0,0,0-2.19-.3A3,3,0,0,0,135.31,164Z" transform="translate(-93.37 -102.33)"/><path class="cls-34" d="M140.68,168.06s-1.06.09-1.09-.2,2.11-.88,2.27-.69S141.12,167.87,140.68,168.06Z" transform="translate(-93.37 -102.33)"/><path class="cls-31" d="M140.06,163.63a5.31,5.31,0,0,0,.18,1.82c.24.46,1.4,1.42,1.46,1.65s-.95.92-1,1,1.54-.42,1.4-.94-1.62-1.67-1.71-1.92S140.06,163.63,140.06,163.63Z" transform="translate(-93.37 -102.33)"/></g><path class="cls-2" d="M288.45,250.47,130,258.16a4.1,4.1,0,0,1-4.25-3.49L118.61,203a4.1,4.1,0,0,1,3.88-4.7l158.34-7.13a4.11,4.11,0,0,1,4.22,3.39l7.24,51.13A4.1,4.1,0,0,1,288.45,250.47Z" transform="translate(-93.37 -102.33)"/><path class="cls-36" d="M271.62,203.16l-141.7,6.08a1.56,1.56,0,0,1-1.61-1.35h0a1.56,1.56,0,0,1,1.47-1.76l141.7-6.06a1.55,1.55,0,0,1,1.62,1.44h0A1.54,1.54,0,0,1,271.62,203.16Z" transform="translate(-93.37 -102.33)"/><path class="cls-36" d="M274.22,208.72h0a1.55,1.55,0,0,0-1.62-1.44l-141.85,6.07a1.55,1.55,0,0,0-1.47,1.76h0a1.56,1.56,0,0,0,1.61,1.34l141.84-6.07A1.56,1.56,0,0,0,274.22,208.72Z" transform="translate(-93.37 -102.33)"/><path class="cls-36" d="M196.33,217.81l-64.62,2.77a1.54,1.54,0,0,0-1.46,1.74v0a1.54,1.54,0,0,0,1.6,1.33l64.61-2.77a1.54,1.54,0,0,0,1.47-1.74v0A1.56,1.56,0,0,0,196.33,217.81Z" transform="translate(-93.37 -102.33)"/><path class="cls-36" d="M220.94,224l-88.26,3.77a1.54,1.54,0,0,0-1.46,1.75v0a1.56,1.56,0,0,0,1.6,1.34l88.25-3.79a1.53,1.53,0,0,0,1.47-1.63v0A1.54,1.54,0,0,0,220.94,224Z" transform="translate(-93.37 -102.33)"/><path class="cls-36" d="M133.15,244h0a1.55,1.55,0,0,0,1.6,1.35l72.52-3.1a1.55,1.55,0,0,0,1.48-1.63v-.06a1.54,1.54,0,0,0-1.62-1.43l-72.51,3.11A1.55,1.55,0,0,0,133.15,244Z" transform="translate(-93.37 -102.33)"/><path class="cls-2" d="M274.93,163.64l-100.61,4.88a2.6,2.6,0,0,1-2.7-2.21l-.73-4.9a2.6,2.6,0,0,1,2.46-3l100.53-4.53a2.59,2.59,0,0,1,2.68,2.15l.8,4.54A2.59,2.59,0,0,1,274.93,163.64Z" transform="translate(-93.37 -102.33)"/><path class="cls-2" d="M277.58,179.91,177,184.79a2.61,2.61,0,0,1-2.7-2.22l-.74-4.89a2.61,2.61,0,0,1,2.46-3l100.54-4.52a2.61,2.61,0,0,1,2.68,2.14l.8,4.54A2.61,2.61,0,0,1,277.58,179.91Z" transform="translate(-93.37 -102.33)"/><path class="cls-36" d="M241.27,158.84l-64.82,3.34a1.54,1.54,0,0,0-1.45,1.74v0a1.54,1.54,0,0,0,1.61,1.33L241.43,162a1.56,1.56,0,0,0,1.46-1.75v0A1.56,1.56,0,0,0,241.27,158.84Z" transform="translate(-93.37 -102.33)"/><path class="cls-36" d="M231.12,176l-51.28,2.74a1.54,1.54,0,0,0-1.44,1.75v0a1.55,1.55,0,0,0,1.61,1.34l51.28-2.74a1.56,1.56,0,0,0,1.45-1.75v0A1.54,1.54,0,0,0,231.12,176Z" transform="translate(-93.37 -102.33)"/><path class="cls-44" d="M93.75,199.68l108.78,58.05s4.82-6,11.16-6.84,12.14,5.74,12.14,5.74l79.8-65.24L216.48,289Z" transform="translate(-93.37 -102.33)"/><path class="cls-45" d="M93.75,199.68l123.11,74.39L306,192.78l21.18,137.84L115.25,344.71Q104.73,273.76,93.75,199.68Z" transform="translate(-93.37 -102.33)"/><path class="cls-46" d="M93.75,199.68s8.37,26.28,15,72.72,6.16,70.91,6.16,70.91Z" transform="translate(-93.37 -102.33)"/><path class="cls-47" d="M204.66,266.7s-90.38,78.88-89.41,78,23.72-24.47,40.14-40.45S195,269.93,204.66,266.7Z" transform="translate(-93.37 -102.33)"/><path class="cls-48" d="M115.25,344.71l211.88-14.09-109.94-72a5.51,5.51,0,0,0-6.7.51Z" transform="translate(-93.37 -102.33)"/><path class="cls-29" d="M290,309.43s-8.73,79.06-10.58,108c-.15,2.26,6.45,4,7.17,0,4.53-25.33,17.53-108,17.53-108Z" transform="translate(-93.37 -102.33)"/><path class="cls-41" d="M315.05,309.43s-7.43,74.86-9,99.5c-.12,1.93,5.5,3.43,6.11,0,3.85-21.56,14.92-99.5,14.92-99.5Z" transform="translate(-93.37 -102.33)"/><path class="cls-29" d="M502.81,309.43s8.73,79.06,10.59,108c.14,2.26-6.46,4-7.18,0-4.52-25.33-17.52-108-17.52-108Z" transform="translate(-93.37 -102.33)"/><path class="cls-41" d="M522.68,309.43s7.44,74.86,9,99.5c.13,1.93-5.49,3.43-6.1,0-3.85-21.56-14.92-99.5-14.92-99.5Z" transform="translate(-93.37 -102.33)"/><polygon class="cls-41" points="411.67 211.22 192.37 211.22 188.78 197.43 413.5 197.43 411.67 211.22"/><polygon class="cls-49" points="431.99 209.28 411.67 211.22 413.5 197.43 435.06 197.43 431.99 209.28"/><rect class="cls-50" x="176.54" y="193.75" width="243.48" height="7.36"/><polygon class="cls-41" points="443.96 200.11 420.02 201.11 420.02 193.75 443.96 192.75 443.96 200.11"/><polygon class="cls-51" points="176.54 193.75 221.4 192.75 443.96 192.75 420.02 193.75 176.54 193.75"/><path class="cls-5" d="M303.74,286.4s-6.55-14.94,2.3-14.94,2.33,14.94,2.33,14.94S305.42,286.47,303.74,286.4Z" transform="translate(-93.37 -102.33)"/><path class="cls-52" d="M304.26,286.4s-5.05-14.94,1.78-14.94,1.8,14.94,1.8,14.94S305.56,286.47,304.26,286.4Z" transform="translate(-93.37 -102.33)"/><path class="cls-1" d="M315.25,286.64l-.07,1.08L315.1,289l-.1,1.54,0,.48-.3,4.37c0,.45-17.07.65-17.08.21l-.37-4.58,0-.25-.14-1.56-.12-1.47-.09-1.07a.86.86,0,0,1,.86-.92h16.68A.86.86,0,0,1,315.25,286.64Z" transform="translate(-93.37 -102.33)"/><polygon class="cls-32" points="221.81 185.39 221.72 186.65 221.63 188.19 221.6 188.67 203.84 188.67 203.82 188.42 203.69 186.86 203.56 185.39 221.81 185.39"/><path class="cls-20" d="M246.39,189.11h83.34a2.33,2.33,0,0,1,2.33,2.33v1.31a0,0,0,0,1,0,0h-88a0,0,0,0,1,0,0v-1.31A2.33,2.33,0,0,1,246.39,189.11Z"/><path class="cls-24" d="M404.41,281.17h-70A1.47,1.47,0,0,1,333,280l-13-51.21-.32-1.22c-.18-.89,2.71-3.09,3.62-3.11l71.38-.61a2.93,2.93,0,0,1,2.06.69,3.59,3.59,0,0,1,1,2.09l9.93,51.49C407.92,279.22,405.9,281.17,404.41,281.17Z" transform="translate(-93.37 -102.33)"/><path class="cls-53" d="M396.74,224.53c-.95.84-2,1.81-2.39,2.09,0,0-73.54,2.07-73.91,2.2a1.32,1.32,0,0,1-.44,0l-.32-1.22c-.18-.89,2.71-3.09,3.62-3.11l71.38-.61A2.93,2.93,0,0,1,396.74,224.53Z" transform="translate(-93.37 -102.33)"/><path class="cls-54" d="M404.27,281.17h-72a1.47,1.47,0,0,1-1.44-1.18L319.7,228a1.48,1.48,0,0,1,1.4-1.75l72.76-.64a1.46,1.46,0,0,1,1.47,1.18l10.37,52.67A1.46,1.46,0,0,1,404.27,281.17Z" transform="translate(-93.37 -102.33)"/><path class="cls-24" d="M398.85,274.73c.16.74-1.43,2.52-2.67,2.52H338.66a1.21,1.21,0,0,1-1.19-1l-11.11-43.13-.09-.31c-.14-.74,2.24-2.55,3-2.57l60-.34a1.18,1.18,0,0,1,.93.4,1.22,1.22,0,0,1,.28.57Z" transform="translate(-93.37 -102.33)"/><path class="cls-55" d="M390.22,230.32l-2.73,2.06-61.13.76-.09-.31c-.14-.74,2.24-2.55,3-2.57l60-.34A1.18,1.18,0,0,1,390.22,230.32Z" transform="translate(-93.37 -102.33)"/><path class="cls-53" d="M396.07,277.25H336.85a1.2,1.2,0,0,1-1.19-1l-7.82-36.18-.92-4.12-.62-2.8a1.19,1.19,0,0,1,1.15-1.44l60-.35a1.21,1.21,0,0,1,1.21,1l.57,2.92.9,4.53,7.09,36A1.2,1.2,0,0,1,396.07,277.25Z" transform="translate(-93.37 -102.33)"/><polygon class="cls-24" points="279.06 135.46 251.23 135.6 251.03 134.77 278.87 134.66 279.06 135.46"/><polygon class="cls-24" points="279.39 136.93 251.57 137.07 251.36 136.24 279.2 136.13 279.39 136.93"/><polygon class="cls-24" points="279.73 138.4 251.9 138.54 251.69 137.71 279.53 137.6 279.73 138.4"/><polygon class="cls-24" points="280.06 139.87 252.23 140.01 252.02 139.18 279.86 139.06 280.06 139.87"/><polygon class="cls-24" points="256.04 152 277.82 151.98 271.46 192.75 249.88 192.75 256.04 152"/><polygon class="cls-20" points="256.04 152 275.77 151.98 269.41 192.75 249.88 192.75 256.04 152"/><rect class="cls-19" x="255.89" y="149.94" width="22.08" height="4.09"/><ellipse class="cls-20" cx="277.91" cy="151.99" rx="1.11" ry="2.04"/><path class="cls-19" d="M348.28,254.32c0-1.13.44-2,1-2s1,.92,1,2-.44,2-1,2S348.28,255.45,348.28,254.32Z" transform="translate(-93.37 -102.33)"/><circle class="cls-18" cx="555.84" cy="166.34" r="26.92" transform="translate(-48.19 339.43) rotate(-45)"/><rect class="cls-56" x="442.94" y="51.81" width="38.48" height="24.49"/><polygon class="cls-57" points="481.42 76.3 442.94 76.3 462.18 64.06 481.42 76.3"/><path class="cls-58" d="M536.31,154.14l18.07,15.94a1.77,1.77,0,0,0,2.34,0l18.07-15.94Z" transform="translate(-93.37 -102.33)"/><path class="cls-59" d="M536.31,154.14l18.07,14.65a1.89,1.89,0,0,0,2.34,0l18.07-14.65Z" transform="translate(-93.37 -102.33)"/><circle class="cls-14" cx="555.84" cy="235.42" r="26.92" transform="translate(-97.04 359.67) rotate(-45)"/><path class="cls-2" d="M548.85,231.45a8.5,8.5,0,0,0,4.16-1l2.06-1.12a1.39,1.39,0,0,0,.72-1.82L551,218.52a1.41,1.41,0,0,0-1.92-.4L547,219.23a7.77,7.77,0,0,0-4,5c-.84,4,2.67,13.34,4.84,17.34s9,12.57,12.72,13.41a7.79,7.79,0,0,0,5.3-.93l2.06-1.12a1.39,1.39,0,0,0,.71-1.82l-4.84-9a1.39,1.39,0,0,0-1.91-.4l-2.06,1.12a8.4,8.4,0,0,0-3.22,3A73.41,73.41,0,0,1,548.85,231.45Z" transform="translate(-93.37 -102.33)"/><rect class="cls-57" x="550.69" y="217.86" width="0.86" height="12.7" transform="translate(-133.69 186.77) rotate(-28.4)"/><rect class="cls-57" x="563.47" y="241.48" width="0.86" height="12.7" transform="translate(-143.38 195.75) rotate(-28.4)"/><circle class="cls-6" cx="625.07" cy="166.35" r="26.92" transform="translate(-27.92 388.39) rotate(-45)"/><path class="cls-1" d="M636.51,162c0,8.94-11.93,22.47-11.93,22.47S612.65,171.07,612.65,162a11.93,11.93,0,1,1,23.86,0Z" transform="translate(-93.37 -102.33)"/><circle class="cls-2" cx="531.21" cy="59.7" r="7.55"/><circle class="cls-32" cx="625.07" cy="235.44" r="26.92" transform="translate(-76.77 408.62) rotate(-45)"/><ellipse class="cls-60" cx="531.7" cy="133.19" rx="11.55" ry="16.16"/><circle class="cls-61" cx="625.07" cy="235.51" r="16.16" transform="translate(-76.83 408.64) rotate(-45)"/><path class="cls-2" d="M625.07,218.78a16.74,16.74,0,1,0,16.74,16.73A16.75,16.75,0,0,0,625.07,218.78Zm-3.82,27.35c-5.9-1-10.48-4.48-11.53-8.74,2,1.33,6.1,2.19,10.62,2.55A43.1,43.1,0,0,0,621.25,246.13Zm19.38-10.94c0,.11,0,.21,0,.32s0,.22,0,.33c-.62,1.18-4.52,2.59-10.77,3.09.07-1.13.11-2.28.11-3.42s0-2.28-.11-3.41C636.11,232.6,640,234,640.63,235.19Zm-11.7.32c0,1.23,0,2.39-.11,3.49-1.18.07-2.43.11-3.75.11s-2.57,0-3.75-.11c-.07-1.1-.11-2.26-.11-3.49s0-2.38.11-3.48c1.18-.07,2.43-.11,3.75-.11s2.57,0,3.75.11C628.89,233.13,628.93,234.29,628.93,235.51Zm-19.42.33c0-.11,0-.22,0-.33s0-.21,0-.32c.62-1.18,4.52-2.59,10.77-3.09-.07,1.13-.11,2.28-.11,3.41s0,2.29.11,3.42C614,238.43,610.13,237,609.51,235.84Zm15.56-4.94c-1.23,0-2.46,0-3.68.12a39.17,39.17,0,0,1,1-6.3,21.53,21.53,0,0,1,5.4,0,39.17,39.17,0,0,1,1,6.3C627.53,231,626.3,230.9,625.07,230.9Zm-4.73.19c-4.52.35-8.61,1.22-10.62,2.55,1-4.27,5.63-7.69,11.53-8.74A43.1,43.1,0,0,0,620.34,231.09Zm4.73,9c1.23,0,2.46,0,3.68-.11a38.84,38.84,0,0,1-1,6.29,20.34,20.34,0,0,1-5.4,0,38.84,38.84,0,0,1-1-6.29C622.61,240.08,623.84,240.12,625.07,240.12Zm4.73-.18c4.52-.36,8.61-1.22,10.62-2.55-1,4.26-5.63,7.69-11.53,8.74A43.1,43.1,0,0,0,629.8,239.94Zm0-8.85a43.1,43.1,0,0,0-.91-6.19c5.9,1,10.48,4.47,11.53,8.74C638.41,232.31,634.32,231.44,629.8,231.09Zm9.45-2a17.71,17.71,0,0,0-10.68-5.44,11.4,11.4,0,0,0-1.57-3.59A15.61,15.61,0,0,1,639.25,229.1ZM624.75,220h.64c.67.3,1.41,1.55,2.05,3.57a21.58,21.58,0,0,0-4.73,0C623.34,221.5,624.08,220.25,624.75,220Zm-1.61.12a11.4,11.4,0,0,0-1.57,3.59,17.71,17.71,0,0,0-10.68,5.44A15.61,15.61,0,0,1,623.14,220.07Zm-12.25,21.86a17.71,17.71,0,0,0,10.68,5.44,11.51,11.51,0,0,0,1.57,3.59A15.61,15.61,0,0,1,610.89,241.93Zm14.5,9.14-.32,0-.32,0c-.67-.3-1.41-1.54-2-3.57a20,20,0,0,0,4.73,0C626.8,249.53,626.06,250.77,625.39,251.07ZM627,251a11.51,11.51,0,0,0,1.57-3.59,17.71,17.71,0,0,0,10.68-5.44A15.61,15.61,0,0,1,627,251Z" transform="translate(-93.37 -102.33)"/><path class="cls-6" d="M430.62,136.9H362.86a10.74,10.74,0,0,0-10.75,10.74v17.11a10.75,10.75,0,0,0,10.75,10.75H407.4l17,27.46-5.52-27.46h11.75a10.75,10.75,0,0,0,10.74-10.75V147.64A10.74,10.74,0,0,0,430.62,136.9Z" transform="translate(-93.37 -102.33)"/><path class="cls-16" d="M383.24,155.47a3.11,3.11,0,1,1-3.11-3.1A3.11,3.11,0,0,1,383.24,155.47Z" transform="translate(-93.37 -102.33)"/><path class="cls-16" d="M399.84,155.47a3.11,3.11,0,1,1-3.1-3.1A3.1,3.1,0,0,1,399.84,155.47Z" transform="translate(-93.37 -102.33)"/><path class="cls-16" d="M416.45,155.47a3.11,3.11,0,1,1-3.11-3.1A3.11,3.11,0,0,1,416.45,155.47Z" transform="translate(-93.37 -102.33)"/><path class="cls-20" d="M581.19,375v26c0,5.94,39.87,5.94,39.87,0V374.77Z" transform="translate(-93.37 -102.33)"/><path class="cls-19" d="M581.19,373.35v4.53s2.91,2.64,19.93,2.64,19.94-2.9,19.94-2.9v-4.27Z" transform="translate(-93.37 -102.33)"/><ellipse class="cls-53" cx="507.75" cy="271.02" rx="19.94" ry="2.45"/><ellipse class="cls-62" cx="507.75" cy="271.02" rx="18.25" ry="1.74"/><path class="cls-4" d="M599.64,373.65a31.2,31.2,0,0,0-9.8-8c-5.67-2.67-12.33-5.08-12.22-9.42s18.33-8.85,23.47,17.32C601.17,374.37,600.06,374.28,599.64,373.65Z" transform="translate(-93.37 -102.33)"/><path class="cls-63" d="M600,373.77s-3.56-5.77-7.59-8.37c-4.5-2.9-9.43-3.36-9.35-6.7s12.83-4.18,18.05,15C601.15,374.33,600.29,374.26,600,373.77Z" transform="translate(-93.37 -102.33)"/><path class="cls-5" d="M600.55,374.15a45.09,45.09,0,0,0-15.1-16.3s10.84,5,15.61,16.13Z" transform="translate(-93.37 -102.33)"/><path class="cls-4" d="M601.06,374s-1.7-8.54-5.18-14.74c-4.27-7.62-7.74-14.29-3.8-17.29,4.1-3.11,19.26,2.94,10.24,32C602.2,374.54,601.83,374.77,601.06,374Z" transform="translate(-93.37 -102.33)"/><path class="cls-63" d="M601.06,374a63.42,63.42,0,0,0-3.77-13.37c-3.12-6.91-5.65-13-2.77-15.67s14,2.66,7.46,29C601.89,374.55,601.62,374.76,601.06,374Z" transform="translate(-93.37 -102.33)"/><path class="cls-5" d="M601.06,374s1.39-8.45-3.88-24.05c0,0,5.5,6.48,5.14,24C602.32,373.93,601.66,375.27,601.06,374Z" transform="translate(-93.37 -102.33)"/><path class="cls-4" d="M612.78,362.23c-5.78,4.14-9.48,11.49-9.48,11.49a.87.87,0,0,1-.69.53c-.38.05-.77-.21-.81-.83.34-30.41,21.72-29.12,22.74-24.29S618.58,358.06,612.78,362.23Z" transform="translate(-93.37 -102.33)"/><path class="cls-63" d="M609.56,362.24c-4.37,4.24-6.47,11.56-6.47,11.56a.75.75,0,0,1-.6.45c-.33.05-.65-.17-.69-.71,2.6-25.27,16.88-25.77,18.35-21.81C621.06,354.17,615,356.93,609.56,362.24Z" transform="translate(-93.37 -102.33)"/><path class="cls-5" d="M614.21,353.61c-10.19,9.17-11.36,19.74-11.36,19.74s-.1.35-.24.9c-.38.05-.77-.21-.81-.83C605,357.22,614.21,353.61,614.21,353.61Z" transform="translate(-93.37 -102.33)"/><path class="cls-62" d="M599.49,374.26s-1.53-1-1.39-1.31,2.36,1,2.36,1-1.26-1.55-.7-1.9,1.74,1.73,1.77,1.63.17-2.42,1.32-2.46.2,2.39.2,2.39,1.6-1.49,2.36-.66S602.5,375.43,599.49,374.26Z" transform="translate(-93.37 -102.33)"/></g></g></svg>